<?xml version="1.0" encoding="UTF-8" ?>
<!DOCTYPE svg PUBLIC "-//W3C//DTD SVG 1.1//EN" "http://www.w3.org/Graphics/SVG/1.1/DTD/svg11.dtd">
<svg width="543pt" height="435pt" viewBox="0 0 543 435" version="1.1" xmlns="http://www.w3.org/2000/svg">
<g id="#cfd3d6ff">
<path fill="#cfd3d6" opacity="1.00" d=" M 0.00 0.00 L 0.02 0.00 C 0.02 0.03 0.01 0.08 0.00 0.11 L 0.00 0.00 Z" />
<path fill="#cfd3d6" opacity="1.00" d=" M 263.89 114.00 C 265.41 108.69 265.80 101.96 270.92 98.70 C 276.76 104.89 277.30 114.05 278.67 122.03 C 280.33 119.27 281.57 116.10 284.09 113.98 C 285.66 112.76 287.17 114.97 287.53 116.34 C 288.84 121.46 289.43 127.02 287.77 132.14 C 285.49 141.89 284.81 151.99 285.24 161.97 C 285.82 169.83 286.57 178.14 290.94 184.94 C 290.13 185.25 289.32 185.56 288.51 185.87 C 280.56 180.14 268.71 178.54 260.27 184.11 C 258.59 182.35 256.69 180.82 254.62 179.54 C 261.82 167.38 263.56 152.78 262.77 138.90 C 262.11 129.79 259.35 120.90 254.90 112.93 C 255.01 110.30 255.98 107.68 257.32 105.42 C 258.46 103.93 259.77 105.44 260.44 106.47 C 262.11 108.71 262.88 111.44 263.89 114.00 Z" />
<path fill="#cfd3d6" opacity="1.00" d=" M 204.85 286.12 C 206.26 285.40 207.68 284.71 209.11 284.03 C 215.68 286.67 216.14 295.01 217.10 301.03 C 217.77 299.82 218.82 298.67 218.60 297.17 C 219.62 297.95 220.71 298.62 221.83 299.28 C 218.16 300.92 215.02 303.46 211.78 305.79 C 208.87 299.46 206.99 292.73 204.85 286.12 Z" />
<path fill="#cfd3d6" opacity="1.00" d=" M 112.38 382.65 C 125.16 370.52 137.56 357.18 144.27 340.61 C 148.53 352.21 152.65 363.86 156.29 375.66 C 157.03 378.48 158.73 381.29 158.10 384.29 C 143.16 384.34 128.21 384.38 113.27 384.26 L 113.12 385.76 C 112.94 384.98 112.57 383.43 112.38 382.65 Z" />
</g>
<g id="#020307ff">
<path fill="#020307" opacity="1.00" d=" M 98.06 0.00 L 101.50 0.00 C 107.85 1.58 113.30 5.35 119.37 7.65 C 127.20 10.96 135.36 13.37 143.54 15.63 C 153.96 18.88 165.11 21.97 173.04 29.93 C 186.30 42.92 195.65 59.14 205.63 74.63 C 225.48 63.15 245.45 51.86 264.57 39.18 C 260.85 50.24 250.86 57.26 241.79 63.75 C 245.43 63.11 249.05 62.37 252.71 61.87 C 257.55 61.84 262.47 62.07 267.21 60.92 C 278.50 48.50 291.10 36.45 306.88 29.97 C 309.52 28.75 312.46 28.74 315.29 29.18 C 312.65 33.18 309.00 36.35 306.17 40.20 C 300.88 47.10 296.78 54.86 293.91 63.06 C 293.61 63.35 293.01 63.92 292.70 64.21 C 293.04 64.37 293.72 64.68 294.06 64.84 C 294.49 64.85 295.36 64.86 295.80 64.87 C 299.01 63.33 302.09 61.40 305.63 60.70 C 310.83 60.62 316.03 60.67 321.23 60.93 C 329.66 62.81 336.59 68.75 341.26 75.83 C 348.69 87.01 352.63 99.97 358.15 112.10 C 366.67 111.76 375.22 109.79 382.69 105.57 C 386.63 103.46 389.90 100.38 393.41 97.65 C 391.39 102.60 387.72 106.54 383.84 110.10 C 386.86 109.33 390.58 109.63 392.81 107.08 C 397.78 101.96 402.24 96.38 407.07 91.14 C 408.41 90.42 409.46 89.29 410.06 87.88 C 414.15 84.45 418.64 81.14 423.98 80.08 C 431.30 78.56 438.80 81.89 444.18 86.72 C 450.92 93.06 453.47 102.48 454.41 111.40 C 454.19 114.65 454.14 117.91 454.15 121.17 C 452.38 133.92 445.27 145.33 436.05 154.09 C 433.74 155.67 435.80 158.41 436.04 160.49 C 441.41 160.42 446.77 160.65 452.13 160.87 C 450.90 161.11 449.68 161.36 448.46 161.61 C 445.85 161.55 443.24 161.52 440.63 161.49 C 439.19 161.48 437.74 161.48 436.31 161.48 C 436.47 163.05 436.63 164.61 436.80 166.19 C 437.47 165.46 438.81 164.00 439.48 163.27 C 435.84 168.40 436.64 174.93 434.53 180.61 C 431.96 188.74 427.23 195.92 422.67 203.04 C 427.83 205.31 433.33 207.36 436.97 211.91 C 460.64 212.91 484.46 217.64 506.00 227.72 C 484.16 219.91 461.27 214.34 438.02 213.56 C 439.60 218.07 438.69 222.87 436.16 226.83 C 452.23 233.49 467.83 241.30 482.70 250.34 C 484.44 251.63 487.23 252.22 487.85 254.57 C 486.81 254.19 485.82 253.71 484.87 253.19 C 468.88 243.74 452.16 235.58 435.23 227.95 C 433.23 229.80 431.14 231.55 429.01 233.25 C 430.75 246.08 436.39 258.00 438.23 270.82 C 438.20 274.28 438.20 277.74 438.21 281.20 C 437.34 286.35 434.14 290.72 429.91 293.66 C 435.63 298.45 440.55 304.10 444.75 310.25 C 452.58 305.55 459.85 299.99 466.76 294.03 C 468.52 293.98 469.89 292.75 470.20 291.03 C 477.60 284.14 485.71 275.39 496.76 276.13 C 490.44 277.55 484.22 280.06 479.50 284.64 C 469.05 294.84 458.72 305.52 446.00 312.95 C 447.08 315.07 448.11 317.22 449.15 319.38 C 456.75 313.28 463.64 306.32 469.76 298.75 C 475.09 292.13 480.99 285.78 488.28 281.28 C 491.84 279.04 495.97 278.00 499.77 276.25 C 500.68 276.53 501.59 276.86 502.50 277.19 C 490.15 279.57 480.75 288.63 473.01 297.96 C 466.59 305.95 459.97 313.79 452.88 321.20 C 450.05 320.57 448.39 324.21 450.93 325.77 L 451.03 326.78 C 451.24 330.06 451.45 333.33 451.73 336.61 C 450.31 351.40 442.03 364.52 432.62 375.61 C 430.14 378.66 426.94 381.09 424.80 384.42 C 424.80 384.52 424.80 384.72 424.80 384.82 L 424.90 385.38 C 423.98 386.53 422.76 387.20 421.24 387.39 C 415.73 391.93 410.08 396.28 404.41 400.61 C 410.65 401.19 416.94 402.01 422.85 404.22 C 427.92 405.98 433.01 409.33 434.38 414.86 C 434.38 415.69 434.38 417.36 434.38 418.19 C 432.85 424.60 426.04 426.76 420.24 427.21 C 417.25 430.20 413.29 432.17 409.00 432.14 C 396.28 432.44 383.48 427.52 374.29 418.71 C 370.86 415.79 368.22 412.06 366.69 407.82 C 355.53 417.57 341.13 424.31 326.09 423.95 C 324.74 422.46 322.65 422.36 320.94 423.23 C 315.65 421.84 310.28 418.64 309.25 412.81 C 307.25 411.94 304.88 411.44 303.49 409.62 C 301.96 407.76 301.90 405.23 301.42 402.99 C 300.10 402.94 298.79 402.89 297.49 402.84 C 294.58 402.41 291.65 402.21 288.72 402.23 C 276.13 400.42 263.86 396.30 252.75 390.11 C 250.26 401.16 243.56 410.82 235.62 418.70 C 226.42 427.58 214.06 433.96 201.01 433.39 C 191.86 433.28 182.71 429.50 176.73 422.47 C 167.98 412.43 164.18 399.36 159.76 387.07 C 158.53 386.39 157.98 385.47 158.10 384.29 C 158.73 381.29 157.03 378.48 156.29 375.66 C 152.65 363.86 148.53 352.21 144.27 340.61 C 137.56 357.18 125.16 370.52 112.38 382.65 C 112.57 383.43 112.94 384.98 113.12 385.76 C 110.79 386.87 108.94 386.34 107.57 384.17 C 119.38 372.02 131.80 359.98 140.16 345.05 C 141.43 342.16 143.91 338.91 142.29 335.68 C 137.93 324.61 133.22 313.68 128.09 302.95 C 131.54 306.95 134.16 311.54 136.86 316.05 C 144.38 328.98 150.26 342.79 155.26 356.86 C 160.08 370.48 163.79 384.49 168.93 398.00 C 172.47 406.95 176.68 416.44 184.95 422.00 C 194.39 428.02 206.73 427.91 216.93 423.90 C 228.77 419.18 238.63 410.22 245.57 399.63 C 247.77 396.33 249.30 392.65 250.61 388.93 C 236.07 380.06 223.77 365.58 222.17 348.08 C 217.34 352.47 212.30 356.93 206.10 359.25 C 201.68 361.05 196.87 361.45 192.15 361.53 C 185.79 368.23 183.78 377.56 183.47 386.51 C 180.68 378.10 181.57 368.62 186.28 361.07 C 171.77 358.22 158.34 346.92 155.78 331.94 C 153.99 323.18 159.05 313.24 167.81 310.60 C 177.80 307.73 187.90 312.00 197.95 311.98 C 202.11 312.06 205.66 309.65 209.13 307.69 C 206.34 302.62 203.93 297.35 202.02 291.90 C 196.89 277.91 195.65 262.81 190.07 248.96 C 187.19 241.78 183.26 234.65 176.99 229.88 C 173.81 227.38 169.97 225.97 166.16 224.75 C 155.01 229.38 144.05 234.50 133.61 240.57 C 130.49 242.06 129.77 245.71 128.60 248.64 C 124.88 258.98 123.91 269.98 122.97 280.85 C 120.50 283.77 119.85 287.68 118.16 291.04 C 111.92 304.36 103.15 316.34 93.59 327.46 C 75.50 348.23 54.27 366.04 31.96 382.10 C 30.73 383.00 30.48 384.30 31.20 386.00 C 27.01 386.42 22.77 386.30 18.62 385.55 C 21.93 383.62 25.27 381.72 28.26 379.31 C 52.20 360.83 74.99 340.65 94.64 317.60 C 105.34 304.79 115.31 291.02 121.52 275.44 C 122.64 270.04 122.22 264.44 122.82 258.97 C 124.94 258.16 124.48 255.59 123.68 253.99 C 124.25 251.11 124.92 248.26 125.59 245.41 C 123.32 246.92 121.08 248.48 118.98 250.22 C 118.56 249.85 118.14 249.49 117.72 249.12 C 121.28 246.69 126.03 244.88 127.45 240.43 C 129.25 235.49 132.18 231.10 135.50 227.06 C 129.72 224.15 123.43 222.50 117.01 221.80 C 115.24 220.17 112.77 220.27 111.01 221.85 C 104.72 222.57 98.58 224.21 92.78 226.74 C 94.41 223.63 96.12 220.58 97.82 217.52 C 89.58 222.25 82.35 228.59 76.30 235.90 C 77.57 229.39 79.12 222.89 81.87 216.83 C 88.24 202.25 99.88 190.36 113.55 182.42 C 114.19 181.95 114.83 181.48 115.46 180.99 C 112.84 181.04 110.23 181.21 107.66 181.74 C 106.97 181.91 105.59 182.27 104.90 182.44 C 104.30 182.08 103.10 181.36 102.49 180.99 C 104.49 178.36 106.66 175.85 109.04 173.55 C 100.52 164.73 93.68 153.24 94.04 140.60 C 94.70 137.64 94.92 134.60 94.70 131.57 C 96.86 118.76 102.34 106.80 108.27 95.34 C 114.18 84.89 119.58 74.00 122.06 62.16 C 123.31 61.09 123.54 59.40 122.94 57.92 L 122.99 57.43 C 124.21 51.27 124.26 44.93 123.22 38.74 C 122.48 34.73 122.04 30.45 119.99 26.86 C 115.17 23.47 109.88 20.70 105.49 16.71 C 101.55 13.15 97.26 9.28 95.77 4.01 C 95.16 2.25 97.18 1.20 98.06 0.00 M 97.64 2.60 C 106.00 14.21 119.39 20.61 131.64 27.27 C 147.29 36.28 161.49 48.12 172.24 62.69 C 181.06 74.65 187.09 89.07 187.24 104.09 C 187.97 119.16 184.96 135.73 174.02 146.86 C 175.66 143.92 177.58 141.16 179.16 138.19 C 176.82 139.55 174.56 141.25 171.87 141.84 C 165.30 143.35 158.58 137.49 158.19 130.99 C 157.80 127.44 159.43 124.14 160.18 120.75 C 154.87 125.53 153.31 132.88 151.86 139.56 C 143.62 133.86 132.23 133.83 123.83 139.22 C 130.67 139.21 137.15 142.13 142.27 146.54 C 137.19 147.07 132.56 149.94 129.65 154.09 C 132.96 152.86 136.29 150.95 139.94 151.36 C 143.91 151.97 146.23 155.68 147.58 159.13 C 149.50 158.32 151.42 157.51 153.39 156.84 C 152.21 158.15 150.93 159.39 149.36 160.23 C 142.59 164.17 135.03 166.50 127.53 168.62 C 119.24 170.98 111.21 174.89 104.95 180.90 C 112.01 178.06 119.60 177.42 127.05 176.27 C 106.20 188.05 90.49 207.60 80.04 228.85 C 83.01 225.24 85.84 221.42 89.73 218.72 C 96.08 213.75 104.19 211.38 112.20 211.50 C 110.24 213.11 107.48 212.94 105.32 214.17 C 102.74 216.09 100.58 218.51 98.45 220.90 C 102.23 219.49 106.04 218.10 110.06 217.60 C 119.90 215.95 130.28 218.85 138.00 225.12 C 147.10 217.70 160.09 216.82 171.02 220.13 C 175.35 218.50 179.71 216.91 184.20 215.78 C 185.31 207.82 188.77 200.46 193.61 194.10 C 183.00 192.92 171.84 191.50 161.68 195.67 C 164.07 192.92 167.76 192.05 171.18 191.34 C 183.10 189.39 195.18 191.11 207.08 192.38 C 213.68 192.92 220.95 193.78 226.93 190.28 C 189.92 182.24 151.28 181.26 114.05 188.47 C 119.23 186.60 124.66 185.54 130.07 184.59 C 162.82 179.06 196.75 180.64 228.84 189.20 C 230.72 186.45 233.25 183.29 232.66 179.80 C 233.89 178.31 233.94 175.63 232.70 174.15 C 233.45 171.02 231.10 167.96 229.50 165.40 C 222.16 156.04 210.64 151.70 199.98 147.37 C 208.96 148.94 217.64 152.39 225.31 157.31 C 223.84 151.67 223.13 145.84 223.20 140.01 C 223.29 128.46 225.30 116.13 232.86 106.97 C 235.50 104.11 238.80 100.68 243.03 101.03 C 247.63 102.77 250.49 107.09 253.59 110.68 C 254.25 108.16 254.70 105.40 256.48 103.38 C 257.18 102.68 258.18 101.67 259.10 102.74 C 261.28 104.58 262.19 107.43 263.60 109.83 C 264.37 105.33 265.16 99.98 269.26 97.23 C 272.01 96.05 274.00 98.89 275.08 100.99 C 277.52 106.13 278.66 111.82 279.25 117.45 C 281.18 115.23 282.60 111.63 285.95 111.44 C 290.68 113.15 290.02 119.34 290.35 123.42 C 291.80 121.86 293.31 120.36 294.92 118.97 C 300.59 121.80 303.29 127.98 305.44 133.59 C 310.83 149.50 308.65 167.26 302.22 182.53 C 307.18 182.01 312.34 182.63 316.35 185.81 C 318.32 185.25 320.07 184.09 321.88 183.15 C 317.70 180.50 313.09 177.87 310.71 173.31 C 307.93 167.96 309.23 161.76 309.85 156.06 C 310.49 148.03 311.94 139.96 310.86 131.89 C 309.97 125.31 307.99 118.86 304.92 112.98 C 304.41 114.43 303.91 115.88 303.41 117.33 C 303.15 111.80 302.38 105.78 298.36 101.60 C 295.02 97.96 289.94 96.76 285.17 96.82 C 285.77 95.42 286.41 94.03 287.06 92.66 C 279.39 86.90 270.19 83.74 261.23 80.62 C 257.82 79.25 254.19 80.56 250.73 81.04 C 251.75 84.00 252.52 87.03 253.11 90.11 C 250.48 87.85 247.69 85.38 244.09 85.00 C 238.14 84.17 232.61 87.55 228.43 91.45 C 223.13 96.27 220.36 103.18 219.47 110.17 C 218.27 103.08 218.80 95.65 222.01 89.13 C 220.19 90.55 218.41 92.01 216.56 93.39 C 218.04 88.98 220.12 84.68 223.35 81.27 C 225.11 79.50 227.27 78.19 229.12 76.51 C 226.63 76.86 224.17 77.42 221.70 77.92 C 228.76 69.71 244.12 69.23 249.91 79.17 C 255.66 77.08 261.82 76.66 267.89 76.92 C 274.52 77.25 280.85 79.24 287.24 80.86 C 280.90 77.00 273.58 75.31 266.53 73.24 L 265.73 73.71 L 266.35 73.34 C 259.99 71.81 253.45 71.54 246.96 71.12 C 251.24 69.98 255.75 70.32 260.01 69.04 C 272.52 65.80 285.53 66.49 298.26 67.71 C 295.30 66.74 292.24 66.16 289.18 65.65 C 268.52 62.47 247.27 63.58 226.99 68.59 C 230.38 66.68 234.45 66.06 237.36 63.31 C 244.69 57.31 252.68 51.97 259.18 45.04 C 242.36 56.64 225.61 68.58 207.20 77.61 C 209.33 81.81 212.41 85.54 214.02 90.01 C 207.69 82.54 201.68 74.78 196.42 66.53 C 187.93 54.60 178.69 43.02 167.56 33.44 C 158.73 25.58 147.03 22.58 136.17 18.69 C 127.73 15.71 119.40 12.43 111.24 8.75 C 106.68 6.75 102.66 3.40 97.64 2.60 M 122.85 28.03 C 130.28 47.36 125.57 69.03 117.17 87.25 C 109.48 102.83 102.00 119.30 101.66 136.98 C 101.17 149.31 105.68 161.38 112.75 171.34 C 122.45 165.13 134.24 164.16 144.77 159.95 C 143.49 157.80 142.12 155.37 139.52 154.66 C 134.80 153.35 130.15 155.51 125.90 157.32 C 127.16 154.87 128.42 152.33 130.44 150.40 C 132.79 148.01 136.04 146.94 139.04 145.63 C 132.79 142.94 126.16 141.16 119.37 140.64 C 123.49 136.23 128.94 132.76 135.06 132.21 C 140.64 131.68 146.00 134.06 150.47 137.20 C 150.46 132.85 151.05 128.28 153.69 124.68 C 155.80 121.50 159.26 119.65 162.63 118.11 C 161.41 121.96 160.18 126.05 161.06 130.12 C 161.90 134.72 166.10 138.97 171.02 138.44 C 174.83 137.91 178.80 136.13 181.22 133.10 C 185.23 122.62 185.83 111.14 185.07 100.03 C 184.03 86.10 177.14 73.27 168.26 62.74 C 155.78 48.14 139.87 36.76 122.85 28.03 M 273.05 61.04 C 278.76 61.46 284.48 62.13 290.04 63.60 C 294.55 51.92 301.35 41.30 309.34 31.72 C 295.01 38.22 283.17 49.19 273.05 61.04 M 298.59 65.61 C 301.84 67.93 306.03 68.43 309.29 70.80 C 303.56 70.03 297.80 69.58 292.04 69.27 C 291.06 73.05 290.30 76.88 289.81 80.76 C 291.35 81.99 292.83 83.28 294.21 84.69 C 292.61 84.16 291.05 83.59 289.48 83.02 C 289.35 85.02 289.24 87.03 289.17 89.04 C 292.08 89.57 295.22 88.42 297.94 89.93 C 302.81 92.11 305.05 97.36 306.41 102.19 C 304.73 101.12 303.07 100.03 301.35 99.02 C 303.41 101.87 304.85 105.10 305.16 108.63 C 315.12 120.09 316.55 136.30 314.24 150.74 C 320.07 152.37 327.22 152.30 331.60 147.51 C 337.47 140.87 337.60 131.33 337.38 122.95 C 336.73 102.35 328.00 81.98 312.80 67.92 C 317.45 70.62 320.78 74.92 324.13 79.01 C 336.17 94.37 341.34 114.58 339.33 133.88 C 338.52 140.91 335.95 148.80 329.25 152.28 C 324.52 154.85 318.93 153.95 314.11 152.18 C 313.59 157.96 312.02 163.70 312.52 169.53 C 313.42 176.04 320.36 178.47 325.04 181.87 C 333.47 178.01 342.17 174.77 351.05 172.13 C 352.43 171.77 353.70 171.11 354.90 170.34 C 354.19 170.02 352.78 169.40 352.07 169.08 C 353.39 169.50 354.68 170.01 355.96 170.57 C 361.75 169.14 367.51 167.58 373.37 166.44 C 375.96 157.91 380.66 148.92 389.39 145.45 C 391.54 141.58 390.60 137.06 390.35 132.88 C 392.04 137.02 392.68 141.75 390.61 145.88 C 392.03 146.63 393.42 147.45 394.90 148.10 C 399.85 144.12 401.41 137.75 402.61 131.82 C 403.56 138.52 400.69 145.34 395.22 149.32 C 397.33 153.42 397.59 158.09 397.44 162.61 C 409.32 160.97 421.31 160.69 433.27 160.24 C 432.30 157.77 431.77 154.89 429.63 153.13 C 427.67 151.70 425.59 153.61 423.65 154.07 C 424.89 152.29 426.74 151.18 428.77 150.50 C 421.46 133.79 406.56 120.68 388.97 115.79 C 386.74 115.12 384.55 116.24 382.40 116.70 L 382.20 116.16 C 394.77 110.65 408.77 110.61 422.20 111.71 C 406.71 108.02 390.46 109.83 375.00 112.84 C 378.51 111.34 382.18 109.72 384.57 106.62 C 382.84 107.00 381.30 107.86 379.78 108.71 C 373.53 112.21 366.57 114.48 359.43 115.13 C 360.96 118.86 362.81 122.45 364.58 126.08 C 360.50 122.83 357.64 118.37 355.00 113.95 C 346.93 99.65 343.01 82.73 331.24 70.70 C 325.17 64.24 315.68 62.16 307.16 63.59 C 304.20 63.64 301.38 64.73 298.59 65.61 M 266.77 70.72 C 268.07 71.62 269.65 71.86 271.17 72.20 C 276.40 73.24 281.26 75.59 285.86 78.21 C 286.52 75.15 287.34 72.12 288.21 69.11 C 281.04 69.33 273.86 69.61 266.77 70.72 M 265.92 79.53 C 272.36 81.55 278.75 83.68 284.89 86.50 C 284.97 84.99 285.06 83.48 285.15 81.96 C 278.85 80.49 272.39 79.64 265.92 79.53 M 407.32 94.51 C 403.42 99.23 399.07 103.53 394.67 107.78 C 394.27 107.76 393.47 107.71 393.07 107.69 C 394.04 107.98 395.04 108.41 396.09 108.26 C 409.29 107.32 423.18 109.05 434.87 115.55 C 420.84 111.86 406.02 112.12 391.78 114.36 C 396.28 116.22 401.16 117.12 405.44 119.53 C 419.18 126.21 428.86 139.42 433.06 153.91 C 442.11 146.17 447.74 134.84 449.61 123.16 C 451.16 112.78 450.10 101.55 444.55 92.44 C 440.45 85.98 432.75 80.85 424.84 82.46 C 417.67 83.95 411.92 89.07 407.32 94.51 M 263.89 114.00 C 262.88 111.44 262.11 108.71 260.44 106.47 C 259.77 105.44 258.46 103.93 257.32 105.42 C 255.98 107.68 255.01 110.30 254.90 112.93 C 259.35 120.90 262.11 129.79 262.77 138.90 C 263.56 152.78 261.82 167.38 254.62 179.54 C 256.69 180.82 258.59 182.35 260.27 184.11 C 268.71 178.54 280.56 180.14 288.51 185.87 C 289.32 185.56 290.13 185.25 290.94 184.94 C 286.57 178.14 285.82 169.83 285.24 161.97 C 284.81 151.99 285.49 141.89 287.77 132.14 C 289.43 127.02 288.84 121.46 287.53 116.34 C 287.17 114.97 285.66 112.76 284.09 113.98 C 281.57 116.10 280.33 119.27 278.67 122.03 C 277.30 114.05 276.76 104.89 270.92 98.70 C 265.80 101.96 265.41 108.69 263.89 114.00 M 239.43 103.51 C 232.12 108.99 229.18 118.38 227.54 127.01 C 226.10 136.77 225.78 146.89 227.89 156.58 C 227.19 159.94 230.85 161.55 232.59 163.84 C 232.56 158.75 232.55 152.37 237.24 149.18 C 240.46 146.91 243.86 150.13 244.61 153.26 C 246.70 160.68 246.47 169.09 242.95 176.05 C 244.86 176.36 246.76 176.70 248.66 177.06 C 250.09 177.60 251.52 178.15 252.95 178.71 C 258.91 166.80 260.24 153.14 259.72 140.00 C 258.94 128.02 255.53 115.69 247.66 106.37 C 245.66 104.18 242.43 101.09 239.43 103.51 M 384.57 106.62 C 385.00 106.05 385.00 106.05 384.57 106.62 M 292.38 124.35 C 288.67 134.46 287.83 145.34 287.55 156.02 C 287.65 159.06 287.74 162.11 287.91 165.16 C 289.20 163.06 290.10 159.89 293.01 159.63 C 295.32 160.35 296.07 162.90 296.61 164.99 C 297.84 171.33 297.81 178.33 294.49 184.08 C 295.60 183.81 296.71 183.55 297.83 183.30 C 299.28 183.17 300.81 182.69 301.06 181.02 C 303.40 174.95 305.05 168.59 305.76 162.11 L 305.94 162.24 C 306.96 150.68 306.19 138.56 301.00 127.99 C 299.58 125.24 297.96 122.36 295.29 120.66 C 293.53 120.98 293.11 123.01 292.38 124.35 M 384.51 150.44 C 379.65 154.45 376.92 160.38 374.78 166.16 C 381.58 164.72 388.46 163.62 395.37 162.83 C 395.20 158.38 395.36 153.27 392.23 149.72 C 390.08 147.40 386.58 148.73 384.51 150.44 M 397.35 164.31 C 396.17 174.31 392.98 184.57 385.86 191.97 C 389.59 194.64 392.70 198.09 394.97 202.09 C 400.20 203.05 405.42 203.90 410.72 202.82 C 409.26 195.64 413.82 189.42 415.96 182.93 C 418.54 177.39 421.39 170.80 427.72 168.80 C 428.51 167.26 429.26 165.70 429.91 164.09 C 430.35 163.59 431.23 162.60 431.67 162.10 C 431.28 164.78 429.97 167.15 428.71 169.50 C 429.12 172.55 432.20 169.29 433.71 168.74 C 433.58 166.38 433.44 164.02 433.23 161.67 C 430.74 162.32 428.16 162.01 425.63 162.01 C 416.17 162.05 406.75 163.35 397.35 164.31 M 374.56 168.40 C 374.13 169.32 373.70 170.26 373.29 171.20 C 373.13 170.52 372.81 169.15 372.65 168.47 C 368.05 169.83 363.32 170.65 358.74 172.04 C 364.42 175.55 369.62 180.74 370.36 187.71 C 370.91 187.72 372.01 187.74 372.56 187.75 C 371.45 182.84 371.90 177.78 372.04 172.79 C 372.31 172.56 372.86 172.09 373.13 171.85 C 373.16 173.59 373.26 175.33 373.33 177.07 C 374.59 174.29 375.71 170.77 378.91 169.69 C 381.14 169.53 382.40 171.90 382.67 173.82 C 383.26 179.12 381.52 184.68 377.91 188.63 C 380.34 189.28 382.67 190.26 384.94 191.37 C 391.50 184.06 394.40 174.28 395.28 164.67 C 388.35 165.76 381.36 166.64 374.56 168.40 M 423.74 172.77 C 420.31 176.46 418.34 181.18 415.82 185.48 C 417.72 184.30 419.68 184.92 420.12 187.06 C 421.60 192.78 418.76 198.24 416.33 203.22 L 416.99 202.81 L 416.65 203.07 C 419.97 203.51 423.15 204.98 425.27 207.65 C 427.11 210.13 430.34 210.54 433.16 211.07 C 429.89 206.71 423.34 206.92 420.45 202.18 C 426.80 192.54 431.97 181.91 433.62 170.38 C 432.48 170.96 431.36 171.55 430.24 172.13 C 430.94 178.63 428.36 184.87 425.72 190.66 C 423.59 194.74 421.52 199.10 417.90 202.09 C 422.19 195.20 426.35 188.04 428.06 180.01 C 428.61 177.07 429.60 173.70 427.90 170.97 C 426.22 170.29 424.81 171.69 423.74 172.77 M 326.58 182.52 C 329.69 184.73 332.64 187.25 336.04 188.99 C 345.57 190.23 354.92 192.77 363.90 196.17 C 365.72 193.07 367.31 189.60 366.84 185.90 C 366.22 180.03 361.82 175.49 357.21 172.25 C 346.87 175.30 336.63 178.62 326.58 182.52 M 237.89 178.82 C 237.44 182.99 236.30 187.13 233.79 190.55 C 239.98 192.25 246.01 194.46 251.99 196.77 C 245.66 195.05 239.33 193.33 233.00 191.58 C 230.69 193.51 228.00 194.93 225.09 195.71 C 228.41 199.05 230.82 203.12 233.29 207.09 C 241.41 206.05 249.61 207.31 257.71 206.15 C 257.32 206.46 256.54 207.07 256.15 207.38 C 248.73 206.82 241.28 207.66 233.89 208.22 C 238.04 214.34 242.38 221.67 250.06 223.63 C 260.13 225.57 269.31 219.54 276.14 212.81 C 275.10 214.86 273.70 216.68 272.31 218.50 C 276.32 222.66 282.53 223.34 287.86 221.72 C 298.88 218.58 308.64 210.91 314.05 200.77 C 309.32 200.82 304.63 201.49 299.91 201.54 C 304.69 200.53 309.56 199.98 314.42 199.44 C 315.46 195.91 315.92 191.45 313.05 188.63 C 309.04 190.67 305.11 192.88 301.06 194.86 C 304.80 192.38 308.69 190.12 312.57 187.86 C 305.65 183.72 297.28 185.62 289.87 187.10 C 290.58 188.92 291.15 191.00 289.84 192.72 C 286.53 197.98 280.25 200.11 274.63 201.93 C 272.06 199.16 268.87 197.07 265.43 195.54 C 262.74 194.28 259.48 193.04 258.43 189.96 C 257.66 188.31 258.70 186.63 259.19 185.07 C 252.91 180.87 245.34 179.18 237.89 178.82 M 267.45 183.63 C 265.95 184.03 263.10 185.56 264.53 187.39 C 267.78 190.63 272.77 190.93 277.08 191.50 C 280.33 191.55 284.61 192.00 286.67 188.90 C 287.06 186.82 284.69 185.61 283.10 184.89 C 278.15 183.05 272.61 182.48 267.45 183.63 M 317.17 186.92 C 319.32 190.63 319.55 194.96 318.58 199.09 C 325.85 198.19 333.18 197.84 340.50 197.90 C 335.84 192.01 329.44 187.88 323.15 183.93 C 321.15 184.91 319.07 185.75 317.17 186.92 M 370.28 189.02 C 369.65 191.99 368.60 194.86 367.09 197.50 C 371.11 199.39 375.60 199.32 379.92 199.91 C 384.28 200.41 388.60 201.15 392.95 201.79 C 387.59 194.51 378.97 190.59 370.28 189.02 M 336.66 189.71 C 338.98 192.34 341.45 194.84 343.51 197.69 C 350.06 197.56 356.65 198.52 363.18 197.75 C 354.88 193.61 345.57 192.05 336.66 189.71 M 193.72 196.59 C 190.06 202.01 188.49 208.48 187.24 214.82 C 196.87 212.03 206.72 209.90 216.69 208.74 C 215.24 204.47 214.19 199.56 210.98 196.27 C 206.29 195.71 201.58 195.24 196.89 194.58 C 195.23 193.81 194.47 195.53 193.72 196.59 M 318.15 200.28 C 314.85 207.77 308.88 213.54 302.46 218.40 C 299.83 228.13 295.53 237.43 289.00 245.19 C 297.45 239.88 305.23 233.24 314.70 229.68 C 320.39 227.28 327.07 227.09 332.54 230.21 C 331.99 228.23 331.43 226.26 330.81 224.31 C 329.83 223.55 328.88 222.77 327.95 221.97 C 334.03 223.37 337.91 228.73 340.21 234.17 C 340.78 223.37 339.77 212.33 336.05 202.12 C 339.44 204.07 342.78 206.10 346.10 208.17 C 345.07 205.26 343.75 202.45 342.08 199.86 C 334.10 199.84 326.12 200.12 318.15 200.28 M 349.32 200.20 C 349.71 201.52 352.00 200.94 353.09 201.12 C 353.52 201.18 356.61 200.89 355.07 200.08 C 353.22 199.71 351.06 199.32 349.32 200.20 M 361.45 201.92 C 362.96 204.32 364.32 206.86 366.31 208.93 C 370.54 209.58 374.88 209.48 379.05 210.66 C 375.02 210.50 371.00 210.21 366.98 209.91 C 371.12 214.99 377.16 219.20 383.97 218.96 C 388.33 219.13 392.48 217.55 396.16 215.33 C 395.46 216.23 394.76 217.13 394.05 218.02 C 401.04 223.54 410.84 224.54 419.12 221.58 C 417.52 219.90 415.22 219.29 413.19 218.33 C 415.53 218.87 417.67 219.98 419.95 220.70 C 422.79 219.08 424.03 215.86 424.24 212.73 C 420.15 212.80 416.07 212.75 412.00 212.44 C 415.95 212.31 419.90 212.25 423.85 212.15 C 422.17 205.11 413.92 204.58 407.98 204.40 C 411.50 205.62 415.12 206.62 418.82 207.04 C 418.91 207.39 419.09 208.09 419.18 208.44 C 415.11 207.59 411.01 206.85 407.02 205.68 C 407.58 206.75 408.07 207.85 408.49 208.99 C 406.39 213.41 400.66 213.00 396.56 213.29 C 396.28 209.36 393.65 206.35 391.42 203.33 C 386.85 202.82 382.29 202.18 377.72 201.73 C 378.63 202.49 380.44 204.01 381.34 204.77 C 378.29 203.57 375.50 201.41 372.12 201.24 C 368.56 201.15 364.69 199.89 361.45 201.92 M 345.70 201.87 C 346.53 204.14 347.20 206.47 347.72 208.84 C 352.23 208.33 356.77 208.24 361.31 208.40 C 360.61 206.56 359.89 204.74 359.12 202.94 C 354.63 203.90 350.02 203.25 345.70 201.87 M 394.40 204.34 C 395.30 207.29 398.60 207.98 401.19 208.71 C 402.92 208.99 405.41 209.75 406.57 207.92 C 403.70 204.41 398.59 204.21 394.40 204.34 M 219.78 210.04 C 219.99 210.46 220.42 211.29 220.64 211.71 C 224.24 211.46 227.80 210.73 231.36 210.17 C 231.25 209.58 231.10 209.00 230.90 208.44 C 227.19 208.97 223.47 209.45 219.78 210.04 M 363.08 209.41 C 362.65 210.81 363.14 211.31 364.54 210.89 C 364.95 209.49 364.46 209.00 363.08 209.41 M 340.66 210.20 C 342.85 217.64 343.48 225.54 341.73 233.14 C 345.70 237.02 350.31 240.16 355.16 242.83 C 354.44 241.54 353.64 240.31 352.76 239.15 C 346.39 230.95 343.64 220.21 344.48 209.94 C 343.53 210.00 341.62 210.13 340.66 210.20 M 347.92 209.85 L 347.94 211.54 C 347.24 211.27 345.86 210.72 345.16 210.45 C 345.79 219.94 347.99 229.55 353.26 237.59 C 355.39 240.67 357.51 244.13 361.19 245.52 C 359.88 242.12 359.03 238.54 359.27 234.87 C 360.48 238.17 360.96 241.86 363.26 244.65 C 367.13 249.59 374.28 251.38 380.14 249.33 C 384.44 248.08 387.57 244.79 390.83 241.93 C 389.69 243.92 388.20 245.69 386.82 247.51 C 397.83 243.81 407.77 236.08 413.07 225.61 C 409.71 225.75 406.42 224.99 403.09 224.77 C 394.99 229.25 391.86 239.35 383.46 243.45 C 376.68 246.18 368.17 242.39 365.33 235.70 C 361.56 227.47 363.46 218.15 361.39 209.54 C 356.90 209.59 352.41 209.64 347.92 209.85 M 191.07 216.39 C 190.99 222.76 192.04 229.07 193.34 235.29 C 194.13 232.27 193.77 228.24 196.03 226.04 C 198.44 238.10 203.25 249.64 209.88 259.98 C 212.07 263.85 216.45 265.49 220.01 267.79 C 216.71 261.98 212.75 256.37 211.11 249.80 C 216.69 259.95 223.67 270.48 234.80 275.08 C 244.55 279.18 255.89 275.39 263.21 268.30 C 269.22 263.11 272.88 255.97 277.10 249.42 L 274.45 256.58 C 277.53 253.59 281.37 251.50 284.25 248.31 C 291.61 239.90 297.34 230.06 300.81 219.43 C 295.08 222.89 288.73 225.90 281.89 225.85 C 272.95 234.74 271.31 248.48 262.17 257.21 C 257.78 260.98 252.04 264.11 246.06 262.87 C 238.13 261.09 230.59 256.31 226.77 248.96 C 219.98 237.21 220.39 223.27 217.18 210.45 C 208.39 212.01 199.67 214.01 191.07 216.39 M 427.40 210.88 C 427.57 214.21 430.41 209.35 427.40 210.88 M 427.25 212.77 C 427.27 216.19 425.76 219.24 423.64 221.83 C 426.78 222.81 429.68 224.67 432.93 225.17 C 435.74 221.70 435.66 216.93 434.14 212.93 C 431.84 212.86 429.55 212.81 427.25 212.77 M 186.34 224.91 C 186.95 221.88 188.28 219.09 189.81 216.43 C 185.40 216.96 186.74 221.85 186.34 224.91 M 174.61 221.49 C 180.54 225.36 185.83 230.31 189.36 236.51 C 192.08 240.61 193.15 245.74 196.75 249.24 C 199.90 252.38 202.79 255.84 206.47 258.40 C 204.44 254.50 201.98 250.81 200.39 246.69 C 197.99 241.26 196.88 235.42 195.56 229.68 C 194.80 232.77 194.45 235.94 194.18 239.11 C 189.60 233.50 189.97 225.66 190.06 218.82 C 187.63 222.47 187.79 227.03 187.10 231.20 C 184.68 227.37 184.54 222.71 184.15 218.34 C 181.01 219.50 177.82 220.52 174.61 221.49 M 364.71 222.86 C 365.15 227.33 365.57 232.09 368.14 235.93 C 370.91 240.12 376.31 241.95 381.16 241.49 C 383.44 240.85 383.15 237.91 383.28 236.05 C 383.39 232.86 380.67 230.69 378.13 229.35 C 378.28 231.65 378.32 234.00 377.67 236.24 C 377.08 232.44 376.65 228.21 373.57 225.50 C 371.31 223.03 367.81 222.94 364.71 222.86 M 414.21 225.45 C 412.44 229.36 410.22 233.11 407.16 236.14 C 404.42 239.09 400.82 240.99 397.84 243.65 C 403.61 241.67 409.19 239.17 414.78 236.73 C 420.81 233.89 427.27 231.39 431.99 226.48 C 428.91 225.22 425.85 223.90 422.90 222.36 C 420.19 223.86 417.28 224.97 414.21 225.45 M 148.06 225.97 C 141.78 228.11 136.68 232.91 133.36 238.56 C 142.02 233.18 151.19 228.72 160.28 224.16 C 156.15 224.16 151.99 224.67 148.06 225.97 M 223.65 229.78 C 224.89 236.28 226.40 243.02 230.05 248.65 C 229.12 244.48 228.97 240.20 229.42 235.97 C 229.75 242.45 230.91 249.48 235.71 254.26 C 240.70 259.31 249.37 261.83 255.62 257.61 C 262.84 252.77 262.96 241.06 256.37 235.64 C 254.15 233.56 250.98 233.83 248.29 234.62 C 249.20 237.70 249.99 240.88 249.57 244.13 C 247.82 237.45 244.59 230.10 237.62 227.57 C 233.05 226.40 227.42 227.07 223.65 229.78 M 334.19 227.95 C 334.18 230.00 334.23 232.05 334.28 234.11 C 328.68 228.71 319.93 230.32 313.84 233.90 C 311.82 241.22 310.41 248.89 310.20 256.48 C 309.09 265.43 309.00 274.59 310.22 283.54 C 310.69 293.51 312.98 303.60 316.96 312.79 C 316.49 312.28 315.55 311.25 315.08 310.73 C 314.44 314.98 312.22 318.78 308.78 321.35 C 309.36 322.52 309.94 323.69 310.53 324.87 C 311.38 324.61 312.23 324.34 313.09 324.08 C 312.71 324.62 311.96 325.69 311.59 326.23 C 312.66 328.39 313.79 330.52 314.97 332.63 C 317.24 331.44 319.54 330.30 321.84 329.17 C 321.31 332.43 320.50 335.68 318.56 338.41 C 320.08 340.16 321.88 341.64 323.83 342.90 C 328.53 339.56 331.81 334.81 335.79 330.75 C 338.19 328.84 341.88 325.83 344.81 328.43 C 348.23 328.18 352.11 328.27 354.89 325.94 C 357.11 324.16 356.86 320.03 354.28 318.70 C 349.92 316.59 343.94 318.50 340.46 314.53 C 336.35 309.30 335.37 302.40 334.69 295.99 C 333.25 277.63 337.01 258.02 348.82 243.44 C 346.06 241.45 343.43 239.27 341.02 236.85 C 340.64 237.55 340.26 238.25 339.86 238.94 C 338.64 234.97 336.81 231.19 334.19 227.95 M 410.51 241.25 L 410.55 241.39 C 402.99 244.12 395.22 246.18 387.59 248.66 C 387.43 249.22 387.10 250.32 386.94 250.88 C 390.23 249.98 393.65 249.75 397.01 250.43 C 396.97 249.49 396.88 247.62 396.83 246.69 C 397.49 247.56 398.15 248.43 398.82 249.31 C 402.17 245.93 406.80 244.42 411.51 244.64 C 414.29 245.55 417.39 246.92 418.23 250.03 C 419.59 253.75 416.60 257.05 413.89 259.17 C 417.09 259.79 419.97 261.42 422.00 263.98 C 418.33 262.43 414.63 260.30 410.52 260.54 C 405.76 261.80 400.79 263.66 397.76 267.77 C 393.66 273.00 389.86 278.48 384.98 283.03 C 390.67 286.51 397.13 288.79 403.54 290.63 C 411.17 292.57 419.96 293.55 426.97 289.24 C 431.85 286.31 434.23 280.53 434.23 275.01 C 434.82 260.97 426.95 248.30 426.84 234.35 C 421.46 236.81 416.11 239.35 410.51 241.25 M 293.08 247.15 C 295.56 248.52 298.14 249.84 300.19 251.84 C 302.42 253.91 303.54 256.81 305.29 259.25 C 305.92 251.20 307.91 243.36 310.32 235.69 C 304.26 239.02 298.75 243.22 293.08 247.15 M 346.24 252.06 C 348.17 251.02 350.09 249.90 352.13 249.06 C 349.59 251.82 345.83 253.57 344.33 257.18 C 341.12 265.46 339.45 274.27 338.79 283.11 C 338.07 291.45 337.98 299.96 339.86 308.16 C 340.55 310.44 341.15 313.20 343.34 314.53 C 347.85 316.08 353.16 314.90 357.24 317.71 C 360.52 319.95 360.48 325.17 357.60 327.72 C 354.42 330.52 349.91 330.59 345.90 330.89 C 347.59 334.52 349.07 338.34 351.62 341.48 C 358.18 341.33 365.18 340.60 371.20 343.83 C 376.30 346.38 379.31 351.61 380.89 356.90 C 388.73 358.19 397.18 358.18 404.34 354.32 C 415.08 348.48 420.07 334.59 416.64 323.04 C 414.13 313.54 407.36 306.16 402.23 298.04 C 400.79 296.13 400.42 293.07 397.91 292.22 C 392.67 290.08 387.54 287.60 382.99 284.22 C 376.76 288.22 367.90 292.17 361.13 287.20 C 357.42 289.55 352.32 291.16 348.38 288.44 C 345.96 286.96 345.17 283.94 345.64 281.29 C 344.37 280.29 342.84 279.46 342.03 278.01 C 341.19 275.58 342.32 272.82 344.57 271.62 C 348.40 269.32 352.68 267.84 356.37 265.28 C 361.38 262.11 364.65 256.56 370.35 254.43 C 373.90 253.10 377.67 254.67 380.56 256.76 C 382.18 254.83 384.00 253.07 386.04 251.59 C 386.01 250.84 385.94 249.34 385.90 248.60 C 382.55 250.71 379.12 253.22 374.95 253.10 C 370.82 253.52 367.18 251.32 363.83 249.23 C 359.36 247.81 354.73 246.73 350.64 244.30 C 349.10 246.85 347.64 249.44 346.24 252.06 M 395.66 253.98 C 395.51 253.97 395.20 253.96 395.05 253.95 L 395.19 253.40 C 394.13 251.86 391.60 252.07 390.30 253.15 C 384.30 253.83 380.69 259.61 377.09 263.89 C 377.89 261.85 378.82 259.85 379.79 257.88 C 377.49 256.93 374.99 255.99 372.49 256.74 C 365.35 258.68 361.19 265.50 354.71 268.65 C 351.46 270.63 347.30 271.77 345.23 275.19 C 344.06 276.86 346.19 278.14 347.23 279.13 C 349.82 276.61 353.01 274.87 356.32 273.48 C 359.87 272.01 362.93 269.67 366.19 267.68 C 364.08 271.32 360.70 274.03 356.94 275.84 C 354.17 277.30 350.97 278.50 349.17 281.22 C 348.01 283.25 349.52 285.81 351.56 286.51 C 354.30 287.70 357.28 286.70 359.99 285.95 C 359.73 283.68 359.33 281.01 361.26 279.30 C 365.46 275.00 371.57 273.45 376.26 269.76 C 373.60 275.03 367.12 276.21 363.71 280.70 C 361.89 282.88 363.99 285.95 366.45 286.32 C 373.21 287.57 379.81 284.06 384.79 279.77 C 390.47 275.02 393.73 268.06 399.36 263.26 C 403.74 259.50 410.50 259.76 414.37 255.29 C 416.74 252.42 414.30 248.43 411.02 247.84 C 405.19 246.63 399.50 249.79 395.66 253.98 M 271.20 263.21 C 268.13 267.13 265.58 271.54 261.67 274.75 C 259.42 277.12 255.73 278.09 254.48 281.31 C 251.84 286.79 250.95 292.90 250.99 298.93 C 255.34 301.12 259.19 304.08 263.00 307.07 C 266.44 305.03 269.92 302.87 273.91 302.13 C 280.90 300.39 288.27 301.95 294.58 305.18 C 294.67 297.96 297.07 291.10 299.50 284.39 C 302.22 276.28 303.69 267.01 300.25 258.89 C 298.40 254.35 294.24 251.37 289.83 249.56 C 283.54 254.00 277.23 258.44 271.20 263.21 M 197.03 254.44 C 200.04 264.27 202.05 274.36 204.32 284.37 C 206.65 283.29 209.41 281.34 211.96 283.01 C 216.63 286.14 216.88 292.32 218.60 297.17 C 218.82 298.67 217.77 299.82 217.10 301.03 C 216.14 295.01 215.68 286.67 209.11 284.03 C 207.68 284.71 206.26 285.40 204.85 286.12 C 206.99 292.73 208.87 299.46 211.78 305.79 C 215.02 303.46 218.16 300.92 221.83 299.28 C 225.64 297.76 226.65 292.25 230.95 291.00 C 233.99 290.29 235.37 293.67 236.53 295.81 C 240.04 295.97 243.55 296.38 246.95 297.33 C 246.52 292.19 247.58 287.15 249.04 282.26 C 248.97 282.16 248.85 281.98 248.78 281.88 C 247.21 281.89 245.63 281.91 244.06 281.97 C 242.63 284.67 241.59 287.55 240.23 290.28 C 240.17 287.48 240.71 284.72 241.72 282.12 C 235.61 281.65 230.86 277.53 225.15 275.86 C 213.84 271.73 205.06 263.09 197.03 254.44 M 302.83 287.09 C 300.57 293.54 298.01 300.07 297.86 306.99 C 301.09 310.73 304.64 314.24 307.11 318.58 C 310.48 315.96 312.97 312.37 314.05 308.22 C 309.43 299.44 306.60 289.73 305.55 279.87 C 304.01 282.00 303.72 284.68 302.83 287.09 M 226.17 297.69 C 229.07 296.81 232.03 296.19 235.03 295.76 C 234.23 294.89 233.45 294.00 232.57 293.23 C 229.72 293.16 227.93 295.84 226.17 297.69 M 401.04 293.43 C 404.80 300.06 409.97 305.74 413.78 312.33 C 417.65 318.81 420.48 326.32 419.73 333.99 C 418.83 342.36 414.42 350.67 407.03 355.02 C 399.28 359.61 389.69 359.98 381.06 358.18 C 381.35 362.82 380.22 367.59 377.24 371.23 C 374.55 375.07 370.14 376.85 366.30 379.19 C 364.17 383.45 361.23 387.42 357.03 389.84 C 347.27 395.58 335.50 396.07 324.52 395.45 C 318.91 399.96 311.88 401.69 304.95 402.86 C 304.14 406.12 307.00 408.84 309.59 410.36 C 311.41 403.25 319.37 400.18 326.05 400.27 C 321.96 401.71 317.30 402.84 314.58 406.53 C 312.57 408.94 312.76 412.83 315.11 414.95 C 319.02 418.72 324.76 419.59 329.98 419.81 C 343.61 419.97 356.90 414.02 366.73 404.72 C 368.31 397.32 373.67 391.72 377.64 385.54 C 381.84 379.00 385.76 372.22 388.53 364.94 C 386.57 364.36 384.59 363.82 382.65 363.19 C 384.73 362.56 386.90 362.85 389.02 363.18 C 389.46 362.48 389.91 361.78 390.38 361.10 C 389.98 369.61 385.44 377.15 381.49 384.46 C 378.08 390.91 373.00 396.70 371.51 404.02 C 370.52 408.79 373.25 413.27 376.57 416.45 C 384.84 425.08 396.98 429.98 408.94 429.08 C 412.60 428.81 417.19 427.28 417.97 423.17 C 418.89 418.62 414.89 415.53 411.89 412.89 C 417.61 414.04 422.69 419.21 420.91 425.41 C 424.64 424.20 429.07 422.69 430.53 418.64 C 431.81 414.77 429.24 410.87 426.07 408.83 C 419.83 404.75 412.31 403.30 405.06 402.15 C 402.81 401.44 400.79 402.75 398.83 403.64 C 411.45 393.47 423.23 382.12 432.88 369.05 C 440.28 358.79 446.95 347.00 447.06 334.00 C 446.96 318.69 438.29 304.62 427.06 294.75 C 418.63 298.08 409.35 296.11 401.04 293.43 M 217.70 306.70 C 211.81 310.32 206.28 315.44 199.06 315.98 C 190.31 316.36 181.77 313.01 173.00 313.92 C 166.46 314.44 161.18 320.54 161.09 327.00 C 160.84 332.64 163.27 338.04 166.51 342.53 C 171.90 349.75 180.07 355.09 189.09 356.23 C 197.97 357.24 207.32 355.16 214.50 349.71 C 221.79 344.19 228.75 336.81 238.39 335.98 C 236.64 337.87 234.07 338.54 232.01 339.99 C 229.36 341.78 227.05 344.00 224.62 346.06 C 225.55 353.09 228.27 359.82 232.26 365.67 C 240.31 377.51 252.74 385.65 265.88 390.87 C 277.67 395.47 290.24 398.87 303.00 398.17 C 309.32 397.79 315.90 396.06 320.69 391.71 C 325.45 387.42 326.90 379.94 324.11 374.18 C 321.60 369.70 316.76 367.23 312.09 365.59 C 302.48 362.19 292.20 361.94 282.13 362.05 C 292.92 360.14 304.23 359.47 314.91 362.33 C 321.86 364.15 328.59 368.86 330.63 376.05 C 332.70 382.03 330.63 388.59 326.66 393.28 C 336.91 392.58 347.89 390.85 356.01 384.05 C 361.30 379.76 362.83 372.00 360.21 365.82 C 358.13 360.90 353.07 358.09 348.13 356.76 C 332.73 352.50 316.68 356.88 301.11 354.16 C 298.27 353.59 295.20 353.23 292.87 351.35 C 309.90 353.13 327.02 349.50 344.02 351.76 C 350.63 352.70 357.69 354.51 362.41 359.57 C 366.68 364.05 367.88 370.68 366.85 376.62 C 371.82 373.21 376.67 368.39 377.12 362.04 C 377.37 354.44 371.84 347.03 364.38 345.33 C 353.97 342.89 343.39 346.05 332.93 346.40 C 327.41 346.74 321.51 345.61 317.39 341.67 C 309.99 334.55 306.74 324.42 300.28 316.58 C 292.21 305.91 276.33 303.39 264.50 308.71 C 268.28 312.49 272.01 316.41 274.77 321.03 C 267.31 313.67 259.08 306.67 249.09 303.06 C 238.83 299.14 226.86 300.78 217.70 306.70 M 340.48 329.93 C 341.48 334.23 343.36 338.25 345.18 342.25 C 346.73 342.15 348.29 342.04 349.86 341.94 C 347.65 338.89 345.93 335.54 344.69 331.99 C 344.24 330.14 341.81 330.58 340.48 329.93 M 316.47 335.76 C 318.50 335.84 318.89 333.25 319.92 331.93 C 318.61 333.02 315.15 333.48 316.47 335.76 M 336.52 332.81 C 333.74 336.10 331.33 339.72 328.09 342.60 C 328.01 342.96 327.86 343.69 327.78 344.05 C 331.69 343.96 335.65 344.04 339.47 343.05 C 339.87 343.03 340.69 342.99 341.10 342.97 C 339.56 339.70 338.43 336.27 337.09 332.93 L 336.52 332.81 Z" />
<path fill="#020307" opacity="1.00" d=" M 368.88 133.21 C 371.19 127.91 376.24 124.10 381.92 123.14 C 376.76 125.38 372.73 129.23 368.88 133.21 Z" />
<path fill="#020307" opacity="1.00" d=" M 383.19 126.24 C 387.08 124.22 392.21 123.38 396.04 125.97 C 397.97 127.29 398.25 129.76 398.85 131.83 C 396.72 129.06 393.66 126.47 389.89 127.28 C 380.13 128.95 372.87 136.73 368.23 145.03 C 370.73 137.27 375.85 130.06 383.19 126.24 Z" />
</g>
<g id="#949ba1ff">
<path fill="#949ba1" opacity="1.00" d=" M 97.64 2.60 C 102.66 3.40 106.68 6.75 111.24 8.75 C 119.40 12.43 127.73 15.71 136.17 18.69 C 147.03 22.58 158.73 25.58 167.56 33.44 C 178.69 43.02 187.93 54.60 196.42 66.53 C 201.68 74.78 207.69 82.54 214.02 90.01 C 212.41 85.54 209.33 81.81 207.20 77.61 C 225.61 68.58 242.36 56.64 259.18 45.04 C 252.68 51.97 244.69 57.31 237.36 63.31 C 234.45 66.06 230.38 66.68 226.99 68.59 C 247.27 63.58 268.52 62.47 289.18 65.65 C 292.24 66.16 295.30 66.74 298.26 67.71 C 285.53 66.49 272.52 65.80 260.01 69.04 C 255.75 70.32 251.24 69.98 246.96 71.12 C 253.45 71.54 259.99 71.81 266.35 73.34 L 265.73 73.71 C 264.48 74.46 263.22 75.22 261.98 75.97 C 264.26 75.74 266.55 75.50 268.83 75.25 C 268.60 75.67 268.13 76.50 267.89 76.92 C 261.82 76.66 255.66 77.08 249.91 79.17 C 244.12 69.23 228.76 69.71 221.70 77.92 C 224.17 77.42 226.63 76.86 229.12 76.51 C 227.27 78.19 225.11 79.50 223.35 81.27 C 220.12 84.68 218.04 88.98 216.56 93.39 C 218.41 92.01 220.19 90.55 222.01 89.13 C 218.80 95.65 218.27 103.08 219.47 110.17 C 220.36 103.18 223.13 96.27 228.43 91.45 C 232.61 87.55 238.14 84.17 244.09 85.00 C 247.69 85.38 250.48 87.85 253.11 90.11 C 252.52 87.03 251.75 84.00 250.73 81.04 C 254.19 80.56 257.82 79.25 261.23 80.62 C 270.19 83.74 279.39 86.90 287.06 92.66 C 286.41 94.03 285.77 95.42 285.17 96.82 C 289.94 96.76 295.02 97.96 298.36 101.60 C 302.38 105.78 303.15 111.80 303.41 117.33 C 303.91 115.88 304.41 114.43 304.92 112.98 C 307.99 118.86 309.97 125.31 310.86 131.89 C 311.94 139.96 310.49 148.03 309.85 156.06 C 309.23 161.76 307.93 167.96 310.71 173.31 C 313.09 177.87 317.70 180.50 321.88 183.15 C 320.07 184.09 318.32 185.25 316.35 185.81 C 312.34 182.63 307.18 182.01 302.22 182.53 C 308.65 167.26 310.83 149.50 305.44 133.59 C 303.29 127.98 300.59 121.80 294.92 118.97 C 293.31 120.36 291.80 121.86 290.35 123.42 C 290.02 119.34 290.68 113.15 285.95 111.44 C 282.60 111.63 281.18 115.23 279.25 117.45 C 278.66 111.82 277.52 106.13 275.08 100.99 C 274.00 98.89 272.01 96.05 269.26 97.23 C 265.16 99.98 264.37 105.33 263.60 109.83 C 262.19 107.43 261.28 104.58 259.10 102.74 C 258.18 101.67 257.18 102.68 256.48 103.38 C 254.70 105.40 254.25 108.16 253.59 110.68 C 250.49 107.09 247.63 102.77 243.03 101.03 C 238.80 100.68 235.50 104.11 232.86 106.97 C 225.30 116.13 223.29 128.46 223.20 140.01 C 223.13 145.84 223.84 151.67 225.31 157.31 C 217.64 152.39 208.96 148.94 199.98 147.37 C 210.64 151.70 222.16 156.04 229.50 165.40 C 231.10 167.96 233.45 171.02 232.70 174.15 C 231.70 175.93 231.89 177.97 232.66 179.80 C 233.25 183.29 230.72 186.45 228.84 189.20 C 196.75 180.64 162.82 179.06 130.07 184.59 C 124.66 185.54 119.23 186.60 114.05 188.47 C 151.28 181.26 189.92 182.24 226.93 190.28 C 220.95 193.78 213.68 192.92 207.08 192.38 C 195.18 191.11 183.10 189.39 171.18 191.34 C 167.76 192.05 164.07 192.92 161.68 195.67 C 171.84 191.50 183.00 192.92 193.61 194.10 C 188.77 200.46 185.31 207.82 184.20 215.78 C 179.71 216.91 175.35 218.50 171.02 220.13 C 160.09 216.82 147.10 217.70 138.00 225.12 C 130.28 218.85 119.90 215.95 110.06 217.60 C 106.04 218.10 102.23 219.49 98.45 220.90 C 100.58 218.51 102.74 216.09 105.32 214.17 C 107.48 212.94 110.24 213.11 112.20 211.50 C 104.19 211.38 96.08 213.75 89.73 218.72 C 85.84 221.42 83.01 225.24 80.04 228.85 C 90.49 207.60 106.20 188.05 127.05 176.27 C 119.60 177.42 112.01 178.06 104.95 180.90 C 111.21 174.89 119.24 170.98 127.53 168.62 C 135.03 166.50 142.59 164.17 149.36 160.23 C 150.93 159.39 152.21 158.15 153.39 156.84 C 151.42 157.51 149.50 158.32 147.58 159.13 C 146.23 155.68 143.91 151.97 139.94 151.36 C 136.29 150.95 132.96 152.86 129.65 154.09 C 132.56 149.94 137.19 147.07 142.27 146.54 C 137.15 142.13 130.67 139.21 123.83 139.22 C 132.23 133.83 143.62 133.86 151.86 139.56 C 153.31 132.88 154.87 125.53 160.18 120.75 C 159.43 124.14 157.80 127.44 158.19 130.99 C 158.58 137.49 165.30 143.35 171.87 141.84 C 174.56 141.25 176.82 139.55 179.16 138.19 C 177.58 141.16 175.66 143.92 174.02 146.86 C 184.96 135.73 187.97 119.16 187.24 104.09 C 187.09 89.07 181.06 74.65 172.24 62.69 C 161.49 48.12 147.29 36.28 131.64 27.27 C 119.39 20.61 106.00 14.21 97.64 2.60 Z" />
<path fill="#949ba1" opacity="1.00" d=" M 273.05 61.04 C 283.17 49.19 295.01 38.22 309.34 31.72 C 301.35 41.30 294.55 51.92 290.04 63.60 C 284.48 62.13 278.76 61.46 273.05 61.04 Z" />
<path fill="#949ba1" opacity="1.00" d=" M 266.77 70.72 C 273.86 69.61 281.04 69.33 288.21 69.11 C 287.34 72.12 286.52 75.15 285.86 78.21 C 281.26 75.59 276.40 73.24 271.17 72.20 C 269.65 71.86 268.07 71.62 266.77 70.72 Z" />
<path fill="#949ba1" opacity="1.00" d=" M 317.17 186.92 C 319.07 185.75 321.15 184.91 323.15 183.93 C 329.44 187.88 335.84 192.01 340.50 197.90 C 333.18 197.84 325.85 198.19 318.58 199.09 C 319.55 194.96 319.32 190.63 317.17 186.92 Z" />
<path fill="#949ba1" opacity="1.00" d=" M 318.15 200.28 C 326.12 200.12 334.10 199.84 342.08 199.86 C 343.75 202.45 345.07 205.26 346.10 208.17 C 342.78 206.10 339.44 204.07 336.05 202.12 C 339.77 212.33 340.78 223.37 340.21 234.17 C 337.91 228.73 334.03 223.37 327.95 221.97 C 328.88 222.77 329.83 223.55 330.81 224.31 C 331.43 226.26 331.99 228.23 332.54 230.21 C 327.07 227.09 320.39 227.28 314.70 229.68 C 305.23 233.24 297.45 239.88 289.00 245.19 C 295.53 237.43 299.83 228.13 302.46 218.40 C 308.88 213.54 314.85 207.77 318.15 200.28 Z" />
<path fill="#949ba1" opacity="1.00" d=" M 174.61 221.49 C 177.82 220.52 181.01 219.50 184.15 218.34 C 184.54 222.71 184.68 227.37 187.10 231.20 C 187.79 227.03 187.63 222.47 190.06 218.82 C 189.97 225.66 189.60 233.50 194.18 239.11 C 194.45 235.94 194.80 232.77 195.56 229.68 C 196.88 235.42 197.99 241.26 200.39 246.69 C 201.98 250.81 204.44 254.50 206.47 258.40 C 202.79 255.84 199.90 252.38 196.75 249.24 C 193.15 245.74 192.08 240.61 189.36 236.51 C 185.83 230.31 180.54 225.36 174.61 221.49 Z" />
<path fill="#949ba1" opacity="1.00" d=" M 133.61 240.57 C 144.05 234.50 155.01 229.38 166.16 224.75 C 169.97 225.97 173.81 227.38 176.99 229.88 C 183.26 234.65 187.19 241.78 190.07 248.96 C 195.65 262.81 196.89 277.91 202.02 291.90 C 203.93 297.35 206.34 302.62 209.13 307.69 C 205.66 309.65 202.11 312.06 197.95 311.98 C 187.90 312.00 177.80 307.73 167.81 310.60 C 159.05 313.24 153.99 323.18 155.78 331.94 C 158.34 346.92 171.77 358.22 186.28 361.07 C 181.57 368.62 180.68 378.10 183.47 386.51 C 183.78 377.56 185.79 368.23 192.15 361.53 C 196.87 361.45 201.68 361.05 206.10 359.25 C 212.30 356.93 217.34 352.47 222.17 348.08 C 223.77 365.58 236.07 380.06 250.61 388.93 C 249.30 392.65 247.77 396.33 245.57 399.63 C 238.63 410.22 228.77 419.18 216.93 423.90 C 206.73 427.91 194.39 428.02 184.95 422.00 C 176.68 416.44 172.47 406.95 168.93 398.00 C 163.79 384.49 160.08 370.48 155.26 356.86 C 150.26 342.79 144.38 328.98 136.86 316.05 C 134.16 311.54 131.54 306.95 128.09 302.95 C 133.22 313.68 137.93 324.61 142.29 335.68 C 143.91 338.91 141.43 342.16 140.16 345.05 C 131.80 359.98 119.38 372.02 107.57 384.17 C 104.37 384.42 101.16 384.51 97.95 384.48 C 75.80 384.44 53.66 384.53 31.51 384.43 L 31.20 386.00 C 30.48 384.30 30.73 383.00 31.96 382.10 C 54.27 366.04 75.50 348.23 93.59 327.46 C 103.15 316.34 111.92 304.36 118.16 291.04 C 119.85 287.68 120.50 283.77 122.97 280.85 C 123.91 269.98 124.88 258.98 128.60 248.64 C 129.77 245.71 130.49 242.06 133.61 240.57 Z" />
<path fill="#949ba1" opacity="1.00" d=" M 271.20 263.21 C 277.23 258.44 283.54 254.00 289.83 249.56 C 294.24 251.37 298.40 254.35 300.25 258.89 C 303.69 267.01 302.22 276.28 299.50 284.39 C 297.07 291.10 294.67 297.96 294.58 305.18 C 288.27 301.95 280.90 300.39 273.91 302.13 C 269.92 302.87 266.44 305.03 263.00 307.07 C 259.19 304.08 255.34 301.12 250.99 298.93 C 250.95 292.90 251.84 286.79 254.48 281.31 C 255.73 278.09 259.42 277.12 261.67 274.75 C 265.58 271.54 268.13 267.13 271.20 263.21 Z" />
<path fill="#949ba1" opacity="1.00" d=" M 197.03 254.44 C 205.06 263.09 213.84 271.73 225.15 275.86 C 230.86 277.53 235.61 281.65 241.72 282.12 C 240.71 284.72 240.17 287.48 240.23 290.28 C 241.59 287.55 242.63 284.67 244.06 281.97 C 245.63 281.91 247.21 281.89 248.78 281.88 C 248.85 281.98 248.97 282.16 249.04 282.26 C 247.58 287.15 246.52 292.19 246.95 297.33 C 243.55 296.38 240.04 295.97 236.53 295.81 C 235.37 293.67 233.99 290.29 230.95 291.00 C 226.65 292.25 225.64 297.76 221.83 299.28 C 220.71 298.62 219.62 297.95 218.60 297.17 C 216.88 292.32 216.63 286.14 211.96 283.01 C 209.41 281.34 206.65 283.29 204.32 284.37 C 202.05 274.36 200.04 264.27 197.03 254.44 Z" />
</g>
<g id="#f7b5a5ff">
<path fill="#f7b5a5" opacity="1.00" d=" M 122.85 28.03 C 139.87 36.76 155.78 48.14 168.26 62.74 C 177.14 73.27 184.03 86.10 185.07 100.03 C 185.83 111.14 185.23 122.62 181.22 133.10 C 178.80 136.13 174.83 137.91 171.02 138.44 C 166.10 138.97 161.90 134.72 161.06 130.12 C 160.18 126.05 161.41 121.96 162.63 118.11 C 159.26 119.65 155.80 121.50 153.69 124.68 C 151.05 128.28 150.46 132.85 150.47 137.20 C 146.00 134.06 140.64 131.68 135.06 132.21 C 128.94 132.76 123.49 136.23 119.37 140.64 C 126.16 141.16 132.79 142.94 139.04 145.63 C 136.04 146.94 132.79 148.01 130.44 150.40 C 128.42 152.33 127.16 154.87 125.90 157.32 C 130.15 155.51 134.80 153.35 139.52 154.66 C 142.12 155.37 143.49 157.80 144.77 159.95 C 134.24 164.16 122.45 165.13 112.75 171.34 C 105.68 161.38 101.17 149.31 101.66 136.98 C 102.00 119.30 109.48 102.83 117.17 87.25 C 125.57 69.03 130.28 47.36 122.85 28.03 Z" />
<path fill="#f7b5a5" opacity="1.00" d=" M 298.59 65.61 C 301.38 64.73 304.20 63.64 307.16 63.59 C 309.06 65.01 310.92 66.49 312.80 67.92 C 328.00 81.98 336.73 102.35 337.38 122.95 C 337.60 131.33 337.47 140.87 331.60 147.51 C 327.22 152.30 320.07 152.37 314.24 150.74 C 316.55 136.30 315.12 120.09 305.16 108.63 C 304.85 105.10 303.41 101.87 301.35 99.02 C 303.07 100.03 304.73 101.12 306.41 102.19 C 305.05 97.36 302.81 92.11 297.94 89.93 C 295.22 88.42 292.08 89.57 289.17 89.04 C 289.24 87.03 289.35 85.02 289.48 83.02 C 291.05 83.59 292.61 84.16 294.21 84.69 C 292.83 83.28 291.35 81.99 289.81 80.76 C 290.30 76.88 291.06 73.05 292.04 69.27 C 297.80 69.58 303.56 70.03 309.29 70.80 C 306.03 68.43 301.84 67.93 298.59 65.61 Z" />
</g>
<g id="#11111284">
<path fill="#111112" opacity="0.52" d=" M 123.22 38.74 C 124.26 44.93 124.21 51.27 122.99 57.43 C 123.25 51.21 123.71 44.97 123.22 38.74 Z" />
</g>
<g id="#1c1d1d8f">
<path fill="#1c1d1d" opacity="0.56" d=" M 122.06 62.16 C 121.47 60.68 121.70 59.00 122.94 57.92 C 123.54 59.40 123.31 61.09 122.06 62.16 Z" />
</g>
<g id="#161618ba">
<path fill="#161618" opacity="0.73" d=" M 305.63 60.70 C 310.75 59.47 316.14 59.63 321.23 60.93 C 316.03 60.67 310.83 60.62 305.63 60.70 Z" />
</g>
<g id="#121314bc">
<path fill="#121314" opacity="0.74" d=" M 252.71 61.87 C 257.49 60.94 262.36 60.85 267.21 60.92 C 262.47 62.07 257.55 61.84 252.71 61.87 Z" />
</g>
<g id="#2f3031c2">
<path fill="#2f3031" opacity="0.76" d=" M 292.70 64.21 C 293.01 63.92 293.61 63.35 293.91 63.06 C 293.95 63.50 294.02 64.39 294.06 64.84 C 293.72 64.68 293.04 64.37 292.70 64.21 Z" />
</g>
<g id="#d2891dff">
<path fill="#d2891d" opacity="1.00" d=" M 307.16 63.59 C 315.68 62.16 325.17 64.24 331.24 70.70 C 343.01 82.73 346.93 99.65 355.00 113.95 C 357.64 118.37 360.50 122.83 364.58 126.08 C 362.81 122.45 360.96 118.86 359.43 115.13 C 366.57 114.48 373.53 112.21 379.78 108.71 C 381.30 107.86 382.84 107.00 384.57 106.62 C 382.18 109.72 378.51 111.34 375.00 112.84 C 390.46 109.83 406.71 108.02 422.20 111.71 C 408.77 110.61 394.77 110.65 382.20 116.16 L 382.40 116.70 C 384.55 116.24 386.74 115.12 388.97 115.79 C 406.56 120.68 421.46 133.79 428.77 150.50 C 426.74 151.18 424.89 152.29 423.65 154.07 C 425.59 153.61 427.67 151.70 429.63 153.13 C 431.77 154.89 432.30 157.77 433.27 160.24 C 421.31 160.69 409.32 160.97 397.44 162.61 C 397.59 158.09 397.33 153.42 395.22 149.32 C 400.69 145.34 403.56 138.52 402.61 131.82 C 401.41 137.75 399.85 144.12 394.90 148.10 C 393.42 147.45 392.03 146.63 390.61 145.88 C 392.68 141.75 392.04 137.02 390.35 132.88 C 390.60 137.06 391.54 141.58 389.39 145.45 C 380.66 148.92 375.96 157.91 373.37 166.44 C 367.51 167.58 361.75 169.14 355.96 170.57 C 354.68 170.01 353.39 169.50 352.07 169.08 C 352.78 169.40 354.19 170.02 354.90 170.34 C 353.70 171.11 352.43 171.77 351.05 172.13 C 342.17 174.77 333.47 178.01 325.04 181.87 C 320.36 178.47 313.42 176.04 312.52 169.53 C 312.02 163.70 313.59 157.96 314.11 152.18 C 318.93 153.95 324.52 154.85 329.25 152.28 C 335.95 148.80 338.52 140.91 339.33 133.88 C 341.34 114.58 336.17 94.37 324.13 79.01 C 320.78 74.92 317.45 70.62 312.80 67.92 C 310.92 66.49 309.06 65.01 307.16 63.59 M 368.88 133.21 C 372.73 129.23 376.76 125.38 381.92 123.14 C 376.24 124.10 371.19 127.91 368.88 133.21 M 383.19 126.24 C 375.85 130.06 370.73 137.27 368.23 145.03 C 372.87 136.73 380.13 128.95 389.89 127.28 C 393.66 126.47 396.72 129.06 398.85 131.83 C 398.25 129.76 397.97 127.29 396.04 125.97 C 392.21 123.38 387.08 124.22 383.19 126.24 Z" />
<path fill="#d2891d" opacity="1.00" d=" M 407.32 94.51 C 411.92 89.07 417.67 83.95 424.84 82.46 C 432.75 80.85 440.45 85.98 444.55 92.44 C 450.10 101.55 451.16 112.78 449.61 123.16 C 447.74 134.84 442.11 146.17 433.06 153.91 C 428.86 139.42 419.18 126.21 405.44 119.53 C 401.16 117.12 396.28 116.22 391.78 114.36 C 406.02 112.12 420.84 111.86 434.87 115.55 C 423.18 109.05 409.29 107.32 396.09 108.26 C 395.04 108.41 394.04 107.98 393.07 107.69 C 393.47 107.71 394.27 107.76 394.67 107.78 C 399.07 103.53 403.42 99.23 407.32 94.51 Z" />
<path fill="#d2891d" opacity="1.00" d=" M 397.35 164.31 C 406.75 163.35 416.17 162.05 425.63 162.01 C 427.07 162.66 428.48 163.38 429.91 164.09 C 429.26 165.70 428.51 167.26 427.72 168.80 C 421.39 170.80 418.54 177.39 415.96 182.93 C 413.82 189.42 409.26 195.64 410.72 202.82 C 405.42 203.90 400.20 203.05 394.97 202.09 C 392.70 198.09 389.59 194.64 385.86 191.97 C 392.98 184.57 396.17 174.31 397.35 164.31 Z" />
<path fill="#d2891d" opacity="1.00" d=" M 358.74 172.04 C 363.32 170.65 368.05 169.83 372.65 168.47 C 372.81 169.15 373.13 170.52 373.29 171.20 L 373.13 171.85 C 372.86 172.09 372.31 172.56 372.04 172.79 C 371.90 177.78 371.45 182.84 372.56 187.75 C 372.01 187.74 370.91 187.72 370.36 187.71 C 369.62 180.74 364.42 175.55 358.74 172.04 Z" />
<path fill="#d2891d" opacity="1.00" d=" M 326.58 182.52 C 336.63 178.62 346.87 175.30 357.21 172.25 C 361.82 175.49 366.22 180.03 366.84 185.90 C 367.31 189.60 365.72 193.07 363.90 196.17 C 354.92 192.77 345.57 190.23 336.04 188.99 C 332.64 187.25 329.69 184.73 326.58 182.52 Z" />
<path fill="#d2891d" opacity="1.00" d=" M 336.66 189.71 C 345.57 192.05 354.88 193.61 363.18 197.75 C 356.65 198.52 350.06 197.56 343.51 197.69 C 341.45 194.84 338.98 192.34 336.66 189.71 Z" />
<path fill="#d2891d" opacity="1.00" d=" M 340.66 210.20 C 341.62 210.13 343.53 210.00 344.48 209.94 C 343.64 220.21 346.39 230.95 352.76 239.15 C 353.64 240.31 354.44 241.54 355.16 242.83 C 350.31 240.16 345.70 237.02 341.73 233.14 C 343.48 225.54 342.85 217.64 340.66 210.20 Z" />
<path fill="#d2891d" opacity="1.00" d=" M 427.25 212.77 C 429.55 212.81 431.84 212.86 434.14 212.93 C 435.66 216.93 435.74 221.70 432.93 225.17 C 429.68 224.67 426.78 222.81 423.64 221.83 C 425.76 219.24 427.27 216.19 427.25 212.77 Z" />
<path fill="#d2891d" opacity="1.00" d=" M 414.21 225.45 C 417.28 224.97 420.19 223.86 422.90 222.36 C 425.85 223.90 428.91 225.22 431.99 226.48 C 427.27 231.39 420.81 233.89 414.78 236.73 C 409.19 239.17 403.61 241.67 397.84 243.65 C 400.82 240.99 404.42 239.09 407.16 236.14 C 410.22 233.11 412.44 229.36 414.21 225.45 Z" />
<path fill="#d2891d" opacity="1.00" d=" M 334.19 227.95 C 336.81 231.19 338.64 234.97 339.86 238.94 C 340.26 238.25 340.64 237.55 341.02 236.85 C 343.43 239.27 346.06 241.45 348.82 243.44 C 337.01 258.02 333.25 277.63 334.69 295.99 C 335.37 302.40 336.35 309.30 340.46 314.53 C 343.94 318.50 349.92 316.59 354.28 318.70 C 356.86 320.03 357.11 324.16 354.89 325.94 C 352.11 328.27 348.23 328.18 344.81 328.43 C 341.88 325.83 338.19 328.84 335.79 330.75 C 331.81 334.81 328.53 339.56 323.83 342.90 C 321.88 341.64 320.08 340.16 318.56 338.41 C 320.50 335.68 321.31 332.43 321.84 329.17 C 319.54 330.30 317.24 331.44 314.97 332.63 C 313.79 330.52 312.66 328.39 311.59 326.23 C 311.96 325.69 312.71 324.62 313.09 324.08 C 312.23 324.34 311.38 324.61 310.53 324.87 C 309.94 323.69 309.36 322.52 308.78 321.35 C 312.22 318.78 314.44 314.98 315.08 310.73 C 315.55 311.25 316.49 312.28 316.96 312.79 C 312.98 303.60 310.69 293.51 310.22 283.54 C 311.88 278.13 310.49 272.48 310.97 266.95 C 311.30 263.43 311.12 259.89 310.20 256.48 C 310.41 248.89 311.82 241.22 313.84 233.90 C 319.93 230.32 328.68 228.71 334.28 234.11 C 334.23 232.05 334.18 230.00 334.19 227.95 Z" />
<path fill="#d2891d" opacity="1.00" d=" M 410.51 241.25 C 416.11 239.35 421.46 236.81 426.84 234.35 C 426.95 248.30 434.82 260.97 434.23 275.01 C 434.23 280.53 431.85 286.31 426.97 289.24 C 419.96 293.55 411.17 292.57 403.54 290.63 C 397.13 288.79 390.67 286.51 384.98 283.03 C 389.86 278.48 393.66 273.00 397.76 267.77 C 400.79 263.66 405.76 261.80 410.52 260.54 C 414.63 260.30 418.33 262.43 422.00 263.98 C 419.97 261.42 417.09 259.79 413.89 259.17 C 416.60 257.05 419.59 253.75 418.23 250.03 C 417.39 246.92 414.29 245.55 411.51 244.64 C 411.22 243.55 410.87 242.47 410.55 241.39 L 410.51 241.25 Z" />
<path fill="#d2891d" opacity="1.00" d=" M 395.66 253.98 C 399.50 249.79 405.19 246.63 411.02 247.84 C 414.30 248.43 416.74 252.42 414.37 255.29 C 410.50 259.76 403.74 259.50 399.36 263.26 C 393.73 268.06 390.47 275.02 384.79 279.77 C 379.81 284.06 373.21 287.57 366.45 286.32 C 363.99 285.95 361.89 282.88 363.71 280.70 C 367.12 276.21 373.60 275.03 376.26 269.76 C 371.57 273.45 365.46 275.00 361.26 279.30 C 359.33 281.01 359.73 283.68 359.99 285.95 C 357.28 286.70 354.30 287.70 351.56 286.51 C 349.52 285.81 348.01 283.25 349.17 281.22 C 350.97 278.50 354.17 277.30 356.94 275.84 C 360.70 274.03 364.08 271.32 366.19 267.68 C 362.93 269.67 359.87 272.01 356.32 273.48 C 353.01 274.87 349.82 276.61 347.23 279.13 C 346.19 278.14 344.06 276.86 345.23 275.19 C 347.30 271.77 351.46 270.63 354.71 268.65 C 361.19 265.50 365.35 258.68 372.49 256.74 C 374.99 255.99 377.49 256.93 379.79 257.88 C 378.82 259.85 377.89 261.85 377.09 263.89 C 380.69 259.61 384.30 253.83 390.30 253.15 C 391.86 253.48 393.43 253.94 395.05 253.95 C 395.20 253.96 395.51 253.97 395.66 253.98 Z" />
<path fill="#d2891d" opacity="1.00" d=" M 401.04 293.43 C 409.35 296.11 418.63 298.08 427.06 294.75 C 438.29 304.62 446.96 318.69 447.06 334.00 C 446.95 347.00 440.28 358.79 432.88 369.05 C 423.23 382.12 411.45 393.47 398.83 403.64 C 400.79 402.75 402.81 401.44 405.06 402.15 C 412.31 403.30 419.83 404.75 426.07 408.83 C 429.24 410.87 431.81 414.77 430.53 418.64 C 429.07 422.69 424.64 424.20 420.91 425.41 C 422.69 419.21 417.61 414.04 411.89 412.89 C 414.89 415.53 418.89 418.62 417.97 423.17 C 417.19 427.28 412.60 428.81 408.94 429.08 C 396.98 429.98 384.84 425.08 376.57 416.45 C 373.25 413.27 370.52 408.79 371.51 404.02 C 373.00 396.70 378.08 390.91 381.49 384.46 C 385.44 377.15 389.98 369.61 390.38 361.10 C 389.91 361.78 389.46 362.48 389.02 363.18 C 386.90 362.85 384.73 362.56 382.65 363.19 C 384.59 363.82 386.57 364.36 388.53 364.94 C 385.76 372.22 381.84 379.00 377.64 385.54 C 373.67 391.72 368.31 397.32 366.73 404.72 C 356.90 414.02 343.61 419.97 329.98 419.81 C 324.76 419.59 319.02 418.72 315.11 414.95 C 312.76 412.83 312.57 408.94 314.58 406.53 C 317.30 402.84 321.96 401.71 326.05 400.27 C 319.37 400.18 311.41 403.25 309.59 410.36 C 307.00 408.84 304.14 406.12 304.95 402.86 C 311.88 401.69 318.91 399.96 324.52 395.45 C 335.50 396.07 347.27 395.58 357.03 389.84 C 361.23 387.42 364.17 383.45 366.30 379.19 C 370.14 376.85 374.55 375.07 377.24 371.23 C 380.22 367.59 381.35 362.82 381.06 358.18 C 389.69 359.98 399.28 359.61 407.03 355.02 C 414.42 350.67 418.83 342.36 419.73 333.99 C 420.48 326.32 417.65 318.81 413.78 312.33 C 409.97 305.74 404.80 300.06 401.04 293.43 Z" />
</g>
<g id="#9da5abff">
<path fill="#9da5ab" opacity="1.00" d=" M 261.98 75.97 C 263.22 75.22 264.48 74.46 265.73 73.71 L 266.53 73.24 C 273.58 75.31 280.90 77.00 287.24 80.86 C 280.85 79.24 274.52 77.25 267.89 76.92 C 268.13 76.50 268.60 75.67 268.83 75.25 C 266.55 75.50 264.26 75.74 261.98 75.97 Z" />
<path fill="#9da5ab" opacity="1.00" d=" M 265.92 79.53 C 272.39 79.64 278.85 80.49 285.15 81.96 C 285.06 83.48 284.97 84.99 284.89 86.50 C 278.75 83.68 272.36 81.55 265.92 79.53 Z" />
</g>
<g id="#15151649">
<path fill="#151516" opacity="0.29" d=" M 407.07 91.14 C 406.26 89.13 408.21 87.71 410.06 87.88 C 409.46 89.29 408.41 90.42 407.07 91.14 Z" />
</g>
<g id="#fde692ff">
<path fill="#fde692" opacity="1.00" d=" M 239.43 103.51 C 242.43 101.09 245.66 104.18 247.66 106.37 C 255.53 115.69 258.94 128.02 259.72 140.00 C 260.24 153.14 258.91 166.80 252.95 178.71 C 251.52 178.15 250.09 177.60 248.66 177.06 C 251.74 168.04 252.71 158.26 251.27 148.83 C 250.49 144.34 249.10 139.55 245.49 136.50 C 242.09 133.57 236.49 134.31 233.62 137.65 C 229.00 142.79 228.57 150.04 227.89 156.58 C 225.78 146.89 226.10 136.77 227.54 127.01 C 229.18 118.38 232.12 108.99 239.43 103.51 Z" />
<path fill="#fde692" opacity="1.00" d=" M 292.38 124.35 C 293.11 123.01 293.53 120.98 295.29 120.66 C 297.96 122.36 299.58 125.24 301.00 127.99 C 306.19 138.56 306.96 150.68 305.94 162.24 L 305.76 162.11 C 304.66 161.32 303.57 160.53 302.48 159.74 C 302.01 156.03 301.48 151.94 298.81 149.10 C 297.13 147.25 294.11 147.63 292.32 149.09 C 290.18 150.97 289.01 153.64 287.55 156.02 C 287.83 145.34 288.67 134.46 292.38 124.35 Z" />
</g>
<g id="#da9020fb">
<path fill="#da9020" opacity="1.00" d=" M 384.57 106.62 C 385.00 106.05 385.00 106.05 384.57 106.62 Z" />
</g>
<g id="#1919195b">
<path fill="#191919" opacity="0.36" d=" M 454.41 111.40 C 455.19 114.64 454.93 117.96 454.15 121.17 C 454.14 117.91 454.19 114.65 454.41 111.40 Z" />
</g>
<g id="#161617c8">
<path fill="#161617" opacity="0.78" d=" M 94.04 140.60 C 93.91 137.58 94.09 134.54 94.70 131.57 C 94.92 134.60 94.70 137.64 94.04 140.60 Z" />
</g>
<g id="#79be42ff">
<path fill="#79be42" opacity="1.00" d=" M 233.62 137.65 C 236.49 134.31 242.09 133.57 245.49 136.50 C 249.10 139.55 250.49 144.34 251.27 148.83 C 252.71 158.26 251.74 168.04 248.66 177.06 C 246.76 176.70 244.86 176.36 242.95 176.05 C 246.47 169.09 246.70 160.68 244.61 153.26 C 243.86 150.13 240.46 146.91 237.24 149.18 C 232.55 152.37 232.56 158.75 232.59 163.84 C 230.85 161.55 227.19 159.94 227.89 156.58 C 228.57 150.04 229.00 142.79 233.62 137.65 Z" />
<path fill="#79be42" opacity="1.00" d=" M 292.32 149.09 C 294.11 147.63 297.13 147.25 298.81 149.10 C 301.48 151.94 302.01 156.03 302.48 159.74 C 302.86 167.82 301.51 176.04 297.83 183.30 C 296.71 183.55 295.60 183.81 294.49 184.08 C 297.81 178.33 297.84 171.33 296.61 164.99 C 296.07 162.90 295.32 160.35 293.01 159.63 C 290.10 159.89 289.20 163.06 287.91 165.16 C 287.74 162.11 287.65 159.06 287.55 156.02 C 289.01 153.64 290.18 150.97 292.32 149.09 Z" />
</g>
<g id="#ffffffff">
<path fill="#ffffff" opacity="1.00" d=" M 384.51 150.44 C 386.58 148.73 390.08 147.40 392.23 149.72 C 395.36 153.27 395.20 158.38 395.37 162.83 C 388.46 163.62 381.58 164.72 374.78 166.16 C 376.92 160.38 379.65 154.45 384.51 150.44 Z" />
<path fill="#ffffff" opacity="1.00" d=" M 436.31 161.48 C 437.74 161.48 439.19 161.48 440.63 161.49 C 440.24 162.08 439.86 162.68 439.48 163.27 C 438.81 164.00 437.47 165.46 436.80 166.19 C 436.63 164.61 436.47 163.05 436.31 161.48 Z" />
<path fill="#ffffff" opacity="1.00" d=" M 374.56 168.40 C 381.36 166.64 388.35 165.76 395.28 164.67 C 394.40 174.28 391.50 184.06 384.94 191.37 C 382.67 190.26 380.34 189.28 377.91 188.63 C 381.52 184.68 383.26 179.12 382.67 173.82 C 382.40 171.90 381.14 169.53 378.91 169.69 C 375.71 170.77 374.59 174.29 373.33 177.07 C 373.26 175.33 373.16 173.59 373.13 171.85 L 373.29 171.20 C 373.70 170.26 374.13 169.32 374.56 168.40 Z" />
<path fill="#ffffff" opacity="1.00" d=" M 423.74 172.77 C 424.81 171.69 426.22 170.29 427.90 170.97 C 429.60 173.70 428.61 177.07 428.06 180.01 C 426.35 188.04 422.19 195.20 417.90 202.09 C 417.67 202.27 417.22 202.63 416.99 202.81 L 416.33 203.22 C 418.76 198.24 421.60 192.78 420.12 187.06 C 419.68 184.92 417.72 184.30 415.82 185.48 C 418.34 181.18 420.31 176.46 423.74 172.77 Z" />
<path fill="#ffffff" opacity="1.00" d=" M 237.89 178.82 C 245.34 179.18 252.91 180.87 259.19 185.07 C 258.70 186.63 257.66 188.31 258.43 189.96 C 259.48 193.04 262.74 194.28 265.43 195.54 C 268.87 197.07 272.06 199.16 274.63 201.93 C 280.25 200.11 286.53 197.98 289.84 192.72 C 291.15 191.00 290.58 188.92 289.87 187.10 C 297.28 185.62 305.65 183.72 312.57 187.86 C 308.69 190.12 304.80 192.38 301.06 194.86 C 305.11 192.88 309.04 190.67 313.05 188.63 C 315.92 191.45 315.46 195.91 314.42 199.44 C 309.56 199.98 304.69 200.53 299.91 201.54 C 304.63 201.49 309.32 200.82 314.05 200.77 C 308.64 210.91 298.88 218.58 287.86 221.72 C 282.53 223.34 276.32 222.66 272.31 218.50 C 273.70 216.68 275.10 214.86 276.14 212.81 C 269.31 219.54 260.13 225.57 250.06 223.63 C 242.38 221.67 238.04 214.34 233.89 208.22 C 241.28 207.66 248.73 206.82 256.15 207.38 C 256.54 207.07 257.32 206.46 257.71 206.15 C 249.61 207.31 241.41 206.05 233.29 207.09 C 230.82 203.12 228.41 199.05 225.09 195.71 C 228.00 194.93 230.69 193.51 233.00 191.58 C 239.33 193.33 245.66 195.05 251.99 196.77 C 246.01 194.46 239.98 192.25 233.79 190.55 C 236.30 187.13 237.44 182.99 237.89 178.82 Z" />
<path fill="#ffffff" opacity="1.00" d=" M 267.45 183.63 C 272.61 182.48 278.15 183.05 283.10 184.89 C 284.69 185.61 287.06 186.82 286.67 188.90 C 284.61 192.00 280.33 191.55 277.08 191.50 C 272.77 190.93 267.78 190.63 264.53 187.39 C 263.10 185.56 265.95 184.03 267.45 183.63 Z" />
<path fill="#ffffff" opacity="1.00" d=" M 193.72 196.59 C 194.47 195.53 195.23 193.81 196.89 194.58 C 201.58 195.24 206.29 195.71 210.98 196.27 C 214.19 199.56 215.24 204.47 216.69 208.74 C 206.72 209.90 196.87 212.03 187.24 214.82 C 188.49 208.48 190.06 202.01 193.72 196.59 Z" />
<path fill="#ffffff" opacity="1.00" d=" M 394.40 204.34 C 398.59 204.21 403.70 204.41 406.57 207.92 C 405.41 209.75 402.92 208.99 401.19 208.71 C 398.60 207.98 395.30 207.29 394.40 204.34 Z" />
<path fill="#ffffff" opacity="1.00" d=" M 219.78 210.04 C 223.47 209.45 227.19 208.97 230.90 208.44 C 231.10 209.00 231.25 209.58 231.36 210.17 C 227.80 210.73 224.24 211.46 220.64 211.71 C 220.42 211.29 219.99 210.46 219.78 210.04 Z" />
<path fill="#ffffff" opacity="1.00" d=" M 191.07 216.39 C 199.67 214.01 208.39 212.01 217.18 210.45 C 220.39 223.27 219.98 237.21 226.77 248.96 C 230.59 256.31 238.13 261.09 246.06 262.87 C 252.04 264.11 257.78 260.98 262.17 257.21 C 271.31 248.48 272.95 234.74 281.89 225.85 C 288.73 225.90 295.08 222.89 300.81 219.43 C 297.34 230.06 291.61 239.90 284.25 248.31 C 281.37 251.50 277.53 253.59 274.45 256.58 L 277.10 249.42 C 272.88 255.97 269.22 263.11 263.21 268.30 C 255.89 275.39 244.55 279.18 234.80 275.08 C 223.67 270.48 216.69 259.95 211.11 249.80 C 212.75 256.37 216.71 261.98 220.01 267.79 C 216.45 265.49 212.07 263.85 209.88 259.98 C 203.25 249.64 198.44 238.10 196.03 226.04 C 193.77 228.24 194.13 232.27 193.34 235.29 C 192.04 229.07 190.99 222.76 191.07 216.39 Z" />
<path fill="#ffffff" opacity="1.00" d=" M 186.34 224.91 C 186.74 221.85 185.40 216.96 189.81 216.43 C 188.28 219.09 186.95 221.88 186.34 224.91 Z" />
<path fill="#ffffff" opacity="1.00" d=" M 217.70 306.70 C 226.86 300.78 238.83 299.14 249.09 303.06 C 259.08 306.67 267.31 313.67 274.77 321.03 C 272.01 316.41 268.28 312.49 264.50 308.71 C 276.33 303.39 292.21 305.91 300.28 316.58 C 306.74 324.42 309.99 334.55 317.39 341.67 C 321.51 345.61 327.41 346.74 332.93 346.40 C 343.39 346.05 353.97 342.89 364.38 345.33 C 371.84 347.03 377.37 354.44 377.12 362.04 C 376.67 368.39 371.82 373.21 366.85 376.62 C 367.88 370.68 366.68 364.05 362.41 359.57 C 357.69 354.51 350.63 352.70 344.02 351.76 C 327.02 349.50 309.90 353.13 292.87 351.35 C 295.20 353.23 298.27 353.59 301.11 354.16 C 316.68 356.88 332.73 352.50 348.13 356.76 C 353.07 358.09 358.13 360.90 360.21 365.82 C 362.83 372.00 361.30 379.76 356.01 384.05 C 347.89 390.85 336.91 392.58 326.66 393.28 C 330.63 388.59 332.70 382.03 330.63 376.05 C 328.59 368.86 321.86 364.15 314.91 362.33 C 304.23 359.47 292.92 360.14 282.13 362.05 C 292.20 361.94 302.48 362.19 312.09 365.59 C 316.76 367.23 321.60 369.70 324.11 374.18 C 326.90 379.94 325.45 387.42 320.69 391.71 C 315.90 396.06 309.32 397.79 303.00 398.17 C 290.24 398.87 277.67 395.47 265.88 390.87 C 252.74 385.65 240.31 377.51 232.26 365.67 C 228.27 359.82 225.55 353.09 224.62 346.06 C 227.05 344.00 229.36 341.78 232.01 339.99 C 234.07 338.54 236.64 337.87 238.39 335.98 C 228.75 336.81 221.79 344.19 214.50 349.71 C 207.32 355.16 197.97 357.24 189.09 356.23 C 180.07 355.09 171.90 349.75 166.51 342.53 C 163.27 338.04 160.84 332.64 161.09 327.00 C 161.18 320.54 166.46 314.44 173.00 313.92 C 181.77 313.01 190.31 316.36 199.06 315.98 C 206.28 315.44 211.81 310.32 217.70 306.70 Z" />
</g>
<g id="#f2ec9cff">
<path fill="#f2ec9c" opacity="1.00" d=" M 302.48 159.74 C 303.57 160.53 304.66 161.32 305.76 162.11 C 305.05 168.59 303.40 174.95 301.06 181.02 C 300.81 182.69 299.28 183.17 297.83 183.30 C 301.51 176.04 302.86 167.82 302.48 159.74 Z" />
</g>
<g id="#1d1d1e59">
<path fill="#1d1d1e" opacity="0.35" d=" M 448.46 161.61 C 449.68 161.36 450.90 161.11 452.13 160.87 C 454.80 160.90 457.46 161.15 460.12 161.46 C 456.26 162.06 452.34 162.10 448.46 161.61 Z" />
</g>
<g id="#f29d21ff">
<path fill="#f29d21" opacity="1.00" d=" M 425.63 162.01 C 428.16 162.01 430.74 162.32 433.23 161.67 C 433.44 164.02 433.58 166.38 433.71 168.74 C 432.20 169.29 429.12 172.55 428.71 169.50 C 429.97 167.15 431.28 164.78 431.67 162.10 C 431.23 162.60 430.35 163.59 429.91 164.09 C 428.48 163.38 427.07 162.66 425.63 162.01 Z" />
</g>
<g id="#fda421ff">
<path fill="#fda421" opacity="1.00" d=" M 430.24 172.13 C 431.36 171.55 432.48 170.96 433.62 170.38 C 431.97 181.91 426.80 192.54 420.45 202.18 C 423.34 206.92 429.89 206.71 433.16 211.07 C 430.34 210.54 427.11 210.13 425.27 207.65 C 423.15 204.98 419.97 203.51 416.65 203.07 L 416.99 202.81 C 417.22 202.63 417.67 202.27 417.90 202.09 C 421.52 199.10 423.59 194.74 425.72 190.66 C 428.36 184.87 430.94 178.63 430.24 172.13 Z" />
</g>
<g id="#acb5bbff">
<path fill="#acb5bb" opacity="1.00" d=" M 232.66 179.80 C 231.89 177.97 231.70 175.93 232.70 174.15 C 233.94 175.63 233.89 178.31 232.66 179.80 Z" />
</g>
<g id="#1b1b1d8f">
<path fill="#1b1b1d" opacity="0.56" d=" M 104.90 182.44 C 103.60 183.74 100.54 182.86 102.49 180.99 C 103.10 181.36 104.30 182.08 104.90 182.44 Z" />
</g>
<g id="#18191a8f">
<path fill="#18191a" opacity="0.56" d=" M 107.66 181.74 C 110.23 181.21 112.84 181.04 115.46 180.99 C 114.83 181.48 114.19 181.95 113.55 182.42 C 111.59 182.14 109.63 181.86 107.66 181.74 Z" />
</g>
<g id="#ffe3c0ff">
<path fill="#ffe3c0" opacity="1.00" d=" M 370.28 189.02 C 378.97 190.59 387.59 194.51 392.95 201.79 C 388.60 201.15 384.28 200.41 379.92 199.91 C 375.60 199.32 371.11 199.39 367.09 197.50 C 368.60 194.86 369.65 191.99 370.28 189.02 Z" />
<path fill="#ffe3c0" opacity="1.00" d=" M 361.45 201.92 C 364.69 199.89 368.56 201.15 372.12 201.24 C 375.50 201.41 378.29 203.57 381.34 204.77 C 380.44 204.01 378.63 202.49 377.72 201.73 C 382.29 202.18 386.85 202.82 391.42 203.33 C 393.65 206.35 396.28 209.36 396.56 213.29 C 400.66 213.00 406.39 213.41 408.49 208.99 C 408.07 207.85 407.58 206.75 407.02 205.68 C 411.01 206.85 415.11 207.59 419.18 208.44 C 419.09 208.09 418.91 207.39 418.82 207.04 C 415.12 206.62 411.50 205.62 407.98 204.40 C 413.92 204.58 422.17 205.11 423.85 212.15 C 419.90 212.25 415.95 212.31 412.00 212.44 C 416.07 212.75 420.15 212.80 424.24 212.73 C 424.03 215.86 422.79 219.08 419.95 220.70 C 417.67 219.98 415.53 218.87 413.19 218.33 C 415.22 219.29 417.52 219.90 419.12 221.58 C 410.84 224.54 401.04 223.54 394.05 218.02 C 394.76 217.13 395.46 216.23 396.16 215.33 C 392.48 217.55 388.33 219.13 383.97 218.96 C 377.16 219.20 371.12 214.99 366.98 209.91 C 371.00 210.21 375.02 210.50 379.05 210.66 C 374.88 209.48 370.54 209.58 366.31 208.93 C 364.32 206.86 362.96 204.32 361.45 201.92 Z" />
<path fill="#ffe3c0" opacity="1.00" d=" M 345.70 201.87 C 350.02 203.25 354.63 203.90 359.12 202.94 C 359.89 204.74 360.61 206.56 361.31 208.40 C 356.77 208.24 352.23 208.33 347.72 208.84 C 347.20 206.47 346.53 204.14 345.70 201.87 Z" />
<path fill="#ffe3c0" opacity="1.00" d=" M 347.92 209.85 C 352.41 209.64 356.90 209.59 361.39 209.54 C 363.46 218.15 361.56 227.47 365.33 235.70 C 368.17 242.39 376.68 246.18 383.46 243.45 C 391.86 239.35 394.99 229.25 403.09 224.77 C 406.42 224.99 409.71 225.75 413.07 225.61 C 407.77 236.08 397.83 243.81 386.82 247.51 C 388.20 245.69 389.69 243.92 390.83 241.93 C 387.57 244.79 384.44 248.08 380.14 249.33 C 374.28 251.38 367.13 249.59 363.26 244.65 C 360.96 241.86 360.48 238.17 359.27 234.87 C 359.03 238.54 359.88 242.12 361.19 245.52 C 357.51 244.13 355.39 240.67 353.26 237.59 C 347.99 229.55 345.79 219.94 345.16 210.45 C 345.86 210.72 347.24 211.27 347.94 211.54 L 347.92 209.85 Z" />
</g>
<g id="#61400fff">
<path fill="#61400f" opacity="1.00" d=" M 349.32 200.20 C 351.06 199.32 353.22 199.71 355.07 200.08 C 356.61 200.89 353.52 201.18 353.09 201.12 C 352.00 200.94 349.71 201.52 349.32 200.20 Z" />
</g>
<g id="#5e5e5eff">
<path fill="#5e5e5e" opacity="1.00" d=" M 363.08 209.41 C 364.46 209.00 364.95 209.49 364.54 210.89 C 363.14 211.31 362.65 210.81 363.08 209.41 Z" />
</g>
<g id="#bd7c1aff">
<path fill="#bd7c1a" opacity="1.00" d=" M 427.40 210.88 C 430.41 209.35 427.57 214.21 427.40 210.88 Z" />
</g>
<g id="#1d1d1fe3">
<path fill="#1d1d1f" opacity="0.89" d=" M 111.01 221.85 C 112.77 220.27 115.24 220.17 117.01 221.80 C 115.03 222.25 112.99 222.24 111.01 221.85 Z" />
</g>
<g id="#ef5b5dff">
<path fill="#ef5b5d" opacity="1.00" d=" M 364.71 222.86 C 367.81 222.94 371.31 223.03 373.57 225.50 C 376.65 228.21 377.08 232.44 377.67 236.24 C 378.32 234.00 378.28 231.65 378.13 229.35 C 380.67 230.69 383.39 232.86 383.28 236.05 C 383.15 237.91 383.44 240.85 381.16 241.49 C 376.31 241.95 370.91 240.12 368.14 235.93 C 365.57 232.09 365.15 227.33 364.71 222.86 Z" />
<path fill="#ef5b5d" opacity="1.00" d=" M 223.65 229.78 C 227.42 227.07 233.05 226.40 237.62 227.57 C 244.59 230.10 247.82 237.45 249.57 244.13 C 249.99 240.88 249.20 237.70 248.29 234.62 C 250.98 233.83 254.15 233.56 256.37 235.64 C 262.96 241.06 262.84 252.77 255.62 257.61 C 249.37 261.83 240.70 259.31 235.71 254.26 C 230.91 249.48 229.75 242.45 229.42 235.97 C 228.97 240.20 229.12 244.48 230.05 248.65 C 226.40 243.02 224.89 236.28 223.65 229.78 Z" />
</g>
<g id="#939aa0ff">
<path fill="#939aa0" opacity="1.00" d=" M 148.06 225.97 C 151.99 224.67 156.15 224.16 160.28 224.16 C 151.19 228.72 142.02 233.18 133.36 238.56 C 136.68 232.91 141.78 228.11 148.06 225.97 Z" />
</g>
<g id="#e5951eff">
<path fill="#e5951e" opacity="1.00" d=" M 387.59 248.66 C 395.22 246.18 402.99 244.12 410.55 241.39 C 410.87 242.47 411.22 243.55 411.51 244.64 C 406.80 244.42 402.17 245.93 398.82 249.31 C 398.15 248.43 397.49 247.56 396.83 246.69 C 396.88 247.62 396.97 249.49 397.01 250.43 C 393.65 249.75 390.23 249.98 386.94 250.88 C 387.10 250.32 387.43 249.22 387.59 248.66 Z" />
</g>
<g id="#f3c082ff">
<path fill="#f3c082" opacity="1.00" d=" M 346.24 252.06 C 347.64 249.44 349.10 246.85 350.64 244.30 C 354.73 246.73 359.36 247.81 363.83 249.23 C 367.18 251.32 370.82 253.52 374.95 253.10 C 379.12 253.22 382.55 250.71 385.90 248.60 C 385.94 249.34 386.01 250.84 386.04 251.59 C 384.00 253.07 382.18 254.83 380.56 256.76 C 377.67 254.67 373.90 253.10 370.35 254.43 C 364.65 256.56 361.38 262.11 356.37 265.28 C 352.68 267.84 348.40 269.32 344.57 271.62 C 342.32 272.82 341.19 275.58 342.03 278.01 C 342.84 279.46 344.37 280.29 345.64 281.29 C 345.17 283.94 345.96 286.96 348.38 288.44 C 352.32 291.16 357.42 289.55 361.13 287.20 C 367.90 292.17 376.76 288.22 382.99 284.22 C 387.54 287.60 392.67 290.08 397.91 292.22 C 400.42 293.07 400.79 296.13 402.23 298.04 C 407.36 306.16 414.13 313.54 416.64 323.04 C 420.07 334.59 415.08 348.48 404.34 354.32 C 397.18 358.18 388.73 358.19 380.89 356.90 C 379.31 351.61 376.30 346.38 371.20 343.83 C 365.18 340.60 358.18 341.33 351.62 341.48 C 349.07 338.34 347.59 334.52 345.90 330.89 C 349.91 330.59 354.42 330.52 357.60 327.72 C 360.48 325.17 360.52 319.95 357.24 317.71 C 353.16 314.90 347.85 316.08 343.34 314.53 C 341.15 313.20 340.55 310.44 339.86 308.16 C 337.98 299.96 338.07 291.45 338.79 283.11 C 339.45 274.27 341.12 265.46 344.33 257.18 C 345.83 253.57 349.59 251.82 352.13 249.06 C 350.09 249.90 348.17 251.02 346.24 252.06 Z" />
</g>
<g id="#1a1a1b66">
<path fill="#1a1a1b" opacity="0.40" d=" M 116.60 250.05 C 116.70 250.41 116.91 251.11 117.01 251.47 C 116.32 252.68 114.86 253.86 113.41 253.71 C 113.36 252.10 115.25 250.71 116.60 250.05 Z" />
</g>
<g id="#f5a121ff">
<path fill="#f5a121" opacity="1.00" d=" M 390.30 253.15 C 391.60 252.07 394.13 251.86 395.19 253.40 L 395.05 253.95 C 393.43 253.94 391.86 253.48 390.30 253.15 Z" />
</g>
<g id="#18181ab1">
<path fill="#18181a" opacity="0.69" d=" M 122.82 258.97 C 122.62 257.25 122.95 255.55 123.68 253.99 C 124.48 255.59 124.94 258.16 122.82 258.97 Z" />
</g>
<g id="#1b1b1c76">
<path fill="#1b1b1c" opacity="0.46" d=" M 488.42 256.07 C 489.00 255.54 489.59 255.02 490.19 254.51 C 492.77 256.67 495.57 258.59 497.95 261.00 C 494.65 259.58 491.72 257.48 488.42 256.07 Z" />
</g>
<g id="#ef9c20ff">
<path fill="#ef9c20" opacity="1.00" d=" M 310.20 256.48 C 311.12 259.89 311.30 263.43 310.97 266.95 C 310.49 272.48 311.88 278.13 310.22 283.54 C 309.00 274.59 309.09 265.43 310.20 256.48 Z" />
</g>
<g id="#17171768">
<path fill="#171717" opacity="0.41" d=" M 438.23 270.82 C 439.06 274.24 439.24 277.80 438.21 281.20 C 438.20 277.74 438.20 274.28 438.23 270.82 Z" />
</g>
<g id="#d1881dff">
<path fill="#d1881d" opacity="1.00" d=" M 496.76 276.13 C 497.51 276.16 499.02 276.22 499.77 276.25 C 495.97 278.00 491.84 279.04 488.28 281.28 C 480.99 285.78 475.09 292.13 469.76 298.75 C 463.64 306.32 456.75 313.28 449.15 319.38 C 448.11 317.22 447.08 315.07 446.00 312.95 C 458.72 305.52 469.05 294.84 479.50 284.64 C 484.22 280.06 490.44 277.55 496.76 276.13 Z" />
</g>
<g id="#d1dae3ff">
<path fill="#d1dae3" opacity="1.00" d=" M 248.78 281.88 C 248.85 281.98 248.97 282.16 249.04 282.26 C 248.97 282.16 248.85 281.98 248.78 281.88 Z" />
</g>
<g id="#17171781">
<path fill="#171717" opacity="0.51" d=" M 466.76 294.03 C 467.05 292.29 468.44 291.09 470.20 291.03 C 469.89 292.75 468.52 293.98 466.76 294.03 Z" />
</g>
<g id="#f1f5f7ff">
<path fill="#f1f5f7" opacity="1.00" d=" M 226.17 297.69 C 227.93 295.84 229.72 293.16 232.57 293.23 C 233.45 294.00 234.23 294.89 235.03 295.76 C 232.03 296.19 229.07 296.81 226.17 297.69 Z" />
</g>
<g id="#171718cd">
<path fill="#171718" opacity="0.80" d=" M 450.93 325.77 C 448.39 324.21 450.05 320.57 452.88 321.20 C 452.37 321.98 451.88 322.77 451.43 323.59 C 451.31 324.14 451.05 325.23 450.93 325.77 Z" />
</g>
<g id="#1c1c1da0">
<path fill="#1c1c1d" opacity="0.63" d=" M 451.03 326.78 C 451.85 329.99 452.18 333.31 451.73 336.61 C 451.45 333.33 451.24 330.06 451.03 326.78 Z" />
</g>
<g id="#d48a1dff">
<path fill="#d48a1d" opacity="1.00" d=" M 340.48 329.93 C 341.81 330.58 344.24 330.14 344.69 331.99 C 345.93 335.54 347.65 338.89 349.86 341.94 C 348.29 342.04 346.73 342.15 345.18 342.25 C 343.36 338.25 341.48 334.23 340.48 329.93 Z" />
</g>
<g id="#13131578">
<path fill="#131315" opacity="0.47" d=" M 327.78 344.05 C 327.86 343.69 328.01 342.96 328.09 342.60 C 331.82 343.49 335.67 343.21 339.47 343.05 C 335.65 344.04 331.69 343.96 327.78 344.05 Z" />
</g>
<g id="#1213147a">
<path fill="#121314" opacity="0.48" d=" M 424.80 384.82 C 424.80 384.72 424.80 384.52 424.80 384.42 C 424.80 384.52 424.80 384.72 424.80 384.82 Z" />
</g>
<g id="#19191ba5">
<path fill="#19191b" opacity="0.65" d=" M 288.72 402.23 C 291.65 402.21 294.58 402.41 297.49 402.84 C 294.55 402.93 291.61 402.76 288.72 402.23 Z" />
</g>
<g id="#21212158">
<path fill="#212121" opacity="0.35" d=" M 434.38 414.86 C 435.59 415.67 435.68 417.41 434.38 418.19 C 434.38 417.36 434.38 415.69 434.38 414.86 Z" />
</g>
<g id="#19191b91">
<path fill="#19191b" opacity="0.57" d=" M 320.94 423.23 C 322.65 422.36 324.74 422.46 326.09 423.95 C 324.33 424.49 322.48 424.22 320.94 423.23 Z" />
</g>
</svg>
