<svg height="435pt" viewBox="0 0 543 435" width="543pt" xmlns="http://www.w3.org/2000/svg"><path d="m0 0h.02c0 .03-.01.08-.02.11z" fill="#cfd3d6"/><path d="m263.89 114c1.52-5.31 1.91-12.04 7.03-15.3 5.84 6.19 6.38 15.35 7.75 23.33 1.66-2.76 2.9-5.93 5.42-8.05 1.57-1.22 3.08.99 3.44 2.36 1.31 5.12 1.9 10.68.24 15.8-2.28 9.75-2.96 19.85-2.53 29.83.58 7.86 1.33 16.17 5.7 22.97-.81.31-1.62.62-2.43.93-7.95-5.73-19.8-7.33-28.24-1.76-1.68-1.76-3.58-3.29-5.65-4.57 7.2-12.16 8.94-26.76 8.15-40.64-.66-9.11-3.42-18-7.87-25.97.11-2.63 1.08-5.25 2.42-7.51 1.14-1.49 2.45.02 3.12 1.05 1.67 2.24 2.44 4.97 3.45 7.53z" fill="#cfd3d6"/><path d="m204.85 286.12c1.41-.72 2.83-1.41 4.26-2.09 6.57 2.64 7.03 10.98 7.99 17 .67-1.21 1.72-2.36 1.5-3.86 1.02.78 2.11 1.45 3.23 2.11-3.67 1.64-6.81 4.18-10.05 6.51-2.91-6.33-4.79-13.06-6.93-19.67z" fill="#cfd3d6"/><path d="m112.38 382.65c12.78-12.13 25.18-25.47 31.89-42.04 4.26 11.6 8.38 23.25 12.02 35.05.74 2.82 2.44 5.63 1.81 8.63-14.94.05-29.89.09-44.83-.03l-.15 1.5c-.18-.78-.55-2.33-.74-3.11z" fill="#cfd3d6"/><path d="m98.06 0h3.44c6.35 1.58 11.8 5.35 17.87 7.65 7.83 3.31 15.99 5.72 24.17 7.98 10.42 3.25 21.57 6.34 29.5 14.3 13.26 12.99 22.61 29.21 32.59 44.7 19.85-11.48 39.82-22.77 58.94-35.45-3.72 11.06-13.71 18.08-22.78 24.57 3.64-.64 7.26-1.38 10.92-1.88 4.84-.03 9.76.2 14.5-.95 11.29-12.42 23.89-24.47 39.67-30.95 2.64-1.22 5.58-1.23 8.41-.79-2.64 4-6.29 7.17-9.12 11.02-5.29 6.9-9.39 14.66-12.26 22.86-.3.29-.9.86-1.21 1.15.34.16 1.02.47 1.36.63.43.01 1.3.02 1.74.03 3.21-1.54 6.29-3.47 9.83-4.17 5.2-.08 10.4-.03 15.6.23 8.43 1.88 15.36 7.82 20.03 14.9 7.43 11.18 11.37 24.14 16.89 36.27 8.52-.34 17.07-2.31 24.54-6.53 3.94-2.11 7.21-5.19 10.72-7.92-2.02 4.95-5.69 8.89-9.57 12.45 3.02-.77 6.74-.47 8.97-3.02 4.97-5.12 9.43-10.7 14.26-15.94 1.34-.72 2.39-1.85 2.99-3.26 4.09-3.43 8.58-6.74 13.92-7.8 7.32-1.52 14.82 1.81 20.2 6.64 6.74 6.34 9.29 15.76 10.23 24.68-.22 3.25-.27 6.51-.26 9.77-1.77 12.75-8.88 24.16-18.1 32.92-2.31 1.58-.25 4.32-.01 6.4 5.37-.07 10.73.16 16.09.38-1.23.24-2.45.49-3.67.74-2.61-.06-5.22-.09-7.83-.12-1.44-.01-2.89-.01-4.32-.01.16 1.57.32 3.13.49 4.71.67-.73 2.01-2.19 2.68-2.92-3.64 5.13-2.84 11.66-4.95 17.34-2.57 8.13-7.3 15.31-11.86 22.43 5.16 2.27 10.66 4.32 14.3 8.87 23.67 1 47.49 5.73 69.03 15.81-21.84-7.81-44.73-13.38-67.98-14.16 1.58 4.51.67 9.31-1.86 13.27 16.07 6.66 31.67 14.47 46.54 23.51 1.74 1.29 4.53 1.88 5.15 4.23-1.04-.38-2.03-.86-2.98-1.38-15.99-9.45-32.71-17.61-49.64-25.24-2 1.85-4.09 3.6-6.22 5.3 1.74 12.83 7.38 24.75 9.22 37.57-.03 3.46-.03 6.92-.02 10.38-.87 5.15-4.07 9.52-8.3 12.46 5.72 4.79 10.64 10.44 14.84 16.59 7.83-4.7 15.1-10.26 22.01-16.22 1.76-.05 3.13-1.28 3.44-3 7.4-6.89 15.51-15.64 26.56-14.9-6.32 1.42-12.54 3.93-17.26 8.51-10.45 10.2-20.78 20.88-33.5 28.31 1.08 2.12 2.11 4.27 3.15 6.43 7.6-6.1 14.49-13.06 20.61-20.63 5.33-6.62 11.23-12.97 18.52-17.47 3.56-2.24 7.69-3.28 11.49-5.03.91.28 1.82.61 2.73.94-12.35 2.38-21.75 11.44-29.49 20.77-6.42 7.99-13.04 15.83-20.13 23.24-2.83-.63-4.49 3.01-1.95 4.57l.1 1.01c.21 3.28.42 6.55.7 9.83-1.42 14.79-9.7 27.91-19.11 39-2.48 3.05-5.68 5.48-7.82 8.81v.4l.1.56c-.92 1.15-2.14 1.82-3.66 2.01-5.51 4.54-11.16 8.89-16.83 13.22 6.24.58 12.53 1.4 18.44 3.61 5.07 1.76 10.16 5.11 11.53 10.64v3.33c-1.53 6.41-8.34 8.57-14.14 9.02-2.99 2.99-6.95 4.96-11.24 4.93-12.72.3-25.52-4.62-34.71-13.43-3.43-2.92-6.07-6.65-7.6-10.89-11.16 9.75-25.56 16.49-40.6 16.13-1.35-1.49-3.44-1.59-5.15-.72-5.29-1.39-10.66-4.59-11.69-10.42-2-.87-4.37-1.37-5.76-3.19-1.53-1.86-1.59-4.39-2.07-6.63-1.32-.05-2.63-.1-3.93-.15-2.91-.43-5.84-.63-8.77-.61-12.59-1.81-24.86-5.93-35.97-12.12-2.49 11.05-9.19 20.71-17.13 28.59-9.2 8.88-21.56 15.26-34.61 14.69-9.15-.11-18.3-3.89-24.28-10.92-8.75-10.04-12.55-23.11-16.97-35.4-1.23-.68-1.78-1.6-1.66-2.78.63-3-1.07-5.81-1.81-8.63-3.64-11.8-7.76-23.45-12.02-35.05-6.71 16.57-19.11 29.91-31.89 42.04.19.78.56 2.33.74 3.11-2.33 1.11-4.18.58-5.55-1.59 11.81-12.15 24.23-24.19 32.59-39.12 1.27-2.89 3.75-6.14 2.13-9.37-4.36-11.07-9.07-22-14.2-32.73 3.45 4 6.07 8.59 8.77 13.1 7.52 12.93 13.4 26.74 18.4 40.81 4.82 13.62 8.53 27.63 13.67 41.14 3.54 8.95 7.75 18.44 16.02 24 9.44 6.02 21.78 5.91 31.98 1.9 11.84-4.72 21.7-13.68 28.64-24.27 2.2-3.3 3.73-6.98 5.04-10.7-14.54-8.87-26.84-23.35-28.44-40.85-4.83 4.39-9.87 8.85-16.07 11.17-4.42 1.8-9.23 2.2-13.95 2.28-6.36 6.7-8.37 16.03-8.68 24.98-2.79-8.41-1.9-17.89 2.81-25.44-14.51-2.85-27.94-14.15-30.5-29.13-1.79-8.76 3.27-18.7 12.03-21.34 9.99-2.87 20.09 1.4 30.14 1.38 4.16.08 7.71-2.33 11.18-4.29-2.79-5.07-5.2-10.34-7.11-15.79-5.13-13.99-6.37-29.09-11.95-42.94-2.88-7.18-6.81-14.31-13.08-19.08-3.18-2.5-7.02-3.91-10.83-5.13-11.15 4.63-22.11 9.75-32.55 15.82-3.12 1.49-3.84 5.14-5.01 8.07-3.72 10.34-4.69 21.34-5.63 32.21-2.47 2.92-3.12 6.83-4.81 10.19-6.24 13.32-15.01 25.3-24.57 36.42-18.09 20.77-39.32 38.58-61.63 54.64-1.23.9-1.48 2.2-.76 3.9-4.19.42-8.43.3-12.58-.45 3.31-1.93 6.65-3.83 9.64-6.24 23.94-18.48 46.73-38.66 66.38-61.71 10.7-12.81 20.67-26.58 26.88-42.16 1.12-5.4.7-11 1.3-16.47 2.12-.81 1.66-3.38.86-4.98.57-2.88 1.24-5.73 1.91-8.58-2.27 1.51-4.51 3.07-6.61 4.81-.42-.37-.84-.73-1.26-1.1 3.56-2.43 8.31-4.24 9.73-8.69 1.8-4.94 4.73-9.33 8.05-13.37-5.78-2.91-12.07-4.56-18.49-5.26-1.77-1.63-4.24-1.53-6 .05-6.29.72-12.43 2.36-18.23 4.89 1.63-3.11 3.34-6.16 5.04-9.22-8.24 4.73-15.47 11.07-21.52 18.38 1.27-6.51 2.82-13.01 5.57-19.07 6.37-14.58 18.01-26.47 31.68-34.41.64-.47 1.28-.94 1.91-1.43-2.62.05-5.23.22-7.8.75-.69.17-2.07.53-2.76.7-.6-.36-1.8-1.08-2.41-1.45 2-2.63 4.17-5.14 6.55-7.44-8.52-8.82-15.36-20.31-15-32.95.66-2.96.88-6 .66-9.03 2.16-12.81 7.64-24.77 13.57-36.23 5.91-10.45 11.31-21.34 13.79-33.18 1.25-1.07 1.48-2.76.88-4.24l.05-.49c1.22-6.16 1.27-12.5.23-18.69-.74-4.01-1.18-8.29-3.23-11.88-4.82-3.39-10.11-6.16-14.5-10.15-3.94-3.56-8.23-7.43-9.72-12.7-.61-1.76 1.41-2.81 2.29-4.01m-.42 2.6c8.36 11.61 21.75 18.01 34 24.67 15.65 9.01 29.85 20.85 40.6 35.42 8.82 11.96 14.85 26.38 15 41.4.73 15.07-2.28 31.64-13.22 42.77 1.64-2.94 3.56-5.7 5.14-8.67-2.34 1.36-4.6 3.06-7.29 3.65-6.57 1.51-13.29-4.35-13.68-10.85-.39-3.55 1.24-6.85 1.99-10.24-5.31 4.78-6.87 12.13-8.32 18.81-8.24-5.7-19.63-5.73-28.03-.34 6.84-.01 13.32 2.91 18.44 7.32-5.08.53-9.71 3.4-12.62 7.55 3.31-1.23 6.64-3.14 10.29-2.73 3.97.61 6.29 4.32 7.64 7.77 1.92-.81 3.84-1.62 5.81-2.29-1.18 1.31-2.46 2.55-4.03 3.39-6.77 3.94-14.33 6.27-21.83 8.39-8.29 2.36-16.32 6.27-22.58 12.28 7.06-2.84 14.65-3.48 22.1-4.63-20.85 11.78-36.56 31.33-47.01 52.58 2.97-3.61 5.8-7.43 9.69-10.13 6.35-4.97 14.46-7.34 22.47-7.22-1.96 1.61-4.72 1.44-6.88 2.67-2.58 1.92-4.74 4.34-6.87 6.73 3.78-1.41 7.59-2.8 11.61-3.3 9.84-1.65 20.22 1.25 27.94 7.52 9.1-7.42 22.09-8.3 33.02-4.99 4.33-1.63 8.69-3.22 13.18-4.35 1.11-7.96 4.57-15.32 9.41-21.68-10.61-1.18-21.77-2.6-31.93 1.57 2.39-2.75 6.08-3.62 9.5-4.33 11.92-1.95 24-.23 35.9 1.04 6.6.54 13.87 1.4 19.85-2.1-37.01-8.04-75.65-9.02-112.88-1.81 5.18-1.87 10.61-2.93 16.02-3.88 32.75-5.53 66.68-3.95 98.77 4.61 1.88-2.75 4.41-5.91 3.82-9.4 1.23-1.49 1.28-4.17.04-5.65.75-3.13-1.6-6.19-3.2-8.75-7.34-9.36-18.86-13.7-29.52-18.03 8.98 1.57 17.66 5.02 25.33 9.94-1.47-5.64-2.18-11.47-2.11-17.3.09-11.55 2.1-23.88 9.66-33.04 2.64-2.86 5.94-6.29 10.17-5.94 4.6 1.74 7.46 6.06 10.56 9.65.66-2.52 1.11-5.28 2.89-7.3.7-.7 1.7-1.71 2.62-.64 2.18 1.84 3.09 4.69 4.5 7.09.77-4.5 1.56-9.85 5.66-12.6 2.75-1.18 4.74 1.66 5.82 3.76 2.44 5.14 3.58 10.83 4.17 16.46 1.93-2.22 3.35-5.82 6.7-6.01 4.73 1.71 4.07 7.9 4.4 11.98 1.45-1.56 2.96-3.06 4.57-4.45 5.67 2.83 8.37 9.01 10.52 14.62 5.39 15.91 3.21 33.67-3.22 48.94 4.96-.52 10.12.1 14.13 3.28 1.97-.56 3.72-1.72 5.53-2.66-4.18-2.65-8.79-5.28-11.17-9.84-2.78-5.35-1.48-11.55-.86-17.25.64-8.03 2.09-16.1 1.01-24.17-.89-6.58-2.87-13.03-5.94-18.91-.51 1.45-1.01 2.9-1.51 4.35-.26-5.53-1.03-11.55-5.05-15.73-3.34-3.64-8.42-4.84-13.19-4.78.6-1.4 1.24-2.79 1.89-4.16-7.67-5.76-16.87-8.92-25.83-12.04-3.41-1.37-7.04-.06-10.5.42 1.02 2.96 1.79 5.99 2.38 9.07-2.63-2.26-5.42-4.73-9.02-5.11-5.95-.83-11.48 2.55-15.66 6.45-5.3 4.82-8.07 11.73-8.96 18.72-1.2-7.09-.67-14.52 2.54-21.04-1.82 1.42-3.6 2.88-5.45 4.26 1.48-4.41 3.56-8.71 6.79-12.12 1.76-1.77 3.92-3.08 5.77-4.76-2.49.35-4.95.91-7.42 1.41 7.06-8.21 22.42-8.69 28.21 1.25 5.75-2.09 11.91-2.51 17.98-2.25 6.63.33 12.96 2.32 19.35 3.94-6.34-3.86-13.66-5.55-20.71-7.62l-.8.47.62-.37c-6.36-1.53-12.9-1.8-19.39-2.22 4.28-1.14 8.79-.8 13.05-2.08 12.51-3.24 25.52-2.55 38.25-1.33-2.96-.97-6.02-1.55-9.08-2.06-20.66-3.18-41.91-2.07-62.19 2.94 3.39-1.91 7.46-2.53 10.37-5.28 7.33-6 15.32-11.34 21.82-18.27-16.82 11.6-33.57 23.54-51.98 32.57 2.13 4.2 5.21 7.93 6.82 12.4-6.33-7.47-12.34-15.23-17.6-23.48-8.49-11.93-17.73-23.51-28.86-33.09-8.83-7.86-20.53-10.86-31.39-14.75-8.44-2.98-16.77-6.26-24.93-9.94-4.56-2-8.58-5.35-13.6-6.15m25.21 25.43c7.43 19.33 2.72 41-5.68 59.22-7.69 15.58-15.17 32.05-15.51 49.73-.49 12.33 4.02 24.4 11.09 34.36 9.7-6.21 21.49-7.18 32.02-11.39-1.28-2.15-2.65-4.58-5.25-5.29-4.72-1.31-9.37.85-13.62 2.66 1.26-2.45 2.52-4.99 4.54-6.92 2.35-2.39 5.6-3.46 8.6-4.77-6.25-2.69-12.88-4.47-19.67-4.99 4.12-4.41 9.57-7.88 15.69-8.43 5.58-.53 10.94 1.85 15.41 4.99-.01-4.35.58-8.92 3.22-12.52 2.11-3.18 5.57-5.03 8.94-6.57-1.22 3.85-2.45 7.94-1.57 12.01.84 4.6 5.04 8.85 9.96 8.32 3.81-.53 7.78-2.31 10.2-5.34 4.01-10.48 4.61-21.96 3.85-33.07-1.04-13.93-7.93-26.76-16.81-37.29-12.48-14.6-28.39-25.98-45.41-34.71m150.2 33.01c5.71.42 11.43 1.09 16.99 2.56 4.51-11.68 11.31-22.3 19.3-31.88-14.33 6.5-26.17 17.47-36.29 29.32m25.54 4.57c3.25 2.32 7.44 2.82 10.7 5.19-5.73-.77-11.49-1.22-17.25-1.53-.98 3.78-1.74 7.61-2.23 11.49 1.54 1.23 3.02 2.52 4.4 3.93-1.6-.53-3.16-1.1-4.73-1.67-.13 2-.24 4.01-.31 6.02 2.91.53 6.05-.62 8.77.89 4.87 2.18 7.11 7.43 8.47 12.26-1.68-1.07-3.34-2.16-5.06-3.17 2.06 2.85 3.5 6.08 3.81 9.61 9.96 11.46 11.39 27.67 9.08 42.11 5.83 1.63 12.98 1.56 17.36-3.23 5.87-6.64 6-16.18 5.78-24.56-.65-20.6-9.38-40.97-24.58-55.03 4.65 2.7 7.98 7 11.33 11.09 12.04 15.36 17.21 35.57 15.2 54.87-.81 7.03-3.38 14.92-10.08 18.4-4.73 2.57-10.32 1.67-15.14-.1-.52 5.78-2.09 11.52-1.59 17.35.9 6.51 7.84 8.94 12.52 12.34 8.43-3.86 17.13-7.1 26.01-9.74 1.38-.36 2.65-1.02 3.85-1.79-.71-.32-2.12-.94-2.83-1.26 1.32.42 2.61.93 3.89 1.49 5.79-1.43 11.55-2.99 17.41-4.13 2.59-8.53 7.29-17.52 16.02-20.99 2.15-3.87 1.21-8.39.96-12.57 1.69 4.14 2.33 8.87.26 13 1.42.75 2.81 1.57 4.29 2.22 4.95-3.98 6.51-10.35 7.71-16.28.95 6.7-1.92 13.52-7.39 17.5 2.11 4.1 2.37 8.77 2.22 13.29 11.88-1.64 23.87-1.92 35.83-2.37-.97-2.47-1.5-5.35-3.64-7.11-1.96-1.43-4.04.48-5.98.94 1.24-1.78 3.09-2.89 5.12-3.57-7.31-16.71-22.21-29.82-39.8-34.71-2.23-.67-4.42.45-6.57.91l-.2-.54c12.57-5.51 26.57-5.55 40-4.45-15.49-3.69-31.74-1.88-47.2 1.13 3.51-1.5 7.18-3.12 9.57-6.22-1.73.38-3.27 1.24-4.79 2.09-6.25 3.5-13.21 5.77-20.35 6.42 1.53 3.73 3.38 7.32 5.15 10.95-4.08-3.25-6.94-7.71-9.58-12.13-8.07-14.3-11.99-31.22-23.76-43.25-6.07-6.46-15.56-8.54-24.08-7.11-2.96.05-5.78 1.14-8.57 2.02m-31.82 5.11c1.3.9 2.88 1.14 4.4 1.48 5.23 1.04 10.09 3.39 14.69 6.01.66-3.06 1.48-6.09 2.35-9.1-7.17.22-14.35.5-21.44 1.61m-.85 8.81c6.44 2.02 12.83 4.15 18.97 6.97.08-1.51.17-3.02.26-4.54-6.3-1.47-12.76-2.32-19.23-2.43m141.4 14.98c-3.9 4.72-8.25 9.02-12.65 13.27-.4-.02-1.2-.07-1.6-.09.97.29 1.97.72 3.02.57 13.2-.94 27.09.79 38.78 7.29-14.03-3.69-28.85-3.43-43.09-1.19 4.5 1.86 9.38 2.76 13.66 5.17 13.74 6.68 23.42 19.89 27.62 34.38 9.05-7.74 14.68-19.07 16.55-30.75 1.55-10.38.49-21.61-5.06-30.72-4.1-6.46-11.8-11.59-19.71-9.98-7.17 1.49-12.92 6.61-17.52 12.05m-143.43 19.49c-1.01-2.56-1.78-5.29-3.45-7.53-.67-1.03-1.98-2.54-3.12-1.05-1.34 2.26-2.31 4.88-2.42 7.51 4.45 7.97 7.21 16.86 7.87 25.97.79 13.88-.95 28.48-8.15 40.64 2.07 1.28 3.97 2.81 5.65 4.57 8.44-5.57 20.29-3.97 28.24 1.76l2.43-.93c-4.37-6.8-5.12-15.11-5.7-22.97-.43-9.98.25-20.08 2.53-29.83 1.66-5.12 1.07-10.68-.24-15.8-.36-1.37-1.87-3.58-3.44-2.36-2.52 2.12-3.76 5.29-5.42 8.05-1.37-7.98-1.91-17.14-7.75-23.33-5.12 3.26-5.51 9.99-7.03 15.3m-24.46-10.49c-7.31 5.48-10.25 14.87-11.89 23.5-1.44 9.76-1.76 19.88.35 29.57-.7 3.36 2.96 4.97 4.7 7.26-.03-5.09-.04-11.47 4.65-14.66 3.22-2.27 6.62.95 7.37 4.08 2.09 7.42 1.86 15.83-1.66 22.79 1.91.31 3.81.65 5.71 1.01 1.43.54 2.86 1.09 4.29 1.65 5.96-11.91 7.29-25.57 6.77-38.71-.78-11.98-4.19-24.31-12.06-33.63-2-2.19-5.23-5.28-8.23-2.86m145.14 3.11c.43-.57.43-.57 0 0m-92.19 17.73c-3.71 10.11-4.55 20.99-4.83 31.67.1 3.04.19 6.09.36 9.14 1.29-2.1 2.19-5.27 5.1-5.53 2.31.72 3.06 3.27 3.6 5.36 1.23 6.34 1.2 13.34-2.12 19.09 1.11-.27 2.22-.53 3.34-.78 1.45-.13 2.98-.61 3.23-2.28 2.34-6.07 3.99-12.43 4.7-18.91l.18.13c1.02-11.56.25-23.68-4.94-34.25-1.42-2.75-3.04-5.63-5.71-7.33-1.76.32-2.18 2.35-2.91 3.69m92.13 26.09c-4.86 4.01-7.59 9.94-9.73 15.72 6.8-1.44 13.68-2.54 20.59-3.33-.17-4.45-.01-9.56-3.14-13.11-2.15-2.32-5.65-.99-7.72.72m12.84 13.87c-1.18 10-4.37 20.26-11.49 27.66 3.73 2.67 6.84 6.12 9.11 10.12 5.23.96 10.45 1.81 15.75.73-1.46-7.18 3.1-13.4 5.24-19.89 2.58-5.54 5.43-12.13 11.76-14.13.79-1.54 1.54-3.1 2.19-4.71.44-.5 1.32-1.49 1.76-1.99-.39 2.68-1.7 5.05-2.96 7.4.41 3.05 3.49-.21 5-.76-.13-2.36-.27-4.72-.48-7.07-2.49.65-5.07.34-7.6.34-9.46.04-18.88 1.34-28.28 2.3m-22.79 4.09c-.43.92-.86 1.86-1.27 2.8-.16-.68-.48-2.05-.64-2.73-4.6 1.36-9.33 2.18-13.91 3.57 5.68 3.51 10.88 8.7 11.62 15.67l2.2.04c-1.11-4.91-.66-9.97-.52-14.96.27-.23.82-.7 1.09-.94.03 1.74.13 3.48.2 5.22 1.26-2.78 2.38-6.3 5.58-7.38 2.23-.16 3.49 2.21 3.76 4.13.59 5.3-1.15 10.86-4.76 14.81 2.43.65 4.76 1.63 7.03 2.74 6.56-7.31 9.46-17.09 10.34-26.7-6.93 1.09-13.92 1.97-20.72 3.73m49.18 4.37c-3.43 3.69-5.4 8.41-7.92 12.71 1.9-1.18 3.86-.56 4.3 1.58 1.48 5.72-1.36 11.18-3.79 16.16l.66-.41-.34.26c3.32.44 6.5 1.91 8.62 4.58 1.84 2.48 5.07 2.89 7.89 3.42-3.27-4.36-9.82-4.15-12.71-8.89 6.35-9.64 11.52-20.27 13.17-31.8-1.14.58-2.26 1.17-3.38 1.75.7 6.5-1.88 12.74-4.52 18.53-2.13 4.08-4.2 8.44-7.82 11.43 4.29-6.89 8.45-14.05 10.16-22.08.55-2.94 1.54-6.31-.16-9.04-1.68-.68-3.09.72-4.16 1.8m-97.16 9.75c3.11 2.21 6.06 4.73 9.46 6.47 9.53 1.24 18.88 3.78 27.86 7.18 1.82-3.1 3.41-6.57 2.94-10.27-.62-5.87-5.02-10.41-9.63-13.65-10.34 3.05-20.58 6.37-30.63 10.27m-88.69-3.7c-.45 4.17-1.59 8.31-4.1 11.73 6.19 1.7 12.22 3.91 18.2 6.22-6.33-1.72-12.66-3.44-18.99-5.19-2.31 1.93-5 3.35-7.91 4.13 3.32 3.34 5.73 7.41 8.2 11.38 8.12-1.04 16.32.22 24.42-.94-.39.31-1.17.92-1.56 1.23-7.42-.56-14.87.28-22.26.84 4.15 6.12 8.49 13.45 16.17 15.41 10.07 1.94 19.25-4.09 26.08-10.82-1.04 2.05-2.44 3.87-3.83 5.69 4.01 4.16 10.22 4.84 15.55 3.22 11.02-3.14 20.78-10.81 26.19-20.95-4.73.05-9.42.72-14.14.77 4.78-1.01 9.65-1.56 14.51-2.1 1.04-3.53 1.5-7.99-1.37-10.81-4.01 2.04-7.94 4.25-11.99 6.23 3.74-2.48 7.63-4.74 11.51-7-6.92-4.14-15.29-2.24-22.7-.76.71 1.82 1.28 3.9-.03 5.62-3.31 5.26-9.59 7.39-15.21 9.21-2.57-2.77-5.76-4.86-9.2-6.39-2.69-1.26-5.95-2.5-7-5.58-.77-1.65.27-3.33.76-4.89-6.28-4.2-13.85-5.89-21.3-6.25m29.56 4.81c-1.5.4-4.35 1.93-2.92 3.76 3.25 3.24 8.24 3.54 12.55 4.11 3.25.05 7.53.5 9.59-2.6.39-2.08-1.98-3.29-3.57-4.01-4.95-1.84-10.49-2.41-15.65-1.26m49.72 3.29c2.15 3.71 2.38 8.04 1.41 12.17 7.27-.9 14.6-1.25 21.92-1.19-4.66-5.89-11.06-10.02-17.35-13.97-2 .98-4.08 1.82-5.98 2.99m53.11 2.1c-.63 2.97-1.68 5.84-3.19 8.48 4.02 1.89 8.51 1.82 12.83 2.41 4.36.5 8.68 1.24 13.03 1.88-5.36-7.28-13.98-11.2-22.67-12.77m-33.62.69c2.32 2.63 4.79 5.13 6.85 7.98 6.55-.13 13.14.83 19.67.06-8.3-4.14-17.61-5.7-26.52-8.04m-142.94 6.88c-3.66 5.42-5.23 11.89-6.48 18.23 9.63-2.79 19.48-4.92 29.45-6.08-1.45-4.27-2.5-9.18-5.71-12.47-4.69-.56-9.4-1.03-14.09-1.69-1.66-.77-2.42.95-3.17 2.01m124.43 3.69c-3.3 7.49-9.27 13.26-15.69 18.12-2.63 9.73-6.93 19.03-13.46 26.79 8.45-5.31 16.23-11.95 25.7-15.51 5.69-2.4 12.37-2.59 17.84.53-.55-1.98-1.11-3.95-1.73-5.9-.98-.76-1.93-1.54-2.86-2.34 6.08 1.4 9.96 6.76 12.26 12.2.57-10.8-.44-21.84-4.16-32.05 3.39 1.95 6.73 3.98 10.05 6.05-1.03-2.91-2.35-5.72-4.02-8.31-7.98-.02-15.96.26-23.93.42m31.17-.08c.39 1.32 2.68.74 3.77.92.43.06 3.52-.23 1.98-1.04-1.85-.37-4.01-.76-5.75.12m12.13 1.72c1.51 2.4 2.87 4.94 4.86 7.01 4.23.65 8.57.55 12.74 1.73-4.03-.16-8.05-.45-12.07-.75 4.14 5.08 10.18 9.29 16.99 9.05 4.36.17 8.51-1.41 12.19-3.63-.7.9-1.4 1.8-2.11 2.69 6.99 5.52 16.79 6.52 25.07 3.56-1.6-1.68-3.9-2.29-5.93-3.25 2.34.54 4.48 1.65 6.76 2.37 2.84-1.62 4.08-4.84 4.29-7.97-4.09.07-8.17.02-12.24-.29 3.95-.13 7.9-.19 11.85-.29-1.68-7.04-9.93-7.57-15.87-7.75 3.52 1.22 7.14 2.22 10.84 2.64.09.35.27 1.05.36 1.4-4.07-.85-8.17-1.59-12.16-2.76.56 1.07 1.05 2.17 1.47 3.31-2.1 4.42-7.83 4.01-11.93 4.3-.28-3.93-2.91-6.94-5.14-9.96-4.57-.51-9.13-1.15-13.7-1.6.91.76 2.72 2.28 3.62 3.04-3.05-1.2-5.84-3.36-9.22-3.53-3.56-.09-7.43-1.35-10.67.68m-15.75-.05c.83 2.27 1.5 4.6 2.02 6.97 4.51-.51 9.05-.6 13.59-.44-.7-1.84-1.42-3.66-2.19-5.46-4.49.96-9.1.31-13.42-1.07m48.7 2.47c.9 2.95 4.2 3.64 6.79 4.37 1.73.28 4.22 1.04 5.38-.79-2.87-3.51-7.98-3.71-12.17-3.58m-174.62 5.7c.21.42.64 1.25.86 1.67 3.6-.25 7.16-.98 10.72-1.54-.11-.59-.26-1.17-.46-1.73-3.71.53-7.43 1.01-11.12 1.6m143.3-.63c-.43 1.4.06 1.9 1.46 1.48.41-1.4-.08-1.89-1.46-1.48m-22.42.79c2.19 7.44 2.82 15.34 1.07 22.94 3.97 3.88 8.58 7.02 13.43 9.69-.72-1.29-1.52-2.52-2.4-3.68-6.37-8.2-9.12-18.94-8.28-29.21-.95.06-2.86.19-3.82.26m7.26-.35.02 1.69c-.7-.27-2.08-.82-2.78-1.09.63 9.49 2.83 19.1 8.1 27.14 2.13 3.08 4.25 6.54 7.93 7.93-1.31-3.4-2.16-6.98-1.92-10.65 1.21 3.3 1.69 6.99 3.99 9.78 3.87 4.94 11.02 6.73 16.88 4.68 4.3-1.25 7.43-4.54 10.69-7.4-1.14 1.99-2.63 3.76-4.01 5.58 11.01-3.7 20.95-11.43 26.25-21.9-3.36.14-6.65-.62-9.98-.84-8.1 4.48-11.23 14.58-19.63 18.68-6.78 2.73-15.29-1.06-18.13-7.75-3.77-8.23-1.87-17.55-3.94-26.16-4.49.05-8.98.1-13.47.31m-156.85 6.54c-.08 6.37.97 12.68 2.27 18.9.79-3.02.43-7.05 2.69-9.25 2.41 12.06 7.22 23.6 13.85 33.94 2.19 3.87 6.57 5.51 10.13 7.81-3.3-5.81-7.26-11.42-8.9-17.99 5.58 10.15 12.56 20.68 23.69 25.28 9.75 4.1 21.09.31 28.41-6.78 6.01-5.19 9.67-12.33 13.89-18.88l-2.65 7.16c3.08-2.99 6.92-5.08 9.8-8.27 7.36-8.41 13.09-18.25 16.56-28.88-5.73 3.46-12.08 6.47-18.92 6.42-8.94 8.89-10.58 22.63-19.72 31.36-4.39 3.77-10.13 6.9-16.11 5.66-7.93-1.78-15.47-6.56-19.29-13.91-6.79-11.75-6.38-25.69-9.59-38.51-8.79 1.56-17.51 3.56-26.11 5.94m236.33-5.51c.17 3.33 3.01-1.53 0 0m-.15 1.89c.02 3.42-1.49 6.47-3.61 9.06 3.14.98 6.04 2.84 9.29 3.34 2.81-3.47 2.73-8.24 1.21-12.24-2.3-.07-4.59-.12-6.89-.16m-240.91 12.14c.61-3.03 1.94-5.82 3.47-8.48-4.41.53-3.07 5.42-3.47 8.48m-11.73-3.42c5.93 3.87 11.22 8.82 14.75 15.02 2.72 4.1 3.79 9.23 7.39 12.73 3.15 3.14 6.04 6.6 9.72 9.16-2.03-3.9-4.49-7.59-6.08-11.71-2.4-5.43-3.51-11.27-4.83-17.01-.76 3.09-1.11 6.26-1.38 9.43-4.58-5.61-4.21-13.45-4.12-20.29-2.43 3.65-2.27 8.21-2.96 12.38-2.42-3.83-2.56-8.49-2.95-12.86-3.14 1.16-6.33 2.18-9.54 3.15m190.1 1.37c.44 4.47.86 9.23 3.43 13.07 2.77 4.19 8.17 6.02 13.02 5.56 2.28-.64 1.99-3.58 2.12-5.44.11-3.19-2.61-5.36-5.15-6.7.15 2.3.19 4.65-.46 6.89-.59-3.8-1.02-8.03-4.1-10.74-2.26-2.47-5.76-2.56-8.86-2.64m49.5 2.59c-1.77 3.91-3.99 7.66-7.05 10.69-2.74 2.95-6.34 4.85-9.32 7.51 5.77-1.98 11.35-4.48 16.94-6.92 6.03-2.84 12.49-5.34 17.21-10.25-3.08-1.26-6.14-2.58-9.09-4.12-2.71 1.5-5.62 2.61-8.69 3.09m-266.15.52c-6.28 2.14-11.38 6.94-14.7 12.59 8.66-5.38 17.83-9.84 26.92-14.4-4.13 0-8.29.51-12.22 1.81m75.59 3.81c1.24 6.5 2.75 13.24 6.4 18.87-.93-4.17-1.08-8.45-.63-12.68.33 6.48 1.49 13.51 6.29 18.29 4.99 5.05 13.66 7.57 19.91 3.35 7.22-4.84 7.34-16.55.75-21.97-2.22-2.08-5.39-1.81-8.08-1.02.91 3.08 1.7 6.26 1.28 9.51-1.75-6.68-4.98-14.03-11.95-16.56-4.57-1.17-10.2-.5-13.97 2.21m110.54-1.83c-.01 2.05.04 4.1.09 6.16-5.6-5.4-14.35-3.79-20.44-.21-2.02 7.32-3.43 14.99-3.64 22.58-1.11 8.95-1.2 18.11.02 27.06.47 9.97 2.76 20.06 6.74 29.25-.47-.51-1.41-1.54-1.88-2.06-.64 4.25-2.86 8.05-6.3 10.62.58 1.17 1.16 2.34 1.75 3.52.85-.26 1.7-.53 2.56-.79-.38.54-1.13 1.61-1.5 2.15 1.07 2.16 2.2 4.29 3.38 6.4 2.27-1.19 4.57-2.33 6.87-3.46-.53 3.26-1.34 6.51-3.28 9.24 1.52 1.75 3.32 3.23 5.27 4.49 4.7-3.34 7.98-8.09 11.96-12.15 2.4-1.91 6.09-4.92 9.02-2.32 3.42-.25 7.3-.16 10.08-2.49 2.22-1.78 1.97-5.91-.61-7.24-4.36-2.11-10.34-.2-13.82-4.17-4.11-5.23-5.09-12.13-5.77-18.54-1.44-18.36 2.32-37.97 14.13-52.55-2.76-1.99-5.39-4.17-7.8-6.59-.38.7-.76 1.4-1.16 2.09-1.22-3.97-3.05-7.75-5.67-10.99m76.32 13.3.04.14c-7.56 2.73-15.33 4.79-22.96 7.27-.16.56-.49 1.66-.65 2.22 3.29-.9 6.71-1.13 10.07-.45-.04-.94-.13-2.81-.18-3.74.66.87 1.32 1.74 1.99 2.62 3.35-3.38 7.98-4.89 12.69-4.67 2.78.91 5.88 2.28 6.72 5.39 1.36 3.72-1.63 7.02-4.34 9.14 3.2.62 6.08 2.25 8.11 4.81-3.67-1.55-7.37-3.68-11.48-3.44-4.76 1.26-9.73 3.12-12.76 7.23-4.1 5.23-7.9 10.71-12.78 15.26 5.69 3.48 12.15 5.76 18.56 7.6 7.63 1.94 16.42 2.92 23.43-1.39 4.88-2.93 7.26-8.71 7.26-14.23.59-14.04-7.28-26.71-7.39-40.66-5.38 2.46-10.73 5-16.33 6.9m-117.43 5.9c2.48 1.37 5.06 2.69 7.11 4.69 2.23 2.07 3.35 4.97 5.1 7.41.63-8.05 2.62-15.89 5.03-23.56-6.06 3.33-11.57 7.53-17.24 11.46m53.16 4.91c1.93-1.04 3.85-2.16 5.89-3-2.54 2.76-6.3 4.51-7.8 8.12-3.21 8.28-4.88 17.09-5.54 25.93-.72 8.34-.81 16.85 1.07 25.05.69 2.28 1.29 5.04 3.48 6.37 4.51 1.55 9.82.37 13.9 3.18 3.28 2.24 3.24 7.46.36 10.01-3.18 2.8-7.69 2.87-11.7 3.17 1.69 3.63 3.17 7.45 5.72 10.59 6.56-.15 13.56-.88 19.58 2.35 5.1 2.55 8.11 7.78 9.69 13.07 7.84 1.29 16.29 1.28 23.45-2.58 10.74-5.84 15.73-19.73 12.3-31.28-2.51-9.5-9.28-16.88-14.41-25-1.44-1.91-1.81-4.97-4.32-5.82-5.24-2.14-10.37-4.62-14.92-8-6.23 4-15.09 7.95-21.86 2.98-3.71 2.35-8.81 3.96-12.75 1.24-2.42-1.48-3.21-4.5-2.74-7.15-1.27-1-2.8-1.83-3.61-3.28-.84-2.43.29-5.19 2.54-6.39 3.83-2.3 8.11-3.78 11.8-6.34 5.01-3.17 8.28-8.72 13.98-10.85 3.55-1.33 7.32.24 10.21 2.33 1.62-1.93 3.44-3.69 5.48-5.17-.03-.75-.1-2.25-.14-2.99-3.35 2.11-6.78 4.62-10.95 4.5-4.13.42-7.77-1.78-11.12-3.87-4.47-1.42-9.1-2.5-13.19-4.93-1.54 2.55-3 5.14-4.4 7.76m49.42 1.92c-.15-.01-.46-.02-.61-.03l.14-.55c-1.06-1.54-3.59-1.33-4.89-.25-6 .68-9.61 6.46-13.21 10.74.8-2.04 1.73-4.04 2.7-6.01-2.3-.95-4.8-1.89-7.3-1.14-7.14 1.94-11.3 8.76-17.78 11.91-3.25 1.98-7.41 3.12-9.48 6.54-1.17 1.67.96 2.95 2 3.94 2.59-2.52 5.78-4.26 9.09-5.65 3.55-1.47 6.61-3.81 9.87-5.8-2.11 3.64-5.49 6.35-9.25 8.16-2.77 1.46-5.97 2.66-7.77 5.38-1.16 2.03.35 4.59 2.39 5.29 2.74 1.19 5.72.19 8.43-.56-.26-2.27-.66-4.94 1.27-6.65 4.2-4.3 10.31-5.85 15-9.54-2.66 5.27-9.14 6.45-12.55 10.94-1.82 2.18.28 5.25 2.74 5.62 6.76 1.25 13.36-2.26 18.34-6.55 5.68-4.75 8.94-11.71 14.57-16.51 4.38-3.76 11.14-3.5 15.01-7.97 2.37-2.87-.07-6.86-3.35-7.45-5.83-1.21-11.52 1.95-15.36 6.14m-124.46 9.23c-3.07 3.92-5.62 8.33-9.53 11.54-2.25 2.37-5.94 3.34-7.19 6.56-2.64 5.48-3.53 11.59-3.49 17.62 4.35 2.19 8.2 5.15 12.01 8.14 3.44-2.04 6.92-4.2 10.91-4.94 6.99-1.74 14.36-.18 20.67 3.05.09-7.22 2.49-14.08 4.92-20.79 2.72-8.11 4.19-17.38.75-25.5-1.85-4.54-6.01-7.52-10.42-9.33-6.29 4.44-12.6 8.88-18.63 13.65m-74.17-8.77c3.01 9.83 5.02 19.92 7.29 29.93 2.33-1.08 5.09-3.03 7.64-1.36 4.67 3.13 4.92 9.31 6.64 14.16.22 1.5-.83 2.65-1.5 3.86-.96-6.02-1.42-14.36-7.99-17-1.43.68-2.85 1.37-4.26 2.09 2.14 6.61 4.02 13.34 6.93 19.67 3.24-2.33 6.38-4.87 10.05-6.51 3.81-1.52 4.82-7.03 9.12-8.28 3.04-.71 4.42 2.67 5.58 4.81 3.51.16 7.02.57 10.42 1.52-.43-5.14.63-10.18 2.09-15.07-.07-.1-.19-.28-.26-.38-1.57.01-3.15.03-4.72.09-1.43 2.7-2.47 5.58-3.83 8.31-.06-2.8.48-5.56 1.49-8.16-6.11-.47-10.86-4.59-16.57-6.26-11.31-4.13-20.09-12.77-28.12-21.42m105.8 32.65c-2.26 6.45-4.82 12.98-4.97 19.9 3.23 3.74 6.78 7.25 9.25 11.59 3.37-2.62 5.86-6.21 6.94-10.36-4.62-8.78-7.45-18.49-8.5-28.35-1.54 2.13-1.83 4.81-2.72 7.22m-76.66 10.6c2.9-.88 5.86-1.5 8.86-1.93-.8-.87-1.58-1.76-2.46-2.53-2.85-.07-4.64 2.61-6.4 4.46m174.87-4.26c3.76 6.63 8.93 12.31 12.74 18.9 3.87 6.48 6.7 13.99 5.95 21.66-.9 8.37-5.31 16.68-12.7 21.03-7.75 4.59-17.34 4.96-25.97 3.16.29 4.64-.84 9.41-3.82 13.05-2.69 3.84-7.1 5.62-10.94 7.96-2.13 4.26-5.07 8.23-9.27 10.65-9.76 5.74-21.53 6.23-32.51 5.61-5.61 4.51-12.64 6.24-19.57 7.41-.81 3.26 2.05 5.98 4.64 7.5 1.82-7.11 9.78-10.18 16.46-10.09-4.09 1.44-8.75 2.57-11.47 6.26-2.01 2.41-1.82 6.3.53 8.42 3.91 3.77 9.65 4.64 14.87 4.86 13.63.16 26.92-5.79 36.75-15.09 1.58-7.4 6.94-13 10.91-19.18 4.2-6.54 8.12-13.32 10.89-20.6-1.96-.58-3.94-1.12-5.88-1.75 2.08-.63 4.25-.34 6.37-.01.44-.7.89-1.4 1.36-2.08-.4 8.51-4.94 16.05-8.89 23.36-3.41 6.45-8.49 12.24-9.98 19.56-.99 4.77 1.74 9.25 5.06 12.43 8.27 8.63 20.41 13.53 32.37 12.63 3.66-.27 8.25-1.8 9.03-5.91.92-4.55-3.08-7.64-6.08-10.28 5.72 1.15 10.8 6.32 9.02 12.52 3.73-1.21 8.16-2.72 9.62-6.77 1.28-3.87-1.29-7.77-4.46-9.81-6.24-4.08-13.76-5.53-21.01-6.68-2.25-.71-4.27.6-6.23 1.49 12.62-10.17 24.4-21.52 34.05-34.59 7.4-10.26 14.07-22.05 14.18-35.05-.1-15.31-8.77-29.38-20-39.25-8.43 3.33-17.71 1.36-26.02-1.32m-183.34 13.27c-5.89 3.62-11.42 8.74-18.64 9.28-8.75.38-17.29-2.97-26.06-2.06-6.54.52-11.82 6.62-11.91 13.08-.25 5.64 2.18 11.04 5.42 15.53 5.39 7.22 13.56 12.56 22.58 13.7 8.88 1.01 18.23-1.07 25.41-6.52 7.29-5.52 14.25-12.9 23.89-13.73-1.75 1.89-4.32 2.56-6.38 4.01-2.65 1.79-4.96 4.01-7.39 6.07.93 7.03 3.65 13.76 7.64 19.61 8.05 11.84 20.48 19.98 33.62 25.2 11.79 4.6 24.36 8 37.12 7.3 6.32-.38 12.9-2.11 17.69-6.46 4.76-4.29 6.21-11.77 3.42-17.53-2.51-4.48-7.35-6.95-12.02-8.59-9.61-3.4-19.89-3.65-29.96-3.54 10.79-1.91 22.1-2.58 32.78.28 6.95 1.82 13.68 6.53 15.72 13.72 2.07 5.98 0 12.54-3.97 17.23 10.25-.7 21.23-2.43 29.35-9.23 5.29-4.29 6.82-12.05 4.2-18.23-2.08-4.92-7.14-7.73-12.08-9.06-15.4-4.26-31.45.12-47.02-2.6-2.84-.57-5.91-.93-8.24-2.81 17.03 1.78 34.15-1.85 51.15.41 6.61.94 13.67 2.75 18.39 7.81 4.27 4.48 5.47 11.11 4.44 17.05 4.97-3.41 9.82-8.23 10.27-14.58.25-7.6-5.28-15.01-12.74-16.71-10.41-2.44-20.99.72-31.45 1.07-5.52.34-11.42-.79-15.54-4.73-7.4-7.12-10.65-17.25-17.11-25.09-8.07-10.67-23.95-13.19-35.78-7.87 3.78 3.78 7.51 7.7 10.27 12.32-7.46-7.36-15.69-14.36-25.68-17.97-10.26-3.92-22.23-2.28-31.39 3.64m122.78 23.23c1 4.3 2.88 8.32 4.7 12.32 1.55-.1 3.11-.21 4.68-.31-2.21-3.05-3.93-6.4-5.17-9.95-.45-1.85-2.88-1.41-4.21-2.06m-24.01 5.83c2.03.08 2.42-2.51 3.45-3.83-1.31 1.09-4.77 1.55-3.45 3.83m20.05-2.95c-2.78 3.29-5.19 6.91-8.43 9.79-.08.36-.23 1.09-.31 1.45 3.91-.09 7.87-.01 11.69-1 .4-.02 1.22-.06 1.63-.08-1.54-3.27-2.67-6.7-4.01-10.04z" fill="#020307"/><path d="m368.88 133.21c2.31-5.3 7.36-9.11 13.04-10.07-5.16 2.24-9.19 6.09-13.04 10.07z" fill="#020307"/><path d="m383.19 126.24c3.89-2.02 9.02-2.86 12.85-.27 1.93 1.32 2.21 3.79 2.81 5.86-2.13-2.77-5.19-5.36-8.96-4.55-9.76 1.67-17.02 9.45-21.66 17.75 2.5-7.76 7.62-14.97 14.96-18.79z" fill="#020307"/><path d="m97.64 2.6c5.02.8 9.04 4.15 13.6 6.15 8.16 3.68 16.49 6.96 24.93 9.94 10.86 3.89 22.56 6.89 31.39 14.75 11.13 9.58 20.37 21.16 28.86 33.09 5.26 8.25 11.27 16.01 17.6 23.48-1.61-4.47-4.69-8.2-6.82-12.4 18.41-9.03 35.16-20.97 51.98-32.57-6.5 6.93-14.49 12.27-21.82 18.27-2.91 2.75-6.98 3.37-10.37 5.28 20.28-5.01 41.53-6.12 62.19-2.94 3.06.51 6.12 1.09 9.08 2.06-12.73-1.22-25.74-1.91-38.25 1.33-4.26 1.28-8.77.94-13.05 2.08 6.49.42 13.03.69 19.39 2.22l-.62.37c-1.25.75-2.51 1.51-3.75 2.26 2.28-.23 4.57-.47 6.85-.72-.23.42-.7 1.25-.94 1.67-6.07-.26-12.23.16-17.98 2.25-5.79-9.94-21.15-9.46-28.21-1.25 2.47-.5 4.93-1.06 7.42-1.41-1.85 1.68-4.01 2.99-5.77 4.76-3.23 3.41-5.31 7.71-6.79 12.12 1.85-1.38 3.63-2.84 5.45-4.26-3.21 6.52-3.74 13.95-2.54 21.04.89-6.99 3.66-13.9 8.96-18.72 4.18-3.9 9.71-7.28 15.66-6.45 3.6.38 6.39 2.85 9.02 5.11-.59-3.08-1.36-6.11-2.38-9.07 3.46-.48 7.09-1.79 10.5-.42 8.96 3.12 18.16 6.28 25.83 12.04-.65 1.37-1.29 2.76-1.89 4.16 4.77-.06 9.85 1.14 13.19 4.78 4.02 4.18 4.79 10.2 5.05 15.73.5-1.45 1-2.9 1.51-4.35 3.07 5.88 5.05 12.33 5.94 18.91 1.08 8.07-.37 16.14-1.01 24.17-.62 5.7-1.92 11.9.86 17.25 2.38 4.56 6.99 7.19 11.17 9.84-1.81.94-3.56 2.1-5.53 2.66-4.01-3.18-9.17-3.8-14.13-3.28 6.43-15.27 8.61-33.03 3.22-48.94-2.15-5.61-4.85-11.79-10.52-14.62-1.61 1.39-3.12 2.89-4.57 4.45-.33-4.08.33-10.27-4.4-11.98-3.35.19-4.77 3.79-6.7 6.01-.59-5.63-1.73-11.32-4.17-16.46-1.08-2.1-3.07-4.94-5.82-3.76-4.1 2.75-4.89 8.1-5.66 12.6-1.41-2.4-2.32-5.25-4.5-7.09-.92-1.07-1.92-.06-2.62.64-1.78 2.02-2.23 4.78-2.89 7.3-3.1-3.59-5.96-7.91-10.56-9.65-4.23-.35-7.53 3.08-10.17 5.94-7.56 9.16-9.57 21.49-9.66 33.04-.07 5.83.64 11.66 2.11 17.3-7.67-4.92-16.35-8.37-25.33-9.94 10.66 4.33 22.18 8.67 29.52 18.03 1.6 2.56 3.95 5.62 3.2 8.75-1 1.78-.81 3.82-.04 5.65.59 3.49-1.94 6.65-3.82 9.4-32.09-8.56-66.02-10.14-98.77-4.61-5.41.95-10.84 2.01-16.02 3.88 37.23-7.21 75.87-6.23 112.88 1.81-5.98 3.5-13.25 2.64-19.85 2.1-11.9-1.27-23.98-2.99-35.9-1.04-3.42.71-7.11 1.58-9.5 4.33 10.16-4.17 21.32-2.75 31.93-1.57-4.84 6.36-8.3 13.72-9.41 21.68-4.49 1.13-8.85 2.72-13.18 4.35-10.93-3.31-23.92-2.43-33.02 4.99-7.72-6.27-18.1-9.17-27.94-7.52-4.02.5-7.83 1.89-11.61 3.3 2.13-2.39 4.29-4.81 6.87-6.73 2.16-1.23 4.92-1.06 6.88-2.67-8.01-.12-16.12 2.25-22.47 7.22-3.89 2.7-6.72 6.52-9.69 10.13 10.45-21.25 26.16-40.8 47.01-52.58-7.45 1.15-15.04 1.79-22.1 4.63 6.26-6.01 14.29-9.92 22.58-12.28 7.5-2.12 15.06-4.45 21.83-8.39 1.57-.84 2.85-2.08 4.03-3.39-1.97.67-3.89 1.48-5.81 2.29-1.35-3.45-3.67-7.16-7.64-7.77-3.65-.41-6.98 1.5-10.29 2.73 2.91-4.15 7.54-7.02 12.62-7.55-5.12-4.41-11.6-7.33-18.44-7.32 8.4-5.39 19.79-5.36 28.03.34 1.45-6.68 3.01-14.03 8.32-18.81-.75 3.39-2.38 6.69-1.99 10.24.39 6.5 7.11 12.36 13.68 10.85 2.69-.59 4.95-2.29 7.29-3.65-1.58 2.97-3.5 5.73-5.14 8.67 10.94-11.13 13.95-27.7 13.22-42.77-.15-15.02-6.18-29.44-15-41.4-10.75-14.57-24.95-26.41-40.6-35.42-12.25-6.66-25.64-13.06-34-24.67z" fill="#949ba1"/><path d="m273.05 61.04c10.12-11.85 21.96-22.82 36.29-29.32-7.99 9.58-14.79 20.2-19.3 31.88-5.56-1.47-11.28-2.14-16.99-2.56z" fill="#949ba1"/><path d="m266.77 70.72c7.09-1.11 14.27-1.39 21.44-1.61-.87 3.01-1.69 6.04-2.35 9.1-4.6-2.62-9.46-4.97-14.69-6.01-1.52-.34-3.1-.58-4.4-1.48z" fill="#949ba1"/><path d="m317.17 186.92c1.9-1.17 3.98-2.01 5.98-2.99 6.29 3.95 12.69 8.08 17.35 13.97-7.32-.06-14.65.29-21.92 1.19.97-4.13.74-8.46-1.41-12.17z" fill="#949ba1"/><path d="m318.15 200.28c7.97-.16 15.95-.44 23.93-.42 1.67 2.59 2.99 5.4 4.02 8.31-3.32-2.07-6.66-4.1-10.05-6.05 3.72 10.21 4.73 21.25 4.16 32.05-2.3-5.44-6.18-10.8-12.26-12.2.93.8 1.88 1.58 2.86 2.34.62 1.95 1.18 3.92 1.73 5.9-5.47-3.12-12.15-2.93-17.84-.53-9.47 3.56-17.25 10.2-25.7 15.51 6.53-7.76 10.83-17.06 13.46-26.79 6.42-4.86 12.39-10.63 15.69-18.12z" fill="#949ba1"/><path d="m174.61 221.49c3.21-.97 6.4-1.99 9.54-3.15.39 4.37.53 9.03 2.95 12.86.69-4.17.53-8.73 2.96-12.38-.09 6.84-.46 14.68 4.12 20.29.27-3.17.62-6.34 1.38-9.43 1.32 5.74 2.43 11.58 4.83 17.01 1.59 4.12 4.05 7.81 6.08 11.71-3.68-2.56-6.57-6.02-9.72-9.16-3.6-3.5-4.67-8.63-7.39-12.73-3.53-6.2-8.82-11.15-14.75-15.02z" fill="#949ba1"/><path d="m133.61 240.57c10.44-6.07 21.4-11.19 32.55-15.82 3.81 1.22 7.65 2.63 10.83 5.13 6.27 4.77 10.2 11.9 13.08 19.08 5.58 13.85 6.82 28.95 11.95 42.94 1.91 5.45 4.32 10.72 7.11 15.79-3.47 1.96-7.02 4.37-11.18 4.29-10.05.02-20.15-4.25-30.14-1.38-8.76 2.64-13.82 12.58-12.03 21.34 2.56 14.98 15.99 26.28 30.5 29.13-4.71 7.55-5.6 17.03-2.81 25.44.31-8.95 2.32-18.28 8.68-24.98 4.72-.08 9.53-.48 13.95-2.28 6.2-2.32 11.24-6.78 16.07-11.17 1.6 17.5 13.9 31.98 28.44 40.85-1.31 3.72-2.84 7.4-5.04 10.7-6.94 10.59-16.8 19.55-28.64 24.27-10.2 4.01-22.54 4.12-31.98-1.9-8.27-5.56-12.48-15.05-16.02-24-5.14-13.51-8.85-27.52-13.67-41.14-5-14.07-10.88-27.88-18.4-40.81-2.7-4.51-5.32-9.1-8.77-13.1 5.13 10.73 9.84 21.66 14.2 32.73 1.62 3.23-.86 6.48-2.13 9.37-8.36 14.93-20.78 26.97-32.59 39.12-3.2.25-6.41.34-9.62.31-22.15-.04-44.29.05-66.44-.05l-.31 1.57c-.72-1.7-.47-3 .76-3.9 22.31-16.06 43.54-33.87 61.63-54.64 9.56-11.12 18.33-23.1 24.57-36.42 1.69-3.36 2.34-7.27 4.81-10.19.94-10.87 1.91-21.87 5.63-32.21 1.17-2.93 1.89-6.58 5.01-8.07z" fill="#949ba1"/><path d="m271.2 263.21c6.03-4.77 12.34-9.21 18.63-13.65 4.41 1.81 8.57 4.79 10.42 9.33 3.44 8.12 1.97 17.39-.75 25.5-2.43 6.71-4.83 13.57-4.92 20.79-6.31-3.23-13.68-4.79-20.67-3.05-3.99.74-7.47 2.9-10.91 4.94-3.81-2.99-7.66-5.95-12.01-8.14-.04-6.03.85-12.14 3.49-17.62 1.25-3.22 4.94-4.19 7.19-6.56 3.91-3.21 6.46-7.62 9.53-11.54z" fill="#949ba1"/><path d="m197.03 254.44c8.03 8.65 16.81 17.29 28.12 21.42 5.71 1.67 10.46 5.79 16.57 6.26-1.01 2.6-1.55 5.36-1.49 8.16 1.36-2.73 2.4-5.61 3.83-8.31 1.57-.06 3.15-.08 4.72-.09.07.1.19.28.26.38-1.46 4.89-2.52 9.93-2.09 15.07-3.4-.95-6.91-1.36-10.42-1.52-1.16-2.14-2.54-5.52-5.58-4.81-4.3 1.25-5.31 6.76-9.12 8.28-1.12-.66-2.21-1.33-3.23-2.11-1.72-4.85-1.97-11.03-6.64-14.16-2.55-1.67-5.31.28-7.64 1.36-2.27-10.01-4.28-20.1-7.29-29.93z" fill="#949ba1"/><path d="m122.85 28.03c17.02 8.73 32.93 20.11 45.41 34.71 8.88 10.53 15.77 23.36 16.81 37.29.76 11.11.16 22.59-3.85 33.07-2.42 3.03-6.39 4.81-10.2 5.34-4.92.53-9.12-3.72-9.96-8.32-.88-4.07.35-8.16 1.57-12.01-3.37 1.54-6.83 3.39-8.94 6.57-2.64 3.6-3.23 8.17-3.22 12.52-4.47-3.14-9.83-5.52-15.41-4.99-6.12.55-11.57 4.02-15.69 8.43 6.79.52 13.42 2.3 19.67 4.99-3 1.31-6.25 2.38-8.6 4.77-2.02 1.93-3.28 4.47-4.54 6.92 4.25-1.81 8.9-3.97 13.62-2.66 2.6.71 3.97 3.14 5.25 5.29-10.53 4.21-22.32 5.18-32.02 11.39-7.07-9.96-11.58-22.03-11.09-34.36.34-17.68 7.82-34.15 15.51-49.73 8.4-18.22 13.11-39.89 5.68-59.22z" fill="#f7b5a5"/><path d="m298.59 65.61c2.79-.88 5.61-1.97 8.57-2.02 1.9 1.42 3.76 2.9 5.64 4.33 15.2 14.06 23.93 34.43 24.58 55.03.22 8.38.09 17.92-5.78 24.56-4.38 4.79-11.53 4.86-17.36 3.23 2.31-14.44.88-30.65-9.08-42.11-.31-3.53-1.75-6.76-3.81-9.61 1.72 1.01 3.38 2.1 5.06 3.17-1.36-4.83-3.6-10.08-8.47-12.26-2.72-1.51-5.86-.36-8.77-.89.07-2.01.18-4.02.31-6.02 1.57.57 3.13 1.14 4.73 1.67-1.38-1.41-2.86-2.7-4.4-3.93.49-3.88 1.25-7.71 2.23-11.49 5.76.31 11.52.76 17.25 1.53-3.26-2.37-7.45-2.87-10.7-5.19z" fill="#f7b5a5"/><path d="m123.22 38.74c1.04 6.19.99 12.53-.23 18.69.26-6.22.72-12.46.23-18.69z" fill="#111112" opacity=".52"/><path d="m122.06 62.16c-.59-1.48-.36-3.16.88-4.24.6 1.48.37 3.17-.88 4.24z" fill="#1c1d1d" opacity=".56"/><path d="m305.63 60.7c5.12-1.23 10.51-1.07 15.6.23-5.2-.26-10.4-.31-15.6-.23z" fill="#161618" opacity=".73"/><path d="m252.71 61.87c4.78-.93 9.65-1.02 14.5-.95-4.74 1.15-9.66.92-14.5.95z" fill="#121314" opacity=".74"/><path d="m292.7 64.21c.31-.29.91-.86 1.21-1.15.04.44.11 1.33.15 1.78-.34-.16-1.02-.47-1.36-.63z" fill="#2f3031" opacity=".76"/><g fill="#d2891d"><path d="m307.16 63.59c8.52-1.43 18.01.65 24.08 7.11 11.77 12.03 15.69 28.95 23.76 43.25 2.64 4.42 5.5 8.88 9.58 12.13-1.77-3.63-3.62-7.22-5.15-10.95 7.14-.65 14.1-2.92 20.35-6.42 1.52-.85 3.06-1.71 4.79-2.09-2.39 3.1-6.06 4.72-9.57 6.22 15.46-3.01 31.71-4.82 47.2-1.13-13.43-1.1-27.43-1.06-40 4.45l.2.54c2.15-.46 4.34-1.58 6.57-.91 17.59 4.89 32.49 18 39.8 34.71-2.03.68-3.88 1.79-5.12 3.57 1.94-.46 4.02-2.37 5.98-.94 2.14 1.76 2.67 4.64 3.64 7.11-11.96.45-23.95.73-35.83 2.37.15-4.52-.11-9.19-2.22-13.29 5.47-3.98 8.34-10.8 7.39-17.5-1.2 5.93-2.76 12.3-7.71 16.28-1.48-.65-2.87-1.47-4.29-2.22 2.07-4.13 1.43-8.86-.26-13 .25 4.18 1.19 8.7-.96 12.57-8.73 3.47-13.43 12.46-16.02 20.99-5.86 1.14-11.62 2.7-17.41 4.13-1.28-.56-2.57-1.07-3.89-1.49.71.32 2.12.94 2.83 1.26-1.2.77-2.47 1.43-3.85 1.79-8.88 2.64-17.58 5.88-26.01 9.74-4.68-3.4-11.62-5.83-12.52-12.34-.5-5.83 1.07-11.57 1.59-17.35 4.82 1.77 10.41 2.67 15.14.1 6.7-3.48 9.27-11.37 10.08-18.4 2.01-19.3-3.16-39.51-15.2-54.87-3.35-4.09-6.68-8.39-11.33-11.09-1.88-1.43-3.74-2.91-5.64-4.33m61.72 69.62c3.85-3.98 7.88-7.83 13.04-10.07-5.68.96-10.73 4.77-13.04 10.07m14.31-6.97c-7.34 3.82-12.46 11.03-14.96 18.79 4.64-8.3 11.9-16.08 21.66-17.75 3.77-.81 6.83 1.78 8.96 4.55-.6-2.07-.88-4.54-2.81-5.86-3.83-2.59-8.96-1.75-12.85.27z"/><path d="m407.32 94.51c4.6-5.44 10.35-10.56 17.52-12.05 7.91-1.61 15.61 3.52 19.71 9.98 5.55 9.11 6.61 20.34 5.06 30.72-1.87 11.68-7.5 23.01-16.55 30.75-4.2-14.49-13.88-27.7-27.62-34.38-4.28-2.41-9.16-3.31-13.66-5.17 14.24-2.24 29.06-2.5 43.09 1.19-11.69-6.5-25.58-8.23-38.78-7.29-1.05.15-2.05-.28-3.02-.57.4.02 1.2.07 1.6.09 4.4-4.25 8.75-8.55 12.65-13.27z"/><path d="m397.35 164.31c9.4-.96 18.82-2.26 28.28-2.3 1.44.65 2.85 1.37 4.28 2.08-.65 1.61-1.4 3.17-2.19 4.71-6.33 2-9.18 8.59-11.76 14.13-2.14 6.49-6.7 12.71-5.24 19.89-5.3 1.08-10.52.23-15.75-.73-2.27-4-5.38-7.45-9.11-10.12 7.12-7.4 10.31-17.66 11.49-27.66z"/><path d="m358.74 172.04c4.58-1.39 9.31-2.21 13.91-3.57.16.68.48 2.05.64 2.73l-.16.65c-.27.24-.82.71-1.09.94-.14 4.99-.59 10.05.52 14.96-.55-.01-1.65-.03-2.2-.04-.74-6.97-5.94-12.16-11.62-15.67z"/><path d="m326.58 182.52c10.05-3.9 20.29-7.22 30.63-10.27 4.61 3.24 9.01 7.78 9.63 13.65.47 3.7-1.12 7.17-2.94 10.27-8.98-3.4-18.33-5.94-27.86-7.18-3.4-1.74-6.35-4.26-9.46-6.47z"/><path d="m336.66 189.71c8.91 2.34 18.22 3.9 26.52 8.04-6.53.77-13.12-.19-19.67-.06-2.06-2.85-4.53-5.35-6.85-7.98z"/><path d="m340.66 210.2c.96-.07 2.87-.2 3.82-.26-.84 10.27 1.91 21.01 8.28 29.21.88 1.16 1.68 2.39 2.4 3.68-4.85-2.67-9.46-5.81-13.43-9.69 1.75-7.6 1.12-15.5-1.07-22.94z"/><path d="m427.25 212.77c2.3.04 4.59.09 6.89.16 1.52 4 1.6 8.77-1.21 12.24-3.25-.5-6.15-2.36-9.29-3.34 2.12-2.59 3.63-5.64 3.61-9.06z"/><path d="m414.21 225.45c3.07-.48 5.98-1.59 8.69-3.09 2.95 1.54 6.01 2.86 9.09 4.12-4.72 4.91-11.18 7.41-17.21 10.25-5.59 2.44-11.17 4.94-16.94 6.92 2.98-2.66 6.58-4.56 9.32-7.51 3.06-3.03 5.28-6.78 7.05-10.69z"/><path d="m334.19 227.95c2.62 3.24 4.45 7.02 5.67 10.99.4-.69.78-1.39 1.16-2.09 2.41 2.42 5.04 4.6 7.8 6.59-11.81 14.58-15.57 34.19-14.13 52.55.68 6.41 1.66 13.31 5.77 18.54 3.48 3.97 9.46 2.06 13.82 4.17 2.58 1.33 2.83 5.46.61 7.24-2.78 2.33-6.66 2.24-10.08 2.49-2.93-2.6-6.62.41-9.02 2.32-3.98 4.06-7.26 8.81-11.96 12.15-1.95-1.26-3.75-2.74-5.27-4.49 1.94-2.73 2.75-5.98 3.28-9.24-2.3 1.13-4.6 2.27-6.87 3.46-1.18-2.11-2.31-4.24-3.38-6.4.37-.54 1.12-1.61 1.5-2.15-.86.26-1.71.53-2.56.79-.59-1.18-1.17-2.35-1.75-3.52 3.44-2.57 5.66-6.37 6.3-10.62.47.52 1.41 1.55 1.88 2.06-3.98-9.19-6.27-19.28-6.74-29.25 1.66-5.41.27-11.06.75-16.59.33-3.52.15-7.06-.77-10.47.21-7.59 1.62-15.26 3.64-22.58 6.09-3.58 14.84-5.19 20.44.21-.05-2.06-.1-4.11-.09-6.16z"/><path d="m410.51 241.25c5.6-1.9 10.95-4.44 16.33-6.9.11 13.95 7.98 26.62 7.39 40.66 0 5.52-2.38 11.3-7.26 14.23-7.01 4.31-15.8 3.33-23.43 1.39-6.41-1.84-12.87-4.12-18.56-7.6 4.88-4.55 8.68-10.03 12.78-15.26 3.03-4.11 8-5.97 12.76-7.23 4.11-.24 7.81 1.89 11.48 3.44-2.03-2.56-4.91-4.19-8.11-4.81 2.71-2.12 5.7-5.42 4.34-9.14-.84-3.11-3.94-4.48-6.72-5.39-.29-1.09-.64-2.17-.96-3.25z"/><path d="m395.66 253.98c3.84-4.19 9.53-7.35 15.36-6.14 3.28.59 5.72 4.58 3.35 7.45-3.87 4.47-10.63 4.21-15.01 7.97-5.63 4.8-8.89 11.76-14.57 16.51-4.98 4.29-11.58 7.8-18.34 6.55-2.46-.37-4.56-3.44-2.74-5.62 3.41-4.49 9.89-5.67 12.55-10.94-4.69 3.69-10.8 5.24-15 9.54-1.93 1.71-1.53 4.38-1.27 6.65-2.71.75-5.69 1.75-8.43.56-2.04-.7-3.55-3.26-2.39-5.29 1.8-2.72 5-3.92 7.77-5.38 3.76-1.81 7.14-4.52 9.25-8.16-3.26 1.99-6.32 4.33-9.87 5.8-3.31 1.39-6.5 3.13-9.09 5.65-1.04-.99-3.17-2.27-2-3.94 2.07-3.42 6.23-4.56 9.48-6.54 6.48-3.15 10.64-9.97 17.78-11.91 2.5-.75 5 .19 7.3 1.14-.97 1.97-1.9 3.97-2.7 6.01 3.6-4.28 7.21-10.06 13.21-10.74 1.56.33 3.13.79 4.75.8.15.01.46.02.61.03z"/><path d="m401.04 293.43c8.31 2.68 17.59 4.65 26.02 1.32 11.23 9.87 19.9 23.94 20 39.25-.11 13-6.78 24.79-14.18 35.05-9.65 13.07-21.43 24.42-34.05 34.59 1.96-.89 3.98-2.2 6.23-1.49 7.25 1.15 14.77 2.6 21.01 6.68 3.17 2.04 5.74 5.94 4.46 9.81-1.46 4.05-5.89 5.56-9.62 6.77 1.78-6.2-3.3-11.37-9.02-12.52 3 2.64 7 5.73 6.08 10.28-.78 4.11-5.37 5.64-9.03 5.91-11.96.9-24.1-4-32.37-12.63-3.32-3.18-6.05-7.66-5.06-12.43 1.49-7.32 6.57-13.11 9.98-19.56 3.95-7.31 8.49-14.85 8.89-23.36-.47.68-.92 1.38-1.36 2.08-2.12-.33-4.29-.62-6.37.01 1.94.63 3.92 1.17 5.88 1.75-2.77 7.28-6.69 14.06-10.89 20.6-3.97 6.18-9.33 11.78-10.91 19.18-9.83 9.3-23.12 15.25-36.75 15.09-5.22-.22-10.96-1.09-14.87-4.86-2.35-2.12-2.54-6.01-.53-8.42 2.72-3.69 7.38-4.82 11.47-6.26-6.68-.09-14.64 2.98-16.46 10.09-2.59-1.52-5.45-4.24-4.64-7.5 6.93-1.17 13.96-2.9 19.57-7.41 10.98.62 22.75.13 32.51-5.61 4.2-2.42 7.14-6.39 9.27-10.65 3.84-2.34 8.25-4.12 10.94-7.96 2.98-3.64 4.11-8.41 3.82-13.05 8.63 1.8 18.22 1.43 25.97-3.16 7.39-4.35 11.8-12.66 12.7-21.03.75-7.67-2.08-15.18-5.95-21.66-3.81-6.59-8.98-12.27-12.74-18.9z"/></g><path d="m261.98 75.97c1.24-.75 2.5-1.51 3.75-2.26l.8-.47c7.05 2.07 14.37 3.76 20.71 7.62-6.39-1.62-12.72-3.61-19.35-3.94.24-.42.71-1.25.94-1.67-2.28.25-4.57.49-6.85.72z" fill="#9da5ab"/><path d="m265.92 79.53c6.47.11 12.93.96 19.23 2.43-.09 1.52-.18 3.03-.26 4.54-6.14-2.82-12.53-4.95-18.97-6.97z" fill="#9da5ab"/><path d="m407.07 91.14c-.81-2.01 1.14-3.43 2.99-3.26-.6 1.41-1.65 2.54-2.99 3.26z" fill="#151516" opacity=".29"/><path d="m239.43 103.51c3-2.42 6.23.67 8.23 2.86 7.87 9.32 11.28 21.65 12.06 33.63.52 13.14-.81 26.8-6.77 38.71-1.43-.56-2.86-1.11-4.29-1.65 3.08-9.02 4.05-18.8 2.61-28.23-.78-4.49-2.17-9.28-5.78-12.33-3.4-2.93-9-2.19-11.87 1.15-4.62 5.14-5.05 12.39-5.73 18.93-2.11-9.69-1.79-19.81-.35-29.57 1.64-8.63 4.58-18.02 11.89-23.5z" fill="#fde692"/><path d="m292.38 124.35c.73-1.34 1.15-3.37 2.91-3.69 2.67 1.7 4.29 4.58 5.71 7.33 5.19 10.57 5.96 22.69 4.94 34.25l-.18-.13c-1.1-.79-2.19-1.58-3.28-2.37-.47-3.71-1-7.8-3.67-10.64-1.68-1.85-4.7-1.47-6.49-.01-2.14 1.88-3.31 4.55-4.77 6.93.28-10.68 1.12-21.56 4.83-31.67z" fill="#fde692"/><path d="m384.57 106.62c.43-.57.43-.57 0 0z" fill="#da9020"/><path d="m454.41 111.4c.78 3.24.52 6.56-.26 9.77-.01-3.26.04-6.52.26-9.77z" fill="#191919" opacity=".36"/><path d="m94.04 140.6c-.13-3.02.05-6.06.66-9.03.22 3.03 0 6.07-.66 9.03z" fill="#161617" opacity=".78"/><path d="m233.62 137.65c2.87-3.34 8.47-4.08 11.87-1.15 3.61 3.05 5 7.84 5.78 12.33 1.44 9.43.47 19.21-2.61 28.23-1.9-.36-3.8-.7-5.71-1.01 3.52-6.96 3.75-15.37 1.66-22.79-.75-3.13-4.15-6.35-7.37-4.08-4.69 3.19-4.68 9.57-4.65 14.66-1.74-2.29-5.4-3.9-4.7-7.26.68-6.54 1.11-13.79 5.73-18.93z" fill="#79be42"/><path d="m292.32 149.09c1.79-1.46 4.81-1.84 6.49.01 2.67 2.84 3.2 6.93 3.67 10.64.38 8.08-.97 16.3-4.65 23.56-1.12.25-2.23.51-3.34.78 3.32-5.75 3.35-12.75 2.12-19.09-.54-2.09-1.29-4.64-3.6-5.36-2.91.26-3.81 3.43-5.1 5.53-.17-3.05-.26-6.1-.36-9.14 1.46-2.38 2.63-5.05 4.77-6.93z" fill="#79be42"/><path d="m384.51 150.44c2.07-1.71 5.57-3.04 7.72-.72 3.13 3.55 2.97 8.66 3.14 13.11-6.91.79-13.79 1.89-20.59 3.33 2.14-5.78 4.87-11.71 9.73-15.72z" fill="#fff"/><path d="m436.31 161.48c1.43 0 2.88 0 4.32.01-.39.59-.77 1.19-1.15 1.78-.67.73-2.01 2.19-2.68 2.92-.17-1.58-.33-3.14-.49-4.71z" fill="#fff"/><path d="m374.56 168.4c6.8-1.76 13.79-2.64 20.72-3.73-.88 9.61-3.78 19.39-10.34 26.7-2.27-1.11-4.6-2.09-7.03-2.74 3.61-3.95 5.35-9.51 4.76-14.81-.27-1.92-1.53-4.29-3.76-4.13-3.2 1.08-4.32 4.6-5.58 7.38-.07-1.74-.17-3.48-.2-5.22l.16-.65c.41-.94.84-1.88 1.27-2.8z" fill="#fff"/><path d="m423.74 172.77c1.07-1.08 2.48-2.48 4.16-1.8 1.7 2.73.71 6.1.16 9.04-1.71 8.03-5.87 15.19-10.16 22.08-.23.18-.68.54-.91.72l-.66.41c2.43-4.98 5.27-10.44 3.79-16.16-.44-2.14-2.4-2.76-4.3-1.58 2.52-4.3 4.49-9.02 7.92-12.71z" fill="#fff"/><path d="m237.89 178.82c7.45.36 15.02 2.05 21.3 6.25-.49 1.56-1.53 3.24-.76 4.89 1.05 3.08 4.31 4.32 7 5.58 3.44 1.53 6.63 3.62 9.2 6.39 5.62-1.82 11.9-3.95 15.21-9.21 1.31-1.72.74-3.8.03-5.62 7.41-1.48 15.78-3.38 22.7.76-3.88 2.26-7.77 4.52-11.51 7 4.05-1.98 7.98-4.19 11.99-6.23 2.87 2.82 2.41 7.28 1.37 10.81-4.86.54-9.73 1.09-14.51 2.1 4.72-.05 9.41-.72 14.14-.77-5.41 10.14-15.17 17.81-26.19 20.95-5.33 1.62-11.54.94-15.55-3.22 1.39-1.82 2.79-3.64 3.83-5.69-6.83 6.73-16.01 12.76-26.08 10.82-7.68-1.96-12.02-9.29-16.17-15.41 7.39-.56 14.84-1.4 22.26-.84.39-.31 1.17-.92 1.56-1.23-8.1 1.16-16.3-.1-24.42.94-2.47-3.97-4.88-8.04-8.2-11.38 2.91-.78 5.6-2.2 7.91-4.13 6.33 1.75 12.66 3.47 18.99 5.19-5.98-2.31-12.01-4.52-18.2-6.22 2.51-3.42 3.65-7.56 4.1-11.73z" fill="#fff"/><path d="m267.45 183.63c5.16-1.15 10.7-.58 15.65 1.26 1.59.72 3.96 1.93 3.57 4.01-2.06 3.1-6.34 2.65-9.59 2.6-4.31-.57-9.3-.87-12.55-4.11-1.43-1.83 1.42-3.36 2.92-3.76z" fill="#fff"/><path d="m193.72 196.59c.75-1.06 1.51-2.78 3.17-2.01 4.69.66 9.4 1.13 14.09 1.69 3.21 3.29 4.26 8.2 5.71 12.47-9.97 1.16-19.82 3.29-29.45 6.08 1.25-6.34 2.82-12.81 6.48-18.23z" fill="#fff"/><path d="m394.4 204.34c4.19-.13 9.3.07 12.17 3.58-1.16 1.83-3.65 1.07-5.38.79-2.59-.73-5.89-1.42-6.79-4.37z" fill="#fff"/><path d="m219.78 210.04c3.69-.59 7.41-1.07 11.12-1.6.2.56.35 1.14.46 1.73-3.56.56-7.12 1.29-10.72 1.54-.22-.42-.65-1.25-.86-1.67z" fill="#fff"/><path d="m191.07 216.39c8.6-2.38 17.32-4.38 26.11-5.94 3.21 12.82 2.8 26.76 9.59 38.51 3.82 7.35 11.36 12.13 19.29 13.91 5.98 1.24 11.72-1.89 16.11-5.66 9.14-8.73 10.78-22.47 19.72-31.36 6.84.05 13.19-2.96 18.92-6.42-3.47 10.63-9.2 20.47-16.56 28.88-2.88 3.19-6.72 5.28-9.8 8.27l2.65-7.16c-4.22 6.55-7.88 13.69-13.89 18.88-7.32 7.09-18.66 10.88-28.41 6.78-11.13-4.6-18.11-15.13-23.69-25.28 1.64 6.57 5.6 12.18 8.9 17.99-3.56-2.3-7.94-3.94-10.13-7.81-6.63-10.34-11.44-21.88-13.85-33.94-2.26 2.2-1.9 6.23-2.69 9.25-1.3-6.22-2.35-12.53-2.27-18.9z" fill="#fff"/><path d="m186.34 224.91c.4-3.06-.94-7.95 3.47-8.48-1.53 2.66-2.86 5.45-3.47 8.48z" fill="#fff"/><path d="m217.7 306.7c9.16-5.92 21.13-7.56 31.39-3.64 9.99 3.61 18.22 10.61 25.68 17.97-2.76-4.62-6.49-8.54-10.27-12.32 11.83-5.32 27.71-2.8 35.78 7.87 6.46 7.84 9.71 17.97 17.11 25.09 4.12 3.94 10.02 5.07 15.54 4.73 10.46-.35 21.04-3.51 31.45-1.07 7.46 1.7 12.99 9.11 12.74 16.71-.45 6.35-5.3 11.17-10.27 14.58 1.03-5.94-.17-12.57-4.44-17.05-4.72-5.06-11.78-6.87-18.39-7.81-17-2.26-34.12 1.37-51.15-.41 2.33 1.88 5.4 2.24 8.24 2.81 15.57 2.72 31.62-1.66 47.02 2.6 4.94 1.33 10 4.14 12.08 9.06 2.62 6.18 1.09 13.94-4.2 18.23-8.12 6.8-19.1 8.53-29.35 9.23 3.97-4.69 6.04-11.25 3.97-17.23-2.04-7.19-8.77-11.9-15.72-13.72-10.68-2.86-21.99-2.19-32.78-.28 10.07-.11 20.35.14 29.96 3.54 4.67 1.64 9.51 4.11 12.02 8.59 2.79 5.76 1.34 13.24-3.42 17.53-4.79 4.35-11.37 6.08-17.69 6.46-12.76.7-25.33-2.7-37.12-7.3-13.14-5.22-25.57-13.36-33.62-25.2-3.99-5.85-6.71-12.58-7.64-19.61 2.43-2.06 4.74-4.28 7.39-6.07 2.06-1.45 4.63-2.12 6.38-4.01-9.64.83-16.6 8.21-23.89 13.73-7.18 5.45-16.53 7.53-25.41 6.52-9.02-1.14-17.19-6.48-22.58-13.7-3.24-4.49-5.67-9.89-5.42-15.53.09-6.46 5.37-12.56 11.91-13.08 8.77-.91 17.31 2.44 26.06 2.06 7.22-.54 12.75-5.66 18.64-9.28z" fill="#fff"/><path d="m302.48 159.74c1.09.79 2.18 1.58 3.28 2.37-.71 6.48-2.36 12.84-4.7 18.91-.25 1.67-1.78 2.15-3.23 2.28 3.68-7.26 5.03-15.48 4.65-23.56z" fill="#f2ec9c"/><path d="m448.46 161.61c1.22-.25 2.44-.5 3.67-.74 2.67.03 5.33.28 7.99.59-3.86.6-7.78.64-11.66.15z" fill="#1d1d1e" opacity=".35"/><path d="m425.63 162.01c2.53 0 5.11.31 7.6-.34.21 2.35.35 4.71.48 7.07-1.51.55-4.59 3.81-5 .76 1.26-2.35 2.57-4.72 2.96-7.4-.44.5-1.32 1.49-1.76 1.99-1.43-.71-2.84-1.43-4.28-2.08z" fill="#f29d21"/><path d="m430.24 172.13c1.12-.58 2.24-1.17 3.38-1.75-1.65 11.53-6.82 22.16-13.17 31.8 2.89 4.74 9.44 4.53 12.71 8.89-2.82-.53-6.05-.94-7.89-3.42-2.12-2.67-5.3-4.14-8.62-4.58l.34-.26c.23-.18.68-.54.91-.72 3.62-2.99 5.69-7.35 7.82-11.43 2.64-5.79 5.22-12.03 4.52-18.53z" fill="#fda421"/><path d="m232.66 179.8c-.77-1.83-.96-3.87.04-5.65 1.24 1.48 1.19 4.16-.04 5.65z" fill="#acb5bb"/><path d="m104.9 182.44c-1.3 1.3-4.36.42-2.41-1.45.61.37 1.81 1.09 2.41 1.45z" fill="#1b1b1d" opacity=".56"/><path d="m107.66 181.74c2.57-.53 5.18-.7 7.8-.75-.63.49-1.27.96-1.91 1.43-1.96-.28-3.92-.56-5.89-.68z" fill="#18191a" opacity=".56"/><path d="m370.28 189.02c8.69 1.57 17.31 5.49 22.67 12.77-4.35-.64-8.67-1.38-13.03-1.88-4.32-.59-8.81-.52-12.83-2.41 1.51-2.64 2.56-5.51 3.19-8.48z" fill="#ffe3c0"/><path d="m361.45 201.92c3.24-2.03 7.11-.77 10.67-.68 3.38.17 6.17 2.33 9.22 3.53-.9-.76-2.71-2.28-3.62-3.04 4.57.45 9.13 1.09 13.7 1.6 2.23 3.02 4.86 6.03 5.14 9.96 4.1-.29 9.83.12 11.93-4.3-.42-1.14-.91-2.24-1.47-3.31 3.99 1.17 8.09 1.91 12.16 2.76-.09-.35-.27-1.05-.36-1.4-3.7-.42-7.32-1.42-10.84-2.64 5.94.18 14.19.71 15.87 7.75-3.95.1-7.9.16-11.85.29 4.07.31 8.15.36 12.24.29-.21 3.13-1.45 6.35-4.29 7.97-2.28-.72-4.42-1.83-6.76-2.37 2.03.96 4.33 1.57 5.93 3.25-8.28 2.96-18.08 1.96-25.07-3.56.71-.89 1.41-1.79 2.11-2.69-3.68 2.22-7.83 3.8-12.19 3.63-6.81.24-12.85-3.97-16.99-9.05 4.02.3 8.04.59 12.07.75-4.17-1.18-8.51-1.08-12.74-1.73-1.99-2.07-3.35-4.61-4.86-7.01z" fill="#ffe3c0"/><path d="m345.7 201.87c4.32 1.38 8.93 2.03 13.42 1.07.77 1.8 1.49 3.62 2.19 5.46-4.54-.16-9.08-.07-13.59.44-.52-2.37-1.19-4.7-2.02-6.97z" fill="#ffe3c0"/><path d="m347.92 209.85c4.49-.21 8.98-.26 13.47-.31 2.07 8.61.17 17.93 3.94 26.16 2.84 6.69 11.35 10.48 18.13 7.75 8.4-4.1 11.53-14.2 19.63-18.68 3.33.22 6.62.98 9.98.84-5.3 10.47-15.24 18.2-26.25 21.9 1.38-1.82 2.87-3.59 4.01-5.58-3.26 2.86-6.39 6.15-10.69 7.4-5.86 2.05-13.01.26-16.88-4.68-2.3-2.79-2.78-6.48-3.99-9.78-.24 3.67.61 7.25 1.92 10.65-3.68-1.39-5.8-4.85-7.93-7.93-5.27-8.04-7.47-17.65-8.1-27.14.7.27 2.08.82 2.78 1.09z" fill="#ffe3c0"/><path d="m349.32 200.2c1.74-.88 3.9-.49 5.75-.12 1.54.81-1.55 1.1-1.98 1.04-1.09-.18-3.38.4-3.77-.92z" fill="#61400f"/><path d="m363.08 209.41c1.38-.41 1.87.08 1.46 1.48-1.4.42-1.89-.08-1.46-1.48z" fill="#5e5e5e"/><path d="m427.4 210.88c3.01-1.53.17 3.33 0 0z" fill="#bd7c1a"/><path d="m111.01 221.85c1.76-1.58 4.23-1.68 6-.05-1.98.45-4.02.44-6 .05z" fill="#1d1d1f" opacity=".89"/><path d="m364.71 222.86c3.1.08 6.6.17 8.86 2.64 3.08 2.71 3.51 6.94 4.1 10.74.65-2.24.61-4.59.46-6.89 2.54 1.34 5.26 3.51 5.15 6.7-.13 1.86.16 4.8-2.12 5.44-4.85.46-10.25-1.37-13.02-5.56-2.57-3.84-2.99-8.6-3.43-13.07z" fill="#ef5b5d"/><path d="m223.65 229.78c3.77-2.71 9.4-3.38 13.97-2.21 6.97 2.53 10.2 9.88 11.95 16.56.42-3.25-.37-6.43-1.28-9.51 2.69-.79 5.86-1.06 8.08 1.02 6.59 5.42 6.47 17.13-.75 21.97-6.25 4.22-14.92 1.7-19.91-3.35-4.8-4.78-5.96-11.81-6.29-18.29-.45 4.23-.3 8.51.63 12.68-3.65-5.63-5.16-12.37-6.4-18.87z" fill="#ef5b5d"/><path d="m148.06 225.97c3.93-1.3 8.09-1.81 12.22-1.81-9.09 4.56-18.26 9.02-26.92 14.4 3.32-5.65 8.42-10.45 14.7-12.59z" fill="#939aa0"/><path d="m387.59 248.66c7.63-2.48 15.4-4.54 22.96-7.27.32 1.08.67 2.16.96 3.25-4.71-.22-9.34 1.29-12.69 4.67-.67-.88-1.33-1.75-1.99-2.62.05.93.14 2.8.18 3.74-3.36-.68-6.78-.45-10.07.45.16-.56.49-1.66.65-2.22z" fill="#e5951e"/><path d="m346.24 252.06c1.4-2.62 2.86-5.21 4.4-7.76 4.09 2.43 8.72 3.51 13.19 4.93 3.35 2.09 6.99 4.29 11.12 3.87 4.17.12 7.6-2.39 10.95-4.5.04.74.11 2.24.14 2.99-2.04 1.48-3.86 3.24-5.48 5.17-2.89-2.09-6.66-3.66-10.21-2.33-5.7 2.13-8.97 7.68-13.98 10.85-3.69 2.56-7.97 4.04-11.8 6.34-2.25 1.2-3.38 3.96-2.54 6.39.81 1.45 2.34 2.28 3.61 3.28-.47 2.65.32 5.67 2.74 7.15 3.94 2.72 9.04 1.11 12.75-1.24 6.77 4.97 15.63 1.02 21.86-2.98 4.55 3.38 9.68 5.86 14.92 8 2.51.85 2.88 3.91 4.32 5.82 5.13 8.12 11.9 15.5 14.41 25 3.43 11.55-1.56 25.44-12.3 31.28-7.16 3.86-15.61 3.87-23.45 2.58-1.58-5.29-4.59-10.52-9.69-13.07-6.02-3.23-13.02-2.5-19.58-2.35-2.55-3.14-4.03-6.96-5.72-10.59 4.01-.3 8.52-.37 11.7-3.17 2.88-2.55 2.92-7.77-.36-10.01-4.08-2.81-9.39-1.63-13.9-3.18-2.19-1.33-2.79-4.09-3.48-6.37-1.88-8.2-1.79-16.71-1.07-25.05.66-8.84 2.33-17.65 5.54-25.93 1.5-3.61 5.26-5.36 7.8-8.12-2.04.84-3.96 1.96-5.89 3z" fill="#f3c082"/><path d="m116.6 250.05c.1.36.31 1.06.41 1.42-.69 1.21-2.15 2.39-3.6 2.24-.05-1.61 1.84-3 3.19-3.66z" fill="#1a1a1b" opacity=".4"/><path d="m390.3 253.15c1.3-1.08 3.83-1.29 4.89.25l-.14.55c-1.62-.01-3.19-.47-4.75-.8z" fill="#f5a121"/><path d="m122.82 258.97c-.2-1.72.13-3.42.86-4.98.8 1.6 1.26 4.17-.86 4.98z" fill="#18181a" opacity=".69"/><path d="m488.42 256.07c.58-.53 1.17-1.05 1.77-1.56 2.58 2.16 5.38 4.08 7.76 6.49-3.3-1.42-6.23-3.52-9.53-4.93z" fill="#1b1b1c" opacity=".46"/><path d="m310.2 256.48c.92 3.41 1.1 6.95.77 10.47-.48 5.53.91 11.18-.75 16.59-1.22-8.95-1.13-18.11-.02-27.06z" fill="#ef9c20"/><path d="m438.23 270.82c.83 3.42 1.01 6.98-.02 10.38-.01-3.46-.01-6.92.02-10.38z" fill="#171717" opacity=".41"/><path d="m496.76 276.13c.75.03 2.26.09 3.01.12-3.8 1.75-7.93 2.79-11.49 5.03-7.29 4.5-13.19 10.85-18.52 17.47-6.12 7.57-13.01 14.53-20.61 20.63-1.04-2.16-2.07-4.31-3.15-6.43 12.72-7.43 23.05-18.11 33.5-28.31 4.72-4.58 10.94-7.09 17.26-8.51z" fill="#d1881d"/><path d="m248.78 281.88c.07.1.19.28.26.38-.07-.1-.19-.28-.26-.38z" fill="#d1dae3"/><path d="m466.76 294.03c.29-1.74 1.68-2.94 3.44-3-.31 1.72-1.68 2.95-3.44 3z" fill="#171717" opacity=".51"/><path d="m226.17 297.69c1.76-1.85 3.55-4.53 6.4-4.46.88.77 1.66 1.66 2.46 2.53-3 .43-5.96 1.05-8.86 1.93z" fill="#f1f5f7"/><path d="m450.93 325.77c-2.54-1.56-.88-5.2 1.95-4.57-.51.78-1 1.57-1.45 2.39-.12.55-.38 1.64-.5 2.18z" fill="#171718" opacity=".8"/><path d="m451.03 326.78c.82 3.21 1.15 6.53.7 9.83-.28-3.28-.49-6.55-.7-9.83z" fill="#1c1c1d" opacity=".63"/><path d="m340.48 329.93c1.33.65 3.76.21 4.21 2.06 1.24 3.55 2.96 6.9 5.17 9.95-1.57.1-3.13.21-4.68.31-1.82-4-3.7-8.02-4.7-12.32z" fill="#d48a1d"/><path d="m327.78 344.05c.08-.36.23-1.09.31-1.45 3.73.89 7.58.61 11.38.45-3.82.99-7.78.91-11.69 1z" fill="#131315" opacity=".47"/><path d="m424.8 384.82c0-.1 0-.3 0-.4z" fill="#121314" opacity=".48"/><path d="m288.72 402.23c2.93-.02 5.86.18 8.77.61-2.94.09-5.88-.08-8.77-.61z" fill="#19191b" opacity=".65"/><path d="m434.38 414.86c1.21.81 1.3 2.55 0 3.33 0-.83 0-2.5 0-3.33z" fill="#212121" opacity=".35"/><path d="m320.94 423.23c1.71-.87 3.8-.77 5.15.72-1.76.54-3.61.27-5.15-.72z" fill="#19191b" opacity=".57"/></svg>