<svg fill="none" height="36" viewBox="0 0 36 36" width="36" xmlns="http://www.w3.org/2000/svg"><path d="m4.86526 8.09236 3.74475-3.7395c.26416-.2652.57811-.47559.92382-.6191s.71637-.21731 1.09067-.21715c.3749-.00076.7461.07275 1.0924.21629.3463.14353.6607.35424.9251.61996l4.029 4.029c.2653.2641.4759.57802.6195.92373.1436.34572.2176.71641.2175 1.09081 0 .7627-.2992 1.4797-.837 2.0175l-2.946 2.946c.6895 1.5199 1.6482 2.9026 2.8298 4.0815 1.1789 1.1844 2.5618 2.1466 4.0822 2.8402l2.946-2.946c.2642-.2652.5781-.4756.9238-.6191s.7164-.2173 1.0907-.2171c.3749-.0008.7461.0727 1.0924.2162.3463.1436.6607.3543.9251.62l4.0328 4.0253c.2655.2646.4761.5792.6196.9256.1435.3463.2171.7177.2166 1.0926 0 .7628-.2985 1.4805-.8362 2.0175l-3.7373 3.7373c-.8649.8632-2.0367 1.3487-3.2587 1.35-.2565 0-.5025-.021-.7455-.063-4.7393-.78-9.4395-3.3008-13.233-7.0913-3.78979-3.786-6.30754-8.4825-7.09804-13.236-.11604-.7213-.05965-1.4598.16457-2.15516.22421-.69533.60988-1.32769 1.12543-1.84533z" fill="#fff"/></svg>