<svg height="700pt" viewBox="0 0 700 700" width="700pt" xmlns="http://www.w3.org/2000/svg"><path d="m246.52 59.55c14.67-2.61 29.77-2.5 44.51-.42 14.1 1.53 27.85 5.54 40.86 11.14 3.88 1.75 8.07 2.85 11.69 5.14 5.83 3.64 12.4 5.98 17.91 10.16 7.68 4.88 14.24 11.46 22.68 15.14 1.6-.16 2.86-1.42 4.26-2.13 26.4-16.39 58.9-23.28 89.53-17.24.49.18 1.49.55 1.99.73 4.71.19 9.14 2.07 13.57 3.55 20.36 6.91 38.2 20.66 50.59 38.17 10.57 13.47 16.81 29.8 21.07 46.24 2.89 11.85 3.03 24.12 4.62 36.16 1.54 8.28 1.93 16.82 5.03 24.73 1.66 7.73 5 14.9 8.02 22.17 10.22 19.57 23.1 37.58 34.49 56.47 3.73 7.09 8.06 14.01 10.03 21.86 3.36 10.48 4.03 21.6 4.13 32.55-1.11 16.18-5.63 32.38-14.59 46.02-7.85 13.61-17.77 26.86-19.6 42.94-.72 9.94-.78 20.31 3.05 29.69 2.86 10.06 9.48 18.31 14.79 27.13 7.36 13.75 13.43 28.47 15.36 44.03 1.7 8.64 1.11 17.48 1.27 26.22.18 14.85-3.83 29.35-8.49 43.32-2.56 5.13-4.46 10.61-7.56 15.47-.65 1.34-2.42 1.03-3.62 1.18-29.89.01-59.78.01-89.67 0l-.18-.66c-6.17-21.03-13.3-41.78-19.89-62.68-6.55-20.13-12.87-40.33-19.5-60.43-2.96-9.02-5.43-18.39-10.75-26.38-7.73-11.58-18.91-20.99-31.99-25.93-6.72-2.54-13.88-3.67-21.02-4.18-.22-7.34.1-14.7-.31-22.04 10.39-.53 20.79-.02 31.18-.27 18.31-.8 35.86-9.81 47.89-23.53 4-4.23 7.19-9.18 9.42-14.56 6.07-10.31 7.9-22.51 7.74-34.32-.08-46.06-.03-92.13-.12-138.19-12.05-.15-24.15-.58-36.18.29-4.83-4.12-8.95-9-13.99-12.87-16.65-13.28-39.24-19.15-60.16-14.69-13.59 2.54-26.14 9.46-36.11 18.94-2.82 2.78-5.17 6.02-8.22 8.57-4.51-.51-9.05-.52-13.55-.01-8.07-9.36-17.52-17.88-28.97-22.84-8.2-3.24-16.81-5.92-25.7-6.04-10.46-.19-21.08 1.21-30.82 5.18-2.04-7.26-2.95-14.79-5.15-22-3.3 4.87-5.56 10.33-8.29 15.53-3.45 6.81-7.51 13.3-10.86 20.16-1.84 2.12-3.69 4.23-5.57 6.31-4.15 2.03-8.71 3.22-13.35 3.16-10.25-.04-20.51.05-30.76-.13-.28 47.22-.05 94.45-.14 141.67-.05 16.2 5.6 32.36 16.17 44.69 11.39 14.04 28.68 23.09 46.71 24.49 11.13.76 22.3-.33 33.42.58-.22 7.33.04 14.67-.27 22-18.11.43-35.79 9.02-47.49 22.82-5.67 6.68-11.33 13.69-13.85 22.24-13.25 40.8-26.28 81.68-39.44 122.52-1.36 3.95-2.64 7.93-3.57 12.01-3.54.8-7.18.6-10.77.6-26.68-.03-53.37.01-80.05-.02-4.53.26-5.98-4.9-7.57-8.17-5.6-11.36-8.82-23.69-11.14-36.08-1.31-10.18-1.09-20.46-.96-30.69.35-8.65 1.72-17.28 4.15-25.59 2.37-10.6 7.8-20.08 12.31-29.83 3.66-5.95 7.48-11.8 10.99-17.84 2.79-5.35 4.52-11.17 6.35-16.89 2.22-14.39 1.09-29.78-6.11-42.68-4.92-10.15-11.79-19.19-16.97-29.18-11.02-20.71-12.98-45.49-7.42-68.1 4.55-18.88 17.06-34.19 26.89-50.5 3.24-5.87 7.43-11.14 10.79-16.93 2.08-4.26 4.98-8.05 6.95-12.36 2.06-4.41 3.71-8.99 5.56-13.48 2.43-5.77 3.53-11.99 5.81-17.81.69-4.39 1.1-8.85 2.24-13.17 1.67-11.56 1.75-23.32 4.1-34.78 4.27-20.96 11.43-41.62 23.41-59.48 4.71-8.91 12.3-15.71 19.07-23 16.8-16.07 38.19-27.16 60.86-32.13 3.13-.35 6.21-.95 9.26-1.72z" fill="#9961ff"/><path d="m477.96 81.34.75-.53 1.02.38.22.88c-.5-.18-1.5-.55-1.99-.73z" fill="#6f587e" opacity=".59"/><path d="m247.77 196.86c2.73-5.2 4.99-10.66 8.29-15.53 2.2 7.21 3.11 14.74 5.15 22-8.86 3.22-15.63 10.16-24.3 13.69 3.35-6.86 7.41-13.35 10.86-20.16z" fill="#fce1d8"/><path d="m261.21 203.33c9.74-3.97 20.36-5.37 30.82-5.18 8.89.12 17.5 2.8 25.7 6.04 11.45 4.96 20.9 13.48 28.97 22.84 2.07 3.95 4.3 7.88 7.57 10.99 2.45-3.4 4.22-7.2 5.98-10.98 3.05-2.55 5.4-5.79 8.22-8.57 9.97-9.48 22.52-16.4 36.11-18.94 20.92-4.46 43.51 1.41 60.16 14.69 5.04 3.87 9.16 8.75 13.99 12.87 1.42 1.47 2.7 3.09 3.76 4.85 3.23 6.48 6.83 12.87 8.71 19.92 2.47 8.78 5.33 17.77 4.53 27-.72 9.21-2.09 18.41-4.73 27.27-2.88 7.47-7.8 13.92-12.68 20.19-5.79 7.99-14.41 13.17-22.49 18.53-4.69 3.27-10.34 4.51-15.69 6.24-8.6 2.95-17.85 2.12-26.74 1.49-11.61-.88-22.3-6.02-32.14-11.9-3.96-2.63-8.27-5.31-10.45-9.7.26-4-.19-8.08-2.03-11.69-4.02-8.25-8.75-16.23-14.7-23.25-4.23 4.31-7.17 9.63-10.35 14.71-3.87 6.35-7.52 13.43-6.54 21.11-6 5.25-12.01 10.86-19.6 13.7-9.86 4.61-20.59 7.97-31.59 7.57-8.94-.35-18.32-.41-26.43-4.72-6.87-3.66-14.31-6.56-20.22-11.76-3.83-3.19-7.82-6.37-10.35-10.75-4.08-6.97-9.43-13.33-11.85-21.16-.99-3.08-1.87-6.19-2.76-9.3-2.33-7.59-1.87-15.64-1.65-23.48 1.2-17.67 9.94-33.6 18.6-48.63 1.88-2.08 3.73-4.19 5.57-6.31 8.67-3.53 15.44-10.47 24.3-13.69m106.12 69.68c-.15 7.43.2 15.12 3.38 21.97 3.39 11.11 11.45 20.41 20.98 26.83 16.97 10.91 40.26 11.09 57.22.07 13.02-8.46 22.59-22.44 24.61-37.93.46-9.05 1.05-18.5-2.38-27.1-2.16-5.55-4.89-11.2-8.93-15.56-6.56-8.44-15.72-15.09-26.12-17.82-8.14-2.21-16.76-2.47-25.08-1.19-23.86 4.26-43.03 26.5-43.68 50.73m-108.19-40.9c-12.44 7.49-21.6 20.26-24.57 34.5-2.71 11.06-1.43 22.76 2.49 33.37 4.28 9.66 11.06 18.26 19.84 24.21 7.93 5.42 17.47 8.57 27.1 8.45 5.31-.07 10.81.35 15.91-1.48 15.88-3.69 29.17-15.7 35.7-30.49 2.81-7.02 5.38-14.66 4.53-22.29.18-3.57.88-7.56-1.2-10.72-.62-8.9-5.32-17.09-10.83-23.92-7.2-9.16-17.63-15.68-28.99-18.24-13.48-2.94-28.24-.83-39.98 6.61z" fill="#fefefd"/><path d="m367.33 273.01c.65-24.23 19.82-46.47 43.68-50.73 8.32-1.28 16.94-1.02 25.08 1.19-4.1-.84-7.68 1.44-10.28 4.38-9.05 8.4-13.31 20.99-13.11 33.15-.24 6.99.75 14.11-.82 21-7.88 4.36-17.53-.57-25.44 3.69-3.16 1.16-6.22 2.71-8.47 5.28-1.88 2.17-4.56 3.24-7.26 4.01-3.18-6.85-3.53-14.54-3.38-21.97m27.6-31.14c-5.26 3.73-10.11 8.43-12.81 14.37-1.36 2.81-1.1 6.15-.26 9.07 2.18 4.92 8.24 6.21 13.04 4.9 3.21-1.4 5.23-4.39 7.2-7.15 1.88-2.73 4.58-4.8 6.31-7.64 2.33-4.73-.03-10.76-4.34-13.44-.15-.37-.47-1.09-.62-1.46-2.65-.02-7.4-1.77-8.52 1.35z" fill="#fd9703"/><path d="m217.99 226.49c4.64.06 9.2-1.13 13.35-3.16-8.66 15.03-17.4 30.96-18.6 48.63-.22 7.84-.68 15.89 1.65 23.48.89 3.11 1.77 6.22 2.76 9.3 2.42 7.83 7.77 14.19 11.85 21.16 2.53 4.38 6.52 7.56 10.35 10.75 5.91 5.2 13.35 8.1 20.22 11.76 8.11 4.31 17.49 4.37 26.43 4.72 11 .4 21.73-2.96 31.59-7.57 7.59-2.84 13.6-8.45 19.6-13.7 2.24 4.39 4.98 9.03 9.52 11.36 5.64 2.3 12.41 1.37 17.39-2.08 3.46-2.38 5.35-6.32 6.71-10.16 2.18 4.39 6.49 7.07 10.45 9.7 9.84 5.88 20.53 11.02 32.14 11.9 8.89.63 18.14 1.46 26.74-1.49 5.35-1.73 11-2.97 15.69-6.24 8.08-5.36 16.7-10.54 22.49-18.53 4.88-6.27 9.8-12.72 12.68-20.19 2.64-8.86 4.01-18.06 4.73-27.27.8-9.23-2.06-18.22-4.53-27-1.88-7.05-5.48-13.44-8.71-19.92 2.29-1.66 4.76-3.35 7.69-3.48 7.25-.61 14.53.51 21.79-.17.9 3.5 1.16 7.13 1.1 10.74-.09 7.24 1.56 14.46.56 21.7-1.05 7.19-.2 14.49-1.2 21.68-.5 3.76-.59 7.57-.12 11.33 1.14 8.71.72 17.51.77 26.26-.31 18.68.11 37.37-.21 56.05-.02 8.17-5.04 15.19-5.58 23.26-2.23 5.38-5.42 10.33-9.42 14.56-12.03 13.72-29.58 22.73-47.89 23.53-10.39.25-20.79-.26-31.18.27-40.93.39-81.87.01-122.8.19-4.2.14-8.42.38-12.61-.07-11.12-.91-22.29.18-33.42-.58-18.03-1.4-35.32-10.45-46.71-24.49-10.57-12.33-16.22-28.49-16.17-44.69.09-47.22-.14-94.45.14-141.67 10.25.18 20.51.09 30.76.13m90.42 127.92c-1.96.71-3.78 2.33-3.71 4.58-.85 5.26 3.89 8.82 6.96 12.35 10.47 11.26 26.26 16.18 41.34 15.89 3.8-.14 7.83-.16 11.32-1.9 4.61-2.53 2.73-10.68-2.42-11.18-5.64-.25-11.33.64-16.94-.33-6.36-1.13-13.05-2.39-18.24-6.51-4.65-2.95-8.16-7.18-11.72-11.29-1.53-2-4.32-2.45-6.59-1.61z" fill="#fee2d6"/><path d="m425.81 227.85c2.6-2.94 6.18-5.22 10.28-4.38 10.4 2.73 19.56 9.38 26.12 17.82-4.96-.03-10.31.3-14.25 3.68-4.04 2.53-5.83 7.08-7.51 11.3-.71-2.09-1.4-4.18-2.11-6.26-.97 5.47-1.49 11.22-4.16 16.2-2.4 4.29-6.68 7-10.92 9.21 7.02 1.94 13.69 6.21 16.75 13.05-3.29 4.28-5.45 9.4-9.48 13.09-7.03 7.34-17.52 10.76-27.54 10.29-3.57-.01-7.8-.23-10.39 2.71-1.91 1.93-.93 4.85-.91 7.25-9.53-6.42-17.59-15.72-20.98-26.83 2.7-.77 5.38-1.84 7.26-4.01 2.25-2.57 5.31-4.12 8.47-5.28 8.08.71 16.17-.36 24.27-.01.39-1.23.8-2.45 1.17-3.68 1.57-6.89.58-14.01.82-21-.2-12.16 4.06-24.75 13.11-33.15m-11.33 61.53c-4.21 2.86-2.96 8.87 0 12.16 2.93 3.16 9.28 3.7 11.44-.62 3.64-6.44-4.92-15.48-11.44-11.54z" fill="#53da71"/><path d="m259.14 232.11c11.74-7.44 26.5-9.55 39.98-6.61-8.71 3.83-14.3 12.51-17.43 21.2-4.9 10.76-1.89 22.79-2.97 34.14-.13 2.45-1.59 5.05-4.17 5.54-5.11.84-10.33-.04-15.45.77-8.77.96-16.46 6.2-22.04 12.83-3.92-10.61-5.2-22.31-2.49-33.37 2.97-14.24 12.13-27.01 24.57-34.5m3.16 12.19c-5.79 2.43-9.86 7.56-13.06 12.77-1.75 2.8-2.56 6.26-1.76 9.5 1.27 4.79 6.5 8.04 11.36 7.15 3.7-.55 6.57-3.34 8.26-6.55 2.2-4.43 7.95-6.73 8.09-12.19 1.32-6.98-6.4-13.06-12.89-10.68z" fill="#d63333"/><path d="m281.69 246.7c3.13-8.69 8.72-17.37 17.43-21.2 11.36 2.56 21.79 9.08 28.99 18.24-3.56.19-7.33.1-10.58 1.78-5.64 2.86-9.74 8.39-10.96 14.58-.86-2.69-1.55-5.42-2.33-8.13-.77 7.19-1.68 14.96-6.73 20.57-2.52 2.74-5.81 4.61-9.24 5.95 7.88.64 14.55 6.09 17.83 13.11-3.29 4.53-5.56 9.88-9.88 13.58-3.32 2.85-6.86 5.65-11.11 6.92-5.4 1.67-10.94 3.38-16.66 3.15-3.32-.14-6.63.23-9.81 1.15-.55 2.61-1.13 5.2-1.74 7.79-8.78-5.95-15.56-14.55-19.84-24.21 5.58-6.63 13.27-11.87 22.04-12.83 5.12-.81 10.34.07 15.45-.77 2.58-.49 4.04-3.09 4.17-5.54 1.08-11.35-1.93-23.38 2.97-34.14m.75 44.83c-4.86.64-5.94 6.98-3.47 10.54 1.97 5.36 11.95 6.89 13.49.52 1.85-5.92-4.11-12.06-10.02-11.06z" fill="#f6671a"/><path d="m346.7 227.03c4.5-.51 9.04-.5 13.55.01-1.76 3.78-3.53 7.58-5.98 10.98-3.27-3.11-5.5-7.04-7.57-10.99z" fill="#f8e5df"/><path d="m478.73 227.09c12.03-.87 24.13-.44 36.18-.29.09 46.06.04 92.13.12 138.19.16 11.81-1.67 24.01-7.74 34.32.54-8.07 5.56-15.09 5.58-23.26.32-18.68-.1-37.37.21-56.05-.05-8.75.37-17.55-.77-26.26-.47-3.76-.38-7.57.12-11.33 1-7.19.15-14.49 1.2-21.68 1-7.24-.65-14.46-.56-21.7.06-3.61-.2-7.24-1.1-10.74-7.26.68-14.54-.44-21.79.17-2.93.13-5.4 1.82-7.69 3.48-1.06-1.76-2.34-3.38-3.76-4.85z" fill="#fcdaeb"/><path d="m394.93 241.87c1.12-3.12 5.87-1.37 8.52-1.35.15.37.47 1.09.62 1.46-3.04-.29-6.1-.34-9.14-.11z" fill="#e6b657"/><path d="m462.21 241.29c4.04 4.36 6.77 10.01 8.93 15.56 3.43 8.6 2.84 18.05 2.38 27.1-2.02 15.49-11.59 29.47-24.61 37.93-16.96 11.02-40.25 10.84-57.22-.07-.02-2.4-1-5.32.91-7.25 2.59-2.94 6.82-2.72 10.39-2.71 10.02.47 20.51-2.95 27.54-10.29 4.03-3.69 6.19-8.81 9.48-13.09 1.31 2.83 2.45 5.73 3.68 8.6 1.23-7.02 2.35-14.59 7.32-20.08 2.29-2.36 5.21-3.97 7.96-5.72-3.7-.89-7.55-1.56-10.89-3.46-4.04-2.58-6.17-7.15-7.63-11.54 1.68-4.22 3.47-8.77 7.51-11.3 3.94-3.38 9.29-3.71 14.25-3.68z" fill="#705fd7"/><path d="m382.12 256.24c2.7-5.94 7.55-10.64 12.81-14.37 3.04-.23 6.1-.18 9.14.11 4.31 2.68 6.67 8.71 4.34 13.44-1.73 2.84-4.43 4.91-6.31 7.64-1.97 2.76-3.99 5.75-7.2 7.15-4.8 1.31-10.86.02-13.04-4.9-.84-2.92-1.1-6.26.26-9.07z" fill="#fefdfb"/><path d="m262.3 244.3c6.49-2.38 14.21 3.7 12.89 10.68-.14 5.46-5.89 7.76-8.09 12.19-1.69 3.21-4.56 6-8.26 6.55-4.86.89-10.09-2.36-11.36-7.15-.8-3.24.01-6.7 1.76-9.5 3.2-5.21 7.27-10.34 13.06-12.77z" fill="#fefefe"/><path d="m317.53 245.52c3.25-1.68 7.02-1.59 10.58-1.78 5.51 6.83 10.21 15.02 10.83 23.92-.21 3.61.05 7.26 1.2 10.72.85 7.63-1.72 15.27-4.53 22.29-6.53 14.79-19.82 26.8-35.7 30.49-5.1 1.83-10.6 1.41-15.91 1.48-9.63.12-19.17-3.03-27.1-8.45.61-2.59 1.19-5.18 1.74-7.79 3.18-.92 6.49-1.29 9.81-1.15 5.72.23 11.26-1.48 16.66-3.15 4.25-1.27 7.79-4.07 11.11-6.92 4.32-3.7 6.59-9.05 9.88-13.58 1.29 2.72 2.44 5.5 3.62 8.27 1.2-6.54 2.21-13.49 6.28-18.97 2.32-2.84 5.6-4.63 8.76-6.4-3.77-1.22-7.73-2.12-11.16-4.19-3.68-2.25-5.34-6.46-7.03-10.21 1.22-6.19 5.32-11.72 10.96-14.58z" fill="#fe9701"/><path d="m438.34 250.01c.71 2.08 1.4 4.17 2.11 6.26 1.46 4.39 3.59 8.96 7.63 11.54 3.34 1.9 7.19 2.57 10.89 3.46-2.75 1.75-5.67 3.36-7.96 5.72-4.97 5.49-6.09 13.06-7.32 20.08-1.23-2.87-2.37-5.77-3.68-8.6-3.06-6.84-9.73-11.11-16.75-13.05 4.24-2.21 8.52-4.92 10.92-9.21 2.67-4.98 3.19-10.73 4.16-16.2z" fill="#fcfefe"/><path d="m304.24 251.97c.78 2.71 1.47 5.44 2.33 8.13 1.69 3.75 3.35 7.96 7.03 10.21 3.43 2.07 7.39 2.97 11.16 4.19-3.16 1.77-6.44 3.56-8.76 6.4-4.07 5.48-5.08 12.43-6.28 18.97-1.18-2.77-2.33-5.55-3.62-8.27-3.28-7.02-9.95-12.47-17.83-13.11 3.43-1.34 6.72-3.21 9.24-5.95 5.05-5.61 5.96-13.38 6.73-20.57z" fill="#fdfef9"/><path d="m338.94 267.66c2.08 3.16 1.38 7.15 1.2 10.72-1.15-3.46-1.41-7.11-1.2-10.72z" fill="#d29c45"/><path d="m386.44 285.69c7.91-4.26 17.56.67 25.44-3.69-.37 1.23-.78 2.45-1.17 3.68-8.1-.35-16.19.72-24.27.01z" fill="#7aca54"/><path d="m414.48 289.38c6.52-3.94 15.08 5.1 11.44 11.54-2.16 4.32-8.51 3.78-11.44.62-2.96-3.29-4.21-9.3 0-12.16z" fill="#fcfdfb"/><path d="m282.44 291.53c5.91-1 11.87 5.14 10.02 11.06-1.54 6.37-11.52 4.84-13.49-.52-2.47-3.56-1.39-9.9 3.47-10.54z" fill="#fcfdf4"/><path d="m354.08 296.04c5.95 7.02 10.68 15 14.7 23.25 1.84 3.61 2.29 7.69 2.03 11.69-1.36 3.84-3.25 7.78-6.71 10.16-4.98 3.45-11.75 4.38-17.39 2.08-4.54-2.33-7.28-6.97-9.52-11.36-.98-7.68 2.67-14.76 6.54-21.11 3.18-5.08 6.12-10.4 10.35-14.71z" fill="#f6ac93"/><path d="m308.41 354.41c2.27-.84 5.06-.39 6.59 1.61 3.56 4.11 7.07 8.34 11.72 11.29 5.19 4.12 11.88 5.38 18.24 6.51 5.61.97 11.3.08 16.94.33 5.15.5 7.03 8.65 2.42 11.18-3.49 1.74-7.52 1.76-11.32 1.9-15.08.29-30.87-4.63-41.34-15.89-3.07-3.53-7.81-7.09-6.96-12.35-.07-2.25 1.75-3.87 3.71-4.58z" fill="#f5ae94"/><path d="m283.39 437.79c4.19.45 8.41.21 12.61.07 40.93-.18 81.87.2 122.8-.19.41 7.34.09 14.7.31 22.04 7.14.51 14.3 1.64 21.02 4.18 13.08 4.94 24.26 14.35 31.99 25.93 5.32 7.99 7.79 17.36 10.75 26.38 6.63 20.1 12.95 40.3 19.5 60.43 6.59 20.9 13.72 41.65 19.89 62.68-8.4.64-16.84.31-25.26.4-103-.01-206 0-309-.01-3.08.09-6.17.1-9.23-.32.93-4.08 2.21-8.06 3.57-12.01 13.16-40.84 26.19-81.72 39.44-122.52 2.52-8.55 8.18-15.56 13.85-22.24 11.7-13.8 29.38-22.39 47.49-22.82.31-7.33.05-14.67.27-22z" fill="#ecf0f1"/></svg>