<?xml version="1.0" encoding="UTF-8" ?>
<!DOCTYPE svg PUBLIC "-//W3C//DTD SVG 1.1//EN" "http://www.w3.org/Graphics/SVG/1.1/DTD/svg11.dtd">
<svg width="322pt" height="258pt" viewBox="0 0 322 258" version="1.1" xmlns="http://www.w3.org/2000/svg">
<g id="#9961ffff">
<path fill="#9961ff" opacity="1.00" d=" M 129.78 21.41 C 142.27 18.87 155.45 21.35 166.65 27.26 C 171.56 29.52 175.56 33.22 180.21 35.90 C 191.71 28.10 207.09 25.61 220.14 30.84 C 231.15 35.08 239.41 44.93 242.99 56.03 C 245.96 64.16 245.08 73.02 247.36 81.30 C 247.78 82.92 248.28 84.52 248.82 86.10 C 252.64 95.95 259.83 103.96 264.52 113.35 C 269.91 124.72 267.85 138.62 260.50 148.65 C 258.62 151.60 256.96 154.72 255.94 158.08 C 254.11 164.39 255.74 171.20 259.27 176.61 C 261.77 180.63 264.13 184.79 265.57 189.33 C 267.26 194.77 268.21 200.49 268.01 206.20 C 267.33 213.04 265.45 219.69 262.69 225.97 C 251.38 225.82 240.04 226.39 228.74 225.71 C 223.72 209.92 218.72 194.11 213.51 178.37 C 210.54 169.39 201.65 163.52 192.42 162.78 C 192.42 160.22 192.43 157.66 192.44 155.11 C 198.96 154.93 205.90 156.02 211.97 153.01 C 220.52 149.27 226.45 140.32 226.37 130.96 C 226.48 114.12 226.29 97.29 226.43 80.45 C 222.05 80.33 217.66 80.33 213.27 80.34 C 209.37 76.11 204.57 72.48 198.89 71.10 C 189.21 68.36 178.18 72.20 172.18 80.24 C 170.32 80.27 168.47 80.30 166.62 80.33 C 159.78 71.41 146.93 67.51 136.54 72.25 C 135.95 69.54 135.32 66.83 134.62 64.14 C 132.57 68.15 130.61 72.21 128.43 76.14 C 127.41 77.45 126.31 78.69 125.20 79.92 C 120.22 80.60 115.19 80.30 110.18 80.36 L 109.20 80.40 C 108.66 87.28 109.13 94.18 109.00 101.07 C 109.02 112.05 108.79 123.04 109.25 134.02 C 109.49 133.69 109.97 133.04 110.21 132.71 C 111.20 141.20 116.44 149.18 124.27 152.80 C 130.47 155.99 137.64 154.97 144.35 155.14 C 144.33 157.67 144.34 160.21 144.36 162.74 C 134.38 163.58 125.21 170.50 122.19 180.12 C 117.34 195.43 112.32 210.68 107.51 226.00 C 96.10 225.99 84.68 226.02 73.27 225.99 C 70.11 218.39 67.69 210.27 68.02 201.96 C 68.40 196.17 69.69 190.42 72.05 185.11 C 74.67 178.85 79.72 173.64 80.60 166.69 C 81.88 159.11 77.90 152.09 73.89 146.00 C 67.20 135.87 66.62 122.04 72.46 111.40 C 77.16 102.85 83.64 95.26 87.16 86.09 C 87.72 84.52 88.20 82.94 88.65 81.34 C 89.73 77.34 90.19 73.21 90.58 69.10 C 91.32 59.64 94.15 50.26 99.17 42.18 C 105.77 31.30 117.26 23.58 129.78 21.41 Z" />
</g>
<g id="#fde1d7ff">
<path fill="#fde1d7" opacity="1.00" d=" M 134.62 64.14 C 135.32 66.83 135.95 69.54 136.54 72.25 C 133.86 73.61 131.21 75.00 128.43 76.14 C 130.61 72.21 132.57 68.15 134.62 64.14 Z" />
</g>
<g id="#fffefeff">
<path fill="#fffefe" opacity="1.00" d=" M 136.54 72.25 C 146.93 67.51 159.78 71.41 166.62 80.33 C 167.62 81.46 168.61 82.60 169.59 83.75 C 170.44 82.57 171.29 81.39 172.18 80.24 C 178.18 72.20 189.21 68.36 198.89 71.10 C 204.57 72.48 209.37 76.11 213.27 80.34 C 218.61 87.12 220.85 96.49 218.80 104.93 C 216.09 118.54 200.90 128.37 187.37 124.46 C 182.51 122.84 175.89 121.02 175.21 115.00 C 174.14 111.17 171.66 108.00 169.51 104.75 C 167.32 107.64 165.04 110.57 163.90 114.06 C 162.96 120.89 155.63 123.32 149.88 124.80 C 136.13 127.82 121.79 117.31 119.53 103.64 C 117.79 95.25 121.04 87.05 125.20 79.92 C 126.31 78.69 127.41 77.45 128.43 76.14 C 131.21 75.00 133.86 73.61 136.54 72.25 M 177.69 86.53 C 173.68 91.93 173.22 99.21 175.43 105.43 C 176.99 108.69 179.32 111.46 182.05 113.80 C 185.66 115.92 189.76 117.42 194.01 117.06 C 203.80 116.76 212.06 107.75 212.08 98.06 C 212.41 93.24 210.16 88.82 207.65 84.88 L 207.41 84.96 C 204.61 81.88 200.96 79.53 196.82 78.78 C 189.63 77.45 181.84 80.46 177.69 86.53 M 134.41 83.22 C 127.24 88.24 125.00 98.12 127.79 106.17 C 129.38 109.44 131.62 112.32 134.30 114.77 L 134.42 114.60 C 140.23 118.76 148.45 119.35 154.65 115.70 C 160.66 112.47 164.44 105.80 164.62 99.04 C 164.74 94.19 162.82 89.58 159.91 85.77 C 157.02 82.81 153.38 80.76 149.40 79.64 C 144.19 79.18 138.62 79.86 134.41 83.22 Z" />
</g>
<g id="#ff9601ff">
<path fill="#ff9601" opacity="1.00" d=" M 177.69 86.53 C 181.84 80.46 189.63 77.45 196.82 78.78 C 194.90 80.57 193.04 82.52 191.90 84.91 C 189.38 89.76 190.70 95.38 189.78 100.57 C 186.93 100.71 184.05 100.60 181.27 101.28 C 178.85 101.85 177.18 103.82 175.43 105.43 C 173.22 99.21 173.68 91.93 177.69 86.53 M 183.34 86.21 C 181.32 87.91 178.80 90.10 179.06 93.00 C 179.16 95.79 183.30 97.32 185.01 94.96 C 186.65 92.93 189.52 91.00 188.93 88.03 C 188.25 85.77 185.19 84.56 183.34 86.21 Z" />
</g>
<g id="#52db71ff">
<path fill="#52db71" opacity="1.00" d=" M 196.82 78.78 C 200.96 79.53 204.61 81.88 207.41 84.96 C 204.15 85.57 201.59 87.65 199.83 90.39 C 199.73 89.93 199.52 89.03 199.42 88.57 C 199.00 92.17 197.75 95.77 194.39 97.62 C 196.47 98.67 198.47 99.95 199.81 101.90 C 198.35 104.57 196.80 107.44 194.03 108.98 C 191.07 110.88 187.41 110.32 184.10 110.90 C 183.29 111.77 182.61 112.74 182.05 113.80 C 179.32 111.46 176.99 108.69 175.43 105.43 C 177.18 103.82 178.85 101.85 181.27 101.28 C 184.05 100.60 186.93 100.71 189.78 100.57 C 190.70 95.38 189.38 89.76 191.90 84.91 C 193.04 82.52 194.90 80.57 196.82 78.78 M 191.33 102.35 C 187.73 103.83 191.62 109.77 194.33 107.34 C 196.70 105.59 193.85 101.47 191.33 102.35 Z" />
</g>
<g id="#874cfaff">
<path fill="#874cfa" opacity="1.00" d=" M 109.20 80.40 L 110.18 80.36 C 110.25 97.81 110.16 115.26 110.21 132.71 C 109.97 133.04 109.49 133.69 109.25 134.02 C 108.79 123.04 109.02 112.05 109.00 101.07 C 109.13 94.18 108.66 87.28 109.20 80.40 Z" />
</g>
<g id="#fee2d6ff">
<path fill="#fee2d6" opacity="1.00" d=" M 110.18 80.36 C 115.19 80.30 120.22 80.60 125.20 79.92 C 121.04 87.05 117.79 95.25 119.53 103.64 C 121.79 117.31 136.13 127.82 149.88 124.80 C 155.63 123.32 162.96 120.89 163.90 114.06 C 163.56 116.10 163.40 118.45 164.93 120.08 C 167.05 123.04 171.86 122.80 174.04 120.06 C 175.21 118.65 175.05 116.70 175.21 115.00 C 175.89 121.02 182.51 122.84 187.37 124.46 C 200.90 128.37 216.09 118.54 218.80 104.93 C 220.85 96.49 218.61 87.12 213.27 80.34 C 217.66 80.33 222.05 80.33 226.43 80.45 C 226.29 97.29 226.48 114.12 226.37 130.96 C 226.45 140.32 220.52 149.27 211.97 153.01 C 205.90 156.02 198.96 154.93 192.44 155.11 C 176.41 155.16 160.38 155.18 144.35 155.14 C 137.64 154.97 130.47 155.99 124.27 152.80 C 116.44 149.18 111.20 141.20 110.21 132.71 C 110.16 115.26 110.25 97.81 110.18 80.36 M 151.90 126.09 C 152.11 127.42 151.80 128.95 152.87 129.99 C 157.43 135.92 165.63 138.56 172.82 136.86 C 174.38 136.53 174.15 134.39 173.66 133.27 C 170.55 132.27 167.15 133.07 164.01 132.14 C 159.99 131.44 157.32 128.13 154.68 125.34 C 153.75 125.59 152.82 125.84 151.90 126.09 Z" />
</g>
<g id="#d73133ff">
<path fill="#d73133" opacity="1.00" d=" M 134.41 83.22 C 138.62 79.86 144.19 79.18 149.40 79.64 C 147.01 82.22 144.42 84.87 143.47 88.36 C 142.40 92.50 142.78 96.81 142.75 101.04 C 139.63 101.54 136.46 101.74 133.37 102.45 C 131.25 103.23 129.59 104.85 127.79 106.17 C 125.00 98.12 127.24 88.24 134.41 83.22 M 131.57 93.06 C 130.96 96.02 135.10 98.55 137.27 96.27 C 139.49 93.83 142.92 90.88 140.77 87.29 C 136.60 84.66 132.66 89.39 131.57 93.06 Z" />
</g>
<g id="#f7661aff">
<path fill="#f7661a" opacity="1.00" d=" M 149.40 79.64 C 153.38 80.76 157.02 82.81 159.91 85.77 C 156.87 86.79 154.15 88.53 152.23 91.13 C 152.03 90.43 151.86 89.73 151.69 89.02 C 151.65 92.83 150.46 96.74 146.90 98.64 C 149.29 99.60 151.38 101.21 152.64 103.49 C 151.31 105.55 149.83 107.61 147.36 108.36 C 147.52 107.75 147.84 106.54 148.00 105.93 C 146.84 104.55 145.32 103.54 143.79 102.60 C 143.08 104.24 141.48 106.08 143.22 107.68 C 144.24 108.68 145.80 108.66 147.07 109.16 C 144.11 111.80 139.92 111.59 136.23 112.08 C 135.78 112.71 134.87 113.97 134.42 114.60 L 134.30 114.77 C 131.62 112.32 129.38 109.44 127.79 106.17 C 129.59 104.85 131.25 103.23 133.37 102.45 C 136.46 101.74 139.63 101.54 142.75 101.04 C 142.78 96.81 142.40 92.50 143.47 88.36 C 144.42 84.87 147.01 82.22 149.40 79.64 Z" />
</g>
<g id="#e8d2ddff">
<path fill="#e8d2dd" opacity="1.00" d=" M 166.62 80.33 C 168.47 80.30 170.32 80.27 172.18 80.24 C 171.29 81.39 170.44 82.57 169.59 83.75 C 168.61 82.60 167.62 81.46 166.62 80.33 Z" />
</g>
<g id="#f3e0feff">
<path fill="#f3e0fe" opacity="1.00" d=" M 88.06 81.96 C 88.20 81.80 88.50 81.49 88.65 81.34 C 88.20 82.94 87.72 84.52 87.16 86.09 C 69.12 85.91 51.07 86.03 33.02 86.00 C 27.02 85.93 20.96 87.58 16.09 91.16 C 7.70 97.01 2.97 107.71 4.54 117.87 C 6.86 134.11 9.17 150.37 11.50 166.61 C 12.25 171.99 12.89 177.40 14.39 182.63 C 18.31 196.46 27.46 208.71 39.57 216.44 C 49.48 222.97 61.42 226.21 73.27 225.99 C 84.68 226.02 96.10 225.99 107.51 226.00 C 142.68 226.07 177.86 226.03 213.03 226.05 C 218.27 226.14 223.51 226.10 228.74 225.71 C 240.04 226.39 251.38 225.82 262.69 225.97 C 271.46 226.29 280.22 225.99 288.99 225.97 C 291.29 225.97 293.60 225.96 295.91 225.95 C 304.61 225.96 313.30 226.12 322.00 226.12 L 322.00 230.08 C 312.33 229.67 302.67 230.51 293.00 230.02 C 219.67 230.07 146.33 229.94 72.99 230.01 C 59.96 230.17 46.86 226.37 36.12 218.94 C 20.05 208.35 9.78 190.07 8.08 170.99 C 5.62 153.63 3.11 136.27 0.65 118.91 C -0.05 114.09 0.24 109.12 1.73 104.47 C 5.49 91.79 17.78 82.35 31.02 82.04 C 50.03 81.91 69.04 82.10 88.06 81.96 Z" />
<path fill="#f3e0fe" opacity="1.00" d=" M 247.36 81.30 C 247.51 81.47 247.80 81.80 247.95 81.96 C 272.63 82.06 297.32 81.97 322.00 82.00 L 322.00 86.00 C 297.61 86.06 273.21 85.88 248.82 86.10 C 248.28 84.52 247.78 82.92 247.36 81.30 Z" />
</g>
<g id="#715ed8ff">
<path fill="#715ed8" opacity="1.00" d=" M 199.83 90.39 C 201.59 87.65 204.15 85.57 207.41 84.96 L 207.65 84.88 C 210.16 88.82 212.41 93.24 212.08 98.06 C 212.06 107.75 203.80 116.76 194.01 117.06 C 189.76 117.42 185.66 115.92 182.05 113.80 C 182.61 112.74 183.29 111.77 184.10 110.90 C 187.41 110.32 191.07 110.88 194.03 108.98 C 196.80 107.44 198.35 104.57 199.81 101.90 C 200.29 102.95 200.74 104.03 201.19 105.10 C 201.63 101.57 203.03 98.19 206.18 96.29 C 203.06 95.65 200.48 93.61 199.83 90.39 Z" />
</g>
<g id="#db9dffff">
<path fill="#db9dff" opacity="1.00" d=" M 16.09 91.16 C 20.96 87.58 27.02 85.93 33.02 86.00 C 51.07 86.03 69.12 85.91 87.16 86.09 C 83.64 95.26 77.16 102.85 72.46 111.40 C 66.62 122.04 67.20 135.87 73.89 146.00 C 77.90 152.09 81.88 159.11 80.60 166.69 C 79.72 173.64 74.67 178.85 72.05 185.11 C 69.69 190.42 68.40 196.17 68.02 201.96 C 67.69 210.27 70.11 218.39 73.27 225.99 C 61.42 226.21 49.48 222.97 39.57 216.44 C 27.46 208.71 18.31 196.46 14.39 182.63 C 12.89 177.40 12.25 171.99 11.50 166.61 C 9.17 150.37 6.86 134.11 4.54 117.87 C 2.97 107.71 7.70 97.01 16.09 91.16 Z" />
<path fill="#db9dff" opacity="1.00" d=" M 248.82 86.10 C 273.21 85.88 297.61 86.06 322.00 86.00 L 322.00 149.02 C 318.77 148.96 315.54 148.88 312.31 148.77 C 312.13 146.54 311.94 144.31 311.76 142.08 C 308.30 141.94 304.83 141.94 301.37 142.09 C 301.23 144.33 301.08 146.57 300.94 148.81 C 293.67 148.98 286.40 148.99 279.13 148.84 C 278.98 146.61 278.82 144.39 278.67 142.16 C 275.18 141.99 271.68 141.95 268.19 142.06 C 268.06 144.33 267.93 146.59 267.80 148.86 C 265.37 148.79 262.93 148.72 260.50 148.65 C 267.85 138.62 269.91 124.72 264.52 113.35 C 259.83 103.96 252.64 95.95 248.82 86.10 Z" />
<path fill="#db9dff" opacity="1.00" d=" M 255.94 158.08 C 259.86 158.05 263.78 158.07 267.70 158.16 C 267.88 160.42 268.07 162.68 268.26 164.94 C 271.71 165.19 275.19 165.18 278.65 164.92 C 278.82 162.70 278.99 160.47 279.17 158.25 C 286.39 158.00 293.61 158.04 300.82 158.21 C 301.01 160.44 301.19 162.68 301.38 164.91 C 304.83 165.15 308.30 165.18 311.76 164.99 C 311.92 162.71 312.08 160.44 312.25 158.16 C 315.50 158.11 318.75 158.09 322.00 158.10 L 322.00 173.02 C 313.34 173.09 304.67 172.82 296.01 173.12 C 295.60 190.72 295.89 208.34 295.91 225.95 C 293.60 225.96 291.29 225.97 288.99 225.97 C 290.08 224.60 291.14 223.21 292.23 221.84 C 288.10 218.42 283.53 215.61 279.18 212.48 C 286.19 201.80 291.50 189.16 289.96 176.14 C 283.64 175.92 277.31 176.26 271.00 175.87 C 271.55 173.00 272.15 170.15 272.79 167.30 C 269.92 166.84 267.04 166.13 264.12 166.25 C 262.75 166.49 262.71 168.15 262.26 169.17 C 261.51 171.74 260.55 174.25 259.27 176.61 C 255.74 171.20 254.11 164.39 255.94 158.08 Z" />
<path fill="#db9dff" opacity="1.00" d=" M 305.14 182.18 C 310.38 181.93 315.62 181.87 320.87 182.16 C 320.94 193.43 320.92 204.70 320.89 215.97 C 315.66 216.30 310.43 216.31 305.21 215.96 C 304.99 204.70 305.14 193.44 305.14 182.18 Z" />
<path fill="#db9dff" opacity="1.00" d=" M 265.57 189.33 C 266.40 188.26 267.18 187.15 268.13 186.18 C 272.13 185.41 276.23 185.95 280.26 186.11 C 279.04 193.73 274.95 200.48 270.84 206.87 C 269.89 206.63 268.95 206.40 268.01 206.20 C 268.21 200.49 267.26 194.77 265.57 189.33 Z" />
</g>
<g id="#fefefeff">
<path fill="#fefefe" opacity="1.00" d=" M 131.57 93.06 C 132.66 89.39 136.60 84.66 140.77 87.29 C 142.92 90.88 139.49 93.83 137.27 96.27 C 135.10 98.55 130.96 96.02 131.57 93.06 Z" />
</g>
<g id="#ff9700ff">
<path fill="#ff9700" opacity="1.00" d=" M 152.23 91.13 C 154.15 88.53 156.87 86.79 159.91 85.77 C 162.82 89.58 164.74 94.19 164.62 99.04 C 164.44 105.80 160.66 112.47 154.65 115.70 C 148.45 119.35 140.23 118.76 134.42 114.60 C 134.87 113.97 135.78 112.71 136.23 112.08 C 139.92 111.59 144.11 111.80 147.07 109.16 C 147.14 108.96 147.29 108.56 147.36 108.36 C 149.83 107.61 151.31 105.55 152.64 103.49 C 152.87 104.19 153.32 105.60 153.55 106.30 C 154.19 102.75 155.47 99.17 158.78 97.28 C 155.53 96.63 152.93 94.44 152.23 91.13 Z" />
</g>
<g id="#fffdffff">
<path fill="#fffdff" opacity="1.00" d=" M 183.34 86.21 C 185.19 84.56 188.25 85.77 188.93 88.03 C 189.52 91.00 186.65 92.93 185.01 94.96 C 183.30 97.32 179.16 95.79 179.06 93.00 C 178.80 90.10 181.32 87.91 183.34 86.21 Z" />
<path fill="#fffdff" opacity="1.00" d=" M 191.33 102.35 C 193.85 101.47 196.70 105.59 194.33 107.34 C 191.62 109.77 187.73 103.83 191.33 102.35 Z" />
</g>
<g id="#fbffffff">
<path fill="#fbffff" opacity="1.00" d=" M 151.69 89.02 C 151.86 89.73 152.03 90.43 152.23 91.13 C 152.93 94.44 155.53 96.63 158.78 97.28 C 155.47 99.17 154.19 102.75 153.55 106.30 C 153.32 105.60 152.87 104.19 152.64 103.49 C 151.38 101.21 149.29 99.60 146.90 98.64 C 150.46 96.74 151.65 92.83 151.69 89.02 Z" />
</g>
<g id="#fefffeff">
<path fill="#fefffe" opacity="1.00" d=" M 199.42 88.57 C 199.52 89.03 199.73 89.93 199.83 90.39 C 200.48 93.61 203.06 95.65 206.18 96.29 C 203.03 98.19 201.63 101.57 201.19 105.10 C 200.74 104.03 200.29 102.95 199.81 101.90 C 198.47 99.95 196.47 98.67 194.39 97.62 C 197.75 95.77 199.00 92.17 199.42 88.57 Z" />
</g>
<g id="#fbfffdff">
<path fill="#fbfffd" opacity="1.00" d=" M 143.22 107.68 C 141.48 106.08 143.08 104.24 143.79 102.60 C 145.32 103.54 146.84 104.55 148.00 105.93 C 147.84 106.54 147.52 107.75 147.36 108.36 C 147.29 108.56 147.14 108.96 147.07 109.16 C 145.80 108.66 144.24 108.68 143.22 107.68 Z" />
</g>
<g id="#f6ac93ff">
<path fill="#f6ac93" opacity="1.00" d=" M 163.90 114.06 C 165.04 110.57 167.32 107.64 169.51 104.75 C 171.66 108.00 174.14 111.17 175.21 115.00 C 175.05 116.70 175.21 118.65 174.04 120.06 C 171.86 122.80 167.05 123.04 164.93 120.08 C 163.40 118.45 163.56 116.10 163.90 114.06 Z" />
</g>
<g id="#f7ad93ff">
<path fill="#f7ad93" opacity="1.00" d=" M 151.90 126.09 C 152.82 125.84 153.75 125.59 154.68 125.34 C 157.32 128.13 159.99 131.44 164.01 132.14 C 167.15 133.07 170.55 132.27 173.66 133.27 C 174.15 134.39 174.38 136.53 172.82 136.86 C 165.63 138.56 157.43 135.92 152.87 129.99 C 151.80 128.95 152.11 127.42 151.90 126.09 Z" />
</g>
<g id="#e2b1ffff">
<path fill="#e2b1ff" opacity="1.00" d=" M 268.19 142.06 C 271.68 141.95 275.18 141.99 278.67 142.16 C 278.82 144.39 278.98 146.61 279.13 148.84 C 286.40 148.99 293.67 148.98 300.94 148.81 C 301.08 146.57 301.23 144.33 301.37 142.09 C 304.83 141.94 308.30 141.94 311.76 142.08 C 311.94 144.31 312.13 146.54 312.31 148.77 C 315.54 148.88 318.77 148.96 322.00 149.02 L 322.00 158.10 C 318.75 158.09 315.50 158.11 312.25 158.16 C 312.08 160.44 311.92 162.71 311.76 164.99 C 308.30 165.18 304.83 165.15 301.38 164.91 C 301.19 162.68 301.01 160.44 300.82 158.21 C 293.61 158.04 286.39 158.00 279.17 158.25 C 278.99 160.47 278.82 162.70 278.65 164.92 C 275.19 165.18 271.71 165.19 268.26 164.94 C 268.07 162.68 267.88 160.42 267.70 158.16 C 263.78 158.07 259.86 158.05 255.94 158.08 C 256.96 154.72 258.62 151.60 260.50 148.65 C 262.93 148.72 265.37 148.79 267.80 148.86 C 267.93 146.59 268.06 144.33 268.19 142.06 Z" />
<path fill="#e2b1ff" opacity="1.00" d=" M 262.26 169.17 C 262.71 168.15 262.75 166.49 264.12 166.25 C 267.04 166.13 269.92 166.84 272.79 167.30 C 272.15 170.15 271.55 173.00 271.00 175.87 C 277.31 176.26 283.64 175.92 289.96 176.14 C 291.50 189.16 286.19 201.80 279.18 212.48 C 283.53 215.61 288.10 218.42 292.23 221.84 C 291.14 223.21 290.08 224.60 288.99 225.97 C 280.22 225.99 271.46 226.29 262.69 225.97 C 265.45 219.69 267.33 213.04 268.01 206.20 C 268.95 206.40 269.89 206.63 270.84 206.87 C 274.95 200.48 279.04 193.73 280.26 186.11 C 276.23 185.95 272.13 185.41 268.13 186.18 C 267.18 187.15 266.40 188.26 265.57 189.33 C 264.13 184.79 261.77 180.63 259.27 176.61 C 260.55 174.25 261.51 171.74 262.26 169.17 Z" />
<path fill="#e2b1ff" opacity="1.00" d=" M 296.01 173.12 C 304.67 172.82 313.34 173.09 322.00 173.02 L 322.00 226.12 C 313.30 226.12 304.61 225.96 295.91 225.95 C 295.89 208.34 295.60 190.72 296.01 173.12 M 305.14 182.18 C 305.14 193.44 304.99 204.70 305.21 215.96 C 310.43 216.31 315.66 216.30 320.89 215.97 C 320.92 204.70 320.94 193.43 320.87 182.16 C 315.62 181.87 310.38 181.93 305.14 182.18 Z" />
</g>
<g id="#ecf0f1ff">
<path fill="#ecf0f1" opacity="1.00" d=" M 144.35 155.14 C 160.38 155.18 176.41 155.16 192.44 155.11 C 192.43 157.66 192.42 160.22 192.42 162.78 C 201.65 163.52 210.54 169.39 213.51 178.37 C 218.72 194.11 223.72 209.92 228.74 225.71 C 223.51 226.10 218.27 226.14 213.03 226.05 C 177.86 226.03 142.68 226.07 107.51 226.00 C 112.32 210.68 117.34 195.43 122.19 180.12 C 125.21 170.50 134.38 163.58 144.36 162.74 C 144.34 160.21 144.33 157.67 144.35 155.14 Z" />
</g>
</svg>
