<svg height="258pt" viewBox="0 0 322 258" width="322pt" xmlns="http://www.w3.org/2000/svg"><path d="m129.78 21.41c12.49-2.54 25.67-.06 36.87 5.85 4.91 2.26 8.91 5.96 13.56 8.64 11.5-7.8 26.88-10.29 39.93-5.06 11.01 4.24 19.27 14.09 22.85 25.19 2.97 8.13 2.09 16.99 4.37 25.27.42 1.62.92 3.22 1.46 4.8 3.82 9.85 11.01 17.86 15.7 27.25 5.39 11.37 3.33 25.27-4.02 35.3-1.88 2.95-3.54 6.07-4.56 9.43-1.83 6.31-.2 13.12 3.33 18.53 2.5 4.02 4.86 8.18 6.3 12.72 1.69 5.44 2.64 11.16 2.44 16.87-.68 6.84-2.56 13.49-5.32 19.77-11.31-.15-22.65.42-33.95-.26-5.02-15.79-10.02-31.6-15.23-47.34-2.97-8.98-11.86-14.85-21.09-15.59 0-2.56.01-5.12.02-7.67 6.52-.18 13.46.91 19.53-2.1 8.55-3.74 14.48-12.69 14.4-22.05.11-16.84-.08-33.67.06-50.51-4.38-.12-8.77-.12-13.16-.11-3.9-4.23-8.7-7.86-14.38-9.24-9.68-2.74-20.71 1.1-26.71 9.14-1.86.03-3.71.06-5.56.09-6.84-8.92-19.69-12.82-30.08-8.08-.59-2.71-1.22-5.42-1.92-8.11-2.05 4.01-4.01 8.07-6.19 12-1.02 1.31-2.12 2.55-3.23 3.78-4.98.68-10.01.38-15.02.44l-.98.04c-.54 6.88-.07 13.78-.2 20.67.02 10.98-.21 21.97.25 32.95.24-.33.72-.98.96-1.31.99 8.49 6.23 16.47 14.06 20.09 6.2 3.19 13.37 2.17 20.08 2.34-.02 2.53-.01 5.07.01 7.6-9.98.84-19.15 7.76-22.17 17.38-4.85 15.31-9.87 30.56-14.68 45.88-11.41-.01-22.83.02-34.24-.01-3.16-7.6-5.58-15.72-5.25-24.03.38-5.79 1.67-11.54 4.03-16.85 2.62-6.26 7.67-11.47 8.55-18.42 1.28-7.58-2.7-14.6-6.71-20.69-6.69-10.13-7.27-23.96-1.43-34.6 4.7-8.55 11.18-16.14 14.7-25.31.56-1.57 1.04-3.15 1.49-4.75 1.08-4 1.54-8.13 1.93-12.24.74-9.46 3.57-18.84 8.59-26.92 6.6-10.88 18.09-18.6 30.61-20.77z" fill="#9961ff"/><path d="m134.62 64.14c.7 2.69 1.33 5.4 1.92 8.11-2.68 1.36-5.33 2.75-8.11 3.89 2.18-3.93 4.14-7.99 6.19-12z" fill="#fde1d7"/><path d="m136.54 72.25c10.39-4.74 23.24-.84 30.08 8.08 1 1.13 1.99 2.27 2.97 3.42.85-1.18 1.7-2.36 2.59-3.51 6-8.04 17.03-11.88 26.71-9.14 5.68 1.38 10.48 5.01 14.38 9.24 5.34 6.78 7.58 16.15 5.53 24.59-2.71 13.61-17.9 23.44-31.43 19.53-4.86-1.62-11.48-3.44-12.16-9.46-1.07-3.83-3.55-7-5.7-10.25-2.19 2.89-4.47 5.82-5.61 9.31-.94 6.83-8.27 9.26-14.02 10.74-13.75 3.02-28.09-7.49-30.35-21.16-1.74-8.39 1.51-16.59 5.67-23.72 1.11-1.23 2.21-2.47 3.23-3.78 2.78-1.14 5.43-2.53 8.11-3.89m41.15 14.28c-4.01 5.4-4.47 12.68-2.26 18.9 1.56 3.26 3.89 6.03 6.62 8.37 3.61 2.12 7.71 3.62 11.96 3.26 9.79-.3 18.05-9.31 18.07-19 .33-4.82-1.92-9.24-4.43-13.18l-.24.08c-2.8-3.08-6.45-5.43-10.59-6.18-7.19-1.33-14.98 1.68-19.13 7.75m-43.28-3.31c-7.17 5.02-9.41 14.9-6.62 22.95 1.59 3.27 3.83 6.15 6.51 8.6l.12-.17c5.81 4.16 14.03 4.75 20.23 1.1 6.01-3.23 9.79-9.9 9.97-16.66.12-4.85-1.8-9.46-4.71-13.27-2.89-2.96-6.53-5.01-10.51-6.13-5.21-.46-10.78.22-14.99 3.58z" fill="#fffefe"/><path d="m177.69 86.53c4.15-6.07 11.94-9.08 19.13-7.75-1.92 1.79-3.78 3.74-4.92 6.13-2.52 4.85-1.2 10.47-2.12 15.66-2.85.14-5.73.03-8.51.71-2.42.57-4.09 2.54-5.84 4.15-2.21-6.22-1.75-13.5 2.26-18.9m5.65-.32c-2.02 1.7-4.54 3.89-4.28 6.79.1 2.79 4.24 4.32 5.95 1.96 1.64-2.03 4.51-3.96 3.92-6.93-.68-2.26-3.74-3.47-5.59-1.82z" fill="#ff9601"/><path d="m196.82 78.78c4.14.75 7.79 3.1 10.59 6.18-3.26.61-5.82 2.69-7.58 5.43-.1-.46-.31-1.36-.41-1.82-.42 3.6-1.67 7.2-5.03 9.05 2.08 1.05 4.08 2.33 5.42 4.28-1.46 2.67-3.01 5.54-5.78 7.08-2.96 1.9-6.62 1.34-9.93 1.92-.81.87-1.49 1.84-2.05 2.9-2.73-2.34-5.06-5.11-6.62-8.37 1.75-1.61 3.42-3.58 5.84-4.15 2.78-.68 5.66-.57 8.51-.71.92-5.19-.4-10.81 2.12-15.66 1.14-2.39 3-4.34 4.92-6.13m-5.49 23.57c-3.6 1.48.29 7.42 3 4.99 2.37-1.75-.48-5.87-3-4.99z" fill="#52db71"/><path d="m109.2 80.4.98-.04c.07 17.45-.02 34.9.03 52.35-.24.33-.72.98-.96 1.31-.46-10.98-.23-21.97-.25-32.95.13-6.89-.34-13.79.2-20.67z" fill="#874cfa"/><path d="m110.18 80.36c5.01-.06 10.04.24 15.02-.44-4.16 7.13-7.41 15.33-5.67 23.72 2.26 13.67 16.6 24.18 30.35 21.16 5.75-1.48 13.08-3.91 14.02-10.74-.34 2.04-.5 4.39 1.03 6.02 2.12 2.96 6.93 2.72 9.11-.02 1.17-1.41 1.01-3.36 1.17-5.06.68 6.02 7.3 7.84 12.16 9.46 13.53 3.91 28.72-5.92 31.43-19.53 2.05-8.44-.19-17.81-5.53-24.59 4.39-.01 8.78-.01 13.16.11-.14 16.84.05 33.67-.06 50.51.08 9.36-5.85 18.31-14.4 22.05-6.07 3.01-13.01 1.92-19.53 2.1-16.03.05-32.06.07-48.09.03-6.71-.17-13.88.85-20.08-2.34-7.83-3.62-13.07-11.6-14.06-20.09-.05-17.45.04-34.9-.03-52.35m41.72 45.73c.21 1.33-.1 2.86.97 3.9 4.56 5.93 12.76 8.57 19.95 6.87 1.56-.33 1.33-2.47.84-3.59-3.11-1-6.51-.2-9.65-1.13-4.02-.7-6.69-4.01-9.33-6.8-.93.25-1.86.5-2.78.75z" fill="#fee2d6"/><path d="m134.41 83.22c4.21-3.36 9.78-4.04 14.99-3.58-2.39 2.58-4.98 5.23-5.93 8.72-1.07 4.14-.69 8.45-.72 12.68-3.12.5-6.29.7-9.38 1.41-2.12.78-3.78 2.4-5.58 3.72-2.79-8.05-.55-17.93 6.62-22.95m-2.84 9.84c-.61 2.96 3.53 5.49 5.7 3.21 2.22-2.44 5.65-5.39 3.5-8.98-4.17-2.63-8.11 2.1-9.2 5.77z" fill="#d73133"/><path d="m149.4 79.64c3.98 1.12 7.62 3.17 10.51 6.13-3.04 1.02-5.76 2.76-7.68 5.36-.2-.7-.37-1.4-.54-2.11-.04 3.81-1.23 7.72-4.79 9.62 2.39.96 4.48 2.57 5.74 4.85-1.33 2.06-2.81 4.12-5.28 4.87.16-.61.48-1.82.64-2.43-1.16-1.38-2.68-2.39-4.21-3.33-.71 1.64-2.31 3.48-.57 5.08 1.02 1 2.58.98 3.85 1.48-2.96 2.64-7.15 2.43-10.84 2.92-.45.63-1.36 1.89-1.81 2.52l-.12.17c-2.68-2.45-4.92-5.33-6.51-8.6 1.8-1.32 3.46-2.94 5.58-3.72 3.09-.71 6.26-.91 9.38-1.41.03-4.23-.35-8.54.72-12.68.95-3.49 3.54-6.14 5.93-8.72z" fill="#f7661a"/><path d="m166.62 80.33c1.85-.03 3.7-.06 5.56-.09-.89 1.15-1.74 2.33-2.59 3.51-.98-1.15-1.97-2.29-2.97-3.42z" fill="#e8d2dd"/><path d="m88.06 81.96c.14-.16.44-.47.59-.62-.45 1.6-.93 3.18-1.49 4.75-18.04-.18-36.09-.06-54.14-.09-6-.07-12.06 1.58-16.93 5.16-8.39 5.85-13.12 16.55-11.55 26.71 2.32 16.24 4.63 32.5 6.96 48.74.75 5.38 1.39 10.79 2.89 16.02 3.92 13.83 13.07 26.08 25.18 33.81 9.91 6.53 21.85 9.77 33.7 9.55 11.41.03 22.83 0 34.24.01 35.17.07 70.35.03 105.52.05 5.24.09 10.48.05 15.71-.34 11.3.68 22.64.11 33.95.26 8.77.32 17.53.02 26.3 0 2.3 0 4.61-.01 6.92-.02 8.7.01 17.39.17 26.09.17v3.96c-9.67-.41-19.33.43-29-.06-73.33.05-146.67-.08-220.01-.01-13.03.16-26.13-3.64-36.87-11.07-16.07-10.59-26.34-28.87-28.04-47.95-2.46-17.36-4.97-34.72-7.43-52.08-.7-4.82-.41-9.79 1.08-14.44 3.76-12.68 16.05-22.12 29.29-22.43 19.01-.13 38.02.06 57.04-.08z" fill="#f3e0fe"/><path d="m247.36 81.3c.15.17.44.5.59.66 24.68.1 49.37.01 74.05.04v4c-24.39.06-48.79-.12-73.18.1-.54-1.58-1.04-3.18-1.46-4.8z" fill="#f3e0fe"/><path d="m199.83 90.39c1.76-2.74 4.32-4.82 7.58-5.43l.24-.08c2.51 3.94 4.76 8.36 4.43 13.18-.02 9.69-8.28 18.7-18.07 19-4.25.36-8.35-1.14-11.96-3.26.56-1.06 1.24-2.03 2.05-2.9 3.31-.58 6.97-.02 9.93-1.92 2.77-1.54 4.32-4.41 5.78-7.08.48 1.05.93 2.13 1.38 3.2.44-3.53 1.84-6.91 4.99-8.81-3.12-.64-5.7-2.68-6.35-5.9z" fill="#715ed8"/><g fill="#db9dff"><path d="m16.09 91.16c4.87-3.58 10.93-5.23 16.93-5.16 18.05.03 36.1-.09 54.14.09-3.52 9.17-10 16.76-14.7 25.31-5.84 10.64-5.26 24.47 1.43 34.6 4.01 6.09 7.99 13.11 6.71 20.69-.88 6.95-5.93 12.16-8.55 18.42-2.36 5.31-3.65 11.06-4.03 16.85-.33 8.31 2.09 16.43 5.25 24.03-11.85.22-23.79-3.02-33.7-9.55-12.11-7.73-21.26-19.98-25.18-33.81-1.5-5.23-2.14-10.64-2.89-16.02-2.33-16.24-4.64-32.5-6.96-48.74-1.57-10.16 3.16-20.86 11.55-26.71z"/><path d="m248.82 86.1c24.39-.22 48.79-.04 73.18-.1v63.02c-3.23-.06-6.46-.14-9.69-.25-.18-2.23-.37-4.46-.55-6.69-3.46-.14-6.93-.14-10.39.01-.14 2.24-.29 4.48-.43 6.72-7.27.17-14.54.18-21.81.03-.15-2.23-.31-4.45-.46-6.68-3.49-.17-6.99-.21-10.48-.1-.13 2.27-.26 4.53-.39 6.8-2.43-.07-4.87-.14-7.3-.21 7.35-10.03 9.41-23.93 4.02-35.3-4.69-9.39-11.88-17.4-15.7-27.25z"/><path d="m255.94 158.08c3.92-.03 7.84-.01 11.76.08.18 2.26.37 4.52.56 6.78 3.45.25 6.93.24 10.39-.02.17-2.22.34-4.45.52-6.67 7.22-.25 14.44-.21 21.65-.04.19 2.23.37 4.47.56 6.7 3.45.24 6.92.27 10.38.08.16-2.28.32-4.55.49-6.83 3.25-.05 6.5-.07 9.75-.06v14.92c-8.66.07-17.33-.2-25.99.1-.41 17.6-.12 35.22-.1 52.83-2.31.01-4.62.02-6.92.02 1.09-1.37 2.15-2.76 3.24-4.13-4.13-3.42-8.7-6.23-13.05-9.36 7.01-10.68 12.32-23.32 10.78-36.34-6.32-.22-12.65.12-18.96-.27.55-2.87 1.15-5.72 1.79-8.57-2.87-.46-5.75-1.17-8.67-1.05-1.37.24-1.41 1.9-1.86 2.92-.75 2.57-1.71 5.08-2.99 7.44-3.53-5.41-5.16-12.22-3.33-18.53z"/><path d="m305.14 182.18c5.24-.25 10.48-.31 15.73-.02.07 11.27.05 22.54.02 33.81-5.23.33-10.46.34-15.68-.01-.22-11.26-.07-22.52-.07-33.78z"/><path d="m265.57 189.33c.83-1.07 1.61-2.18 2.56-3.15 4-.77 8.1-.23 12.13-.07-1.22 7.62-5.31 14.37-9.42 20.76-.95-.24-1.89-.47-2.83-.67.2-5.71-.75-11.43-2.44-16.87z"/></g><path d="m131.57 93.06c1.09-3.67 5.03-8.4 9.2-5.77 2.15 3.59-1.28 6.54-3.5 8.98-2.17 2.28-6.31-.25-5.7-3.21z" fill="#fefefe"/><path d="m152.23 91.13c1.92-2.6 4.64-4.34 7.68-5.36 2.91 3.81 4.83 8.42 4.71 13.27-.18 6.76-3.96 13.43-9.97 16.66-6.2 3.65-14.42 3.06-20.23-1.1.45-.63 1.36-1.89 1.81-2.52 3.69-.49 7.88-.28 10.84-2.92.07-.2.22-.6.29-.8 2.47-.75 3.95-2.81 5.28-4.87.23.7.68 2.11.91 2.81.64-3.55 1.92-7.13 5.23-9.02-3.25-.65-5.85-2.84-6.55-6.15z" fill="#ff9700"/><path d="m183.34 86.21c1.85-1.65 4.91-.44 5.59 1.82.59 2.97-2.28 4.9-3.92 6.93-1.71 2.36-5.85.83-5.95-1.96-.26-2.9 2.26-5.09 4.28-6.79z" fill="#fffdff"/><path d="m191.33 102.35c2.52-.88 5.37 3.24 3 4.99-2.71 2.43-6.6-3.51-3-4.99z" fill="#fffdff"/><path d="m151.69 89.02c.17.71.34 1.41.54 2.11.7 3.31 3.3 5.5 6.55 6.15-3.31 1.89-4.59 5.47-5.23 9.02-.23-.7-.68-2.11-.91-2.81-1.26-2.28-3.35-3.89-5.74-4.85 3.56-1.9 4.75-5.81 4.79-9.62z" fill="#fbffff"/><path d="m199.42 88.57c.1.46.31 1.36.41 1.82.65 3.22 3.23 5.26 6.35 5.9-3.15 1.9-4.55 5.28-4.99 8.81-.45-1.07-.9-2.15-1.38-3.2-1.34-1.95-3.34-3.23-5.42-4.28 3.36-1.85 4.61-5.45 5.03-9.05z" fill="#fefffe"/><path d="m143.22 107.68c-1.74-1.6-.14-3.44.57-5.08 1.53.94 3.05 1.95 4.21 3.33-.16.61-.48 1.82-.64 2.43-.07.2-.22.6-.29.8-1.27-.5-2.83-.48-3.85-1.48z" fill="#fbfffd"/><path d="m163.9 114.06c1.14-3.49 3.42-6.42 5.61-9.31 2.15 3.25 4.63 6.42 5.7 10.25-.16 1.7 0 3.65-1.17 5.06-2.18 2.74-6.99 2.98-9.11.02-1.53-1.63-1.37-3.98-1.03-6.02z" fill="#f6ac93"/><path d="m151.9 126.09c.92-.25 1.85-.5 2.78-.75 2.64 2.79 5.31 6.1 9.33 6.8 3.14.93 6.54.13 9.65 1.13.49 1.12.72 3.26-.84 3.59-7.19 1.7-15.39-.94-19.95-6.87-1.07-1.04-.76-2.57-.97-3.9z" fill="#f7ad93"/><path d="m268.19 142.06c3.49-.11 6.99-.07 10.48.1.15 2.23.31 4.45.46 6.68 7.27.15 14.54.14 21.81-.03.14-2.24.29-4.48.43-6.72 3.46-.15 6.93-.15 10.39-.01.18 2.23.37 4.46.55 6.69 3.23.11 6.46.19 9.69.25v9.08c-3.25-.01-6.5.01-9.75.06-.17 2.28-.33 4.55-.49 6.83-3.46.19-6.93.16-10.38-.08-.19-2.23-.37-4.47-.56-6.7-7.21-.17-14.43-.21-21.65.04-.18 2.22-.35 4.45-.52 6.67-3.46.26-6.94.27-10.39.02-.19-2.26-.38-4.52-.56-6.78-3.92-.09-7.84-.11-11.76-.08 1.02-3.36 2.68-6.48 4.56-9.43 2.43.07 4.87.14 7.3.21.13-2.27.26-4.53.39-6.8z" fill="#e2b1ff"/><path d="m262.26 169.17c.45-1.02.49-2.68 1.86-2.92 2.92-.12 5.8.59 8.67 1.05-.64 2.85-1.24 5.7-1.79 8.57 6.31.39 12.64.05 18.96.27 1.54 13.02-3.77 25.66-10.78 36.34 4.35 3.13 8.92 5.94 13.05 9.36-1.09 1.37-2.15 2.76-3.24 4.13-8.77.02-17.53.32-26.3 0 2.76-6.28 4.64-12.93 5.32-19.77.94.2 1.88.43 2.83.67 4.11-6.39 8.2-13.14 9.42-20.76-4.03-.16-8.13-.7-12.13.07-.95.97-1.73 2.08-2.56 3.15-1.44-4.54-3.8-8.7-6.3-12.72 1.28-2.36 2.24-4.87 2.99-7.44z" fill="#e2b1ff"/><path d="m296.01 173.12c8.66-.3 17.33-.03 25.99-.1v53.1c-8.7 0-17.39-.16-26.09-.17-.02-17.61-.31-35.23.1-52.83m9.13 9.06c0 11.26-.15 22.52.07 33.78 5.22.35 10.45.34 15.68.01.03-11.27.05-22.54-.02-33.81-5.25-.29-10.49-.23-15.73.02z" fill="#e2b1ff"/><path d="m144.35 155.14c16.03.04 32.06.02 48.09-.03-.01 2.55-.02 5.11-.02 7.67 9.23.74 18.12 6.61 21.09 15.59 5.21 15.74 10.21 31.55 15.23 47.34-5.23.39-10.47.43-15.71.34-35.17-.02-70.35.02-105.52-.05 4.81-15.32 9.83-30.57 14.68-45.88 3.02-9.62 12.19-16.54 22.17-17.38-.02-2.53-.03-5.07-.01-7.6z" fill="#ecf0f1"/></svg>