<?xml version="1.0" encoding="UTF-8" ?>
<!DOCTYPE svg PUBLIC "-//W3C//DTD SVG 1.1//EN" "http://www.w3.org/Graphics/SVG/1.1/DTD/svg11.dtd">
<svg width="700pt" height="700pt" viewBox="0 0 700 700" version="1.1" xmlns="http://www.w3.org/2000/svg">
<g id="#1552a1ff">
<path fill="#1552a1" opacity="1.00" d=" M 0.00 0.00 L 0.25 0.00 C 0.19 0.06 0.06 0.19 0.00 0.25 L 0.00 0.00 Z" />
<path fill="#1552a1" opacity="1.00" d=" M 199.23 253.55 C 201.80 249.11 205.95 245.18 211.24 244.55 C 217.99 243.88 224.80 244.32 231.58 244.18 C 260.41 244.46 289.23 244.49 318.06 244.42 C 327.04 244.32 335.94 248.42 341.84 255.15 C 346.81 260.81 349.18 268.26 349.49 275.70 C 353.64 275.75 357.79 275.81 361.94 275.74 C 362.46 270.37 363.31 264.85 366.09 260.14 C 371.51 250.66 382.07 244.48 393.01 244.47 C 407.67 244.40 422.33 244.48 437.00 244.45 C 458.43 244.58 479.88 243.84 501.30 244.51 C 506.91 246.17 511.30 250.59 513.17 256.11 C 514.09 261.40 513.23 267.30 509.18 271.15 C 504.86 276.09 497.84 276.30 491.78 276.58 C 489.83 286.20 489.73 296.11 487.52 305.68 C 484.42 317.76 474.17 327.12 462.20 330.13 C 461.76 330.22 460.88 330.39 460.44 330.48 C 440.32 331.14 420.17 330.65 400.04 330.75 C 384.79 331.08 370.43 319.37 367.31 304.52 C 366.58 302.01 366.47 299.21 365.01 296.99 C 359.79 292.91 351.10 292.49 346.32 297.45 C 344.82 300.94 344.54 304.81 343.20 308.36 C 338.74 321.30 325.79 330.92 311.98 330.74 C 295.32 330.85 278.66 330.71 262.00 330.79 C 257.66 330.79 253.27 330.85 249.00 329.96 C 236.96 327.02 226.73 317.31 223.87 305.14 C 221.75 295.66 221.47 285.89 219.86 276.32 C 214.27 276.25 208.00 276.37 203.51 272.48 C 198.11 267.93 196.84 259.98 199.23 253.55 M 212.43 254.46 C 207.70 255.33 206.19 262.12 209.97 264.99 C 213.66 267.96 220.17 265.00 219.71 260.08 C 220.05 256.28 215.93 253.44 212.43 254.46 M 296.49 254.25 L 296.45 254.85 C 280.30 254.61 264.14 254.82 247.99 254.74 C 238.18 254.03 229.09 263.20 230.01 273.03 C 230.90 282.25 232.15 291.45 233.42 300.63 C 235.08 311.86 245.70 320.74 257.02 320.63 C 274.67 320.80 292.32 320.66 309.98 320.70 C 316.73 320.73 323.71 318.40 328.22 313.18 C 332.81 309.12 334.35 302.91 335.33 297.11 C 336.61 289.76 338.61 282.48 338.92 275.00 C 339.13 264.35 329.67 254.70 318.97 254.87 L 318.72 254.23 C 311.31 254.44 303.90 254.41 296.49 254.25 M 496.41 254.42 C 490.40 255.10 490.36 264.98 496.03 266.06 C 500.61 267.62 505.44 262.05 503.27 257.78 C 502.32 255.05 499.09 253.81 496.41 254.42 M 373.56 268.73 C 371.13 276.05 373.81 283.61 375.02 290.89 C 376.46 297.91 376.88 305.68 381.65 311.44 C 386.20 317.35 393.50 320.67 400.92 320.65 C 418.30 320.81 435.68 320.66 453.05 320.72 C 461.46 320.93 470.11 316.88 474.62 309.66 C 479.20 302.29 478.82 293.26 480.14 284.96 C 480.76 277.93 483.18 270.18 479.35 263.64 C 476.54 257.99 470.20 254.74 464.01 254.76 C 453.92 254.76 443.82 254.67 433.73 254.83 C 426.24 254.90 418.74 254.73 411.25 254.92 C 404.83 254.66 398.40 254.69 391.97 254.81 C 383.75 255.21 376.15 260.90 373.56 268.73 M 260.66 321.37 C 261.98 322.05 263.47 322.17 264.94 322.13 C 278.29 321.94 291.64 322.11 304.99 322.09 C 307.76 322.00 310.69 322.55 313.31 321.38 C 295.76 321.25 278.20 321.27 260.66 321.37 Z" />
</g>
<g id="#563629ff">
<path fill="#563629" opacity="1.00" d=" M 381.04 45.81 C 386.05 45.77 391.03 44.66 396.03 45.33 C 401.67 45.98 407.56 44.85 412.99 46.93 C 415.42 47.75 418.02 47.93 420.47 48.70 C 424.15 50.03 427.31 52.39 430.82 54.09 C 436.37 56.58 440.45 61.23 445.22 64.87 C 449.43 69.42 453.53 74.23 455.89 80.05 C 460.67 88.73 465.46 97.83 466.01 107.94 C 466.45 117.36 466.96 127.09 464.06 136.19 C 462.99 141.75 460.05 146.64 457.55 151.64 C 455.92 154.99 452.83 157.71 452.72 161.66 C 451.43 161.53 450.15 161.43 448.87 161.35 C 427.58 161.01 406.28 161.31 385.00 161.21 C 342.56 161.26 300.12 161.11 257.69 161.29 C 256.63 148.97 260.84 136.78 267.70 126.68 C 270.36 123.34 274.02 121.03 277.04 118.05 C 281.14 113.79 286.65 111.38 291.99 109.10 C 300.44 106.58 309.73 104.31 318.35 107.36 C 320.08 107.72 321.87 107.70 323.64 107.82 C 324.12 97.83 326.49 87.54 332.33 79.24 C 334.92 75.04 337.36 70.59 341.30 67.47 C 345.98 63.05 350.91 58.92 356.14 55.17 C 360.40 52.21 365.36 50.52 369.79 47.85 C 373.14 45.75 377.28 46.30 381.04 45.81 Z" />
</g>
<g id="#ffcba3ff">
<path fill="#ffcba3" opacity="1.00" d=" M 255.05 161.64 C 255.93 161.49 256.80 161.37 257.69 161.29 C 300.12 161.11 342.56 161.26 385.00 161.21 C 406.28 161.31 427.58 161.01 448.87 161.35 C 449.44 161.55 450.59 161.95 451.16 162.16 C 451.56 177.10 450.51 192.10 452.13 207.00 C 454.28 220.79 462.06 233.43 473.00 242.01 C 475.85 244.17 479.59 244.00 482.98 244.08 C 489.08 244.19 495.27 243.19 501.30 244.51 C 479.88 243.84 458.43 244.58 437.00 244.45 C 422.33 244.48 407.67 244.40 393.01 244.47 C 382.07 244.48 371.51 250.66 366.09 260.14 C 363.31 264.85 362.46 270.37 361.94 275.74 C 357.79 275.81 353.64 275.75 349.49 275.70 C 349.18 268.26 346.81 260.81 341.84 255.15 C 335.94 248.42 327.04 244.32 318.06 244.42 C 289.23 244.49 260.41 244.46 231.58 244.18 C 235.61 239.67 240.59 236.03 244.03 231.00 C 247.55 225.94 251.01 220.64 252.62 214.62 C 254.44 208.25 255.27 201.62 255.14 194.99 C 254.99 183.88 255.25 172.76 255.05 161.64 Z" />
<path fill="#ffcba3" opacity="1.00" d=" M 188.26 253.52 C 191.86 252.58 195.60 252.99 199.23 253.55 C 196.84 259.98 198.11 267.93 203.51 272.48 C 208.00 276.37 214.27 276.25 219.86 276.32 C 221.47 285.89 221.75 295.66 223.87 305.14 C 226.73 317.31 236.96 327.02 249.00 329.96 C 253.27 330.85 257.66 330.79 262.00 330.79 C 278.66 330.71 295.32 330.85 311.98 330.74 C 325.79 330.92 338.74 321.30 343.20 308.36 C 344.54 304.81 344.82 300.94 346.32 297.45 C 351.10 292.49 359.79 292.91 365.01 296.99 C 366.47 299.21 366.58 302.01 367.31 304.52 C 370.43 319.37 384.79 331.08 400.04 330.75 C 420.17 330.65 440.32 331.14 460.44 330.48 C 453.69 331.70 446.81 330.79 440.00 331.04 C 425.19 331.24 410.36 330.62 395.57 331.42 C 398.32 332.08 401.16 332.28 403.99 332.21 C 423.52 332.03 443.06 332.49 462.58 331.96 C 462.49 331.50 462.29 330.59 462.20 330.13 C 474.17 327.12 484.42 317.76 487.52 305.68 C 489.73 296.11 489.83 286.20 491.78 276.58 C 497.84 276.30 504.86 276.09 509.18 271.15 C 513.23 267.30 514.09 261.40 513.17 256.11 C 513.09 255.35 512.91 253.84 512.83 253.08 C 515.20 253.33 517.59 253.55 519.98 253.65 C 524.93 253.97 530.13 253.06 534.81 255.17 C 543.73 257.71 550.72 265.11 554.36 273.46 C 557.57 280.18 556.32 287.84 556.28 295.02 C 554.77 301.05 551.62 306.81 547.02 311.06 C 542.83 315.26 537.23 317.53 531.74 319.48 C 526.53 320.38 521.19 319.20 515.97 320.16 C 515.19 325.74 515.68 331.39 515.57 337.00 C 515.46 354.67 515.82 372.36 515.34 390.03 C 514.17 396.56 512.33 403.00 510.02 409.23 C 506.16 416.90 502.15 424.83 495.52 430.51 C 486.00 441.13 472.48 447.32 458.72 450.16 C 452.42 450.93 445.89 449.56 439.74 451.42 C 386.83 451.71 333.91 451.46 281.00 451.54 C 276.12 451.43 271.22 451.84 266.36 451.30 C 265.26 450.98 264.20 450.38 263.02 450.44 C 254.63 450.26 245.94 451.09 237.89 448.21 C 215.91 442.33 198.30 424.09 191.56 402.57 C 189.53 397.18 189.92 391.31 188.48 385.79 C 188.15 365.19 188.59 344.58 188.34 323.98 C 188.29 322.39 187.88 320.85 187.56 319.32 C 180.07 320.06 172.27 320.54 165.01 318.15 C 160.87 317.72 157.97 314.45 154.71 312.22 C 148.80 307.91 145.50 301.01 143.75 294.08 C 142.37 283.69 143.97 272.23 151.14 264.14 C 154.61 259.67 159.86 257.29 164.88 255.03 C 172.41 252.32 180.55 254.38 188.26 253.52 M 341.03 330.01 C 338.53 335.23 337.80 341.80 341.14 346.83 C 344.18 352.17 350.21 355.03 356.15 355.53 C 367.40 355.57 376.71 341.90 371.36 331.65 C 369.19 326.96 366.88 322.31 363.99 318.01 C 361.36 314.24 359.65 309.75 355.98 306.81 C 349.87 313.73 344.95 321.67 341.03 330.01 M 252.18 331.21 L 252.12 331.99 C 271.41 332.31 290.71 332.20 310.00 332.14 C 312.46 332.19 314.91 331.92 317.32 331.43 C 312.23 330.89 307.11 331.12 302.00 331.05 C 285.39 331.04 268.78 330.99 252.18 331.21 M 297.33 350.31 C 294.05 351.58 291.75 355.89 293.81 359.11 C 299.77 370.55 312.02 376.95 323.69 381.16 C 332.58 382.88 342.06 384.55 350.95 382.06 C 356.18 380.50 356.67 372.45 351.62 370.34 C 344.59 369.42 337.38 371.02 330.38 369.43 C 323.34 367.77 316.38 364.90 310.88 360.11 C 308.15 357.81 306.30 354.71 303.93 352.07 C 302.34 350.26 299.60 349.64 297.33 350.31 Z" />
</g>
<g id="#ce9d7dff">
<path fill="#ce9d7d" opacity="1.00" d=" M 448.87 161.35 C 450.15 161.43 451.43 161.53 452.72 161.66 C 460.04 162.35 467.47 163.70 474.05 167.13 C 479.17 169.87 484.86 171.75 489.13 175.86 C 495.03 180.60 500.21 186.23 504.60 192.39 C 507.04 197.57 509.70 202.66 512.22 207.81 C 513.85 214.09 515.95 220.42 515.69 227.00 C 515.74 235.24 515.40 243.52 516.22 251.74 C 517.50 252.32 518.76 252.94 519.98 253.65 C 517.59 253.55 515.20 253.33 512.83 253.08 C 512.91 253.84 513.09 255.35 513.17 256.11 C 511.30 250.59 506.91 246.17 501.30 244.51 C 495.27 243.19 489.08 244.19 482.98 244.08 C 479.59 244.00 475.85 244.17 473.00 242.01 C 462.06 233.43 454.28 220.79 452.13 207.00 C 450.51 192.10 451.56 177.10 451.16 162.16 C 450.59 161.95 449.44 161.55 448.87 161.35 Z" />
</g>
<g id="#cc9d7eff">
<path fill="#cc9d7e" opacity="1.00" d=" M 245.30 162.33 C 248.51 161.66 251.81 161.99 255.05 161.64 C 255.25 172.76 254.99 183.88 255.14 194.99 C 255.27 201.62 254.44 208.25 252.62 214.62 C 251.01 220.64 247.55 225.94 244.03 231.00 C 240.59 236.03 235.61 239.67 231.58 244.18 C 224.80 244.32 217.99 243.88 211.24 244.55 C 205.95 245.18 201.80 249.11 199.23 253.55 C 195.60 252.99 191.86 252.58 188.26 253.52 C 188.31 242.05 187.94 230.55 188.67 219.09 C 191.33 209.15 194.59 199.10 200.60 190.60 C 204.07 186.74 207.12 182.48 211.05 179.05 C 220.67 170.47 232.85 165.26 245.30 162.33 Z" />
</g>
<g id="#83add8ff">
<path fill="#83add8" opacity="1.00" d=" M 212.43 254.46 C 215.93 253.44 220.05 256.28 219.71 260.08 C 220.17 265.00 213.66 267.96 209.97 264.99 C 206.19 262.12 207.70 255.33 212.43 254.46 Z" />
</g>
<g id="#3d3d3dff">
<path fill="#3d3d3d" opacity="1.00" d=" M 296.49 254.25 C 303.90 254.41 311.31 254.44 318.72 254.23 L 318.97 254.87 C 322.70 262.38 321.63 270.90 321.76 278.99 C 321.71 284.59 322.27 290.53 319.69 295.71 C 315.85 304.30 306.46 310.24 297.00 309.41 C 289.02 309.01 281.37 304.27 277.79 297.08 C 273.92 289.91 275.23 281.49 275.00 273.68 C 280.91 274.29 287.11 272.61 291.49 268.50 C 294.87 264.80 296.43 259.80 296.45 254.85 L 296.49 254.25 Z" />
</g>
<g id="#7ea8d6ff">
<path fill="#7ea8d6" opacity="1.00" d=" M 496.41 254.42 C 499.09 253.81 502.32 255.05 503.27 257.78 C 505.44 262.05 500.61 267.62 496.03 266.06 C 490.36 264.98 490.40 255.10 496.41 254.42 Z" />
</g>
<g id="#fefefcff">
<path fill="#fefefc" opacity="1.00" d=" M 230.01 273.03 C 229.09 263.20 238.18 254.03 247.99 254.74 C 264.14 254.82 280.30 254.61 296.45 254.85 C 296.43 259.80 294.87 264.80 291.49 268.50 C 287.11 272.61 280.91 274.29 275.00 273.68 C 275.23 281.49 273.92 289.91 277.79 297.08 C 281.37 304.27 289.02 309.01 297.00 309.41 C 306.46 310.24 315.85 304.30 319.69 295.71 C 322.27 290.53 321.71 284.59 321.76 278.99 C 321.63 270.90 322.70 262.38 318.97 254.87 C 329.67 254.70 339.13 264.35 338.92 275.00 C 338.61 282.48 336.61 289.76 335.33 297.11 C 334.35 302.91 332.81 309.12 328.22 313.18 C 323.71 318.40 316.73 320.73 309.98 320.70 C 292.32 320.66 274.67 320.80 257.02 320.63 C 245.70 320.74 235.08 311.86 233.42 300.63 C 232.15 291.45 230.90 282.25 230.01 273.03 Z" />
</g>
<g id="#ffffffff">
<path fill="#ffffff" opacity="1.00" d=" M 373.56 268.73 C 376.15 260.90 383.75 255.21 391.97 254.81 C 398.40 254.69 404.83 254.66 411.25 254.92 C 410.78 259.88 409.43 265.11 405.51 268.51 C 401.45 272.74 395.37 273.87 389.74 273.54 C 389.87 279.03 389.38 284.54 390.08 290.00 C 391.60 300.53 401.37 309.06 411.99 309.23 C 421.29 309.71 430.82 304.08 434.34 295.35 C 437.62 287.66 436.18 279.11 436.54 271.00 C 436.82 265.46 435.89 259.93 433.73 254.83 C 443.82 254.67 453.92 254.76 464.01 254.76 C 470.20 254.74 476.54 257.99 479.35 263.64 C 483.18 270.18 480.76 277.93 480.14 284.96 C 478.82 293.26 479.20 302.29 474.62 309.66 C 470.11 316.88 461.46 320.93 453.05 320.72 C 435.68 320.66 418.30 320.81 400.92 320.65 C 393.50 320.67 386.20 317.35 381.65 311.44 C 376.88 305.68 376.46 297.91 375.02 290.89 C 373.81 283.61 371.13 276.05 373.56 268.73 Z" />
</g>
<g id="#3e3c3eff">
<path fill="#3e3c3e" opacity="1.00" d=" M 411.25 254.92 C 418.74 254.73 426.24 254.90 433.73 254.83 C 435.89 259.93 436.82 265.46 436.54 271.00 C 436.18 279.11 437.62 287.66 434.34 295.35 C 430.82 304.08 421.29 309.71 411.99 309.23 C 401.37 309.06 391.60 300.53 390.08 290.00 C 389.38 284.54 389.87 279.03 389.74 273.54 C 395.37 273.87 401.45 272.74 405.51 268.51 C 409.43 265.11 410.78 259.88 411.25 254.92 Z" />
</g>
<g id="#f1a078ff">
<path fill="#f1a078" opacity="1.00" d=" M 341.03 330.01 C 344.95 321.67 349.87 313.73 355.98 306.81 C 359.65 309.75 361.36 314.24 363.99 318.01 C 366.88 322.31 369.19 326.96 371.36 331.65 C 376.71 341.90 367.40 355.57 356.15 355.53 C 350.21 355.03 344.18 352.17 341.14 346.83 C 337.80 341.80 338.53 335.23 341.03 330.01 Z" />
</g>
<g id="#2f5186ff">
<path fill="#2f5186" opacity="1.00" d=" M 260.66 321.37 C 278.20 321.27 295.76 321.25 313.31 321.38 C 310.69 322.55 307.76 322.00 304.99 322.09 C 291.64 322.11 278.29 321.94 264.94 322.13 C 263.47 322.17 261.98 322.05 260.66 321.37 Z" />
</g>
<g id="#d1d3e4ff">
<path fill="#d1d3e4" opacity="1.00" d=" M 460.44 330.48 C 460.88 330.39 461.76 330.22 462.20 330.13 C 462.29 330.59 462.49 331.50 462.58 331.96 C 443.06 332.49 423.52 332.03 403.99 332.21 C 401.16 332.28 398.32 332.08 395.57 331.42 C 410.36 330.62 425.19 331.24 440.00 331.04 C 446.81 330.79 453.69 331.70 460.44 330.48 Z" />
</g>
<g id="#d6d3e9ff">
<path fill="#d6d3e9" opacity="1.00" d=" M 252.18 331.21 C 268.78 330.99 285.39 331.04 302.00 331.05 C 307.11 331.12 312.23 330.89 317.32 331.43 C 314.91 331.92 312.46 332.19 310.00 332.14 C 290.71 332.20 271.41 332.31 252.12 331.99 L 252.18 331.21 Z" />
</g>
<g id="#efa07aff">
<path fill="#efa07a" opacity="1.00" d=" M 297.33 350.31 C 299.60 349.64 302.34 350.26 303.93 352.07 C 306.30 354.71 308.15 357.81 310.88 360.11 C 316.38 364.90 323.34 367.77 330.38 369.43 C 337.38 371.02 344.59 369.42 351.62 370.34 C 356.67 372.45 356.18 380.50 350.95 382.06 C 342.06 384.55 332.58 382.88 323.69 381.16 C 312.02 376.95 299.77 370.55 293.81 359.11 C 291.75 355.89 294.05 351.58 297.33 350.31 Z" />
</g>
<g id="#424242ff">
<path fill="#424242" opacity="1.00" d=" M 266.36 451.30 C 271.22 451.84 276.12 451.43 281.00 451.54 C 333.91 451.46 386.83 451.71 439.74 451.42 C 439.68 466.61 439.67 481.81 439.78 497.01 C 445.26 499.44 450.15 502.99 455.64 505.40 C 458.57 506.73 460.80 509.15 463.67 510.59 C 469.02 513.29 472.46 518.50 477.56 521.55 C 484.14 525.40 488.81 531.61 494.80 536.23 C 499.98 540.12 502.88 546.06 507.36 550.62 C 512.30 557.93 517.91 564.77 522.92 572.05 C 528.61 581.12 532.72 591.05 537.38 600.66 C 539.40 604.58 540.09 608.99 541.76 613.05 C 545.28 621.89 546.73 631.28 548.74 640.51 C 549.57 644.88 550.01 649.33 550.05 653.78 C 526.04 654.40 502.01 653.88 478.00 654.05 C 371.25 654.11 264.50 653.94 157.76 654.14 L 156.67 654.16 C 159.56 643.25 161.78 632.20 164.52 621.26 C 167.97 612.35 170.01 602.91 174.41 594.36 C 178.66 586.34 181.94 577.73 187.56 570.51 C 194.52 561.15 199.89 550.52 208.51 542.51 C 216.22 534.19 224.48 526.36 233.66 519.68 C 237.49 516.78 242.17 515.05 245.47 511.45 C 247.46 509.28 250.07 507.88 252.69 506.62 C 257.39 504.35 261.47 500.96 266.31 498.95 C 266.47 483.07 266.38 467.18 266.36 451.30 Z" />
</g>
<g id="#15171821">
<path fill="#151718" opacity="0.13" d=" M 541.76 613.05 C 546.04 618.77 546.70 626.23 548.03 633.04 C 549.78 638.58 550.18 644.39 551.02 650.12 C 551.25 651.60 551.00 653.11 550.74 654.59 C 420.84 654.74 290.92 654.58 161.02 654.66 C 159.92 654.53 158.83 654.36 157.76 654.14 C 264.50 653.94 371.25 654.11 478.00 654.05 C 502.01 653.88 526.04 654.40 550.05 653.78 C 550.01 649.33 549.57 644.88 548.74 640.51 C 546.73 631.28 545.28 621.89 541.76 613.05 Z" />
</g>
</svg>
