<svg height="260pt" viewBox="0 0 322 260" width="322pt" xmlns="http://www.w3.org/2000/svg"><path d="m158.34 18.31c4.68-2.8 10.36-2.28 15.58-2.06 12.78 1.25 22.22 14.34 21.23 26.79-.01 5.16-2.34 9.89-5.14 14.09-22.88-.13-45.76-.17-68.64.01-.59-6.53 2.73-13.06 8.32-16.47 4.25-3.16 9.77-3.21 14.82-2.78.73-8.48 6.69-15.47 13.83-19.58z" fill="#563629"/><path d="m119.77 57.25c.4-.02 1.2-.08 1.6-.11 22.88-.18 45.76-.14 68.64-.01.04 8.57-1.67 18.44 4.26 25.6 3.1 4.45 9.1 3.11 13.71 4.22-9.96-.96-19.99.13-29.98-.24-5.06.26-10.79-1.04-15.21 2.08-3.07 2.07-4.01 5.81-5.07 9.13-1.11-.02-2.23-.04-3.34-.06-1.18-4.27-3.13-9.07-7.78-10.48-5.42-1.3-11.08-.44-16.6-.65-8.67.27-17.38-.71-26.02.2 3.05-.59 6.28-.54 9.17-1.78 3.51-2.31 5.73-6.29 6.62-10.33 1.15-5.79.62-11.75 0-17.57z" fill="#ffcba3"/><path d="m85.29 92.26c3.29-2.54 7.69-2.48 11.64-2.36.94.23 1.87.47 2.8.72.44 1.72.7 3.53 1.55 5.12 1.54 2.06 4.41 2.04 6.67 2.71.69 4.55.52 9.52 3.04 13.55 2.16 3.3 6.04 5.29 9.97 5.28 6.69.09 13.4.17 20.08-.06 4.66-.05 8.91-3.31 10.32-7.72.96-2.15 1.51-5.71 4.64-5.37 3.46-.27 3.86 3.54 4.96 5.92 1.52 4.11 5.66 7 10.02 7.16 6.35.31 12.71.11 19.07.13 3.76.09 7.71-1.16 10.13-4.17 3.48-4.05 3.16-9.75 3.96-14.72 2.26-.67 5.02-.74 6.64-2.69 1.09-1.85 1.13-4.08 1.57-6.13l.75.13c3.03.5 6.39.29 9.04 2.09 6.3 4.03 6.92 14.62.78 19.07-2.87 2.21-6.66 2.21-10.08 2.71-.57 7.44-.04 14.91-.31 22.36-.17 6.84-3.24 13.59-8.44 18.07-4.93 4.43-11.68 5.97-18.15 5.92-20.57.06-41.15.09-61.73-.01-3.35-.14-6.75-.3-10-1.19-6.91-1.81-12.53-7.24-15.36-13.7-1.97-4.41-1.94-9.35-1.95-14.08.09-5.87.09-11.73-.01-17.6-3.96-.3-8.58.33-11.8-2.51-5.73-4.43-5.62-14.32.2-18.63m64.76 27.77c-.43 5.33 7.91 8.47 10.7 3.66 3.66-5.16-1.71-10.58-4.29-14.88-3.13 3.02-5.66 6.87-6.41 11.22m-14.88 3.91c-1.61 1.29-1.47 3.59-.07 4.97 4.88 5.83 13.41 8.48 20.69 6.13.05-.78.16-2.35.21-3.14-3.52-.59-7.09-.82-10.62-1.35-4.16-.89-6.32-5.2-10.21-6.61z" fill="#ffcba3"/><path d="m190.01 57.13c10.82.93 20.42 9.27 22.32 20.04.03 2.94.25 5.88.43 8.82.1 1.26.21 2.52.34 3.77l-.75-.13c-1.48-.86-2.85-1.89-4.37-2.68-4.61-1.11-10.61.23-13.71-4.22-5.93-7.16-4.22-17.03-4.26-25.6z" fill="#ce9d7d"/><path d="m96.72 82.01c-.57-12.76 10.38-24.26 23.05-24.76.62 5.82 1.15 11.78 0 17.57-.89 4.04-3.11 8.02-6.62 10.33-2.89 1.24-6.12 1.19-9.17 1.78-1.61.98-2.88 2.41-4.25 3.69-.93-.25-1.86-.49-2.8-.72-.05-1.32-.1-2.65-.15-3.98-.04-1.3-.07-2.61-.06-3.91z" fill="#cd9d7e"/><path d="m212.33 77.17c.34 1.58.37 3.21.52 4.81 25.74.05 51.48 0 77.23.02 10 .07 19.89 5.11 25.63 13.33 4.92 6.73 6.93 15.43 5.63 23.65-2.35 16.47-4.71 32.95-7.06 49.43-.74 5.05-1.3 10.16-2.74 15.08-3.57 12.47-10.96 23.87-21.05 32.03-11.27 9.3-25.83 14.5-40.43 14.48-51.69.01-103.38-.01-155.07 0-7.98.23-15.97.36-23.96.09-23.68-.39-47.36.26-71.03-.12v-3.93c2.66-.05 5.32-.12 7.98-.15 3.35-.04 6.69-.04 10.04.01 21.04.2 42.08.13 63.12-.02 1.92-.01 3.84.02 5.76.06 45.76.14 91.53.02 137.3.06 13.9-.51 28.13 1.5 41.75-2.12 17.45-4.79 32.37-17.88 39.35-34.59 3.65-8.31 4.38-17.46 5.69-26.34 2.01-14 3.95-28.01 6.05-41.99.98-6.11 1-12.62-1.68-18.33-4.23-9.87-14.57-16.59-25.29-16.6-25.77-.1-51.54.02-77.31-.04-.18-2.94-.4-5.88-.43-8.82z" fill="#c2dcff"/><path d="m0 82c32.24 0 64.48-.01 96.72.01-.01 1.3.02 2.61.06 3.91-32.26.18-64.52.03-96.78.08z" fill="#c2dcff"/><path d="m0 86c32.26-.05 64.52.1 96.78-.08.05 1.33.1 2.66.15 3.98-3.95-.12-8.35-.18-11.64 2.36-5.82 4.31-5.93 14.2-.2 18.63 3.22 2.84 7.84 2.21 11.8 2.51.1 5.87.1 11.73.01 17.6.01 4.73-.02 9.67 1.95 14.08 2.83 6.46 8.45 11.89 15.36 13.7 3.25.89 6.65 1.05 10 1.19.42 5.62.23 11.26.16 16.9-8.73 5.04-17.22 10.97-23.42 19.05-3.36 4.48-6.4 9.22-8.91 14.24-.53-20.64.21-41.29-.4-61.92-7.86-.83-15.76-.44-23.64-.44-7.91 0-15.84-.39-23.73.44 0 2.82.01 5.64.02 8.46 12.24.99 24.53.06 36.8.47.78 5.24.97 10.54.74 15.83-.04 13.33-.05 26.67.03 40 .02 4.3-.27 8.6-.72 12.88-21.04.15-42.08.22-63.12.02.01-21.66.28-43.33-.12-64.99-3.27-.04-6.53-.04-9.8 0-.41 21.65-.12 43.32-.12 64.98-2.66.03-5.32.1-7.98.15zm17.07 61.11c3.83 5.26 7.31 10.75 10.93 16.14 3.09-1.24 6.09-2.69 8.97-4.36-3-5.61-6.32-11.37-11.31-15.44-3.2 0-5.84 2.29-8.59 3.66m9.89 21.92c-.05 2.95-.04 5.91.03 8.87 11.33.53 22.68.03 34.01.25 4.24.12 8.48-.07 12.7-.47.03-2.8.03-5.61 0-8.41-7.53-.98-15.13-.34-22.7-.5-8.01.1-16.04-.27-24.04.26m4.03 20.03c-.06 2.93-.08 5.86-.05 8.79 13.01.28 26.03.2 39.04.05.01-2.96-.01-5.92-.06-8.89-12.97-.31-25.96-.38-38.93.05m-8.07 20c-.08 2.96-.08 5.92 0 8.88 18.05.33 36.12.35 54.16-.01.08-2.96.08-5.91-.01-8.87-18.04-.35-36.1-.34-54.15 0z" fill="#77b2ff"/><path d="m212.76 85.99c25.77.06 51.54-.06 77.31.04 10.72.01 21.06 6.73 25.29 16.6 2.68 5.71 2.66 12.22 1.68 18.33-2.1 13.98-4.04 27.99-6.05 41.99-1.31 8.88-2.04 18.03-5.69 26.34-6.98 16.71-21.9 29.8-39.35 34.59-13.62 3.62-27.85 1.61-41.75 2.12-2.61-13.31-9.32-25.72-18.71-35.47-5.61-5.67-12.28-10.07-19.09-14.11-1.32-5.36-.47-10.98-.46-16.44 6.47.05 13.22-1.49 18.15-5.92 5.2-4.48 8.27-11.23 8.44-18.07.27-7.45-.26-14.92.31-22.36 3.42-.5 7.21-.5 10.08-2.71 6.14-4.45 5.52-15.04-.78-19.07-2.65-1.8-6.01-1.59-9.04-2.09-.13-1.25-.24-2.51-.34-3.77z" fill="#77b2ff"/><path d="m99.73 90.62c1.37-1.28 2.64-2.71 4.25-3.69 8.64-.91 17.35.07 26.02-.2 5.52.21 11.18-.65 16.6.65 4.65 1.41 6.6 6.21 7.78 10.48 1.11.02 2.23.04 3.34.06 1.06-3.32 2-7.06 5.07-9.13 4.42-3.12 10.15-1.82 15.21-2.08 9.99.37 20.02-.72 29.98.24 1.52.79 2.89 1.82 4.37 2.68-.44 2.05-.48 4.28-1.57 6.13-1.62 1.95-4.38 2.02-6.64 2.69-.8 4.97-.48 10.67-3.96 14.72-2.42 3.01-6.37 4.26-10.13 4.17-6.36-.02-12.72.18-19.07-.13-4.36-.16-8.5-3.05-10.02-7.16-1.1-2.38-1.5-6.19-4.96-5.92-3.13-.34-3.68 3.22-4.64 5.37-1.41 4.41-5.66 7.67-10.32 7.72-6.68.23-13.39.15-20.08.06-3.93.01-7.81-1.98-9.97-5.28-2.52-4.03-2.35-9-3.04-13.55-2.26-.67-5.13-.65-6.67-2.71-.85-1.59-1.11-3.4-1.55-5.12m5.52-.46c-1.71.68-1.27 2.66-1.55 4.11 1.47-.25 3.47.22 4.18-1.5.4-1.59-1.08-2.96-2.63-2.61m6.29 6.77c.31 3.64.61 7.32 1.53 10.87.91 3.51 4.45 5.83 7.97 5.92 5.33.22 10.67.01 16.01.11 3.89.27 8.41-.62 10.48-4.3 1.55-3.95 2.28-8.26 2.48-12.48.05-3.82-3.52-6-6.71-7.09-2.6.22-5.21.38-7.82.48-5.81-.2-11.62-.16-17.44-.11-3.54-.26-6.99 2.98-6.5 6.6m55.87-6.32c-3.59.86-6.12 4.73-5.3 8.37.78 3.92.88 8.27 3.24 11.64 3.88 4.57 10.43 2.83 15.65 3.15 5.16-.42 11.19 1.37 15.59-2.17 3.81-3.41 3.08-9.1 3.86-13.7.75-3.26-1.45-6.96-4.85-7.42-3.83-.39-7.69-.04-11.52-.28l.08.66c-2.61-.4-5.24-.57-7.88-.48-2.95.03-5.95-.36-8.87.23m36.77 2.18c.83 2.48 3.42.96 4.98.22-.83-1.1-1.63-2.23-2.34-3.41-1.08.89-3.13 1.4-2.64 3.19z" fill="#1151a3"/><path d="m105.25 90.16c1.55-.35 3.03 1.02 2.63 2.61-.71 1.72-2.71 1.25-4.18 1.5.28-1.45-.16-3.43 1.55-4.11z" fill="#89b3dc"/><path d="m111.54 96.93c-.49-3.62 2.96-6.86 6.5-6.6 5.82-.05 11.63-.09 17.44.11-.76 1.8-1.2 3.91-2.78 5.23-1.68 1.03-3.67 1.33-5.54 1.86.36 3.72.04 8.37 3.63 10.68 4.42 3.45 11.59.9 12.92-4.52.75-4.54.34-9.21-.41-13.73 3.19 1.09 6.76 3.27 6.71 7.09-.2 4.22-.93 8.53-2.48 12.48-2.07 3.68-6.59 4.57-10.48 4.3-5.34-.1-10.68.11-16.01-.11-3.52-.09-7.06-2.41-7.97-5.92-.92-3.55-1.22-7.23-1.53-10.87z" fill="#fefefc"/><path d="m135.48 90.44c2.61-.1 5.22-.26 7.82-.48.75 4.52 1.16 9.19.41 13.73-1.33 5.42-8.5 7.97-12.92 4.52-3.59-2.31-3.27-6.96-3.63-10.68 1.87-.53 3.86-.83 5.54-1.86 1.58-1.32 2.02-3.43 2.78-5.23z" fill="#3d3d3d"/><path d="m167.41 90.61c2.92-.59 5.92-.2 8.87-.23-1.14 3.91-4.2 6.84-8.4 7.05.13 3.44-.19 7.49 2.72 9.96 3.77 4 11.36 2.56 13.29-2.61 1.46-4.48.8-9.33.27-13.92l-.08-.66c3.83.24 7.69-.11 11.52.28 3.4.46 5.6 4.16 4.85 7.42-.78 4.6-.05 10.29-3.86 13.7-4.4 3.54-10.43 1.75-15.59 2.17-5.22-.32-11.77 1.42-15.65-3.15-2.36-3.37-2.46-7.72-3.24-11.64-.82-3.64 1.71-7.51 5.3-8.37z" fill="#fff"/><path d="m176.28 90.38c2.64-.09 5.27.08 7.88.48.53 4.59 1.19 9.44-.27 13.92-1.93 5.17-9.52 6.61-13.29 2.61-2.91-2.47-2.59-6.52-2.72-9.96 4.2-.21 7.26-3.14 8.4-7.05z" fill="#3e3c3d"/><path d="m204.18 92.79c-.49-1.79 1.56-2.3 2.64-3.19.71 1.18 1.51 2.31 2.34 3.41-1.56.74-4.15 2.26-4.98-.22z" fill="#7ea9d8"/><path d="m150.05 120.03c.75-4.35 3.28-8.2 6.41-11.22 2.58 4.3 7.95 9.72 4.29 14.88-2.79 4.81-11.13 1.67-10.7-3.66z" fill="#f1a078"/><path d="m135.17 123.94c3.89 1.41 6.05 5.72 10.21 6.61 3.53.53 7.1.76 10.62 1.35-.05.79-.16 2.36-.21 3.14-7.28 2.35-15.81-.3-20.69-6.13-1.4-1.38-1.54-3.68.07-4.97z" fill="#ef9f77"/><g fill="#92c1ff"><path d="m17.07 147.11c2.75-1.37 5.39-3.66 8.59-3.66 4.99 4.07 8.31 9.83 11.31 15.44-2.88 1.67-5.88 3.12-8.97 4.36-3.62-5.39-7.1-10.88-10.93-16.14z"/><path d="m44.27 148.24c7.89-.83 15.82-.44 23.73-.44 7.88 0 15.78-.39 23.64.44.61 20.63-.13 41.28.4 61.92-2.07 5.14-3.84 10.39-5.14 15.78-1.92-.04-3.84-.07-5.76-.06.45-4.28.74-8.58.72-12.88-.08-13.33-.07-26.67-.03-40 .23-5.29.04-10.59-.74-15.83-12.27-.41-24.56.52-36.8-.47-.01-2.82-.02-5.64-.02-8.46z"/><path d="m8.1 160.91c3.27-.04 6.53-.04 9.8 0 .4 21.66.13 43.33.12 64.99-3.35-.05-6.69-.05-10.04-.01 0-21.66-.29-43.33.12-64.98z"/><path d="m26.96 169.03c8-.53 16.03-.16 24.04-.26 7.57.16 15.17-.48 22.7.5.03 2.8.03 5.61 0 8.41-4.22.4-8.46.59-12.7.47-11.33-.22-22.68.28-34.01-.25-.07-2.96-.08-5.92-.03-8.87z"/><path d="m30.99 189.06c12.97-.43 25.96-.36 38.93-.05.05 2.97.07 5.93.06 8.89-13.01.15-26.03.23-39.04-.05-.03-2.93-.01-5.86.05-8.79z"/><path d="m22.92 209.06c18.05-.34 36.11-.35 54.15 0 .09 2.96.09 5.91.01 8.87-18.04.36-36.11.34-54.16.01-.08-2.96-.08-5.92 0-8.88z"/></g><path d="m124.21 159.97c20.58.1 41.16.07 61.73.01-.01 5.46-.86 11.08.46 16.44 6.81 4.04 13.48 8.44 19.09 14.11 9.39 9.75 16.1 22.16 18.71 35.47-45.77-.04-91.54.08-137.3-.06 1.3-5.39 3.07-10.64 5.14-15.78 2.51-5.02 5.55-9.76 8.91-14.24 6.2-8.08 14.69-14.01 23.42-19.05.07-5.64.26-11.28-.16-16.9z" fill="#424242"/></svg>