<svg height="700pt" viewBox="0 0 700 700" width="700pt" xmlns="http://www.w3.org/2000/svg"><path d="m0 0h.25c-.06.06-.19.19-.25.25z" fill="#1552a1"/><path d="m199.23 253.55c2.57-4.44 6.72-8.37 12.01-9 6.75-.67 13.56-.23 20.34-.37 28.83.28 57.65.31 86.48.24 8.98-.1 17.88 4 23.78 10.73 4.97 5.66 7.34 13.11 7.65 20.55 4.15.05 8.3.11 12.45.04.52-5.37 1.37-10.89 4.15-15.6 5.42-9.48 15.98-15.66 26.92-15.67 14.66-.07 29.32.01 43.99-.02 21.43.13 42.88-.61 64.3.06 5.61 1.66 10 6.08 11.87 11.6.92 5.29.06 11.19-3.99 15.04-4.32 4.94-11.34 5.15-17.4 5.43-1.95 9.62-2.05 19.53-4.26 29.1-3.1 12.08-13.35 21.44-25.32 24.45-.44.09-1.32.26-1.76.35-20.12.66-40.27.17-60.4.27-15.25.33-29.61-11.38-32.73-26.23-.73-2.51-.84-5.31-2.3-7.53-5.22-4.08-13.91-4.5-18.69.46-1.5 3.49-1.78 7.36-3.12 10.91-4.46 12.94-17.41 22.56-31.22 22.38-16.66.11-33.32-.03-49.98.05-4.34 0-8.73.06-13-.83-12.04-2.94-22.27-12.65-25.13-24.82-2.12-9.48-2.4-19.25-4.01-28.82-5.59-.07-11.86.05-16.35-3.84-5.4-4.55-6.67-12.5-4.28-18.93m13.2.91c-4.73.87-6.24 7.66-2.46 10.53 3.69 2.97 10.2.01 9.74-4.91.34-3.8-3.78-6.64-7.28-5.62m84.06-.21-.04.6c-16.15-.24-32.31-.03-48.46-.11-9.81-.71-18.9 8.46-17.98 18.29.89 9.22 2.14 18.42 3.41 27.6 1.66 11.23 12.28 20.11 23.6 20 17.65.17 35.3.03 52.96.07 6.75.03 13.73-2.3 18.24-7.52 4.59-4.06 6.13-10.27 7.11-16.07 1.28-7.35 3.28-14.63 3.59-22.11.21-10.65-9.25-20.3-19.95-20.13l-.25-.64c-7.41.21-14.82.18-22.23.02m199.92.17c-6.01.68-6.05 10.56-.38 11.64 4.58 1.56 9.41-4.01 7.24-8.28-.95-2.73-4.18-3.97-6.86-3.36m-122.85 14.31c-2.43 7.32.25 14.88 1.46 22.16 1.44 7.02 1.86 14.79 6.63 20.55 4.55 5.91 11.85 9.23 19.27 9.21 17.38.16 34.76.01 52.13.07 8.41.21 17.06-3.84 21.57-11.06 4.58-7.37 4.2-16.4 5.52-24.7.62-7.03 3.04-14.78-.79-21.32-2.81-5.65-9.15-8.9-15.34-8.88-10.09 0-20.19-.09-30.28.07-7.49.07-14.99-.1-22.48.09-6.42-.26-12.85-.23-19.28-.11-8.22.4-15.82 6.09-18.41 13.92m-112.9 52.64c1.32.68 2.81.8 4.28.76 13.35-.19 26.7-.02 40.05-.04 2.77-.09 5.7.46 8.32-.71-17.55-.13-35.11-.11-52.65-.01z" fill="#1552a1"/><path d="m381.04 45.81c5.01-.04 9.99-1.15 14.99-.48 5.64.65 11.53-.48 16.96 1.6 2.43.82 5.03 1 7.48 1.77 3.68 1.33 6.84 3.69 10.35 5.39 5.55 2.49 9.63 7.14 14.4 10.78 4.21 4.55 8.31 9.36 10.67 15.18 4.78 8.68 9.57 17.78 10.12 27.89.44 9.42.95 19.15-1.95 28.25-1.07 5.56-4.01 10.45-6.51 15.45-1.63 3.35-4.72 6.07-4.83 10.02-1.29-.13-2.57-.23-3.85-.31-21.29-.34-42.59-.04-63.87-.14-42.44.05-84.88-.1-127.31.08-1.06-12.32 3.15-24.51 10.01-34.61 2.66-3.34 6.32-5.65 9.34-8.63 4.1-4.26 9.61-6.67 14.95-8.95 8.45-2.52 17.74-4.79 26.36-1.74 1.73.36 3.52.34 5.29.46.48-9.99 2.85-20.28 8.69-28.58 2.59-4.2 5.03-8.65 8.97-11.77 4.68-4.42 9.61-8.55 14.84-12.3 4.26-2.96 9.22-4.65 13.65-7.32 3.35-2.1 7.49-1.55 11.25-2.04z" fill="#563629"/><path d="m255.05 161.64c.88-.15 1.75-.27 2.64-.35 42.43-.18 84.87-.03 127.31-.08 21.28.1 42.58-.2 63.87.14.57.2 1.72.6 2.29.81.4 14.94-.65 29.94.97 44.84 2.15 13.79 9.93 26.43 20.87 35.01 2.85 2.16 6.59 1.99 9.98 2.07 6.1.11 12.29-.89 18.32.43-21.42-.67-42.87.07-64.3-.06-14.67.03-29.33-.05-43.99.02-10.94.01-21.5 6.19-26.92 15.67-2.78 4.71-3.63 10.23-4.15 15.6-4.15.07-8.3.01-12.45-.04-.31-7.44-2.68-14.89-7.65-20.55-5.9-6.73-14.8-10.83-23.78-10.73-28.83.07-57.65.04-86.48-.24 4.03-4.51 9.01-8.15 12.45-13.18 3.52-5.06 6.98-10.36 8.59-16.38 1.82-6.37 2.65-13 2.52-19.63-.15-11.11.11-22.23-.09-33.35z" fill="#ffcba3"/><path d="m188.26 253.52c3.6-.94 7.34-.53 10.97.03-2.39 6.43-1.12 14.38 4.28 18.93 4.49 3.89 10.76 3.77 16.35 3.84 1.61 9.57 1.89 19.34 4.01 28.82 2.86 12.17 13.09 21.88 25.13 24.82 4.27.89 8.66.83 13 .83 16.66-.08 33.32.06 49.98-.05 13.81.18 26.76-9.44 31.22-22.38 1.34-3.55 1.62-7.42 3.12-10.91 4.78-4.96 13.47-4.54 18.69-.46 1.46 2.22 1.57 5.02 2.3 7.53 3.12 14.85 17.48 26.56 32.73 26.23 20.13-.1 40.28.39 60.4-.27-6.75 1.22-13.63.31-20.44.56-14.81.2-29.64-.42-44.43.38 2.75.66 5.59.86 8.42.79 19.53-.18 39.07.28 58.59-.25-.09-.46-.29-1.37-.38-1.83 11.97-3.01 22.22-12.37 25.32-24.45 2.21-9.57 2.31-19.48 4.26-29.1 6.06-.28 13.08-.49 17.4-5.43 4.05-3.85 4.91-9.75 3.99-15.04-.08-.76-.26-2.27-.34-3.03 2.37.25 4.76.47 7.15.57 4.95.32 10.15-.59 14.83 1.52 8.92 2.54 15.91 9.94 19.55 18.29 3.21 6.72 1.96 14.38 1.92 21.56-1.51 6.03-4.66 11.79-9.26 16.04-4.19 4.2-9.79 6.47-15.28 8.42-5.21.9-10.55-.28-15.77.68-.78 5.58-.29 11.23-.4 16.84-.11 17.67.25 35.36-.23 53.03-1.17 6.53-3.01 12.97-5.32 19.2-3.86 7.67-7.87 15.6-14.5 21.28-9.52 10.62-23.04 16.81-36.8 19.65-6.3.77-12.83-.6-18.98 1.26-52.91.29-105.83.04-158.74.12-4.88-.11-9.78.3-14.64-.24-1.1-.32-2.16-.92-3.34-.86-8.39-.18-17.08.65-25.13-2.23-21.98-5.88-39.59-24.12-46.33-45.64-2.03-5.39-1.64-11.26-3.08-16.78-.33-20.6.11-41.21-.14-61.81-.05-1.59-.46-3.13-.78-4.66-7.49.74-15.29 1.22-22.55-1.17-4.14-.43-7.04-3.7-10.3-5.93-5.91-4.31-9.21-11.21-10.96-18.14-1.38-10.39.22-21.85 7.39-29.94 3.47-4.47 8.72-6.85 13.74-9.11 7.53-2.71 15.67-.65 23.38-1.51m152.77 76.49c-2.5 5.22-3.23 11.79.11 16.82 3.04 5.34 9.07 8.2 15.01 8.7 11.25.04 20.56-13.63 15.21-23.88-2.17-4.69-4.48-9.34-7.37-13.64-2.63-3.77-4.34-8.26-8.01-11.2-6.11 6.92-11.03 14.86-14.95 23.2m-88.85 1.2-.06.78c19.29.32 38.59.21 57.88.15 2.46.05 4.91-.22 7.32-.71-5.09-.54-10.21-.31-15.32-.38-16.61-.01-33.22-.06-49.82.16m45.15 19.1c-3.28 1.27-5.58 5.58-3.52 8.8 5.96 11.44 18.21 17.84 29.88 22.05 8.89 1.72 18.37 3.39 27.26.9 5.23-1.56 5.72-9.61.67-11.72-7.03-.92-14.24.68-21.24-.91-7.04-1.66-14-4.53-19.5-9.32-2.73-2.3-4.58-5.4-6.95-8.04-1.59-1.81-4.33-2.43-6.6-1.76z" fill="#ffcba3"/><path d="m448.87 161.35c1.28.08 2.56.18 3.85.31 7.32.69 14.75 2.04 21.33 5.47 5.12 2.74 10.81 4.62 15.08 8.73 5.9 4.74 11.08 10.37 15.47 16.53 2.44 5.18 5.1 10.27 7.62 15.42 1.63 6.28 3.73 12.61 3.47 19.19.05 8.24-.29 16.52.53 24.74 1.28.58 2.54 1.2 3.76 1.91-2.39-.1-4.78-.32-7.15-.57.08.76.26 2.27.34 3.03-1.87-5.52-6.26-9.94-11.87-11.6-6.03-1.32-12.22-.32-18.32-.43-3.39-.08-7.13.09-9.98-2.07-10.94-8.58-18.72-21.22-20.87-35.01-1.62-14.9-.57-29.9-.97-44.84-.57-.21-1.72-.61-2.29-.81z" fill="#ce9d7d"/><path d="m245.3 162.33c3.21-.67 6.51-.34 9.75-.69.2 11.12-.06 22.24.09 33.35.13 6.63-.7 13.26-2.52 19.63-1.61 6.02-5.07 11.32-8.59 16.38-3.44 5.03-8.42 8.67-12.45 13.18-6.78.14-13.59-.3-20.34.37-5.29.63-9.44 4.56-12.01 9-3.63-.56-7.37-.97-10.97-.03.05-11.47-.32-22.97.41-34.43 2.66-9.94 5.92-19.99 11.93-28.49 3.47-3.86 6.52-8.12 10.45-11.55 9.62-8.58 21.8-13.79 34.25-16.72z" fill="#cc9d7e"/><path d="m212.43 254.46c3.5-1.02 7.62 1.82 7.28 5.62.46 4.92-6.05 7.88-9.74 4.91-3.78-2.87-2.27-9.66 2.46-10.53z" fill="#83add8"/><path d="m296.49 254.25c7.41.16 14.82.19 22.23-.02l.25.64c3.73 7.51 2.66 16.03 2.79 24.12-.05 5.6.51 11.54-2.07 16.72-3.84 8.59-13.23 14.53-22.69 13.7-7.98-.4-15.63-5.14-19.21-12.33-3.87-7.17-2.56-15.59-2.79-23.4 5.91.61 12.11-1.07 16.49-5.18 3.38-3.7 4.94-8.7 4.96-13.65z" fill="#3d3d3d"/><path d="m496.41 254.42c2.68-.61 5.91.63 6.86 3.36 2.17 4.27-2.66 9.84-7.24 8.28-5.67-1.08-5.63-10.96.38-11.64z" fill="#7ea8d6"/><path d="m230.01 273.03c-.92-9.83 8.17-19 17.98-18.29 16.15.08 32.31-.13 48.46.11-.02 4.95-1.58 9.95-4.96 13.65-4.38 4.11-10.58 5.79-16.49 5.18.23 7.81-1.08 16.23 2.79 23.4 3.58 7.19 11.23 11.93 19.21 12.33 9.46.83 18.85-5.11 22.69-13.7 2.58-5.18 2.02-11.12 2.07-16.72-.13-8.09.94-16.61-2.79-24.12 10.7-.17 20.16 9.48 19.95 20.13-.31 7.48-2.31 14.76-3.59 22.11-.98 5.8-2.52 12.01-7.11 16.07-4.51 5.22-11.49 7.55-18.24 7.52-17.66-.04-35.31.1-52.96-.07-11.32.11-21.94-8.77-23.6-20-1.27-9.18-2.52-18.38-3.41-27.6z" fill="#fefefc"/><path d="m373.56 268.73c2.59-7.83 10.19-13.52 18.41-13.92 6.43-.12 12.86-.15 19.28.11-.47 4.96-1.82 10.19-5.74 13.59-4.06 4.23-10.14 5.36-15.77 5.03.13 5.49-.36 11 .34 16.46 1.52 10.53 11.29 19.06 21.91 19.23 9.3.48 18.83-5.15 22.35-13.88 3.28-7.69 1.84-16.24 2.2-24.35.28-5.54-.65-11.07-2.81-16.17 10.09-.16 20.19-.07 30.28-.07 6.19-.02 12.53 3.23 15.34 8.88 3.83 6.54 1.41 14.29.79 21.32-1.32 8.3-.94 17.33-5.52 24.7-4.51 7.22-13.16 11.27-21.57 11.06-17.37-.06-34.75.09-52.13-.07-7.42.02-14.72-3.3-19.27-9.21-4.77-5.76-5.19-13.53-6.63-20.55-1.21-7.28-3.89-14.84-1.46-22.16z" fill="#fff"/><path d="m411.25 254.92c7.49-.19 14.99-.02 22.48-.09 2.16 5.1 3.09 10.63 2.81 16.17-.36 8.11 1.08 16.66-2.2 24.35-3.52 8.73-13.05 14.36-22.35 13.88-10.62-.17-20.39-8.7-21.91-19.23-.7-5.46-.21-10.97-.34-16.46 5.63.33 11.71-.8 15.77-5.03 3.92-3.4 5.27-8.63 5.74-13.59z" fill="#3e3c3e"/><path d="m341.03 330.01c3.92-8.34 8.84-16.28 14.95-23.2 3.67 2.94 5.38 7.43 8.01 11.2 2.89 4.3 5.2 8.95 7.37 13.64 5.35 10.25-3.96 23.92-15.21 23.88-5.94-.5-11.97-3.36-15.01-8.7-3.34-5.03-2.61-11.6-.11-16.82z" fill="#f1a078"/><path d="m260.66 321.37c17.54-.1 35.1-.12 52.65.01-2.62 1.17-5.55.62-8.32.71-13.35.02-26.7-.15-40.05.04-1.47.04-2.96-.08-4.28-.76z" fill="#2f5186"/><path d="m460.44 330.48c.44-.09 1.32-.26 1.76-.35.09.46.29 1.37.38 1.83-19.52.53-39.06.07-58.59.25-2.83.07-5.67-.13-8.42-.79 14.79-.8 29.62-.18 44.43-.38 6.81-.25 13.69.66 20.44-.56z" fill="#d1d3e4"/><path d="m252.18 331.21c16.6-.22 33.21-.17 49.82-.16 5.11.07 10.23-.16 15.32.38-2.41.49-4.86.76-7.32.71-19.29.06-38.59.17-57.88-.15z" fill="#d6d3e9"/><path d="m297.33 350.31c2.27-.67 5.01-.05 6.6 1.76 2.37 2.64 4.22 5.74 6.95 8.04 5.5 4.79 12.46 7.66 19.5 9.32 7 1.59 14.21-.01 21.24.91 5.05 2.11 4.56 10.16-.67 11.72-8.89 2.49-18.37.82-27.26-.9-11.67-4.21-23.92-10.61-29.88-22.05-2.06-3.22.24-7.53 3.52-8.8z" fill="#efa07a"/><path d="m266.36 451.3c4.86.54 9.76.13 14.64.24 52.91-.08 105.83.17 158.74-.12-.06 15.19-.07 30.39.04 45.59 5.48 2.43 10.37 5.98 15.86 8.39 2.93 1.33 5.16 3.75 8.03 5.19 5.35 2.7 8.79 7.91 13.89 10.96 6.58 3.85 11.25 10.06 17.24 14.68 5.18 3.89 8.08 9.83 12.56 14.39 4.94 7.31 10.55 14.15 15.56 21.43 5.69 9.07 9.8 19 14.46 28.61 2.02 3.92 2.71 8.33 4.38 12.39 3.52 8.84 4.97 18.23 6.98 27.46.83 4.37 1.27 8.82 1.31 13.27-24.01.62-48.04.1-72.05.27-106.75.06-213.5-.11-320.24.09l-1.09.02c2.89-10.91 5.11-21.96 7.85-32.9 3.45-8.91 5.49-18.35 9.89-26.9 4.25-8.02 7.53-16.63 13.15-23.85 6.96-9.36 12.33-19.99 20.95-28 7.71-8.32 15.97-16.15 25.15-22.83 3.83-2.9 8.51-4.63 11.81-8.23 1.99-2.17 4.6-3.57 7.22-4.83 4.7-2.27 8.78-5.66 13.62-7.67.16-15.88.07-31.77.05-47.65z" fill="#424242"/><path d="m541.76 613.05c4.28 5.72 4.94 13.18 6.27 19.99 1.75 5.54 2.15 11.35 2.99 17.08.23 1.48-.02 2.99-.28 4.47-129.9.15-259.82-.01-389.72.07-1.1-.13-2.19-.3-3.26-.52 106.74-.2 213.49-.03 320.24-.09 24.01-.17 48.04.35 72.05-.27-.04-4.45-.48-8.9-1.31-13.27-2.01-9.23-3.46-18.62-6.98-27.46z" fill="#151718" opacity=".13"/></svg>