<?xml version="1.0" encoding="UTF-8" ?>
<!DOCTYPE svg PUBLIC "-//W3C//DTD SVG 1.1//EN" "http://www.w3.org/Graphics/SVG/1.1/DTD/svg11.dtd">
<svg width="700pt" height="700pt" viewBox="0 0 700 700" version="1.1" xmlns="http://www.w3.org/2000/svg">
<g id="#9961ffff">
<path fill="#9961ff" opacity="1.00" d=" M 246.52 59.55 C 261.19 56.94 276.29 57.05 291.03 59.13 C 305.13 60.66 318.88 64.67 331.89 70.27 C 335.77 72.02 339.96 73.12 343.58 75.41 C 349.41 79.05 355.98 81.39 361.49 85.57 C 369.17 90.45 375.73 97.03 384.17 100.71 C 385.77 100.55 387.03 99.29 388.43 98.58 C 414.83 82.19 447.33 75.30 477.96 81.34 C 478.45 81.52 479.45 81.89 479.95 82.07 C 484.66 82.26 489.09 84.14 493.52 85.62 C 513.88 92.53 531.72 106.28 544.11 123.79 C 554.68 137.26 560.92 153.59 565.18 170.03 C 568.07 181.88 568.21 194.15 569.80 206.19 C 571.34 214.47 571.73 223.01 574.83 230.92 C 576.49 238.65 579.83 245.82 582.85 253.09 C 593.07 272.66 605.95 290.67 617.34 309.56 C 621.07 316.65 625.40 323.57 627.37 331.42 C 630.73 341.90 631.40 353.02 631.50 363.97 C 630.39 380.15 625.87 396.35 616.91 409.99 C 609.06 423.60 599.14 436.85 597.31 452.93 C 596.59 462.87 596.53 473.24 600.36 482.62 C 603.22 492.68 609.84 500.93 615.15 509.75 C 622.51 523.50 628.58 538.22 630.51 553.78 C 632.21 562.42 631.62 571.26 631.78 580.00 C 631.96 594.85 627.95 609.35 623.29 623.32 C 620.73 628.45 618.83 633.93 615.73 638.79 C 615.08 640.13 613.31 639.82 612.11 639.97 C 582.22 639.98 552.33 639.98 522.44 639.97 L 522.26 639.31 C 516.09 618.28 508.96 597.53 502.37 576.63 C 495.82 556.50 489.50 536.30 482.87 516.20 C 479.91 507.18 477.44 497.81 472.12 489.82 C 464.39 478.24 453.21 468.83 440.13 463.89 C 433.41 461.35 426.25 460.22 419.11 459.71 C 418.89 452.37 419.21 445.01 418.80 437.67 C 429.19 437.14 439.59 437.65 449.98 437.40 C 468.29 436.60 485.84 427.59 497.87 413.87 C 501.87 409.64 505.06 404.69 507.29 399.31 C 513.36 389.00 515.19 376.80 515.03 364.99 C 514.95 318.93 515.00 272.86 514.91 226.80 C 502.86 226.65 490.76 226.22 478.73 227.09 C 473.90 222.97 469.78 218.09 464.74 214.22 C 448.09 200.94 425.50 195.07 404.58 199.53 C 390.99 202.07 378.44 208.99 368.47 218.47 C 365.65 221.25 363.30 224.49 360.25 227.04 C 355.74 226.53 351.20 226.52 346.70 227.03 C 338.63 217.67 329.18 209.15 317.73 204.19 C 309.53 200.95 300.92 198.27 292.03 198.15 C 281.57 197.96 270.95 199.36 261.21 203.33 C 259.17 196.07 258.26 188.54 256.06 181.33 C 252.76 186.20 250.50 191.66 247.77 196.86 C 244.32 203.67 240.26 210.16 236.91 217.02 C 235.07 219.14 233.22 221.25 231.34 223.33 C 227.19 225.36 222.63 226.55 217.99 226.49 C 207.74 226.45 197.48 226.54 187.23 226.36 C 186.95 273.58 187.18 320.81 187.09 368.03 C 187.04 384.23 192.69 400.39 203.26 412.72 C 214.65 426.76 231.94 435.81 249.97 437.21 C 261.10 437.97 272.27 436.88 283.39 437.79 C 283.17 445.12 283.43 452.46 283.12 459.79 C 265.01 460.22 247.33 468.81 235.63 482.61 C 229.96 489.29 224.30 496.30 221.78 504.85 C 208.53 545.65 195.50 586.53 182.34 627.37 C 180.98 631.32 179.70 635.30 178.77 639.38 C 175.23 640.18 171.59 639.98 168.00 639.98 C 141.32 639.95 114.63 639.99 87.95 639.96 C 83.42 640.22 81.97 635.06 80.38 631.79 C 74.78 620.43 71.56 608.10 69.24 595.71 C 67.93 585.53 68.15 575.25 68.28 565.02 C 68.63 556.37 70.00 547.74 72.43 539.43 C 74.80 528.83 80.23 519.35 84.74 509.60 C 88.40 503.65 92.22 497.80 95.73 491.76 C 98.52 486.41 100.25 480.59 102.08 474.87 C 104.30 460.48 103.17 445.09 95.97 432.19 C 91.05 422.04 84.18 413.00 79.00 403.01 C 67.98 382.30 66.02 357.52 71.58 334.91 C 76.13 316.03 88.64 300.72 98.47 284.41 C 101.71 278.54 105.90 273.27 109.26 267.48 C 111.34 263.22 114.24 259.43 116.21 255.12 C 118.27 250.71 119.92 246.13 121.77 241.64 C 124.20 235.87 125.30 229.65 127.58 223.83 C 128.27 219.44 128.68 214.98 129.82 210.66 C 131.49 199.10 131.57 187.34 133.92 175.88 C 138.19 154.92 145.35 134.26 157.33 116.40 C 162.04 107.49 169.63 100.69 176.40 93.40 C 193.20 77.33 214.59 66.24 237.26 61.27 C 240.39 60.92 243.47 60.32 246.52 59.55 Z" />
</g>
<g id="#6f587e97">
<path fill="#6f587e" opacity="0.59" d=" M 477.96 81.34 L 478.71 80.81 L 479.73 81.19 L 479.95 82.07 C 479.45 81.89 478.45 81.52 477.96 81.34 Z" />
</g>
<g id="#fce1d8ff">
<path fill="#fce1d8" opacity="1.00" d=" M 247.77 196.86 C 250.50 191.66 252.76 186.20 256.06 181.33 C 258.26 188.54 259.17 196.07 261.21 203.33 C 252.35 206.55 245.58 213.49 236.91 217.02 C 240.26 210.16 244.32 203.67 247.77 196.86 Z" />
</g>
<g id="#fefefdff">
<path fill="#fefefd" opacity="1.00" d=" M 261.21 203.33 C 270.95 199.36 281.57 197.96 292.03 198.15 C 300.92 198.27 309.53 200.95 317.73 204.19 C 329.18 209.15 338.63 217.67 346.70 227.03 C 348.77 230.98 351.00 234.91 354.27 238.02 C 356.72 234.62 358.49 230.82 360.25 227.04 C 363.30 224.49 365.65 221.25 368.47 218.47 C 378.44 208.99 390.99 202.07 404.58 199.53 C 425.50 195.07 448.09 200.94 464.74 214.22 C 469.78 218.09 473.90 222.97 478.73 227.09 C 480.15 228.56 481.43 230.18 482.49 231.94 C 485.72 238.42 489.32 244.81 491.20 251.86 C 493.67 260.64 496.53 269.63 495.73 278.86 C 495.01 288.07 493.64 297.27 491.00 306.13 C 488.12 313.60 483.20 320.05 478.32 326.32 C 472.53 334.31 463.91 339.49 455.83 344.85 C 451.14 348.12 445.49 349.36 440.14 351.09 C 431.54 354.04 422.29 353.21 413.40 352.58 C 401.79 351.70 391.10 346.56 381.26 340.68 C 377.30 338.05 372.99 335.37 370.81 330.98 C 371.07 326.98 370.62 322.90 368.78 319.29 C 364.76 311.04 360.03 303.06 354.08 296.04 C 349.85 300.35 346.91 305.67 343.73 310.75 C 339.86 317.10 336.21 324.18 337.19 331.86 C 331.19 337.11 325.18 342.72 317.59 345.56 C 307.73 350.17 297.00 353.53 286.00 353.13 C 277.06 352.78 267.68 352.72 259.57 348.41 C 252.70 344.75 245.26 341.85 239.35 336.65 C 235.52 333.46 231.53 330.28 229.00 325.90 C 224.92 318.93 219.57 312.57 217.15 304.74 C 216.16 301.66 215.28 298.55 214.39 295.44 C 212.06 287.85 212.52 279.80 212.74 271.96 C 213.94 254.29 222.68 238.36 231.34 223.33 C 233.22 221.25 235.07 219.14 236.91 217.02 C 245.58 213.49 252.35 206.55 261.21 203.33 M 367.33 273.01 C 367.18 280.44 367.53 288.13 370.71 294.98 C 374.10 306.09 382.16 315.39 391.69 321.81 C 408.66 332.72 431.95 332.90 448.91 321.88 C 461.93 313.42 471.50 299.44 473.52 283.95 C 473.98 274.90 474.57 265.45 471.14 256.85 C 468.98 251.30 466.25 245.65 462.21 241.29 C 455.65 232.85 446.49 226.20 436.09 223.47 C 427.95 221.26 419.33 221.00 411.01 222.28 C 387.15 226.54 367.98 248.78 367.33 273.01 M 259.14 232.11 C 246.70 239.60 237.54 252.37 234.57 266.61 C 231.86 277.67 233.14 289.37 237.06 299.98 C 241.34 309.64 248.12 318.24 256.90 324.19 C 264.83 329.61 274.37 332.76 284.00 332.64 C 289.31 332.57 294.81 332.99 299.91 331.16 C 315.79 327.47 329.08 315.46 335.61 300.67 C 338.42 293.65 340.99 286.01 340.14 278.38 C 340.32 274.81 341.02 270.82 338.94 267.66 C 338.32 258.76 333.62 250.57 328.11 243.74 C 320.91 234.58 310.48 228.06 299.12 225.50 C 285.64 222.56 270.88 224.67 259.14 232.11 Z" />
</g>
<g id="#fd9703ff">
<path fill="#fd9703" opacity="1.00" d=" M 367.33 273.01 C 367.98 248.78 387.15 226.54 411.01 222.28 C 419.33 221.00 427.95 221.26 436.09 223.47 C 431.99 222.63 428.41 224.91 425.81 227.85 C 416.76 236.25 412.50 248.84 412.70 261.00 C 412.46 267.99 413.45 275.11 411.88 282.00 C 404.00 286.36 394.35 281.43 386.44 285.69 C 383.28 286.85 380.22 288.40 377.97 290.97 C 376.09 293.14 373.41 294.21 370.71 294.98 C 367.53 288.13 367.18 280.44 367.33 273.01 M 394.93 241.87 C 389.67 245.60 384.82 250.30 382.12 256.24 C 380.76 259.05 381.02 262.39 381.86 265.31 C 384.04 270.23 390.10 271.52 394.90 270.21 C 398.11 268.81 400.13 265.82 402.10 263.06 C 403.98 260.33 406.68 258.26 408.41 255.42 C 410.74 250.69 408.38 244.66 404.07 241.98 C 403.92 241.61 403.60 240.89 403.45 240.52 C 400.80 240.50 396.05 238.75 394.93 241.87 Z" />
</g>
<g id="#fee2d6ff">
<path fill="#fee2d6" opacity="1.00" d=" M 217.99 226.49 C 222.63 226.55 227.19 225.36 231.34 223.33 C 222.68 238.36 213.94 254.29 212.74 271.96 C 212.52 279.80 212.06 287.85 214.39 295.44 C 215.28 298.55 216.16 301.66 217.15 304.74 C 219.57 312.57 224.92 318.93 229.00 325.90 C 231.53 330.28 235.52 333.46 239.35 336.65 C 245.26 341.85 252.70 344.75 259.57 348.41 C 267.68 352.72 277.06 352.78 286.00 353.13 C 297.00 353.53 307.73 350.17 317.59 345.56 C 325.18 342.72 331.19 337.11 337.19 331.86 C 339.43 336.25 342.17 340.89 346.71 343.22 C 352.35 345.52 359.12 344.59 364.10 341.14 C 367.56 338.76 369.45 334.82 370.81 330.98 C 372.99 335.37 377.30 338.05 381.26 340.68 C 391.10 346.56 401.79 351.70 413.40 352.58 C 422.29 353.21 431.54 354.04 440.14 351.09 C 445.49 349.36 451.14 348.12 455.83 344.85 C 463.91 339.49 472.53 334.31 478.32 326.32 C 483.20 320.05 488.12 313.60 491.00 306.13 C 493.64 297.27 495.01 288.07 495.73 278.86 C 496.53 269.63 493.67 260.64 491.20 251.86 C 489.32 244.81 485.72 238.42 482.49 231.94 C 484.78 230.28 487.25 228.59 490.18 228.46 C 497.43 227.85 504.71 228.97 511.97 228.29 C 512.87 231.79 513.13 235.42 513.07 239.03 C 512.98 246.27 514.63 253.49 513.63 260.73 C 512.58 267.92 513.43 275.22 512.43 282.41 C 511.93 286.17 511.84 289.98 512.31 293.74 C 513.45 302.45 513.03 311.25 513.08 320.00 C 512.77 338.68 513.19 357.37 512.87 376.05 C 512.85 384.22 507.83 391.24 507.29 399.31 C 505.06 404.69 501.87 409.64 497.87 413.87 C 485.84 427.59 468.29 436.60 449.98 437.40 C 439.59 437.65 429.19 437.14 418.80 437.67 C 377.87 438.06 336.93 437.68 296.00 437.86 C 291.80 438.00 287.58 438.24 283.39 437.79 C 272.27 436.88 261.10 437.97 249.97 437.21 C 231.94 435.81 214.65 426.76 203.26 412.72 C 192.69 400.39 187.04 384.23 187.09 368.03 C 187.18 320.81 186.95 273.58 187.23 226.36 C 197.48 226.54 207.74 226.45 217.99 226.49 M 308.41 354.41 C 306.45 355.12 304.63 356.74 304.70 358.99 C 303.85 364.25 308.59 367.81 311.66 371.34 C 322.13 382.60 337.92 387.52 353.00 387.23 C 356.80 387.09 360.83 387.07 364.32 385.33 C 368.93 382.80 367.05 374.65 361.90 374.15 C 356.26 373.90 350.57 374.79 344.96 373.82 C 338.60 372.69 331.91 371.43 326.72 367.31 C 322.07 364.36 318.56 360.13 315.00 356.02 C 313.47 354.02 310.68 353.57 308.41 354.41 Z" />
</g>
<g id="#53da71ff">
<path fill="#53da71" opacity="1.00" d=" M 425.81 227.85 C 428.41 224.91 431.99 222.63 436.09 223.47 C 446.49 226.20 455.65 232.85 462.21 241.29 C 457.25 241.26 451.90 241.59 447.96 244.97 C 443.92 247.50 442.13 252.05 440.45 256.27 C 439.74 254.18 439.05 252.09 438.34 250.01 C 437.37 255.48 436.85 261.23 434.18 266.21 C 431.78 270.50 427.50 273.21 423.26 275.42 C 430.28 277.36 436.95 281.63 440.01 288.47 C 436.72 292.75 434.56 297.87 430.53 301.56 C 423.50 308.90 413.01 312.32 402.99 311.85 C 399.42 311.84 395.19 311.62 392.60 314.56 C 390.69 316.49 391.67 319.41 391.69 321.81 C 382.16 315.39 374.10 306.09 370.71 294.98 C 373.41 294.21 376.09 293.14 377.97 290.97 C 380.22 288.40 383.28 286.85 386.44 285.69 C 394.52 286.40 402.61 285.33 410.71 285.68 C 411.10 284.45 411.51 283.23 411.88 282.00 C 413.45 275.11 412.46 267.99 412.70 261.00 C 412.50 248.84 416.76 236.25 425.81 227.85 M 414.48 289.38 C 410.27 292.24 411.52 298.25 414.48 301.54 C 417.41 304.70 423.76 305.24 425.92 300.92 C 429.56 294.48 421.00 285.44 414.48 289.38 Z" />
</g>
<g id="#d63333ff">
<path fill="#d63333" opacity="1.00" d=" M 259.14 232.11 C 270.88 224.67 285.64 222.56 299.12 225.50 C 290.41 229.33 284.82 238.01 281.69 246.70 C 276.79 257.46 279.80 269.49 278.72 280.84 C 278.59 283.29 277.13 285.89 274.55 286.38 C 269.44 287.22 264.22 286.34 259.10 287.15 C 250.33 288.11 242.64 293.35 237.06 299.98 C 233.14 289.37 231.86 277.67 234.57 266.61 C 237.54 252.37 246.70 239.60 259.14 232.11 M 262.30 244.30 C 256.51 246.73 252.44 251.86 249.24 257.07 C 247.49 259.87 246.68 263.33 247.48 266.57 C 248.75 271.36 253.98 274.61 258.84 273.72 C 262.54 273.17 265.41 270.38 267.10 267.17 C 269.30 262.74 275.05 260.44 275.19 254.98 C 276.51 248.00 268.79 241.92 262.30 244.30 Z" />
</g>
<g id="#f6671aff">
<path fill="#f6671a" opacity="1.00" d=" M 281.69 246.70 C 284.82 238.01 290.41 229.33 299.12 225.50 C 310.48 228.06 320.91 234.58 328.11 243.74 C 324.55 243.93 320.78 243.84 317.53 245.52 C 311.89 248.38 307.79 253.91 306.57 260.10 C 305.71 257.41 305.02 254.68 304.24 251.97 C 303.47 259.16 302.56 266.93 297.51 272.54 C 294.99 275.28 291.70 277.15 288.27 278.49 C 296.15 279.13 302.82 284.58 306.10 291.60 C 302.81 296.13 300.54 301.48 296.22 305.18 C 292.90 308.03 289.36 310.83 285.11 312.10 C 279.71 313.77 274.17 315.48 268.45 315.25 C 265.13 315.11 261.82 315.48 258.64 316.40 C 258.09 319.01 257.51 321.60 256.90 324.19 C 248.12 318.24 241.34 309.64 237.06 299.98 C 242.64 293.35 250.33 288.11 259.10 287.15 C 264.22 286.34 269.44 287.22 274.55 286.38 C 277.13 285.89 278.59 283.29 278.72 280.84 C 279.80 269.49 276.79 257.46 281.69 246.70 M 282.44 291.53 C 277.58 292.17 276.50 298.51 278.97 302.07 C 280.94 307.43 290.92 308.96 292.46 302.59 C 294.31 296.67 288.35 290.53 282.44 291.53 Z" />
</g>
<g id="#f8e5dfff">
<path fill="#f8e5df" opacity="1.00" d=" M 346.70 227.03 C 351.20 226.52 355.74 226.53 360.25 227.04 C 358.49 230.82 356.72 234.62 354.27 238.02 C 351.00 234.91 348.77 230.98 346.70 227.03 Z" />
</g>
<g id="#fcdaebff">
<path fill="#fcdaeb" opacity="1.00" d=" M 478.73 227.09 C 490.76 226.22 502.86 226.65 514.91 226.80 C 515.00 272.86 514.95 318.93 515.03 364.99 C 515.19 376.80 513.36 389.00 507.29 399.31 C 507.83 391.24 512.85 384.22 512.87 376.05 C 513.19 357.37 512.77 338.68 513.08 320.00 C 513.03 311.25 513.45 302.45 512.31 293.74 C 511.84 289.98 511.93 286.17 512.43 282.41 C 513.43 275.22 512.58 267.92 513.63 260.73 C 514.63 253.49 512.98 246.27 513.07 239.03 C 513.13 235.42 512.87 231.79 511.97 228.29 C 504.71 228.97 497.43 227.85 490.18 228.46 C 487.25 228.59 484.78 230.28 482.49 231.94 C 481.43 230.18 480.15 228.56 478.73 227.09 Z" />
</g>
<g id="#e6b657ff">
<path fill="#e6b657" opacity="1.00" d=" M 394.93 241.87 C 396.05 238.75 400.80 240.50 403.45 240.52 C 403.60 240.89 403.92 241.61 404.07 241.98 C 401.03 241.69 397.97 241.64 394.93 241.87 Z" />
</g>
<g id="#705fd7ff">
<path fill="#705fd7" opacity="1.00" d=" M 462.21 241.29 C 466.25 245.65 468.98 251.30 471.14 256.85 C 474.57 265.45 473.98 274.90 473.52 283.95 C 471.50 299.44 461.93 313.42 448.91 321.88 C 431.95 332.90 408.66 332.72 391.69 321.81 C 391.67 319.41 390.69 316.49 392.60 314.56 C 395.19 311.62 399.42 311.84 402.99 311.85 C 413.01 312.32 423.50 308.90 430.53 301.56 C 434.56 297.87 436.72 292.75 440.01 288.47 C 441.32 291.30 442.46 294.20 443.69 297.07 C 444.92 290.05 446.04 282.48 451.01 276.99 C 453.30 274.63 456.22 273.02 458.97 271.27 C 455.27 270.38 451.42 269.71 448.08 267.81 C 444.04 265.23 441.91 260.66 440.45 256.27 C 442.13 252.05 443.92 247.50 447.96 244.97 C 451.90 241.59 457.25 241.26 462.21 241.29 Z" />
</g>
<g id="#fefdfbff">
<path fill="#fefdfb" opacity="1.00" d=" M 382.12 256.24 C 384.82 250.30 389.67 245.60 394.93 241.87 C 397.97 241.64 401.03 241.69 404.07 241.98 C 408.38 244.66 410.74 250.69 408.41 255.42 C 406.68 258.26 403.98 260.33 402.10 263.06 C 400.13 265.82 398.11 268.81 394.90 270.21 C 390.10 271.52 384.04 270.23 381.86 265.31 C 381.02 262.39 380.76 259.05 382.12 256.24 Z" />
</g>
<g id="#fefefeff">
<path fill="#fefefe" opacity="1.00" d=" M 262.30 244.30 C 268.79 241.92 276.51 248.00 275.19 254.98 C 275.05 260.44 269.30 262.74 267.10 267.17 C 265.41 270.38 262.54 273.17 258.84 273.72 C 253.98 274.61 248.75 271.36 247.48 266.57 C 246.68 263.33 247.49 259.87 249.24 257.07 C 252.44 251.86 256.51 246.73 262.30 244.30 Z" />
</g>
<g id="#fe9701ff">
<path fill="#fe9701" opacity="1.00" d=" M 317.53 245.52 C 320.78 243.84 324.55 243.93 328.11 243.74 C 333.62 250.57 338.32 258.76 338.94 267.66 C 338.73 271.27 338.99 274.92 340.14 278.38 C 340.99 286.01 338.42 293.65 335.61 300.67 C 329.08 315.46 315.79 327.47 299.91 331.16 C 294.81 332.99 289.31 332.57 284.00 332.64 C 274.37 332.76 264.83 329.61 256.90 324.19 C 257.51 321.60 258.09 319.01 258.64 316.40 C 261.82 315.48 265.13 315.11 268.45 315.25 C 274.17 315.48 279.71 313.77 285.11 312.10 C 289.36 310.83 292.90 308.03 296.22 305.18 C 300.54 301.48 302.81 296.13 306.10 291.60 C 307.39 294.32 308.54 297.10 309.72 299.87 C 310.92 293.33 311.93 286.38 316.00 280.90 C 318.32 278.06 321.60 276.27 324.76 274.50 C 320.99 273.28 317.03 272.38 313.60 270.31 C 309.92 268.06 308.26 263.85 306.57 260.10 C 307.79 253.91 311.89 248.38 317.53 245.52 Z" />
</g>
<g id="#fcfefeff">
<path fill="#fcfefe" opacity="1.00" d=" M 438.34 250.01 C 439.05 252.09 439.74 254.18 440.45 256.27 C 441.91 260.66 444.04 265.23 448.08 267.81 C 451.42 269.71 455.27 270.38 458.97 271.27 C 456.22 273.02 453.30 274.63 451.01 276.99 C 446.04 282.48 444.92 290.05 443.69 297.07 C 442.46 294.20 441.32 291.30 440.01 288.47 C 436.95 281.63 430.28 277.36 423.26 275.42 C 427.50 273.21 431.78 270.50 434.18 266.21 C 436.85 261.23 437.37 255.48 438.34 250.01 Z" />
</g>
<g id="#fdfef9ff">
<path fill="#fdfef9" opacity="1.00" d=" M 304.24 251.97 C 305.02 254.68 305.71 257.41 306.57 260.10 C 308.26 263.85 309.92 268.06 313.60 270.31 C 317.03 272.38 320.99 273.28 324.76 274.50 C 321.60 276.27 318.32 278.06 316.00 280.90 C 311.93 286.38 310.92 293.33 309.72 299.87 C 308.54 297.10 307.39 294.32 306.10 291.60 C 302.82 284.58 296.15 279.13 288.27 278.49 C 291.70 277.15 294.99 275.28 297.51 272.54 C 302.56 266.93 303.47 259.16 304.24 251.97 Z" />
</g>
<g id="#d29c45ff">
<path fill="#d29c45" opacity="1.00" d=" M 338.94 267.66 C 341.02 270.82 340.32 274.81 340.14 278.38 C 338.99 274.92 338.73 271.27 338.94 267.66 Z" />
</g>
<g id="#7aca54ff">
<path fill="#7aca54" opacity="1.00" d=" M 386.44 285.69 C 394.35 281.43 404.00 286.36 411.88 282.00 C 411.51 283.23 411.10 284.45 410.71 285.68 C 402.61 285.33 394.52 286.40 386.44 285.69 Z" />
</g>
<g id="#fcfdfbff">
<path fill="#fcfdfb" opacity="1.00" d=" M 414.48 289.38 C 421.00 285.44 429.56 294.48 425.92 300.92 C 423.76 305.24 417.41 304.70 414.48 301.54 C 411.52 298.25 410.27 292.24 414.48 289.38 Z" />
</g>
<g id="#fcfdf4ff">
<path fill="#fcfdf4" opacity="1.00" d=" M 282.44 291.53 C 288.35 290.53 294.31 296.67 292.46 302.59 C 290.92 308.96 280.94 307.43 278.97 302.07 C 276.50 298.51 277.58 292.17 282.44 291.53 Z" />
</g>
<g id="#f6ac93ff">
<path fill="#f6ac93" opacity="1.00" d=" M 354.08 296.04 C 360.03 303.06 364.76 311.04 368.78 319.29 C 370.62 322.90 371.07 326.98 370.81 330.98 C 369.45 334.82 367.56 338.76 364.10 341.14 C 359.12 344.59 352.35 345.52 346.71 343.22 C 342.17 340.89 339.43 336.25 337.19 331.86 C 336.21 324.18 339.86 317.10 343.73 310.75 C 346.91 305.67 349.85 300.35 354.08 296.04 Z" />
</g>
<g id="#f5ae94ff">
<path fill="#f5ae94" opacity="1.00" d=" M 308.41 354.41 C 310.68 353.57 313.47 354.02 315.00 356.02 C 318.56 360.13 322.07 364.36 326.72 367.31 C 331.91 371.43 338.60 372.69 344.96 373.82 C 350.57 374.79 356.26 373.90 361.90 374.15 C 367.05 374.65 368.93 382.80 364.32 385.33 C 360.83 387.07 356.80 387.09 353.00 387.23 C 337.92 387.52 322.13 382.60 311.66 371.34 C 308.59 367.81 303.85 364.25 304.70 358.99 C 304.63 356.74 306.45 355.12 308.41 354.41 Z" />
</g>
<g id="#ecf0f1ff">
<path fill="#ecf0f1" opacity="1.00" d=" M 283.39 437.79 C 287.58 438.24 291.80 438.00 296.00 437.86 C 336.93 437.68 377.87 438.06 418.80 437.67 C 419.21 445.01 418.89 452.37 419.11 459.71 C 426.25 460.22 433.41 461.35 440.13 463.89 C 453.21 468.83 464.39 478.24 472.12 489.82 C 477.44 497.81 479.91 507.18 482.87 516.20 C 489.50 536.30 495.82 556.50 502.37 576.63 C 508.96 597.53 516.09 618.28 522.26 639.31 C 513.86 639.95 505.42 639.62 497.00 639.71 C 394.00 639.70 291.00 639.71 188.00 639.70 C 184.92 639.79 181.83 639.80 178.77 639.38 C 179.70 635.30 180.98 631.32 182.34 627.37 C 195.50 586.53 208.53 545.65 221.78 504.85 C 224.30 496.30 229.96 489.29 235.63 482.61 C 247.33 468.81 265.01 460.22 283.12 459.79 C 283.43 452.46 283.17 445.12 283.39 437.79 Z" />
</g>
</svg>
