<?xml version="1.0" encoding="UTF-8" ?>
<!DOCTYPE svg PUBLIC "-//W3C//DTD SVG 1.1//EN" "http://www.w3.org/Graphics/SVG/1.1/DTD/svg11.dtd">
<svg width="322pt" height="260pt" viewBox="0 0 322 260" version="1.1" xmlns="http://www.w3.org/2000/svg">
<g id="#563629ff">
<path fill="#563629" opacity="1.00" d=" M 158.34 18.31 C 163.02 15.51 168.70 16.03 173.92 16.25 C 186.70 17.50 196.14 30.59 195.15 43.04 C 195.14 48.20 192.81 52.93 190.01 57.13 C 167.13 57.00 144.25 56.96 121.37 57.14 C 120.78 50.61 124.10 44.08 129.69 40.67 C 133.94 37.51 139.46 37.46 144.51 37.89 C 145.24 29.41 151.20 22.42 158.34 18.31 Z" />
</g>
<g id="#ffcba3ff">
<path fill="#ffcba3" opacity="1.00" d=" M 119.77 57.25 C 120.17 57.23 120.97 57.17 121.37 57.14 C 144.25 56.96 167.13 57.00 190.01 57.13 C 190.05 65.70 188.34 75.57 194.27 82.73 C 197.37 87.18 203.37 85.84 207.98 86.95 C 198.02 85.99 187.99 87.08 178.00 86.71 C 172.94 86.97 167.21 85.67 162.79 88.79 C 159.72 90.86 158.78 94.60 157.72 97.92 C 156.61 97.90 155.49 97.88 154.38 97.86 C 153.20 93.59 151.25 88.79 146.60 87.38 C 141.18 86.08 135.52 86.94 130.00 86.73 C 121.33 87.00 112.62 86.02 103.98 86.93 C 107.03 86.34 110.26 86.39 113.15 85.15 C 116.66 82.84 118.88 78.86 119.77 74.82 C 120.92 69.03 120.39 63.07 119.77 57.25 Z" />
<path fill="#ffcba3" opacity="1.00" d=" M 85.29 92.26 C 88.58 89.72 92.98 89.78 96.93 89.90 C 97.87 90.13 98.80 90.37 99.73 90.62 C 100.17 92.34 100.43 94.15 101.28 95.74 C 102.82 97.80 105.69 97.78 107.95 98.45 C 108.64 103.00 108.47 107.97 110.99 112.00 C 113.15 115.30 117.03 117.29 120.96 117.28 C 127.65 117.37 134.36 117.45 141.04 117.22 C 145.70 117.17 149.95 113.91 151.36 109.50 C 152.32 107.35 152.87 103.79 156.00 104.13 C 159.46 103.86 159.86 107.67 160.96 110.05 C 162.48 114.16 166.62 117.05 170.98 117.21 C 177.33 117.52 183.69 117.32 190.05 117.34 C 193.81 117.43 197.76 116.18 200.18 113.17 C 203.66 109.12 203.34 103.42 204.14 98.45 C 206.40 97.78 209.16 97.71 210.78 95.76 C 211.87 93.91 211.91 91.68 212.35 89.63 L 213.10 89.76 C 216.13 90.26 219.49 90.05 222.14 91.85 C 228.44 95.88 229.06 106.47 222.92 110.92 C 220.05 113.13 216.26 113.13 212.84 113.63 C 212.27 121.07 212.80 128.54 212.53 135.99 C 212.36 142.83 209.29 149.58 204.09 154.06 C 199.16 158.49 192.41 160.03 185.94 159.98 C 165.37 160.04 144.79 160.07 124.21 159.97 C 120.86 159.83 117.46 159.67 114.21 158.78 C 107.30 156.97 101.68 151.54 98.85 145.08 C 96.88 140.67 96.91 135.73 96.90 131.00 C 96.99 125.13 96.99 119.27 96.89 113.40 C 92.93 113.10 88.31 113.73 85.09 110.89 C 79.36 106.46 79.47 96.57 85.29 92.26 M 150.05 120.03 C 149.62 125.36 157.96 128.50 160.75 123.69 C 164.41 118.53 159.04 113.11 156.46 108.81 C 153.33 111.83 150.80 115.68 150.05 120.03 M 135.17 123.94 C 133.56 125.23 133.70 127.53 135.10 128.91 C 139.98 134.74 148.51 137.39 155.79 135.04 C 155.84 134.26 155.95 132.69 156.00 131.90 C 152.48 131.31 148.91 131.08 145.38 130.55 C 141.22 129.66 139.06 125.35 135.17 123.94 Z" />
</g>
<g id="#ce9d7dff">
<path fill="#ce9d7d" opacity="1.00" d=" M 190.01 57.13 C 200.83 58.06 210.43 66.40 212.33 77.17 C 212.36 80.11 212.58 83.05 212.76 85.99 C 212.86 87.25 212.97 88.51 213.10 89.76 L 212.35 89.63 C 210.87 88.77 209.50 87.74 207.98 86.95 C 203.37 85.84 197.37 87.18 194.27 82.73 C 188.34 75.57 190.05 65.70 190.01 57.13 Z" />
</g>
<g id="#cd9d7eff">
<path fill="#cd9d7e" opacity="1.00" d=" M 96.72 82.01 C 96.15 69.25 107.10 57.75 119.77 57.25 C 120.39 63.07 120.92 69.03 119.77 74.82 C 118.88 78.86 116.66 82.84 113.15 85.15 C 110.26 86.39 107.03 86.34 103.98 86.93 C 102.37 87.91 101.10 89.34 99.73 90.62 C 98.80 90.37 97.87 90.13 96.93 89.90 C 96.88 88.58 96.83 87.25 96.78 85.92 C 96.74 84.62 96.71 83.31 96.72 82.01 Z" />
</g>
<g id="#c2dcffff">
<path fill="#c2dcff" opacity="1.00" d=" M 212.33 77.17 C 212.67 78.75 212.70 80.38 212.85 81.98 C 238.59 82.03 264.33 81.98 290.08 82.00 C 300.08 82.07 309.97 87.11 315.71 95.33 C 320.63 102.06 322.64 110.76 321.34 118.98 C 318.99 135.45 316.63 151.93 314.28 168.41 C 313.54 173.46 312.98 178.57 311.54 183.49 C 307.97 195.96 300.58 207.36 290.49 215.52 C 279.22 224.82 264.66 230.02 250.06 230.00 C 198.37 230.01 146.68 229.99 94.99 230.00 C 87.01 230.23 79.02 230.36 71.03 230.09 C 47.35 229.70 23.67 230.35 0.00 229.97 L 0.00 226.04 C 2.66 225.99 5.32 225.92 7.98 225.89 C 11.33 225.85 14.67 225.85 18.02 225.90 C 39.06 226.10 60.10 226.03 81.14 225.88 C 83.06 225.87 84.98 225.90 86.90 225.94 C 132.66 226.08 178.43 225.96 224.20 226.00 C 238.10 225.49 252.33 227.50 265.95 223.88 C 283.40 219.09 298.32 206.00 305.30 189.29 C 308.95 180.98 309.68 171.83 310.99 162.95 C 313.00 148.95 314.94 134.94 317.04 120.96 C 318.02 114.85 318.04 108.34 315.36 102.63 C 311.13 92.76 300.79 86.04 290.07 86.03 C 264.30 85.93 238.53 86.05 212.76 85.99 C 212.58 83.05 212.36 80.11 212.33 77.17 Z" />
<path fill="#c2dcff" opacity="1.00" d=" M 0.00 82.00 C 32.24 82.00 64.48 81.99 96.72 82.01 C 96.71 83.31 96.74 84.62 96.78 85.92 C 64.52 86.10 32.26 85.95 0.00 86.00 L 0.00 82.00 Z" />
</g>
<g id="#77b2ffff">
<path fill="#77b2ff" opacity="1.00" d=" M 0.00 86.00 C 32.26 85.95 64.52 86.10 96.78 85.92 C 96.83 87.25 96.88 88.58 96.93 89.90 C 92.98 89.78 88.58 89.72 85.29 92.26 C 79.47 96.57 79.36 106.46 85.09 110.89 C 88.31 113.73 92.93 113.10 96.89 113.40 C 96.99 119.27 96.99 125.13 96.90 131.00 C 96.91 135.73 96.88 140.67 98.85 145.08 C 101.68 151.54 107.30 156.97 114.21 158.78 C 117.46 159.67 120.86 159.83 124.21 159.97 C 124.63 165.59 124.44 171.23 124.37 176.87 C 115.64 181.91 107.15 187.84 100.95 195.92 C 97.59 200.40 94.55 205.14 92.04 210.16 C 91.51 189.52 92.25 168.87 91.64 148.24 C 83.78 147.41 75.88 147.80 68.00 147.80 C 60.09 147.80 52.16 147.41 44.27 148.24 C 44.27 151.06 44.28 153.88 44.29 156.70 C 56.53 157.69 68.82 156.76 81.09 157.17 C 81.87 162.41 82.06 167.71 81.83 173.00 C 81.79 186.33 81.78 199.67 81.86 213.00 C 81.88 217.30 81.59 221.60 81.14 225.88 C 60.10 226.03 39.06 226.10 18.02 225.90 C 18.03 204.24 18.30 182.57 17.90 160.91 C 14.63 160.87 11.37 160.87 8.10 160.91 C 7.69 182.56 7.98 204.23 7.98 225.89 C 5.32 225.92 2.66 225.99 0.00 226.04 L 0.00 86.00 M 17.07 147.11 C 20.90 152.37 24.38 157.86 28.00 163.25 C 31.09 162.01 34.09 160.56 36.97 158.89 C 33.97 153.28 30.65 147.52 25.66 143.45 C 22.46 143.45 19.82 145.74 17.07 147.11 M 26.96 169.03 C 26.91 171.98 26.92 174.94 26.99 177.90 C 38.32 178.43 49.67 177.93 61.00 178.15 C 65.24 178.27 69.48 178.08 73.70 177.68 C 73.73 174.88 73.73 172.07 73.70 169.27 C 66.17 168.29 58.57 168.93 51.00 168.77 C 42.99 168.87 34.96 168.50 26.96 169.03 M 30.99 189.06 C 30.93 191.99 30.91 194.92 30.94 197.85 C 43.95 198.13 56.97 198.05 69.98 197.90 C 69.99 194.94 69.97 191.98 69.92 189.01 C 56.95 188.70 43.96 188.63 30.99 189.06 M 22.92 209.06 C 22.84 212.02 22.84 214.98 22.92 217.94 C 40.97 218.27 59.04 218.29 77.08 217.93 C 77.16 214.97 77.16 212.02 77.07 209.06 C 59.03 208.71 40.97 208.72 22.92 209.06 Z" />
<path fill="#77b2ff" opacity="1.00" d=" M 212.76 85.99 C 238.53 86.05 264.30 85.93 290.07 86.03 C 300.79 86.04 311.13 92.76 315.36 102.63 C 318.04 108.34 318.02 114.85 317.04 120.96 C 314.94 134.94 313.00 148.95 310.99 162.95 C 309.68 171.83 308.95 180.98 305.30 189.29 C 298.32 206.00 283.40 219.09 265.95 223.88 C 252.33 227.50 238.10 225.49 224.20 226.00 C 221.59 212.69 214.88 200.28 205.49 190.53 C 199.88 184.86 193.21 180.46 186.40 176.42 C 185.08 171.06 185.93 165.44 185.94 159.98 C 192.41 160.03 199.16 158.49 204.09 154.06 C 209.29 149.58 212.36 142.83 212.53 135.99 C 212.80 128.54 212.27 121.07 212.84 113.63 C 216.26 113.13 220.05 113.13 222.92 110.92 C 229.06 106.47 228.44 95.88 222.14 91.85 C 219.49 90.05 216.13 90.26 213.10 89.76 C 212.97 88.51 212.86 87.25 212.76 85.99 Z" />
</g>
<g id="#1151a3ff">
<path fill="#1151a3" opacity="1.00" d=" M 99.73 90.62 C 101.10 89.34 102.37 87.91 103.98 86.93 C 112.62 86.02 121.33 87.00 130.00 86.73 C 135.52 86.94 141.18 86.08 146.60 87.38 C 151.25 88.79 153.20 93.59 154.38 97.86 C 155.49 97.88 156.61 97.90 157.72 97.92 C 158.78 94.60 159.72 90.86 162.79 88.79 C 167.21 85.67 172.94 86.97 178.00 86.71 C 187.99 87.08 198.02 85.99 207.98 86.95 C 209.50 87.74 210.87 88.77 212.35 89.63 C 211.91 91.68 211.87 93.91 210.78 95.76 C 209.16 97.71 206.40 97.78 204.14 98.45 C 203.34 103.42 203.66 109.12 200.18 113.17 C 197.76 116.18 193.81 117.43 190.05 117.34 C 183.69 117.32 177.33 117.52 170.98 117.21 C 166.62 117.05 162.48 114.16 160.96 110.05 C 159.86 107.67 159.46 103.86 156.00 104.13 C 152.87 103.79 152.32 107.35 151.36 109.50 C 149.95 113.91 145.70 117.17 141.04 117.22 C 134.36 117.45 127.65 117.37 120.96 117.28 C 117.03 117.29 113.15 115.30 110.99 112.00 C 108.47 107.97 108.64 103.00 107.95 98.45 C 105.69 97.78 102.82 97.80 101.28 95.74 C 100.43 94.15 100.17 92.34 99.73 90.62 M 105.25 90.16 C 103.54 90.84 103.98 92.82 103.70 94.27 C 105.17 94.02 107.17 94.49 107.88 92.77 C 108.28 91.18 106.80 89.81 105.25 90.16 M 111.54 96.93 C 111.85 100.57 112.15 104.25 113.07 107.80 C 113.98 111.31 117.52 113.63 121.04 113.72 C 126.37 113.94 131.71 113.73 137.05 113.83 C 140.94 114.10 145.46 113.21 147.53 109.53 C 149.08 105.58 149.81 101.27 150.01 97.05 C 150.06 93.23 146.49 91.05 143.30 89.96 C 140.70 90.18 138.09 90.34 135.48 90.44 C 129.67 90.24 123.86 90.28 118.04 90.33 C 114.50 90.07 111.05 93.31 111.54 96.93 M 167.41 90.61 C 163.82 91.47 161.29 95.34 162.11 98.98 C 162.89 102.90 162.99 107.25 165.35 110.62 C 169.23 115.19 175.78 113.45 181.00 113.77 C 186.16 113.35 192.19 115.14 196.59 111.60 C 200.40 108.19 199.67 102.50 200.45 97.90 C 201.20 94.64 199.00 90.94 195.60 90.48 C 191.77 90.09 187.91 90.44 184.08 90.20 L 184.16 90.86 C 181.55 90.46 178.92 90.29 176.28 90.38 C 173.33 90.41 170.33 90.02 167.41 90.61 M 204.18 92.79 C 205.01 95.27 207.60 93.75 209.16 93.01 C 208.33 91.91 207.53 90.78 206.82 89.60 C 205.74 90.49 203.69 91.00 204.18 92.79 Z" />
</g>
<g id="#89b3dcff">
<path fill="#89b3dc" opacity="1.00" d=" M 105.25 90.16 C 106.80 89.81 108.28 91.18 107.88 92.77 C 107.17 94.49 105.17 94.02 103.70 94.27 C 103.98 92.82 103.54 90.84 105.25 90.16 Z" />
</g>
<g id="#fefefcff">
<path fill="#fefefc" opacity="1.00" d=" M 111.54 96.93 C 111.05 93.31 114.50 90.07 118.04 90.33 C 123.86 90.28 129.67 90.24 135.48 90.44 C 134.72 92.24 134.28 94.35 132.70 95.67 C 131.02 96.70 129.03 97.00 127.16 97.53 C 127.52 101.25 127.20 105.90 130.79 108.21 C 135.21 111.66 142.38 109.11 143.71 103.69 C 144.46 99.15 144.05 94.48 143.30 89.96 C 146.49 91.05 150.06 93.23 150.01 97.05 C 149.81 101.27 149.08 105.58 147.53 109.53 C 145.46 113.21 140.94 114.10 137.05 113.83 C 131.71 113.73 126.37 113.94 121.04 113.72 C 117.52 113.63 113.98 111.31 113.07 107.80 C 112.15 104.25 111.85 100.57 111.54 96.93 Z" />
</g>
<g id="#3d3d3dff">
<path fill="#3d3d3d" opacity="1.00" d=" M 135.48 90.44 C 138.09 90.34 140.70 90.18 143.30 89.96 C 144.05 94.48 144.46 99.15 143.71 103.69 C 142.38 109.11 135.21 111.66 130.79 108.21 C 127.20 105.90 127.52 101.25 127.16 97.53 C 129.03 97.00 131.02 96.70 132.70 95.67 C 134.28 94.35 134.72 92.24 135.48 90.44 Z" />
</g>
<g id="#ffffffff">
<path fill="#ffffff" opacity="1.00" d=" M 167.41 90.61 C 170.33 90.02 173.33 90.41 176.28 90.38 C 175.14 94.29 172.08 97.22 167.88 97.43 C 168.01 100.87 167.69 104.92 170.60 107.39 C 174.37 111.39 181.96 109.95 183.89 104.78 C 185.35 100.30 184.69 95.45 184.16 90.86 L 184.08 90.20 C 187.91 90.44 191.77 90.09 195.60 90.48 C 199.00 90.94 201.20 94.64 200.45 97.90 C 199.67 102.50 200.40 108.19 196.59 111.60 C 192.19 115.14 186.16 113.35 181.00 113.77 C 175.78 113.45 169.23 115.19 165.35 110.62 C 162.99 107.25 162.89 102.90 162.11 98.98 C 161.29 95.34 163.82 91.47 167.41 90.61 Z" />
</g>
<g id="#3e3c3dff">
<path fill="#3e3c3d" opacity="1.00" d=" M 176.28 90.38 C 178.92 90.29 181.55 90.46 184.16 90.86 C 184.69 95.45 185.35 100.30 183.89 104.78 C 181.96 109.95 174.37 111.39 170.60 107.39 C 167.69 104.92 168.01 100.87 167.88 97.43 C 172.08 97.22 175.14 94.29 176.28 90.38 Z" />
</g>
<g id="#7ea9d8ff">
<path fill="#7ea9d8" opacity="1.00" d=" M 204.18 92.79 C 203.69 91.00 205.74 90.49 206.82 89.60 C 207.53 90.78 208.33 91.91 209.16 93.01 C 207.60 93.75 205.01 95.27 204.18 92.79 Z" />
</g>
<g id="#f1a078ff">
<path fill="#f1a078" opacity="1.00" d=" M 150.05 120.03 C 150.80 115.68 153.33 111.83 156.46 108.81 C 159.04 113.11 164.41 118.53 160.75 123.69 C 157.96 128.50 149.62 125.36 150.05 120.03 Z" />
</g>
<g id="#ef9f77ff">
<path fill="#ef9f77" opacity="1.00" d=" M 135.17 123.94 C 139.06 125.35 141.22 129.66 145.38 130.55 C 148.91 131.08 152.48 131.31 156.00 131.90 C 155.95 132.69 155.84 134.26 155.79 135.04 C 148.51 137.39 139.98 134.74 135.10 128.91 C 133.70 127.53 133.56 125.23 135.17 123.94 Z" />
</g>
<g id="#92c1ffff">
<path fill="#92c1ff" opacity="1.00" d=" M 17.07 147.11 C 19.82 145.74 22.46 143.45 25.66 143.45 C 30.65 147.52 33.97 153.28 36.97 158.89 C 34.09 160.56 31.09 162.01 28.00 163.25 C 24.38 157.86 20.90 152.37 17.07 147.11 Z" />
<path fill="#92c1ff" opacity="1.00" d=" M 44.27 148.24 C 52.16 147.41 60.09 147.80 68.00 147.80 C 75.88 147.80 83.78 147.41 91.64 148.24 C 92.25 168.87 91.51 189.52 92.04 210.16 C 89.97 215.30 88.20 220.55 86.90 225.94 C 84.98 225.90 83.06 225.87 81.14 225.88 C 81.59 221.60 81.88 217.30 81.86 213.00 C 81.78 199.67 81.79 186.33 81.83 173.00 C 82.06 167.71 81.87 162.41 81.09 157.17 C 68.82 156.76 56.53 157.69 44.29 156.70 C 44.28 153.88 44.27 151.06 44.27 148.24 Z" />
<path fill="#92c1ff" opacity="1.00" d=" M 8.10 160.91 C 11.37 160.87 14.63 160.87 17.90 160.91 C 18.30 182.57 18.03 204.24 18.02 225.90 C 14.67 225.85 11.33 225.85 7.98 225.89 C 7.98 204.23 7.69 182.56 8.10 160.91 Z" />
<path fill="#92c1ff" opacity="1.00" d=" M 26.96 169.03 C 34.96 168.50 42.99 168.87 51.00 168.77 C 58.57 168.93 66.17 168.29 73.70 169.27 C 73.73 172.07 73.73 174.88 73.70 177.68 C 69.48 178.08 65.24 178.27 61.00 178.15 C 49.67 177.93 38.32 178.43 26.99 177.90 C 26.92 174.94 26.91 171.98 26.96 169.03 Z" />
<path fill="#92c1ff" opacity="1.00" d=" M 30.99 189.06 C 43.96 188.63 56.95 188.70 69.92 189.01 C 69.97 191.98 69.99 194.94 69.98 197.90 C 56.97 198.05 43.95 198.13 30.94 197.85 C 30.91 194.92 30.93 191.99 30.99 189.06 Z" />
<path fill="#92c1ff" opacity="1.00" d=" M 22.92 209.06 C 40.97 208.72 59.03 208.71 77.07 209.06 C 77.16 212.02 77.16 214.97 77.08 217.93 C 59.04 218.29 40.97 218.27 22.92 217.94 C 22.84 214.98 22.84 212.02 22.92 209.06 Z" />
</g>
<g id="#424242ff">
<path fill="#424242" opacity="1.00" d=" M 124.21 159.97 C 144.79 160.07 165.37 160.04 185.94 159.98 C 185.93 165.44 185.08 171.06 186.40 176.42 C 193.21 180.46 199.88 184.86 205.49 190.53 C 214.88 200.28 221.59 212.69 224.20 226.00 C 178.43 225.96 132.66 226.08 86.90 225.94 C 88.20 220.55 89.97 215.30 92.04 210.16 C 94.55 205.14 97.59 200.40 100.95 195.92 C 107.15 187.84 115.64 181.91 124.37 176.87 C 124.44 171.23 124.63 165.59 124.21 159.97 Z" />
</g>
</svg>
