<svg fill="none" height="407" viewBox="0 0 369 407" width="369" xmlns="http://www.w3.org/2000/svg" xmlns:xlink="http://www.w3.org/1999/xlink"><filter id="a" color-interpolation-filters="sRGB" filterUnits="userSpaceOnUse" height="50" width="369" x="0" y="357"><feFlood flood-opacity="0" result="BackgroundImageFix"/><feBlend in="SourceGraphic" in2="BackgroundImageFix" mode="normal" result="shape"/><feGaussianBlur result="effect1_foregroundBlur_251_7" stdDeviation="5"/></filter><filter id="b" color-interpolation-filters="sRGB" filterUnits="userSpaceOnUse" height="48" width="292" x="37" y="301"><feFlood flood-opacity="0" result="BackgroundImageFix"/><feBlend in="SourceGraphic" in2="BackgroundImageFix" mode="normal" result="shape"/><feGaussianBlur result="effect1_foregroundBlur_251_7" stdDeviation="5"/></filter><linearGradient id="c" gradientUnits="userSpaceOnUse" x1="185" x2="184.5" y1="367" y2="397"><stop offset="0" stop-color="#770d0d"/><stop offset="1" stop-color="#820e0e" stop-opacity="0"/></linearGradient><linearGradient id="d" gradientUnits="userSpaceOnUse" x1="184.5" x2="184.5" y1="348" y2="367"><stop offset="0" stop-color="#f0f0f0"/><stop offset="1" stop-color="#f9f8f8"/></linearGradient><linearGradient id="e" gradientUnits="userSpaceOnUse" x1="183" x2="183" y1="311" y2="339"><stop offset="0" stop-color="#b9b9b9" stop-opacity="0"/><stop offset=".572161" stop-color="#828282"/></linearGradient><linearGradient id="f" gradientUnits="userSpaceOnUse" x1="183" x2="183" y1="0" y2="340"><stop offset="0" stop-color="#efe7d2"/><stop offset="1" stop-color="#f2e8cf"/></linearGradient><linearGradient id="g" gradientUnits="userSpaceOnUse" x1="73" x2="58" y1="170" y2="170"><stop offset="0" stop-color="#f3ebd6"/><stop offset=".668269" stop-color="#fdf7ea"/><stop offset="1" stop-color="#bcae8b"/></linearGradient><clipPath id="h"><path d="m115 54h144v205h-144z"/></clipPath><g filter="url(#a)"><path d="m10 367h349v30h-349z" fill="url(#c)" fill-opacity=".5"/></g><path d="m10 348h349v19h-349z" fill="url(#d)"/><path d="m40 312h289l30 36h-349z" fill="#fff"/><g filter="url(#b)"><path d="m47 311h272l-21.5 28h-237z" fill="url(#e)"/></g><path d="m58 4c0-2.20914 1.7909-4 4-4h226c11.046 0 20 8.95431 20 20v300c0 11.046-8.954 20-20 20h-226c-2.2091 0-4-1.791-4-4z" fill="url(#f)"/><path d="m58 4c0-2.20914 1.7909-4 4-4h11v340h-11c-2.2091 0-4-1.791-4-4z" fill="url(#g)"/><path d="m143.19 267.88h1.35v6.138h-1.35zm-3.924 6.75v3.222h9.414v-3.222zm-1.278-1.278h12.042v5.76h-12.042zm5.832-3.564h7.56v1.278h-7.56zm-2.7 10.908 1.278-.108c.096.372.174.78.234 1.224.072.432.126.846.162 1.242.048.408.072.756.072 1.044l-1.368.18c0-.3-.018-.654-.054-1.062-.024-.408-.066-.834-.126-1.278s-.126-.858-.198-1.242zm3.726.018 1.224-.27c.192.36.372.756.54 1.188.18.42.342.828.486 1.224.156.396.264.744.324 1.044l-1.314.342c-.06-.3-.156-.654-.288-1.062s-.282-.828-.45-1.26-.342-.834-.522-1.206zm3.672-.144 1.206-.468c.312.384.618.792.918 1.224.312.432.6.864.864 1.296.264.42.468.798.612 1.134l-1.278.54c-.132-.336-.324-.72-.576-1.152s-.534-.87-.846-1.314c-.3-.456-.6-.876-.9-1.26zm-10.332-.36 1.278.342c-.288.696-.654 1.398-1.098 2.106-.432.708-.894 1.296-1.386 1.764l-1.224-.594c.48-.408.936-.942 1.368-1.602.432-.672.786-1.344 1.062-2.016zm17.316-9.54h13.122v1.35h-13.122zm-1.332 4.176h15.696v1.35h-15.696zm7.182-6.948h1.404v15.084h-1.404zm5.598 9.684h1.386v6.858h-1.386zm-11.286 0h1.422v4.518h10.764v1.314h-12.186zm16.218-5.382h7.812v1.062h-7.812zm1.242 7.578h5.598v.972h-5.598zm0 2.538h5.562v1.08h-5.562zm2.358-13.122h1.152v7.722h-1.152zm.072 8.658h.99v5.04h-.99zm3.33-9.846.738.936c-.636.144-1.374.276-2.214.396-.828.12-1.686.222-2.574.306-.876.072-1.716.126-2.52.162-.024-.144-.066-.3-.126-.468-.06-.18-.126-.336-.198-.468.792-.06 1.614-.132 2.466-.216.864-.084 1.68-.18 2.448-.288.78-.108 1.44-.228 1.98-.36zm-2.376 5.058c.156.096.396.258.72.486.336.216.69.456 1.062.72s.714.51 1.026.738.528.396.648.504l-.684 1.062c-.156-.168-.384-.384-.684-.648-.288-.276-.606-.558-.954-.846-.348-.3-.678-.576-.99-.828-.3-.252-.552-.444-.756-.576zm-3.708-2.844.918-.234c.144.3.288.636.432 1.008.144.36.252.66.324.9l-.954.306c-.072-.252-.18-.564-.324-.936-.132-.384-.264-.732-.396-1.044zm5.436-.486 1.044.342c-.204.456-.414.918-.63 1.386-.216.456-.42.852-.612 1.188l-.882-.306c.132-.24.264-.51.396-.81.132-.312.258-.624.378-.936.132-.324.234-.612.306-.864zm-2.898 3.042.81.45c-.3.528-.666 1.068-1.098 1.62s-.894 1.068-1.386 1.548-.972.876-1.44 1.188c-.06-.168-.144-.366-.252-.594-.108-.24-.216-.432-.324-.576.432-.264.882-.594 1.35-.99s.906-.822 1.314-1.278c.42-.468.762-.924 1.026-1.368zm-2.826 4.464h6.948v6.966h-1.098v-5.904h-4.788v6.12h-1.062zm7.704-8.514h3.096v1.152h-3.096zm2.43 0h1.116v14.166c0 .324-.042.582-.126.774-.072.204-.21.36-.414.468-.204.096-.474.156-.81.18-.324.024-.732.036-1.224.036-.012-.156-.054-.354-.126-.594-.072-.228-.15-.42-.234-.576.348.012.666.018.954.018s.486-.006.594-.018c.096 0 .162-.018.198-.054.048-.036.072-.114.072-.234zm1.548.018h2.844v1.152h-2.844zm2.412 0h1.17v14.13c0 .348-.042.618-.126.81-.084.204-.234.36-.45.468-.216.096-.492.156-.828.18-.336.036-.75.054-1.242.054-.024-.168-.078-.378-.162-.63-.084-.24-.168-.438-.252-.594.36.012.69.018.99.018h.612c.108 0 .18-.024.216-.072.048-.048.072-.132.072-.252zm-6.426 3.186.9-.27c.168.372.336.78.504 1.224.168.432.318.852.45 1.26.132.396.228.744.288 1.044l-.954.342c-.06-.3-.156-.66-.288-1.08-.12-.42-.258-.852-.414-1.296s-.318-.852-.486-1.224zm4.032-.054.9-.216c.18.372.348.774.504 1.206.168.42.318.828.45 1.224s.228.744.288 1.044l-.972.288c-.06-.3-.15-.654-.27-1.062s-.264-.828-.432-1.26c-.156-.444-.312-.852-.468-1.224zm-.216 7.344c.372-.36.816-.816 1.332-1.368s1.044-1.128 1.584-1.728l.558.9c-.468.528-.948 1.062-1.44 1.602-.48.54-.942 1.05-1.386 1.53zm-4.122.198c.372-.396.84-.894 1.404-1.494.576-.612 1.152-1.242 1.728-1.89l.54.9c-.492.588-1.008 1.182-1.548 1.782-.528.6-1.026 1.146-1.494 1.638zm13.806-3.528h10.494v8.586h-1.35v-7.506h-7.848v7.506h-1.296zm-3.618-2.376h15.876v1.116h-15.876zm1.314-2.43h13.518v1.08h-13.518zm3.168 7.11h8.838v.954h-8.838zm0 2.214h8.838v.936h-8.838zm-.126 2.268h8.964v1.08h-8.964zm9.45-14.652.864.972c-.84.168-1.794.312-2.862.432s-2.196.216-3.384.288-2.388.132-3.6.18c-1.212.036-2.376.054-3.492.054-.012-.144-.048-.318-.108-.522-.048-.204-.102-.378-.162-.522 1.092-.012 2.232-.036 3.42-.072 1.2-.036 2.376-.09 3.528-.162s2.226-.162 3.222-.27 1.854-.234 2.574-.378zm-7.38 1.224 1.404.306c-.408 1.44-.936 2.844-1.584 4.212-.636 1.356-1.434 2.604-2.394 3.744s-2.112 2.112-3.456 2.916c-.06-.096-.144-.21-.252-.342-.096-.144-.198-.276-.306-.396s-.21-.228-.306-.324c1.284-.732 2.376-1.632 3.276-2.7.912-1.068 1.662-2.238 2.25-3.51s1.044-2.574 1.368-3.906zm19.692 3.996h6.804v1.224h-6.804zm.036 4.356h6.804v1.242h-6.804zm-.018 4.374h6.804v1.242h-6.804zm-.684-13.032h8.154v15.318h-1.368v-14.04h-5.472v14.094h-1.314zm-7.578 2.79h6.804v1.296h-6.804zm2.916-3.852h1.314v16.542h-1.314zm-.054 4.662.882.288c-.168.732-.372 1.488-.612 2.268-.24.768-.516 1.53-.828 2.286-.3.744-.624 1.434-.972 2.07-.336.624-.684 1.164-1.044 1.62-.072-.18-.18-.384-.324-.612-.144-.24-.27-.444-.378-.612.324-.408.648-.888.972-1.44.336-.564.654-1.176.954-1.836s.564-1.332.792-2.016c.228-.696.414-1.368.558-2.016zm1.242 1.98c.132.12.324.33.576.63.264.288.546.606.846.954.312.336.594.654.846.954.252.288.426.498.522.63l-.828 1.098c-.132-.216-.312-.486-.54-.81-.228-.336-.474-.684-.738-1.044-.264-.372-.522-.714-.774-1.026-.24-.312-.438-.558-.594-.738zm16.434-5.472h3.834v1.278h-3.834zm-2.718 5.976h16.488v1.296h-16.488zm2.016-5.976h1.296v5.562c0 .732-.03 1.53-.09 2.394s-.174 1.746-.342 2.646c-.156.888-.39 1.752-.702 2.592-.3.84-.708 1.608-1.224 2.304-.06-.096-.156-.21-.288-.342-.12-.12-.246-.24-.378-.36-.12-.108-.228-.192-.324-.252.468-.648.84-1.35 1.116-2.106s.48-1.53.612-2.322c.132-.804.216-1.59.252-2.358.048-.768.072-1.5.072-2.196zm3.834 0h1.314v13.698c0 .36-.048.642-.144.846s-.27.36-.522.468c-.24.108-.57.174-.99.198-.408.024-.924.036-1.548.036-.024-.168-.084-.372-.18-.612-.084-.24-.174-.444-.27-.612.456.012.87.018 1.242.018.384.012.636.012.756 0 .132-.012.222-.042.27-.09s.072-.138.072-.27zm3.924 0h3.996v1.278h-3.996zm-.738 0h1.314v5.598c0 .72-.024 1.506-.072 2.358s-.15 1.722-.306 2.61c-.144.888-.354 1.752-.63 2.592-.276.828-.648 1.584-1.116 2.268-.06-.084-.156-.192-.288-.324-.12-.12-.246-.24-.378-.36-.132-.108-.246-.186-.342-.234.42-.66.75-1.362.99-2.106s.42-1.512.54-2.304.198-1.572.234-2.34.054-1.488.054-2.16zm4.194 0h1.332v13.752c0 .384-.054.684-.162.9-.096.216-.27.378-.522.486-.24.108-.576.174-1.008.198s-.972.036-1.62.036c-.012-.108-.048-.24-.108-.396-.048-.156-.102-.312-.162-.468-.048-.156-.108-.288-.18-.396.468.012.894.018 1.278.018.396 0 .654-.006.774-.018.144-.012.24-.042.288-.09.06-.048.09-.144.09-.288z" fill="#b2a88d"/><g clip-path="url(#h)"><g fill="#efe7d2"><path d="m115 54h143.791c.024 52.112 0 104.225.012 156.337-.014 16.222.017 32.441-.017 48.663h-143.786zm77.669 13.0203c.189 1.0984.938 1.9994 1.365 3.0135-.991-.0554-1.98.0892-2.968.1398-7.104.5179-14.235.6431-21.353.383-8.431-.1903-16.728-2.2211-25.179-2.0524-1.85.0337-3.691.2529-5.536.3734-1.462.0987-2.981.3107-4.26 1.0743-.826.4939-1.311 1.4141-1.402 2.3584-.262 2.2572.206 4.5047.506 6.7329.288 1.6767.344 3.3798.42 5.0757.183 2.7221.305 5.4441.466 8.1662-2.462 1.284-4.915 2.5848-7.375 3.8688 1.207.7371 2.1 1.8597 3.043 2.8931.677.7034 1.07 1.614 1.69 2.363.902 1.111 2.04 2.021 3.292 2.708-.036.472-.055.949-.028 1.423.513 11.161.861 22.329 1.096 33.499.19 9.395.423 18.797.132 28.192-.115 3.298-.36 6.588-.544 9.884-.766 10.572-1.028 21.186-.629 31.781.17 3.247.185 6.516.59 9.744-1.003 3.054-1.821 6.215-2.016 9.433-.197 1.07-.621 2.079-.849 3.139.074.561.912.841 1.051.137 1.661-1.664 3.398-3.329 5.539-4.353.958-.498 2.054-.585 3.036-1.011 4.99.048 9.982.016 14.966.272 5.276.202 10.558.229 15.833.019 3.826-.12 7.656-.164 11.482-.335.113.764.24 1.53.281 2.303 1.975.094 4.317-.327 5.424-2.165l-.034.156c.055-.103.166-.311.223-.417 5.357-.081 10.714-.269 16.073-.306-.065-.346-.151-.688-.326-.992-.188-1.296-.185-2.611-.012-3.907 2.635.236 5.373.469 7.924-.429 1.2-.361 2.23-1.084 3.255-1.783-.713 1.944-1.803 3.746-2.955 5.457-1.056 1.551-2.361 3.052-4.154 3.733.636.42 1.459.224 2.179.287 3.684-.135 7.195-1.46 10.56-2.874l-.05.219c2.496-.233 5.006-.13 7.507-.233 3.11-.044 6.218-.154 9.329-.21 1.068-2.756 1.565-5.707 1.733-8.648.285-6.003-.281-12.001-.38-18.002 1.884.961 4.044 1.956 6.197 1.405.238-.109.475-.215.718-.318-.113-.22-.226-.439-.336-.653-.415-.171-.771-.448-1.135-.696-.992-1.272-2.057-2.607-2.295-4.257-.497-4.389-1.829-8.67-3.823-12.601.118-2.508-.11-5.016-.134-7.521-.62-25.686-.872-51.385-.564-77.076.028-.9298.038-1.8596-.053-2.7847 1.809-2.857 3.295-6.0705 3.235-9.5297.113-3.7868-1.91-7.1064-3.002-10.6162.468-1.2695.151-2.698.288-4.0325-8.549-.3324-17.055-1.5851-25.623-1.455-4.346.0578-8.645.754-12.965 1.1683-.482.0434-.96.1181-1.432.2289-.672-1.4888-1.272-3.0112-1.988-4.4758-.412-.8793-1.524-.7227-2.311-.6312-1.565.1976-3.365 1.0503-3.722 2.7342z"/><path d="m227.406 116.003c1.995-.356 3.8-1.317 5.669-2.047-.295 1.421-1.041 2.715-2.088 3.712-2.059 2.021-4.946 2.847-7.733 3.209-2.071.402-4.104-.482-5.82-1.569-1.334-.876-2.637-1.857-3.612-3.138 2.638-.405 5.314-.393 7.976-.352 1.869.017 3.739.474 5.608.185z"/><path d="m199.276 120.995c.754-.499 1.378-1.181 2.182-1.607-1.212 2.814-3.512 5.03-6.104 6.584-1.166.715-2.433 1.243-3.628 1.905-1.172 1.243-2.547 2.358-4.229 2.794-2.847.769-5.895.092-8.484-1.207-1.966-1.129-4.272-1.305-6.447-1.756-.64-.11-1.284-.207-1.924-.308.16-.116.324-.231.489-.344-2.025.149-4.056.13-6.086.2 1.097-1.162 2.599-1.848 4.109-2.291 3.691-1.058 7.615-.776 11.342-.068 1.865.328 3.653 1.048 5.551 1.171 1.623.103 3.259-.19 4.762-.802 2.935-1.173 5.849-2.474 8.467-4.271z"/><path d="m145.569 132.974c4.389.432 7.965 3.469 10.862 6.582-.907.756-1.917 1.38-2.918 2.006-.571.395-1.275.436-1.944.492-.526-.152-1.039-.333-1.546-.533-.571-.641-1.092-1.37-1.214-2.245-.286-1.717-.792-3.452-1.884-4.839-.432-.506-.924-.957-1.356-1.463z"/><path d="m158.562 143.289c1.217-2.804 3.944-5.085 7.064-5.229 1.281-.133 2.515.291 3.77.46.252.404.449.838.667 1.262.214.426.408.862.581 1.308-.221.125-.442.253-.66.381-2.22 1.291-4.79 1.944-7.351 1.941-1.361.005-2.712-.274-4.071-.123z"/><path d="m145.722 167.591c.891.759 1.556 1.727 2.379 2.551 4.421 4.596 10.281 7.966 16.661 8.735-2.055 1.231-4.575 1.086-6.881 1.204-2.638-.357-5.129-1.339-7.606-2.264-1.855-.699-3.509-2.205-3.984-4.185-.357-1.315.18-2.669-.089-3.991-.132-.692-.309-1.371-.48-2.05z"/><path d="m207.486 196.941c1.637-.409 3.315-.976 4.469-2.281.874 2.666.269 5.762-1.658 7.819-.958-.636-1.932-1.305-3.065-1.58-1.793-.487-3.845-.118-5.263 1.11-.531 1.157-.471 2.501-.833 3.72-1.603.347-3.254.224-4.865 0-.929-.284-1.553-1.161-2.443-1.443.386-.759.415-1.645.826-2.395 1.065-2.062 3.24-3.514 5.553-3.683 2.446-.284 4.894-.641 7.279-1.267z"/><path d="m214.95 199.369c.653-.865 1.354-1.741 2.355-2.216.398 2.725.245 5.912 2.306 8.027-.816.602-1.773.975-2.592 1.575-.662.453-1.171 1.082-1.687 1.689-.312-1.865-1.255-3.662-2.897-4.669.005-.135.012-.402.015-.535.672-1.074 1.252-2.197 1.792-3.338.341.012.512-.316.708-.533z"/><path d="m202.425 202.862c.573.47.849 1.198 1.38 1.715 1.445 1.663 3.746 2.667 5.945 2.149 1.008 2.269 2.438 4.982 5.136 5.408-.586.304-1.256.34-1.884.501-2.482.6-4.968 1.352-7.174 2.669-.641.381-1.066 1.029-1.697 1.417-.626.234-.729-.658-.624-1.082.279-1.643 1.332-3.114 1.207-4.837.029-1.457-1.02-2.64-2.234-3.295-.113-1.547-.074-3.098-.055-4.645z"/></g><path d="m192.669 67.0202c.357-1.6838 2.157-2.5366 3.722-2.7341.787-.0916 1.899-.2481 2.311.6311.716 1.4647 1.316 2.9871 1.988 4.4758.926 2.1608 1.922 4.2927 2.822 6.4656 2.256-1.5971 4.543-3.1533 6.83-4.7095 1.385-.9274 3.017-1.8018 4.74-1.455.36.0868.905.4409.665.8745-.269.5998-.837.9804-1.418 1.2382-2.753 1.255-5.35 2.857-7.685 4.7841-.821.7034-1.704 1.4767-1.975 2.5703-.252 1.0166.213 2.0284.77 2.8546-2.181 2.2885-4.149 4.7745-5.897 7.4123-.427-4.9311-1.365-9.8525-3.249-14.4464-.675-1.6838-1.452-3.3243-2.259-4.9479-.427-1.0142-1.176-1.9151-1.365-3.0136z" fill="#567c71"/><path d="m238.578 72.0766c.178-.4047.581-.3011.927-.2361.499 2.2837.773 4.6613.309 6.9787-.516 3.2545-2.025 6.2391-3.751 9.0046-2.7 4.3433-5.99 8.3204-8.261 12.9262-.772 1.515-1.327 3.134-1.737 4.782-.317-.109-.636-.207-.955-.301 1.24-5.02 4.197-9.3445 7.156-13.4903 2.648-3.8182 5.348-7.7977 6.382-12.406.482-2.0331.607-4.1939.084-6.2319-.067-.3372-.163-.6769-.154-1.0262z" fill="#567c71"/><path d="m173.745 75.7093c.228-.1518.461-.3012.694-.4505.832 1.6284.996 3.4809 1.2 5.2683.326 4.047-.68 8.0362-1.683 11.9218-.216.9925-.494 2.0958.022 3.0497.633 1.1708 1.79 2.0091 2.198 3.3171.862 2.1003.67 4.4083 1.123 6.5983.471 2.295 1.738 4.374 3.408 5.988.473.53 1.244.463 1.875.639-.732.12-1.45.301-2.165.491-1.418-1.395-2.71-2.987-3.446-4.859-1.102-2.806-.627-5.979-1.844-8.7489-.53-1.3153-1.843-2.1487-2.253-3.5194-.271-1.3201-.079-2.6956.307-3.9699.864-2.8426 1.382-5.7911 1.529-8.7589.108-2.3632-.382-4.6926-.965-6.9666z" fill="#567c71"/><path d="m169.31 127.2c.444.058.885.14 1.332.2.64.101 1.284.198 1.924.308-1.132 3.954-2.179 7.962-2.503 12.074-.218-.424-.415-.858-.667-1.262-.722-.769-.917-1.848-.926-2.869-.051-2.843.624-5.628.84-8.451z" fill="#567c71"/><path d="m196.036 130.515c.295-.675.478-1.429 1.042-1.939.268.25.667.551.412.966-1.435 3.972-4.017 7.417-6.883 10.464-2.22 2.433-4.812 4.582-6.489 7.463-.516.956-1.15 1.917-1.205 3.038-.535.334-1.051.701-1.546 1.093.375-1.84 1.277-3.534 2.223-5.138 2.095-3.286 5.198-5.719 7.66-8.699 1.92-2.175 3.632-4.572 4.786-7.248z" fill="#567c71"/><path d="m162.633 143.412c2.561.003 5.131-.65 7.351-1.941-.122 1.898-.185 3.798-.146 5.702-1.628 2.777-2.696 5.872-3.192 9.055-1.541.014-3.111.197-4.517.869-.096-4.567.007-9.139.504-13.685z" fill="#567c71"/><path d="m193.326 162.968c2.175-.667 4.4-1.173 6.66-1.453 3.828-.356 7.863.326 11.093 2.508 2.775 1.795 4.947 4.705 5.415 8.034.086.894.616 1.855 1.572 2.014 3.004.248 5.786 1.662 8.227 3.365 3.852 2.734 6.955 6.338 10.106 9.824 2.379 2.515 4.591 5.184 6.948 7.718 1.119 1.096 2.251 2.259 3.711 2.891.364.248.72.525 1.135.696.11.214.223.433.336.653-.243.103-.48.209-.718.318-2.421-1.164-4.413-3.012-6.175-5.011-3.312-3.659-6.612-7.33-9.946-10.97-3.213-3.39-6.849-6.649-11.383-8.075-1.327-.458-2.966-.207-4.02-1.291-.969-1.096-.785-2.686-1.303-3.982-1.306-3.356-4.325-5.866-7.702-6.945-2.779-.956-5.791-1.026-8.664-.511-2.066.357-4.166.737-6.072 1.643.269-.472.533-.944.78-1.426z" fill="#567c71"/><path d="m180.179 198.625c.84.491 1.726.906 2.611 1.31 1.061 2.238 2.312 4.382 3.308 6.654.271-.831.136-1.937.916-2.505.668.014 1.352.108 1.942.44-.269 2.397-.449 4.804-.665 7.203.701 1.995 1.339 4.013 1.786 6.085.78-1.334 1.766-2.524 2.741-3.717.408.944.811 1.889 1.214 2.835-1.183 1.227-2.256 2.554-3.456 3.766.168 1.782.422 3.599.166 5.384-1.107 1.838-3.449 2.259-5.424 2.165-.041-.773-.168-1.539-.281-2.303-.811-5.268-2.338-10.406-4.277-15.361-.444-1.121-.838-2.265-1.409-3.33 1.656-2.517 2.076-5.846.828-8.626z" fill="#567c71"/><path d="m150.976 202.108c.348-.604.66-1.238 1.126-1.761.223.036.669.114.892.15-4.257 8.125-10.989 14.595-15.475 22.576-1.433 2.607-2.755 5.338-3.338 8.277-.139.704-.977.424-1.051-.137.228-1.06.652-2.069.849-3.139.725-1.359 1.231-2.821 1.978-4.167 4.128-7.856 10.478-14.211 15.019-21.799z" fill="#567c71"/><path d="m202.122 69.1642c4.32-.4143 8.619-1.1105 12.965-1.1683 8.568-.1301 17.074 1.1225 25.623 1.455-.137 1.3345.18 2.763-.288 4.0325-.195-.5179-.375-1.043-.569-1.561-.087-.0216-.262-.0626-.348-.0819-.346-.065-.749-.1686-.927.2361-.009.3493.087.689.154 1.0262-1.162 1.1948-1.877 2.8353-3.362 3.6857-2.662 1.9392-4.877 4.4059-7.136 6.7859-1.627 1.6381-2.601 3.7748-3.564 5.8417-2.164 4.9504-3.852 10.1031-5.236 15.3229-.36.029-.84.08-.884-.414-.232-2.142 1.5-3.886 1.486-6.0007 0-.9876-.655-1.9584-1.601-2.2571-.775-.0892-1.521.236-2.227.5179-2.597 1.1587-4.843 2.9437-7.154 4.5699 1.548-3.8039 2.954-7.6798 3.964-11.6642.54-2.3198 1.023-4.6782.999-7.0702-.063-1.2623-.197-2.645-1.056-3.6399-.605-.6745-1.632-.5493-2.419-.3469-2.028.6311-3.598 2.1512-5.103 3.5821-.557-.8263-1.022-1.8381-.77-2.8546.271-1.0937 1.154-1.8669 1.975-2.5704 2.335-1.9271 4.932-3.529 7.685-4.7841.581-.2577 1.149-.6384 1.418-1.2382.24-.4336-.305-.7877-.665-.8744-1.723-.3469-3.355.5275-4.74 1.455-2.287 1.5561-4.574 3.1123-6.83 4.7094-.9-2.1728-1.896-4.3047-2.822-6.4655.472-.1108.95-.1855 1.432-.2289z" fill="#f0b1c6"/><path d="m138.998 68.8776c1.845-.1205 3.686-.3397 5.536-.3734 8.451-.1686 16.748 1.8621 25.179 2.0524 7.118.2602 14.249.1349 21.353-.383.988-.0506 1.977-.1951 2.968-.1397.807 1.6236 1.584 3.2641 2.259 4.9479 1.884 4.5938 2.822 9.5153 3.249 14.4464-.057.0313-.175.0915-.235.1228-.667-3.4086-3.072-6.6534-6.504-7.617.451 2.2138-.468 4.4565-1.783 6.2006-.828 1.1057-1.906 1.9849-3.024 2.7751-2.995 2.2234-4.584 5.9813-4.694 9.6573-1.548-4.1023-1.251-8.6721-.13-12.8443.192-.8094.588-1.561.706-2.3849.043-2.1656-1.004-4.2084-2.439-5.767-1.61-1.7537-3.643-3.0834-5.81-4.0373-.382-.1398-.773-.3831-1.191-.2747-.232.1494-.465.2988-.693.4505-4.104 2.6306-7.913 6.0344-10.051 10.5054-1.841 3.8157-2.031 8.4071-.425 12.3361.23.5348.432 1.1226.888 1.5152 1.106.964 2.275 1.927 3.002 3.23.288.422.185.952.175 1.431-3.561-2.89-7.029-5.8992-10.548-8.8429-.835-.6793-1.581-1.4598-2.316-2.2427-3.124-3.3195-7.876-4.9455-12.376-4.4348-2.698.3324-4.997 1.8717-7.366 3.0786-.161-2.7221-.283-5.4442-.466-8.1663-.076-1.6959-.132-3.399-.42-5.0756-.3-2.2283-.768-4.4758-.506-6.733.091-.9443.576-1.8645 1.402-2.3583 1.279-.7637 2.798-.9757 4.26-1.0744z" fill="#f0b1c6"/><path d="m234.078 100.779c2.475-1.9633 4.476-4.4565 6.111-7.1497.091.925.081 1.8549.053 2.7847-.308 25.691-.056 51.39.564 77.076.024 2.505.252 5.013.134 7.521-1.937-3.575-4.231-7.056-7.378-9.677-1.744-1.546-2.647-3.755-3.547-5.849-2.205-5.087-6.523-9.243-11.786-11.016 2.702-1.404 5.369-3.021 7.517-5.208-4.143-.388-8.208-1.566-11.936-3.416-4-1.893-8.436-3.049-12.883-2.734-1.958.142-3.929.718-5.498 1.937-.274-3.406.417-6.815 1.517-10.026 2.109 1.667 4.387 3.144 6.808 4.307.711-1.689.454-3.565.18-5.319.221.125.43.27.61.451 2.474 2.478 5.59 4.369 9.017 5.143 3.533.814 7.301.368 10.613-1.077-1.28-1.747-1.848-3.881-2.472-5.921 1.783.414 3.537-.441 4.905-1.53.564-.354.495-1.106.581-1.686.142-3.276-1.678-6.285-3.934-8.513 2.787-.362 5.674-1.188 7.733-3.209 1.047-.997 1.793-2.291 2.088-3.712 1.865-.651 3.699-1.46 5.256-2.696-.233-.633-.588-1.238-1.171-1.604-1.694-1.13-3.785-1.282-5.748-1.511-.898-.39-1.668-1.028-2.563-1.426 1.747-1.975 3.425-4.018 5.229-5.94z" fill="#f0b1c6"/><path d="m135.378 104.118c1.606.968 3.557.91 5.201 1.78 2.935 1.388 5.741 3.047 8.475 4.799.204 2.584.818 5.133 1.759 7.544-3.039-.135-6.286-1.055-8.297-3.49-.842 1.708-.751 3.714-.122 5.475 1.099 3.096 3.216 5.676 5.424 8.049-1.431-.422-2.89-.73-4.361-.959-.322 2.127.914 4.095 2.097 5.752-2.829-1.06-5.935-1.406-8.913-.84 3.005 4.752 8.119 7.703 13.382 9.293.507.2 1.02.381 1.546.533-1.618 1.055-3.003 2.534-3.797 4.312-1.01 2.223-1.195 4.76-.742 7.145-2.608 2.967-4.492 6.504-5.978 10.151 3.845-.607 7.178-2.983 9.734-5.835 3.684-4.157 6.036-9.303 7.776-14.538 1.359-.151 2.71.128 4.071.123-.497 4.546-.6 9.118-.504 13.685-2.335 1.005-4.035 3.04-5.189 5.257-2.417-.135-4.565 1.281-6.252 2.876-.348.291-.653.706-1.13.773-1.469.265-2.955.431-4.443.542.199.347.403.696.607 1.046.171.679.348 1.358.48 2.05.269 1.322-.268 2.676.089 3.991.475 1.98 2.129 3.486 3.984 4.185 2.477.925 4.968 1.908 7.606 2.264-2.796 1.862-5.076 4.502-6.367 7.624-1.493 3.505-1.757 7.413-1.352 11.168-6.52 5.008-11.45 12.004-14.167 19.768-.405-3.228-.42-6.497-.59-9.744-.399-10.595-.137-21.209.629-31.781.184-3.296.429-6.586.544-9.884.291-9.395.058-18.797-.132-28.192-.235-11.17-.583-22.338-1.096-33.499-.027-.474-.008-.951.028-1.423z" fill="#f0b1c6"/><path d="m172.566 127.708c2.175.451 4.481.627 6.447 1.757 2.589 1.298 5.637 1.975 8.484 1.206 1.682-.436 3.057-1.551 4.229-2.794.153 1.058.614 2.024 1.084 2.968-3.46 2.346-7.468 3.633-11.227 5.396-4.869 2.38-9.043 6.21-11.745 10.932-.039-1.903.024-3.804.146-5.702.218-.128.439-.256.66-.381-.173-.446-.367-.882-.581-1.308.324-4.112 1.371-8.12 2.503-12.074z" fill="#f0b1c6"/><path d="m190.66 167.333c2.378-.361 4.906-.578 7.195.325 1.584.61 2.911 1.978 3.295 3.657.468 3.789 1.76 7.549 4.112 10.582 3.22 3.525 7.704 5.873 12.429 6.492 3.725.427 7.56.369 11.124 1.679 2.17.709 4.323 1.571 6.18 2.925 1.023.737 1.716 1.828 2.712 2.599 1.222.961 2.539 1.8 3.907 2.539.099 6.001.665 11.999.38 18.002-.168 2.941-.665 5.892-1.733 8.648-3.111.056-6.219.166-9.329.21-2.501.103-5.011 0-7.507.233l.05-.219c.941-.417 1.896-.807 2.815-1.272.749-1.802.044-3.818-1.051-5.309-1.003-1.467-2.345-2.64-3.715-3.746.461-1.575.218-3.223-.029-4.811.305-.033.612-.065.919-.094.209-3.037.142-6.227-1.166-9.033-.806-1.706-2.17-3.281-3.994-3.888-1.543.188-2.282 1.86-3.012 3.05-.54 1.141-1.12 2.264-1.792 3.338-.327-.24-.651-.479-.975-.72.838-1.657 1.368-3.442 1.889-5.22.317-.814-.163-1.638-.49-2.366-.861-1.758-2.858-2.702-4.756-2.666-2.837-.111-5.456 1.18-7.899 2.476-3.086 1.689-6.074 3.919-7.754 7.094-.329.706-.903 1.617-.279 2.332.425.509 1.104.167 1.642.116.89.282 1.514 1.159 2.443 1.443-1.795.489-3.66 1.301-4.718 2.919-.274.494-.631 1.089-.377 1.665.504 1.279 1.109 2.515 1.642 3.782-.975 1.193-1.961 2.383-2.741 3.717-.447-2.072-1.085-4.09-1.786-6.085.216-2.399.396-4.806.665-7.203-.59-.332-1.274-.426-1.942-.44-.78.568-.645 1.674-.916 2.505-.996-2.272-2.247-4.416-3.308-6.654 2.542.976 5.504 1.793 8.098.526-.367-3.002-.929-6.247-3.01-8.576 1.013-.318 2.021-.721 2.852-1.397.859-.682 1.413-1.651 2.172-2.429.864-.927 1.86-1.763 3.045-2.242 2.451-1.022 5.112-1.335 7.651-2.062-.196-1.174-.842-2.25-1.711-3.045-1.053-.868-2.385-1.417-3.204-2.554-1.433-1.893-1.257-4.521-2.736-6.383-1.567-2.142-4.579-3.168-7.07-2.137.605-.759 1.226-1.506 1.783-2.303z" fill="#f0b1c6"/><path d="m156.551 200.757c1.32.012 2.623-.306 3.787-.928-1.42 2.219-2.448 4.717-2.74 7.355-.464 3.49.496 7.044 2.265 10.048 1.26-1.427 2.832-2.617 4.661-3.185 1.322-.465 2.854-.161 4.049-1.012.873-.462 1.339-1.385 1.509-2.324 1.119 1.724 2.156 3.534 2.784 5.506.608-2.11 1.572-4.239 3.382-5.583 1.236-.921 2.28-2.079 3.103-3.383.571 1.065.965 2.209 1.409 3.33 1.939 4.955 3.466 10.093 4.277 15.361-3.826.171-7.656.215-11.482.335-5.275.21-10.557.183-15.833-.019-4.984-.255-9.976-.224-14.966-.272 4.282-1.716 8.39-4.763 10.061-9.224 1.653-5.215 3.441-10.496 3.734-16.005z" fill="#f0b1c6"/><path d="m190.576 220.696c1.2-1.212 2.273-2.539 3.456-3.766.55 1.248 1.063 2.513 1.658 3.739 1.14 2.33 3.449 4.025 5.993 4.461 1.683.316 3.396-.089 4.995-.609.175.303.261.646.326.992-5.359.037-10.716.224-16.073.306-.057.106-.168.314-.223.417l.034-.156c.256-1.785.002-3.602-.166-5.384z" fill="#f0b1c6"/><path d="m239.505 71.8406c.086.0192.261.0602.348.0819.194.5179.374 1.043.569 1.561 1.092 3.5098 3.115 6.8293 3.002 10.6161.06 3.4593-1.426 6.6728-3.235 9.5298-1.635 2.6931-3.636 5.1864-6.111 7.1496-1.804 1.922-3.482 3.965-5.229 5.94-.905-.452-1.831-.857-2.784-1.187.41-1.648.965-3.267 1.737-4.782 2.271-4.6057 5.561-8.5829 8.261-12.9262 1.726-2.7654 3.235-5.7501 3.751-9.0046.464-2.3173.19-4.695-.309-6.9786z" fill="#889e56"/><path d="m235.37 76.7886c1.485-.8504 2.2-2.4909 3.362-3.6857.523 2.038.398 4.1988-.084 6.2319-1.034 4.6083-3.734 8.5878-6.382 12.406-2.959 4.1458-5.916 8.4702-7.156 13.4902-1.841-.494-3.776-.769-5.676-.492 1.384-5.2198 3.072-10.3725 5.236-15.3228.963-2.0669 1.937-4.2036 3.564-5.8417 2.259-2.38 4.474-4.8467 7.136-6.7859z" fill="#889e56"/><path d="m174.438 75.2589c.418-.1085.809.1349 1.191.2746 2.167.9539 4.2 2.2836 5.81 4.0373 1.435 1.5586 2.482 3.6014 2.439 5.767-.118.8239-.514 1.5755-.706 2.3849-1.121 4.1722-1.418 8.742.13 12.8443.093 1.404.199 2.828.7 4.155 1.119 3.067 3.303 5.599 5.633 7.813-2.273-.737-4.701-.776-7.053-.494-.632-.176-1.402-.109-1.875-.639-1.67-1.614-2.937-3.692-3.408-5.988-.453-2.19-.261-4.498-1.123-6.5982-.408-1.3081-1.565-2.1464-2.198-3.3171-.516-.9539-.238-2.0572-.022-3.0497 1.003-3.8856 2.009-7.8748 1.682-11.9218-.204-1.7874-.367-3.6399-1.2-5.2683z" fill="#889e56"/><path d="m163.694 86.2147c2.138-4.471 5.947-7.8748 10.051-10.5053.583 2.274 1.073 4.6034.965 6.9666-.147 2.9678-.665 5.9163-1.529 8.7588-.387 1.2744-.579 2.6499-.307 3.97.41 1.3707 1.723 2.2041 2.253 3.5194 1.217 2.7698.742 5.9428 1.843 8.7488.737 1.872 2.028 3.464 3.447 4.859-2.496.66-4.759 1.939-6.96 3.255-1.944 1.195-3.857 2.483-5.455 4.131-2.021-4.7-5.54-8.597-9.464-11.792-2.553-1.903-5.004-3.974-7.74-5.612-1.586 2.394-1.98 5.369-1.744 8.183-2.734-1.752-5.54-3.411-8.475-4.799-1.644-.87-3.595-.812-5.201-1.78-1.252-.687-2.39-1.597-3.292-2.708-.62-.749-1.013-1.6595-1.69-2.3629-.943-1.0335-1.836-2.156-3.043-2.8932 2.46-1.2839 4.913-2.5847 7.375-3.8687 2.369-1.2069 4.668-2.7462 7.366-3.0786 4.5-.5107 9.252 1.1153 12.376 4.4348.735.7829 1.481 1.5634 2.316 2.2427 3.519 2.9438 6.987 5.9529 10.548 8.8429.01-.479.113-1.009-.175-1.431-.727-1.303-1.896-2.266-3.002-3.23-.456-.3926-.658-.9804-.888-1.5152-1.606-3.9289-1.416-8.5204.425-12.3361z" fill="#889e56"/><path d="m192.81 130.845c1.901-1.245 3.824-2.457 5.734-3.688.564 2.712-.329 5.485-1.598 7.865-1.1 3.211-1.791 6.62-1.517 10.026 1.569-1.219 3.54-1.795 5.498-1.937 4.447-.315 8.883.841 12.883 2.734 3.728 1.85 7.793 3.028 11.936 3.416-2.148 2.188-4.815 3.804-7.517 5.208 5.263 1.773 9.581 5.929 11.786 11.016.9 2.094 1.803 4.303 3.547 5.849 3.147 2.621 5.441 6.102 7.378 9.677 1.994 3.931 3.326 8.212 3.823 12.601.238 1.65 1.303 2.985 2.295 4.257-1.46-.632-2.592-1.795-3.711-2.891-2.357-2.534-4.569-5.203-6.948-7.718-3.151-3.486-6.254-7.09-10.106-9.824-2.441-1.703-5.223-3.117-8.227-3.365-.956-.159-1.486-1.12-1.572-2.014-.468-3.329-2.64-6.239-5.415-8.034-3.23-2.182-7.265-2.864-11.093-2.508-2.26.28-4.485.786-6.66 1.453 1.289-2.715 2.297-5.685 2.05-8.735-.127-1.819-.818-3.582-1.944-5.01-3.509-.812-7.349-.511-10.519 1.284.055-1.121.689-2.082 1.205-3.038 1.677-2.881 4.269-5.03 6.489-7.463 2.866-3.047 5.448-6.492 6.883-10.464.255-.415-.144-.716-.412-.966-.564.51-.747 1.264-1.042 1.939-1.154 2.676-2.866 5.073-4.786 7.248-2.462 2.98-5.565 5.413-7.66 8.699-.946 1.604-1.848 3.298-2.223 5.138-2.421 2.038-3.813 4.992-4.646 7.991-3-1.939-6.492-3.211-10.075-3.363.496-3.182 1.564-6.278 3.192-9.055 2.702-4.722 6.876-8.552 11.745-10.932 3.759-1.763 7.767-3.05 11.227-5.396z" fill="#889e56"/><path d="m198.618 162.751c2.873-.515 5.885-.445 8.664.511 3.377 1.079 6.396 3.589 7.702 6.945.518 1.296.334 2.886 1.303 3.982 1.054 1.084 2.693.833 4.02 1.291 4.534 1.426 8.17 4.685 11.383 8.075 3.334 3.64 6.634 7.311 9.946 10.97 1.762 1.999 3.754 3.847 6.175 5.011-2.153.551-4.313-.444-6.197-1.405-1.368-.739-2.685-1.578-3.907-2.539-.996-.771-1.689-1.862-2.712-2.599-1.857-1.354-4.01-2.216-6.18-2.925-3.564-1.31-7.399-1.252-11.124-1.679-4.725-.619-9.209-2.967-12.429-6.492-2.352-3.032-3.644-6.793-4.112-10.582-.384-1.679-1.711-3.047-3.295-3.657-2.289-.903-4.817-.686-7.195-.325.67-.952 1.31-1.925 1.886-2.939 1.906-.906 4.006-1.286 6.072-1.643z" fill="#889e56"/><path d="m135.995 218.641c2.717-7.764 7.647-14.76 14.167-19.768.046.359.092.718.142 1.082.593.156 1.193.289 1.798.392-.466.523-.778 1.157-1.126 1.761-4.541 7.588-10.891 13.943-15.019 21.799-.747 1.346-1.253 2.809-1.978 4.167.195-3.218 1.013-6.379 2.016-9.433z" fill="#889e56"/><path d="m152.994 200.497c1.176.188 2.367.246 3.557.26-.293 5.509-2.081 10.79-3.734 16.005-1.671 4.461-5.779 7.509-10.061 9.224-.982.426-2.078.513-3.036 1.011-2.141 1.024-3.878 2.689-5.539 4.353.583-2.938 1.905-5.67 3.338-8.277 4.486-7.98 11.218-14.451 15.475-22.576z" fill="#889e56"/><path d="m210.549 108.48c1.142-.115 2.421-.334 3.465.289.848.465 1.337 1.629.759 2.491-1.128 1.8-3.365 2.657-4.212 4.678-.641 1.407-1.054 3.207-2.614 3.884-2.621 1.178-5.774-1.383-5.582-4.151.115-1.783 1.099-3.411 2.397-4.591 1.575-1.489 3.684-2.255 5.787-2.6zm-1.978 3.067c-.465.306.024 1.226.485.744.682-.628 1.474-1.13 2.39-1.329-.002-.268-.004-.533-.007-.795-1.092.004-2.105.64-2.868 1.38zm-2.496-.111c-.885.732-1.651 1.633-2.189 2.655-.235.38.094.944.552.768.528-.963 1.22-1.802 2.009-2.56.439-.253.089-1.082-.372-.863zm4.558 1.207c-.874.706-1.577 1.607-2.199 2.537.027.426.432.498.78.477.562-.921 1.26-1.802 2.225-2.318.063-.448-.343-.973-.806-.696zm-3.811 1.183c-.473.824-1.227 1.541-1.356 2.52.22.067.54.385.729.074.535-.696.939-1.489 1.409-2.228 0-.171 0-.513 0-.684-.288.046-.653-.015-.782.318z" fill="#e2b560"/><path d="m173.644 172.144c.857-.359 1.786.226 2.261.937.797 1.182.95 2.645 1.236 4.011.24 1.503.619 3.174-.13 4.596-.789 1.264-2.33 1.741-3.693 2.096-.828.25-1.752-.229-2.064-1.029-1.056-2.631-.677-5.644.472-8.178.425-.937.893-2.031 1.918-2.433zm-.326 2.023c-.622.867-1.073 2.009-.867 3.088.159.393.552.241.814.056.026-.622.048-1.267.343-1.829.137-.385.463-.756.353-1.187-.156-.176-.466-.417-.643-.128zm-.603 5.671c.214.855.307 1.749.617 2.577.238.458.823-.127.71-.491-.228-.957-.285-1.973-.753-2.852-.262.168-.708.378-.574.766z" fill="#e2b560"/><path d="m208.571 111.547c.763-.74 1.776-1.376 2.868-1.38.003.262.005.527.007.795-.916.2-1.708.701-2.39 1.329-.461.482-.95-.438-.485-.744z" fill="#f4d485"/><path d="m206.075 111.436c.461-.219.811.61.372.863-.789.758-1.481 1.597-2.009 2.56-.458.176-.787-.388-.552-.768.538-1.022 1.304-1.923 2.189-2.655z" fill="#f4d485"/><path d="m210.633 112.643c.463-.277.869.248.806.696-.965.516-1.663 1.397-2.225 2.318-.348.021-.753-.051-.78-.477.622-.93 1.325-1.831 2.199-2.537z" fill="#f4d485"/><path d="m206.822 113.826c.129-.333.494-.272.782-.318v.684c-.47.739-.874 1.532-1.409 2.228-.189.311-.509-.007-.729-.074.129-.978.883-1.696 1.356-2.52z" fill="#f4d485"/><path d="m173.318 174.167c.177-.289.487-.048.643.128.11.431-.216.802-.353 1.187-.295.562-.317 1.207-.343 1.829-.262.185-.655.337-.814-.056-.206-1.079.245-2.221.867-3.088z" fill="#f4d485"/><path d="m172.715 179.838c-.134-.388.312-.598.574-.766.468.879.525 1.895.753 2.852.113.364-.472.949-.71.491-.31-.828-.403-1.722-.617-2.577z" fill="#f4d485"/></g></svg>