<svg width="369" height="407" viewBox="0 0 369 407" fill="none" xmlns="http://www.w3.org/2000/svg">
<g filter="url(#filter0_f_251_7)">
<rect x="10" y="367" width="349" height="30" fill="url(#paint0_linear_251_7)" fill-opacity="0.5"/>
</g>
<rect x="10" y="348" width="349" height="19" fill="url(#paint1_linear_251_7)"/>
<path d="M40 312H329L359 348H10L40 312Z" fill="white"/>
<g filter="url(#filter1_f_251_7)">
<path d="M47 311H319L297.5 339H60.5L47 311Z" fill="url(#paint2_linear_251_7)"/>
</g>
<path d="M58 4C58 1.79086 59.7909 0 62 0H288C299.046 0 308 8.95431 308 20V320C308 331.046 299.046 340 288 340H62C59.7909 340 58 338.209 58 336V4Z" fill="url(#paint3_linear_251_7)"/>
<path d="M58 4C58 1.79086 59.7909 0 62 0H73V340H62C59.7909 340 58 338.209 58 336V4Z" fill="url(#paint4_linear_251_7)"/>
<path d="M143.19 267.88H144.54V274.018H143.19V267.88ZM139.266 274.63V277.852H148.68V274.63H139.266ZM137.988 273.352H150.03V279.112H137.988V273.352ZM143.82 269.788H151.38V271.066H143.82V269.788ZM141.12 280.696L142.398 280.588C142.494 280.96 142.572 281.368 142.632 281.812C142.704 282.244 142.758 282.658 142.794 283.054C142.842 283.462 142.866 283.81 142.866 284.098L141.498 284.278C141.498 283.978 141.48 283.624 141.444 283.216C141.42 282.808 141.378 282.382 141.318 281.938C141.258 281.494 141.192 281.08 141.12 280.696ZM144.846 280.714L146.07 280.444C146.262 280.804 146.442 281.2 146.61 281.632C146.79 282.052 146.952 282.46 147.096 282.856C147.252 283.252 147.36 283.6 147.42 283.9L146.106 284.242C146.046 283.942 145.95 283.588 145.818 283.18C145.686 282.772 145.536 282.352 145.368 281.92C145.2 281.488 145.026 281.086 144.846 280.714ZM148.518 280.57L149.724 280.102C150.036 280.486 150.342 280.894 150.642 281.326C150.954 281.758 151.242 282.19 151.506 282.622C151.77 283.042 151.974 283.42 152.118 283.756L150.84 284.296C150.708 283.96 150.516 283.576 150.264 283.144C150.012 282.712 149.73 282.274 149.418 281.83C149.118 281.374 148.818 280.954 148.518 280.57ZM138.186 280.21L139.464 280.552C139.176 281.248 138.81 281.95 138.366 282.658C137.934 283.366 137.472 283.954 136.98 284.422L135.756 283.828C136.236 283.42 136.692 282.886 137.124 282.226C137.556 281.554 137.91 280.882 138.186 280.21ZM155.502 270.67H168.624V272.02H155.502V270.67ZM154.17 274.846H169.866V276.196H154.17V274.846ZM161.352 267.898H162.756V282.982H161.352V267.898ZM166.95 277.582H168.336V284.44H166.95V277.582ZM155.664 277.582H157.086V282.1H167.85V283.414H155.664V277.582ZM171.882 272.2H179.694V273.262H171.882V272.2ZM173.124 279.778H178.722V280.75H173.124V279.778ZM173.124 282.316H178.686V283.396H173.124V282.316ZM175.482 269.194H176.634V276.916H175.482V269.194ZM175.554 277.852H176.544V282.892H175.554V277.852ZM178.884 268.006L179.622 268.942C178.986 269.086 178.248 269.218 177.408 269.338C176.58 269.458 175.722 269.56 174.834 269.644C173.958 269.716 173.118 269.77 172.314 269.806C172.29 269.662 172.248 269.506 172.188 269.338C172.128 269.158 172.062 269.002 171.99 268.87C172.782 268.81 173.604 268.738 174.456 268.654C175.32 268.57 176.136 268.474 176.904 268.366C177.684 268.258 178.344 268.138 178.884 268.006ZM176.508 273.064C176.664 273.16 176.904 273.322 177.228 273.55C177.564 273.766 177.918 274.006 178.29 274.27C178.662 274.534 179.004 274.78 179.316 275.008C179.628 275.236 179.844 275.404 179.964 275.512L179.28 276.574C179.124 276.406 178.896 276.19 178.596 275.926C178.308 275.65 177.99 275.368 177.642 275.08C177.294 274.78 176.964 274.504 176.652 274.252C176.352 274 176.1 273.808 175.896 273.676L176.508 273.064ZM172.8 270.22L173.718 269.986C173.862 270.286 174.006 270.622 174.15 270.994C174.294 271.354 174.402 271.654 174.474 271.894L173.52 272.2C173.448 271.948 173.34 271.636 173.196 271.264C173.064 270.88 172.932 270.532 172.8 270.22ZM178.236 269.734L179.28 270.076C179.076 270.532 178.866 270.994 178.65 271.462C178.434 271.918 178.23 272.314 178.038 272.65L177.156 272.344C177.288 272.104 177.42 271.834 177.552 271.534C177.684 271.222 177.81 270.91 177.93 270.598C178.062 270.274 178.164 269.986 178.236 269.734ZM175.338 272.776L176.148 273.226C175.848 273.754 175.482 274.294 175.05 274.846C174.618 275.398 174.156 275.914 173.664 276.394C173.172 276.874 172.692 277.27 172.224 277.582C172.164 277.414 172.08 277.216 171.972 276.988C171.864 276.748 171.756 276.556 171.648 276.412C172.08 276.148 172.53 275.818 172.998 275.422C173.466 275.026 173.904 274.6 174.312 274.144C174.732 273.676 175.074 273.22 175.338 272.776ZM172.512 277.24H179.46V284.206H178.362V278.302H173.574V284.422H172.512V277.24ZM180.216 268.726H183.312V269.878H180.216V268.726ZM182.646 268.726H183.762V282.892C183.762 283.216 183.72 283.474 183.636 283.666C183.564 283.87 183.426 284.026 183.222 284.134C183.018 284.23 182.748 284.29 182.412 284.314C182.088 284.338 181.68 284.35 181.188 284.35C181.176 284.194 181.134 283.996 181.062 283.756C180.99 283.528 180.912 283.336 180.828 283.18C181.176 283.192 181.494 283.198 181.782 283.198C182.07 283.198 182.268 283.192 182.376 283.18C182.472 283.18 182.538 283.162 182.574 283.126C182.622 283.09 182.646 283.012 182.646 282.892V268.726ZM184.194 268.744H187.038V269.896H184.194V268.744ZM186.606 268.744H187.776V282.874C187.776 283.222 187.734 283.492 187.65 283.684C187.566 283.888 187.416 284.044 187.2 284.152C186.984 284.248 186.708 284.308 186.372 284.332C186.036 284.368 185.622 284.386 185.13 284.386C185.106 284.218 185.052 284.008 184.968 283.756C184.884 283.516 184.8 283.318 184.716 283.162C185.076 283.174 185.406 283.18 185.706 283.18C186.018 283.18 186.222 283.18 186.318 283.18C186.426 283.18 186.498 283.156 186.534 283.108C186.582 283.06 186.606 282.976 186.606 282.856V268.744ZM180.18 271.93L181.08 271.66C181.248 272.032 181.416 272.44 181.584 272.884C181.752 273.316 181.902 273.736 182.034 274.144C182.166 274.54 182.262 274.888 182.322 275.188L181.368 275.53C181.308 275.23 181.212 274.87 181.08 274.45C180.96 274.03 180.822 273.598 180.666 273.154C180.51 272.71 180.348 272.302 180.18 271.93ZM184.212 271.876L185.112 271.66C185.292 272.032 185.46 272.434 185.616 272.866C185.784 273.286 185.934 273.694 186.066 274.09C186.198 274.486 186.294 274.834 186.354 275.134L185.382 275.422C185.322 275.122 185.232 274.768 185.112 274.36C184.992 273.952 184.848 273.532 184.68 273.1C184.524 272.656 184.368 272.248 184.212 271.876ZM183.996 279.22C184.368 278.86 184.812 278.404 185.328 277.852C185.844 277.3 186.372 276.724 186.912 276.124L187.47 277.024C187.002 277.552 186.522 278.086 186.03 278.626C185.55 279.166 185.088 279.676 184.644 280.156L183.996 279.22ZM179.874 279.418C180.246 279.022 180.714 278.524 181.278 277.924C181.854 277.312 182.43 276.682 183.006 276.034L183.546 276.934C183.054 277.522 182.538 278.116 181.998 278.716C181.47 279.316 180.972 279.862 180.504 280.354L179.874 279.418ZM193.68 275.89H204.174V284.476H202.824V276.97H194.976V284.476H193.68V275.89ZM190.062 273.514H205.938V274.63H190.062V273.514ZM191.376 271.084H204.894V272.164H191.376V271.084ZM194.544 278.194H203.382V279.148H194.544V278.194ZM194.544 280.408H203.382V281.344H194.544V280.408ZM194.418 282.676H203.382V283.756H194.418V282.676ZM203.868 268.024L204.732 268.996C203.892 269.164 202.938 269.308 201.87 269.428C200.802 269.548 199.674 269.644 198.486 269.716C197.298 269.788 196.098 269.848 194.886 269.896C193.674 269.932 192.51 269.95 191.394 269.95C191.382 269.806 191.346 269.632 191.286 269.428C191.238 269.224 191.184 269.05 191.124 268.906C192.216 268.894 193.356 268.87 194.544 268.834C195.744 268.798 196.92 268.744 198.072 268.672C199.224 268.6 200.298 268.51 201.294 268.402C202.29 268.294 203.148 268.168 203.868 268.024ZM196.488 269.248L197.892 269.554C197.484 270.994 196.956 272.398 196.308 273.766C195.672 275.122 194.874 276.37 193.914 277.51C192.954 278.65 191.802 279.622 190.458 280.426C190.398 280.33 190.314 280.216 190.206 280.084C190.11 279.94 190.008 279.808 189.9 279.688C189.792 279.568 189.69 279.46 189.594 279.364C190.878 278.632 191.97 277.732 192.87 276.664C193.782 275.596 194.532 274.426 195.12 273.154C195.708 271.882 196.164 270.58 196.488 269.248ZM216.18 273.244H222.984V274.468H216.18V273.244ZM216.216 277.6H223.02V278.842H216.216V277.6ZM216.198 281.974H223.002V283.216H216.198V281.974ZM215.514 268.942H223.668V284.26H222.3V270.22H216.828V284.314H215.514V268.942ZM207.936 271.732H214.74V273.028H207.936V271.732ZM210.852 267.88H212.166V284.422H210.852V267.88ZM210.798 272.542L211.68 272.83C211.512 273.562 211.308 274.318 211.068 275.098C210.828 275.866 210.552 276.628 210.24 277.384C209.94 278.128 209.616 278.818 209.268 279.454C208.932 280.078 208.584 280.618 208.224 281.074C208.152 280.894 208.044 280.69 207.9 280.462C207.756 280.222 207.63 280.018 207.522 279.85C207.846 279.442 208.17 278.962 208.494 278.41C208.83 277.846 209.148 277.234 209.448 276.574C209.748 275.914 210.012 275.242 210.24 274.558C210.468 273.862 210.654 273.19 210.798 272.542ZM212.04 274.522C212.172 274.642 212.364 274.852 212.616 275.152C212.88 275.44 213.162 275.758 213.462 276.106C213.774 276.442 214.056 276.76 214.308 277.06C214.56 277.348 214.734 277.558 214.83 277.69L214.002 278.788C213.87 278.572 213.69 278.302 213.462 277.978C213.234 277.642 212.988 277.294 212.724 276.934C212.46 276.562 212.202 276.22 211.95 275.908C211.71 275.596 211.512 275.35 211.356 275.17L212.04 274.522ZM228.474 269.05H232.308V270.328H228.474V269.05ZM225.756 275.026H242.244V276.322H225.756V275.026ZM227.772 269.05H229.068V274.612C229.068 275.344 229.038 276.142 228.978 277.006C228.918 277.87 228.804 278.752 228.636 279.652C228.48 280.54 228.246 281.404 227.934 282.244C227.634 283.084 227.226 283.852 226.71 284.548C226.65 284.452 226.554 284.338 226.422 284.206C226.302 284.086 226.176 283.966 226.044 283.846C225.924 283.738 225.816 283.654 225.72 283.594C226.188 282.946 226.56 282.244 226.836 281.488C227.112 280.732 227.316 279.958 227.448 279.166C227.58 278.362 227.664 277.576 227.7 276.808C227.748 276.04 227.772 275.308 227.772 274.612V269.05ZM231.606 269.05H232.92V282.748C232.92 283.108 232.872 283.39 232.776 283.594C232.68 283.798 232.506 283.954 232.254 284.062C232.014 284.17 231.684 284.236 231.264 284.26C230.856 284.284 230.34 284.296 229.716 284.296C229.692 284.128 229.632 283.924 229.536 283.684C229.452 283.444 229.362 283.24 229.266 283.072C229.722 283.084 230.136 283.09 230.508 283.09C230.892 283.102 231.144 283.102 231.264 283.09C231.396 283.078 231.486 283.048 231.534 283C231.582 282.952 231.606 282.862 231.606 282.73V269.05ZM235.53 269.05H239.526V270.328H235.53V269.05ZM234.792 269.05H236.106V274.648C236.106 275.368 236.082 276.154 236.034 277.006C235.986 277.858 235.884 278.728 235.728 279.616C235.584 280.504 235.374 281.368 235.098 282.208C234.822 283.036 234.45 283.792 233.982 284.476C233.922 284.392 233.826 284.284 233.694 284.152C233.574 284.032 233.448 283.912 233.316 283.792C233.184 283.684 233.07 283.606 232.974 283.558C233.394 282.898 233.724 282.196 233.964 281.452C234.204 280.708 234.384 279.94 234.504 279.148C234.624 278.356 234.702 277.576 234.738 276.808C234.774 276.04 234.792 275.32 234.792 274.648V269.05ZM238.986 269.05H240.318V282.802C240.318 283.186 240.264 283.486 240.156 283.702C240.06 283.918 239.886 284.08 239.634 284.188C239.394 284.296 239.058 284.362 238.626 284.386C238.194 284.41 237.654 284.422 237.006 284.422C236.994 284.314 236.958 284.182 236.898 284.026C236.85 283.87 236.796 283.714 236.736 283.558C236.688 283.402 236.628 283.27 236.556 283.162C237.024 283.174 237.45 283.18 237.834 283.18C238.23 283.18 238.488 283.174 238.608 283.162C238.752 283.15 238.848 283.12 238.896 283.072C238.956 283.024 238.986 282.928 238.986 282.784V269.05Z" fill="#B2A88D"/>
<g clip-path="url(#clip0_251_7)">
<path d="M115 54H258.791C258.815 106.112 258.791 158.225 258.803 210.337C258.789 226.559 258.82 242.778 258.786 259H115V54ZM192.669 67.0203C192.858 68.1187 193.607 69.0197 194.034 70.0338C193.043 69.9784 192.054 70.123 191.066 70.1736C183.962 70.6915 176.831 70.8167 169.713 70.5566C161.282 70.3663 152.985 68.3355 144.534 68.5042C142.684 68.5379 140.843 68.7571 138.998 68.8776C137.536 68.9763 136.017 69.1883 134.738 69.9519C133.912 70.4458 133.427 71.366 133.336 72.3103C133.074 74.5675 133.542 76.815 133.842 79.0432C134.13 80.7199 134.186 82.423 134.262 84.1189C134.445 86.841 134.567 89.563 134.728 92.2851C132.266 93.5691 129.813 94.8699 127.353 96.1539C128.56 96.891 129.453 98.0136 130.396 99.047C131.073 99.7504 131.466 100.661 132.086 101.41C132.988 102.521 134.126 103.431 135.378 104.118C135.342 104.59 135.323 105.067 135.35 105.541C135.863 116.702 136.211 127.87 136.446 139.04C136.636 148.435 136.869 157.837 136.578 167.232C136.463 170.53 136.218 173.82 136.034 177.116C135.268 187.688 135.006 198.302 135.405 208.897C135.575 212.144 135.59 215.413 135.995 218.641C134.992 221.695 134.174 224.856 133.979 228.074C133.782 229.144 133.358 230.153 133.13 231.213C133.204 231.774 134.042 232.054 134.181 231.35C135.842 229.686 137.579 228.021 139.72 226.997C140.678 226.499 141.774 226.412 142.756 225.986C147.746 226.034 152.738 226.002 157.722 226.258C162.998 226.46 168.28 226.487 173.555 226.277C177.381 226.157 181.211 226.113 185.037 225.942C185.15 226.706 185.277 227.472 185.318 228.245C187.293 228.339 189.635 227.918 190.742 226.08L190.708 226.236C190.763 226.133 190.874 225.925 190.931 225.819C196.288 225.738 201.645 225.55 207.004 225.513C206.939 225.167 206.853 224.825 206.678 224.521C206.49 223.225 206.493 221.91 206.666 220.614C209.301 220.85 212.039 221.083 214.59 220.185C215.79 219.824 216.82 219.101 217.845 218.402C217.132 220.346 216.042 222.148 214.89 223.859C213.834 225.41 212.529 226.911 210.736 227.592C211.372 228.012 212.195 227.816 212.915 227.879C216.599 227.744 220.11 226.419 223.475 225.005L223.425 225.224C225.921 224.991 228.431 225.094 230.932 224.991C234.042 224.947 237.15 224.837 240.261 224.781C241.329 222.025 241.826 219.074 241.994 216.133C242.279 210.13 241.713 204.132 241.614 198.131C243.498 199.092 245.658 200.087 247.811 199.536C248.049 199.427 248.286 199.321 248.529 199.218C248.416 198.998 248.303 198.779 248.193 198.565C247.778 198.394 247.422 198.117 247.058 197.869C246.066 196.597 245.001 195.262 244.763 193.612C244.266 189.223 242.934 184.942 240.94 181.011C241.058 178.503 240.83 175.995 240.806 173.49C240.186 147.804 239.934 122.105 240.242 96.414C240.27 95.4842 240.28 94.5544 240.189 93.6293C241.998 90.7723 243.484 87.5588 243.424 84.0996C243.537 80.3128 241.514 76.9932 240.422 73.4834C240.89 72.2139 240.573 70.7854 240.71 69.4509C232.161 69.1185 223.655 67.8658 215.087 67.9959C210.741 68.0537 206.442 68.7499 202.122 69.1642C201.64 69.2076 201.162 69.2823 200.69 69.3931C200.018 67.9043 199.418 66.3819 198.702 64.9173C198.29 64.038 197.178 64.1946 196.391 64.2861C194.826 64.4837 193.026 65.3364 192.669 67.0203Z" fill="#EFE7D2"/>
<path d="M227.406 116.003C229.401 115.647 231.206 114.686 233.075 113.956C232.78 115.377 232.034 116.671 230.987 117.668C228.928 119.689 226.041 120.515 223.254 120.877C221.183 121.279 219.15 120.395 217.434 119.308C216.1 118.432 214.797 117.451 213.822 116.17C216.46 115.765 219.136 115.777 221.798 115.818C223.667 115.835 225.537 116.292 227.406 116.003Z" fill="#EFE7D2"/>
<path d="M199.276 120.995C200.03 120.496 200.654 119.814 201.458 119.388C200.246 122.202 197.946 124.418 195.354 125.972C194.188 126.687 192.921 127.215 191.726 127.877C190.554 129.12 189.179 130.235 187.497 130.671C184.65 131.44 181.602 130.763 179.013 129.464C177.047 128.335 174.741 128.159 172.566 127.708C171.926 127.598 171.282 127.501 170.642 127.4C170.802 127.284 170.966 127.169 171.131 127.056C169.106 127.205 167.075 127.186 165.045 127.256C166.142 126.094 167.644 125.408 169.154 124.965C172.845 123.907 176.769 124.189 180.496 124.897C182.361 125.225 184.149 125.945 186.047 126.068C187.67 126.171 189.306 125.878 190.809 125.266C193.744 124.093 196.658 122.792 199.276 120.995Z" fill="#EFE7D2"/>
<path d="M145.569 132.974C149.958 133.406 153.534 136.443 156.431 139.556C155.524 140.312 154.514 140.936 153.513 141.562C152.942 141.957 152.238 141.998 151.569 142.054C151.043 141.902 150.53 141.721 150.023 141.521C149.452 140.88 148.931 140.151 148.809 139.276C148.523 137.559 148.017 135.824 146.925 134.437C146.493 133.931 146.001 133.48 145.569 132.974Z" fill="#EFE7D2"/>
<path d="M158.562 143.289C159.779 140.485 162.506 138.204 165.626 138.06C166.907 137.927 168.141 138.351 169.396 138.52C169.648 138.924 169.845 139.358 170.063 139.782C170.277 140.208 170.471 140.644 170.644 141.09C170.423 141.215 170.202 141.343 169.984 141.471C167.764 142.762 165.194 143.415 162.633 143.412C161.272 143.417 159.921 143.138 158.562 143.289Z" fill="#EFE7D2"/>
<path d="M145.722 167.591C146.613 168.35 147.278 169.318 148.101 170.142C152.522 174.738 158.382 178.108 164.762 178.877C162.707 180.108 160.187 179.963 157.881 180.081C155.243 179.724 152.752 178.742 150.275 177.817C148.42 177.118 146.766 175.612 146.291 173.632C145.934 172.317 146.471 170.963 146.202 169.641C146.07 168.949 145.893 168.27 145.722 167.591Z" fill="#EFE7D2"/>
<path d="M207.486 196.941C209.123 196.532 210.801 195.965 211.955 194.66C212.829 197.326 212.224 200.422 210.297 202.479C209.339 201.843 208.365 201.174 207.232 200.899C205.439 200.412 203.387 200.781 201.969 202.009C201.438 203.166 201.498 204.51 201.136 205.729C199.533 206.076 197.882 205.953 196.271 205.729C195.342 205.445 194.718 204.568 193.828 204.286C194.214 203.527 194.243 202.641 194.654 201.891C195.719 199.829 197.894 198.377 200.207 198.208C202.653 197.924 205.101 197.567 207.486 196.941Z" fill="#EFE7D2"/>
<path d="M214.95 199.369C215.603 198.504 216.304 197.628 217.305 197.153C217.703 199.878 217.55 203.065 219.611 205.18C218.795 205.782 217.838 206.155 217.019 206.755C216.357 207.208 215.848 207.837 215.332 208.444C215.02 206.579 214.077 204.782 212.435 203.775C212.44 203.64 212.447 203.373 212.45 203.24C213.122 202.166 213.702 201.043 214.242 199.902C214.583 199.914 214.754 199.586 214.95 199.369Z" fill="#EFE7D2"/>
<path d="M202.425 202.862C202.998 203.332 203.274 204.06 203.805 204.577C205.25 206.24 207.551 207.244 209.75 206.726C210.758 208.995 212.188 211.708 214.886 212.134C214.3 212.438 213.63 212.474 213.002 212.635C210.52 213.235 208.034 213.987 205.828 215.304C205.187 215.685 204.762 216.333 204.131 216.721C203.505 216.955 203.402 216.063 203.507 215.639C203.786 213.996 204.839 212.525 204.714 210.802C204.743 209.345 203.694 208.162 202.48 207.507C202.367 205.96 202.406 204.409 202.425 202.862Z" fill="#EFE7D2"/>
<path d="M192.669 67.0202C193.026 65.3364 194.826 64.4836 196.391 64.2861C197.178 64.1945 198.29 64.038 198.702 64.9172C199.418 66.3819 200.018 67.9043 200.69 69.393C201.616 71.5538 202.612 73.6857 203.512 75.8586C205.768 74.2615 208.055 72.7053 210.342 71.1491C211.727 70.2217 213.359 69.3473 215.082 69.6941C215.442 69.7809 215.987 70.135 215.747 70.5686C215.478 71.1684 214.91 71.549 214.329 71.8068C211.576 73.0618 208.979 74.6638 206.644 76.5909C205.823 77.2943 204.94 78.0676 204.669 79.1612C204.417 80.1778 204.882 81.1896 205.439 82.0158C203.258 84.3043 201.29 86.7903 199.542 89.4281C199.115 84.497 198.177 79.5756 196.293 74.9817C195.618 73.2979 194.841 71.6574 194.034 70.0338C193.607 69.0196 192.858 68.1187 192.669 67.0202Z" fill="#567C71"/>
<path d="M238.578 72.0766C238.756 71.6719 239.159 71.7755 239.505 71.8405C240.004 74.1242 240.278 76.5018 239.814 78.8192C239.298 82.0737 237.789 85.0583 236.063 87.8238C233.363 92.1671 230.073 96.1442 227.802 100.75C227.03 102.265 226.475 103.884 226.065 105.532C225.748 105.423 225.429 105.325 225.11 105.231C226.35 100.211 229.307 95.8865 232.266 91.7407C234.914 87.9225 237.614 83.943 238.648 79.3347C239.13 77.3016 239.255 75.1408 238.732 73.1028C238.665 72.7656 238.569 72.4259 238.578 72.0766Z" fill="#567C71"/>
<path d="M173.745 75.7093C173.973 75.5575 174.206 75.4081 174.439 75.2588C175.271 76.8872 175.435 78.7397 175.639 80.5271C175.965 84.5741 174.959 88.5633 173.956 92.4489C173.74 93.4414 173.462 94.5447 173.978 95.4986C174.611 96.6694 175.768 97.5077 176.176 98.8157C177.038 100.916 176.846 103.224 177.299 105.414C177.77 107.709 179.037 109.788 180.707 111.402C181.18 111.932 181.951 111.865 182.582 112.041C181.85 112.161 181.132 112.342 180.417 112.532C178.999 111.137 177.707 109.545 176.971 107.673C175.869 104.867 176.344 101.694 175.127 98.9241C174.597 97.6088 173.284 96.7754 172.874 95.4047C172.603 94.0846 172.795 92.7091 173.181 91.4348C174.045 88.5922 174.563 85.6437 174.71 82.6759C174.818 80.3127 174.328 77.9833 173.745 75.7093Z" fill="#567C71"/>
<path d="M169.31 127.2C169.754 127.258 170.195 127.34 170.642 127.4C171.282 127.501 171.926 127.598 172.566 127.708C171.434 131.662 170.387 135.67 170.063 139.782C169.845 139.358 169.648 138.924 169.396 138.52C168.674 137.751 168.479 136.672 168.47 135.651C168.419 132.808 169.094 130.023 169.31 127.2Z" fill="#567C71"/>
<path d="M196.036 130.515C196.331 129.84 196.514 129.086 197.078 128.576C197.346 128.826 197.745 129.127 197.49 129.542C196.055 133.514 193.473 136.959 190.607 140.006C188.387 142.439 185.795 144.588 184.118 147.469C183.602 148.425 182.968 149.386 182.913 150.507C182.378 150.841 181.862 151.208 181.367 151.6C181.742 149.76 182.644 148.066 183.59 146.462C185.685 143.176 188.788 140.743 191.25 137.763C193.17 135.588 194.882 133.191 196.036 130.515Z" fill="#567C71"/>
<path d="M162.633 143.412C165.194 143.415 167.764 142.762 169.984 141.471C169.862 143.369 169.799 145.269 169.838 147.173C168.21 149.95 167.142 153.045 166.646 156.228C165.105 156.242 163.535 156.425 162.129 157.097C162.033 152.53 162.136 147.958 162.633 143.412Z" fill="#567C71"/>
<path d="M193.326 162.968C195.501 162.301 197.726 161.795 199.986 161.515C203.814 161.159 207.849 161.841 211.079 164.023C213.854 165.818 216.026 168.728 216.494 172.057C216.58 172.951 217.11 173.912 218.066 174.071C221.07 174.319 223.852 175.733 226.293 177.436C230.145 180.17 233.248 183.774 236.399 187.26C238.778 189.775 240.99 192.444 243.347 194.978C244.466 196.074 245.598 197.237 247.058 197.869C247.422 198.117 247.778 198.394 248.193 198.565C248.303 198.779 248.416 198.998 248.529 199.218C248.286 199.321 248.049 199.427 247.811 199.536C245.39 198.372 243.398 196.524 241.636 194.525C238.324 190.866 235.024 187.195 231.69 183.555C228.477 180.165 224.841 176.906 220.307 175.48C218.98 175.022 217.341 175.273 216.287 174.189C215.318 173.093 215.502 171.503 214.984 170.207C213.678 166.851 210.659 164.341 207.282 163.262C204.503 162.306 201.491 162.236 198.618 162.751C196.552 163.108 194.452 163.488 192.546 164.394C192.815 163.922 193.079 163.45 193.326 162.968Z" fill="#567C71"/>
<path d="M180.179 198.625C181.019 199.116 181.905 199.531 182.79 199.935C183.851 202.173 185.102 204.317 186.098 206.589C186.369 205.758 186.234 204.652 187.014 204.084C187.682 204.098 188.366 204.192 188.956 204.524C188.687 206.921 188.507 209.328 188.291 211.727C188.992 213.722 189.63 215.74 190.077 217.812C190.857 216.478 191.843 215.288 192.818 214.095C193.226 215.039 193.629 215.984 194.032 216.93C192.849 218.157 191.776 219.484 190.576 220.696C190.744 222.478 190.998 224.295 190.742 226.08C189.635 227.918 187.293 228.339 185.318 228.245C185.277 227.472 185.15 226.706 185.037 225.942C184.226 220.674 182.699 215.536 180.76 210.581C180.316 209.46 179.922 208.316 179.351 207.251C181.007 204.734 181.427 201.405 180.179 198.625Z" fill="#567C71"/>
<path d="M150.976 202.108C151.324 201.504 151.636 200.87 152.102 200.347C152.325 200.383 152.771 200.461 152.994 200.497C148.737 208.622 142.005 215.092 137.519 223.073C136.086 225.68 134.764 228.411 134.181 231.35C134.042 232.054 133.204 231.774 133.13 231.213C133.358 230.153 133.782 229.144 133.979 228.074C134.704 226.715 135.21 225.253 135.957 223.907C140.085 216.051 146.435 209.696 150.976 202.108Z" fill="#567C71"/>
<path d="M202.122 69.1642C206.442 68.7499 210.741 68.0537 215.087 67.9959C223.655 67.8658 232.161 69.1184 240.71 69.4509C240.573 70.7854 240.89 72.2139 240.422 73.4834C240.227 72.9655 240.047 72.4404 239.853 71.9224C239.766 71.9008 239.591 71.8598 239.505 71.8405C239.159 71.7755 238.756 71.6719 238.578 72.0766C238.569 72.4259 238.665 72.7656 238.732 73.1028C237.57 74.2976 236.855 75.9381 235.37 76.7885C232.708 78.7277 230.493 81.1944 228.234 83.5744C226.607 85.2125 225.633 87.3492 224.67 89.4161C222.506 94.3665 220.818 99.5192 219.434 104.739C219.074 104.768 218.594 104.819 218.55 104.325C218.318 102.183 220.05 100.439 220.036 98.3243C220.036 97.3367 219.381 96.3659 218.435 96.0672C217.66 95.978 216.914 96.3032 216.208 96.5851C213.611 97.7438 211.365 99.5288 209.054 101.155C210.602 97.3511 212.008 93.4752 213.018 89.4908C213.558 87.171 214.041 84.8126 214.017 82.4206C213.954 81.1583 213.82 79.7756 212.961 78.7807C212.356 78.1062 211.329 78.2314 210.542 78.4338C208.514 79.0649 206.944 80.585 205.439 82.0159C204.882 81.1896 204.417 80.1778 204.669 79.1613C204.94 78.0676 205.823 77.2944 206.644 76.5909C208.979 74.6638 211.576 73.0619 214.329 71.8068C214.91 71.5491 215.478 71.1684 215.747 70.5686C215.987 70.135 215.442 69.7809 215.082 69.6942C213.359 69.3473 211.727 70.2217 210.342 71.1492C208.055 72.7053 205.768 74.2615 203.512 75.8586C202.612 73.6858 201.616 71.5539 200.69 69.3931C201.162 69.2823 201.64 69.2076 202.122 69.1642Z" fill="#F0B1C6"/>
<path d="M138.998 68.8776C140.843 68.7571 142.684 68.5379 144.534 68.5042C152.985 68.3356 161.282 70.3663 169.713 70.5566C176.831 70.8168 183.962 70.6915 191.066 70.1736C192.054 70.123 193.043 69.9785 194.034 70.0339C194.841 71.6575 195.618 73.298 196.293 74.9818C198.177 79.5756 199.115 84.4971 199.542 89.4282C199.485 89.4595 199.367 89.5197 199.307 89.551C198.64 86.1424 196.235 82.8976 192.803 81.934C193.254 84.1478 192.335 86.3905 191.02 88.1346C190.192 89.2403 189.114 90.1195 187.996 90.9097C185.001 93.1331 183.412 96.891 183.302 100.567C181.754 96.4647 182.051 91.8949 183.172 87.7227C183.364 86.9133 183.76 86.1617 183.878 85.3378C183.921 83.1722 182.874 81.1294 181.439 79.5708C179.829 77.8171 177.796 76.4874 175.629 75.5335C175.247 75.3937 174.856 75.1504 174.438 75.2588C174.206 75.4082 173.973 75.5576 173.745 75.7093C169.641 78.3399 165.832 81.7437 163.694 86.2147C161.853 90.0304 161.663 94.6218 163.269 98.5508C163.499 99.0856 163.701 99.6734 164.157 100.066C165.263 101.03 166.432 101.993 167.159 103.296C167.447 103.718 167.344 104.248 167.334 104.727C163.773 101.837 160.305 98.8278 156.786 95.8841C155.951 95.2048 155.205 94.4243 154.47 93.6414C151.346 90.3219 146.594 88.6959 142.094 89.2066C139.396 89.539 137.097 91.0783 134.728 92.2852C134.567 89.5631 134.445 86.841 134.262 84.1189C134.186 82.423 134.13 80.7199 133.842 79.0433C133.542 76.815 133.074 74.5675 133.336 72.3103C133.427 71.366 133.912 70.4458 134.738 69.952C136.017 69.1883 137.536 68.9763 138.998 68.8776Z" fill="#F0B1C6"/>
<path d="M234.078 100.779C236.553 98.8157 238.554 96.3225 240.189 93.6293C240.28 94.5543 240.27 95.4842 240.242 96.414C239.934 122.105 240.186 147.804 240.806 173.49C240.83 175.995 241.058 178.503 240.94 181.011C239.003 177.436 236.709 173.955 233.562 171.334C231.818 169.788 230.915 167.579 230.015 165.485C227.81 160.398 223.492 156.242 218.229 154.469C220.931 153.065 223.598 151.448 225.746 149.261C221.603 148.873 217.538 147.695 213.81 145.845C209.81 143.952 205.374 142.796 200.927 143.111C198.969 143.253 196.998 143.829 195.429 145.048C195.155 141.642 195.846 138.233 196.946 135.022C199.055 136.689 201.333 138.166 203.754 139.329C204.465 137.64 204.208 135.764 203.934 134.01C204.155 134.135 204.364 134.28 204.544 134.461C207.018 136.939 210.134 138.83 213.561 139.604C217.094 140.418 220.862 139.972 224.174 138.527C222.894 136.78 222.326 134.646 221.702 132.606C223.485 133.02 225.239 132.165 226.607 131.076C227.171 130.722 227.102 129.97 227.188 129.39C227.33 126.114 225.51 123.105 223.254 120.877C226.041 120.515 228.928 119.689 230.987 117.668C232.034 116.671 232.78 115.377 233.075 113.956C234.94 113.305 236.774 112.496 238.331 111.26C238.098 110.627 237.743 110.022 237.16 109.656C235.466 108.526 233.375 108.374 231.412 108.145C230.514 107.755 229.744 107.117 228.849 106.719C230.596 104.744 232.274 102.701 234.078 100.779Z" fill="#F0B1C6"/>
<path d="M135.378 104.118C136.984 105.086 138.935 105.028 140.579 105.898C143.514 107.286 146.32 108.945 149.054 110.697C149.258 113.281 149.872 115.83 150.813 118.241C147.774 118.106 144.527 117.186 142.516 114.751C141.674 116.459 141.765 118.465 142.394 120.226C143.493 123.322 145.61 125.902 147.818 128.275C146.387 127.853 144.928 127.545 143.457 127.316C143.135 129.443 144.371 131.411 145.554 133.068C142.725 132.008 139.619 131.662 136.641 132.228C139.646 136.98 144.76 139.931 150.023 141.521C150.53 141.721 151.043 141.902 151.569 142.054C149.951 143.109 148.566 144.588 147.772 146.366C146.762 148.589 146.577 151.126 147.03 153.511C144.422 156.478 142.538 160.015 141.052 163.662C144.897 163.055 148.23 160.679 150.786 157.827C154.47 153.67 156.822 148.524 158.562 143.289C159.921 143.138 161.272 143.417 162.633 143.412C162.136 147.958 162.033 152.53 162.129 157.097C159.794 158.102 158.094 160.137 156.94 162.354C154.523 162.219 152.375 163.635 150.688 165.23C150.34 165.521 150.035 165.936 149.558 166.003C148.089 166.268 146.603 166.434 145.115 166.545C145.314 166.892 145.518 167.241 145.722 167.591C145.893 168.27 146.07 168.949 146.202 169.641C146.471 170.963 145.934 172.317 146.291 173.632C146.766 175.612 148.42 177.118 150.275 177.817C152.752 178.742 155.243 179.725 157.881 180.081C155.085 181.943 152.805 184.583 151.514 187.705C150.021 191.21 149.757 195.118 150.162 198.873C143.642 203.881 138.712 210.877 135.995 218.641C135.59 215.413 135.575 212.144 135.405 208.897C135.006 198.302 135.268 187.688 136.034 177.116C136.218 173.82 136.463 170.53 136.578 167.232C136.869 157.837 136.636 148.435 136.446 139.04C136.211 127.87 135.863 116.702 135.35 105.541C135.323 105.067 135.342 104.59 135.378 104.118Z" fill="#F0B1C6"/>
<path d="M172.566 127.708C174.741 128.159 177.047 128.335 179.013 129.465C181.602 130.763 184.65 131.44 187.497 130.671C189.179 130.235 190.554 129.12 191.726 127.877C191.879 128.935 192.34 129.901 192.81 130.845C189.35 133.191 185.342 134.478 181.583 136.241C176.714 138.621 172.54 142.451 169.838 147.173C169.799 145.27 169.862 143.369 169.984 141.471C170.202 141.343 170.423 141.215 170.644 141.09C170.471 140.644 170.277 140.208 170.063 139.782C170.387 135.67 171.434 131.662 172.566 127.708Z" fill="#F0B1C6"/>
<path d="M190.66 167.333C193.038 166.972 195.566 166.755 197.855 167.658C199.439 168.268 200.766 169.636 201.15 171.315C201.618 175.104 202.91 178.864 205.262 181.897C208.482 185.422 212.966 187.77 217.691 188.389C221.416 188.816 225.251 188.758 228.815 190.068C230.985 190.777 233.138 191.639 234.995 192.993C236.018 193.73 236.711 194.821 237.707 195.592C238.929 196.553 240.246 197.392 241.614 198.131C241.713 204.132 242.279 210.13 241.994 216.133C241.826 219.074 241.329 222.025 240.261 224.781C237.15 224.837 234.042 224.947 230.932 224.991C228.431 225.094 225.921 224.991 223.425 225.224L223.475 225.005C224.416 224.588 225.371 224.198 226.29 223.733C227.039 221.931 226.334 219.915 225.239 218.424C224.236 216.957 222.894 215.784 221.524 214.678C221.985 213.103 221.742 211.455 221.495 209.867C221.8 209.834 222.107 209.802 222.414 209.773C222.623 206.736 222.556 203.546 221.248 200.74C220.442 199.034 219.078 197.459 217.254 196.852C215.711 197.04 214.972 198.712 214.242 199.902C213.702 201.043 213.122 202.166 212.45 203.24C212.123 203 211.799 202.761 211.475 202.52C212.313 200.863 212.843 199.078 213.364 197.3C213.681 196.486 213.201 195.662 212.874 194.934C212.013 193.176 210.016 192.232 208.118 192.268C205.281 192.157 202.662 193.448 200.219 194.744C197.133 196.433 194.145 198.663 192.465 201.838C192.136 202.544 191.562 203.455 192.186 204.17C192.611 204.679 193.29 204.337 193.828 204.286C194.718 204.568 195.342 205.445 196.271 205.729C194.476 206.218 192.611 207.03 191.553 208.648C191.279 209.142 190.922 209.737 191.176 210.313C191.68 211.592 192.285 212.828 192.818 214.095C191.843 215.288 190.857 216.478 190.077 217.812C189.63 215.74 188.992 213.722 188.291 211.727C188.507 209.328 188.687 206.921 188.956 204.524C188.366 204.192 187.682 204.098 187.014 204.084C186.234 204.652 186.369 205.758 186.098 206.589C185.102 204.317 183.851 202.173 182.79 199.935C185.332 200.911 188.294 201.728 190.888 200.461C190.521 197.459 189.959 194.214 187.878 191.885C188.891 191.567 189.899 191.164 190.73 190.488C191.589 189.806 192.143 188.837 192.902 188.059C193.766 187.132 194.762 186.296 195.947 185.817C198.398 184.795 201.059 184.482 203.598 183.755C203.402 182.581 202.756 181.505 201.887 180.71C200.834 179.842 199.502 179.293 198.683 178.156C197.25 176.263 197.426 173.635 195.947 171.773C194.38 169.631 191.368 168.605 188.877 169.636C189.482 168.877 190.103 168.13 190.66 167.333Z" fill="#F0B1C6"/>
<path d="M156.551 200.757C157.871 200.769 159.174 200.451 160.338 199.829C158.918 202.048 157.89 204.546 157.598 207.184C157.134 210.674 158.094 214.228 159.863 217.232C161.123 215.805 162.695 214.615 164.524 214.047C165.846 213.582 167.378 213.886 168.573 213.035C169.446 212.573 169.912 211.65 170.082 210.711C171.201 212.435 172.238 214.245 172.866 216.217C173.474 214.107 174.438 211.978 176.248 210.634C177.484 209.713 178.528 208.555 179.351 207.251C179.922 208.316 180.316 209.46 180.76 210.581C182.699 215.536 184.226 220.674 185.037 225.942C181.211 226.113 177.381 226.157 173.555 226.277C168.28 226.487 162.998 226.46 157.722 226.258C152.738 226.003 147.746 226.034 142.756 225.986C147.038 224.27 151.146 221.223 152.817 216.762C154.47 211.547 156.258 206.266 156.551 200.757Z" fill="#F0B1C6"/>
<path d="M190.576 220.696C191.776 219.484 192.849 218.157 194.032 216.93C194.582 218.178 195.095 219.443 195.69 220.669C196.83 222.999 199.139 224.694 201.683 225.13C203.366 225.446 205.079 225.041 206.678 224.521C206.853 224.824 206.939 225.167 207.004 225.513C201.645 225.55 196.288 225.737 190.931 225.819C190.874 225.925 190.763 226.133 190.708 226.236L190.742 226.08C190.998 224.295 190.744 222.478 190.576 220.696Z" fill="#F0B1C6"/>
<path d="M239.505 71.8406C239.591 71.8598 239.766 71.9008 239.853 71.9225C240.047 72.4404 240.227 72.9655 240.422 73.4835C241.514 76.9933 243.537 80.3128 243.424 84.0996C243.484 87.5589 241.998 90.7724 240.189 93.6294C238.554 96.3225 236.553 98.8158 234.078 100.779C232.274 102.701 230.596 104.744 228.849 106.719C227.944 106.267 227.018 105.862 226.065 105.532C226.475 103.884 227.03 102.265 227.802 100.75C230.073 96.1443 233.363 92.1671 236.063 87.8238C237.789 85.0584 239.298 82.0737 239.814 78.8192C240.278 76.5019 240.004 74.1242 239.505 71.8406Z" fill="#889E56"/>
<path d="M235.37 76.7886C236.855 75.9382 237.57 74.2977 238.732 73.1029C239.255 75.1409 239.13 77.3017 238.648 79.3348C237.614 83.9431 234.914 87.9226 232.266 91.7408C229.307 95.8866 226.35 100.211 225.11 105.231C223.269 104.737 221.334 104.462 219.434 104.739C220.818 99.5192 222.506 94.3665 224.67 89.4162C225.633 87.3493 226.607 85.2126 228.234 83.5745C230.493 81.1945 232.708 78.7278 235.37 76.7886Z" fill="#889E56"/>
<path d="M174.438 75.2589C174.856 75.1504 175.247 75.3938 175.629 75.5335C177.796 76.4874 179.829 77.8171 181.439 79.5708C182.874 81.1294 183.921 83.1722 183.878 85.3378C183.76 86.1617 183.364 86.9133 183.172 87.7227C182.051 91.8949 181.754 96.4647 183.302 100.567C183.395 101.971 183.501 103.395 184.002 104.722C185.121 107.789 187.305 110.321 189.635 112.535C187.362 111.798 184.934 111.759 182.582 112.041C181.95 111.865 181.18 111.932 180.707 111.402C179.037 109.788 177.77 107.71 177.299 105.414C176.846 103.224 177.038 100.916 176.176 98.8158C175.768 97.5077 174.611 96.6694 173.978 95.4987C173.462 94.5448 173.74 93.4415 173.956 92.449C174.959 88.5634 175.965 84.5742 175.638 80.5272C175.434 78.7398 175.271 76.8873 174.438 75.2589Z" fill="#889E56"/>
<path d="M163.694 86.2147C165.832 81.7437 169.641 78.3399 173.745 75.7094C174.328 77.9834 174.818 80.3128 174.71 82.676C174.563 85.6438 174.045 88.5923 173.181 91.4348C172.794 92.7092 172.602 94.0847 172.874 95.4048C173.284 96.7755 174.597 97.6089 175.127 98.9242C176.344 101.694 175.869 104.867 176.97 107.673C177.707 109.545 178.998 111.137 180.417 112.532C177.921 113.192 175.658 114.471 173.457 115.787C171.513 116.982 169.6 118.27 168.002 119.918C165.981 115.218 162.462 111.321 158.538 108.126C155.985 106.223 153.534 104.152 150.798 102.514C149.212 104.908 148.818 107.883 149.054 110.697C146.32 108.945 143.514 107.286 140.579 105.898C138.935 105.028 136.984 105.086 135.378 104.118C134.126 103.431 132.988 102.521 132.086 101.41C131.466 100.661 131.073 99.7505 130.396 99.0471C129.453 98.0136 128.56 96.8911 127.353 96.1539C129.813 94.87 132.266 93.5692 134.728 92.2852C137.097 91.0783 139.396 89.539 142.094 89.2066C146.594 88.6959 151.346 90.3219 154.47 93.6414C155.205 94.4243 155.951 95.2048 156.786 95.8841C160.305 98.8279 163.773 101.837 167.334 104.727C167.344 104.248 167.447 103.718 167.159 103.296C166.432 101.993 165.263 101.03 164.157 100.066C163.701 99.6734 163.499 99.0856 163.269 98.5508C161.663 94.6219 161.853 90.0304 163.694 86.2147Z" fill="#889E56"/>
<path d="M192.81 130.845C194.711 129.6 196.634 128.388 198.544 127.157C199.108 129.869 198.215 132.642 196.946 135.022C195.846 138.233 195.155 141.642 195.429 145.048C196.998 143.829 198.969 143.253 200.927 143.111C205.374 142.796 209.81 143.952 213.81 145.845C217.538 147.695 221.603 148.873 225.746 149.261C223.598 151.449 220.931 153.065 218.229 154.469C223.492 156.242 227.81 160.398 230.015 165.485C230.915 167.579 231.818 169.788 233.562 171.334C236.709 173.955 239.003 177.436 240.94 181.011C242.934 184.942 244.266 189.223 244.763 193.612C245.001 195.262 246.066 196.597 247.058 197.869C245.598 197.237 244.466 196.074 243.347 194.978C240.99 192.444 238.778 189.775 236.399 187.26C233.248 183.774 230.145 180.17 226.293 177.436C223.852 175.733 221.07 174.319 218.066 174.071C217.11 173.912 216.58 172.951 216.494 172.057C216.026 168.728 213.854 165.818 211.079 164.023C207.849 161.841 203.814 161.159 199.986 161.515C197.726 161.795 195.501 162.301 193.326 162.968C194.615 160.253 195.623 157.283 195.376 154.233C195.249 152.414 194.558 150.651 193.432 149.223C189.923 148.411 186.083 148.712 182.913 150.507C182.968 149.386 183.602 148.425 184.118 147.469C185.795 144.588 188.387 142.439 190.607 140.006C193.473 136.959 196.055 133.514 197.49 129.542C197.745 129.127 197.346 128.826 197.078 128.576C196.514 129.086 196.331 129.84 196.036 130.515C194.882 133.191 193.17 135.588 191.25 137.763C188.788 140.743 185.685 143.176 183.59 146.462C182.644 148.066 181.742 149.76 181.367 151.6C178.946 153.638 177.554 156.592 176.721 159.591C173.721 157.652 170.229 156.38 166.646 156.228C167.142 153.046 168.21 149.95 169.838 147.173C172.54 142.451 176.714 138.621 181.583 136.241C185.342 134.478 189.35 133.191 192.81 130.845Z" fill="#889E56"/>
<path d="M198.618 162.751C201.491 162.236 204.503 162.306 207.282 163.262C210.659 164.341 213.678 166.851 214.984 170.207C215.502 171.503 215.318 173.093 216.287 174.189C217.341 175.273 218.98 175.022 220.307 175.48C224.841 176.906 228.477 180.165 231.69 183.555C235.024 187.195 238.324 190.866 241.636 194.525C243.398 196.524 245.39 198.372 247.811 199.536C245.658 200.087 243.498 199.092 241.614 198.131C240.246 197.392 238.929 196.553 237.707 195.592C236.711 194.821 236.018 193.73 234.995 192.993C233.138 191.639 230.985 190.777 228.815 190.068C225.251 188.758 221.416 188.816 217.691 188.389C212.966 187.77 208.482 185.422 205.262 181.897C202.91 178.865 201.618 175.104 201.15 171.315C200.766 169.636 199.439 168.268 197.855 167.658C195.566 166.755 193.038 166.972 190.66 167.333C191.33 166.381 191.97 165.408 192.546 164.394C194.452 163.488 196.552 163.108 198.618 162.751Z" fill="#889E56"/>
<path d="M135.995 218.641C138.712 210.877 143.642 203.881 150.162 198.873C150.208 199.232 150.254 199.591 150.304 199.955C150.897 200.111 151.497 200.244 152.102 200.347C151.636 200.87 151.324 201.504 150.976 202.108C146.435 209.696 140.085 216.051 135.957 223.907C135.21 225.253 134.704 226.716 133.979 228.074C134.174 224.856 134.992 221.695 135.995 218.641Z" fill="#889E56"/>
<path d="M152.994 200.497C154.17 200.685 155.361 200.743 156.551 200.757C156.258 206.266 154.47 211.547 152.817 216.762C151.146 221.223 147.038 224.271 142.756 225.986C141.774 226.412 140.678 226.499 139.72 226.997C137.579 228.021 135.842 229.686 134.181 231.35C134.764 228.412 136.086 225.68 137.519 223.073C142.005 215.093 148.737 208.622 152.994 200.497Z" fill="#889E56"/>
<path d="M210.549 108.48C211.691 108.365 212.97 108.146 214.014 108.769C214.862 109.234 215.351 110.398 214.773 111.26C213.645 113.06 211.408 113.917 210.561 115.938C209.92 117.345 209.507 119.145 207.947 119.822C205.326 121 202.173 118.439 202.365 115.671C202.48 113.888 203.464 112.26 204.762 111.08C206.337 109.591 208.446 108.825 210.549 108.48ZM208.571 111.547C208.106 111.853 208.595 112.773 209.056 112.291C209.738 111.663 210.53 111.161 211.446 110.962C211.444 110.694 211.442 110.429 211.439 110.167C210.347 110.171 209.334 110.807 208.571 111.547ZM206.075 111.436C205.19 112.168 204.424 113.069 203.886 114.091C203.651 114.471 203.98 115.035 204.438 114.859C204.966 113.896 205.658 113.057 206.447 112.299C206.886 112.046 206.536 111.217 206.075 111.436ZM210.633 112.643C209.759 113.349 209.056 114.25 208.434 115.18C208.461 115.606 208.866 115.678 209.214 115.657C209.776 114.736 210.474 113.855 211.439 113.339C211.502 112.891 211.096 112.366 210.633 112.643ZM206.822 113.826C206.349 114.65 205.595 115.367 205.466 116.346C205.686 116.413 206.006 116.731 206.195 116.42C206.73 115.724 207.134 114.931 207.604 114.192C207.604 114.021 207.604 113.679 207.604 113.508C207.316 113.554 206.951 113.493 206.822 113.826Z" fill="#E2B560"/>
<path d="M173.644 172.144C174.501 171.785 175.43 172.37 175.905 173.081C176.702 174.263 176.855 175.726 177.141 177.092C177.381 178.595 177.76 180.266 177.011 181.688C176.222 182.952 174.681 183.429 173.318 183.784C172.49 184.034 171.566 183.555 171.254 182.755C170.198 180.124 170.577 177.111 171.726 174.577C172.151 173.64 172.619 172.546 173.644 172.144ZM173.318 174.167C172.696 175.034 172.245 176.176 172.451 177.255C172.61 177.648 173.003 177.496 173.265 177.311C173.291 176.689 173.313 176.044 173.608 175.482C173.745 175.097 174.071 174.726 173.961 174.295C173.805 174.119 173.495 173.878 173.318 174.167ZM172.715 179.838C172.929 180.693 173.022 181.587 173.332 182.415C173.57 182.873 174.155 182.288 174.042 181.924C173.814 180.967 173.757 179.951 173.289 179.072C173.027 179.24 172.581 179.45 172.715 179.838Z" fill="#E2B560"/>
<path d="M208.571 111.547C209.334 110.807 210.347 110.171 211.439 110.167C211.442 110.429 211.444 110.694 211.446 110.962C210.53 111.162 209.738 111.663 209.056 112.291C208.595 112.773 208.106 111.853 208.571 111.547Z" fill="#F4D485"/>
<path d="M206.075 111.436C206.536 111.217 206.886 112.046 206.447 112.299C205.658 113.057 204.966 113.896 204.438 114.859C203.98 115.035 203.651 114.471 203.886 114.091C204.424 113.069 205.19 112.168 206.075 111.436Z" fill="#F4D485"/>
<path d="M210.633 112.643C211.096 112.366 211.502 112.891 211.439 113.339C210.474 113.855 209.776 114.736 209.214 115.657C208.866 115.678 208.461 115.606 208.434 115.18C209.056 114.25 209.759 113.349 210.633 112.643Z" fill="#F4D485"/>
<path d="M206.822 113.826C206.951 113.493 207.316 113.554 207.604 113.508C207.604 113.679 207.604 114.021 207.604 114.192C207.134 114.931 206.73 115.724 206.195 116.42C206.006 116.731 205.686 116.413 205.466 116.346C205.595 115.368 206.349 114.65 206.822 113.826Z" fill="#F4D485"/>
<path d="M173.318 174.167C173.495 173.878 173.805 174.119 173.961 174.295C174.071 174.726 173.745 175.097 173.608 175.482C173.313 176.044 173.291 176.689 173.265 177.311C173.003 177.496 172.61 177.648 172.451 177.255C172.245 176.176 172.696 175.034 173.318 174.167Z" fill="#F4D485"/>
<path d="M172.715 179.838C172.581 179.45 173.027 179.24 173.289 179.072C173.757 179.951 173.814 180.967 174.042 181.924C174.155 182.288 173.57 182.873 173.332 182.415C173.022 181.587 172.929 180.693 172.715 179.838Z" fill="#F4D485"/>
</g>
<defs>
<filter id="filter0_f_251_7" x="0" y="357" width="369" height="50" filterUnits="userSpaceOnUse" color-interpolation-filters="sRGB">
<feFlood flood-opacity="0" result="BackgroundImageFix"/>
<feBlend mode="normal" in="SourceGraphic" in2="BackgroundImageFix" result="shape"/>
<feGaussianBlur stdDeviation="5" result="effect1_foregroundBlur_251_7"/>
</filter>
<filter id="filter1_f_251_7" x="37" y="301" width="292" height="48" filterUnits="userSpaceOnUse" color-interpolation-filters="sRGB">
<feFlood flood-opacity="0" result="BackgroundImageFix"/>
<feBlend mode="normal" in="SourceGraphic" in2="BackgroundImageFix" result="shape"/>
<feGaussianBlur stdDeviation="5" result="effect1_foregroundBlur_251_7"/>
</filter>
<linearGradient id="paint0_linear_251_7" x1="185" y1="367" x2="184.5" y2="397" gradientUnits="userSpaceOnUse">
<stop stop-color="#770D0D"/>
<stop offset="1" stop-color="#820E0E" stop-opacity="0"/>
</linearGradient>
<linearGradient id="paint1_linear_251_7" x1="184.5" y1="348" x2="184.5" y2="367" gradientUnits="userSpaceOnUse">
<stop stop-color="#F0F0F0"/>
<stop offset="1" stop-color="#F9F8F8"/>
</linearGradient>
<linearGradient id="paint2_linear_251_7" x1="183" y1="311" x2="183" y2="339" gradientUnits="userSpaceOnUse">
<stop stop-color="#B9B9B9" stop-opacity="0"/>
<stop offset="0.572161" stop-color="#828282"/>
</linearGradient>
<linearGradient id="paint3_linear_251_7" x1="183" y1="0" x2="183" y2="340" gradientUnits="userSpaceOnUse">
<stop stop-color="#EFE7D2"/>
<stop offset="1" stop-color="#F2E8CF"/>
</linearGradient>
<linearGradient id="paint4_linear_251_7" x1="73" y1="170" x2="58" y2="170" gradientUnits="userSpaceOnUse">
<stop stop-color="#F3EBD6"/>
<stop offset="0.668269" stop-color="#FDF7EA"/>
<stop offset="1" stop-color="#BCAE8B"/>
</linearGradient>
<clipPath id="clip0_251_7">
<rect width="144" height="205" fill="white" transform="translate(115 54)"/>
</clipPath>
</defs>
</svg>
