<?xml version="1.0" encoding="UTF-8" ?>
<!DOCTYPE svg PUBLIC "-//W3C//DTD SVG 1.1//EN" "http://www.w3.org/Graphics/SVG/1.1/DTD/svg11.dtd">
<svg width="750pt" height="752pt" viewBox="0 0 750 752" version="1.1" xmlns="http://www.w3.org/2000/svg">
<g id="#cbe472ff">
<path fill="#cbe472" opacity="1.00" d=" M 689.92 500.47 C 709.87 497.81 729.94 496.09 750.00 494.50 L 750.00 516.72 C 717.65 516.82 685.30 516.75 652.95 516.60 L 652.33 516.63 C 650.94 516.72 649.57 516.82 648.20 516.93 C 648.35 515.16 648.51 513.40 648.68 511.64 C 647.47 513.40 646.27 515.17 645.07 516.94 C 644.87 515.17 644.66 513.38 644.47 511.61 C 643.73 513.29 642.98 514.97 642.19 516.64 C 642.03 516.59 641.71 516.51 641.55 516.47 L 641.11 516.13 C 640.53 514.41 639.95 512.66 638.63 511.36 C 638.70 513.25 638.87 515.14 639.05 517.04 C 633.04 517.45 627.03 517.67 621.02 517.96 C 614.49 518.23 607.96 519.05 601.43 518.39 C 600.70 519.96 599.99 521.53 599.32 523.14 C 599.29 521.46 599.28 519.79 599.26 518.12 C 598.89 518.25 598.15 518.50 597.78 518.63 C 597.44 518.64 596.75 518.66 596.40 518.66 C 596.10 518.55 595.51 518.32 595.21 518.20 L 594.89 518.81 L 594.18 518.68 C 593.00 518.44 591.82 518.22 590.64 518.01 C 590.26 521.85 590.85 525.69 592.38 529.24 C 592.65 528.62 593.21 527.38 593.49 526.75 C 602.61 527.50 611.55 530.07 619.70 534.21 C 614.70 536.19 609.24 536.28 603.95 535.91 C 578.59 533.59 553.38 529.90 528.06 527.19 C 519.92 526.08 511.65 525.58 503.47 526.65 C 503.89 527.24 504.73 528.41 505.15 528.99 C 530.73 531.43 556.40 533.11 581.90 536.32 C 588.41 537.58 595.25 537.69 601.38 540.47 C 591.57 540.71 581.75 539.92 571.99 539.01 C 545.35 536.84 518.72 534.54 492.10 532.21 C 480.46 531.42 468.92 529.73 457.33 528.51 C 408.51 524.90 359.55 523.68 310.66 521.47 C 285.43 519.66 260.19 522.36 235.00 523.51 C 205.10 523.85 175.18 523.25 145.28 523.76 C 146.33 523.08 147.39 522.40 148.45 521.72 C 144.20 521.55 139.97 522.00 135.81 522.80 C 135.70 522.30 135.49 521.29 135.38 520.79 C 117.26 520.23 99.12 520.70 81.00 520.44 C 73.93 520.16 67.09 522.54 60.02 522.28 C 43.01 521.97 26.00 521.95 8.99 522.12 C 5.97 522.18 2.97 521.87 0.01 521.31 L 0.00 521.44 L 0.00 519.97 C 7.70 520.06 15.40 519.95 23.08 519.41 C 23.34 518.70 23.59 517.99 23.85 517.29 C 24.40 517.17 25.51 516.94 26.06 516.83 C 43.00 516.17 59.98 517.38 76.89 515.93 C 121.58 513.91 166.27 510.96 211.03 511.78 C 236.35 512.12 261.63 510.37 286.95 510.36 C 328.27 509.17 369.63 509.54 410.98 509.77 C 438.30 510.61 465.65 510.43 492.98 510.43 C 503.00 510.32 513.06 510.92 523.02 509.59 C 556.29 506.60 589.64 504.35 623.03 503.28 C 638.68 502.30 654.39 502.67 670.05 501.75 C 676.68 501.56 683.36 501.66 689.92 500.47 M 579.01 520.17 C 572.65 520.31 566.28 520.44 559.99 521.45 C 566.14 522.04 572.20 523.80 578.40 523.64 C 581.55 525.04 585.15 524.68 588.27 526.19 C 588.28 525.74 588.30 524.83 588.31 524.37 C 588.77 524.70 589.68 525.36 590.14 525.70 C 590.09 523.21 589.40 520.84 588.01 518.79 C 587.62 519.25 586.84 520.16 586.45 520.62 C 585.84 520.00 585.24 519.40 584.66 518.79 L 585.26 518.05 C 583.27 519.00 581.31 520.29 579.01 520.17 M 552.18 524.18 C 553.06 526.70 556.13 525.53 557.99 525.07 C 556.78 522.94 554.02 522.97 552.18 524.18 Z" />
<path fill="#cbe472" opacity="1.00" d=" M 517.06 598.87 C 521.02 599.50 521.17 603.99 521.81 607.12 C 518.10 606.18 517.08 602.23 517.06 598.87 Z" />
<path fill="#cbe472" opacity="1.00" d=" M 582.42 599.30 C 583.42 597.64 585.82 599.53 584.59 600.95 C 583.58 602.59 581.17 600.70 582.42 599.30 Z" />
<path fill="#cbe472" opacity="1.00" d=" M 294.48 627.99 C 294.58 625.58 298.84 626.91 298.00 628.92 C 297.71 631.64 297.37 634.35 297.35 637.09 C 298.80 634.76 299.69 632.17 300.80 629.69 C 302.00 628.30 304.30 630.22 303.20 631.75 C 301.66 634.08 299.97 636.33 298.93 638.94 C 301.51 637.95 303.51 636.08 305.24 633.99 C 307.14 633.55 308.22 636.27 306.75 637.43 C 303.55 638.85 300.28 640.16 297.47 642.30 C 298.98 648.85 299.49 655.61 301.43 662.07 C 302.61 666.66 304.44 671.06 305.33 675.72 C 304.30 674.97 303.53 674.04 303.03 672.91 C 298.88 663.12 296.91 652.60 295.67 642.10 C 292.07 640.98 288.39 640.11 284.62 639.90 C 284.85 638.55 284.35 636.60 286.17 636.27 C 288.66 637.36 291.06 638.72 293.78 639.20 C 292.84 635.56 289.70 632.53 289.75 628.73 C 290.63 628.69 292.40 628.60 293.28 628.56 C 292.83 631.95 293.56 635.26 295.53 638.07 C 295.81 634.66 295.41 631.27 294.48 627.99 Z" />
<path fill="#cbe472" opacity="1.00" d=" M 310.69 643.93 C 310.88 641.19 313.68 642.09 314.71 643.73 C 314.12 646.23 313.94 648.81 314.24 651.37 C 315.38 649.43 314.82 644.82 318.17 645.87 C 318.68 649.00 315.78 651.27 314.85 654.09 C 316.25 652.86 318.62 648.32 319.80 652.09 C 318.53 654.19 316.06 655.06 314.08 656.34 C 312.11 661.23 313.18 667.55 309.29 671.47 C 310.02 665.94 311.25 660.50 311.90 654.96 C 310.05 651.80 306.22 649.64 305.79 645.84 C 306.52 645.76 307.97 645.61 308.70 645.54 C 308.90 648.18 310.08 650.52 311.97 652.36 C 312.22 649.46 311.41 646.69 310.69 643.93 Z" />
<path fill="#cbe472" opacity="1.00" d=" M 288.08 654.02 C 289.75 653.17 291.77 655.05 290.76 656.74 C 290.06 658.65 290.74 660.53 291.52 662.30 C 292.12 660.77 291.05 657.90 293.17 657.43 C 293.74 657.51 294.87 657.68 295.44 657.76 C 294.67 660.33 293.50 662.75 292.10 665.04 C 293.96 668.66 297.14 671.27 299.51 674.52 C 294.81 673.49 292.48 668.82 289.74 665.35 C 286.45 664.82 283.36 663.59 280.44 662.03 C 280.92 660.48 282.22 659.93 283.70 659.73 C 284.69 661.29 285.85 662.83 287.82 663.10 C 286.09 661.05 284.14 659.20 282.56 657.03 C 283.24 656.20 283.97 655.43 284.76 654.71 C 285.87 657.07 287.08 659.41 288.99 661.24 C 288.62 658.91 285.90 656.04 288.08 654.02 Z" />
</g>
<g id="#aad667ff">
<path fill="#aad667" opacity="1.00" d=" M 638.63 511.36 C 639.95 512.66 640.53 514.41 641.11 516.13 C 639.79 516.90 639.53 519.20 641.22 519.71 C 642.72 519.53 641.63 517.37 641.55 516.47 C 641.71 516.51 642.03 516.59 642.19 516.64 C 642.98 514.97 643.73 513.29 644.47 511.61 C 644.66 513.38 644.87 515.17 645.07 516.94 C 646.27 515.17 647.47 513.40 648.68 511.64 C 648.51 513.40 648.35 515.16 648.20 516.93 C 649.57 516.82 650.94 516.72 652.33 516.63 C 651.08 517.68 650.42 519.21 650.12 520.78 C 651.82 520.22 654.42 518.65 652.95 516.60 C 685.30 516.75 717.65 516.82 750.00 516.72 L 750.00 546.72 C 736.64 546.81 723.30 547.52 709.95 547.44 C 703.25 547.32 696.30 548.36 689.86 546.01 C 687.45 545.34 684.85 543.93 682.41 545.26 C 678.97 546.88 675.15 546.71 671.46 546.35 C 670.49 545.25 669.51 544.16 668.54 543.08 C 668.50 544.26 668.47 545.46 668.50 546.65 C 651.37 546.12 634.20 546.49 617.07 546.04 C 607.82 544.93 598.64 547.11 589.39 547.00 C 589.18 546.45 588.76 545.34 588.55 544.79 C 588.19 544.70 587.48 544.52 587.12 544.43 C 586.98 543.89 586.84 543.36 586.71 542.84 C 584.55 543.25 582.35 543.19 580.22 542.71 C 580.74 544.27 581.25 545.83 581.78 547.41 C 577.57 548.01 573.33 548.48 569.07 548.53 C 569.25 546.41 569.45 544.31 569.66 542.21 C 568.93 541.54 568.20 540.88 567.49 540.23 C 566.82 541.16 566.17 542.10 565.51 543.04 C 566.19 544.86 566.86 546.69 567.54 548.53 C 556.79 548.32 546.03 548.43 535.30 547.68 C 527.29 547.10 519.24 547.78 511.24 546.97 C 515.50 543.47 520.96 542.26 526.01 540.36 C 514.41 538.80 502.68 539.88 491.02 539.58 C 484.80 539.28 479.18 542.58 473.02 542.80 C 458.40 543.86 443.71 543.32 429.09 542.55 C 403.00 541.98 376.92 540.52 350.91 538.40 C 328.62 537.71 306.31 537.66 284.00 537.58 C 280.77 536.31 277.44 535.23 274.33 533.69 C 272.43 532.70 271.64 530.45 269.89 529.30 C 265.11 528.67 259.71 529.51 256.06 532.92 C 254.33 534.54 252.20 535.68 249.80 535.79 C 238.50 535.78 227.29 537.44 216.00 537.43 C 209.51 537.38 202.82 538.31 196.57 536.08 C 199.11 534.49 201.68 532.95 204.27 531.44 C 200.11 530.93 195.96 529.94 192.38 527.66 C 188.38 525.12 183.45 525.81 178.99 526.22 C 155.46 528.81 131.84 526.04 108.35 524.48 C 104.56 524.09 100.63 523.67 97.03 525.26 C 80.85 526.93 64.54 525.98 48.35 527.58 C 36.62 529.05 24.80 529.32 13.02 530.24 C 8.69 530.41 4.27 531.29 0.00 530.22 L 0.00 521.44 L 0.01 521.31 C 2.97 521.87 5.97 522.18 8.99 522.12 C 26.00 521.95 43.01 521.97 60.02 522.28 C 67.09 522.54 73.93 520.16 81.00 520.44 C 99.12 520.70 117.26 520.23 135.38 520.79 C 135.49 521.29 135.70 522.30 135.81 522.80 C 139.97 522.00 144.20 521.55 148.45 521.72 C 147.39 522.40 146.33 523.08 145.28 523.76 C 175.18 523.25 205.10 523.85 235.00 523.51 C 260.19 522.36 285.43 519.66 310.66 521.47 C 359.55 523.68 408.51 524.90 457.33 528.51 C 468.92 529.73 480.46 531.42 492.10 532.21 C 518.72 534.54 545.35 536.84 571.99 539.01 C 581.75 539.92 591.57 540.71 601.38 540.47 C 595.25 537.69 588.41 537.58 581.90 536.32 C 556.40 533.11 530.73 531.43 505.15 528.99 C 504.73 528.41 503.89 527.24 503.47 526.65 C 511.65 525.58 519.92 526.08 528.06 527.19 C 553.38 529.90 578.59 533.59 603.95 535.91 C 609.24 536.28 614.70 536.19 619.70 534.21 C 611.55 530.07 602.61 527.50 593.49 526.75 C 594.18 524.12 594.15 521.37 594.18 518.68 L 594.89 518.81 C 594.87 521.43 595.11 524.06 595.72 526.61 C 596.11 523.98 596.36 521.32 596.40 518.66 C 596.75 518.66 597.44 518.64 597.78 518.63 C 597.77 521.27 597.91 523.92 598.15 526.56 C 601.23 524.99 601.45 521.43 601.43 518.39 C 607.96 519.05 614.49 518.23 621.02 517.96 C 627.03 517.67 633.04 517.45 639.05 517.04 C 638.87 515.14 638.70 513.25 638.63 511.36 M 632.12 534.74 C 635.15 537.07 639.83 537.34 642.85 534.86 C 641.62 533.70 640.38 532.53 639.17 531.37 C 636.28 531.12 633.58 532.13 632.12 534.74 M 648.02 538.85 C 649.26 540.72 651.90 540.91 653.65 539.64 C 653.97 536.08 649.82 538.43 648.02 538.85 Z" />
<path fill="#aad667" opacity="1.00" d=" M 579.01 520.17 C 581.31 520.29 583.27 519.00 585.26 518.05 L 584.66 518.79 C 583.10 521.00 580.78 522.45 578.40 523.64 C 572.20 523.80 566.14 522.04 559.99 521.45 C 566.28 520.44 572.65 520.31 579.01 520.17 Z" />
<path fill="#aad667" opacity="1.00" d=" M 334.04 546.64 C 352.34 545.42 370.67 542.67 389.04 544.36 C 392.72 544.74 396.10 546.71 399.87 546.58 C 403.91 546.49 407.91 545.82 411.96 545.71 C 420.06 545.29 427.98 547.34 435.97 548.34 C 448.68 550.45 461.64 551.41 474.16 554.53 C 460.77 556.03 447.33 553.67 433.92 554.74 C 418.96 555.97 403.76 553.80 388.99 557.01 C 384.35 557.92 379.61 557.43 374.93 557.80 C 376.26 556.72 378.36 555.56 377.57 553.50 C 374.51 549.96 369.38 549.65 365.03 549.45 C 362.87 549.21 360.30 550.52 360.21 552.92 C 359.70 555.09 361.69 556.54 362.91 558.02 C 358.94 557.52 354.98 558.31 351.04 558.73 C 341.74 559.71 332.38 559.81 323.05 560.13 C 300.92 560.40 278.75 560.87 256.67 559.24 C 262.27 558.04 267.98 556.01 273.78 557.14 C 277.50 557.87 281.28 557.49 284.99 556.93 C 294.94 555.54 305.00 555.47 315.02 554.87 C 320.18 554.56 325.54 555.29 330.49 553.42 C 327.64 552.92 324.76 552.61 321.88 552.38 C 321.36 551.21 320.86 550.03 320.31 548.90 L 319.83 548.07 C 324.54 547.35 329.28 546.91 334.04 546.64 Z" />
<path fill="#aad667" opacity="1.00" d=" M 708.77 551.68 C 722.50 551.12 736.26 551.55 750.00 551.13 L 750.00 568.34 C 728.27 567.84 706.53 566.80 684.93 564.31 C 684.83 562.62 684.76 560.95 684.68 559.28 C 683.14 559.71 681.57 560.13 680.04 560.57 C 680.69 557.98 681.68 555.50 683.07 553.23 C 691.60 552.24 700.21 552.35 708.77 551.68 Z" />
<path fill="#aad667" opacity="1.00" d=" M 188.03 554.39 C 200.59 554.14 213.16 554.06 225.71 553.27 C 225.82 554.00 226.04 555.45 226.15 556.17 C 222.81 556.78 219.42 557.23 216.02 556.95 C 209.13 556.37 202.21 556.17 195.31 555.65 C 192.87 555.32 190.45 554.84 188.03 554.39 Z" />
<path fill="#aad667" opacity="1.00" d=" M 105.78 554.09 C 107.37 553.53 107.97 554.07 107.56 555.71 C 105.96 556.26 105.36 555.72 105.78 554.09 Z" />
<path fill="#aad667" opacity="1.00" d=" M 653.06 556.74 C 659.24 556.17 665.25 554.46 671.41 553.70 C 672.30 556.10 673.22 558.50 674.19 560.88 C 673.59 561.06 672.39 561.43 671.79 561.61 C 664.84 562.65 657.95 560.50 650.99 560.87 C 640.80 560.67 630.55 562.46 620.43 560.83 C 622.17 558.39 625.34 558.50 628.01 558.29 C 636.37 557.88 644.72 557.50 653.06 556.74 Z" />
<path fill="#aad667" opacity="1.00" d=" M 676.89 555.60 C 678.52 557.20 679.28 559.33 679.86 561.48 C 680.51 561.40 681.16 561.33 681.83 561.26 C 682.32 562.15 682.82 563.05 683.35 563.94 C 680.98 563.36 678.55 563.10 676.15 562.85 C 676.49 560.44 676.60 558.01 676.89 555.60 Z" />
<path fill="#aad667" opacity="1.00" d=" M 421.96 563.57 C 428.29 563.46 434.60 562.44 440.93 562.99 C 464.01 564.93 487.10 566.99 510.05 570.22 C 515.80 571.17 521.65 571.76 527.24 573.49 C 523.59 574.72 519.69 574.35 515.91 574.30 C 491.54 573.65 467.22 571.70 443.00 568.99 C 424.64 568.57 406.15 570.47 387.87 568.03 L 388.53 567.07 C 389.51 564.96 392.09 565.23 394.03 564.96 C 403.34 564.44 412.66 564.20 421.96 563.57 Z" />
<path fill="#aad667" opacity="1.00" d=" M 562.79 563.62 C 569.84 562.93 576.98 562.34 584.04 563.24 C 600.73 565.42 617.33 568.22 634.05 570.18 C 638.17 570.75 642.64 570.49 646.27 572.83 C 640.17 573.91 634.03 572.50 627.94 572.08 C 607.20 570.13 586.59 567.08 565.90 564.75 C 564.80 564.55 563.80 564.05 562.79 563.62 Z" />
<path fill="#aad667" opacity="1.00" d=" M 100.84 564.83 C 104.19 564.60 105.62 568.45 105.28 571.22 C 101.63 572.16 101.52 567.21 100.84 564.83 Z" />
<path fill="#aad667" opacity="1.00" d=" M 106.20 567.37 C 108.12 566.44 108.95 570.71 107.02 571.05 C 105.54 570.65 105.30 568.41 106.20 567.37 Z" />
<path fill="#aad667" opacity="1.00" d=" M 621.86 589.99 C 622.40 589.74 623.48 589.24 624.02 588.99 C 624.87 591.57 625.92 594.27 625.24 597.04 C 624.65 596.79 623.46 596.29 622.86 596.04 C 622.51 594.02 622.18 592.00 621.86 589.99 Z" />
<path fill="#aad667" opacity="1.00" d=" M 608.20 596.58 C 606.27 595.55 605.79 591.19 608.97 591.87 C 610.72 593.16 610.41 595.50 610.00 597.35 C 609.55 597.16 608.65 596.77 608.20 596.58 Z" />
<path fill="#aad667" opacity="1.00" d=" M 23.25 598.37 C 24.41 597.58 26.40 599.23 25.68 600.49 C 24.52 601.31 22.47 599.62 23.25 598.37 Z" />
<path fill="#aad667" opacity="1.00" d=" M 522.17 603.63 C 521.49 601.73 523.87 600.95 524.74 599.70 C 524.87 600.33 525.13 601.59 525.27 602.23 C 525.26 604.08 525.10 605.93 524.95 607.79 C 523.78 606.60 522.25 605.45 522.17 603.63 Z" />
<path fill="#aad667" opacity="1.00" d=" M 141.14 635.79 C 142.38 636.59 143.44 637.62 144.38 638.77 C 145.02 638.26 145.67 637.77 146.32 637.29 C 146.89 638.17 147.47 639.07 148.04 639.97 C 148.91 639.31 149.78 638.68 150.65 638.04 C 150.62 640.63 150.32 643.20 149.71 645.72 C 147.98 646.19 146.22 646.53 144.46 646.83 C 142.86 643.32 141.31 639.70 141.14 635.79 Z" />
<path fill="#aad667" opacity="1.00" d=" M 2.35 644.10 C 3.95 643.58 4.51 644.14 4.01 645.79 C 2.41 646.30 1.85 645.74 2.35 644.10 Z" />
</g>
<g id="#73ab52ff">
<path fill="#73ab52" opacity="1.00" d=" M 14.58 516.90 C 18.41 516.88 22.24 516.93 26.06 516.83 C 25.51 516.94 24.40 517.17 23.85 517.29 C 23.59 517.99 23.34 518.70 23.08 519.41 C 15.40 519.95 7.70 520.06 0.00 519.97 L 0.00 519.53 C 4.89 519.32 9.79 518.92 14.69 519.23 C 14.66 518.65 14.61 517.48 14.58 516.90 Z" />
<path fill="#73ab52" opacity="1.00" d=" M 595.21 518.20 C 595.51 518.32 596.10 518.55 596.40 518.66 C 596.36 521.32 596.11 523.98 595.72 526.61 C 595.11 524.06 594.87 521.43 594.89 518.81 L 595.21 518.20 Z" />
<path fill="#73ab52" opacity="1.00" d=" M 597.78 518.63 C 598.15 518.50 598.89 518.25 599.26 518.12 C 599.28 519.79 599.29 521.46 599.32 523.14 C 599.99 521.53 600.70 519.96 601.43 518.39 C 601.45 521.43 601.23 524.99 598.15 526.56 C 597.91 523.92 597.77 521.27 597.78 518.63 Z" />
<path fill="#73ab52" opacity="1.00" d=" M 97.03 525.26 C 100.63 523.67 104.56 524.09 108.35 524.48 C 104.62 525.20 100.83 525.64 97.03 525.26 Z" />
<path fill="#73ab52" opacity="1.00" d=" M 246.57 545.72 C 247.30 543.07 248.07 540.44 249.00 537.87 C 250.85 539.06 252.65 540.74 255.00 540.65 C 259.59 540.80 264.22 540.66 268.74 541.69 C 268.45 543.93 266.83 546.57 268.53 548.60 C 270.82 552.09 275.62 552.46 279.26 551.18 C 281.21 550.50 281.29 548.14 281.96 546.51 C 279.53 544.94 277.15 543.30 274.87 541.54 C 277.38 540.87 279.96 540.48 282.55 540.34 C 283.03 539.93 283.99 539.11 284.47 538.70 C 284.43 542.23 283.65 546.19 286.73 548.75 C 290.60 548.29 294.76 548.21 298.15 546.09 C 300.19 544.92 299.20 542.26 299.37 540.39 C 300.73 541.10 302.07 541.86 303.46 542.53 C 302.48 544.18 301.17 545.71 300.63 547.58 C 301.04 548.63 301.59 549.63 302.10 550.65 C 308.20 550.65 314.50 551.21 320.31 548.90 C 320.86 550.03 321.36 551.21 321.88 552.38 C 324.76 552.61 327.64 552.92 330.49 553.42 C 325.54 555.29 320.18 554.56 315.02 554.87 C 305.00 555.47 294.94 555.54 284.99 556.93 C 281.28 557.49 277.50 557.87 273.78 557.14 C 267.98 556.01 262.27 558.04 256.67 559.24 C 255.23 559.29 253.80 559.34 252.38 559.41 C 252.07 560.71 251.77 562.01 251.47 563.32 C 249.68 563.28 247.89 563.25 246.11 563.22 C 245.18 561.99 244.27 560.75 243.35 559.53 C 240.25 559.45 237.14 559.40 234.05 559.08 L 233.10 558.31 C 232.41 562.20 232.40 566.16 232.47 570.10 C 231.16 567.55 229.90 564.97 228.42 562.52 C 227.96 562.47 227.06 562.37 226.60 562.32 C 222.77 562.01 218.93 561.48 215.08 561.84 C 212.56 561.97 209.94 562.51 207.50 561.57 C 201.15 559.10 193.66 560.89 187.97 556.57 C 190.40 556.20 192.85 555.85 195.31 555.65 C 202.21 556.17 209.13 556.37 216.02 556.95 C 219.42 557.23 222.81 556.78 226.15 556.17 C 226.68 553.65 227.32 550.89 229.87 549.67 C 234.58 545.83 240.89 546.23 246.57 545.72 Z" />
<path fill="#73ab52" opacity="1.00" d=" M 303.71 542.62 C 307.02 539.28 313.34 540.82 315.27 544.95 C 311.44 544.06 307.53 543.52 303.71 542.62 Z" />
<path fill="#73ab52" opacity="1.00" d=" M 668.50 546.65 C 668.47 545.46 668.50 544.26 668.54 543.08 C 669.51 544.16 670.49 545.25 671.46 546.35 C 671.08 547.74 670.70 549.13 670.32 550.52 C 669.70 549.24 669.07 547.94 668.50 546.65 Z" />
<path fill="#73ab52" opacity="1.00" d=" M 0.00 545.15 C 0.84 545.69 1.69 546.21 2.55 546.73 C 2.61 547.22 2.73 548.18 2.78 548.66 C 2.09 548.69 0.70 548.75 0.00 548.78 L 0.00 545.15 Z" />
<path fill="#73ab52" opacity="1.00" d=" M 111.91 557.71 C 113.41 559.79 114.76 561.96 116.04 564.18 C 116.92 564.47 117.80 564.77 118.69 565.08 C 118.72 563.54 118.75 562.01 118.81 560.49 C 121.57 564.67 121.24 569.84 121.89 574.60 C 122.60 574.22 123.32 573.85 124.04 573.48 C 124.55 574.02 125.07 574.57 125.58 575.13 C 125.51 575.59 125.38 576.51 125.31 576.97 C 124.23 577.18 123.15 577.42 122.07 577.67 C 121.21 575.91 120.35 574.14 119.50 572.39 C 118.13 572.43 116.77 572.48 115.41 572.53 C 115.46 573.33 115.51 574.13 115.57 574.94 C 115.17 574.91 114.36 574.86 113.96 574.83 C 114.21 572.88 114.52 570.95 114.62 569.00 C 114.98 565.02 112.80 561.47 111.91 557.71 Z" />
<path fill="#73ab52" opacity="1.00" d=" M 123.31 564.44 C 124.77 564.61 124.72 568.28 123.28 568.49 C 122.45 567.35 122.50 565.55 123.31 564.44 Z" />
<path fill="#73ab52" opacity="1.00" d=" M 161.79 580.77 L 162.22 580.86 C 163.09 581.56 163.97 582.31 164.83 583.05 C 164.45 585.13 164.05 587.21 163.61 589.29 C 161.58 586.86 161.18 583.81 161.79 580.77 Z" />
<path fill="#73ab52" opacity="1.00" d=" M 549.69 582.59 C 567.83 581.69 586.03 583.00 604.15 581.55 C 605.49 581.49 606.87 581.41 608.20 581.73 C 608.84 582.80 609.32 583.97 609.81 585.14 C 610.16 586.08 610.53 587.02 610.90 587.96 C 612.40 587.71 613.92 587.45 615.45 587.31 C 615.62 587.34 615.96 587.40 616.13 587.42 C 616.83 587.61 618.21 587.98 618.91 588.17 C 616.75 589.24 614.59 590.30 612.45 591.39 C 612.19 591.00 611.67 590.22 611.42 589.83 C 607.49 589.30 605.22 585.91 602.91 583.08 C 602.31 583.27 601.12 583.66 600.52 583.85 C 600.76 585.35 601.02 586.86 601.28 588.37 C 594.83 589.12 588.43 587.72 581.99 587.62 C 572.23 587.73 562.54 586.42 552.79 586.41 C 551.76 585.11 550.77 583.82 549.69 582.59 Z" />
<path fill="#73ab52" opacity="1.00" d=" M 523.50 582.96 C 527.86 582.37 532.27 582.48 536.65 582.17 C 537.14 583.45 537.64 584.74 538.22 586.01 C 535.53 586.30 532.82 586.54 530.13 586.22 C 527.89 585.18 525.73 583.99 523.50 582.96 Z" />
<path fill="#73ab52" opacity="1.00" d=" M 627.59 582.09 C 637.10 583.88 646.86 582.68 656.34 584.64 C 644.22 585.94 632.10 587.36 619.92 588.02 C 623.21 587.12 625.76 584.91 627.59 582.09 Z" />
<path fill="#73ab52" opacity="1.00" d=" M 543.48 583.40 C 545.12 582.99 545.68 583.58 545.16 585.17 C 543.52 585.58 542.96 584.99 543.48 583.40 Z" />
<path fill="#73ab52" opacity="1.00" d=" M 522.50 587.47 C 520.82 586.16 523.22 583.89 524.55 585.45 C 526.23 586.75 523.81 588.89 522.50 587.47 Z" />
<path fill="#73ab52" opacity="1.00" d=" M 529.56 590.08 C 534.21 593.32 534.37 599.45 536.49 604.24 C 536.47 602.58 536.46 600.93 536.45 599.29 C 537.03 599.12 538.20 598.78 538.79 598.61 C 538.69 596.65 538.65 594.69 538.71 592.73 C 541.31 598.05 541.80 604.00 541.93 609.82 C 539.68 608.22 537.07 607.29 534.30 607.30 C 534.08 608.55 533.89 609.81 533.70 611.08 C 533.18 608.83 532.43 606.64 531.50 604.54 C 530.97 603.33 530.41 602.14 529.86 600.97 C 531.07 602.11 532.28 603.24 533.51 604.37 C 534.57 599.15 531.10 594.79 529.56 590.08 Z" />
<path fill="#73ab52" opacity="1.00" d=" M 543.67 596.71 C 544.01 596.61 544.70 596.41 545.05 596.31 C 545.18 598.94 545.16 601.58 545.12 604.23 L 543.73 604.13 C 543.75 601.65 543.79 599.17 543.67 596.71 Z" />
<path fill="#73ab52" opacity="1.00" d=" M 168.06 619.12 C 169.90 621.17 172.22 622.75 173.96 624.90 C 175.43 627.48 174.21 630.40 173.20 632.90 C 171.04 628.58 167.77 625.03 164.98 621.15 C 167.10 623.01 169.17 624.94 171.44 626.64 C 170.79 623.93 169.47 621.48 168.06 619.12 Z" />
<path fill="#73ab52" opacity="1.00" d=" M 174.90 631.69 C 175.57 629.98 176.48 628.39 177.66 627.00 C 177.49 628.74 177.28 630.49 177.06 632.24 C 176.52 632.10 175.44 631.82 174.90 631.69 Z" />
<path fill="#73ab52" opacity="1.00" d=" M 586.30 659.85 C 587.67 662.14 588.45 664.93 586.65 667.26 C 586.29 664.80 586.20 662.32 586.30 659.85 Z" />
</g>
<g id="#82c861ff">
<path fill="#82c861" opacity="1.00" d=" M 641.22 519.71 C 639.53 519.20 639.79 516.90 641.11 516.13 L 641.55 516.47 C 641.63 517.37 642.72 519.53 641.22 519.71 Z" />
<path fill="#82c861" opacity="1.00" d=" M 652.33 516.63 L 652.95 516.60 C 654.42 518.65 651.82 520.22 650.12 520.78 C 650.42 519.21 651.08 517.68 652.33 516.63 Z" />
<path fill="#82c861" opacity="1.00" d=" M 590.64 518.01 C 591.82 518.22 593.00 518.44 594.18 518.68 C 594.15 521.37 594.18 524.12 593.49 526.75 C 593.21 527.38 592.65 528.62 592.38 529.24 C 590.85 525.69 590.26 521.85 590.64 518.01 Z" />
<path fill="#82c861" opacity="1.00" d=" M 578.40 523.64 C 580.78 522.45 583.10 521.00 584.66 518.79 C 585.24 519.40 585.84 520.00 586.45 520.62 C 586.84 520.16 587.62 519.25 588.01 518.79 C 589.40 520.84 590.09 523.21 590.14 525.70 C 589.68 525.36 588.77 524.70 588.31 524.37 C 588.30 524.83 588.28 525.74 588.27 526.19 C 585.15 524.68 581.55 525.04 578.40 523.64 Z" />
<path fill="#82c861" opacity="1.00" d=" M 108.35 524.48 C 131.84 526.04 155.46 528.81 178.99 526.22 C 183.45 525.81 188.38 525.12 192.38 527.66 C 195.96 529.94 200.11 530.93 204.27 531.44 C 201.68 532.95 199.11 534.49 196.57 536.08 C 202.82 538.31 209.51 537.38 216.00 537.43 C 227.29 537.44 238.50 535.78 249.80 535.79 C 249.60 536.31 249.20 537.35 249.00 537.87 C 248.07 540.44 247.30 543.07 246.57 545.72 C 240.89 546.23 234.58 545.83 229.87 549.67 C 227.32 550.89 226.68 553.65 226.15 556.17 C 226.04 555.45 225.82 554.00 225.71 553.27 C 213.16 554.06 200.59 554.14 188.03 554.39 C 190.45 554.84 192.87 555.32 195.31 555.65 C 192.85 555.85 190.40 556.20 187.97 556.57 C 193.66 560.89 201.15 559.10 207.50 561.57 C 209.94 562.51 212.56 561.97 215.08 561.84 C 218.93 561.48 222.77 562.01 226.60 562.32 C 228.07 566.48 229.57 570.80 232.83 573.94 C 234.66 571.80 236.32 569.53 237.79 567.14 C 238.04 567.94 238.53 569.55 238.78 570.36 C 239.94 568.62 241.43 566.95 241.81 564.83 C 242.50 563.01 240.42 562.20 239.43 561.12 C 237.95 562.76 236.47 564.40 235.00 566.05 C 234.73 563.71 234.48 561.38 234.05 559.08 C 237.14 559.40 240.25 559.45 243.35 559.53 C 244.27 560.75 245.18 561.99 246.11 563.22 C 247.89 563.25 249.68 563.28 251.47 563.32 C 251.77 562.01 252.07 560.71 252.38 559.41 C 253.80 559.34 255.23 559.29 256.67 559.24 C 278.75 560.87 300.92 560.40 323.05 560.13 C 332.38 559.81 341.74 559.71 351.04 558.73 C 354.98 558.31 358.94 557.52 362.91 558.02 C 366.83 559.61 371.03 559.28 374.93 557.80 C 379.61 557.43 384.35 557.92 388.99 557.01 C 403.76 553.80 418.96 555.97 433.92 554.74 C 447.33 553.67 460.77 556.03 474.16 554.53 C 461.64 551.41 448.68 550.45 435.97 548.34 C 427.98 547.34 420.06 545.29 411.96 545.71 C 407.91 545.82 403.91 546.49 399.87 546.58 C 396.10 546.71 392.72 544.74 389.04 544.36 C 370.67 542.67 352.34 545.42 334.04 546.64 C 329.28 546.91 324.54 547.35 319.83 548.07 C 317.81 547.79 316.11 546.85 315.27 544.95 C 313.34 540.82 307.02 539.28 303.71 542.62 L 303.46 542.53 C 302.07 541.86 300.73 541.10 299.37 540.39 C 294.02 540.73 289.33 544.16 286.73 548.75 C 283.65 546.19 284.43 542.23 284.47 538.70 L 284.00 537.58 C 306.31 537.66 328.62 537.71 350.91 538.40 C 376.92 540.52 403.00 541.98 429.09 542.55 C 443.71 543.32 458.40 543.86 473.02 542.80 C 479.18 542.58 484.80 539.28 491.02 539.58 C 502.68 539.88 514.41 538.80 526.01 540.36 C 520.96 542.26 515.50 543.47 511.24 546.97 C 519.24 547.78 527.29 547.10 535.30 547.68 C 546.03 548.43 556.79 548.32 567.54 548.53 C 568.04 548.53 568.55 548.53 569.07 548.53 C 573.33 548.48 577.57 548.01 581.78 547.41 C 581.25 545.83 580.74 544.27 580.22 542.71 C 582.35 543.19 584.55 543.25 586.71 542.84 C 586.84 543.36 586.98 543.89 587.12 544.43 C 587.48 544.52 588.19 544.70 588.55 544.79 C 588.76 545.34 589.18 546.45 589.39 547.00 C 598.64 547.11 607.82 544.93 617.07 546.04 C 634.20 546.49 651.37 546.12 668.50 546.65 C 669.07 547.94 669.70 549.24 670.32 550.52 C 670.70 549.13 671.08 547.74 671.46 546.35 C 675.15 546.71 678.97 546.88 682.41 545.26 C 684.85 543.93 687.45 545.34 689.86 546.01 C 696.30 548.36 703.25 547.32 709.95 547.44 C 723.30 547.52 736.64 546.81 750.00 546.72 L 750.00 551.13 C 736.26 551.55 722.50 551.12 708.77 551.68 C 700.21 552.35 691.60 552.24 683.07 553.23 C 682.33 553.33 680.85 553.53 680.11 553.64 C 680.52 552.75 681.33 550.98 681.74 550.10 C 679.94 549.81 678.12 549.79 676.32 550.00 C 677.20 551.47 678.07 552.94 679.01 554.40 C 676.51 553.88 673.96 553.47 671.41 553.70 C 665.25 554.46 659.24 556.17 653.06 556.74 C 644.72 557.50 636.37 557.88 628.01 558.29 C 625.34 558.50 622.17 558.39 620.43 560.83 C 630.55 562.46 640.80 560.67 650.99 560.87 C 657.95 560.50 664.84 562.65 671.79 561.61 C 673.18 562.92 674.42 564.40 675.64 565.89 C 675.77 565.13 676.02 563.61 676.15 562.85 C 678.55 563.10 680.98 563.36 683.35 563.94 C 683.56 563.99 684.00 564.11 684.21 564.16 C 684.39 564.20 684.75 564.27 684.93 564.31 C 706.53 566.80 728.27 567.84 750.00 568.34 L 750.00 573.81 C 741.87 574.15 733.88 575.82 725.80 576.61 C 712.30 578.01 698.93 580.52 685.40 581.57 C 675.69 582.43 666.05 583.90 656.34 584.64 C 646.86 582.68 637.10 583.88 627.59 582.09 C 627.15 581.43 626.25 580.11 625.81 579.45 C 624.03 580.81 622.26 582.19 620.52 583.60 C 619.85 582.46 619.19 581.34 618.52 580.22 C 617.00 582.33 616.38 584.86 616.13 587.42 C 615.96 587.40 615.62 587.34 615.45 587.31 C 614.98 584.11 614.46 580.92 613.84 577.75 C 612.53 578.37 610.32 578.19 610.14 580.07 C 609.70 581.72 609.77 583.44 609.81 585.14 C 609.32 583.97 608.84 582.80 608.20 581.73 C 606.87 581.41 605.49 581.49 604.15 581.55 C 586.03 583.00 567.83 581.69 549.69 582.59 C 545.45 581.13 540.91 580.25 536.65 582.17 C 532.27 582.48 527.86 582.37 523.50 582.96 C 521.17 583.31 518.55 583.11 516.56 584.54 C 515.05 587.20 518.09 589.29 520.03 590.56 C 519.60 592.66 519.17 594.76 518.74 596.86 C 517.58 596.91 516.42 596.96 515.27 597.02 C 515.08 593.09 514.70 589.09 512.86 585.55 C 509.11 588.51 510.29 593.62 509.91 597.79 C 507.98 597.82 506.06 597.85 504.15 597.90 C 503.33 597.10 502.52 596.31 501.71 595.53 C 497.16 599.59 490.72 598.59 485.12 598.80 C 485.45 596.40 485.77 594.00 486.06 591.61 C 481.56 592.13 480.05 596.73 477.21 599.54 C 477.68 597.01 478.31 594.52 479.00 592.05 C 475.21 593.01 470.74 593.03 468.16 596.44 C 467.08 594.69 466.00 592.95 464.87 591.25 C 462.70 593.68 463.43 596.94 463.71 599.86 C 457.15 600.29 450.58 599.97 444.02 600.27 C 431.79 601.18 419.51 601.11 407.26 600.91 C 408.53 599.02 409.79 597.12 411.05 595.23 C 410.48 594.90 409.34 594.23 408.77 593.90 C 406.26 596.08 404.23 598.74 402.25 601.40 C 402.23 598.32 405.87 595.41 404.06 592.60 C 400.21 593.95 399.09 598.38 396.71 601.31 C 396.66 598.99 396.69 596.67 396.43 594.38 C 392.82 593.48 393.33 598.77 392.43 600.97 C 391.54 598.22 390.39 595.56 388.91 593.09 C 387.63 595.48 387.39 598.19 387.52 600.86 C 378.45 601.16 369.38 600.97 360.32 600.78 C 359.98 598.50 359.64 596.23 359.29 593.96 C 355.76 594.46 354.92 598.11 353.67 600.88 C 352.26 598.54 352.02 594.26 348.41 594.78 C 348.09 596.47 347.79 598.17 347.48 599.88 C 340.97 600.53 334.49 599.40 328.00 599.18 C 316.36 598.92 304.74 598.12 293.19 596.75 C 293.69 595.24 294.20 593.74 294.69 592.24 C 290.77 591.33 288.20 594.60 285.29 596.55 C 285.38 594.36 285.49 592.19 285.60 590.02 C 284.40 590.32 283.18 590.58 282.02 591.00 C 281.04 592.41 280.84 594.21 280.28 595.82 C 278.37 595.17 276.10 594.87 274.93 593.03 C 273.03 590.92 273.33 587.98 273.21 585.36 C 271.83 585.76 270.41 586.04 269.03 586.43 C 267.37 585.48 265.69 584.57 263.92 583.86 C 263.71 587.74 266.63 590.74 268.25 594.03 C 264.90 593.89 261.55 593.63 258.23 593.15 L 257.12 593.01 C 252.21 592.31 247.27 591.76 242.39 590.87 C 242.11 588.27 241.63 585.66 240.27 583.39 C 238.99 584.75 237.73 586.13 236.49 587.53 C 235.38 585.50 234.54 580.57 231.34 582.31 C 230.60 584.46 230.61 586.76 230.50 589.01 C 207.69 586.78 185.08 582.58 162.22 580.86 L 161.79 580.77 C 155.59 579.50 149.27 579.07 143.01 578.24 C 137.13 577.61 131.24 576.45 125.31 576.97 C 125.38 576.51 125.51 575.59 125.58 575.13 C 125.07 574.57 124.55 574.02 124.04 573.48 C 123.32 573.85 122.60 574.22 121.89 574.60 C 121.24 569.84 121.57 564.67 118.81 560.49 C 118.75 562.01 118.72 563.54 118.69 565.08 C 117.80 564.77 116.92 564.47 116.04 564.18 C 114.76 561.96 113.41 559.79 111.91 557.71 C 112.80 561.47 114.98 565.02 114.62 569.00 C 114.52 570.95 114.21 572.88 113.96 574.83 C 96.29 573.15 78.64 571.17 60.98 569.34 C 50.06 568.41 39.11 567.61 28.27 565.94 C 29.35 563.03 30.29 560.06 30.88 557.02 C 27.04 557.70 24.57 560.78 22.48 563.80 C 22.08 561.15 21.47 558.53 20.24 556.14 C 18.82 557.88 17.50 559.70 16.25 561.56 C 15.18 558.64 14.04 555.76 12.88 552.89 C 14.46 551.08 15.07 548.54 13.41 546.55 C 10.17 542.53 4.49 543.13 0.00 541.72 L 0.00 530.22 C 4.27 531.29 8.69 530.41 13.02 530.24 C 24.80 529.32 36.62 529.05 48.35 527.58 C 64.54 525.98 80.85 526.93 97.03 525.26 C 100.83 525.64 104.62 525.20 108.35 524.48 M 117.04 551.85 C 118.04 554.30 120.17 555.81 122.52 556.83 C 122.49 558.96 122.48 561.10 122.58 563.24 C 123.23 561.31 123.44 559.27 123.59 557.26 C 125.51 557.14 127.68 557.40 129.25 556.03 C 130.33 554.54 129.28 552.86 127.89 552.14 C 124.62 550.24 120.34 549.73 117.04 551.85 M 100.55 553.94 C 100.52 556.96 103.86 558.32 106.29 559.13 C 106.77 561.82 107.22 564.58 108.46 567.06 C 107.96 564.22 107.29 561.43 106.63 558.64 C 108.04 558.71 109.45 558.78 110.86 558.86 C 110.71 558.19 110.41 556.85 110.25 556.18 C 110.84 556.61 112.02 557.48 112.61 557.92 C 112.18 552.62 104.13 550.45 100.55 553.94 M 31.38 563.24 C 31.71 564.43 32.33 565.51 32.85 566.63 C 34.35 565.14 35.97 563.66 36.80 561.67 C 37.23 560.51 38.25 559.01 36.79 558.15 C 34.04 558.24 32.31 560.94 31.38 563.24 M 126.47 562.88 C 126.13 565.64 125.72 568.40 125.76 571.19 C 128.40 569.65 130.62 567.51 132.22 564.90 C 130.07 563.59 128.54 565.52 127.09 566.85 C 126.89 565.51 126.68 564.20 126.47 562.88 M 421.96 563.57 C 412.66 564.20 403.34 564.44 394.03 564.96 C 392.09 565.23 389.51 564.96 388.53 567.07 C 385.99 565.00 380.54 565.06 379.96 568.91 C 382.32 570.79 386.53 571.35 387.87 568.03 C 406.15 570.47 424.64 568.57 443.00 568.99 C 467.22 571.70 491.54 573.65 515.91 574.30 C 519.69 574.35 523.59 574.72 527.24 573.49 C 521.65 571.76 515.80 571.17 510.05 570.22 C 487.10 566.99 464.01 564.93 440.93 562.99 C 434.60 562.44 428.29 563.46 421.96 563.57 M 562.79 563.62 C 563.80 564.05 564.80 564.55 565.90 564.75 C 586.59 567.08 607.20 570.13 627.94 572.08 C 634.03 572.50 640.17 573.91 646.27 572.83 C 642.64 570.49 638.17 570.75 634.05 570.18 C 617.33 568.22 600.73 565.42 584.04 563.24 C 576.98 562.34 569.84 562.93 562.79 563.62 M 123.31 564.44 C 122.50 565.55 122.45 567.35 123.28 568.49 C 124.72 568.28 124.77 564.61 123.31 564.44 M 100.84 564.83 C 101.52 567.21 101.63 572.16 105.28 571.22 C 105.62 568.45 104.19 564.60 100.84 564.83 M 106.20 567.37 C 105.30 568.41 105.54 570.65 107.02 571.05 C 108.95 570.71 108.12 566.44 106.20 567.37 M 377.40 577.43 C 379.99 578.15 383.11 578.25 385.06 576.07 C 383.31 574.63 381.31 573.10 378.89 573.68 C 377.14 573.48 375.12 576.77 377.40 577.43 M 385.33 578.56 C 385.40 580.73 385.46 582.90 385.52 585.08 C 383.08 583.77 380.80 582.21 378.51 580.68 C 379.26 584.81 383.79 586.23 386.18 589.27 C 388.34 585.92 393.04 585.02 394.19 580.95 C 391.76 582.10 389.48 583.54 387.30 585.12 C 387.18 582.91 387.06 580.71 386.95 578.52 L 385.33 578.56 Z" />
<path fill="#82c861" opacity="1.00" d=" M 123.02 552.44 C 126.38 552.58 121.49 555.40 123.02 552.44 Z" />
<path fill="#82c861" opacity="1.00" d=" M 368.01 552.43 C 369.64 551.90 370.24 552.44 369.84 554.05 C 368.20 554.57 367.59 554.03 368.01 552.43 Z" />
<path fill="#82c861" opacity="1.00" d=" M 1.72 555.62 C 4.42 555.41 7.14 555.25 9.79 554.65 C 10.36 557.90 11.02 561.13 11.72 564.36 C 8.67 564.49 5.62 564.32 2.60 563.99 C 2.51 561.18 2.14 558.39 1.72 555.62 Z" />
<path fill="#82c861" opacity="1.00" d=" M 95.98 579.99 C 96.87 580.87 97.76 581.75 98.64 582.64 C 98.78 582.04 99.06 580.84 99.19 580.24 C 100.46 581.09 101.74 581.95 103.01 582.81 C 102.75 583.88 102.49 584.95 102.23 586.04 C 100.80 585.69 99.36 585.35 97.93 585.02 C 97.28 583.34 96.63 581.66 95.98 579.99 Z" />
<path fill="#82c861" opacity="1.00" d=" M 552.79 586.41 C 562.54 586.42 572.23 587.73 581.99 587.62 C 588.43 587.72 594.83 589.12 601.28 588.37 C 601.39 589.09 601.51 589.82 601.65 590.55 C 597.13 590.82 592.58 590.91 588.15 591.85 C 586.99 592.09 585.88 592.40 584.74 592.68 C 581.78 592.41 578.79 592.18 575.83 592.56 C 567.91 593.49 559.95 593.95 552.01 594.55 C 549.57 594.63 547.30 595.51 545.05 596.31 C 544.70 596.41 544.01 596.61 543.67 596.71 C 544.04 594.28 544.26 591.85 544.43 589.41 C 547.63 589.75 550.69 588.94 552.79 586.41 Z" />
<path fill="#82c861" opacity="1.00" d=" M 629.59 635.23 C 629.80 633.17 629.17 629.91 632.02 629.48 C 635.69 628.15 636.87 632.96 637.44 635.57 C 634.81 635.76 632.18 635.61 629.59 635.23 Z" />
</g>
<g id="#cd6e63ff">
<path fill="#cd6e63" opacity="1.00" d=" M 552.18 524.18 C 554.02 522.97 556.78 522.94 557.99 525.07 C 556.13 525.53 553.06 526.70 552.18 524.18 Z" />
<path fill="#cd6e63" opacity="1.00" d=" M 632.12 534.74 C 633.58 532.13 636.28 531.12 639.17 531.37 C 640.38 532.53 641.62 533.70 642.85 534.86 C 639.83 537.34 635.15 537.07 632.12 534.74 Z" />
<path fill="#cd6e63" opacity="1.00" d=" M 648.02 538.85 C 649.82 538.43 653.97 536.08 653.65 539.64 C 651.90 540.91 649.26 540.72 648.02 538.85 Z" />
<path fill="#cd6e63" opacity="1.00" d=" M 567.49 540.23 C 568.20 540.88 568.93 541.54 569.66 542.21 C 569.45 544.31 569.25 546.41 569.07 548.53 C 568.55 548.53 568.04 548.53 567.54 548.53 C 566.86 546.69 566.19 544.86 565.51 543.04 C 566.17 542.10 566.82 541.16 567.49 540.23 Z" />
<path fill="#cd6e63" opacity="1.00" d=" M 676.32 550.00 C 678.12 549.79 679.94 549.81 681.74 550.10 C 681.33 550.98 680.52 552.75 680.11 553.64 C 680.85 553.53 682.33 553.33 683.07 553.23 C 681.68 555.50 680.69 557.98 680.04 560.57 C 681.57 560.13 683.14 559.71 684.68 559.28 C 684.76 560.95 684.83 562.62 684.93 564.31 C 684.75 564.27 684.39 564.20 684.21 564.16 C 684.00 564.11 683.56 563.99 683.35 563.94 C 682.82 563.05 682.32 562.15 681.83 561.26 C 681.16 561.33 680.51 561.40 679.86 561.48 C 679.28 559.33 678.52 557.20 676.89 555.60 C 676.60 558.01 676.49 560.44 676.15 562.85 C 676.02 563.61 675.77 565.13 675.64 565.89 C 674.42 564.40 673.18 562.92 671.79 561.61 C 672.39 561.43 673.59 561.06 674.19 560.88 C 673.22 558.50 672.30 556.10 671.41 553.70 C 673.96 553.47 676.51 553.88 679.01 554.40 C 678.07 552.94 677.20 551.47 676.32 550.00 Z" />
<path fill="#cd6e63" opacity="1.00" d=" M 379.96 568.91 C 380.54 565.06 385.99 565.00 388.53 567.07 L 387.87 568.03 C 386.53 571.35 382.32 570.79 379.96 568.91 Z" />
<path fill="#cd6e63" opacity="1.00" d=" M 377.40 577.43 C 375.12 576.77 377.14 573.48 378.89 573.68 C 381.31 573.10 383.31 574.63 385.06 576.07 C 383.11 578.25 379.99 578.15 377.40 577.43 Z" />
<path fill="#cd6e63" opacity="1.00" d=" M 584.74 592.68 C 585.88 592.40 586.99 592.09 588.15 591.85 C 588.65 593.72 589.14 595.60 589.63 597.50 C 590.06 597.75 590.93 598.25 591.37 598.50 C 591.89 602.15 589.25 605.16 587.98 608.36 C 586.65 608.37 585.34 608.39 584.03 608.44 C 583.70 608.45 583.05 608.49 582.72 608.50 C 581.38 608.59 580.06 608.69 578.74 608.80 C 577.67 606.85 576.31 605.10 574.63 603.66 C 574.29 601.63 575.08 599.85 576.27 598.26 C 576.40 597.12 576.55 595.99 576.69 594.87 C 579.38 594.17 582.07 593.45 584.74 592.68 M 582.42 599.30 C 581.17 600.70 583.58 602.59 584.59 600.95 C 585.82 599.53 583.42 597.64 582.42 599.30 Z" />
<path fill="#cd6e63" opacity="1.00" d=" M 23.52 664.74 C 26.30 665.03 31.77 664.05 31.80 668.16 C 29.68 670.35 26.26 669.15 23.91 667.97 C 23.81 667.16 23.61 665.55 23.52 664.74 Z" />
</g>
<g id="#8dd43bff">
<path fill="#8dd43b" opacity="1.00" d=" M 256.06 532.92 C 259.71 529.51 265.11 528.67 269.89 529.30 C 271.64 530.45 272.43 532.70 274.33 533.69 C 277.44 535.23 280.77 536.31 284.00 537.58 L 284.47 538.70 C 283.99 539.11 283.03 539.93 282.55 540.34 C 279.96 540.48 277.38 540.87 274.87 541.54 C 277.15 543.30 279.53 544.94 281.96 546.51 C 281.29 548.14 281.21 550.50 279.26 551.18 C 275.62 552.46 270.82 552.09 268.53 548.60 C 266.83 546.57 268.45 543.93 268.74 541.69 C 264.22 540.66 259.59 540.80 255.00 540.65 C 252.65 540.74 250.85 539.06 249.00 537.87 C 249.20 537.35 249.60 536.31 249.80 535.79 C 252.20 535.68 254.33 534.54 256.06 532.92 Z" />
<path fill="#8dd43b" opacity="1.00" d=" M 286.73 548.75 C 289.33 544.16 294.02 540.73 299.37 540.39 C 299.20 542.26 300.19 544.92 298.15 546.09 C 294.76 548.21 290.60 548.29 286.73 548.75 Z" />
<path fill="#8dd43b" opacity="1.00" d=" M 303.46 542.53 L 303.71 542.62 C 307.53 543.52 311.44 544.06 315.27 544.95 C 316.11 546.85 317.81 547.79 319.83 548.07 L 320.31 548.90 C 314.50 551.21 308.20 550.65 302.10 550.65 C 301.59 549.63 301.04 548.63 300.63 547.58 C 301.17 545.71 302.48 544.18 303.46 542.53 Z" />
<path fill="#8dd43b" opacity="1.00" d=" M 232.47 570.10 C 232.40 566.16 232.41 562.20 233.10 558.31 L 234.05 559.08 C 234.48 561.38 234.73 563.71 235.00 566.05 C 236.47 564.40 237.95 562.76 239.43 561.12 C 240.42 562.20 242.50 563.01 241.81 564.83 C 241.43 566.95 239.94 568.62 238.78 570.36 C 238.53 569.55 238.04 567.94 237.79 567.14 C 236.32 569.53 234.66 571.80 232.83 573.94 C 229.57 570.80 228.07 566.48 226.60 562.32 C 227.06 562.37 227.96 562.47 228.42 562.52 C 229.90 564.97 231.16 567.55 232.47 570.10 Z" />
<path fill="#8dd43b" opacity="1.00" d=" M 42.07 577.76 C 45.31 576.81 48.69 577.19 51.96 577.71 C 59.73 578.84 67.55 579.61 75.35 580.56 C 82.97 581.50 90.42 583.41 97.93 585.02 C 99.36 585.35 100.80 585.69 102.23 586.04 C 116.19 589.26 130.05 592.85 144.00 596.12 C 152.17 598.27 160.52 600.24 168.01 604.29 C 167.02 604.76 166.03 605.23 165.04 605.72 C 170.93 606.84 177.67 610.95 183.37 607.35 C 187.09 605.11 185.93 600.59 185.26 597.09 C 201.84 597.67 218.33 599.54 234.83 601.04 C 233.33 599.97 231.64 599.07 230.48 597.61 C 229.06 595.53 229.23 592.89 229.06 590.50 C 232.30 592.61 233.24 597.43 237.52 597.90 C 238.15 599.16 238.79 600.43 239.42 601.72 C 239.94 601.73 240.99 601.75 241.51 601.76 C 242.91 599.99 244.52 598.33 246.63 597.43 C 246.44 599.33 246.21 601.23 246.02 603.14 C 249.99 600.05 253.00 595.92 257.12 593.01 L 258.23 593.15 C 257.34 595.42 256.47 597.69 255.61 599.97 C 257.84 598.58 260.08 597.20 262.39 595.95 C 261.38 598.84 259.63 601.38 257.75 603.77 C 272.35 605.64 287.02 606.81 301.64 608.50 C 316.04 610.31 330.52 611.44 344.98 612.69 C 351.61 612.70 358.31 614.42 364.86 612.78 C 366.85 613.33 368.85 614.41 370.97 614.11 C 372.98 613.39 374.69 612.08 376.46 610.93 C 376.49 611.97 376.53 613.01 376.57 614.07 C 390.00 615.64 403.56 615.07 417.04 615.96 C 426.51 616.04 435.96 616.88 445.43 616.80 C 446.24 613.87 447.29 610.99 448.93 608.41 C 449.54 611.12 449.20 613.88 448.67 616.58 C 451.80 617.10 454.98 617.25 458.15 617.04 C 457.62 614.65 456.80 612.35 455.63 610.21 C 457.31 609.45 459.00 608.70 460.68 607.94 C 460.39 611.07 460.19 614.20 460.05 617.34 C 461.64 617.27 463.24 617.26 464.84 617.07 C 466.03 615.04 466.70 612.75 467.77 610.67 C 469.37 610.81 470.91 611.30 472.45 611.71 C 472.84 613.60 473.25 615.50 473.66 617.39 C 474.78 617.59 475.90 617.79 477.03 618.00 C 477.48 612.75 476.32 606.82 479.92 602.41 C 481.63 607.86 480.83 613.70 482.52 619.15 C 483.05 614.48 482.26 609.17 485.20 605.16 C 486.01 604.47 487.83 602.82 488.63 604.34 C 488.41 608.91 487.29 613.42 487.67 618.04 C 488.39 618.05 489.83 618.09 490.55 618.11 C 489.90 614.16 488.83 609.94 490.83 606.19 C 492.53 609.96 493.02 614.27 495.28 617.79 C 499.09 618.86 503.10 618.68 507.02 618.87 C 507.45 614.63 506.32 609.14 510.56 606.49 C 511.01 610.51 511.42 614.54 512.18 618.52 C 517.95 619.07 523.75 619.63 529.55 619.11 C 529.11 614.16 529.77 609.20 531.50 604.54 C 532.43 606.64 533.18 608.83 533.70 611.08 C 533.30 614.12 533.39 617.20 533.98 620.21 C 535.22 619.77 536.52 619.43 537.72 618.86 C 539.30 615.35 540.14 611.04 544.32 609.69 C 544.39 612.84 543.85 615.96 543.13 619.03 C 551.88 619.36 560.74 619.64 569.38 617.90 C 571.14 622.05 573.05 626.14 574.49 630.42 C 576.32 636.26 580.20 641.71 579.30 648.13 C 581.13 641.95 586.61 638.04 589.55 632.49 C 592.28 627.61 595.28 622.72 596.39 617.16 C 614.93 616.57 633.43 615.22 651.95 614.34 C 656.69 614.28 661.44 614.02 666.14 613.37 C 665.52 610.45 665.35 607.45 666.15 604.55 C 668.00 607.16 669.00 610.44 671.34 612.65 C 678.51 613.10 685.62 611.15 692.69 610.09 C 692.50 607.90 692.33 605.69 692.22 603.50 C 694.49 605.19 696.42 607.27 698.14 609.53 C 699.34 606.69 700.20 603.03 703.78 602.48 C 703.30 604.78 702.77 607.07 702.31 609.39 C 705.69 606.38 707.35 600.20 712.65 600.31 C 713.10 603.34 710.18 605.41 708.77 607.78 C 711.02 607.46 713.26 607.14 715.53 606.81 C 727.22 626.93 739.26 646.86 750.00 667.51 L 750.00 684.96 C 738.09 678.30 724.48 674.62 710.84 674.28 C 716.33 678.53 722.64 681.55 728.21 685.70 C 736.36 691.64 742.91 699.38 750.00 706.48 L 750.00 716.55 C 744.76 712.20 740.06 707.19 734.40 703.38 C 738.06 712.28 744.56 719.52 750.00 727.33 L 750.00 730.33 C 740.29 722.32 732.38 712.45 723.06 704.02 C 716.41 698.00 709.46 692.15 704.18 684.83 C 700.17 679.21 695.13 674.38 691.57 668.44 C 687.42 662.38 684.61 655.55 680.69 649.36 C 678.00 644.98 675.78 640.33 673.11 635.94 C 676.54 656.51 683.69 676.24 690.12 696.01 C 681.84 688.12 673.11 680.46 662.52 675.81 C 667.02 687.91 672.97 699.40 677.78 711.38 C 673.13 707.65 669.38 703.00 665.32 698.68 C 650.46 682.24 634.12 667.24 617.90 652.17 C 612.65 647.40 607.50 642.52 601.89 638.18 C 621.58 666.97 640.62 696.28 657.17 727.01 C 648.07 720.68 639.30 713.75 629.36 708.73 C 611.61 699.69 595.44 687.73 577.08 679.84 C 567.20 675.49 557.61 670.44 547.52 666.59 C 549.69 668.71 552.04 670.65 554.52 672.41 C 564.92 679.91 574.92 687.93 584.88 696.01 C 577.70 693.18 571.23 688.87 564.15 685.82 C 554.82 681.72 545.74 676.89 535.91 674.09 C 558.25 692.43 581.18 710.05 604.24 727.48 C 588.39 723.65 572.65 719.22 557.38 713.48 C 548.97 710.06 540.64 706.42 532.38 702.65 C 529.54 701.55 528.32 698.61 526.94 696.14 C 519.32 681.67 510.14 667.98 499.28 655.74 C 493.41 648.61 486.34 642.63 479.64 636.32 C 473.90 631.59 468.59 626.20 461.97 622.68 C 467.14 631.93 472.94 640.83 477.75 650.28 C 487.56 669.48 497.48 688.73 504.83 709.03 C 494.93 696.66 484.80 683.57 470.43 676.14 C 469.81 688.14 477.10 698.44 479.67 709.82 C 478.03 709.57 476.16 709.42 475.15 707.92 C 471.40 703.20 468.83 697.67 465.12 692.90 C 460.43 686.77 456.41 680.08 454.06 672.69 C 453.15 672.62 451.32 672.50 450.41 672.43 C 450.64 679.29 452.22 686.00 454.52 692.45 C 460.14 707.36 463.37 723.02 468.64 738.05 C 455.21 732.78 444.43 722.35 436.31 710.65 C 427.58 699.16 418.84 687.56 412.29 674.66 C 411.80 683.51 414.10 692.15 416.26 700.65 C 418.50 709.15 422.13 717.21 424.36 725.71 C 420.37 721.23 417.61 715.84 413.93 711.13 C 408.87 704.14 402.33 698.38 395.08 693.75 C 397.75 698.08 400.88 702.13 403.30 706.62 C 406.57 712.62 408.75 719.15 410.52 725.73 C 404.03 720.09 397.49 714.49 390.59 709.35 C 380.95 701.63 371.35 693.82 361.14 686.87 C 367.73 694.33 374.15 701.95 379.77 710.18 C 385.61 718.68 392.10 726.70 398.12 735.06 C 390.32 731.05 383.11 726.01 375.80 721.20 C 363.94 713.32 352.37 704.80 342.69 694.28 C 339.16 690.60 335.75 686.81 332.30 683.05 C 335.61 698.73 340.61 714.06 347.43 728.57 C 340.56 726.56 335.51 721.30 330.63 716.37 C 324.07 709.61 317.10 703.25 310.98 696.08 C 305.06 689.61 300.30 682.05 293.56 676.38 C 297.32 683.29 300.88 690.34 303.27 697.87 C 305.90 705.22 308.79 712.56 309.96 720.33 C 305.20 713.33 301.00 705.90 295.33 699.56 C 283.93 686.79 272.75 673.66 259.60 662.63 C 264.48 673.27 270.23 683.53 276.77 693.24 C 282.57 702.88 289.37 712.07 293.42 722.65 C 279.85 713.12 268.40 700.94 257.68 688.37 C 254.59 684.54 251.78 680.48 248.23 677.06 C 252.67 690.67 259.80 703.12 266.04 715.94 C 259.82 709.48 253.07 703.57 246.15 697.87 C 240.64 693.37 235.43 688.48 229.51 684.51 C 232.07 692.84 235.13 701.06 239.36 708.69 C 245.58 720.06 253.75 730.17 261.05 740.82 C 248.24 739.45 237.12 731.71 228.00 723.06 C 223.35 718.92 220.33 713.12 214.85 709.92 C 210.12 707.08 207.53 702.03 204.00 697.98 C 198.36 691.60 194.90 683.11 187.08 678.91 C 188.27 682.57 189.82 686.11 191.49 689.58 C 194.56 695.91 196.68 702.67 200.00 708.89 C 185.05 699.68 170.44 689.46 158.68 676.28 C 151.82 668.61 150.14 657.88 143.81 649.88 C 143.31 651.92 142.83 653.98 142.36 656.04 C 142.98 656.32 144.23 656.89 144.85 657.17 C 149.84 675.67 157.70 693.28 166.95 710.03 C 167.88 711.79 168.73 713.60 169.55 715.43 C 155.32 705.56 140.20 697.04 124.68 689.37 C 115.30 684.77 105.79 680.15 95.52 677.95 C 102.97 688.89 112.70 698.09 120.37 708.88 C 108.39 702.69 96.70 694.89 83.01 693.21 C 78.34 692.75 75.02 689.16 71.44 686.56 C 63.20 680.34 54.79 674.31 45.94 669.00 C 55.28 682.21 65.31 694.92 75.35 707.60 C 87.44 723.08 100.19 738.09 114.06 752.00 L 112.06 752.00 C 91.51 731.89 69.06 713.67 44.88 698.09 C 41.81 695.98 38.63 693.96 35.01 692.97 C 45.09 705.82 55.49 718.46 66.83 730.24 C 73.84 737.69 81.31 744.69 88.46 752.00 L 86.83 752.00 C 73.86 745.33 60.18 740.20 46.95 734.07 C 42.57 731.99 37.24 731.00 34.21 726.86 C 31.68 723.29 29.75 719.34 27.41 715.65 C 22.53 707.37 16.39 699.95 10.86 692.11 C 7.39 687.15 3.62 682.41 0.00 677.57 L 0.00 648.64 C 0.65 648.69 1.94 648.79 2.59 648.84 C 2.76 653.32 2.12 657.80 2.52 662.29 C 3.83 658.14 4.40 653.81 4.39 649.47 C 5.03 649.22 6.31 648.72 6.95 648.47 C 6.77 647.54 6.40 645.68 6.22 644.76 C 7.19 645.91 7.98 647.45 9.63 647.70 C 9.42 642.76 3.88 641.99 0.00 642.33 L 0.00 580.60 C 16.01 583.97 31.94 587.74 47.99 590.91 C 58.16 592.84 68.15 595.62 78.34 597.52 C 85.59 598.53 93.03 598.42 100.24 597.11 C 91.35 592.23 81.93 588.11 71.94 586.11 C 61.96 583.46 51.71 581.54 42.07 577.76 M 23.25 598.37 C 22.47 599.62 24.52 601.31 25.68 600.49 C 26.40 599.23 24.41 597.58 23.25 598.37 M 168.06 619.12 C 169.47 621.48 170.79 623.93 171.44 626.64 C 169.17 624.94 167.10 623.01 164.98 621.15 C 167.77 625.03 171.04 628.58 173.20 632.90 C 174.21 630.40 175.43 627.48 173.96 624.90 C 172.22 622.75 169.90 621.17 168.06 619.12 M 174.90 631.69 C 175.44 631.82 176.52 632.10 177.06 632.24 C 177.28 630.49 177.49 628.74 177.66 627.00 C 176.48 628.39 175.57 629.98 174.90 631.69 M 294.48 627.99 C 295.41 631.27 295.81 634.66 295.53 638.07 C 293.56 635.26 292.83 631.95 293.28 628.56 C 292.40 628.60 290.63 628.69 289.75 628.73 C 289.70 632.53 292.84 635.56 293.78 639.20 C 291.06 638.72 288.66 637.36 286.17 636.27 C 284.35 636.60 284.85 638.55 284.62 639.90 C 288.39 640.11 292.07 640.98 295.67 642.10 C 296.91 652.60 298.88 663.12 303.03 672.91 C 303.53 674.04 304.30 674.97 305.33 675.72 C 304.44 671.06 302.61 666.66 301.43 662.07 C 299.49 655.61 298.98 648.85 297.47 642.30 C 300.28 640.16 303.55 638.85 306.75 637.43 C 308.22 636.27 307.14 633.55 305.24 633.99 C 303.51 636.08 301.51 637.95 298.93 638.94 C 299.97 636.33 301.66 634.08 303.20 631.75 C 304.30 630.22 302.00 628.30 300.80 629.69 C 299.69 632.17 298.80 634.76 297.35 637.09 C 297.37 634.35 297.71 631.64 298.00 628.92 C 298.84 626.91 294.58 625.58 294.48 627.99 M 629.59 635.23 C 632.18 635.61 634.81 635.76 637.44 635.57 C 636.87 632.96 635.69 628.15 632.02 629.48 C 629.17 629.91 629.80 633.17 629.59 635.23 M 141.14 635.79 C 141.31 639.70 142.86 643.32 144.46 646.83 C 146.22 646.53 147.98 646.19 149.71 645.72 C 150.32 643.20 150.62 640.63 150.65 638.04 C 149.78 638.68 148.91 639.31 148.04 639.97 C 147.47 639.07 146.89 638.17 146.32 637.29 C 145.67 637.77 145.02 638.26 144.38 638.77 C 143.44 637.62 142.38 636.59 141.14 635.79 M 310.69 643.93 C 311.41 646.69 312.22 649.46 311.97 652.36 C 310.08 650.52 308.90 648.18 308.70 645.54 C 307.97 645.61 306.52 645.76 305.79 645.84 C 306.22 649.64 310.05 651.80 311.90 654.96 C 311.25 660.50 310.02 665.94 309.29 671.47 C 313.18 667.55 312.11 661.23 314.08 656.34 C 316.06 655.06 318.53 654.19 319.80 652.09 C 318.62 648.32 316.25 652.86 314.85 654.09 C 315.78 651.27 318.68 649.00 318.17 645.87 C 314.82 644.82 315.38 649.43 314.24 651.37 C 313.94 648.81 314.12 646.23 314.71 643.73 C 313.68 642.09 310.88 641.19 310.69 643.93 M 288.08 654.02 C 285.90 656.04 288.62 658.91 288.99 661.24 C 287.08 659.41 285.87 657.07 284.76 654.71 C 283.97 655.43 283.24 656.20 282.56 657.03 C 284.14 659.20 286.09 661.05 287.82 663.10 C 285.85 662.83 284.69 661.29 283.70 659.73 C 282.22 659.93 280.92 660.48 280.44 662.03 C 283.36 663.59 286.45 664.82 289.74 665.35 C 292.48 668.82 294.81 673.49 299.51 674.52 C 297.14 671.27 293.96 668.66 292.10 665.04 C 293.50 662.75 294.67 660.33 295.44 657.76 C 294.87 657.68 293.74 657.51 293.17 657.43 C 291.05 657.90 292.12 660.77 291.52 662.30 C 290.74 660.53 290.06 658.65 290.76 656.74 C 291.77 655.05 289.75 653.17 288.08 654.02 M 16.04 659.84 C 15.14 661.86 12.54 666.16 15.88 667.08 C 17.31 665.27 19.97 659.95 16.04 659.84 M 586.30 659.85 C 586.20 662.32 586.29 664.80 586.65 667.26 C 588.45 664.93 587.67 662.14 586.30 659.85 M 23.52 664.74 C 23.61 665.55 23.81 667.16 23.91 667.97 C 26.26 669.15 29.68 670.35 31.80 668.16 C 31.77 664.05 26.30 665.03 23.52 664.74 Z" />
<path fill="#8dd43b" opacity="1.00" d=" M 741.30 594.35 L 742.02 594.15 C 744.04 596.54 745.83 599.16 747.22 601.97 C 746.18 604.66 742.74 601.73 742.05 599.96 C 741.40 598.42 739.27 595.28 741.30 594.35 Z" />
<path fill="#8dd43b" opacity="1.00" d=" M 591.37 598.50 C 593.87 598.69 595.80 597.17 597.55 595.59 C 601.06 597.41 604.34 603.85 599.98 606.30 C 596.89 605.69 596.02 602.18 594.47 599.90 C 593.55 604.09 592.97 608.35 592.71 612.64 C 585.84 618.96 587.08 629.33 581.80 636.64 C 581.79 627.18 585.04 617.92 584.03 608.44 C 585.34 608.39 586.65 608.37 587.98 608.36 C 589.25 605.16 591.89 602.15 591.37 598.50 Z" />
<path fill="#8dd43b" opacity="1.00" d=" M 275.08 604.05 C 275.14 600.86 276.60 597.71 279.86 596.77 C 280.56 600.04 278.95 604.18 275.08 604.05 Z" />
<path fill="#8dd43b" opacity="1.00" d=" M 608.20 596.58 C 608.65 596.77 609.55 597.16 610.00 597.35 C 613.14 600.30 610.32 604.44 610.33 607.99 C 609.20 604.27 608.48 600.44 608.20 596.58 Z" />
<path fill="#8dd43b" opacity="1.00" d=" M 613.07 599.23 C 613.60 598.85 614.64 598.09 615.17 597.71 C 616.80 599.31 618.89 601.42 617.87 603.94 C 614.91 605.09 614.23 601.05 613.07 599.23 Z" />
<path fill="#8dd43b" opacity="1.00" d=" M 607.63 599.80 C 607.73 601.69 608.38 603.76 607.46 605.54 C 606.24 607.25 604.61 608.61 603.07 610.03 C 603.23 607.38 603.87 604.75 605.50 602.60 C 605.77 603.24 606.33 604.52 606.61 605.16 C 606.92 603.37 607.25 601.57 607.63 599.80 Z" />
<path fill="#8dd43b" opacity="1.00" d=" M 344.51 609.60 C 342.44 607.38 340.40 602.12 344.53 600.97 C 345.61 602.24 346.71 603.50 347.83 604.76 C 351.29 603.96 354.84 604.39 358.35 604.31 C 362.40 603.44 365.69 608.91 362.96 612.10 C 361.19 610.98 359.47 609.80 357.78 608.58 C 354.86 609.35 351.85 609.23 348.98 608.33 C 347.57 609.05 346.11 611.08 344.51 609.60 Z" />
<path fill="#8dd43b" opacity="1.00" d=" M 619.33 604.26 C 621.88 604.22 624.42 604.21 626.98 604.21 C 626.10 605.68 625.23 607.15 624.37 608.64 C 623.90 607.90 623.44 607.18 622.99 606.47 C 621.80 607.72 620.61 608.98 619.41 610.22 C 619.36 608.22 619.34 606.24 619.33 604.26 Z" />
<path fill="#8dd43b" opacity="1.00" d=" M 717.73 606.93 C 728.40 605.33 739.20 604.20 750.00 604.08 L 750.00 638.77 C 740.04 627.39 729.03 616.96 717.73 606.93 Z" />
<path fill="#8dd43b" opacity="1.00" d=" M 576.29 618.15 C 578.31 618.07 580.32 618.00 582.35 617.93 C 581.96 621.31 580.72 624.59 580.90 628.03 C 581.01 630.97 580.89 633.95 580.04 636.80 C 577.79 630.81 578.53 624.17 576.29 618.15 Z" />
<path fill="#8dd43b" opacity="1.00" d=" M 0.00 691.22 C 1.90 696.75 3.81 702.29 5.22 707.97 C 3.46 706.95 1.69 705.94 0.00 704.81 L 0.00 691.22 Z" />
<path fill="#8dd43b" opacity="1.00" d=" M 0.00 717.54 C 3.23 723.05 6.91 728.28 10.50 733.57 C 13.45 738.00 17.24 742.11 18.29 747.51 C 11.62 742.42 6.50 735.66 0.00 730.37 L 0.00 717.54 Z" />
</g>
<g id="#fefefeff">
<path fill="#fefefe" opacity="1.00" d=" M 0.00 541.72 C 4.49 543.13 10.17 542.53 13.41 546.55 C 15.07 548.54 14.46 551.08 12.88 552.89 C 11.87 553.51 10.84 554.10 9.79 554.65 C 7.14 555.25 4.42 555.41 1.72 555.62 C 2.14 558.39 2.51 561.18 2.60 563.99 C 2.44 565.69 2.21 567.40 1.97 569.10 C 1.45 566.80 0.92 564.51 0.32 562.25 L 0.00 563.41 L 0.00 548.78 C 0.70 548.75 2.09 548.69 2.78 548.66 C 2.73 548.18 2.61 547.22 2.55 546.73 C 1.69 546.21 0.84 545.69 0.00 545.15 L 0.00 541.72 Z" />
<path fill="#fefefe" opacity="1.00" d=" M 360.21 552.92 C 360.30 550.52 362.87 549.21 365.03 549.45 C 369.38 549.65 374.51 549.96 377.57 553.50 C 378.36 555.56 376.26 556.72 374.93 557.80 C 371.03 559.28 366.83 559.61 362.91 558.02 C 361.69 556.54 359.70 555.09 360.21 552.92 M 368.01 552.43 C 367.59 554.03 368.20 554.57 369.84 554.05 C 370.24 552.44 369.64 551.90 368.01 552.43 Z" />
<path fill="#fefefe" opacity="1.00" d=" M 117.04 551.85 C 120.34 549.73 124.62 550.24 127.89 552.14 C 129.28 552.86 130.33 554.54 129.25 556.03 C 127.68 557.40 125.51 557.14 123.59 557.26 C 123.44 559.27 123.23 561.31 122.58 563.24 C 122.48 561.10 122.49 558.96 122.52 556.83 C 120.17 555.81 118.04 554.30 117.04 551.85 M 123.02 552.44 C 121.49 555.40 126.38 552.58 123.02 552.44 Z" />
<path fill="#fefefe" opacity="1.00" d=" M 100.55 553.94 C 104.13 550.45 112.18 552.62 112.61 557.92 C 112.02 557.48 110.84 556.61 110.25 556.18 C 110.41 556.85 110.71 558.19 110.86 558.86 C 109.45 558.78 108.04 558.71 106.63 558.64 C 107.29 561.43 107.96 564.22 108.46 567.06 C 107.22 564.58 106.77 561.82 106.29 559.13 C 103.86 558.32 100.52 556.96 100.55 553.94 M 105.78 554.09 C 105.36 555.72 105.96 556.26 107.56 555.71 C 107.97 554.07 107.37 553.53 105.78 554.09 Z" />
<path fill="#fefefe" opacity="1.00" d=" M 536.65 582.17 C 540.91 580.25 545.45 581.13 549.69 582.59 C 550.77 583.82 551.76 585.11 552.79 586.41 C 550.69 588.94 547.63 589.75 544.43 589.41 C 544.26 591.85 544.04 594.28 543.67 596.71 C 543.42 594.05 543.27 591.39 543.20 588.74 C 541.52 587.85 539.83 586.98 538.22 586.01 C 537.64 584.74 537.14 583.45 536.65 582.17 M 543.48 583.40 C 542.96 584.99 543.52 585.58 545.16 585.17 C 545.68 583.58 545.12 582.99 543.48 583.40 Z" />
<path fill="#fefefe" opacity="1.00" d=" M 516.56 584.54 C 518.55 583.11 521.17 583.31 523.50 582.96 C 525.73 583.99 527.89 585.18 530.13 586.22 C 530.26 587.22 530.50 589.21 530.62 590.21 C 529.92 589.71 528.52 588.71 527.82 588.21 C 528.23 589.21 528.65 590.23 529.08 591.25 C 527.25 591.22 525.43 591.17 523.62 591.15 C 524.47 594.78 525.41 598.46 525.27 602.23 C 525.13 601.59 524.87 600.33 524.74 599.70 C 524.24 597.04 523.74 594.39 523.30 591.72 C 522.20 591.34 521.11 590.95 520.03 590.56 C 518.09 589.29 515.05 587.20 516.56 584.54 M 522.50 587.47 C 523.81 588.89 526.23 586.75 524.55 585.45 C 523.22 583.89 520.82 586.16 522.50 587.47 Z" />
<path fill="#fefefe" opacity="1.00" d=" M 0.00 642.33 C 3.88 641.99 9.42 642.76 9.63 647.70 C 7.98 647.45 7.19 645.91 6.22 644.76 C 6.40 645.68 6.77 647.54 6.95 648.47 C 6.31 648.72 5.03 649.22 4.39 649.47 C 4.40 653.81 3.83 658.14 2.52 662.29 C 2.12 657.80 2.76 653.32 2.59 648.84 C 1.94 648.79 0.65 648.69 0.00 648.64 L 0.00 642.33 M 2.35 644.10 C 1.85 645.74 2.41 646.30 4.01 645.79 C 4.51 644.14 3.95 643.58 2.35 644.10 Z" />
</g>
<g id="#87e05eff">
<path fill="#87e05e" opacity="1.00" d=" M 9.79 554.65 C 10.84 554.10 11.87 553.51 12.88 552.89 C 14.04 555.76 15.18 558.64 16.25 561.56 C 17.50 559.70 18.82 557.88 20.24 556.14 C 21.47 558.53 22.08 561.15 22.48 563.80 C 24.57 560.78 27.04 557.70 30.88 557.02 C 30.29 560.06 29.35 563.03 28.27 565.94 C 39.11 567.61 50.06 568.41 60.98 569.34 C 78.64 571.17 96.29 573.15 113.96 574.83 C 114.36 574.86 115.17 574.91 115.57 574.94 C 115.51 574.13 115.46 573.33 115.41 572.53 C 116.77 572.48 118.13 572.43 119.50 572.39 C 120.35 574.14 121.21 575.91 122.07 577.67 C 123.15 577.42 124.23 577.18 125.31 576.97 C 131.24 576.45 137.13 577.61 143.01 578.24 C 149.27 579.07 155.59 579.50 161.79 580.77 C 161.18 583.81 161.58 586.86 163.61 589.29 C 164.05 587.21 164.45 585.13 164.83 583.05 C 163.97 582.31 163.09 581.56 162.22 580.86 C 185.08 582.58 207.69 586.78 230.50 589.01 C 230.61 586.76 230.60 584.46 231.34 582.31 C 234.54 580.57 235.38 585.50 236.49 587.53 C 237.73 586.13 238.99 584.75 240.27 583.39 C 241.63 585.66 242.11 588.27 242.39 590.87 C 247.27 591.76 252.21 592.31 257.12 593.01 C 253.00 595.92 249.99 600.05 246.02 603.14 C 246.21 601.23 246.44 599.33 246.63 597.43 C 244.52 598.33 242.91 599.99 241.51 601.76 C 240.99 601.75 239.94 601.73 239.42 601.72 C 238.79 600.43 238.15 599.16 237.52 597.90 C 233.24 597.43 232.30 592.61 229.06 590.50 C 229.23 592.89 229.06 595.53 230.48 597.61 C 231.64 599.07 233.33 599.97 234.83 601.04 C 218.33 599.54 201.84 597.67 185.26 597.09 C 185.93 600.59 187.09 605.11 183.37 607.35 C 177.67 610.95 170.93 606.84 165.04 605.72 C 166.03 605.23 167.02 604.76 168.01 604.29 C 160.52 600.24 152.17 598.27 144.00 596.12 C 130.05 592.85 116.19 589.26 102.23 586.04 C 102.49 584.95 102.75 583.88 103.01 582.81 C 101.74 581.95 100.46 581.09 99.19 580.24 C 99.06 580.84 98.78 582.04 98.64 582.64 C 97.76 581.75 96.87 580.87 95.98 579.99 C 96.63 581.66 97.28 583.34 97.93 585.02 C 90.42 583.41 82.97 581.50 75.35 580.56 C 67.55 579.61 59.73 578.84 51.96 577.71 C 48.69 577.19 45.31 576.81 42.07 577.76 C 51.71 581.54 61.96 583.46 71.94 586.11 C 81.93 588.11 91.35 592.23 100.24 597.11 C 93.03 598.42 85.59 598.53 78.34 597.52 C 68.15 595.62 58.16 592.84 47.99 590.91 C 31.94 587.74 16.01 583.97 0.00 580.60 L 0.00 563.41 L 0.32 562.25 C 0.92 564.51 1.45 566.80 1.97 569.10 C 2.21 567.40 2.44 565.69 2.60 563.99 C 5.62 564.32 8.67 564.49 11.72 564.36 C 11.02 561.13 10.36 557.90 9.79 554.65 Z" />
<path fill="#87e05e" opacity="1.00" d=" M 31.38 563.24 C 32.31 560.94 34.04 558.24 36.79 558.15 C 38.25 559.01 37.23 560.51 36.80 561.67 C 35.97 563.66 34.35 565.14 32.85 566.63 C 32.33 565.51 31.71 564.43 31.38 563.24 Z" />
<path fill="#87e05e" opacity="1.00" d=" M 725.80 576.61 C 733.88 575.82 741.87 574.15 750.00 573.81 L 750.00 604.08 C 739.20 604.20 728.40 605.33 717.73 606.93 C 716.48 605.92 715.20 604.97 713.92 604.03 C 714.44 604.96 714.98 605.88 715.53 606.81 C 713.26 607.14 711.02 607.46 708.77 607.78 C 710.18 605.41 713.10 603.34 712.65 600.31 C 707.35 600.20 705.69 606.38 702.31 609.39 C 702.77 607.07 703.30 604.78 703.78 602.48 C 700.20 603.03 699.34 606.69 698.14 609.53 C 696.42 607.27 694.49 605.19 692.22 603.50 C 692.33 605.69 692.50 607.90 692.69 610.09 C 685.62 611.15 678.51 613.10 671.34 612.65 C 669.00 610.44 668.00 607.16 666.15 604.55 C 665.35 607.45 665.52 610.45 666.14 613.37 C 661.44 614.02 656.69 614.28 651.95 614.34 C 633.43 615.22 614.93 616.57 596.39 617.16 C 596.36 615.74 596.32 614.33 596.27 612.93 C 595.38 612.85 593.60 612.71 592.71 612.64 C 592.97 608.35 593.55 604.09 594.47 599.90 C 596.02 602.18 596.89 605.69 599.98 606.30 C 604.34 603.85 601.06 597.41 597.55 595.59 C 595.80 597.17 593.87 598.69 591.37 598.50 C 590.93 598.25 590.06 597.75 589.63 597.50 C 589.14 595.60 588.65 593.72 588.15 591.85 C 592.58 590.91 597.13 590.82 601.65 590.55 C 601.51 589.82 601.39 589.09 601.28 588.37 C 601.02 586.86 600.76 585.35 600.52 583.85 C 601.12 583.66 602.31 583.27 602.91 583.08 C 605.22 585.91 607.49 589.30 611.42 589.83 C 611.67 590.22 612.19 591.00 612.45 591.39 C 614.59 590.30 616.75 589.24 618.91 588.17 C 618.21 587.98 616.83 587.61 616.13 587.42 C 616.38 584.86 617.00 582.33 618.52 580.22 C 619.19 581.34 619.85 582.46 620.52 583.60 C 622.26 582.19 624.03 580.81 625.81 579.45 C 626.25 580.11 627.15 581.43 627.59 582.09 C 625.76 584.91 623.21 587.12 619.92 588.02 C 632.10 587.36 644.22 585.94 656.34 584.64 C 666.05 583.90 675.69 582.43 685.40 581.57 C 698.93 580.52 712.30 578.01 725.80 576.61 M 621.86 589.99 C 622.18 592.00 622.51 594.02 622.86 596.04 C 623.46 596.29 624.65 596.79 625.24 597.04 C 625.92 594.27 624.87 591.57 624.02 588.99 C 623.48 589.24 622.40 589.74 621.86 589.99 M 608.20 596.58 C 608.48 600.44 609.20 604.27 610.33 607.99 C 610.32 604.44 613.14 600.30 610.00 597.35 C 610.41 595.50 610.72 593.16 608.97 591.87 C 605.79 591.19 606.27 595.55 608.20 596.58 M 741.30 594.35 C 739.27 595.28 741.40 598.42 742.05 599.96 C 742.74 601.73 746.18 604.66 747.22 601.97 C 745.83 599.16 744.04 596.54 742.02 594.15 L 741.30 594.35 M 613.07 599.23 C 614.23 601.05 614.91 605.09 617.87 603.94 C 618.89 601.42 616.80 599.31 615.17 597.71 C 614.64 598.09 613.60 598.85 613.07 599.23 M 607.63 599.80 C 607.25 601.57 606.92 603.37 606.61 605.16 C 606.33 604.52 605.77 603.24 605.50 602.60 C 603.87 604.75 603.23 607.38 603.07 610.03 C 604.61 608.61 606.24 607.25 607.46 605.54 C 608.38 603.76 607.73 601.69 607.63 599.80 M 619.33 604.26 C 619.34 606.24 619.36 608.22 619.41 610.22 C 620.61 608.98 621.80 607.72 622.99 606.47 C 623.44 607.18 623.90 607.90 624.37 608.64 C 625.23 607.15 626.10 605.68 626.98 604.21 C 624.42 604.21 621.88 604.22 619.33 604.26 Z" />
<path fill="#87e05e" opacity="1.00" d=" M 610.14 580.07 C 610.32 578.19 612.53 578.37 613.84 577.75 C 614.46 580.92 614.98 584.11 615.45 587.31 C 613.92 587.45 612.40 587.71 610.90 587.96 C 610.53 587.02 610.16 586.08 609.81 585.14 C 609.77 583.44 609.70 581.72 610.14 580.07 Z" />
<path fill="#87e05e" opacity="1.00" d=" M 263.92 583.86 C 265.69 584.57 267.37 585.48 269.03 586.43 C 270.41 586.04 271.83 585.76 273.21 585.36 C 273.33 587.98 273.03 590.92 274.93 593.03 C 276.10 594.87 278.37 595.17 280.28 595.82 C 280.84 594.21 281.04 592.41 282.02 591.00 C 283.18 590.58 284.40 590.32 285.60 590.02 C 285.49 592.19 285.38 594.36 285.29 596.55 C 288.20 594.60 290.77 591.33 294.69 592.24 C 294.20 593.74 293.69 595.24 293.19 596.75 C 304.74 598.12 316.36 598.92 328.00 599.18 C 334.49 599.40 340.97 600.53 347.48 599.88 C 347.79 598.17 348.09 596.47 348.41 594.78 C 352.02 594.26 352.26 598.54 353.67 600.88 C 354.92 598.11 355.76 594.46 359.29 593.96 C 359.64 596.23 359.98 598.50 360.32 600.78 C 369.38 600.97 378.45 601.16 387.52 600.86 C 387.39 598.19 387.63 595.48 388.91 593.09 C 390.39 595.56 391.54 598.22 392.43 600.97 C 393.33 598.77 392.82 593.48 396.43 594.38 C 396.69 596.67 396.66 598.99 396.71 601.31 C 399.09 598.38 400.21 593.95 404.06 592.60 C 405.87 595.41 402.23 598.32 402.25 601.40 C 404.23 598.74 406.26 596.08 408.77 593.90 C 409.34 594.23 410.48 594.90 411.05 595.23 C 409.79 597.12 408.53 599.02 407.26 600.91 C 419.51 601.11 431.79 601.18 444.02 600.27 C 450.58 599.97 457.15 600.29 463.71 599.86 C 463.43 596.94 462.70 593.68 464.87 591.25 C 466.00 592.95 467.08 594.69 468.16 596.44 C 470.74 593.03 475.21 593.01 479.00 592.05 C 478.31 594.52 477.68 597.01 477.21 599.54 C 480.05 596.73 481.56 592.13 486.06 591.61 C 485.77 594.00 485.45 596.40 485.12 598.80 C 490.72 598.59 497.16 599.59 501.71 595.53 C 502.52 596.31 503.33 597.10 504.15 597.90 C 506.06 597.85 507.98 597.82 509.91 597.79 C 510.29 593.62 509.11 588.51 512.86 585.55 C 514.70 589.09 515.08 593.09 515.27 597.02 C 516.42 596.96 517.58 596.91 518.74 596.86 C 519.17 594.76 519.60 592.66 520.03 590.56 C 521.11 590.95 522.20 591.34 523.30 591.72 C 523.74 594.39 524.24 597.04 524.74 599.70 C 523.87 600.95 521.49 601.73 522.17 603.63 C 522.25 605.45 523.78 606.60 524.95 607.79 C 525.10 605.93 525.26 604.08 525.27 602.23 C 525.41 598.46 524.47 594.78 523.62 591.15 C 525.43 591.17 527.25 591.22 529.08 591.25 C 528.65 590.23 528.23 589.21 527.82 588.21 C 528.52 588.71 529.92 589.71 530.62 590.21 C 530.50 589.21 530.26 587.22 530.13 586.22 C 532.82 586.54 535.53 586.30 538.22 586.01 C 539.83 586.98 541.52 587.85 543.20 588.74 C 543.27 591.39 543.42 594.05 543.67 596.71 C 543.79 599.17 543.75 601.65 543.73 604.13 L 545.12 604.23 C 545.16 601.58 545.18 598.94 545.05 596.31 C 547.30 595.51 549.57 594.63 552.01 594.55 C 559.95 593.95 567.91 593.49 575.83 592.56 C 578.79 592.18 581.78 592.41 584.74 592.68 C 582.07 593.45 579.38 594.17 576.69 594.87 C 576.55 595.99 576.40 597.12 576.27 598.26 C 575.08 599.85 574.29 601.63 574.63 603.66 C 576.31 605.10 577.67 606.85 578.74 608.80 C 580.06 608.69 581.38 608.59 582.72 608.50 C 582.09 610.12 581.48 611.77 580.87 613.40 C 581.44 613.88 582.02 614.37 582.61 614.87 C 582.55 615.63 582.42 617.17 582.35 617.93 C 580.32 618.00 578.31 618.07 576.29 618.15 C 575.13 614.52 573.99 610.14 569.78 609.05 C 569.03 611.94 568.48 614.97 569.38 617.90 C 560.74 619.64 551.88 619.36 543.13 619.03 C 543.85 615.96 544.39 612.84 544.32 609.69 C 540.14 611.04 539.30 615.35 537.72 618.86 C 536.52 619.43 535.22 619.77 533.98 620.21 C 533.39 617.20 533.30 614.12 533.70 611.08 C 533.89 609.81 534.08 608.55 534.30 607.30 C 537.07 607.29 539.68 608.22 541.93 609.82 C 541.80 604.00 541.31 598.05 538.71 592.73 C 538.65 594.69 538.69 596.65 538.79 598.61 C 538.20 598.78 537.03 599.12 536.45 599.29 C 536.46 600.93 536.47 602.58 536.49 604.24 C 534.37 599.45 534.21 593.32 529.56 590.08 C 531.10 594.79 534.57 599.15 533.51 604.37 C 532.28 603.24 531.07 602.11 529.86 600.97 C 530.41 602.14 530.97 603.33 531.50 604.54 C 529.77 609.20 529.11 614.16 529.55 619.11 C 523.75 619.63 517.95 619.07 512.18 618.52 C 511.42 614.54 511.01 610.51 510.56 606.49 C 506.32 609.14 507.45 614.63 507.02 618.87 C 503.10 618.68 499.09 618.86 495.28 617.79 C 493.02 614.27 492.53 609.96 490.83 606.19 C 488.83 609.94 489.90 614.16 490.55 618.11 C 489.83 618.09 488.39 618.05 487.67 618.04 C 487.29 613.42 488.41 608.91 488.63 604.34 C 487.83 602.82 486.01 604.47 485.20 605.16 C 482.26 609.17 483.05 614.48 482.52 619.15 C 480.83 613.70 481.63 607.86 479.92 602.41 C 476.32 606.82 477.48 612.75 477.03 618.00 C 475.90 617.79 474.78 617.59 473.66 617.39 C 473.25 615.50 472.84 613.60 472.45 611.71 C 470.91 611.30 469.37 610.81 467.77 610.67 C 466.70 612.75 466.03 615.04 464.84 617.07 C 463.24 617.26 461.64 617.27 460.05 617.34 C 460.19 614.20 460.39 611.07 460.68 607.94 C 459.00 608.70 457.31 609.45 455.63 610.21 C 456.80 612.35 457.62 614.65 458.15 617.04 C 454.98 617.25 451.80 617.10 448.67 616.58 C 449.20 613.88 449.54 611.12 448.93 608.41 C 447.29 610.99 446.24 613.87 445.43 616.80 C 435.96 616.88 426.51 616.04 417.04 615.96 C 403.56 615.07 390.00 615.64 376.57 614.07 C 376.53 613.01 376.49 611.97 376.46 610.93 C 374.69 612.08 372.98 613.39 370.97 614.11 C 368.85 614.41 366.85 613.33 364.86 612.78 C 358.31 614.42 351.61 612.70 344.98 612.69 C 330.52 611.44 316.04 610.31 301.64 608.50 C 287.02 606.81 272.35 605.64 257.75 603.77 C 259.63 601.38 261.38 598.84 262.39 595.95 C 260.08 597.20 257.84 598.58 255.61 599.97 C 256.47 597.69 257.34 595.42 258.23 593.15 C 261.55 593.63 264.90 593.89 268.25 594.03 C 266.63 590.74 263.71 587.74 263.92 583.86 M 275.08 604.05 C 278.95 604.18 280.56 600.04 279.86 596.77 C 276.60 597.71 275.14 600.86 275.08 604.05 M 517.06 598.87 C 517.08 602.23 518.10 606.18 521.81 607.12 C 521.17 603.99 521.02 599.50 517.06 598.87 M 344.51 609.60 C 346.11 611.08 347.57 609.05 348.98 608.33 C 351.85 609.23 354.86 609.35 357.78 608.58 C 359.47 609.80 361.19 610.98 362.96 612.10 C 365.69 608.91 362.40 603.44 358.35 604.31 C 354.84 604.39 351.29 603.96 347.83 604.76 C 346.71 603.50 345.61 602.24 344.53 600.97 C 340.40 602.12 342.44 607.38 344.51 609.60 Z" />
</g>
<g id="#4d9537ff">
<path fill="#4d9537" opacity="1.00" d=" M 126.47 562.88 C 126.68 564.20 126.89 565.51 127.09 566.85 C 128.54 565.52 130.07 563.59 132.22 564.90 C 130.62 567.51 128.40 569.65 125.76 571.19 C 125.72 568.40 126.13 565.64 126.47 562.88 Z" />
<path fill="#4d9537" opacity="1.00" d=" M 385.33 578.56 L 386.95 578.52 C 387.06 580.71 387.18 582.91 387.30 585.12 C 389.48 583.54 391.76 582.10 394.19 580.95 C 393.04 585.02 388.34 585.92 386.18 589.27 C 383.79 586.23 379.26 584.81 378.51 580.68 C 380.80 582.21 383.08 583.77 385.52 585.08 C 385.46 582.90 385.40 580.73 385.33 578.56 Z" />
<path fill="#4d9537" opacity="1.00" d=" M 582.72 608.50 C 583.05 608.49 583.70 608.45 584.03 608.44 C 585.04 617.92 581.79 627.18 581.80 636.64 C 587.08 629.33 585.84 618.96 592.71 612.64 C 593.60 612.71 595.38 612.85 596.27 612.93 C 596.32 614.33 596.36 615.74 596.39 617.16 C 595.28 622.72 592.28 627.61 589.55 632.49 C 586.61 638.04 581.13 641.95 579.30 648.13 C 580.20 641.71 576.32 636.26 574.49 630.42 C 573.05 626.14 571.14 622.05 569.38 617.90 C 568.48 614.97 569.03 611.94 569.78 609.05 C 573.99 610.14 575.13 614.52 576.29 618.15 C 578.53 624.17 577.79 630.81 580.04 636.80 C 580.89 633.95 581.01 630.97 580.90 628.03 C 580.72 624.59 581.96 621.31 582.35 617.93 C 582.42 617.17 582.55 615.63 582.61 614.87 C 582.02 614.37 581.44 613.88 580.87 613.40 C 581.48 611.77 582.09 610.12 582.72 608.50 Z" />
<path fill="#4d9537" opacity="1.00" d=" M 16.04 659.84 C 19.97 659.95 17.31 665.27 15.88 667.08 C 12.54 666.16 15.14 661.86 16.04 659.84 Z" />
</g>
<g id="#56a11aff">
<path fill="#56a11a" opacity="1.00" d=" M 713.92 604.03 C 715.20 604.97 716.48 605.92 717.73 606.93 C 729.03 616.96 740.04 627.39 750.00 638.77 L 750.00 667.51 C 739.26 646.86 727.22 626.93 715.53 606.81 C 714.98 605.88 714.44 604.96 713.92 604.03 Z" />
<path fill="#56a11a" opacity="1.00" d=" M 461.97 622.68 C 468.59 626.20 473.90 631.59 479.64 636.32 C 486.34 642.63 493.41 648.61 499.28 655.74 C 510.14 667.98 519.32 681.67 526.94 696.14 C 528.32 698.61 529.54 701.55 532.38 702.65 C 540.64 706.42 548.97 710.06 557.38 713.48 C 572.65 719.22 588.39 723.65 604.24 727.48 C 581.18 710.05 558.25 692.43 535.91 674.09 C 545.74 676.89 554.82 681.72 564.15 685.82 C 571.23 688.87 577.70 693.18 584.88 696.01 C 574.92 687.93 564.92 679.91 554.52 672.41 C 552.04 670.65 549.69 668.71 547.52 666.59 C 557.61 670.44 567.20 675.49 577.08 679.84 C 595.44 687.73 611.61 699.69 629.36 708.73 C 639.30 713.75 648.07 720.68 657.17 727.01 C 640.62 696.28 621.58 666.97 601.89 638.18 C 607.50 642.52 612.65 647.40 617.90 652.17 C 634.12 667.24 650.46 682.24 665.32 698.68 C 669.38 703.00 673.13 707.65 677.78 711.38 C 672.97 699.40 667.02 687.91 662.52 675.81 C 673.11 680.46 681.84 688.12 690.12 696.01 C 683.69 676.24 676.54 656.51 673.11 635.94 C 675.78 640.33 678.00 644.98 680.69 649.36 C 684.61 655.55 687.42 662.38 691.57 668.44 C 695.13 674.38 700.17 679.21 704.18 684.83 C 709.46 692.15 716.41 698.00 723.06 704.02 C 732.38 712.45 740.29 722.32 750.00 730.33 L 750.00 752.00 L 114.06 752.00 C 100.19 738.09 87.44 723.08 75.35 707.60 C 65.31 694.92 55.28 682.21 45.94 669.00 C 54.79 674.31 63.20 680.34 71.44 686.56 C 75.02 689.16 78.34 692.75 83.01 693.21 C 96.70 694.89 108.39 702.69 120.37 708.88 C 112.70 698.09 102.97 688.89 95.52 677.95 C 105.79 680.15 115.30 684.77 124.68 689.37 C 140.20 697.04 155.32 705.56 169.55 715.43 C 168.73 713.60 167.88 711.79 166.95 710.03 C 157.70 693.28 149.84 675.67 144.85 657.17 C 144.23 656.89 142.98 656.32 142.36 656.04 C 142.83 653.98 143.31 651.92 143.81 649.88 C 150.14 657.88 151.82 668.61 158.68 676.28 C 170.44 689.46 185.05 699.68 200.00 708.89 C 196.68 702.67 194.56 695.91 191.49 689.58 C 189.82 686.11 188.27 682.57 187.08 678.91 C 194.90 683.11 198.36 691.60 204.00 697.98 C 207.53 702.03 210.12 707.08 214.85 709.92 C 220.33 713.12 223.35 718.92 228.00 723.06 C 237.12 731.71 248.24 739.45 261.05 740.82 C 253.75 730.17 245.58 720.06 239.36 708.69 C 235.13 701.06 232.07 692.84 229.51 684.51 C 235.43 688.48 240.64 693.37 246.15 697.87 C 253.07 703.57 259.82 709.48 266.04 715.94 C 259.80 703.12 252.67 690.67 248.23 677.06 C 251.78 680.48 254.59 684.54 257.68 688.37 C 268.40 700.94 279.85 713.12 293.42 722.65 C 289.37 712.07 282.57 702.88 276.77 693.24 C 270.23 683.53 264.48 673.27 259.60 662.63 C 272.75 673.66 283.93 686.79 295.33 699.56 C 301.00 705.90 305.20 713.33 309.96 720.33 C 308.79 712.56 305.90 705.22 303.27 697.87 C 300.88 690.34 297.32 683.29 293.56 676.38 C 300.30 682.05 305.06 689.61 310.98 696.08 C 317.10 703.25 324.07 709.61 330.63 716.37 C 335.51 721.30 340.56 726.56 347.43 728.57 C 340.61 714.06 335.61 698.73 332.30 683.05 C 335.75 686.81 339.16 690.60 342.69 694.28 C 352.37 704.80 363.94 713.32 375.80 721.20 C 383.11 726.01 390.32 731.05 398.12 735.06 C 392.10 726.70 385.61 718.68 379.77 710.18 C 374.15 701.95 367.73 694.33 361.14 686.87 C 371.35 693.82 380.95 701.63 390.59 709.35 C 397.49 714.49 404.03 720.09 410.52 725.73 C 408.75 719.15 406.57 712.62 403.30 706.62 C 400.88 702.13 397.75 698.08 395.08 693.75 C 402.33 698.38 408.87 704.14 413.93 711.13 C 417.61 715.84 420.37 721.23 424.36 725.71 C 422.13 717.21 418.50 709.15 416.26 700.65 C 414.10 692.15 411.80 683.51 412.29 674.66 C 418.84 687.56 427.58 699.16 436.31 710.65 C 444.43 722.35 455.21 732.78 468.64 738.05 C 463.37 723.02 460.14 707.36 454.52 692.45 C 452.22 686.00 450.64 679.29 450.41 672.43 C 451.32 672.50 453.15 672.62 454.06 672.69 C 456.41 680.08 460.43 686.77 465.12 692.90 C 468.83 697.67 471.40 703.20 475.15 707.92 C 476.16 709.42 478.03 709.57 479.67 709.82 C 477.10 698.44 469.81 688.14 470.43 676.14 C 484.80 683.57 494.93 696.66 504.83 709.03 C 497.48 688.73 487.56 669.48 477.75 650.28 C 472.94 640.83 467.14 631.93 461.97 622.68 Z" />
<path fill="#56a11a" opacity="1.00" d=" M 710.84 674.28 C 724.48 674.62 738.09 678.30 750.00 684.96 L 750.00 706.48 C 742.91 699.38 736.36 691.64 728.21 685.70 C 722.64 681.55 716.33 678.53 710.84 674.28 Z" />
<path fill="#56a11a" opacity="1.00" d=" M 0.00 677.57 C 3.62 682.41 7.39 687.15 10.86 692.11 C 16.39 699.95 22.53 707.37 27.41 715.65 C 29.75 719.34 31.68 723.29 34.21 726.86 C 37.24 731.00 42.57 731.99 46.95 734.07 C 60.18 740.20 73.86 745.33 86.83 752.00 L 0.00 752.00 L 0.00 730.37 C 6.50 735.66 11.62 742.42 18.29 747.51 C 17.24 742.11 13.45 738.00 10.50 733.57 C 6.91 728.28 3.23 723.05 0.00 717.54 L 0.00 704.81 C 1.69 705.94 3.46 706.95 5.22 707.97 C 3.81 702.29 1.90 696.75 0.00 691.22 L 0.00 677.57 Z" />
<path fill="#56a11a" opacity="1.00" d=" M 35.01 692.97 C 38.63 693.96 41.81 695.98 44.88 698.09 C 69.06 713.67 91.51 731.89 112.06 752.00 L 88.46 752.00 C 81.31 744.69 73.84 737.69 66.83 730.24 C 55.49 718.46 45.09 705.82 35.01 692.97 Z" />
<path fill="#56a11a" opacity="1.00" d=" M 734.40 703.38 C 740.06 707.19 744.76 712.20 750.00 716.55 L 750.00 727.33 C 744.56 719.52 738.06 712.28 734.40 703.38 Z" />
</g>
</svg>
