<svg height="752pt" viewBox="0 0 750 752" width="750pt" xmlns="http://www.w3.org/2000/svg"><path d="m689.92 500.47c19.95-2.66 40.02-4.38 60.08-5.97v22.22c-32.35.1-64.7.03-97.05-.12l-.62.03c-1.39.09-2.76.19-4.13.3.15-1.77.31-3.53.48-5.29-1.21 1.76-2.41 3.53-3.61 5.3-.2-1.77-.41-3.56-.6-5.33-.74 1.68-1.49 3.36-2.28 5.03-.16-.05-.48-.13-.64-.17l-.44-.34c-.58-1.72-1.16-3.47-2.48-4.77.07 1.89.24 3.78.42 5.68-6.01.41-12.02.63-18.03.92-6.53.27-13.06 1.09-19.59.43-.73 1.57-1.44 3.14-2.11 4.75-.03-1.68-.04-3.35-.06-5.02-.37.13-1.11.38-1.48.51-.34.01-1.03.03-1.38.03-.3-.11-.89-.34-1.19-.46l-.32.61-.71-.13c-1.18-.24-2.36-.46-3.54-.67-.38 3.84.21 7.68 1.74 11.23.27-.62.83-1.86 1.11-2.49 9.12.75 18.06 3.32 26.21 7.46-5 1.98-10.46 2.07-15.75 1.7-25.36-2.32-50.57-6.01-75.89-8.72-8.14-1.11-16.41-1.61-24.59-.54.42.59 1.26 1.76 1.68 2.34 25.58 2.44 51.25 4.12 76.75 7.33 6.51 1.26 13.35 1.37 19.48 4.15-9.81.24-19.63-.55-29.39-1.46-26.64-2.17-53.27-4.47-79.89-6.8-11.64-.79-23.18-2.48-34.77-3.7-48.82-3.61-97.78-4.83-146.67-7.04-25.23-1.81-50.47.89-75.66 2.04-29.9.34-59.82-.26-89.72.25 1.05-.68 2.11-1.36 3.17-2.04-4.25-.17-8.48.28-12.64 1.08-.11-.5-.32-1.51-.43-2.01-18.12-.56-36.26-.09-54.38-.35-7.07-.28-13.91 2.1-20.98 1.84-17.01-.31-34.02-.33-51.03-.16-3.02.06-6.02-.25-8.98-.81l-.01.13v-1.47c7.7.09 15.4-.02 23.08-.56.26-.71.51-1.42.77-2.12.55-.12 1.66-.35 2.21-.46 16.94-.66 33.92.55 50.83-.9 44.69-2.02 89.38-4.97 134.14-4.15 25.32.34 50.6-1.41 75.92-1.42 41.32-1.19 82.68-.82 124.03-.59 27.32.84 54.67.66 82 .66 10.02-.11 20.08.49 30.04-.84 33.27-2.99 66.62-5.24 100.01-6.31 15.65-.98 31.36-.61 47.02-1.53 6.63-.19 13.31-.09 19.87-1.28m-110.91 19.7c-6.36.14-12.73.27-19.02 1.28 6.15.59 12.21 2.35 18.41 2.19 3.15 1.4 6.75 1.04 9.87 2.55.01-.45.03-1.36.04-1.82.46.33 1.37.99 1.83 1.33-.05-2.49-.74-4.86-2.13-6.91-.39.46-1.17 1.37-1.56 1.83-.61-.62-1.21-1.22-1.79-1.83l.6-.74c-1.99.95-3.95 2.24-6.25 2.12m-26.83 4.01c.88 2.52 3.95 1.35 5.81.89-1.21-2.13-3.97-2.1-5.81-.89z" fill="#cbe472"/><path d="m517.06 598.87c3.96.63 4.11 5.12 4.75 8.25-3.71-.94-4.73-4.89-4.75-8.25z" fill="#cbe472"/><path d="m582.42 599.3c1-1.66 3.4.23 2.17 1.65-1.01 1.64-3.42-.25-2.17-1.65z" fill="#cbe472"/><path d="m294.48 627.99c.1-2.41 4.36-1.08 3.52.93-.29 2.72-.63 5.43-.65 8.17 1.45-2.33 2.34-4.92 3.45-7.4 1.2-1.39 3.5.53 2.4 2.06-1.54 2.33-3.23 4.58-4.27 7.19 2.58-.99 4.58-2.86 6.31-4.95 1.9-.44 2.98 2.28 1.51 3.44-3.2 1.42-6.47 2.73-9.28 4.87 1.51 6.55 2.02 13.31 3.96 19.77 1.18 4.59 3.01 8.99 3.9 13.65-1.03-.75-1.8-1.68-2.3-2.81-4.15-9.79-6.12-20.31-7.36-30.81-3.6-1.12-7.28-1.99-11.05-2.2.23-1.35-.27-3.3 1.55-3.63 2.49 1.09 4.89 2.45 7.61 2.93-.94-3.64-4.08-6.67-4.03-10.47.88-.04 2.65-.13 3.53-.17-.45 3.39.28 6.7 2.25 9.51.28-3.41-.12-6.8-1.05-10.08z" fill="#cbe472"/><path d="m310.69 643.93c.19-2.74 2.99-1.84 4.02-.2-.59 2.5-.77 5.08-.47 7.64 1.14-1.94.58-6.55 3.93-5.5.51 3.13-2.39 5.4-3.32 8.22 1.4-1.23 3.77-5.77 4.95-2-1.27 2.1-3.74 2.97-5.72 4.25-1.97 4.89-.9 11.21-4.79 15.13.73-5.53 1.96-10.97 2.61-16.51-1.85-3.16-5.68-5.32-6.11-9.12.73-.08 2.18-.23 2.91-.3.2 2.64 1.38 4.98 3.27 6.82.25-2.9-.56-5.67-1.28-8.43z" fill="#cbe472"/><path d="m288.08 654.02c1.67-.85 3.69 1.03 2.68 2.72-.7 1.91-.02 3.79.76 5.56.6-1.53-.47-4.4 1.65-4.87.57.08 1.7.25 2.27.33-.77 2.57-1.94 4.99-3.34 7.28 1.86 3.62 5.04 6.23 7.41 9.48-4.7-1.03-7.03-5.7-9.77-9.17-3.29-.53-6.38-1.76-9.3-3.32.48-1.55 1.78-2.1 3.26-2.3.99 1.56 2.15 3.1 4.12 3.37-1.73-2.05-3.68-3.9-5.26-6.07.68-.83 1.41-1.6 2.2-2.32 1.11 2.36 2.32 4.7 4.23 6.53-.37-2.33-3.09-5.2-.91-7.22z" fill="#cbe472"/><path d="m638.63 511.36c1.32 1.3 1.9 3.05 2.48 4.77-1.32.77-1.58 3.07.11 3.58 1.5-.18.41-2.34.33-3.24.16.04.48.12.64.17.79-1.67 1.54-3.35 2.28-5.03.19 1.77.4 3.56.6 5.33 1.2-1.77 2.4-3.54 3.61-5.3-.17 1.76-.33 3.52-.48 5.29 1.37-.11 2.74-.21 4.13-.3-1.25 1.05-1.91 2.58-2.21 4.15 1.7-.56 4.3-2.13 2.83-4.18 32.35.15 64.7.22 97.05.12v30c-13.36.09-26.7.8-40.05.72-6.7-.12-13.65.92-20.09-1.43-2.41-.67-5.01-2.08-7.45-.75-3.44 1.62-7.26 1.45-10.95 1.09-.97-1.1-1.95-2.19-2.92-3.27-.04 1.18-.07 2.38-.04 3.57-17.13-.53-34.3-.16-51.43-.61-9.25-1.11-18.43 1.07-27.68.96-.21-.55-.63-1.66-.84-2.21-.36-.09-1.07-.27-1.43-.36-.14-.54-.28-1.07-.41-1.59-2.16.41-4.36.35-6.49-.13.52 1.56 1.03 3.12 1.56 4.7-4.21.6-8.45 1.07-12.71 1.12.18-2.12.38-4.22.59-6.32-.73-.67-1.46-1.33-2.17-1.98-.67.93-1.32 1.87-1.98 2.81.68 1.82 1.35 3.65 2.03 5.49-10.75-.21-21.51-.1-32.24-.85-8.01-.58-16.06.1-24.06-.71 4.26-3.5 9.72-4.71 14.77-6.61-11.6-1.56-23.33-.48-34.99-.78-6.22-.3-11.84 3-18 3.22-14.62 1.06-29.31.52-43.93-.25-26.09-.57-52.17-2.03-78.18-4.15-22.29-.69-44.6-.74-66.91-.82-3.23-1.27-6.56-2.35-9.67-3.89-1.9-.99-2.69-3.24-4.44-4.39-4.78-.63-10.18.21-13.83 3.62-1.73 1.62-3.86 2.76-6.26 2.87-11.3-.01-22.51 1.65-33.8 1.64-6.49-.05-13.18.88-19.43-1.35 2.54-1.59 5.11-3.13 7.7-4.64-4.16-.51-8.31-1.5-11.89-3.78-4-2.54-8.93-1.85-13.39-1.44-23.53 2.59-47.15-.18-70.64-1.74-3.79-.39-7.72-.81-11.32.78-16.18 1.67-32.49.72-48.68 2.32-11.73 1.47-23.55 1.74-35.33 2.66-4.33.17-8.75 1.05-13.02-.02v-8.78l.01-.13c2.96.56 5.96.87 8.98.81 17.01-.17 34.02-.15 51.03.16 7.07.26 13.91-2.12 20.98-1.84 18.12.26 36.26-.21 54.38.35.11.5.32 1.51.43 2.01 4.16-.8 8.39-1.25 12.64-1.08-1.06.68-2.12 1.36-3.17 2.04 29.9-.51 59.82.09 89.72-.25 25.19-1.15 50.43-3.85 75.66-2.04 48.89 2.21 97.85 3.43 146.67 7.04 11.59 1.22 23.13 2.91 34.77 3.7 26.62 2.33 53.25 4.63 79.89 6.8 9.76.91 19.58 1.7 29.39 1.46-6.13-2.78-12.97-2.89-19.48-4.15-25.5-3.21-51.17-4.89-76.75-7.33-.42-.58-1.26-1.75-1.68-2.34 8.18-1.07 16.45-.57 24.59.54 25.32 2.71 50.53 6.4 75.89 8.72 5.29.37 10.75.28 15.75-1.7-8.15-4.14-17.09-6.71-26.21-7.46.69-2.63.66-5.38.69-8.07l.71.13c-.02 2.62.22 5.25.83 7.8.39-2.63.64-5.29.68-7.95.35 0 1.04-.02 1.38-.03-.01 2.64.13 5.29.37 7.93 3.08-1.57 3.3-5.13 3.28-8.17 6.53.66 13.06-.16 19.59-.43 6.01-.29 12.02-.51 18.03-.92-.18-1.9-.35-3.79-.42-5.68m-6.51 23.38c3.03 2.33 7.71 2.6 10.73.12-1.23-1.16-2.47-2.33-3.68-3.49-2.89-.25-5.59.76-7.05 3.37m15.9 4.11c1.24 1.87 3.88 2.06 5.63.79.32-3.56-3.83-1.21-5.63-.79z" fill="#aad667"/><path d="m579.01 520.17c2.3.12 4.26-1.17 6.25-2.12l-.6.74c-1.56 2.21-3.88 3.66-6.26 4.85-6.2.16-12.26-1.6-18.41-2.19 6.29-1.01 12.66-1.14 19.02-1.28z" fill="#aad667"/><path d="m334.04 546.64c18.3-1.22 36.63-3.97 55-2.28 3.68.38 7.06 2.35 10.83 2.22 4.04-.09 8.04-.76 12.09-.87 8.1-.42 16.02 1.63 24.01 2.63 12.71 2.11 25.67 3.07 38.19 6.19-13.39 1.5-26.83-.86-40.24.21-14.96 1.23-30.16-.94-44.93 2.27-4.64.91-9.38.42-14.06.79 1.33-1.08 3.43-2.24 2.64-4.3-3.06-3.54-8.19-3.85-12.54-4.05-2.16-.24-4.73 1.07-4.82 3.47-.51 2.17 1.48 3.62 2.7 5.1-3.97-.5-7.93.29-11.87.71-9.3.98-18.66 1.08-27.99 1.4-22.13.27-44.3.74-66.38-.89 5.6-1.2 11.31-3.23 17.11-2.1 3.72.73 7.5.35 11.21-.21 9.95-1.39 20.01-1.46 30.03-2.06 5.16-.31 10.52.42 15.47-1.45-2.85-.5-5.73-.81-8.61-1.04-.52-1.17-1.02-2.35-1.57-3.48l-.48-.83c4.71-.72 9.45-1.16 14.21-1.43z" fill="#aad667"/><path d="m708.77 551.68c13.73-.56 27.49-.13 41.23-.55v17.21c-21.73-.5-43.47-1.54-65.07-4.03-.1-1.69-.17-3.36-.25-5.03-1.54.43-3.11.85-4.64 1.29.65-2.59 1.64-5.07 3.03-7.34 8.53-.99 17.14-.88 25.7-1.55z" fill="#aad667"/><path d="m188.03 554.39c12.56-.25 25.13-.33 37.68-1.12.11.73.33 2.18.44 2.9-3.34.61-6.73 1.06-10.13.78-6.89-.58-13.81-.78-20.71-1.3-2.44-.33-4.86-.81-7.28-1.26z" fill="#aad667"/><path d="m105.78 554.09c1.59-.56 2.19-.02 1.78 1.62-1.6.55-2.2.01-1.78-1.62z" fill="#aad667"/><path d="m653.06 556.74c6.18-.57 12.19-2.28 18.35-3.04.89 2.4 1.81 4.8 2.78 7.18-.6.18-1.8.55-2.4.73-6.95 1.04-13.84-1.11-20.8-.74-10.19-.2-20.44 1.59-30.56-.04 1.74-2.44 4.91-2.33 7.58-2.54 8.36-.41 16.71-.79 25.05-1.55z" fill="#aad667"/><path d="m676.89 555.6c1.63 1.6 2.39 3.73 2.97 5.88.65-.08 1.3-.15 1.97-.22.49.89.99 1.79 1.52 2.68-2.37-.58-4.8-.84-7.2-1.09.34-2.41.45-4.84.74-7.25z" fill="#aad667"/><path d="m421.96 563.57c6.33-.11 12.64-1.13 18.97-.58 23.08 1.94 46.17 4 69.12 7.23 5.75.95 11.6 1.54 17.19 3.27-3.65 1.23-7.55.86-11.33.81-24.37-.65-48.69-2.6-72.91-5.31-18.36-.42-36.85 1.48-55.13-.96l.66-.96c.98-2.11 3.56-1.84 5.5-2.11 9.31-.52 18.63-.76 27.93-1.39z" fill="#aad667"/><path d="m562.79 563.62c7.05-.69 14.19-1.28 21.25-.38 16.69 2.18 33.29 4.98 50.01 6.94 4.12.57 8.59.31 12.22 2.65-6.1 1.08-12.24-.33-18.33-.75-20.74-1.95-41.35-5-62.04-7.33-1.1-.2-2.1-.7-3.11-1.13z" fill="#aad667"/><path d="m100.84 564.83c3.35-.23 4.78 3.62 4.44 6.39-3.65.94-3.76-4.01-4.44-6.39z" fill="#aad667"/><path d="m106.2 567.37c1.92-.93 2.75 3.34.82 3.68-1.48-.4-1.72-2.64-.82-3.68z" fill="#aad667"/><path d="m621.86 589.99 2.16-1c.85 2.58 1.9 5.28 1.22 8.05-.59-.25-1.78-.75-2.38-1-.35-2.02-.68-4.04-1-6.05z" fill="#aad667"/><path d="m608.2 596.58c-1.93-1.03-2.41-5.39.77-4.71 1.75 1.29 1.44 3.63 1.03 5.48-.45-.19-1.35-.58-1.8-.77z" fill="#aad667"/><path d="m23.25 598.37c1.16-.79 3.15.86 2.43 2.12-1.16.82-3.21-.87-2.43-2.12z" fill="#aad667"/><path d="m522.17 603.63c-.68-1.9 1.7-2.68 2.57-3.93.13.63.39 1.89.53 2.53-.01 1.85-.17 3.7-.32 5.56-1.17-1.19-2.7-2.34-2.78-4.16z" fill="#aad667"/><path d="m141.14 635.79c1.24.8 2.3 1.83 3.24 2.98.64-.51 1.29-1 1.94-1.48.57.88 1.15 1.78 1.72 2.68.87-.66 1.74-1.29 2.61-1.93-.03 2.59-.33 5.16-.94 7.68-1.73.47-3.49.81-5.25 1.11-1.6-3.51-3.15-7.13-3.32-11.04z" fill="#aad667"/><path d="m2.35 644.1c1.6-.52 2.16.04 1.66 1.69-1.6.51-2.16-.05-1.66-1.69z" fill="#aad667"/><g fill="#73ab52"><path d="m14.58 516.9c3.83-.02 7.66.03 11.48-.07-.55.11-1.66.34-2.21.46-.26.7-.51 1.41-.77 2.12-7.68.54-15.38.65-23.08.56v-.44c4.89-.21 9.79-.61 14.69-.3-.03-.58-.08-1.75-.11-2.33z"/><path d="m595.21 518.2c.3.12.89.35 1.19.46-.04 2.66-.29 5.32-.68 7.95-.61-2.55-.85-5.18-.83-7.8z"/><path d="m597.78 518.63c.37-.13 1.11-.38 1.48-.51.02 1.67.03 3.34.06 5.02.67-1.61 1.38-3.18 2.11-4.75.02 3.04-.2 6.6-3.28 8.17-.24-2.64-.38-5.29-.37-7.93z"/><path d="m97.03 525.26c3.6-1.59 7.53-1.17 11.32-.78-3.73.72-7.52 1.16-11.32.78z"/><path d="m246.57 545.72c.73-2.65 1.5-5.28 2.43-7.85 1.85 1.19 3.65 2.87 6 2.78 4.59.15 9.22.01 13.74 1.04-.29 2.24-1.91 4.88-.21 6.91 2.29 3.49 7.09 3.86 10.73 2.58 1.95-.68 2.03-3.04 2.7-4.67-2.43-1.57-4.81-3.21-7.09-4.97 2.51-.67 5.09-1.06 7.68-1.2.48-.41 1.44-1.23 1.92-1.64-.04 3.53-.82 7.49 2.26 10.05 3.87-.46 8.03-.54 11.42-2.66 2.04-1.17 1.05-3.83 1.22-5.7 1.36.71 2.7 1.47 4.09 2.14-.98 1.65-2.29 3.18-2.83 5.05.41 1.05.96 2.05 1.47 3.07 6.1 0 12.4.56 18.21-1.75.55 1.13 1.05 2.31 1.57 3.48 2.88.23 5.76.54 8.61 1.04-4.95 1.87-10.31 1.14-15.47 1.45-10.02.6-20.08.67-30.03 2.06-3.71.56-7.49.94-11.21.21-5.8-1.13-11.51.9-17.11 2.1-1.44.05-2.87.1-4.29.17-.31 1.3-.61 2.6-.91 3.91-1.79-.04-3.58-.07-5.36-.1-.93-1.23-1.84-2.47-2.76-3.69-3.1-.08-6.21-.13-9.3-.45l-.95-.77c-.69 3.89-.7 7.85-.63 11.79-1.31-2.55-2.57-5.13-4.05-7.58-.46-.05-1.36-.15-1.82-.2-3.83-.31-7.67-.84-11.52-.48-2.52.13-5.14.67-7.58-.27-6.35-2.47-13.84-.68-19.53-5 2.43-.37 4.88-.72 7.34-.92 6.9.52 13.82.72 20.71 1.3 3.4.28 6.79-.17 10.13-.78.53-2.52 1.17-5.28 3.72-6.5 4.71-3.84 11.02-3.44 16.7-3.95z"/><path d="m303.71 542.62c3.31-3.34 9.63-1.8 11.56 2.33-3.83-.89-7.74-1.43-11.56-2.33z"/><path d="m668.5 546.65c-.03-1.19 0-2.39.04-3.57.97 1.08 1.95 2.17 2.92 3.27-.38 1.39-.76 2.78-1.14 4.17-.62-1.28-1.25-2.58-1.82-3.87z"/><path d="m0 545.15c.84.54 1.69 1.06 2.55 1.58.06.49.18 1.45.23 1.93-.69.03-2.08.09-2.78.12z"/><path d="m111.91 557.71c1.5 2.08 2.85 4.25 4.13 6.47.88.29 1.76.59 2.65.9.03-1.54.06-3.07.12-4.59 2.76 4.18 2.43 9.35 3.08 14.11.71-.38 1.43-.75 2.15-1.12.51.54 1.03 1.09 1.54 1.65-.07.46-.2 1.38-.27 1.84-1.08.21-2.16.45-3.24.7-.86-1.76-1.72-3.53-2.57-5.28-1.37.04-2.73.09-4.09.14.05.8.1 1.6.16 2.41-.4-.03-1.21-.08-1.61-.11.25-1.95.56-3.88.66-5.83.36-3.98-1.82-7.53-2.71-11.29z"/><path d="m123.31 564.44c1.46.17 1.41 3.84-.03 4.05-.83-1.14-.78-2.94.03-4.05z"/><path d="m161.79 580.77.43.09c.87.7 1.75 1.45 2.61 2.19-.38 2.08-.78 4.16-1.22 6.24-2.03-2.43-2.43-5.48-1.82-8.52z"/><path d="m549.69 582.59c18.14-.9 36.34.41 54.46-1.04 1.34-.06 2.72-.14 4.05.18.64 1.07 1.12 2.24 1.61 3.41.35.94.72 1.88 1.09 2.82 1.5-.25 3.02-.51 4.55-.65.17.03.51.09.68.11.7.19 2.08.56 2.78.75-2.16 1.07-4.32 2.13-6.46 3.22-.26-.39-.78-1.17-1.03-1.56-3.93-.53-6.2-3.92-8.51-6.75-.6.19-1.79.58-2.39.77.24 1.5.5 3.01.76 4.52-6.45.75-12.85-.65-19.29-.75-9.76.11-19.45-1.2-29.2-1.21-1.03-1.3-2.02-2.59-3.1-3.82z"/><path d="m523.5 582.96c4.36-.59 8.77-.48 13.15-.79.49 1.28.99 2.57 1.57 3.84-2.69.29-5.4.53-8.09.21-2.24-1.04-4.4-2.23-6.63-3.26z"/><path d="m627.59 582.09c9.51 1.79 19.27.59 28.75 2.55-12.12 1.3-24.24 2.72-36.42 3.38 3.29-.9 5.84-3.11 7.67-5.93z"/><path d="m543.48 583.4c1.64-.41 2.2.18 1.68 1.77-1.64.41-2.2-.18-1.68-1.77z"/><path d="m522.5 587.47c-1.68-1.31.72-3.58 2.05-2.02 1.68 1.3-.74 3.44-2.05 2.02z"/><path d="m529.56 590.08c4.65 3.24 4.81 9.37 6.93 14.16-.02-1.66-.03-3.31-.04-4.95.58-.17 1.75-.51 2.34-.68-.1-1.96-.14-3.92-.08-5.88 2.6 5.32 3.09 11.27 3.22 17.09-2.25-1.6-4.86-2.53-7.63-2.52-.22 1.25-.41 2.51-.6 3.78-.52-2.25-1.27-4.44-2.2-6.54-.53-1.21-1.09-2.4-1.64-3.57 1.21 1.14 2.42 2.27 3.65 3.4 1.06-5.22-2.41-9.58-3.95-14.29z"/><path d="m543.67 596.71c.34-.1 1.03-.3 1.38-.4.13 2.63.11 5.27.07 7.92l-1.39-.1c.02-2.48.06-4.96-.06-7.42z"/><path d="m168.06 619.12c1.84 2.05 4.16 3.63 5.9 5.78 1.47 2.58.25 5.5-.76 8-2.16-4.32-5.43-7.87-8.22-11.75 2.12 1.86 4.19 3.79 6.46 5.49-.65-2.71-1.97-5.16-3.38-7.52z"/><path d="m174.9 631.69c.67-1.71 1.58-3.3 2.76-4.69-.17 1.74-.38 3.49-.6 5.24-.54-.14-1.62-.42-2.16-.55z"/><path d="m586.3 659.85c1.37 2.29 2.15 5.08.35 7.41-.36-2.46-.45-4.94-.35-7.41z"/></g><path d="m641.22 519.71c-1.69-.51-1.43-2.81-.11-3.58l.44.34c.08.9 1.17 3.06-.33 3.24z" fill="#82c861"/><path d="m652.33 516.63.62-.03c1.47 2.05-1.13 3.62-2.83 4.18.3-1.57.96-3.1 2.21-4.15z" fill="#82c861"/><path d="m590.64 518.01c1.18.21 2.36.43 3.54.67-.03 2.69 0 5.44-.69 8.07-.28.63-.84 1.87-1.11 2.49-1.53-3.55-2.12-7.39-1.74-11.23z" fill="#82c861"/><path d="m578.4 523.64c2.38-1.19 4.7-2.64 6.26-4.85.58.61 1.18 1.21 1.79 1.83.39-.46 1.17-1.37 1.56-1.83 1.39 2.05 2.08 4.42 2.13 6.91-.46-.34-1.37-1-1.83-1.33-.01.46-.03 1.37-.04 1.82-3.12-1.51-6.72-1.15-9.87-2.55z" fill="#82c861"/><path d="m108.35 524.48c23.49 1.56 47.11 4.33 70.64 1.74 4.46-.41 9.39-1.1 13.39 1.44 3.58 2.28 7.73 3.27 11.89 3.78-2.59 1.51-5.16 3.05-7.7 4.64 6.25 2.23 12.94 1.3 19.43 1.35 11.29.01 22.5-1.65 33.8-1.64-.2.52-.6 1.56-.8 2.08-.93 2.57-1.7 5.2-2.43 7.85-5.68.51-11.99.11-16.7 3.95-2.55 1.22-3.19 3.98-3.72 6.5-.11-.72-.33-2.17-.44-2.9-12.55.79-25.12.87-37.68 1.12 2.42.45 4.84.93 7.28 1.26-2.46.2-4.91.55-7.34.92 5.69 4.32 13.18 2.53 19.53 5 2.44.94 5.06.4 7.58.27 3.85-.36 7.69.17 11.52.48 1.47 4.16 2.97 8.48 6.23 11.62 1.83-2.14 3.49-4.41 4.96-6.8.25.8.74 2.41.99 3.22 1.16-1.74 2.65-3.41 3.03-5.53.69-1.82-1.39-2.63-2.38-3.71-1.48 1.64-2.96 3.28-4.43 4.93-.27-2.34-.52-4.67-.95-6.97 3.09.32 6.2.37 9.3.45.92 1.22 1.83 2.46 2.76 3.69 1.78.03 3.57.06 5.36.1.3-1.31.6-2.61.91-3.91 1.42-.07 2.85-.12 4.29-.17 22.08 1.63 44.25 1.16 66.38.89 9.33-.32 18.69-.42 27.99-1.4 3.94-.42 7.9-1.21 11.87-.71 3.92 1.59 8.12 1.26 12.02-.22 4.68-.37 9.42.12 14.06-.79 14.77-3.21 29.97-1.04 44.93-2.27 13.41-1.07 26.85 1.29 40.24-.21-12.52-3.12-25.48-4.08-38.19-6.19-7.99-1-15.91-3.05-24.01-2.63-4.05.11-8.05.78-12.09.87-3.77.13-7.15-1.84-10.83-2.22-18.37-1.69-36.7 1.06-55 2.28-4.76.27-9.5.71-14.21 1.43-2.02-.28-3.72-1.22-4.56-3.12-1.93-4.13-8.25-5.67-11.56-2.33l-.25-.09c-1.39-.67-2.73-1.43-4.09-2.14-5.35.34-10.04 3.77-12.64 8.36-3.08-2.56-2.3-6.52-2.26-10.05l-.47-1.12c22.31.08 44.62.13 66.91.82 26.01 2.12 52.09 3.58 78.18 4.15 14.62.77 29.31 1.31 43.93.25 6.16-.22 11.78-3.52 18-3.22 11.66.3 23.39-.78 34.99.78-5.05 1.9-10.51 3.11-14.77 6.61 8 .81 16.05.13 24.06.71 10.73.75 21.49.64 32.24.85h1.53c4.26-.05 8.5-.52 12.71-1.12-.53-1.58-1.04-3.14-1.56-4.7 2.13.48 4.33.54 6.49.13.13.52.27 1.05.41 1.59.36.09 1.07.27 1.43.36.21.55.63 1.66.84 2.21 9.25.11 18.43-2.07 27.68-.96 17.13.45 34.3.08 51.43.61.57 1.29 1.2 2.59 1.82 3.87.38-1.39.76-2.78 1.14-4.17 3.69.36 7.51.53 10.95-1.09 2.44-1.33 5.04.08 7.45.75 6.44 2.35 13.39 1.31 20.09 1.43 13.35.08 26.69-.63 40.05-.72v4.41c-13.74.42-27.5-.01-41.23.55-8.56.67-17.17.56-25.7 1.55-.74.1-2.22.3-2.96.41.41-.89 1.22-2.66 1.63-3.54-1.8-.29-3.62-.31-5.42-.1.88 1.47 1.75 2.94 2.69 4.4-2.5-.52-5.05-.93-7.6-.7-6.16.76-12.17 2.47-18.35 3.04-8.34.76-16.69 1.14-25.05 1.55-2.67.21-5.84.1-7.58 2.54 10.12 1.63 20.37-.16 30.56.04 6.96-.37 13.85 1.78 20.8.74 1.39 1.31 2.63 2.79 3.85 4.28.13-.76.38-2.28.51-3.04 2.4.25 4.83.51 7.2 1.09.21.05.65.17.86.22.18.04.54.11.72.15 21.6 2.49 43.34 3.53 65.07 4.03v5.47c-8.13.34-16.12 2.01-24.2 2.8-13.5 1.4-26.87 3.91-40.4 4.96-9.71.86-19.35 2.33-29.06 3.07-9.48-1.96-19.24-.76-28.75-2.55-.44-.66-1.34-1.98-1.78-2.64-1.78 1.36-3.55 2.74-5.29 4.15-.67-1.14-1.33-2.26-2-3.38-1.52 2.11-2.14 4.64-2.39 7.2-.17-.02-.51-.08-.68-.11-.47-3.2-.99-6.39-1.61-9.56-1.31.62-3.52.44-3.7 2.32-.44 1.65-.37 3.37-.33 5.07-.49-1.17-.97-2.34-1.61-3.41-1.33-.32-2.71-.24-4.05-.18-18.12 1.45-36.32.14-54.46 1.04-4.24-1.46-8.78-2.34-13.04-.42-4.38.31-8.79.2-13.15.79-2.33.35-4.95.15-6.94 1.58-1.51 2.66 1.53 4.75 3.47 6.02-.43 2.1-.86 4.2-1.29 6.3-1.16.05-2.32.1-3.47.16-.19-3.93-.57-7.93-2.41-11.47-3.75 2.96-2.57 8.07-2.95 12.24-1.93.03-3.85.06-5.76.11-.82-.8-1.63-1.59-2.44-2.37-4.55 4.06-10.99 3.06-16.59 3.27.33-2.4.65-4.8.94-7.19-4.5.52-6.01 5.12-8.85 7.93.47-2.53 1.1-5.02 1.79-7.49-3.79.96-8.26.98-10.84 4.39-1.08-1.75-2.16-3.49-3.29-5.19-2.17 2.43-1.44 5.69-1.16 8.61-6.56.43-13.13.11-19.69.41-12.23.91-24.51.84-36.76.64 1.27-1.89 2.53-3.79 3.79-5.68-.57-.33-1.71-1-2.28-1.33-2.51 2.18-4.54 4.84-6.52 7.5-.02-3.08 3.62-5.99 1.81-8.8-3.85 1.35-4.97 5.78-7.35 8.71-.05-2.32-.02-4.64-.28-6.93-3.61-.9-3.1 4.39-4 6.59-.89-2.75-2.04-5.41-3.52-7.88-1.28 2.39-1.52 5.1-1.39 7.77-9.07.3-18.14.11-27.2-.08-.34-2.28-.68-4.55-1.03-6.82-3.53.5-4.37 4.15-5.62 6.92-1.41-2.34-1.65-6.62-5.26-6.1-.32 1.69-.62 3.39-.93 5.1-6.51.65-12.99-.48-19.48-.7-11.64-.26-23.26-1.06-34.81-2.43.5-1.51 1.01-3.01 1.5-4.51-3.92-.91-6.49 2.36-9.4 4.31.09-2.19.2-4.36.31-6.53-1.2.3-2.42.56-3.58.98-.98 1.41-1.18 3.21-1.74 4.82-1.91-.65-4.18-.95-5.35-2.79-1.9-2.11-1.6-5.05-1.72-7.67-1.38.4-2.8.68-4.18 1.07-1.66-.95-3.34-1.86-5.11-2.57-.21 3.88 2.71 6.88 4.33 10.17-3.35-.14-6.7-.4-10.02-.88l-1.11-.14c-4.91-.7-9.85-1.25-14.73-2.14-.28-2.6-.76-5.21-2.12-7.48-1.28 1.36-2.54 2.74-3.78 4.14-1.11-2.03-1.95-6.96-5.15-5.22-.74 2.15-.73 4.45-.84 6.7-22.81-2.23-45.42-6.43-68.28-8.15l-.43-.09c-6.2-1.27-12.52-1.7-18.78-2.53-5.88-.63-11.77-1.79-17.7-1.27.07-.46.2-1.38.27-1.84-.51-.56-1.03-1.11-1.54-1.65-.72.37-1.44.74-2.15 1.12-.65-4.76-.32-9.93-3.08-14.11-.06 1.52-.09 3.05-.12 4.59-.89-.31-1.77-.61-2.65-.9-1.28-2.22-2.63-4.39-4.13-6.47.89 3.76 3.07 7.31 2.71 11.29-.1 1.95-.41 3.88-.66 5.83-17.67-1.68-35.32-3.66-52.98-5.49-10.92-.93-21.87-1.73-32.71-3.4 1.08-2.91 2.02-5.88 2.61-8.92-3.84.68-6.31 3.76-8.4 6.78-.4-2.65-1.01-5.27-2.24-7.66-1.42 1.74-2.74 3.56-3.99 5.42-1.07-2.92-2.21-5.8-3.37-8.67 1.58-1.81 2.19-4.35.53-6.34-3.24-4.02-8.92-3.42-13.41-4.83v-11.5c4.27 1.07 8.69.19 13.02.02 11.78-.92 23.6-1.19 35.33-2.66 16.19-1.6 32.5-.65 48.68-2.32 3.8.38 7.59-.06 11.32-.78m8.69 27.37c1 2.45 3.13 3.96 5.48 4.98-.03 2.13-.04 4.27.06 6.41.65-1.93.86-3.97 1.01-5.98 1.92-.12 4.09.14 5.66-1.23 1.08-1.49.03-3.17-1.36-3.89-3.27-1.9-7.55-2.41-10.85-.29m-16.49 2.09c-.03 3.02 3.31 4.38 5.74 5.19.48 2.69.93 5.45 2.17 7.93-.5-2.84-1.17-5.63-1.83-8.42 1.41.07 2.82.14 4.23.22-.15-.67-.45-2.01-.61-2.68.59.43 1.77 1.3 2.36 1.74-.43-5.3-8.48-7.47-12.06-3.98m-69.17 9.3c.33 1.19.95 2.27 1.47 3.39 1.5-1.49 3.12-2.97 3.95-4.96.43-1.16 1.45-2.66-.01-3.52-2.75.09-4.48 2.79-5.41 5.09m95.09-.36c-.34 2.76-.75 5.52-.71 8.31 2.64-1.54 4.86-3.68 6.46-6.29-2.15-1.31-3.68.62-5.13 1.95-.2-1.34-.41-2.65-.62-3.97m295.49.69c-9.3.63-18.62.87-27.93 1.39-1.94.27-4.52 0-5.5 2.11-2.54-2.07-7.99-2.01-8.57 1.84 2.36 1.88 6.57 2.44 7.91-.88 18.28 2.44 36.77.54 55.13.96 24.22 2.71 48.54 4.66 72.91 5.31 3.78.05 7.68.42 11.33-.81-5.59-1.73-11.44-2.32-17.19-3.27-22.95-3.23-46.04-5.29-69.12-7.23-6.33-.55-12.64.47-18.97.58m140.83.05c1.01.43 2.01.93 3.11 1.13 20.69 2.33 41.3 5.38 62.04 7.33 6.09.42 12.23 1.83 18.33.75-3.63-2.34-8.1-2.08-12.22-2.65-16.72-1.96-33.32-4.76-50.01-6.94-7.06-.9-14.2-.31-21.25.38m-439.48.82c-.81 1.11-.86 2.91-.03 4.05 1.44-.21 1.49-3.88.03-4.05m-22.47.39c.68 2.38.79 7.33 4.44 6.39.34-2.77-1.09-6.62-4.44-6.39m5.36 2.54c-.9 1.04-.66 3.28.82 3.68 1.93-.34 1.1-4.61-.82-3.68m271.2 10.06c2.59.72 5.71.82 7.66-1.36-1.75-1.44-3.75-2.97-6.17-2.39-1.75-.2-3.77 3.09-1.49 3.75m7.93 1.13c.07 2.17.13 4.34.19 6.52-2.44-1.31-4.72-2.87-7.01-4.4.75 4.13 5.28 5.55 7.67 8.59 2.16-3.35 6.86-4.25 8.01-8.32-2.43 1.15-4.71 2.59-6.89 4.17-.12-2.21-.24-4.41-.35-6.6z" fill="#82c861"/><path d="m123.02 552.44c3.36.14-1.53 2.96 0 0z" fill="#82c861"/><path d="m368.01 552.43c1.63-.53 2.23.01 1.83 1.62-1.64.52-2.25-.02-1.83-1.62z" fill="#82c861"/><path d="m1.72 555.62c2.7-.21 5.42-.37 8.07-.97.57 3.25 1.23 6.48 1.93 9.71-3.05.13-6.1-.04-9.12-.37-.09-2.81-.46-5.6-.88-8.37z" fill="#82c861"/><path d="m95.98 579.99c.89.88 1.78 1.76 2.66 2.65.14-.6.42-1.8.55-2.4 1.27.85 2.55 1.71 3.82 2.57-.26 1.07-.52 2.14-.78 3.23-1.43-.35-2.87-.69-4.3-1.02-.65-1.68-1.3-3.36-1.95-5.03z" fill="#82c861"/><path d="m552.79 586.41c9.75.01 19.44 1.32 29.2 1.21 6.44.1 12.84 1.5 19.29.75.11.72.23 1.45.37 2.18-4.52.27-9.07.36-13.5 1.3-1.16.24-2.27.55-3.41.83-2.96-.27-5.95-.5-8.91-.12-7.92.93-15.88 1.39-23.82 1.99-2.44.08-4.71.96-6.96 1.76-.35.1-1.04.3-1.38.4.37-2.43.59-4.86.76-7.3 3.2.34 6.26-.47 8.36-3z" fill="#82c861"/><path d="m629.59 635.23c.21-2.06-.42-5.32 2.43-5.75 3.67-1.33 4.85 3.48 5.42 6.09-2.63.19-5.26.04-7.85-.34z" fill="#82c861"/><path d="m552.18 524.18c1.84-1.21 4.6-1.24 5.81.89-1.86.46-4.93 1.63-5.81-.89z" fill="#cd6e63"/><path d="m632.12 534.74c1.46-2.61 4.16-3.62 7.05-3.37 1.21 1.16 2.45 2.33 3.68 3.49-3.02 2.48-7.7 2.21-10.73-.12z" fill="#cd6e63"/><path d="m648.02 538.85c1.8-.42 5.95-2.77 5.63.79-1.75 1.27-4.39 1.08-5.63-.79z" fill="#cd6e63"/><path d="m567.49 540.23c.71.65 1.44 1.31 2.17 1.98-.21 2.1-.41 4.2-.59 6.32-.52 0-1.03 0-1.53 0-.68-1.84-1.35-3.67-2.03-5.49.66-.94 1.31-1.88 1.98-2.81z" fill="#cd6e63"/><path d="m676.32 550c1.8-.21 3.62-.19 5.42.1-.41.88-1.22 2.65-1.63 3.54.74-.11 2.22-.31 2.96-.41-1.39 2.27-2.38 4.75-3.03 7.34 1.53-.44 3.1-.86 4.64-1.29.08 1.67.15 3.34.25 5.03-.18-.04-.54-.11-.72-.15-.21-.05-.65-.17-.86-.22-.53-.89-1.03-1.79-1.52-2.68-.67.07-1.32.14-1.97.22-.58-2.15-1.34-4.28-2.97-5.88-.29 2.41-.4 4.84-.74 7.25-.13.76-.38 2.28-.51 3.04-1.22-1.49-2.46-2.97-3.85-4.28.6-.18 1.8-.55 2.4-.73-.97-2.38-1.89-4.78-2.78-7.18 2.55-.23 5.1.18 7.6.7-.94-1.46-1.81-2.93-2.69-4.4z" fill="#cd6e63"/><path d="m379.96 568.91c.58-3.85 6.03-3.91 8.57-1.84l-.66.96c-1.34 3.32-5.55 2.76-7.91.88z" fill="#cd6e63"/><path d="m377.4 577.43c-2.28-.66-.26-3.95 1.49-3.75 2.42-.58 4.42.95 6.17 2.39-1.95 2.18-5.07 2.08-7.66 1.36z" fill="#cd6e63"/><path d="m584.74 592.68c1.14-.28 2.25-.59 3.41-.83.5 1.87.99 3.75 1.48 5.65.43.25 1.3.75 1.74 1 .52 3.65-2.12 6.66-3.39 9.86-1.33.01-2.64.03-3.95.08-.33.01-.98.05-1.31.06-1.34.09-2.66.19-3.98.3-1.07-1.95-2.43-3.7-4.11-5.14-.34-2.03.45-3.81 1.64-5.4.13-1.14.28-2.27.42-3.39 2.69-.7 5.38-1.42 8.05-2.19m-2.32 6.62c-1.25 1.4 1.16 3.29 2.17 1.65 1.23-1.42-1.17-3.31-2.17-1.65z" fill="#cd6e63"/><path d="m23.52 664.74c2.78.29 8.25-.69 8.28 3.42-2.12 2.19-5.54.99-7.89-.19-.1-.81-.3-2.42-.39-3.23z" fill="#cd6e63"/><path d="m256.06 532.92c3.65-3.41 9.05-4.25 13.83-3.62 1.75 1.15 2.54 3.4 4.44 4.39 3.11 1.54 6.44 2.62 9.67 3.89l.47 1.12c-.48.41-1.44 1.23-1.92 1.64-2.59.14-5.17.53-7.68 1.2 2.28 1.76 4.66 3.4 7.09 4.97-.67 1.63-.75 3.99-2.7 4.67-3.64 1.28-8.44.91-10.73-2.58-1.7-2.03-.08-4.67.21-6.91-4.52-1.03-9.15-.89-13.74-1.04-2.35.09-4.15-1.59-6-2.78.2-.52.6-1.56.8-2.08 2.4-.11 4.53-1.25 6.26-2.87z" fill="#8dd43b"/><path d="m286.73 548.75c2.6-4.59 7.29-8.02 12.64-8.36-.17 1.87.82 4.53-1.22 5.7-3.39 2.12-7.55 2.2-11.42 2.66z" fill="#8dd43b"/><path d="m303.46 542.53.25.09c3.82.9 7.73 1.44 11.56 2.33.84 1.9 2.54 2.84 4.56 3.12l.48.83c-5.81 2.31-12.11 1.75-18.21 1.75-.51-1.02-1.06-2.02-1.47-3.07.54-1.87 1.85-3.4 2.83-5.05z" fill="#8dd43b"/><path d="m232.47 570.1c-.07-3.94-.06-7.9.63-11.79l.95.77c.43 2.3.68 4.63.95 6.97 1.47-1.65 2.95-3.29 4.43-4.93.99 1.08 3.07 1.89 2.38 3.71-.38 2.12-1.87 3.79-3.03 5.53-.25-.81-.74-2.42-.99-3.22-1.47 2.39-3.13 4.66-4.96 6.8-3.26-3.14-4.76-7.46-6.23-11.62.46.05 1.36.15 1.82.2 1.48 2.45 2.74 5.03 4.05 7.58z" fill="#8dd43b"/><path d="m42.07 577.76c3.24-.95 6.62-.57 9.89-.05 7.77 1.13 15.59 1.9 23.39 2.85 7.62.94 15.07 2.85 22.58 4.46 1.43.33 2.87.67 4.3 1.02 13.96 3.22 27.82 6.81 41.77 10.08 8.17 2.15 16.52 4.12 24.01 8.17-.99.47-1.98.94-2.97 1.43 5.89 1.12 12.63 5.23 18.33 1.63 3.72-2.24 2.56-6.76 1.89-10.26 16.58.58 33.07 2.45 49.57 3.95-1.5-1.07-3.19-1.97-4.35-3.43-1.42-2.08-1.25-4.72-1.42-7.11 3.24 2.11 4.18 6.93 8.46 7.4.63 1.26 1.27 2.53 1.9 3.82.52.01 1.57.03 2.09.04 1.4-1.77 3.01-3.43 5.12-4.33-.19 1.9-.42 3.8-.61 5.71 3.97-3.09 6.98-7.22 11.1-10.13l1.11.14c-.89 2.27-1.76 4.54-2.62 6.82 2.23-1.39 4.47-2.77 6.78-4.02-1.01 2.89-2.76 5.43-4.64 7.82 14.6 1.87 29.27 3.04 43.89 4.73 14.4 1.81 28.88 2.94 43.34 4.19 6.63.01 13.33 1.73 19.88.09 1.99.55 3.99 1.63 6.11 1.33 2.01-.72 3.72-2.03 5.49-3.18.03 1.04.07 2.08.11 3.14 13.43 1.57 26.99 1 40.47 1.89 9.47.08 18.92.92 28.39.84.81-2.93 1.86-5.81 3.5-8.39.61 2.71.27 5.47-.26 8.17 3.13.52 6.31.67 9.48.46-.53-2.39-1.35-4.69-2.52-6.83 1.68-.76 3.37-1.51 5.05-2.27-.29 3.13-.49 6.26-.63 9.4 1.59-.07 3.19-.08 4.79-.27 1.19-2.03 1.86-4.32 2.93-6.4 1.6.14 3.14.63 4.68 1.04.39 1.89.8 3.79 1.21 5.68 1.12.2 2.24.4 3.37.61.45-5.25-.71-11.18 2.89-15.59 1.71 5.45.91 11.29 2.6 16.74.53-4.67-.26-9.98 2.68-13.99.81-.69 2.63-2.34 3.43-.82-.22 4.57-1.34 9.08-.96 13.7.72.01 2.16.05 2.88.07-.65-3.95-1.72-8.17.28-11.92 1.7 3.77 2.19 8.08 4.45 11.6 3.81 1.07 7.82.89 11.74 1.08.43-4.24-.7-9.73 3.54-12.38.45 4.02.86 8.05 1.62 12.03 5.77.55 11.57 1.11 17.37.59-.44-4.95.22-9.91 1.95-14.57.93 2.1 1.68 4.29 2.2 6.54-.4 3.04-.31 6.12.28 9.13 1.24-.44 2.54-.78 3.74-1.35 1.58-3.51 2.42-7.82 6.6-9.17.07 3.15-.47 6.27-1.19 9.34 8.75.33 17.61.61 26.25-1.13 1.76 4.15 3.67 8.24 5.11 12.52 1.83 5.84 5.71 11.29 4.81 17.71 1.83-6.18 7.31-10.09 10.25-15.64 2.73-4.88 5.73-9.77 6.84-15.33 18.54-.59 37.04-1.94 55.56-2.82 4.74-.06 9.49-.32 14.19-.97-.62-2.92-.79-5.92.01-8.82 1.85 2.61 2.85 5.89 5.19 8.1 7.17.45 14.28-1.5 21.35-2.56-.19-2.19-.36-4.4-.47-6.59 2.27 1.69 4.2 3.77 5.92 6.03 1.2-2.84 2.06-6.5 5.64-7.05-.48 2.3-1.01 4.59-1.47 6.91 3.38-3.01 5.04-9.19 10.34-9.08.45 3.03-2.47 5.1-3.88 7.47 2.25-.32 4.49-.64 6.76-.97 11.69 20.12 23.73 40.05 34.47 60.7v17.45c-11.91-6.66-25.52-10.34-39.16-10.68 5.49 4.25 11.8 7.27 17.37 11.42 8.15 5.94 14.7 13.68 21.79 20.78v10.07c-5.24-4.35-9.94-9.36-15.6-13.17 3.66 8.9 10.16 16.14 15.6 23.95v3c-9.71-8.01-17.62-17.88-26.94-26.31-6.65-6.02-13.6-11.87-18.88-19.19-4.01-5.62-9.05-10.45-12.61-16.39-4.15-6.06-6.96-12.89-10.88-19.08-2.69-4.38-4.91-9.03-7.58-13.42 3.43 20.57 10.58 40.3 17.01 60.07-8.28-7.89-17.01-15.55-27.6-20.2 4.5 12.1 10.45 23.59 15.26 35.57-4.65-3.73-8.4-8.38-12.46-12.7-14.86-16.44-31.2-31.44-47.42-46.51-5.25-4.77-10.4-9.65-16.01-13.99 19.69 28.79 38.73 58.1 55.28 88.83-9.1-6.33-17.87-13.26-27.81-18.28-17.75-9.04-33.92-21-52.28-28.89-9.88-4.35-19.47-9.4-29.56-13.25 2.17 2.12 4.52 4.06 7 5.82 10.4 7.5 20.4 15.52 30.36 23.6-7.18-2.83-13.65-7.14-20.73-10.19-9.33-4.1-18.41-8.93-28.24-11.73 22.34 18.34 45.27 35.96 68.33 53.39-15.85-3.83-31.59-8.26-46.86-14-8.41-3.42-16.74-7.06-25-10.83-2.84-1.1-4.06-4.04-5.44-6.51-7.62-14.47-16.8-28.16-27.66-40.4-5.87-7.13-12.94-13.11-19.64-19.42-5.74-4.73-11.05-10.12-17.67-13.64 5.17 9.25 10.97 18.15 15.78 27.6 9.81 19.2 19.73 38.45 27.08 58.75-9.9-12.37-20.03-25.46-34.4-32.89-.62 12 6.67 22.3 9.24 33.68-1.64-.25-3.51-.4-4.52-1.9-3.75-4.72-6.32-10.25-10.03-15.02-4.69-6.13-8.71-12.82-11.06-20.21-.91-.07-2.74-.19-3.65-.26.23 6.86 1.81 13.57 4.11 20.02 5.62 14.91 8.85 30.57 14.12 45.6-13.43-5.27-24.21-15.7-32.33-27.4-8.73-11.49-17.47-23.09-24.02-35.99-.49 8.85 1.81 17.49 3.97 25.99 2.24 8.5 5.87 16.56 8.1 25.06-3.99-4.48-6.75-9.87-10.43-14.58-5.06-6.99-11.6-12.75-18.85-17.38 2.67 4.33 5.8 8.38 8.22 12.87 3.27 6 5.45 12.53 7.22 19.11-6.49-5.64-13.03-11.24-19.93-16.38-9.64-7.72-19.24-15.53-29.45-22.48 6.59 7.46 13.01 15.08 18.63 23.31 5.84 8.5 12.33 16.52 18.35 24.88-7.8-4.01-15.01-9.05-22.32-13.86-11.86-7.88-23.43-16.4-33.11-26.92-3.53-3.68-6.94-7.47-10.39-11.23 3.31 15.68 8.31 31.01 15.13 45.52-6.87-2.01-11.92-7.27-16.8-12.2-6.56-6.76-13.53-13.12-19.65-20.29-5.92-6.47-10.68-14.03-17.42-19.7 3.76 6.91 7.32 13.96 9.71 21.49 2.63 7.35 5.52 14.69 6.69 22.46-4.76-7-8.96-14.43-14.63-20.77-11.4-12.77-22.58-25.9-35.73-36.93 4.88 10.64 10.63 20.9 17.17 30.61 5.8 9.64 12.6 18.83 16.65 29.41-13.57-9.53-25.02-21.71-35.74-34.28-3.09-3.83-5.9-7.89-9.45-11.31 4.44 13.61 11.57 26.06 17.81 38.88-6.22-6.46-12.97-12.37-19.89-18.07-5.51-4.5-10.72-9.39-16.64-13.36 2.56 8.33 5.62 16.55 9.85 24.18 6.22 11.37 14.39 21.48 21.69 32.13-12.81-1.37-23.93-9.11-33.05-17.76-4.65-4.14-7.67-9.94-13.15-13.14-4.73-2.84-7.32-7.89-10.85-11.94-5.64-6.38-9.1-14.87-16.92-19.07 1.19 3.66 2.74 7.2 4.41 10.67 3.07 6.33 5.19 13.09 8.51 19.31-14.95-9.21-29.56-19.43-41.32-32.61-6.86-7.67-8.54-18.4-14.87-26.4-.5 2.04-.98 4.1-1.45 6.16.62.28 1.87.85 2.49 1.13 4.99 18.5 12.85 36.11 22.1 52.86.93 1.76 1.78 3.57 2.6 5.4-14.23-9.87-29.35-18.39-44.87-26.06-9.38-4.6-18.89-9.22-29.16-11.42 7.45 10.94 17.18 20.14 24.85 30.93-11.98-6.19-23.67-13.99-37.36-15.67-4.67-.46-7.99-4.05-11.57-6.65-8.24-6.22-16.65-12.25-25.5-17.56 9.34 13.21 19.37 25.92 29.41 38.6 12.09 15.48 24.84 30.49 38.71 44.4h-2c-20.55-20.11-43-38.33-67.18-53.91-3.07-2.11-6.25-4.13-9.87-5.12 10.08 12.85 20.48 25.49 31.82 37.27 7.01 7.45 14.48 14.45 21.63 21.76h-1.63c-12.97-6.67-26.65-11.8-39.88-17.93-4.38-2.08-9.71-3.07-12.74-7.21-2.53-3.57-4.46-7.52-6.8-11.21-4.88-8.28-11.02-15.7-16.55-23.54-3.47-4.96-7.24-9.7-10.86-14.54v-28.93c.65.05 1.94.15 2.59.2.17 4.48-.47 8.96-.07 13.45 1.31-4.15 1.88-8.48 1.87-12.82l2.56-1c-.18-.93-.55-2.79-.73-3.71.97 1.15 1.76 2.69 3.41 2.94-.21-4.94-5.75-5.71-9.63-5.37v-61.73c16.01 3.37 31.94 7.14 47.99 10.31 10.17 1.93 20.16 4.71 30.35 6.61 7.25 1.01 14.69.9 21.9-.41-8.89-4.88-18.31-9-28.3-11-9.98-2.65-20.23-4.57-29.87-8.35m-18.82 20.61c-.78 1.25 1.27 2.94 2.43 2.12.72-1.26-1.27-2.91-2.43-2.12m144.81 20.75c1.41 2.36 2.73 4.81 3.38 7.52-2.27-1.7-4.34-3.63-6.46-5.49 2.79 3.88 6.06 7.43 8.22 11.75 1.01-2.5 2.23-5.42.76-8-1.74-2.15-4.06-3.73-5.9-5.78m6.84 12.57c.54.13 1.62.41 2.16.55.22-1.75.43-3.5.6-5.24-1.18 1.39-2.09 2.98-2.76 4.69m119.58-3.7c.93 3.28 1.33 6.67 1.05 10.08-1.97-2.81-2.7-6.12-2.25-9.51-.88.04-2.65.13-3.53.17-.05 3.8 3.09 6.83 4.03 10.47-2.72-.48-5.12-1.84-7.61-2.93-1.82.33-1.32 2.28-1.55 3.63 3.77.21 7.45 1.08 11.05 2.2 1.24 10.5 3.21 21.02 7.36 30.81.5 1.13 1.27 2.06 2.3 2.81-.89-4.66-2.72-9.06-3.9-13.65-1.94-6.46-2.45-13.22-3.96-19.77 2.81-2.14 6.08-3.45 9.28-4.87 1.47-1.16.39-3.88-1.51-3.44-1.73 2.09-3.73 3.96-6.31 4.95 1.04-2.61 2.73-4.86 4.27-7.19 1.1-1.53-1.2-3.45-2.4-2.06-1.11 2.48-2 5.07-3.45 7.4.02-2.74.36-5.45.65-8.17.84-2.01-3.42-3.34-3.52-.93m335.11 7.24c2.59.38 5.22.53 7.85.34-.57-2.61-1.75-7.42-5.42-6.09-2.85.43-2.22 3.69-2.43 5.75m-488.45.56c.17 3.91 1.72 7.53 3.32 11.04 1.76-.3 3.52-.64 5.25-1.11.61-2.52.91-5.09.94-7.68-.87.64-1.74 1.27-2.61 1.93-.57-.9-1.15-1.8-1.72-2.68-.65.48-1.3.97-1.94 1.48-.94-1.15-2-2.18-3.24-2.98m169.55 8.14c.72 2.76 1.53 5.53 1.28 8.43-1.89-1.84-3.07-4.18-3.27-6.82-.73.07-2.18.22-2.91.3.43 3.8 4.26 5.96 6.11 9.12-.65 5.54-1.88 10.98-2.61 16.51 3.89-3.92 2.82-10.24 4.79-15.13 1.98-1.28 4.45-2.15 5.72-4.25-1.18-3.77-3.55.77-4.95 2 .93-2.82 3.83-5.09 3.32-8.22-3.35-1.05-2.79 3.56-3.93 5.5-.3-2.56-.12-5.14.47-7.64-1.03-1.64-3.83-2.54-4.02.2m-22.61 10.09c-2.18 2.02.54 4.89.91 7.22-1.91-1.83-3.12-4.17-4.23-6.53-.79.72-1.52 1.49-2.2 2.32 1.58 2.17 3.53 4.02 5.26 6.07-1.97-.27-3.13-1.81-4.12-3.37-1.48.2-2.78.75-3.26 2.3 2.92 1.56 6.01 2.79 9.3 3.32 2.74 3.47 5.07 8.14 9.77 9.17-2.37-3.25-5.55-5.86-7.41-9.48 1.4-2.29 2.57-4.71 3.34-7.28-.57-.08-1.7-.25-2.27-.33-2.12.47-1.05 3.34-1.65 4.87-.78-1.77-1.46-3.65-.76-5.56 1.01-1.69-1.01-3.57-2.68-2.72m-272.04 5.82c-.9 2.02-3.5 6.32-.16 7.24 1.43-1.81 4.09-7.13.16-7.24m570.26.01c-.1 2.47-.01 4.95.35 7.41 1.8-2.33 1.02-5.12-.35-7.41m-562.78 4.89c.09.81.29 2.42.39 3.23 2.35 1.18 5.77 2.38 7.89.19-.03-4.11-5.5-3.13-8.28-3.42z" fill="#8dd43b"/><path d="m741.3 594.35.72-.2c2.02 2.39 3.81 5.01 5.2 7.82-1.04 2.69-4.48-.24-5.17-2.01-.65-1.54-2.78-4.68-.75-5.61z" fill="#8dd43b"/><path d="m591.37 598.5c2.5.19 4.43-1.33 6.18-2.91 3.51 1.82 6.79 8.26 2.43 10.71-3.09-.61-3.96-4.12-5.51-6.4-.92 4.19-1.5 8.45-1.76 12.74-6.87 6.32-5.63 16.69-10.91 24-.01-9.46 3.24-18.72 2.23-28.2 1.31-.05 2.62-.07 3.95-.08 1.27-3.2 3.91-6.21 3.39-9.86z" fill="#8dd43b"/><path d="m275.08 604.05c.06-3.19 1.52-6.34 4.78-7.28.7 3.27-.91 7.41-4.78 7.28z" fill="#8dd43b"/><path d="m608.2 596.58c.45.19 1.35.58 1.8.77 3.14 2.95.32 7.09.33 10.64-1.13-3.72-1.85-7.55-2.13-11.41z" fill="#8dd43b"/><path d="m613.07 599.23c.53-.38 1.57-1.14 2.1-1.52 1.63 1.6 3.72 3.71 2.7 6.23-2.96 1.15-3.64-2.89-4.8-4.71z" fill="#8dd43b"/><path d="m607.63 599.8c.1 1.89.75 3.96-.17 5.74-1.22 1.71-2.85 3.07-4.39 4.49.16-2.65.8-5.28 2.43-7.43.27.64.83 1.92 1.11 2.56.31-1.79.64-3.59 1.02-5.36z" fill="#8dd43b"/><path d="m344.51 609.6c-2.07-2.22-4.11-7.48.02-8.63 1.08 1.27 2.18 2.53 3.3 3.79 3.46-.8 7.01-.37 10.52-.45 4.05-.87 7.34 4.6 4.61 7.79-1.77-1.12-3.49-2.3-5.18-3.52-2.92.77-5.93.65-8.8-.25-1.41.72-2.87 2.75-4.47 1.27z" fill="#8dd43b"/><path d="m619.33 604.26c2.55-.04 5.09-.05 7.65-.05-.88 1.47-1.75 2.94-2.61 4.43-.47-.74-.93-1.46-1.38-2.17-1.19 1.25-2.38 2.51-3.58 3.75-.05-2-.07-3.98-.08-5.96z" fill="#8dd43b"/><path d="m717.73 606.93c10.67-1.6 21.47-2.73 32.27-2.85v34.69c-9.96-11.38-20.97-21.81-32.27-31.84z" fill="#8dd43b"/><path d="m576.29 618.15c2.02-.08 4.03-.15 6.06-.22-.39 3.38-1.63 6.66-1.45 10.1.11 2.94-.01 5.92-.86 8.77-2.25-5.99-1.51-12.63-3.75-18.65z" fill="#8dd43b"/><path d="m0 691.22c1.9 5.53 3.81 11.07 5.22 16.75-1.76-1.02-3.53-2.03-5.22-3.16z" fill="#8dd43b"/><path d="m0 717.54c3.23 5.51 6.91 10.74 10.5 16.03 2.95 4.43 6.74 8.54 7.79 13.94-6.67-5.09-11.79-11.85-18.29-17.14z" fill="#8dd43b"/><path d="m0 541.72c4.49 1.41 10.17.81 13.41 4.83 1.66 1.99 1.05 4.53-.53 6.34-1.01.62-2.04 1.21-3.09 1.76-2.65.6-5.37.76-8.07.97.42 2.77.79 5.56.88 8.37-.16 1.7-.39 3.41-.63 5.11-.52-2.3-1.05-4.59-1.65-6.85l-.32 1.16v-14.63c.7-.03 2.09-.09 2.78-.12-.05-.48-.17-1.44-.23-1.93-.86-.52-1.71-1.04-2.55-1.58z" fill="#fefefe"/><path d="m360.21 552.92c.09-2.4 2.66-3.71 4.82-3.47 4.35.2 9.48.51 12.54 4.05.79 2.06-1.31 3.22-2.64 4.3-3.9 1.48-8.1 1.81-12.02.22-1.22-1.48-3.21-2.93-2.7-5.1m7.8-.49c-.42 1.6.19 2.14 1.83 1.62.4-1.61-.2-2.15-1.83-1.62z" fill="#fefefe"/><path d="m117.04 551.85c3.3-2.12 7.58-1.61 10.85.29 1.39.72 2.44 2.4 1.36 3.89-1.57 1.37-3.74 1.11-5.66 1.23-.15 2.01-.36 4.05-1.01 5.98-.1-2.14-.09-4.28-.06-6.41-2.35-1.02-4.48-2.53-5.48-4.98m5.98.59c-1.53 2.96 3.36.14 0 0z" fill="#fefefe"/><path d="m100.55 553.94c3.58-3.49 11.63-1.32 12.06 3.98-.59-.44-1.77-1.31-2.36-1.74.16.67.46 2.01.61 2.68-1.41-.08-2.82-.15-4.23-.22.66 2.79 1.33 5.58 1.83 8.42-1.24-2.48-1.69-5.24-2.17-7.93-2.43-.81-5.77-2.17-5.74-5.19m5.23.15c-.42 1.63.18 2.17 1.78 1.62.41-1.64-.19-2.18-1.78-1.62z" fill="#fefefe"/><path d="m536.65 582.17c4.26-1.92 8.8-1.04 13.04.42 1.08 1.23 2.07 2.52 3.1 3.82-2.1 2.53-5.16 3.34-8.36 3-.17 2.44-.39 4.87-.76 7.3-.25-2.66-.4-5.32-.47-7.97-1.68-.89-3.37-1.76-4.98-2.73-.58-1.27-1.08-2.56-1.57-3.84m6.83 1.23c-.52 1.59.04 2.18 1.68 1.77.52-1.59-.04-2.18-1.68-1.77z" fill="#fefefe"/><path d="m516.56 584.54c1.99-1.43 4.61-1.23 6.94-1.58 2.23 1.03 4.39 2.22 6.63 3.26.13 1 .37 2.99.49 3.99-.7-.5-2.1-1.5-2.8-2 .41 1 .83 2.02 1.26 3.04-1.83-.03-3.65-.08-5.46-.1.85 3.63 1.79 7.31 1.65 11.08-.14-.64-.4-1.9-.53-2.53-.5-2.66-1-5.31-1.44-7.98-1.1-.38-2.19-.77-3.27-1.16-1.94-1.27-4.98-3.36-3.47-6.02m5.94 2.93c1.31 1.42 3.73-.72 2.05-2.02-1.33-1.56-3.73.71-2.05 2.02z" fill="#fefefe"/><path d="m0 642.33c3.88-.34 9.42.43 9.63 5.37-1.65-.25-2.44-1.79-3.41-2.94.18.92.55 2.78.73 3.71-.64.25-1.92.75-2.56 1 .01 4.34-.56 8.67-1.87 12.82-.4-4.49.24-8.97.07-13.45-.65-.05-1.94-.15-2.59-.2zm2.35 1.77c-.5 1.64.06 2.2 1.66 1.69.5-1.65-.06-2.21-1.66-1.69z" fill="#fefefe"/><path d="m9.79 554.65c1.05-.55 2.08-1.14 3.09-1.76 1.16 2.87 2.3 5.75 3.37 8.67 1.25-1.86 2.57-3.68 3.99-5.42 1.23 2.39 1.84 5.01 2.24 7.66 2.09-3.02 4.56-6.1 8.4-6.78-.59 3.04-1.53 6.01-2.61 8.92 10.84 1.67 21.79 2.47 32.71 3.4 17.66 1.83 35.31 3.81 52.98 5.49.4.03 1.21.08 1.61.11-.06-.81-.11-1.61-.16-2.41 1.36-.05 2.72-.1 4.09-.14.85 1.75 1.71 3.52 2.57 5.28 1.08-.25 2.16-.49 3.24-.7 5.93-.52 11.82.64 17.7 1.27 6.26.83 12.58 1.26 18.78 2.53-.61 3.04-.21 6.09 1.82 8.52.44-2.08.84-4.16 1.22-6.24-.86-.74-1.74-1.49-2.61-2.19 22.86 1.72 45.47 5.92 68.28 8.15.11-2.25.1-4.55.84-6.7 3.2-1.74 4.04 3.19 5.15 5.22 1.24-1.4 2.5-2.78 3.78-4.14 1.36 2.27 1.84 4.88 2.12 7.48 4.88.89 9.82 1.44 14.73 2.14-4.12 2.91-7.13 7.04-11.1 10.13.19-1.91.42-3.81.61-5.71-2.11.9-3.72 2.56-5.12 4.33-.52-.01-1.57-.03-2.09-.04-.63-1.29-1.27-2.56-1.9-3.82-4.28-.47-5.22-5.29-8.46-7.4.17 2.39 0 5.03 1.42 7.11 1.16 1.46 2.85 2.36 4.35 3.43-16.5-1.5-32.99-3.37-49.57-3.95.67 3.5 1.83 8.02-1.89 10.26-5.7 3.6-12.44-.51-18.33-1.63.99-.49 1.98-.96 2.97-1.43-7.49-4.05-15.84-6.02-24.01-8.17-13.95-3.27-27.81-6.86-41.77-10.08.26-1.09.52-2.16.78-3.23-1.27-.86-2.55-1.72-3.82-2.57-.13.6-.41 1.8-.55 2.4-.88-.89-1.77-1.77-2.66-2.65.65 1.67 1.3 3.35 1.95 5.03-7.51-1.61-14.96-3.52-22.58-4.46-7.8-.95-15.62-1.72-23.39-2.85-3.27-.52-6.65-.9-9.89.05 9.64 3.78 19.89 5.7 29.87 8.35 9.99 2 19.41 6.12 28.3 11-7.21 1.31-14.65 1.42-21.9.41-10.19-1.9-20.18-4.68-30.35-6.61-16.05-3.17-31.98-6.94-47.99-10.31v-17.19l.32-1.16c.6 2.26 1.13 4.55 1.65 6.85.24-1.7.47-3.41.63-5.11 3.02.33 6.07.5 9.12.37-.7-3.23-1.36-6.46-1.93-9.71z" fill="#87e05e"/><path d="m31.38 563.24c.93-2.3 2.66-5 5.41-5.09 1.46.86.44 2.36.01 3.52-.83 1.99-2.45 3.47-3.95 4.96-.52-1.12-1.14-2.2-1.47-3.39z" fill="#87e05e"/><path d="m725.8 576.61c8.08-.79 16.07-2.46 24.2-2.8v30.27c-10.8.12-21.6 1.25-32.27 2.85-1.25-1.01-2.53-1.96-3.81-2.9.52.93 1.06 1.85 1.61 2.78-2.27.33-4.51.65-6.76.97 1.41-2.37 4.33-4.44 3.88-7.47-5.3-.11-6.96 6.07-10.34 9.08.46-2.32.99-4.61 1.47-6.91-3.58.55-4.44 4.21-5.64 7.05-1.72-2.26-3.65-4.34-5.92-6.03.11 2.19.28 4.4.47 6.59-7.07 1.06-14.18 3.01-21.35 2.56-2.34-2.21-3.34-5.49-5.19-8.1-.8 2.9-.63 5.9-.01 8.82-4.7.65-9.45.91-14.19.97-18.52.88-37.02 2.23-55.56 2.82-.03-1.42-.07-2.83-.12-4.23-.89-.08-2.67-.22-3.56-.29.26-4.29.84-8.55 1.76-12.74 1.55 2.28 2.42 5.79 5.51 6.4 4.36-2.45 1.08-8.89-2.43-10.71-1.75 1.58-3.68 3.1-6.18 2.91-.44-.25-1.31-.75-1.74-1-.49-1.9-.98-3.78-1.48-5.65 4.43-.94 8.98-1.03 13.5-1.3-.14-.73-.26-1.46-.37-2.18-.26-1.51-.52-3.02-.76-4.52.6-.19 1.79-.58 2.39-.77 2.31 2.83 4.58 6.22 8.51 6.75.25.39.77 1.17 1.03 1.56 2.14-1.09 4.3-2.15 6.46-3.22-.7-.19-2.08-.56-2.78-.75.25-2.56.87-5.09 2.39-7.2.67 1.12 1.33 2.24 2 3.38 1.74-1.41 3.51-2.79 5.29-4.15.44.66 1.34 1.98 1.78 2.64-1.83 2.82-4.38 5.03-7.67 5.93 12.18-.66 24.3-2.08 36.42-3.38 9.71-.74 19.35-2.21 29.06-3.07 13.53-1.05 26.9-3.56 40.4-4.96m-103.94 13.38c.32 2.01.65 4.03 1 6.05.6.25 1.79.75 2.38 1 .68-2.77-.37-5.47-1.22-8.05-.54.25-1.62.75-2.16 1m-13.66 6.59c.28 3.86 1 7.69 2.13 11.41-.01-3.55 2.81-7.69-.33-10.64.41-1.85.72-4.19-1.03-5.48-3.18-.68-2.7 3.68-.77 4.71m133.1-2.23c-2.03.93.1 4.07.75 5.61.69 1.77 4.13 4.7 5.17 2.01-1.39-2.81-3.18-5.43-5.2-7.82zm-128.23 4.88c1.16 1.82 1.84 5.86 4.8 4.71 1.02-2.52-1.07-4.63-2.7-6.23-.53.38-1.57 1.14-2.1 1.52m-5.44.57c-.38 1.77-.71 3.57-1.02 5.36-.28-.64-.84-1.92-1.11-2.56-1.63 2.15-2.27 4.78-2.43 7.43 1.54-1.42 3.17-2.78 4.39-4.49.92-1.78.27-3.85.17-5.74m11.7 4.46c.01 1.98.03 3.96.08 5.96 1.2-1.24 2.39-2.5 3.58-3.75.45.71.91 1.43 1.38 2.17.86-1.49 1.73-2.96 2.61-4.43-2.56 0-5.1.01-7.65.05z" fill="#87e05e"/><path d="m610.14 580.07c.18-1.88 2.39-1.7 3.7-2.32.62 3.17 1.14 6.36 1.61 9.56-1.53.14-3.05.4-4.55.65-.37-.94-.74-1.88-1.09-2.82-.04-1.7-.11-3.42.33-5.07z" fill="#87e05e"/><path d="m263.92 583.86c1.77.71 3.45 1.62 5.11 2.57 1.38-.39 2.8-.67 4.18-1.07.12 2.62-.18 5.56 1.72 7.67 1.17 1.84 3.44 2.14 5.35 2.79.56-1.61.76-3.41 1.74-4.82 1.16-.42 2.38-.68 3.58-.98-.11 2.17-.22 4.34-.31 6.53 2.91-1.95 5.48-5.22 9.4-4.31-.49 1.5-1 3-1.5 4.51 11.55 1.37 23.17 2.17 34.81 2.43 6.49.22 12.97 1.35 19.48.7.31-1.71.61-3.41.93-5.1 3.61-.52 3.85 3.76 5.26 6.1 1.25-2.77 2.09-6.42 5.62-6.92.35 2.27.69 4.54 1.03 6.82 9.06.19 18.13.38 27.2.08-.13-2.67.11-5.38 1.39-7.77 1.48 2.47 2.63 5.13 3.52 7.88.9-2.2.39-7.49 4-6.59.26 2.29.23 4.61.28 6.93 2.38-2.93 3.5-7.36 7.35-8.71 1.81 2.81-1.83 5.72-1.81 8.8 1.98-2.66 4.01-5.32 6.52-7.5.57.33 1.71 1 2.28 1.33-1.26 1.89-2.52 3.79-3.79 5.68 12.25.2 24.53.27 36.76-.64 6.56-.3 13.13.02 19.69-.41-.28-2.92-1.01-6.18 1.16-8.61 1.13 1.7 2.21 3.44 3.29 5.19 2.58-3.41 7.05-3.43 10.84-4.39-.69 2.47-1.32 4.96-1.79 7.49 2.84-2.81 4.35-7.41 8.85-7.93-.29 2.39-.61 4.79-.94 7.19 5.6-.21 12.04.79 16.59-3.27.81.78 1.62 1.57 2.44 2.37 1.91-.05 3.83-.08 5.76-.11.38-4.17-.8-9.28 2.95-12.24 1.84 3.54 2.22 7.54 2.41 11.47 1.15-.06 2.31-.11 3.47-.16.43-2.1.86-4.2 1.29-6.3 1.08.39 2.17.78 3.27 1.16.44 2.67.94 5.32 1.44 7.98-.87 1.25-3.25 2.03-2.57 3.93.08 1.82 1.61 2.97 2.78 4.16.15-1.86.31-3.71.32-5.56.14-3.77-.8-7.45-1.65-11.08 1.81.02 3.63.07 5.46.1-.43-1.02-.85-2.04-1.26-3.04l2.8 2c-.12-1-.36-2.99-.49-3.99 2.69.32 5.4.08 8.09-.21 1.61.97 3.3 1.84 4.98 2.73.07 2.65.22 5.31.47 7.97.12 2.46.08 4.94.06 7.42l1.39.1c.04-2.65.06-5.29-.07-7.92 2.25-.8 4.52-1.68 6.96-1.76 7.94-.6 15.9-1.06 23.82-1.99 2.96-.38 5.95-.15 8.91.12-2.67.77-5.36 1.49-8.05 2.19-.14 1.12-.29 2.25-.42 3.39-1.19 1.59-1.98 3.37-1.64 5.4 1.68 1.44 3.04 3.19 4.11 5.14 1.32-.11 2.64-.21 3.98-.3-.63 1.62-1.24 3.27-1.85 4.9.57.48 1.15.97 1.74 1.47-.06.76-.19 2.3-.26 3.06-2.03.07-4.04.14-6.06.22-1.16-3.63-2.3-8.01-6.51-9.1-.75 2.89-1.3 5.92-.4 8.85-8.64 1.74-17.5 1.46-26.25 1.13.72-3.07 1.26-6.19 1.19-9.34-4.18 1.35-5.02 5.66-6.6 9.17-1.2.57-2.5.91-3.74 1.35-.59-3.01-.68-6.09-.28-9.13.19-1.27.38-2.53.6-3.78 2.77-.01 5.38.92 7.63 2.52-.13-5.82-.62-11.77-3.22-17.09-.06 1.96-.02 3.92.08 5.88-.59.17-1.76.51-2.34.68.01 1.64.02 3.29.04 4.95-2.12-4.79-2.28-10.92-6.93-14.16 1.54 4.71 5.01 9.07 3.95 14.29-1.23-1.13-2.44-2.26-3.65-3.4.55 1.17 1.11 2.36 1.64 3.57-1.73 4.66-2.39 9.62-1.95 14.57-5.8.52-11.6-.04-17.37-.59-.76-3.98-1.17-8.01-1.62-12.03-4.24 2.65-3.11 8.14-3.54 12.38-3.92-.19-7.93-.01-11.74-1.08-2.26-3.52-2.75-7.83-4.45-11.6-2 3.75-.93 7.97-.28 11.92-.72-.02-2.16-.06-2.88-.07-.38-4.62.74-9.13.96-13.7-.8-1.52-2.62.13-3.43.82-2.94 4.01-2.15 9.32-2.68 13.99-1.69-5.45-.89-11.29-2.6-16.74-3.6 4.41-2.44 10.34-2.89 15.59-1.13-.21-2.25-.41-3.37-.61-.41-1.89-.82-3.79-1.21-5.68-1.54-.41-3.08-.9-4.68-1.04-1.07 2.08-1.74 4.37-2.93 6.4-1.6.19-3.2.2-4.79.27.14-3.14.34-6.27.63-9.4-1.68.76-3.37 1.51-5.05 2.27 1.17 2.14 1.99 4.44 2.52 6.83-3.17.21-6.35.06-9.48-.46.53-2.7.87-5.46.26-8.17-1.64 2.58-2.69 5.46-3.5 8.39-9.47.08-18.92-.76-28.39-.84-13.48-.89-27.04-.32-40.47-1.89-.04-1.06-.08-2.1-.11-3.14-1.77 1.15-3.48 2.46-5.49 3.18-2.12.3-4.12-.78-6.11-1.33-6.55 1.64-13.25-.08-19.88-.09-14.46-1.25-28.94-2.38-43.34-4.19-14.62-1.69-29.29-2.86-43.89-4.73 1.88-2.39 3.63-4.93 4.64-7.82-2.31 1.25-4.55 2.63-6.78 4.02.86-2.28 1.73-4.55 2.62-6.82 3.32.48 6.67.74 10.02.88-1.62-3.29-4.54-6.29-4.33-10.17m11.16 20.19c3.87.13 5.48-4.01 4.78-7.28-3.26.94-4.72 4.09-4.78 7.28m241.98-5.18c.02 3.36 1.04 7.31 4.75 8.25-.64-3.13-.79-7.62-4.75-8.25m-172.55 10.73c1.6 1.48 3.06-.55 4.47-1.27 2.87.9 5.88 1.02 8.8.25 1.69 1.22 3.41 2.4 5.18 3.52 2.73-3.19-.56-8.66-4.61-7.79-3.51.08-7.06-.35-10.52.45-1.12-1.26-2.22-2.52-3.3-3.79-4.13 1.15-2.09 6.41-.02 8.63z" fill="#87e05e"/><path d="m126.47 562.88c.21 1.32.42 2.63.62 3.97 1.45-1.33 2.98-3.26 5.13-1.95-1.6 2.61-3.82 4.75-6.46 6.29-.04-2.79.37-5.55.71-8.31z" fill="#4d9537"/><path d="m385.33 578.56 1.62-.04c.11 2.19.23 4.39.35 6.6 2.18-1.58 4.46-3.02 6.89-4.17-1.15 4.07-5.85 4.97-8.01 8.32-2.39-3.04-6.92-4.46-7.67-8.59 2.29 1.53 4.57 3.09 7.01 4.4-.06-2.18-.12-4.35-.19-6.52z" fill="#4d9537"/><path d="m582.72 608.5c.33-.01.98-.05 1.31-.06 1.01 9.48-2.24 18.74-2.23 28.2 5.28-7.31 4.04-17.68 10.91-24 .89.07 2.67.21 3.56.29.05 1.4.09 2.81.12 4.23-1.11 5.56-4.11 10.45-6.84 15.33-2.94 5.55-8.42 9.46-10.25 15.64.9-6.42-2.98-11.87-4.81-17.71-1.44-4.28-3.35-8.37-5.11-12.52-.9-2.93-.35-5.96.4-8.85 4.21 1.09 5.35 5.47 6.51 9.1 2.24 6.02 1.5 12.66 3.75 18.65.85-2.85.97-5.83.86-8.77-.18-3.44 1.06-6.72 1.45-10.1.07-.76.2-2.3.26-3.06-.59-.5-1.17-.99-1.74-1.47.61-1.63 1.22-3.28 1.85-4.9z" fill="#4d9537"/><path d="m16.04 659.84c3.93.11 1.27 5.43-.16 7.24-3.34-.92-.74-5.22.16-7.24z" fill="#4d9537"/><path d="m713.92 604.03c1.28.94 2.56 1.89 3.81 2.9 11.3 10.03 22.31 20.46 32.27 31.84v28.74c-10.74-20.65-22.78-40.58-34.47-60.7-.55-.93-1.09-1.85-1.61-2.78z" fill="#56a11a"/><path d="m461.97 622.68c6.62 3.52 11.93 8.91 17.67 13.64 6.7 6.31 13.77 12.29 19.64 19.42 10.86 12.24 20.04 25.93 27.66 40.4 1.38 2.47 2.6 5.41 5.44 6.51 8.26 3.77 16.59 7.41 25 10.83 15.27 5.74 31.01 10.17 46.86 14-23.06-17.43-45.99-35.05-68.33-53.39 9.83 2.8 18.91 7.63 28.24 11.73 7.08 3.05 13.55 7.36 20.73 10.19-9.96-8.08-19.96-16.1-30.36-23.6-2.48-1.76-4.83-3.7-7-5.82 10.09 3.85 19.68 8.9 29.56 13.25 18.36 7.89 34.53 19.85 52.28 28.89 9.94 5.02 18.71 11.95 27.81 18.28-16.55-30.73-35.59-60.04-55.28-88.83 5.61 4.34 10.76 9.22 16.01 13.99 16.22 15.07 32.56 30.07 47.42 46.51 4.06 4.32 7.81 8.97 12.46 12.7-4.81-11.98-10.76-23.47-15.26-35.57 10.59 4.65 19.32 12.31 27.6 20.2-6.43-19.77-13.58-39.5-17.01-60.07 2.67 4.39 4.89 9.04 7.58 13.42 3.92 6.19 6.73 13.02 10.88 19.08 3.56 5.94 8.6 10.77 12.61 16.39 5.28 7.32 12.23 13.17 18.88 19.19 9.32 8.43 17.23 18.3 26.94 26.31v21.67h-635.94c-13.87-13.91-26.62-28.92-38.71-44.4-10.04-12.68-20.07-25.39-29.41-38.6 8.85 5.31 17.26 11.34 25.5 17.56 3.58 2.6 6.9 6.19 11.57 6.65 13.69 1.68 25.38 9.48 37.36 15.67-7.67-10.79-17.4-19.99-24.85-30.93 10.27 2.2 19.78 6.82 29.16 11.42 15.52 7.67 30.64 16.19 44.87 26.06-.82-1.83-1.67-3.64-2.6-5.4-9.25-16.75-17.11-34.36-22.1-52.86-.62-.28-1.87-.85-2.49-1.13.47-2.06.95-4.12 1.45-6.16 6.33 8 8.01 18.73 14.87 26.4 11.76 13.18 26.37 23.4 41.32 32.61-3.32-6.22-5.44-12.98-8.51-19.31-1.67-3.47-3.22-7.01-4.41-10.67 7.82 4.2 11.28 12.69 16.92 19.07 3.53 4.05 6.12 9.1 10.85 11.94 5.48 3.2 8.5 9 13.15 13.14 9.12 8.65 20.24 16.39 33.05 17.76-7.3-10.65-15.47-20.76-21.69-32.13-4.23-7.63-7.29-15.85-9.85-24.18 5.92 3.97 11.13 8.86 16.64 13.36 6.92 5.7 13.67 11.61 19.89 18.07-6.24-12.82-13.37-25.27-17.81-38.88 3.55 3.42 6.36 7.48 9.45 11.31 10.72 12.57 22.17 24.75 35.74 34.28-4.05-10.58-10.85-19.77-16.65-29.41-6.54-9.71-12.29-19.97-17.17-30.61 13.15 11.03 24.33 24.16 35.73 36.93 5.67 6.34 9.87 13.77 14.63 20.77-1.17-7.77-4.06-15.11-6.69-22.46-2.39-7.53-5.95-14.58-9.71-21.49 6.74 5.67 11.5 13.23 17.42 19.7 6.12 7.17 13.09 13.53 19.65 20.29 4.88 4.93 9.93 10.19 16.8 12.2-6.82-14.51-11.82-29.84-15.13-45.52 3.45 3.76 6.86 7.55 10.39 11.23 9.68 10.52 21.25 19.04 33.11 26.92 7.31 4.81 14.52 9.85 22.32 13.86-6.02-8.36-12.51-16.38-18.35-24.88-5.62-8.23-12.04-15.85-18.63-23.31 10.21 6.95 19.81 14.76 29.45 22.48 6.9 5.14 13.44 10.74 19.93 16.38-1.77-6.58-3.95-13.11-7.22-19.11-2.42-4.49-5.55-8.54-8.22-12.87 7.25 4.63 13.79 10.39 18.85 17.38 3.68 4.71 6.44 10.1 10.43 14.58-2.23-8.5-5.86-16.56-8.1-25.06-2.16-8.5-4.46-17.14-3.97-25.99 6.55 12.9 15.29 24.5 24.02 35.99 8.12 11.7 18.9 22.13 32.33 27.4-5.27-15.03-8.5-30.69-14.12-45.6-2.3-6.45-3.88-13.16-4.11-20.02.91.07 2.74.19 3.65.26 2.35 7.39 6.37 14.08 11.06 20.21 3.71 4.77 6.28 10.3 10.03 15.02 1.01 1.5 2.88 1.65 4.52 1.9-2.57-11.38-9.86-21.68-9.24-33.68 14.37 7.43 24.5 20.52 34.4 32.89-7.35-20.3-17.27-39.55-27.08-58.75-4.81-9.45-10.61-18.35-15.78-27.6z" fill="#56a11a"/><path d="m710.84 674.28c13.64.34 27.25 4.02 39.16 10.68v21.52c-7.09-7.1-13.64-14.84-21.79-20.78-5.57-4.15-11.88-7.17-17.37-11.42z" fill="#56a11a"/><path d="m0 677.57c3.62 4.84 7.39 9.58 10.86 14.54 5.53 7.84 11.67 15.26 16.55 23.54 2.34 3.69 4.27 7.64 6.8 11.21 3.03 4.14 8.36 5.13 12.74 7.21 13.23 6.13 26.91 11.26 39.88 17.93h-86.83v-21.63c6.5 5.29 11.62 12.05 18.29 17.14-1.05-5.4-4.84-9.51-7.79-13.94-3.59-5.29-7.27-10.52-10.5-16.03v-12.73c1.69 1.13 3.46 2.14 5.22 3.16-1.41-5.68-3.32-11.22-5.22-16.75z" fill="#56a11a"/><path d="m35.01 692.97c3.62.99 6.8 3.01 9.87 5.12 24.18 15.58 46.63 33.8 67.18 53.91h-23.6c-7.15-7.31-14.62-14.31-21.63-21.76-11.34-11.78-21.74-24.42-31.82-37.27z" fill="#56a11a"/><path d="m734.4 703.38c5.66 3.81 10.36 8.82 15.6 13.17v10.78c-5.44-7.81-11.94-15.05-15.6-23.95z" fill="#56a11a"/></svg>