<?xml version="1.0" encoding="UTF-8" ?>
<!DOCTYPE svg PUBLIC "-//W3C//DTD SVG 1.1//EN" "http://www.w3.org/Graphics/SVG/1.1/DTD/svg11.dtd">
<svg width="219pt" height="321pt" viewBox="0 0 219 321" version="1.1" xmlns="http://www.w3.org/2000/svg">
<g id="#020202fd">
<path fill="#020202" opacity="1.00" d=" M 58.59 0.00 L 66.35 0.00 C 75.69 1.95 84.46 7.45 88.96 16.06 C 96.19 29.10 91.82 47.18 79.17 55.20 C 71.64 60.61 61.88 60.98 53.10 59.13 C 49.41 65.62 42.32 70.00 40.60 77.57 C 39.69 81.24 39.69 85.10 40.23 88.82 C 41.44 96.35 46.90 102.37 48.02 109.93 C 49.38 118.45 48.09 127.10 47.19 135.60 C 50.33 137.24 53.32 139.13 56.16 141.23 C 55.08 126.17 58.27 110.53 67.06 98.06 C 78.64 80.94 98.82 71.05 119.10 69.30 C 157.57 66.11 196.79 89.19 212.50 124.48 C 215.91 131.81 217.58 139.76 219.00 147.67 L 219.00 160.36 C 215.66 187.10 196.84 210.49 172.55 221.49 C 168.48 222.92 167.00 227.35 163.56 229.65 C 167.08 234.02 170.26 238.86 171.53 244.40 C 172.52 247.57 172.28 251.64 175.53 253.51 C 179.26 256.18 182.26 260.23 182.19 265.00 C 182.84 271.37 178.74 277.74 172.67 279.77 C 167.52 281.91 161.36 280.39 157.35 276.65 C 154.89 274.27 153.73 270.96 152.41 267.88 C 148.95 277.53 142.92 286.66 133.91 291.91 C 127.81 295.74 120.66 297.35 113.60 298.26 C 113.54 300.15 113.49 302.04 113.45 303.93 C 116.69 305.75 120.95 307.81 121.02 312.11 C 121.57 316.02 118.57 319.04 115.58 321.00 L 110.47 321.00 C 107.33 319.16 104.35 316.05 104.95 312.10 C 104.82 308.47 108.27 306.59 110.80 304.75 C 113.06 303.38 111.61 300.26 111.96 298.10 C 104.86 297.94 97.54 298.61 90.71 296.24 C 74.16 291.06 60.54 279.58 48.72 267.28 C 41.25 260.06 34.89 251.82 28.05 244.02 C 22.67 247.30 15.93 249.85 9.75 247.20 C 3.92 244.58 1.53 238.15 0.00 232.40 L 0.00 221.71 C 1.69 214.71 3.64 207.65 7.44 201.45 C 12.16 193.40 19.16 185.84 28.53 183.54 C 34.62 181.85 41.45 185.13 44.27 190.71 C 48.38 197.73 46.94 206.13 46.80 213.85 C 48.81 214.23 50.82 214.62 52.84 214.99 C 55.87 209.39 59.55 204.18 63.03 198.86 C 56.04 189.62 49.65 179.66 46.58 168.37 C 42.18 168.10 37.64 167.61 33.88 165.09 C 31.29 163.19 27.93 163.95 25.06 162.90 C 22.37 161.14 20.66 158.31 18.54 155.97 C 14.24 157.12 12.32 161.33 9.59 164.40 C 10.57 160.08 13.67 154.63 18.76 155.03 C 21.64 156.39 22.97 159.69 25.54 161.53 C 26.96 161.98 28.45 162.16 29.92 162.42 C 26.63 156.36 25.20 148.44 29.48 142.48 C 32.90 136.89 39.70 135.36 45.77 134.93 C 46.98 127.38 47.43 119.70 46.89 112.06 C 46.47 106.50 43.63 101.61 41.29 96.68 C 37.94 89.72 37.34 81.37 40.22 74.14 C 42.58 68.01 48.87 64.56 51.33 58.46 C 44.76 55.14 38.57 50.45 35.46 43.58 C 29.79 32.65 31.94 18.35 40.60 9.60 C 45.26 4.36 51.90 1.58 58.59 0.00 M 55.35 2.39 C 43.14 5.40 33.45 17.26 33.84 29.99 C 33.25 43.42 43.72 56.03 56.89 58.36 C 67.89 60.83 80.04 55.58 86.21 46.22 C 91.60 38.40 92.63 27.83 88.86 19.11 C 83.72 6.30 68.70 -1.20 55.35 2.39 M 67.65 99.66 C 59.43 112.06 55.68 127.78 58.48 142.45 C 59.26 136.13 60.16 129.80 61.74 123.62 C 64.71 111.73 69.39 99.21 79.48 91.54 C 90.58 83.71 104.92 82.99 118.01 84.32 C 121.85 77.57 128.35 72.28 136.23 71.30 C 110.66 67.38 82.15 77.59 67.65 99.66 M 142.00 71.81 C 144.39 73.82 147.29 75.75 148.08 78.98 C 149.21 82.06 148.34 85.32 147.89 88.43 C 151.40 85.25 155.10 81.89 159.85 80.77 C 162.66 79.84 165.58 80.60 168.42 80.88 C 160.21 76.40 151.15 73.58 142.00 71.81 M 117.86 94.96 C 118.20 98.25 120.78 100.56 123.51 102.07 C 126.04 98.69 130.28 95.79 134.65 97.33 C 136.21 97.63 138.12 99.55 139.50 97.85 C 143.91 93.85 147.56 88.17 147.11 81.99 C 147.24 77.80 143.91 73.93 139.88 73.06 C 128.05 71.32 116.20 83.14 117.86 94.96 M 148.60 89.88 C 150.64 89.55 153.15 88.16 154.77 90.20 C 157.90 93.75 154.05 99.10 150.32 100.36 C 147.87 101.58 145.98 99.14 144.27 97.79 C 143.06 102.74 142.22 108.31 145.12 112.87 C 147.68 117.57 153.98 118.69 158.63 116.67 C 167.83 112.85 174.23 102.94 174.01 92.99 C 173.92 87.59 169.87 81.64 164.01 81.83 C 157.80 81.43 152.65 85.69 148.60 89.88 M 169.85 81.65 C 172.17 84.37 174.88 87.21 175.12 90.99 C 176.23 97.79 173.47 104.35 169.86 109.95 C 175.75 115.08 181.61 120.39 186.25 126.72 C 192.79 135.47 196.62 146.67 194.57 157.62 C 191.56 173.58 181.28 186.84 170.61 198.57 C 165.18 204.76 158.65 209.82 152.89 215.67 C 157.43 217.84 161.83 220.27 166.24 222.68 C 188.95 214.24 207.95 195.35 215.06 172.01 C 219.93 156.26 217.68 138.94 210.82 124.12 C 202.39 105.94 187.63 90.82 169.85 81.65 M 99.00 85.79 C 92.29 86.86 85.46 88.76 79.97 92.93 C 76.02 95.79 73.18 99.83 70.63 103.92 C 73.92 101.97 77.76 100.07 81.67 101.33 C 84.22 102.21 87.40 103.16 88.41 105.95 C 85.03 104.56 81.85 102.03 77.99 102.53 C 69.82 103.18 64.39 112.99 67.71 120.35 C 69.37 123.93 72.91 126.24 76.58 127.40 C 90.59 131.73 104.85 135.17 119.08 138.68 C 122.11 131.00 124.93 123.25 127.84 115.53 C 123.37 113.29 121.80 107.99 122.94 103.35 C 116.20 100.53 114.68 92.17 117.34 85.97 C 111.32 84.69 105.05 84.70 99.00 85.79 M 148.51 92.94 C 147.39 93.34 146.82 95.34 148.21 95.79 C 150.24 96.20 150.96 92.09 148.51 92.94 M 143.19 96.55 C 143.92 96.17 143.92 96.17 143.19 96.55 M 139.30 99.71 C 140.11 101.02 140.91 102.34 141.72 103.65 C 142.12 101.27 142.70 98.91 143.19 96.55 C 141.88 97.58 140.60 98.66 139.30 99.71 M 128.46 99.35 C 122.47 102.16 122.52 111.69 128.65 114.27 C 134.59 117.65 142.46 111.15 140.37 104.70 C 139.31 99.57 132.98 96.97 128.46 99.35 M 129.14 116.14 C 126.36 123.75 123.40 131.29 120.63 138.90 C 140.11 143.69 159.80 147.77 178.86 154.14 C 174.36 166.65 168.22 179.12 157.95 187.89 C 149.94 194.97 138.91 198.95 128.22 197.53 C 113.32 195.74 100.44 186.06 91.78 174.20 C 81.83 160.97 76.85 144.72 74.99 128.44 C 69.96 126.56 65.93 122.27 65.17 116.84 C 62.19 125.77 60.71 135.12 59.61 144.45 C 59.31 146.83 58.74 149.27 59.34 151.66 C 61.61 162.60 65.63 173.18 71.17 182.89 C 73.98 183.03 76.69 183.76 79.36 184.62 C 104.48 191.99 128.41 202.86 151.62 214.86 C 165.31 202.40 179.15 189.36 187.80 172.72 C 192.36 163.79 195.36 153.33 192.72 143.36 C 189.30 129.91 179.24 119.34 168.60 111.03 C 164.14 116.42 156.71 120.81 149.60 118.37 C 145.55 117.12 143.39 113.26 141.96 109.56 C 139.86 114.53 134.52 117.80 129.14 116.14 M 76.80 128.99 C 78.08 145.19 83.59 161.45 93.78 174.24 C 107.71 164.17 127.71 163.52 142.14 172.90 C 148.05 176.50 152.40 182.31 154.43 188.91 C 165.53 180.56 172.35 167.90 176.96 155.08 C 158.25 148.83 138.90 144.83 119.75 140.24 C 105.32 136.91 90.99 133.18 76.80 128.99 M 39.27 137.21 C 34.22 138.52 30.02 142.52 28.64 147.58 C 25.67 156.24 32.94 166.23 41.99 166.53 C 51.76 167.55 60.44 157.00 57.26 147.66 C 55.36 139.99 46.84 135.27 39.27 137.21 M 58.70 156.01 C 57.11 161.32 52.94 165.40 47.84 167.40 C 50.62 178.54 56.80 188.56 63.90 197.45 C 66.16 194.32 68.98 191.50 70.75 188.06 C 70.54 183.32 67.49 179.53 65.68 175.33 C 62.70 169.14 60.73 162.55 58.70 156.01 M 94.68 175.32 C 100.86 183.94 109.88 190.57 119.85 194.17 C 130.86 198.07 143.65 196.55 153.24 189.78 C 151.76 184.60 148.77 179.84 144.58 176.44 C 130.69 165.06 109.15 164.90 94.68 175.32 M 27.31 185.31 C 17.99 188.43 11.46 196.58 7.07 205.02 C 2.47 214.32 -0.15 225.19 2.43 235.45 C 3.76 240.71 7.56 245.81 13.14 246.87 C 20.05 247.91 26.43 243.78 31.24 239.26 C 39.66 230.66 44.87 219.03 45.96 207.06 C 46.38 200.50 45.29 193.28 40.74 188.24 C 37.37 184.58 31.89 183.97 27.31 185.31 M 71.65 184.70 C 71.43 187.61 74.41 188.54 76.53 189.53 C 82.11 191.85 87.59 194.40 93.11 196.86 C 96.01 198.33 99.39 197.65 102.41 198.61 C 105.51 200.00 107.18 203.35 110.32 204.69 C 126.45 212.05 142.61 219.35 159.11 225.85 C 161.67 227.02 164.70 227.81 167.13 225.87 C 166.01 224.65 164.86 223.41 163.36 222.66 C 135.61 207.79 107.04 193.94 76.66 185.32 C 75.02 184.90 73.33 184.81 71.65 184.70 M 72.12 189.07 C 69.20 192.69 66.40 196.41 63.80 200.26 C 69.49 196.77 75.81 194.60 82.43 193.74 C 79.09 191.98 75.57 190.60 72.12 189.07 M 58.35 208.39 C 51.30 218.10 49.82 231.53 54.43 242.58 C 57.43 250.00 63.42 255.81 70.40 259.54 C 71.66 254.74 73.38 250.06 75.80 245.72 C 66.54 241.60 58.26 232.66 58.72 221.98 C 58.57 216.36 61.60 211.34 65.13 207.22 C 76.73 212.90 88.49 218.25 100.12 223.86 C 103.84 226.12 108.42 224.06 112.33 225.74 C 118.33 227.47 122.69 232.53 124.72 238.27 C 126.69 231.79 125.69 224.93 124.49 218.41 C 123.93 215.98 123.42 213.33 121.68 211.45 C 117.54 209.42 113.29 207.65 109.12 205.69 C 109.39 209.82 108.45 214.34 104.88 216.89 C 99.01 222.04 88.41 217.87 87.85 210.02 C 86.94 205.32 89.81 200.96 93.67 198.57 C 90.25 197.20 86.91 195.00 83.06 195.56 C 73.33 195.52 63.99 200.53 58.35 208.39 M 92.74 201.29 C 97.75 203.69 102.63 206.39 107.77 208.50 C 107.73 201.24 98.35 196.07 92.74 201.29 M 90.57 202.11 C 90.78 202.48 91.20 203.23 91.41 203.60 C 96.65 206.40 101.92 209.38 107.55 211.33 C 106.25 209.18 103.80 208.37 101.69 207.28 C 97.99 205.54 94.44 203.44 90.57 202.11 M 89.87 204.69 C 87.87 208.77 89.57 214.25 93.68 216.27 C 94.47 214.06 94.89 211.75 95.59 209.51 C 96.68 208.26 98.23 209.60 99.45 209.85 C 98.50 212.59 96.31 214.62 94.97 217.16 C 99.07 218.81 104.21 217.02 106.25 213.07 C 101.14 209.70 95.33 207.46 89.87 204.69 M 65.30 209.00 C 61.78 213.79 58.91 219.73 60.30 225.82 C 61.92 234.35 68.73 240.79 76.26 244.48 C 82.24 236.07 90.01 228.24 100.30 225.58 C 88.70 219.93 76.98 214.50 65.30 209.00 M 124.39 212.65 C 127.25 221.46 127.90 230.97 126.09 240.06 C 125.57 245.69 126.72 251.48 124.99 256.99 C 121.17 271.61 110.26 285.33 95.24 289.27 C 87.12 291.68 77.42 288.33 73.24 280.79 C 69.45 274.92 69.81 267.76 70.05 261.08 C 61.52 256.40 54.30 248.84 51.76 239.27 C 49.31 231.71 50.40 223.74 52.27 216.20 C 50.30 215.89 48.33 215.54 46.36 215.18 C 43.14 225.73 37.77 235.78 29.32 243.07 C 38.60 254.90 48.72 266.08 59.86 276.19 C 70.10 285.01 81.71 293.01 95.12 295.92 C 108.21 298.29 122.68 297.41 134.15 290.11 C 144.66 283.53 150.46 271.71 153.48 260.07 C 149.23 255.05 143.09 251.72 139.70 246.02 C 145.25 249.45 149.56 254.49 154.32 258.90 C 157.78 253.04 164.66 250.14 171.32 251.14 C 170.99 242.37 166.21 234.59 160.71 228.11 C 148.58 223.05 136.38 218.07 124.39 212.65 M 103.41 226.48 C 89.56 228.78 78.96 240.39 73.96 252.98 C 70.69 261.46 69.67 271.52 74.26 279.72 C 76.90 284.78 82.35 288.08 88.00 288.44 C 95.63 289.01 102.90 285.44 108.65 280.69 C 118.14 272.58 124.36 260.53 124.82 247.99 C 124.73 241.52 122.83 234.57 117.72 230.25 C 113.78 227.07 108.41 225.60 103.41 226.48 M 163.30 253.22 C 159.32 254.55 156.04 257.77 154.85 261.83 C 152.71 267.46 155.49 274.36 160.63 277.35 C 165.56 280.42 172.48 279.68 176.73 275.74 C 180.54 272.06 182.27 266.00 180.01 261.05 C 177.67 254.49 169.83 251.00 163.30 253.22 M 111.36 306.24 C 107.68 307.24 104.96 311.66 106.75 315.28 C 108.34 320.51 116.66 320.86 118.87 315.94 C 121.82 311.22 116.62 304.63 111.36 306.24 Z" />
<path fill="#020202" opacity="1.00" d=" M 135.69 83.61 C 138.81 85.40 141.01 88.42 143.06 91.31 C 139.65 90.14 137.02 86.88 135.69 83.61 Z" />
<path fill="#020202" opacity="1.00" d=" M 131.60 88.80 C 134.48 90.49 138.99 90.72 140.38 94.06 C 137.44 92.52 132.83 92.27 131.60 88.80 Z" />
<path fill="#020202" opacity="1.00" d=" M 93.59 93.75 C 98.16 95.06 101.21 99.26 105.10 101.86 C 108.43 105.09 113.18 107.15 115.37 111.36 C 110.92 109.16 107.52 105.36 103.54 102.46 C 100.22 99.56 96.31 97.28 93.59 93.75 Z" />
<path fill="#020202" opacity="1.00" d=" M 88.65 104.06 C 95.44 107.35 102.28 110.62 108.84 114.35 C 109.03 114.77 109.40 115.61 109.58 116.03 C 102.74 112.72 95.88 109.39 89.26 105.68 C 89.11 105.28 88.80 104.46 88.65 104.06 Z" />
<path fill="#020202" opacity="1.00" d=" M 83.49 113.82 C 90.16 115.38 96.55 117.92 103.10 119.90 C 105.62 120.80 108.45 121.19 110.49 123.07 C 103.35 122.37 96.78 118.97 89.87 117.14 C 87.76 116.12 84.44 116.33 83.49 113.82 Z" />
<path fill="#020202" opacity="1.00" d=" M 148.24 121.25 C 157.93 122.51 167.66 123.46 177.36 124.63 C 178.82 124.98 180.71 124.75 181.67 126.18 C 170.38 125.79 159.22 123.66 147.95 122.80 C 148.03 122.41 148.17 121.64 148.24 121.25 Z" />
<path fill="#020202" opacity="1.00" d=" M 147.75 127.20 C 156.48 129.17 164.98 132.05 173.64 134.31 C 175.45 134.98 177.98 134.86 178.58 137.13 C 168.51 134.42 158.47 131.59 148.49 128.60 C 148.30 128.25 147.93 127.55 147.75 127.20 Z" />
<path fill="#020202" opacity="1.00" d=" M 146.75 133.87 C 153.34 136.41 159.30 140.31 165.66 143.34 C 167.72 144.64 170.78 145.19 171.50 147.86 C 165.11 144.91 159.01 141.38 152.71 138.24 C 150.59 137.00 147.86 136.30 146.75 133.87 Z" />
</g>
<g id="#fff100ff">
<path fill="#fff100" opacity="1.00" d=" M 55.35 2.39 C 68.70 -1.20 83.72 6.30 88.86 19.11 C 92.63 27.83 91.60 38.40 86.21 46.22 C 80.04 55.58 67.89 60.83 56.89 58.36 C 43.72 56.03 33.25 43.42 33.84 29.99 C 33.45 17.26 43.14 5.40 55.35 2.39 Z" />
<path fill="#fff100" opacity="1.00" d=" M 92.74 201.29 C 98.35 196.07 107.73 201.24 107.77 208.50 C 102.63 206.39 97.75 203.69 92.74 201.29 Z" />
<path fill="#fff100" opacity="1.00" d=" M 90.57 202.11 C 94.44 203.44 97.99 205.54 101.69 207.28 C 103.80 208.37 106.25 209.18 107.55 211.33 C 101.92 209.38 96.65 206.40 91.41 203.60 C 91.20 203.23 90.78 202.48 90.57 202.11 Z" />
<path fill="#fff100" opacity="1.00" d=" M 89.87 204.69 C 95.33 207.46 101.14 209.70 106.25 213.07 C 104.21 217.02 99.07 218.81 94.97 217.16 C 96.31 214.62 98.50 212.59 99.45 209.85 C 98.23 209.60 96.68 208.26 95.59 209.51 C 94.89 211.75 94.47 214.06 93.68 216.27 C 89.57 214.25 87.87 208.77 89.87 204.69 Z" />
</g>
<g id="#00a0e9ff">
<path fill="#00a0e9" opacity="1.00" d=" M 67.65 99.66 C 82.15 77.59 110.66 67.38 136.23 71.30 C 128.35 72.28 121.85 77.57 118.01 84.32 C 104.92 82.99 90.58 83.71 79.48 91.54 C 69.39 99.21 64.71 111.73 61.74 123.62 C 60.16 129.80 59.26 136.13 58.48 142.45 C 55.68 127.78 59.43 112.06 67.65 99.66 Z" />
<path fill="#00a0e9" opacity="1.00" d=" M 142.00 71.81 C 151.15 73.58 160.21 76.40 168.42 80.88 C 165.58 80.60 162.66 79.84 159.85 80.77 C 155.10 81.89 151.40 85.25 147.89 88.43 C 148.34 85.32 149.21 82.06 148.08 78.98 C 147.29 75.75 144.39 73.82 142.00 71.81 Z" />
<path fill="#00a0e9" opacity="1.00" d=" M 169.85 81.65 C 187.63 90.82 202.39 105.94 210.82 124.12 C 217.68 138.94 219.93 156.26 215.06 172.01 C 207.95 195.35 188.95 214.24 166.24 222.68 C 161.83 220.27 157.43 217.84 152.89 215.67 C 158.65 209.82 165.18 204.76 170.61 198.57 C 181.28 186.84 191.56 173.58 194.57 157.62 C 196.62 146.67 192.79 135.47 186.25 126.72 C 181.61 120.39 175.75 115.08 169.86 109.95 C 173.47 104.35 176.23 97.79 175.12 90.99 C 174.88 87.21 172.17 84.37 169.85 81.65 Z" />
<path fill="#00a0e9" opacity="1.00" d=" M 58.70 156.01 C 60.73 162.55 62.70 169.14 65.68 175.33 C 67.49 179.53 70.54 183.32 70.75 188.06 C 68.98 191.50 66.16 194.32 63.90 197.45 C 56.80 188.56 50.62 178.54 47.84 167.40 C 52.94 165.40 57.11 161.32 58.70 156.01 Z" />
<path fill="#00a0e9" opacity="1.00" d=" M 72.12 189.07 C 75.57 190.60 79.09 191.98 82.43 193.74 C 75.81 194.60 69.49 196.77 63.80 200.26 C 66.40 196.41 69.20 192.69 72.12 189.07 Z" />
<path fill="#00a0e9" opacity="1.00" d=" M 124.39 212.65 C 136.38 218.07 148.58 223.05 160.71 228.11 C 166.21 234.59 170.99 242.37 171.32 251.14 C 164.66 250.14 157.78 253.04 154.32 258.90 C 149.56 254.49 145.25 249.45 139.70 246.02 C 143.09 251.72 149.23 255.05 153.48 260.07 C 150.46 271.71 144.66 283.53 134.15 290.11 C 122.68 297.41 108.21 298.29 95.12 295.92 C 81.71 293.01 70.10 285.01 59.86 276.19 C 48.72 266.08 38.60 254.90 29.32 243.07 C 37.77 235.78 43.14 225.73 46.36 215.18 C 48.33 215.54 50.30 215.89 52.27 216.20 C 50.40 223.74 49.31 231.71 51.76 239.27 C 54.30 248.84 61.52 256.40 70.05 261.08 C 69.81 267.76 69.45 274.92 73.24 280.79 C 77.42 288.33 87.12 291.68 95.24 289.27 C 110.26 285.33 121.17 271.61 124.99 256.99 C 126.72 251.48 125.57 245.69 126.09 240.06 C 127.90 230.97 127.25 221.46 124.39 212.65 Z" />
</g>
<g id="#ffffffff">
<path fill="#ffffff" opacity="1.00" d=" M 117.86 94.96 C 116.20 83.14 128.05 71.32 139.88 73.06 C 143.91 73.93 147.24 77.80 147.11 81.99 C 147.56 88.17 143.91 93.85 139.50 97.85 C 138.12 99.55 136.21 97.63 134.65 97.33 C 130.28 95.79 126.04 98.69 123.51 102.07 C 120.78 100.56 118.20 98.25 117.86 94.96 M 135.69 83.61 C 137.02 86.88 139.65 90.14 143.06 91.31 C 141.01 88.42 138.81 85.40 135.69 83.61 M 131.60 88.80 C 132.83 92.27 137.44 92.52 140.38 94.06 C 138.99 90.72 134.48 90.49 131.60 88.80 Z" />
<path fill="#ffffff" opacity="1.00" d=" M 148.60 89.88 C 152.65 85.69 157.80 81.43 164.01 81.83 C 169.87 81.64 173.92 87.59 174.01 92.99 C 174.23 102.94 167.83 112.85 158.63 116.67 C 153.98 118.69 147.68 117.57 145.12 112.87 C 142.22 108.31 143.06 102.74 144.27 97.79 C 145.98 99.14 147.87 101.58 150.32 100.36 C 154.05 99.10 157.90 93.75 154.77 90.20 C 153.15 88.16 150.64 89.55 148.60 89.88 Z" />
<path fill="#ffffff" opacity="1.00" d=" M 99.00 85.79 C 105.05 84.70 111.32 84.69 117.34 85.97 C 114.68 92.17 116.20 100.53 122.94 103.35 C 121.80 107.99 123.37 113.29 127.84 115.53 C 124.93 123.25 122.11 131.00 119.08 138.68 C 104.85 135.17 90.59 131.73 76.58 127.40 C 72.91 126.24 69.37 123.93 67.71 120.35 C 64.39 112.99 69.82 103.18 77.99 102.53 C 81.85 102.03 85.03 104.56 88.41 105.95 C 87.40 103.16 84.22 102.21 81.67 101.33 C 77.76 100.07 73.92 101.97 70.63 103.92 C 73.18 99.83 76.02 95.79 79.97 92.93 C 85.46 88.76 92.29 86.86 99.00 85.79 M 93.59 93.75 C 96.31 97.28 100.22 99.56 103.54 102.46 C 107.52 105.36 110.92 109.16 115.37 111.36 C 113.18 107.15 108.43 105.09 105.10 101.86 C 101.21 99.26 98.16 95.06 93.59 93.75 M 88.65 104.06 C 88.80 104.46 89.11 105.28 89.26 105.68 C 95.88 109.39 102.74 112.72 109.58 116.03 C 109.40 115.61 109.03 114.77 108.84 114.35 C 102.28 110.62 95.44 107.35 88.65 104.06 M 83.49 113.82 C 84.44 116.33 87.76 116.12 89.87 117.14 C 96.78 118.97 103.35 122.37 110.49 123.07 C 108.45 121.19 105.62 120.80 103.10 119.90 C 96.55 117.92 90.16 115.38 83.49 113.82 Z" />
<path fill="#ffffff" opacity="1.00" d=" M 148.51 92.94 C 150.96 92.09 150.24 96.20 148.21 95.79 C 146.82 95.34 147.39 93.34 148.51 92.94 Z" />
<path fill="#ffffff" opacity="1.00" d=" M 143.19 96.55 C 143.92 96.17 143.92 96.17 143.19 96.55 Z" />
<path fill="#ffffff" opacity="1.00" d=" M 139.30 99.71 C 140.60 98.66 141.88 97.58 143.19 96.55 C 142.70 98.91 142.12 101.27 141.72 103.65 C 140.91 102.34 140.11 101.02 139.30 99.71 Z" />
<path fill="#ffffff" opacity="1.00" d=" M 130.29 100.82 C 132.15 100.59 134.83 101.45 133.97 103.84 C 132.83 106.28 129.85 105.17 128.98 103.14 C 129.31 102.56 129.96 101.40 130.29 100.82 Z" />
<path fill="#ffffff" opacity="1.00" d=" M 129.14 116.14 C 134.52 117.80 139.86 114.53 141.96 109.56 C 143.39 113.26 145.55 117.12 149.60 118.37 C 156.71 120.81 164.14 116.42 168.60 111.03 C 179.24 119.34 189.30 129.91 192.72 143.36 C 195.36 153.33 192.36 163.79 187.80 172.72 C 179.15 189.36 165.31 202.40 151.62 214.86 C 128.41 202.86 104.48 191.99 79.36 184.62 C 76.69 183.76 73.98 183.03 71.17 182.89 C 65.63 173.18 61.61 162.60 59.34 151.66 C 58.74 149.27 59.31 146.83 59.61 144.45 C 60.71 135.12 62.19 125.77 65.17 116.84 C 65.93 122.27 69.96 126.56 74.99 128.44 C 76.85 144.72 81.83 160.97 91.78 174.20 C 100.44 186.06 113.32 195.74 128.22 197.53 C 138.91 198.95 149.94 194.97 157.95 187.89 C 168.22 179.12 174.36 166.65 178.86 154.14 C 159.80 147.77 140.11 143.69 120.63 138.90 C 123.40 131.29 126.36 123.75 129.14 116.14 M 148.24 121.25 C 148.17 121.64 148.03 122.41 147.95 122.80 C 159.22 123.66 170.38 125.79 181.67 126.18 C 180.71 124.75 178.82 124.98 177.36 124.63 C 167.66 123.46 157.93 122.51 148.24 121.25 M 147.75 127.20 C 147.93 127.55 148.30 128.25 148.49 128.60 C 158.47 131.59 168.51 134.42 178.58 137.13 C 177.98 134.86 175.45 134.98 173.64 134.31 C 164.98 132.05 156.48 129.17 147.75 127.20 M 146.75 133.87 C 147.86 136.30 150.59 137.00 152.71 138.24 C 159.01 141.38 165.11 144.91 171.50 147.86 C 170.78 145.19 167.72 144.64 165.66 143.34 C 159.30 140.31 153.34 136.41 146.75 133.87 Z" />
<path fill="#ffffff" opacity="1.00" d=" M 39.27 137.21 C 46.84 135.27 55.36 139.99 57.26 147.66 C 60.44 157.00 51.76 167.55 41.99 166.53 C 32.94 166.23 25.67 156.24 28.64 147.58 C 30.02 142.52 34.22 138.52 39.27 137.21 Z" />
<path fill="#ffffff" opacity="1.00" d=" M 27.31 185.31 C 31.89 183.97 37.37 184.58 40.74 188.24 C 45.29 193.28 46.38 200.50 45.96 207.06 C 44.87 219.03 39.66 230.66 31.24 239.26 C 26.43 243.78 20.05 247.91 13.14 246.87 C 7.56 245.81 3.76 240.71 2.43 235.45 C -0.15 225.19 2.47 214.32 7.07 205.02 C 11.46 196.58 17.99 188.43 27.31 185.31 Z" />
<path fill="#ffffff" opacity="1.00" d=" M 58.35 208.39 C 63.99 200.53 73.33 195.52 83.06 195.56 C 86.91 195.00 90.25 197.20 93.67 198.57 C 89.81 200.96 86.94 205.32 87.85 210.02 C 88.41 217.87 99.01 222.04 104.88 216.89 C 108.45 214.34 109.39 209.82 109.12 205.69 C 113.29 207.65 117.54 209.42 121.68 211.45 C 123.42 213.33 123.93 215.98 124.49 218.41 C 125.69 224.93 126.69 231.79 124.72 238.27 C 122.69 232.53 118.33 227.47 112.33 225.74 C 108.42 224.06 103.84 226.12 100.12 223.86 C 88.49 218.25 76.73 212.90 65.13 207.22 C 61.60 211.34 58.57 216.36 58.72 221.98 C 58.26 232.66 66.54 241.60 75.80 245.72 C 73.38 250.06 71.66 254.74 70.40 259.54 C 63.42 255.81 57.43 250.00 54.43 242.58 C 49.82 231.53 51.30 218.10 58.35 208.39 Z" />
<path fill="#ffffff" opacity="1.00" d=" M 65.30 209.00 C 76.98 214.50 88.70 219.93 100.30 225.58 C 90.01 228.24 82.24 236.07 76.26 244.48 C 68.73 240.79 61.92 234.35 60.30 225.82 C 58.91 219.73 61.78 213.79 65.30 209.00 Z" />
<path fill="#ffffff" opacity="1.00" d=" M 103.41 226.48 C 108.41 225.60 113.78 227.07 117.72 230.25 C 122.83 234.57 124.73 241.52 124.82 247.99 C 124.36 260.53 118.14 272.58 108.65 280.69 C 102.90 285.44 95.63 289.01 88.00 288.44 C 82.35 288.08 76.90 284.78 74.26 279.72 C 69.67 271.52 70.69 261.46 73.96 252.98 C 78.96 240.39 89.56 228.78 103.41 226.48 Z" />
<path fill="#ffffff" opacity="1.00" d=" M 163.30 253.22 C 169.83 251.00 177.67 254.49 180.01 261.05 C 182.27 266.00 180.54 272.06 176.73 275.74 C 172.48 279.68 165.56 280.42 160.63 277.35 C 155.49 274.36 152.71 267.46 154.85 261.83 C 156.04 257.77 159.32 254.55 163.30 253.22 Z" />
</g>
<g id="#e60012ff">
<path fill="#e60012" opacity="1.00" d=" M 128.46 99.35 C 132.98 96.97 139.31 99.57 140.37 104.70 C 142.46 111.15 134.59 117.65 128.65 114.27 C 122.52 111.69 122.47 102.16 128.46 99.35 M 130.29 100.82 C 129.96 101.40 129.31 102.56 128.98 103.14 C 129.85 105.17 132.83 106.28 133.97 103.84 C 134.83 101.45 132.15 100.59 130.29 100.82 Z" />
<path fill="#e60012" opacity="1.00" d=" M 76.80 128.99 C 90.99 133.18 105.32 136.91 119.75 140.24 C 138.90 144.83 158.25 148.83 176.96 155.08 C 172.35 167.90 165.53 180.56 154.43 188.91 C 152.40 182.31 148.05 176.50 142.14 172.90 C 127.71 163.52 107.71 164.17 93.78 174.24 C 83.59 161.45 78.08 145.19 76.80 128.99 Z" />
<path fill="#e60012" opacity="1.00" d=" M 71.65 184.70 C 73.33 184.81 75.02 184.90 76.66 185.32 C 107.04 193.94 135.61 207.79 163.36 222.66 C 164.86 223.41 166.01 224.65 167.13 225.87 C 164.70 227.81 161.67 227.02 159.11 225.85 C 142.61 219.35 126.45 212.05 110.32 204.69 C 107.18 203.35 105.51 200.00 102.41 198.61 C 99.39 197.65 96.01 198.33 93.11 196.86 C 87.59 194.40 82.11 191.85 76.53 189.53 C 74.41 188.54 71.43 187.61 71.65 184.70 Z" />
<path fill="#e60012" opacity="1.00" d=" M 111.36 306.24 C 116.62 304.63 121.82 311.22 118.87 315.94 C 116.66 320.86 108.34 320.51 106.75 315.28 C 104.96 311.66 107.68 307.24 111.36 306.24 Z" />
</g>
<g id="#f08200ff">
<path fill="#f08200" opacity="1.00" d=" M 94.68 175.32 C 109.15 164.90 130.69 165.06 144.58 176.44 C 148.77 179.84 151.76 184.60 153.24 189.78 C 143.65 196.55 130.86 198.07 119.85 194.17 C 109.88 190.57 100.86 183.94 94.68 175.32 Z" />
</g>
</svg>
