<svg height="333pt" viewBox="0 0 234 333" width="234pt" xmlns="http://www.w3.org/2000/svg"><path d="m8.5 6.79c.34-3.42 3.09-6.32 6.59-6.44 6.13-.43 12.4.32 18.19 2.42-.95.04-2.84.13-3.78.18 2.69 2.02 5.99 2.94 8.77 4.82 6.35 4.16 11.9 9.59 16.14 15.9 1.27-.65 2.51-1.35 3.72-2.11-1.88-1.78-4.05-3.43-5.02-5.92.38.11 1.15.33 1.53.44 1.99 2.08 3.78 4.35 5.73 6.47-6 1.21-11.41 7.04-10.55 13.39-4.21-1.49-8.71.27-11.56 3.5-2.73-.88-3.18-3.98-4.55-6.12-5.91-10.95-15.81-18.74-25.21-26.53z" fill="#825d45"/><path d="m204.85 29.77c6.31-1.21 12.89-1.35 19.14.27 3.11.89 5.28 3.73 5.62 6.91-6.47 5.3-14.52 8.25-20.69 13.97-.58-.21-1.74-.64-2.32-.85l.04.87c-2.5-3.07-5.36-5.86-8.62-8.12-2.35-1.4-2.97-4.22-3.99-6.56l-.24-1.35c1.68 1.61 3.61-.06 5.3-.71 6.13-3.1 13.08-3.67 19.84-3.69-4.68-.51-9.38-.73-14.08-.74z" fill="#825d45"/><path d="m22.6 58.75c5.8-3.88 14.43-2.49 18.53 3.2 2.86 4.31 2.24 10 .3 14.55-3.88 7.78-13.36 10.56-21.47 10.38-6.16.07-11.73-3.06-16.15-7.12l-.08-.34c-.31-.55-.93-1.65-1.25-2.2.67-.26 1.34-.52 2.01-.79l.9-.34-.18.33c-.38.38-1.14 1.13-1.52 1.5 1.16 1.04 2.36 2.04 3.57 3.02 4.92 4.65 12.27 5.67 18.71 4.43 5.19-1.04 10.64-3.26 13.59-7.9 1.97-3.53 3.59-7.83 1.95-11.81-1.43-5.35-7.19-8.52-12.51-7.96-5.68.51-10.05 4.92-13.24 9.31-2.54 3.63-4.95 8.85-10.07 8.96.38-.3 1.12-.9 1.49-1.2.16-.27.47-.81.63-1.08l.85-.17.23-.84.86-.1.1-.7.25-1.89.45 2.49c3.69-4.82 6.56-10.61 12.05-13.73z" fill="#825d45"/><path d="m105.52 102.67c7.74-.84 15.93 2.66 20.15 9.33 3.15 4.31 3.56 9.84 3.24 14.99-1.2 7.86-7.34 14.58-14.94 16.79-4.83 1.59-10.15.83-14.77-1.1-7.39-3.4-12.72-11.46-11.95-19.72-.22-10.13 8.26-19.27 18.27-20.29m-3.18 1.73c-7.7 2.27-13.73 9.57-14.05 17.67-1.38 10.78 8.05 21.24 18.8 21.46 10.74.82 21.13-8.66 20.87-19.54.98-13-13.34-23.76-25.62-19.59z" fill="#825d45"/><path d="m77.95 5.12c10.14-5.95 22.4-2.61 32.68 1.03 9.89-3.77 21.71-6.17 31.55-1-4.1-.6-8.03-2.24-12.22-2.15-6.85-.34-13.47 1.76-19.82 4.09-6.92-3.02-14.5-5.01-22.09-4.28-3.49.19-6.73 1.54-10.1 2.31z" fill="#7e97a3"/><path d="m58.29 311.42c7.54 4.21 16.27 5.01 24.65 6.16 5.65-.53 11.69 1.15 17.03-1.21.05.38.14 1.14.19 1.52-.24.31-.71.95-.94 1.27-2.56 1.3-5.27 2.63-8.23 2.4-9.4-.12-19.05-.95-27.81-4.58-2.42-.9-4.9-2.67-4.89-5.56z" fill="#7e97a3"/><path d="m29.5 2.95c.94-.05 2.83-.14 3.78-.18 7.27 2.8 14.74 6.58 19.72 12.71l.11.16c.97 2.49 3.14 4.14 5.02 5.92-1.21.76-2.45 1.46-3.72 2.11-4.24-6.31-9.79-11.74-16.14-15.9-2.78-1.88-6.08-2.8-8.77-4.82z" fill="#9d785f"/><path d="m158.91 124.89c2.45-6.11 8.13-11.86 15.14-11.6 6.17.05 11.29 5.03 13.02 10.71 1.71 4.6.92 9.51.26 14.21-1.64 5.86-5.73 11.4-11.67 13.36-4.73.9-10.27.39-13.41-3.73-1.94-2.61-5.03-6-3.75-9.36 1.39 3.87 3.1 7.99 6.59 10.43 3.9 2.97 9.69 2.65 13.58-.18 8.95-6.33 11.22-20.35 4.79-29.2-3.09-4.37-9.23-6.35-14.21-4.26-3.68 1.59-6.39 4.72-8.58 7.97l.26 1.57c-.38 1.1-.81 2.18-1.25 3.25-1.94-.01-1.27-2.16-.77-3.17z" fill="#9d785f"/><path d="m77.95 5.12c3.37-.77 6.61-2.12 10.1-2.31 7.59-.73 15.17 1.26 22.09 4.28 6.35-2.33 12.97-4.43 19.82-4.09 4.19-.09 8.12 1.55 12.22 2.15.38.18 1.13.53 1.51.71 2.78 2.39 6.07 4.17 8.54 6.93 1.08.94 2.13 2.64 3.84 2.09 4.65-.57 9.37-.28 13.96.66 3.23.65 6.11 2.4 9.33 3.1l.38.23c2.79 2.51 5.47 5.16 8.48 7.41.14.17.42.53.56.7 1.35 3.31 3.52 6.18 5.25 9.28 1.02 2.34 1.64 5.16 3.99 6.56 3.26 2.26 6.12 5.05 8.62 8.12.4.63 1.21 1.89 1.61 2.52.04.08.13.24.18.32.75 1.42 1.44 2.87 2.04 4.36 1.25 3.66 1.25 7.52 1.18 11.34l.94.82c.17.14.51.43.68.57.19.16.56.49.74.65 1.9 2.29 3.81 4.56 5.66 6.88 2.64 4.82 5.03 9.99 5.06 15.6 0 6.48-1.21 13.08-4.05 18.93 1.28 4.47 1.06 9.17.84 13.76-1.95 2.09-3.2 4.68-4.95 6.92-2.12 2.54-4.89 4.39-7.39 6.52 3.65 9.66-1.86 20.94-11.1 25.04-1.15 3.23-1.48 7.26-4.47 9.41-1.74.52-3.53-.03-5.21-.47 2.25-6.11 3.19-12.64 3.07-19.14-.86-11 3.43-21.48 4.37-32.33 1.76-.89 2.48-2.76 3.43-4.36 1.4-2.66 3.74-4.61 5.64-6.89-4.53-5.94-7.55-13.53-6.33-21.09-6.92-1.67-13.06-5.31-18.24-10.13 1.27-3.49 1.74-7.52.42-11.06-1.16-2.11-3.17-4.57-5.88-3.99.84.67 1.7 1.31 2.59 1.92 0 1.5.69 3.55-1.05 4.4-2.59 1.58-6.32.65-7.94-1.91-2.92-4.43-.62-10.36-3.3-14.89.48 4.06 1.08 8.1 1.38 12.18.15 2.4 2.09 3.99 3.44 5.77.79 1.23 1.82 2.25 3.02 3.08-2.8 7.03-9.95 11.42-17.03 13.18-11.92 2.2-24.58-4.11-31.12-14.11-1.37-6.64-.08-14.06 4.18-19.44 1.49-1.96 3.74-3.17 5.18-5.18-7.28 3.16-9.8 11.43-10.88 18.64-7.08.4-14.16-.25-20.88-2.57-4.06 7.98-13.59 11.21-22.07 10.34-.78 5.59-1.33 11.49-4.52 16.33-3.08 5.27-8.58 8.56-14.32 10.2 1.76 3.6 3.22 7.37 3.99 11.31-1.66 2.66-1.05 5.94-2.25 8.75-1.25 3.59-3.35 6.77-5.57 9.83 6.38 5.23 8.87 14.51 5.36 22.08 2.26 2.14 4.8 4.6 4.79 7.96.27 4.53-3.78 8.07-7.87 9.11-7.15 2.27-15.71-1.56-18.33-8.7-3.91-.08-8-.43-11.35-2.63-4.94-2.87-7.03-8.57-8.38-13.8-.3-2.03-2.31-2.93-3.63-4.22-5.47-4.44-9.49-10.77-10.57-17.78-1.11-6.28-.61-12.67.23-18.93-.94-2.47-2.28-4.8-4.1-6.72-.24 1.65-.42 3.32-.53 4.99-3.17-7.86-2.16-16.69.46-24.55 4.42 4.06 9.99 7.19 16.15 7.12 8.11.18 17.59-2.6 21.47-10.38 1.94-4.55 2.56-10.24-.3-14.55-4.1-5.69-12.73-7.08-18.53-3.2-5.49 3.12-8.36 8.91-12.05 13.73l-.45-2.49-.03-.23.38.21c.21-.67.62-2.02.82-2.7.24-1.33.45-2.66.62-4 .05-.21.15-.65.2-.87.48-1.73.85-3.5 1.24-5.26 1.2-.77 1.53-1.8 1-3.07.23-.51.7-1.51.93-2.02.27-.44.81-1.34 1.08-1.78.08-.14.24-.4.32-.53.09-.13.25-.38.33-.5.49-.7 1.48-2.09 1.97-2.79.09-.13.27-.39.35-.52.82-1.34 1.7-2.65 2.78-3.79.11-.13.34-.39.45-.51.25-.25.74-.73.99-.98.12-.11.37-.32.49-.43.63-.53 1.9-1.59 2.53-2.12l.66-.4c1.04 2.21 3.22 4.46 2.23 7.08 2.4-1.54 5.01-1.27 7.27.3-.01-2 .31-4.01 1.55-5.64 2.85-3.23 7.35-4.99 11.56-3.5-.86-6.35 4.55-12.18 10.55-13.39-1.95-2.12-3.74-4.39-5.73-6.47 3.81-.21 7.63-.54 11.44-.16 3.03-3.8 6.67-6.99 10.4-10.07.37-.19 1.1-.55 1.47-.73z" fill="#f5faff"/><path d="m8.89 72.68.96-.8-.1.7z" fill="#f5faff"/><path d="m7.81 73.69c.27-.25.81-.76 1.08-1.01l-.23.84z" fill="#f5faff"/><path d="m7.18 74.77c.16-.27.47-.81.63-1.08-.16.27-.47.81-.63 1.08z" fill="#f5faff"/><path d="m66.92 181.11c1.94 1.38 3.92 2.72 5.92 4.03l.29.72c1.19 2.92 3.47 5.21 5.77 7.29 7.71 6.8 17.48 10.82 27.42 13.02-1.64 2.99-2.85 6.36-2.75 9.81-.1 8.07 6.29 15.8 14.38 16.78 8.83 1.92 18.41-4.72 19.79-13.62 1.08-4.37-.08-8.94-2.25-12.78 4.34-1.31 8.74-3.05 11.84-6.5 1.98-.39 3.96-.82 5.95-1.15.24 4.06 3.33 7.32 3.28 11.44.41 3.66-.52 7.23-1.63 10.68 2.44 8.58.23 18-5.43 24.83-.47.24-1.4.72-1.87.96-.67 5.09-2.73 10.07-5.92 14.1-2.56 3.3-7.15 3.94-9.66 7.28-5.75 7-16.6 6.61-24.15 3.03-2.62.55-5.3 1.15-8 .81-2.83-.26-5.25-1.93-7.96-2.65-3.43-.14-7.01.59-10.28-.78-3.04-.99-5.36-3.23-7.84-5.12-3.64-.89-7.6-1.15-10.7-3.48-3.41-2.06-4.99-5.82-6.85-9.13-1.75-1.88-4.31-2.9-5.77-5.08-2.43-3.02-2.69-6.99-3.26-10.66 1.94-2.81 5.7-3.71 7.12-6.88-.46-.86-.91-1.73-1.35-2.59 1.55-.89 3.54-2.12 3.22-4.21-.27-3.21-3.23-5.01-5.42-6.92 1.58-.42 3.6-.5 4.35-2.24 1.28-1.98-.93-4.28-2.77-4.81l-.34-.16c.51-2.78.52-5.75-1.24-8.12l.22-.49c.14-.07.4-.21.53-.28 2.14-.92 4.06-2.29 5.72-3.92l.64-.52c.17-.06.5-.18.67-.24.63-.48 1.89-1.45 2.52-1.94l.16-.23.09-.26c3.51-1.95 6.63-5.75 5.56-10.02z" fill="#f5faff"/><path d="m65.84 14.86c3.35-3.17 6.09-7.34 10.64-9.01-3.73 3.08-7.37 6.27-10.4 10.07-3.81-.38-7.63-.05-11.44.16-.38-.11-1.15-.33-1.53-.44l-.11-.16c4.27-.43 8.55-.53 12.84-.62z" fill="#627884" opacity=".73"/><path d="m143.69 5.86c4.55 1.51 7.7 5.25 11.29 8.19 8.28-.63 17.31-.26 24.38 4.59-3.22-.7-6.1-2.45-9.33-3.1-4.59-.94-9.31-1.23-13.96-.66-1.71.55-2.76-1.15-3.84-2.09-2.47-2.76-5.76-4.54-8.54-6.93z" fill="#7e94a3" opacity=".82"/><path d="m8.5 6.79c9.4 7.79 19.3 15.58 25.21 26.53 1.37 2.14 1.82 5.24 4.55 6.12-1.24 1.63-1.56 3.64-1.55 5.64-2.26-1.57-4.87-1.84-7.27-.3.99-2.62-1.19-4.87-2.23-7.08l-.2-.43c-2.44-6.13-6.3-11.6-10.35-16.76-3.29-4.14-8.19-7.95-8.16-13.72z" fill="#6a4835"/><path d="m208.92 50.92c6.17-5.72 14.22-8.67 20.69-13.97-.63 5.02-4.85 8.25-8.49 11.22-3.43 2.69-6.35 5.94-9.46 8.97-.3.25-.89.75-1.19 1-.6-1.49-1.29-2.94-2.04-4.36-.05-.08-.14-.24-.18-.32-.4-.63-1.21-1.89-1.61-2.52l-.04-.87c.58.21 1.74.64 2.32.85z" fill="#6a4835"/><path d="m179.74 18.87c3.45 1.63 6.39 4.22 8.48 7.41-3.01-2.25-5.69-4.9-8.48-7.41z" fill="#728998" opacity=".79"/><path d="m188.78 26.98c1.85 1.94 3.34 4.19 4.52 6.59.12.33.37 1 .49 1.34l.24 1.35c-1.73-3.1-3.9-5.97-5.25-9.28z" fill="#7f96a4" opacity=".88"/><path d="m196.74 31.99c2.35-1.13 4.87-1.86 7.47-2.11-2.35 1.16-4.87 1.85-7.47 2.11z" fill="#553b24" opacity=".69"/><path d="m204.21 29.88.64-.11c4.7.01 9.4.23 14.08.74-6.76.02-13.71.59-19.84 3.69-1.69.65-3.62 2.32-5.3.71-.12-.34-.37-1.01-.49-1.34 1.13-.55 2.28-1.08 3.44-1.58 2.6-.26 5.12-.95 7.47-2.11z" fill="#9b745b"/><path d="m25.84 38.15c.15-.11.44-.34.59-.46l.12.41z" fill="#627784" opacity=".67"/><path d="m23.53 40.65c.12-.11.37-.32.49-.43-.12.11-.37.32-.49.43z" fill="#627784" opacity=".67"/><path d="m22.54 41.63c.25-.25.74-.73.99-.98-.25.25-.74.73-.99.98z" fill="#627784" opacity=".67"/><path d="m22.09 42.14c.11-.13.34-.39.45-.51-.11.12-.34.38-.45.51z" fill="#627784" opacity=".67"/><g fill="#044672"><path d="m26.43 37.69.58-.42.2.43-.66.4z"/><path d="m15.26 52.05c1.93-5.57 5.91-10.37 10.58-13.9l.71-.05c-.63.53-1.9 1.59-2.53 2.12-.12.11-.37.32-.49.43-.25.25-.74.73-.99.98-.11.12-.34.38-.45.51-1.08 1.14-1.96 2.45-2.78 3.79-.08.13-.26.39-.35.52-.49.7-1.48 2.09-1.97 2.79-.08.12-.24.37-.33.5-.08.13-.24.39-.32.53-.27.44-.81 1.34-1.08 1.78z"/><path d="m123.35 68.76c1.08-7.21 3.6-15.48 10.88-18.64-1.44 2.01-3.69 3.22-5.18 5.18-4.26 5.38-5.55 12.8-4.18 19.44.9 6.38 5.53 11.37 10.52 15.04 13.08 9.74 33.84 6.06 42.99-7.39 2.69-3.99 3.02-9.24 1.59-13.75l-1.57-.86c.13 1.75-.09 3.77-1.9 4.56-2.11.63-4.34.2-6.5.25-1.35-1.78-3.29-3.37-3.44-5.77-.3-4.08-.9-8.12-1.38-12.18 2.68 4.53.38 10.46 3.3 14.89 1.62 2.56 5.35 3.49 7.94 1.91 1.74-.85 1.05-2.9 1.05-4.4-.89-.61-1.75-1.25-2.59-1.92 2.71-.58 4.72 1.88 5.88 3.99 1.32 3.54.85 7.57-.42 11.06-.34.75-1.02 2.25-1.36 3 3.06 4.79 8.27 8.29 14.05 8.41 1.02.22 2.41-.19 3.05.89-1.77-.04-3.53-.12-5.29-.15 1.59 6.7 4.72 13.54 10.67 17.43.06.26.18.79.24 1.06-1.59-1.24-3.2-2.46-4.8-3.68-.1-.15-.3-.44-.4-.59-3.13-4.36-5.46-9.28-6.37-14.6-4.69-1.16-9.12-3.85-11.38-8.25-6.22 7.08-15.08 12.22-24.74 12.01-13.89 1.27-28.83-9.07-30.38-23.38.01-.71.04-2.13.05-2.84-3.94.04-7.89.24-11.81-.16-2.99-.34-5.75-1.68-8.69-2.19-1.85 1.51-2.84 3.89-4.81 5.32-4.9 4.05-11.49 4.81-17.61 5.07-.26 8.22-3.09 17.19-10.11 22.08-2.3 1.75-5.01 2.79-7.74 3.63 1.99 6.1 4.53 12.24 3.65 18.83-.43 3.71-1.98 7.32-4.35 10.21 6.86 6.25 9.23 15.85 8.09 24.84 2.34 2.5 5.46 4.77 6.01 8.38.98 6.31-3.09 12.75-9.02 14.93-.52.13-1.56.38-2.09.51-5.48 1.14-11.01.12-16.42-.54-.38-.42-1.12-1.26-1.49-1.68 5.64 2.08 11.74 2.44 17.68 1.7 7.23-1.28 12.52-9.17 10.32-16.32-1.32-2.71-3.75-4.61-5.73-6.83 1.23-8.91-.93-18.8-8.27-24.62 4.14-5.03 5.73-11.93 4.26-18.27-.77-3.94-2.23-7.71-3.99-11.31 5.74-1.64 11.24-4.93 14.32-10.2 3.19-4.84 3.74-10.74 4.52-16.33 8.48.87 18.01-2.36 22.07-10.34 6.72 2.32 13.8 2.97 20.88 2.57z"/><path d="m14.33 54.07c.23-.51.7-1.51.93-2.02-.23.51-.7 1.51-.93 2.02z"/><path d="m13.33 57.14c-.51-1.34-.18-2.37 1-3.07.53 1.27.2 2.3-1 3.07z"/><path d="m11.2 62.47c.72-1.77 1.46-3.53 2.13-5.33-.39 1.76-.76 3.53-1.24 5.26l-.33.37.13.5c-.17 1.34-.38 2.67-.62 4l-.97.11.76-1.23c.07-1.23.12-2.45.14-3.68z"/><path d="m210.47 58.14c.3-.25.89-.75 1.19-1l-.56.88c1.03 4.03 1.06 8.17 1.49 12.28l-.94-.82c.07-3.82.07-7.68-1.18-11.34z"/><path d="m9.1 70.91c.27-1.22.44-2.51 1.2-3.53-.06.59-.17 1.78-.23 2.38l.03.23-.25 1.89c-.24.2-.72.6-.96.8-.27.25-.81.76-1.08 1.01-.16.27-.47.81-.63 1.08-.37.3-1.11.9-1.49 1.2l-.3.12-.9.34c1.65-1.74 3.1-3.66 4.61-5.52z"/><path d="m212.59 70.3c.17.14.51.43.68.57-.17-.14-.51-.43-.68-.57z"/><path d="m213.27 70.87c.19.16.56.49.74.65-.18-.16-.55-.49-.74-.65z"/><path d="m214.01 71.52c2.19 1.6 3.99 3.67 5.39 5.98l.27.9c-1.85-2.32-3.76-4.59-5.66-6.88z"/><path d="m3.73 79.42.08.34c-2.62 7.86-3.63 16.69-.46 24.55.38 1.15.84 2.29 1.13 3.47-3.57 5.43-3.43 12.45-2.68 18.69 1.54 9.07 7.41 17.04 15.26 21.75-1.45 3.94.86 8.04 1.62 11.93l-.15.6c-1.75-4.01-2.23-8.38-2.67-12.69-13.57-8.31-19.17-27.15-11.93-41.4-4.34-8.31-4.38-18.86-.2-27.24z"/><path d="m221.28 130.47.06-.21c-.02.12-.07.35-.09.47z"/><path d="m220.15 133.07c.27-.59.82-1.76 1.1-2.34-.28.58-.83 1.75-1.1 2.34z"/><path d="m215.68 139.1c1.19-2.22 3.01-4 4.47-6.03-1.01 2.33-2.5 4.42-4.47 6.03z"/><path d="m215.06 139.65c.15-.14.46-.41.62-.55-.16.14-.47.41-.62.55z"/><path d="m213.1 140.69c.49-.26 1.47-.78 1.96-1.04-.32.52-.95 1.57-1.27 2.1.79 6.72.55 14.4-4 19.85 3.79-6.25 4.68-13.8 3.31-20.91z"/><path d="m18.53 160.75.61.1.67 1.04-.12.67-.77-.12c-.09-.43-.29-1.27-.39-1.69z"/><path d="m209.26 162.31c.13-.18.4-.53.53-.71-.13.18-.4.53-.53.71z"/><path d="m208.35 163.35c.23-.26.68-.78.91-1.04-.23.26-.68.78-.91 1.04z"/><path d="m19.69 162.56.49-.11c1.15 1.28 2.66 2.62 2.45 4.54-1.5-.97-3.29-2.4-2.94-4.43z"/><path d="m207.22 164.44c.28-.27.85-.82 1.13-1.09-.28.27-.85.82-1.13 1.09z"/><path d="m205.99 165.12c.31-.17.92-.51 1.23-.68l-.6.7z"/><path d="m205.24 165.62.75-.5-.01.59-.76.52z"/><path d="m204.56 166.21.66.02c-.32.17-.97.52-1.3.7z"/><path d="m22.63 166.99c.15.16.43.47.57.62-.14-.15-.42-.46-.57-.62z"/><path d="m203.1 167.14.82-.21c-.24.18-.74.53-.98.71z"/><path d="m23.2 167.61.91.15c.33.21.99.62 1.33.83v.57c-.47.02-1.42.06-1.9.08-.08-.41-.25-1.22-.34-1.63z"/><path d="m200.98 167.75 1.26-.37.7.26c-.48 1.5-1.13 2.94-1.9 4.31-.13-.47-.39-1.42-.52-1.9l.06-1.31z"/><path d="m25.44 169.16.51.12c.56.43 1.67 1.27 2.23 1.69l1.64.8c5.16.2 10.37 1.58 13.97 5.51-4.61-3.37-10.3-5.84-16.08-4.56l-.31-.55c-.28-1.27-.93-2.27-1.96-3.01z"/><path d="m200.1 172.09.94-.14c-.27.51-.81 1.54-1.08 2.05.03-.48.11-1.43.14-1.91z"/><path d="m196.25 180.2c1.34-2.01 2.54-4.09 3.71-6.2-.63 2.24-1.78 4.27-3.18 6.11z"/><path d="m43.79 177.28c1.36-.64 2.79.27 3.5 1.43-1.36.78-2.96-.1-3.5-1.43z"/><path d="m194.71 182.18c.38-.5 1.15-1.49 1.54-1.98l.11.53c-.42.36-1.24 1.08-1.65 1.45z"/><path d="m193.69 182.8c.26-.16.76-.47 1.02-.62-.26.15-.76.46-1.02.62z"/><path d="m193.11 183.62c.14-.21.44-.62.58-.82-.14.2-.44.61-.58.82z"/><path d="m190.88 184.1c.56-.12 1.67-.36 2.23-.48-.29.6-.85 1.82-1.13 2.42-4.08 1.09-8.33.43-12.47 1 .35-.11 1.06-.35 1.42-.46 1.79-.15 3.58-.23 5.38-.29 1.17.15 2.09-.23 2.78-1.15.45-.26 1.34-.78 1.79-1.04z"/><path d="m140.05 315.03c5.9-1.47 11.85-3.25 17.08-6.43.23.51.67 1.53.89 2.04-.31.32-.95.95-1.26 1.27-7.84 2.97-15.95 6.94-24.57 5.74-1.21-.23-2.43-.46-3.64-.68-.44-.9-.85-1.81-1.23-2.72 3.97 1.96 8.53 1.87 12.73.78z"/></g><path d="m18.96 46.45c.09-.13.27-.39.35-.52-.08.13-.26.39-.35.52z" fill="#798e9a" opacity=".78"/><path d="m16.66 49.74c.09-.13.25-.38.33-.5-.08.12-.24.37-.33.5z" fill="#798e9a" opacity=".78"/><path d="m16.34 50.27c.08-.14.24-.4.32-.53-.08.13-.24.39-.32.53z" fill="#798e9a" opacity=".78"/><path d="m208.25 53.46c.04.08.13.24.18.32-.05-.08-.14-.24-.18-.32z" fill="#52768c"/><path d="m15.76 67.01c3.19-4.39 7.56-8.8 13.24-9.31 5.32-.56 11.08 2.61 12.51 7.96-1.29 3.66-2.74 7.49-5.83 10.04-6.52 5.24-15.47 7.32-23.64 5.54-1.57-.35-3.18-.73-4.78-.3-1.21-.98-2.41-1.98-3.57-3.02.38-.37 1.14-1.12 1.52-1.5.12-.11.36-.34.48-.45 5.12-.11 7.53-5.33 10.07-8.96z" fill="#fbcfb4"/><path d="m104.24 69.87c6.28 1.79 12.8 3.62 19.39 2.45 1.55 14.31 16.49 24.65 30.38 23.38 9.66.21 18.52-4.93 24.74-12.01 2.26 4.4 6.69 7.09 11.38 8.25.91 5.32 3.24 10.24 6.37 14.6-.51 3.26-.86 6.54-.92 9.84-.66 10.68-3.37 21.09-5.16 31.6.15 8.02.63 16.27-2.17 23.95-.71 2.06-1.91 4.01-1.95 6.25-1.94-.04-3.08 2.25-3.06 3.97-.09.1-.27.29-.36.39-1.56 1.28-3.42 2.52-3.99 4.58-.31.15-.93.45-1.24.61-.48.14-1.43.44-1.91.59l-.3.12-.13.28-.22.44c-7.26 6.11-17.13 7.54-26.14 9.37-2.63-1.94-5.98-1.04-8.99-1.17-7.38.29-14.73-.49-22-1.67-15.8-2.87-31.9-7.35-44.78-17.36 2.54-2.66 5.91-5.32 5.93-9.35.1-4.81-2.73-9.03-5.72-12.55.31-1.96.68-3.91 1.03-5.86.72 1.35.98 2.94 1.85 4.2 3.42.82 7.45 1.32 10.41-1.04 2.97-1.58 4.22-4.81 5.83-7.54-1.14-3.42-.92-8.23-4.91-9.77-4.36-3.59-11.07-3.92-15.52-.29.71 1.99 1.55 4 1.48 6.16-1.73-3.65-4.12-6.94-7.25-9.5 4.66-8.42 2.72-18.31 1.02-27.26 3.72-1.78 7.28-4.1 9.74-7.48 4.07-4.89 5.38-11.24 6.66-17.28 1.44-1.06 3.51-.65 5.2-1.1 6.28-.81 11.65-4.79 15.31-9.8m-3.2 14.2c-3.3 1.25-7.17 2.64-9.11 5.76 9.82-2.58 20.19-2.44 30.19-1.05 1.65.09 3.22 1.26 4.88.77-6.71-6.64-17.16-7.87-25.96-5.48m4.48 18.6c-10.01 1.02-18.49 10.16-18.27 20.29-.77 8.26 4.56 16.32 11.95 19.72 4.62 1.93 9.94 2.69 14.77 1.1 7.6-2.21 13.74-8.93 14.94-16.79.32-5.15-.09-10.68-3.24-14.99-4.22-6.67-12.41-10.17-20.15-9.33m53.29 12.5c6.98-5.28 15.36-9.08 24.18-9.59-.69-2-3.22-1.93-4.89-2.54-8.24-2.14-17.98 3.57-19.29 12.13m.1 9.72c-.5 1.01-1.17 3.16.77 3.17-.23.62-.68 1.86-.91 2.48-.12 2.81.07 5.64 1.12 8.28l-1.39-.34c-1.28 3.36 1.81 6.75 3.75 9.36 3.14 4.12 8.68 4.63 13.41 3.73 5.94-1.96 10.03-7.5 11.67-13.36.66-4.7 1.45-9.61-.26-14.21-1.73-5.68-6.85-10.66-13.02-10.71-7.01-.26-12.69 5.49-15.14 11.6m-20.82 24.1c-3.09 1.23-5.78 4.32-4.97 7.84 2.05 5.16 7.84 7.58 13.04 7.95 4.13.26 8.9-.4 11.76-3.7 2-2.04 1.62-5.21.8-7.69-.32-.2-.97-.6-1.3-.8-.19-.32-.58-.97-.77-1.29-5.38-3.51-12.52-4.82-18.56-2.31m-29.86 6.95c-4.63 6.33-7.72 15.27-3.89 22.72 4 7.13 12.9 9.82 20.64 9.46 5.51-.58 11.43-1 16.09-4.32 4.22-2.93 6.49-7.98 7.01-12.97-13.93-3.06-26.68-9.64-39.85-14.89z" fill="#fbcfb4"/><path d="m47.4 180.98 1.38-.59c5.41.66 10.94 1.68 16.42.54 1.4.72 1.69 2.61.89 3.9-1.3 2.44-3.51 4.21-5.14 6.41l-.79.05c-.21.07-.63.22-.84.3-.31.41-.94 1.24-1.25 1.65-.15.12-.46.35-.61.46-2.08 1.05-4.02 2.34-5.68 3.98-.16.11-.48.34-.64.46-.16.1-.47.31-.62.42-1.48.84-2.89 1.81-4.42 2.56-1.49-1.48-2.19-3.57-3.39-5.28-.02 3.48 3.13 6.13 4.28 9.33-1.58.85-3.82 1.11-4.6 2.96-1.67 3.12-4.16 5.7-5.64 8.94l-1.03.52-.98-.03c-.33-.47-1.01-1.41-1.34-1.89-1.6-4.88-3.6-9.65-4.74-14.67-.49-2.55 1.24-4.78 2.61-6.73 4.37-5.53 10.47-9.25 16.13-13.29z" fill="#fbcfb4"/><path d="m189.83 191.87c1.49-1.77 2.91-5.37 5.81-4.33 2.64 1.5 2.16 4.87 1.04 7.21-1.28 2.54-2.45 5.91-5.78 6 4.16 1.82 7.34 5.6 8.38 10.04.32-.13.96-.38 1.29-.51 1.56 2.87 5.83 1.07 8.54 1.92-1.44 4.27-7.1 1.95-10.43 3.02l-.33 1.26c-.94 2.04-3.01 3.17-4.6 4.67l-.25.12c-8.12 1.11-15.87 4.2-24.08 4.75-2.92-1.25-6.1-1.49-9.23-1.68-1.52-1.48-2.89-3.11-4.26-4.73 1.88-4.48 2.13-9.67.31-14.21-.9-2.22-1.97-4.41-2.24-6.82 1.78-.49 3.52-1.1 5.34-1.39 2.35 1.16 3.93 3.35 5.9 5.02.14.19.43.58.58.77.93 1.86 2.05 3.6 3.22 5.32-2.63 1.77-6.32 2.12-8.22 4.81 4.36-1.84 8.48-4.32 13.09-5.51.51 2.22-.31 5.69 2.23 6.82-.53-2.14-1.28-4.24-1.46-6.45.01-2.79 1.31-5.56.51-8.35-.58-2.48-2.61-5.02-.97-7.57 1.77 1.16 3.95 1.41 6.01 1.24 2.17 1.54 2.37 4.13 2.21 6.58 3.08-2.06 5.66-4.71 7.39-8m-6 9.03c.6 1.92 2.54 3.12 2.8 5.19.3 2.49-.86 4.77-1.75 7.01 4.03-2.41 3.8-10.41-1.05-12.2z" fill="#fbcfb4"/><path d="m195.03 201.66c3.31-1.56 6.54-3.36 10.06-4.44 2.04-.62 4.15.55 4.74 2.6-2.2 3.94-5.98 7.45-10.49 8.34-.72-2.62-2.81-4.39-4.31-6.5z" fill="#fbcfb4"/><path d="m41.95 210.94c.84-2.87 3.23-5.18 6.43-4.67 1.23.27 2.45.55 3.67.86l.34.16c.88 1.29 1.73 2.6 2.57 3.92-1.18.85-2.26 2.81-4 2.12-2.61-1.08-5.34.19-7.01 2.28 1.71-.5 3.43-.96 5.19-1.21 2.36 1.9 5.28 3.52 6.33 6.55.41 1.75-1.36 2.81-2.51 3.73-3.42.65-6.64-1.03-9.96-1.52 3.12 2.81 8.42 1.08 10.74 4.9-1.52 1.61-3.37 3.45-5.78 3.29-2.06-.72-4-1.75-6.11-2.33 1.85 1.96 4.55 2.54 7.04 3.22-1.35 1.96-3.67 2.29-5.87 2l-.44-.3c-3.29-1.87-6.17-5.02-6.05-9.04-.78-5.29 1.9-10.24 5.42-13.96z" fill="#fbcfb4"/><path d="m70.55 273.88c3.39 1.7 7.12 1.46 10.69.53.68.08 2.06.23 2.75.31.46 3.78 1.32 7.53 1.51 11.34-2.37 4.13-9.29 5.73-12.55 1.78-1.13-4.59-1.54-9.32-2.4-13.96z" fill="#fbcfb4"/><path d="m136.51 277.87c.27.94.81 1.71 1.62 2.31.66 2.38 1.59 4.67 2.63 6.91.53 1.65 1.11 3.31 1.58 4.99-1.15 4.48-6.36 6.5-10.63 5.79l-.41-.5c-2.57-3.38-3.3-7.72-5.45-11.35.02-.42.07-1.27.09-1.69 4.16-.07 10.8-.94 10.57-6.46z" fill="#fbcfb4"/><path d="m41.51 65.66c1.64 3.98.02 8.28-1.95 11.81-2.95 4.64-8.4 6.86-13.59 7.9-6.44 1.24-13.79.22-18.71-4.43 1.6-.43 3.21-.05 4.78.3 8.17 1.78 17.12-.3 23.64-5.54 3.09-2.55 4.54-6.38 5.83-10.04z" fill="#f8b294"/><path d="m103.18 67.13c2.94.51 5.7 1.85 8.69 2.19 3.92.4 7.87.2 11.81.16-.01.71-.04 2.13-.05 2.84-6.59 1.17-13.11-.66-19.39-2.45-3.66 5.01-9.03 8.99-15.31 9.8-1.69.45-3.76.04-5.2 1.1-1.28 6.04-2.59 12.39-6.66 17.28-2.46 3.38-6.02 5.7-9.74 7.48 1.7 8.95 3.64 18.84-1.02 27.26 3.13 2.56 5.52 5.85 7.25 9.5.11 2.78.38 5.54.86 8.28-.35 1.95-.72 3.9-1.03 5.86 2.99 3.52 5.82 7.74 5.72 12.55-.02 4.03-3.39 6.69-5.93 9.35 12.88 10.01 28.98 14.49 44.78 17.36 7.27 1.18 14.62 1.96 22 1.67 3.01.13 6.36-.77 8.99 1.17-12.49 3.26-25.51 1.96-38.16.6l-.5-.08c-12.17-2.53-23.71-7.25-34.75-12.86l-.48-.28c-.31-.28-.93-.84-1.24-1.12-2.13-1.53-4.34-2.93-6.53-4.37 5.93-2.18 10-8.62 9.02-14.93-.55-3.61-3.67-5.88-6.01-8.38 1.14-8.99-1.23-18.59-8.09-24.84 2.37-2.89 3.92-6.5 4.35-10.21.88-6.59-1.66-12.73-3.65-18.83 2.73-.84 5.44-1.88 7.74-3.63 7.02-4.89 9.85-13.86 10.11-22.08 6.12-.26 12.71-1.02 17.61-5.07 1.97-1.43 2.96-3.81 4.81-5.32z" fill="#f8b194"/><path d="m178.4 67.78 1.57.86c1.43 4.51 1.1 9.76-1.59 13.75-9.15 13.45-29.91 17.13-42.99 7.39-4.99-3.67-9.62-8.66-10.52-15.04 6.54 10 19.2 16.31 31.12 14.11 7.08-1.76 14.23-6.15 17.03-13.18-1.2-.83-2.23-1.85-3.02-3.08 2.16-.05 4.39.38 6.5-.25 1.81-.79 2.03-2.81 1.9-4.56z" fill="#bddfe0"/><path d="m3.88 99.32c1.82 1.92 3.16 4.25 4.1 6.72-.84 6.26-1.34 12.65-.23 18.93 1.08 7.01 5.1 13.34 10.57 17.78 1.32 1.29 3.33 2.19 3.63 4.22 1.35 5.23 3.44 10.93 8.38 13.8 3.35 2.2 7.44 2.55 11.35 2.63 2.62 7.14 11.18 10.97 18.33 8.7 4.09-1.04 8.14-4.58 7.87-9.11.01-3.36-2.53-5.82-4.79-7.96 3.51-7.57 1.02-16.85-5.36-22.08 2.22-3.06 4.32-6.24 5.57-9.83 1.2-2.81.59-6.09 2.25-8.75 1.47 6.34-.12 13.24-4.26 18.27 7.34 5.82 9.5 15.71 8.27 24.62 1.98 2.22 4.41 4.12 5.73 6.83 2.2 7.15-3.09 15.04-10.32 16.32-5.94.74-12.04.38-17.68-1.7-.71-1.16-2.14-2.07-3.5-1.43-3.6-3.93-8.81-5.31-13.97-5.51-.41-.2-1.23-.6-1.64-.8-.56-.42-1.67-1.26-2.23-1.69-.13-.17-.39-.52-.51-.69-.34-.21-1-.62-1.33-.83l-.91-.15c-.14-.15-.42-.46-.57-.62.21-1.92-1.3-3.26-2.45-4.54-.09-.14-.28-.42-.37-.56l-.67-1.04c-.12-.18-.35-.53-.46-.7-.76-3.89-3.07-7.99-1.62-11.93-7.85-4.71-13.72-12.68-15.26-21.75 2.13-1.95 1.03-5.02 1.31-7.54-.33-3.83 2.06-7.33 1.37-11.15-.29-1.18-.75-2.32-1.13-3.47.11-1.67.29-3.34.53-4.99z" fill="#bddfe0"/><path d="m216.57 133.61c1.75-2.24 3-4.83 4.95-6.92-.06.95-.18 2.83-.24 3.78l-.03.26c-.28.58-.83 1.75-1.1 2.34-1.46 2.03-3.28 3.81-4.47 6.03-.16.14-.47.41-.62.55-.49.26-1.47.78-1.96 1.04 1.37 7.11.48 14.66-3.31 20.91-.13.18-.4.53-.53.71-.23.26-.68.78-.91 1.04-.28.27-.85.82-1.13 1.09-.31.17-.92.51-1.23.68l-.75.5c-.17.15-.51.44-.68.59l-.64.72-.82.21c-.22.06-.64.18-.86.24l-1.26.37c-1.89-1.06-2.48 2.6-.4.99l-.06 1.31c-.11.51-.31 1.53-.42 2.04-.03.48-.11 1.43-.14 1.91-1.17 2.11-2.37 4.19-3.71 6.2-.39.49-1.16 1.48-1.54 1.98-.26.15-.76.46-1.02.62-.14.2-.44.61-.58.82-.56.12-1.67.36-2.23.48-.45.26-1.34.78-1.79 1.04-1.44-.77-2.36-.39-2.78 1.15-1.8.06-3.59.14-5.38.29.49-.94 1.49-2.82 1.99-3.75.06-.1.18-.29.24-.39.13-.08.39-.25.52-.33.17-.12.51-.35.68-.47 1.13-.88 1.78-2.03 1.94-3.46.78-1.32 1.52-2.66 2.1-4.07 1.68.44 3.47.99 5.21.47 2.99-2.15 3.32-6.18 4.47-9.41 9.24-4.1 14.75-15.38 11.1-25.04 2.5-2.13 5.27-3.98 7.39-6.52z" fill="#bddfe0"/><path d="m43.02 234.69c1.4.08 2.81.16 4.22.25.57 3.67.83 7.64 3.26 10.66 1.46 2.18 4.02 3.2 5.77 5.08 1.86 3.31 3.44 7.07 6.85 9.13 3.1 2.33 7.06 2.59 10.7 3.48 2.48 1.89 4.8 4.13 7.84 5.12 3.27 1.37 6.85.64 10.28.78 2.71.72 5.13 2.39 7.96 2.65 2.7.34 5.38-.26 8-.81 7.55 3.58 18.4 3.97 24.15-3.03 2.51-3.34 7.1-3.98 9.66-7.28 3.19-4.03 5.25-9.01 5.92-14.1.47-.24 1.4-.72 1.87-.96-.06 4.22-1.7 8.11-2.9 12.09-.3.31-.91.95-1.22 1.26l.3.84c-2.04.21-2.69 2.73-3.05 4.41-.15.18-.44.54-.58.72-.26.26-.76.77-1.02 1.03-.26.25-.79.77-1.05 1.02-.21.15-.63.44-.83.58-.49.23-1.45.69-1.94.93-3.64 4-7.69 8.23-13.26 9.26-5.69 1.61-11.41-.82-16.5-3.18-3.42.8-6.81 2.15-10.4 1.82-3.54-.06-6.55-2.65-10.14-2.2-5.41.25-10.42-2.14-14.56-5.42-4.97-.23-10.26-.5-14.45-3.53-3.59-2.21-5.43-6.19-6.35-10.16-6.43-4.55-9.73-12.67-8.53-20.44z" fill="#bddfe0"/><path d="m219.67 78.4-.27-.9c3.39 4.46 5.18 9.89 5.92 15.4.43 5.12-.52 10.31-2.01 15.21-.12.29-.36.87-.47 1.16-.49 1.2-.97 2.4-1.45 3.61.99 5.7 2.06 11.79-.05 17.38l-.06.21c.06-.95.18-2.83.24-3.78.22-4.59.44-9.29-.84-13.76 2.84-5.85 4.05-12.45 4.05-18.93-.03-5.61-2.42-10.78-5.06-15.6z" fill="#0e4f7d"/><path d="m153.28 198.71c.18-.03.54-.1.72-.13.27 2.41 1.34 4.6 2.24 6.82 1.82 4.54 1.57 9.73-.31 14.21l-.19.84c.24 3.56 1.29 7.08.77 10.67-.34 5.35-3.05 10.1-5.99 14.44-1.39 4-1.33 8.64-3.92 12.19 1.2-3.98 2.84-7.87 2.9-12.09 5.66-6.83 7.87-16.25 5.43-24.83 1.11-3.45 2.04-7.02 1.63-10.68.05-4.12-3.04-7.38-3.28-11.44z" fill="#0e4f7d"/><path d="m145.38 259.01c.31-.31.92-.95 1.22-1.26-.23.52-.69 1.58-.92 2.1z" fill="#0e4f7d"/><path d="m142.63 264.26c.36-1.68 1.01-4.2 3.05-4.41.01 1.96-1.27 3.66-3.05 4.41z" fill="#0e4f7d"/><path d="m142.05 264.98c.14-.18.43-.54.58-.72-.15.18-.44.54-.58.72z" fill="#0e4f7d"/><path d="m141.03 266.01c.26-.26.76-.77 1.02-1.03-.26.26-.76.77-1.02 1.03z" fill="#0e4f7d"/><path d="m139.98 267.03c.26-.25.79-.77 1.05-1.02-.26.25-.79.77-1.05 1.02z" fill="#0e4f7d"/><path d="m139.15 267.61c.2-.14.62-.43.83-.58-.21.15-.63.44-.83.58z" fill="#0e4f7d"/><path d="m137.21 268.54c.49-.24 1.45-.7 1.94-.93-.5.42-1.48 1.27-1.97 1.69z" fill="#0e4f7d"/><path d="m57.55 313.04c-1.26-9.92 4.74-20.31 13.36-25.01-5.15 4.74-10.13 10.05-12.27 16.89.91.66 1.81 1.33 2.71 2-.59 1.41-1.06 2.86-1.48 4.33 11.67 4.69 24.45 5.67 36.92 5.44-.04-.65-.13-1.95-.17-2.6 1.67-1.05 3.34-2.1 5.01-3.13.01 2.38-.37 4.79-1.47 6.93-.05-.38-.14-1.14-.19-1.52-5.34 2.36-11.38.68-17.03 1.21-8.38-1.15-17.11-1.95-24.65-6.16-.01 2.89 2.47 4.66 4.89 5.56 8.76 3.63 18.41 4.46 27.81 4.58 2.96.23 5.67-1.1 8.23-2.4-1.85 2.64-5.27 3.14-8.25 3.16-9.92-.26-20.13-.95-29.28-5.15-1.91-.75-3.11-2.45-4.14-4.13z" fill="#0e4f7d"/><path d="m178.98 83.17c.34-.75 1.02-2.25 1.36-3 5.18 4.82 11.32 8.46 18.24 10.13-1.22 7.56 1.8 15.15 6.33 21.09-1.9 2.28-4.24 4.23-5.64 6.89-.95 1.6-1.67 3.47-3.43 4.36.7-5.15.56-10.35 1.06-15.51 1.6 1.22 3.21 2.44 4.8 3.68-.06-.27-.18-.8-.24-1.06-5.95-3.89-9.08-10.73-10.67-17.43 1.76.03 3.52.11 5.29.15-.64-1.08-2.03-.67-3.05-.89-5.78-.12-10.99-3.62-14.05-8.41z" fill="#bcdfdf"/><path d="m49.62 202.82c.3-.95.9-2.86 1.19-3.81 1.76 2.37 1.75 5.34 1.24 8.12-1.22-.31-2.44-.59-3.67-.86.33-.81.98-2.44 1.31-3.26-.83-.14-2.49-.44-3.32-.58 1.09-.01 2.18.19 3.25.39z" fill="#bcdfdf"/><path d="m101.04 84.07c8.8-2.39 19.25-1.16 25.96 5.48-1.66.49-3.23-.68-4.88-.77-10-1.39-20.37-1.53-30.19 1.05 1.94-3.12 5.81-4.51 9.11-5.76m-3.17 2.71c5.42.82 10.89-1.43 16.36-.09 1.89.07 5.15 1.56 6.15-.53-7.26-1.81-15.63-3.02-22.51.62z" fill="#0f1016"/><path d="m158.77 130.54c2.23 1.94 3.05 4.83 4.02 7.51l.34 1.07c2.14.16 3.23-1.29 3.93-3.09.13-.21.37-.64.49-.86.55 1.64 1.42 3.12 2.81 4.17.05.38.14 1.14.19 1.52 1.58-.29 3.16-.61 4.74-.94l.14 1.14c-2.3 2.91-6.37 4.85-10.02 3.44-2.63-.93-4.34-3.28-5.52-5.68-1.05-2.64-1.24-5.47-1.12-8.28z" fill="#0f1016"/><path d="m97.87 86.78c6.88-3.64 15.25-2.43 22.51-.62-1 2.09-4.26.6-6.15.53-5.47-1.34-10.94.91-16.36.09z" fill="#553a21"/><path d="m227.79 98.68c1.84 1.6 3.77 3.1 5.7 4.6l.51-1.18v2.01c-3.37 2.4-7.09 4.32-11.16 5.16.11-.29.35-.87.47-1.16 3.67-.42 7.2-2.02 9.83-4.64-2.1-1.2-4.17-2.61-5.35-4.79z" fill="#553a21"/><path d="m196.5 106.54c.1.15.3.44.4.59-.5 5.16-.36 10.36-1.06 15.51-.94 10.85-5.23 21.33-4.37 32.33.12 6.5-.82 13.03-3.07 19.14-.58 1.41-1.32 2.75-2.1 4.07.04-2.24 1.24-4.19 1.95-6.25 2.8-7.68 2.32-15.93 2.17-23.95 1.79-10.51 4.5-20.92 5.16-31.6.06-3.3.41-6.58.92-9.84z" fill="#553a21"/><path d="m108.23 155.94c13.17 5.25 25.92 11.83 39.85 14.89-.52 4.99-2.79 10.04-7.01 12.97-4.66 3.32-10.58 3.74-16.09 4.32-7.74.36-16.64-2.33-20.64-9.46-3.83-7.45-.74-16.39 3.89-22.72m-2.01 4.37.65.92-.77-.25c-.72 2.6-1.51 5.19-2.35 7.75-.07 2.59-.61 5.37.67 7.77 2.91 7.44 11.48 10.67 18.92 10.85 6.12-.74 12.79-1.17 17.88-5.05 3.2-2.48 4.74-6.33 5.7-10.13-.84-.43-1.67-.87-2.5-1.3-12.41-3.1-23.92-8.93-35.7-13.81-.83 1.09-1.67 2.17-2.5 3.25z" fill="#553a21"/><path d="m183.24 182.15c-.02-1.72 1.12-4.01 3.06-3.97-.16 1.43-.81 2.58-1.94 3.46-.17.12-.51.35-.68.47z" fill="#553a21"/><path d="m65.2 180.93c.53-.13 1.57-.38 2.09-.51 2.19 1.44 4.4 2.84 6.53 4.37l-.98.35c-2-1.31-3.98-2.65-5.92-4.03 1.07 4.27-2.05 8.07-5.56 10.02l-.41.11c1.63-2.2 3.84-3.97 5.14-6.41.8-1.29.51-3.18-.89-3.9z" fill="#553a21"/><path d="m182.88 182.54c.09-.1.27-.29.36-.39l-.08.29z" fill="#553a21"/><path d="m178.89 187.12c.57-2.06 2.43-3.3 3.99-4.58l.04.29c-.5.93-1.5 2.81-1.99 3.75-.36.11-1.07.35-1.42.46z" fill="#553a21"/><path d="m191.98 186.04c2.27.33 5.28.38 5.99 3.14 1.66 4.65-2.78 8.39-4.03 12.51 3.58-2 7.16-4.14 11.14-5.23 2.57-.94 6.18 1.57 4.9 4.43-1.73 3.92-5.88 5.7-9.04 8.23 2.52.19 5.1-.02 7.58.53 2.23.42 4.24 3.4 2.25 5.29-2.89 3.14-7.7 2.06-11.51 2.26-1.55 1.68-3.32 3.18-5.51 3.95 1.59-1.5 3.66-2.63 4.6-4.67 3.59-.24 7.48.55 10.81-1.11 2.19-.86 2.11-4.21-.28-4.74-2.71-.57-5.58-1.07-8.31-.35-.33.13-.97.38-1.29.51-1.04-4.44-4.22-8.22-8.38-10.04 3.33-.09 4.5-3.46 5.78-6 1.12-2.34 1.6-5.71-1.04-7.21-2.9-1.04-4.32 2.56-5.81 4.33-1.73 3.29-4.31 5.94-7.39 8 .16-2.45-.04-5.04-2.21-6.58-1.25-1.63-3.33-1.94-5.24-1.94l-.53-.34c4.78-1.58 8.28 2.98 9.38 7.05 3.63-3.21 6.52-7.45 8.14-12.02m3.05 15.62c1.5 2.11 3.59 3.88 4.31 6.5 4.51-.89 8.29-4.4 10.49-8.34-.59-2.05-2.7-3.22-4.74-2.6-3.52 1.08-6.75 2.88-10.06 4.44z" fill="#553a21"/><path d="m177.65 187.73c.31-.16.93-.46 1.24-.61-.31.15-.93.45-1.24.61z" fill="#553a21"/><path d="m175.74 188.32c.48-.15 1.43-.45 1.91-.59.31 1.54-.4 2.24-2.14 2.09l-.42-.66.22-.44c.11-.1.32-.3.43-.4z" fill="#553a21"/><path d="m148.95 198.53c9.01-1.83 18.88-3.26 26.14-9.37l-.63 1.85c.02.18.06.54.08.73l-1.19-.4c-3.97 2.36-8.3 4.02-12.7 5.42 1.59 1.77 3.23 3.5 4.59 5.45-1.97-1.67-3.55-3.86-5.9-5.02-1.82.29-3.56.9-5.34 1.39-.18.03-.54.1-.72.13-1.99.33-3.97.76-5.95 1.15-5.33.77-10.7 1.42-16.09 1.29 1.16 1.93 2.89 3.43 4.25 5.21 2.17 3.84 3.33 8.41 2.25 12.78-1.38 8.9-10.96 15.54-19.79 13.62-8.09-.98-14.48-8.71-14.38-16.78-.1-3.45 1.11-6.82 2.75-9.81 1.72-2.43 4-4.39 6.57-5.89-.7-.39-1.4-.78-2.1-1.15 12.65 1.36 25.67 2.66 38.16-.6m-43.16 11.67c-3.15 5.49-.74 12.97 3.65 17.27 4.33 4.41 10.93 4.76 16.7 3.91 1.86-2.82 2.44-6.2 1.9-9.52l-.62.52-.17-1.06c-2.2-.23-3.76-2.23-3.83-4.36.34-2.75 3.48-5.11 6.13-3.62 2.25.91 2.65 3.51 2.41 5.64-1.14.96-2.58 1.65-3.4 2.93.05 1.82.18 3.64.26 5.46-.15.62-.46 1.87-.62 2.49 7.91-2.73 12.23-14.79 6.79-21.3-.35-2.86-2.79-4.83-4.78-6.66-3.71-1.04-7.63-.38-11.37-1.34-.41 0-1.23 0-1.64 0-5.48-.77-10.52 4.8-11.41 9.64z" fill="#553a21"/><path d="m60.16 191.29.79-.05.16.38c-.63.49-1.89 1.46-2.52 1.94l-.52-.32c.31-.41.94-1.24 1.25-1.65.21-.08.63-.23.84-.3z" fill="#553a21"/><path d="m57.46 193.7c.15-.11.46-.34.61-.46l-.15.56z" fill="#553a21"/><path d="m173.92 198.14c-.69-1.97-2.32-4.74.3-6.09-1.64 2.55.39 5.09.97 7.57.8 2.79-.5 5.56-.51 8.35.18 2.21.93 4.31 1.46 6.45-2.54-1.13-1.72-4.6-2.23-6.82-4.61 1.19-8.73 3.67-13.09 5.51 1.9-2.69 5.59-3.04 8.22-4.81-1.17-1.72-2.29-3.46-3.22-5.32 1.53 1.68 2.84 3.54 4.01 5.49 1.38-.55 2.76-1.09 4.16-1.61.54-2.87 1.32-5.95-.07-8.72z" fill="#553a21"/><path d="m51.78 197.68c1.66-1.64 3.6-2.93 5.68-3.98l-.18.62c-1.66 1.63-3.58 3-5.72 3.92z" fill="#553a21"/><path d="m46.99 205.17c-1.15-3.2-4.3-5.85-4.28-9.33 1.2 1.71 1.9 3.8 3.39 5.28 1.53-.75 2.94-1.72 4.42-2.56l.51-.04-.22.49c-.29.95-.89 2.86-1.19 3.81-1.07-.2-2.16-.4-3.25-.39.83.14 2.49.44 3.32.58-.33.82-.98 2.45-1.31 3.26-3.2-.51-5.59 1.8-6.43 4.67-3.52 3.72-6.2 8.67-5.42 13.96-.12 4.02 2.76 7.17 6.05 9.04-3.6-.77-6.3-4.28-6.37-7.93-.12-3.35-1.43-6.4-2.81-9.39v-.95c.33.48 1.01 1.42 1.34 1.89-.33 1 .79 3.38 1.69 1.6-.18-.39-.53-1.18-.71-1.57l1.03-.52c1.48-3.24 3.97-5.82 5.64-8.94.78-1.85 3.02-2.11 4.6-2.96z" fill="#553a21"/><path d="m51.14 198.14.42.1c-.13.07-.39.21-.53.28z" fill="#553a21"/><path d="m183.83 200.9c4.85 1.79 5.08 9.79 1.05 12.2.89-2.24 2.05-4.52 1.75-7.01-.26-2.07-2.2-3.27-2.8-5.19z" fill="#553a21"/><path d="m52.39 207.29c1.84.53 4.05 2.83 2.77 4.81-.75 1.74-2.77 1.82-4.35 2.24 2.19 1.91 5.15 3.71 5.42 6.92.32 2.09-1.67 3.32-3.22 4.21.44.86.89 1.73 1.35 2.59-1.42 3.17-5.18 4.07-7.12 6.88-1.41-.09-2.82-.17-4.22-.25v-.45c2.2.29 4.52-.04 5.87-2-2.49-.68-5.19-1.26-7.04-3.22 2.11.58 4.05 1.61 6.11 2.33 2.41.16 4.26-1.68 5.78-3.29-2.32-3.82-7.62-2.09-10.74-4.9 3.32.49 6.54 2.17 9.96 1.52 1.15-.92 2.92-1.98 2.51-3.73-1.05-3.03-3.97-4.65-6.33-6.55-1.76.25-3.48.71-5.19 1.21 1.67-2.09 4.4-3.36 7.01-2.28 1.74.69 2.82-1.27 4-2.12-.84-1.32-1.69-2.63-2.57-3.92z" fill="#553a21"/><path d="m155.93 219.61c1.37 1.62 2.74 3.25 4.26 4.73 2.33 2.89 6.02 2.33 9.23 1.68 8.21-.55 15.96-3.64 24.08-4.75-.5.23-1.52.69-2.02.92-9.14 1.79-18.12 4.75-27.51 5.02-3.68-.75-5.8-4.22-8.23-6.76z" fill="#553a21"/><path d="m69.21 269.16c.92.07 1.85.16 2.77.24-.54.01-1.61.01-2.15.02.24 1.48.48 2.97.72 4.46.86 4.64 1.27 9.37 2.4 13.96 3.26 3.95 10.18 2.35 12.55-1.78-.19-3.81-1.05-7.56-1.51-11.34l.59.06c.66 3.88.98 7.81 1.69 11.69 2.09.53 4.24 1.03 6.06 2.24-2.56-.46-5.72-2.66-7.9-.26-3.56 3.15-9.8 3.33-12.71-.81.06-6.23-1.73-12.32-2.51-18.48z" fill="#553a21"/><path d="m135 271.87c.19.53.57 1.58.76 2.11-.32-.38-.95-1.14-1.27-1.53z" fill="#553a21"/><path d="m135.76 273.98c.24.56.72 1.66.96 2.21-.24-.55-.72-1.65-.96-2.21z" fill="#553a21"/><path d="m136.72 276.19c1.68.56 2.28 2.47 1.41 3.99-.81-.6-1.35-1.37-1.62-2.31.06-.42.16-1.26.21-1.68z" fill="#553a21"/><path d="m122.48 278.76.58-.08c1.09.88 1.43 1.98 1.04 3.28-1.39-.34-1.84-1.94-1.62-3.2z" fill="#553a21"/><path d="m138.13 280.18c1.56 1.98 2.2 4.47 2.63 6.91-1.04-2.24-1.97-4.53-2.63-6.91z" fill="#553a21"/><path d="m124.1 281.96c.93.52 1.54 1.31 1.84 2.37-.02.42-.07 1.27-.09 1.69-1.75-.32-2.09-2.62-1.75-4.06z" fill="#553a21"/><path d="m125.85 286.02c2.15 3.63 2.88 7.97 5.45 11.35-4.58 2.1-4.04 8.2-4.99 12.4l-.09.64c-.03-3.58.01-7.32 1.71-10.57.49-1.28 1.72-2.32 1.7-3.75-1.17-3.39-3.12-6.5-3.78-10.07z" fill="#553a21"/><path d="m140.76 287.09c.57.71 1.13 1.43 1.67 2.17 2.73 5.93-5.76 11.51-10.72 8.61 4.27.71 9.48-1.31 10.63-5.79-.47-1.68-1.05-3.34-1.58-4.99z" fill="#553a21"/><path d="m225.32 92.9c.49 2.04 1.29 4.03 2.47 5.78 1.18 2.18 3.25 3.59 5.35 4.79-2.63 2.62-6.16 4.22-9.83 4.64 1.49-4.9 2.44-10.09 2.01-15.21z" fill="#fdd1b5"/><path d="m158.81 115.17c1.31-8.56 11.05-14.27 19.29-12.13 1.67.61 4.2.54 4.89 2.54-8.82.51-17.2 4.31-24.18 9.59z" fill="#4a341f"/><path d="m36.68 188.01c3.4-2.58 6.71-5.45 10.72-7.03-5.66 4.04-11.76 7.76-16.13 13.29-1.37 1.95-3.1 4.18-2.61 6.73 1.14 5.02 3.14 9.79 4.74 14.67v.95c-2.21-5.41-4.26-10.93-5.55-16.64 1.04-5.06 5.07-8.74 8.83-11.97z" fill="#4a341f"/><path d="m102.34 104.4c12.28-4.17 26.6 6.59 25.62 19.59.26 10.88-10.13 20.36-20.87 19.54-10.75-.22-20.18-10.68-18.8-21.46.32-8.1 6.35-15.4 14.05-17.67m-1.79 4.47-.34.35c-4.58 1.59-8.51 5.67-8.98 10.63-1.8 7.69 4.91 15.74 12.7 15.82 6.36.42 13.29-4.5 13.79-11.07 1.32-2.63.15-5.96-.84-8.61-2.74-6.07-10.12-8.56-16.33-7.12z" fill="#fff"/><path d="m169.25 115.27c4.98-2.09 11.12-.11 14.21 4.26 6.43 8.85 4.16 22.87-4.79 29.2-3.89 2.83-9.68 3.15-13.58.18-3.49-2.44-5.2-6.56-6.59-10.43l1.39.34c1.18 2.4 2.89 4.75 5.52 5.68 3.65 1.41 7.72-.53 10.02-3.44 3.06-3.51 3.51-8.5 3.07-12.94-.62-3.93-3.36-8.07-7.54-8.69-2.45-.55-4.96.18-6.97 1.61 0 .25-.01.74-.02.99-.16.14-.47.42-.63.57-.6.55-1.81 1.65-2.41 2.21l-.26-1.57c2.19-3.25 4.9-6.38 8.58-7.97z" fill="#fff"/><path d="m156.65 151.3c.19.32.58.97.77 1.29.33.2.98.6 1.3.8l-1.13-.13c1 2.26-.87 3.26-2.51 4.19-2.86-.17-5.7-2.98-3.13-5.53 1.76-.17 3.49.06 5.17.7z" fill="#fff"/><path d="m106.22 160.31c.83-1.08 1.67-2.16 2.5-3.25 11.78 4.88 23.29 10.71 35.7 13.81-.18 3.25-3.72 2.22-5.84 1.79-10.91-2.78-21.24-7.36-31.71-11.43z" fill="#fff"/><path d="m160.93 286.64c6.32-.28 13.61 1.94 16.56 8.02-3.05 2.19-5.47 5.1-8.43 7.4-3.6 2.63-7.75 4.36-11.69 6.4-1.74-7.35-1.74-15.85 3.56-21.82z" fill="#fff"/><path d="m67.89 299.82c5.32-3.37 12.22-2.69 17.85-.48 6.04 2.43 9.7 8.56 10.88 14.75.04.65.13 1.95.17 2.6-12.47.23-25.25-.75-36.92-5.44.42-1.47.89-2.92 1.48-4.33 1.71-2.74 3.72-5.42 6.54-7.1z" fill="#fff"/><path d="m100.55 108.87c6.21-1.44 13.59 1.05 16.33 7.12.99 2.65 2.16 5.98.84 8.61-1.27 1.48-2.29 3.14-3.45 4.69-1.43 1.23-3.42 1.39-5.16 1.93.19-.95.38-1.91.57-2.86-2.68-.54-5.57-.98-7.48-3.13l-.29.65c-1.41-2.38-4-1.99-6.22-1.03-.76.24-1.52.48-2.28.72.26-2.95-.59-5.92.05-8.84 2.64.19 5.08-.8 7.44-1.83.12.74.36 2.21.48 2.95.5-1.82.92-3.99 3.32-3.88-1.78 3.09-.9 7.42 2.5 8.93 4.47 2.78 10.78-3.19 8-7.74-1.46-3.4-5.99-4.84-9.07-2.69.28-.66.84-1.98 1.12-2.64-2.18-.33-4.96.75-6.7-.96z" fill="#1e2534"/><path d="m1.8 126.47c-.75-6.24-.89-13.26 2.68-18.69.69 3.82-1.7 7.32-1.37 11.15-.28 2.52.82 5.59-1.31 7.54z" fill="#cff1ef"/><path d="m91.23 119.85c.47-4.96 4.4-9.04 8.98-10.63-2.25 2.5-5.23 4.41-6.75 7.51-.64 2.92.21 5.89-.05 8.84.76-.24 1.52-.48 2.28-.72.61 1.41.5 3.57 2.33 4.04 1.95 1.04 3.34-1.48 3.89-3.01l.29-.65c1.91 2.15 4.8 2.59 7.48 3.13-.19.95-.38 1.91-.57 2.86 1.74-.54 3.73-.7 5.16-1.93 1.16-1.55 2.18-3.21 3.45-4.69-.5 6.57-7.43 11.49-13.79 11.07-7.79-.08-14.5-8.13-12.7-15.82z" fill="#0f1117"/><path d="m100.21 109.22.34-.35c1.74 1.71 4.52.63 6.7.96-.28.66-.84 1.98-1.12 2.64-.47.51-.95 1.01-1.43 1.5-2.4-.11-2.82 2.06-3.32 3.88-.12-.74-.36-2.21-.48-2.95-2.36 1.03-4.8 2.02-7.44 1.83 1.52-3.1 4.5-5.01 6.75-7.51z" fill="#33405c"/><path d="m42.58 233.94.44.3v.45c-1.2 7.77 2.1 15.89 8.53 20.44.92 3.97 2.76 7.95 6.35 10.16 4.19 3.03 9.48 3.3 14.45 3.53 4.14 3.28 9.15 5.67 14.56 5.42 3.59-.45 6.6 2.14 10.14 2.2 3.59.33 6.98-1.02 10.4-1.82 5.09 2.36 10.81 4.79 16.5 3.18 5.57-1.03 9.62-5.26 13.26-9.26l-.03.76c-.73.85-1.46 1.71-2.18 2.57l-.51.58c-3.05 3.2-6.99 5.62-11.43 6.23l-.58.08c-5.37.48-10.52-1.33-15.28-3.62-5.81 2.21-12.59 2.52-18.13-.62-1.5.12-2.99.21-4.49.26l-.59-.06c-.69-.08-2.07-.23-2.75-.31-3.44-.94-6.47-2.85-9.26-5.01-.92-.08-1.85-.17-2.77-.24-7.02-.19-15.08-3.44-17.18-10.8-.7-4.08-5.02-5.74-6.77-9.24-2.95-4.5-3-10.01-2.68-15.18z" fill="#33405c"/><path d="m142.43 289.26c6.59-3.19 14.15-3.95 21.39-3.52 5.24.64 11.02 2.53 13.82 7.39 2.41 3.7 1.39 8.86-1.87 11.71-5.58 5.04-12.52 8.21-19.29 11.28-6.37 2.12-12.7 4.78-19.45 5.34-3.43.36-6.88-1.43-8.48-4.49 1.21.22 2.43.45 3.64.68l-1.84.3c1.95 2.66 5.55 2.95 8.56 2.47 8.18-1.36 15.89-4.61 23.42-7.97 4.52-2.33 9.08-4.8 12.79-8.34 1.88-1.74 2.98-4.17 3.16-6.73-2.17 1.43-3.29 3.92-5.35 5.48-4.92 3.75-10.29 7.04-16.17 9.05.31-.32.95-.95 1.26-1.27 7.1-3.79 15.32-7.31 19.35-14.72l.12-1.26c-2.95-6.08-10.24-8.3-16.56-8.02-6.34-.71-12.35 1.59-18.5 2.62z" fill="#33405c"/><path d="m106.13 112.47c3.08-2.15 7.61-.71 9.07 2.69 2.78 4.55-3.53 10.52-8 7.74-3.4-1.51-4.28-5.84-2.5-8.93.48-.49.96-.99 1.43-1.5z" fill="#f7fafb"/><path d="m169.97 122.81c1.14-.86 2.47-1.68 3.9-.85 5.4 2.17 3.1 12.32-2.89 11.04-3.19-1.77-3.46-5.98-2.02-8.99.25-.3.76-.9 1.01-1.2z" fill="#f7fafb"/><path d="m163.99 121.04c2.01-1.43 4.52-2.16 6.97-1.61 4.18.62 6.92 4.76 7.54 8.69.44 4.44-.01 9.43-3.07 12.94l-.14-1.14c-1.58.33-3.16.65-4.74.94-.05-.38-.14-1.14-.19-1.52-1.39-1.05-2.26-2.53-2.81-4.17-.12.22-.36.65-.49.86-.91-.69-1.54-2.13-2.86-2.02-1.59.65-1.45 2.64-1.41 4.04-.97-2.68-1.79-5.57-4.02-7.51.23-.62.68-1.86.91-2.48.44-1.07.87-2.15 1.25-3.25.6-.56 1.81-1.66 2.41-2.21-1.41 2.89-2.34 6.01-2.07 9.26.69-2.59 2.22-5.35 5.19-5.61.57-1.49 1.49-2.8 2.8-3.74l-.3 1.5c-1.44 3.01-1.17 7.22 2.02 8.99 5.99 1.28 8.29-8.87 2.89-11.04-1.43-.83-2.76-.01-3.9.85.01-.66.02-1.98.03-2.64-2.04.52-4.04 1.18-6.03 1.86.01-.25.02-.74.02-.99z" fill="#1c2332"/><path d="m163.97 122.03c1.99-.68 3.99-1.34 6.03-1.86-.01.66-.02 1.98-.03 2.64-.25.3-.76.9-1.01 1.2l.3-1.5c-1.31.94-2.23 2.25-2.8 3.74-2.97.26-4.5 3.02-5.19 5.61-.27-3.25.66-6.37 2.07-9.26.16-.15.47-.43.63-.57z" fill="#313e59"/><path d="m95.69 124.85c2.22-.96 4.81-1.35 6.22 1.03-.55 1.53-1.94 4.05-3.89 3.01-1.83-.47-1.72-2.63-2.33-4.04z" fill="#4a4f55"/><path d="m72.08 136.13c4.45-3.63 11.16-3.3 15.52.29 3.99 1.54 3.77 6.35 4.91 9.77-1.61 2.73-2.86 5.96-5.83 7.54-2.96 2.36-6.99 1.86-10.41 1.04-.87-1.26-1.13-2.85-1.85-4.2-.48-2.74-.75-5.5-.86-8.28.07-2.16-.77-4.17-1.48-6.16z" fill="#fac1a7"/><path d="m164.2 134.01c1.32-.11 1.95 1.33 2.86 2.02-.7 1.8-1.79 3.25-3.93 3.09l-.34-1.07c-.04-1.4-.18-3.39 1.41-4.04z" fill="#4b4f56"/><path d="m138.09 148.99c6.04-2.51 13.18-1.2 18.56 2.31l.47 1.32c-1.68-.64-3.41-.87-5.17-.7-3.03-1.17-6.64-1.33-9.33.75-1.89 1.61-.84 4.52 1.08 5.59 3.4 2.57 8.33 2.04 11.38-.81 1.64-.93 3.51-1.93 2.51-4.19l1.13.13c.82 2.48 1.2 5.65-.8 7.69-2.86 3.3-7.63 3.96-11.76 3.7-5.2-.37-10.99-2.79-13.04-7.95-.81-3.52 1.88-6.61 4.97-7.84z" fill="#32231b"/><path d="m75.54 186.19c11.04 5.61 22.58 10.33 34.75 12.86-7.77-.47-15.04-3.59-22.24-6.3-4.26-1.96-8.86-3.52-12.51-6.56z" fill="#32231b"/><path d="m142.62 152.67c2.69-2.08 6.3-1.92 9.33-.75-2.57 2.55.27 5.36 3.13 5.53-3.05 2.85-7.98 3.38-11.38.81-1.92-1.07-2.97-3.98-1.08-5.59z" fill="#553339"/><path d="m106.1 160.98.77.25c10.47 4.07 20.8 8.65 31.71 11.43 2.12.43 5.66 1.46 5.84-1.79.83.43 1.66.87 2.5 1.3-.96 3.8-2.5 7.65-5.7 10.13-5.09 3.88-11.76 4.31-17.88 5.05-1.03-10.08-10.36-16.62-19.59-18.62.84-2.56 1.63-5.15 2.35-7.75z" fill="#9d3f3f"/><path d="m204.56 166.21c.17-.15.51-.44.68-.59l-.02.61z" fill="#688997" opacity=".81"/><path d="m205.99 165.12.63.02c-.16.14-.48.43-.64.57z" fill="#688997" opacity=".81"/><path d="m200.58 168.74c-2.08 1.61-1.49-2.05.4-.99z" fill="#4a6673" opacity=".71"/><path d="m200.1 172.09c.11-.51.31-1.53.42-2.04.13.48.39 1.43.52 1.9z" fill="#4a6673" opacity=".71"/><path d="m103.75 168.73c9.23 2 18.56 8.54 19.59 18.62-7.44-.18-16.01-3.41-18.92-10.85-1.28-2.4-.74-5.18-.67-7.77z" fill="#de7a6c"/><path d="m196.25 180.2.53-.09c-.11.15-.32.46-.42.62z" fill="#6e8e9c" opacity=".82"/><path d="m189.09 185.14c.45-.26 1.34-.78 1.79-1.04-.45.26-1.34.78-1.79 1.04z" fill="#59798a" opacity=".76"/><path d="m186.31 186.29c.42-1.54 1.34-1.92 2.78-1.15-.69.92-1.61 1.3-2.78 1.15z" fill="#59798a" opacity=".76"/><path d="m72.84 185.14.98-.35 1.24 1.12c-.49-.01-1.45-.04-1.93-.05z" fill="#39444d"/><path d="m73.13 185.86c.48.01 1.44.04 1.93.05l.48.28c3.65 3.04 8.25 4.6 12.51 6.56 7.2 2.71 14.47 5.83 22.24 6.3l.5.08c.7.37 1.4.76 2.1 1.15-2.57 1.5-4.85 3.46-6.57 5.89-9.94-2.2-19.71-6.22-27.42-13.02-2.3-2.08-4.58-4.37-5.77-7.29z" fill="#2175ae"/><path d="m142.43 289.26c6.15-1.03 12.16-3.33 18.5-2.62-5.3 5.97-5.3 14.47-3.56 21.82l-.24.14c-5.23 3.18-11.18 4.96-17.08 6.43-4.2 1.09-8.76 1.18-12.73-.78-.42-1.47-.74-2.98-1.01-4.48.95-4.2.41-10.3 4.99-12.4l.41.5c4.96 2.9 13.45-2.68 10.72-8.61z" fill="#2175ae"/><path d="m70.91 288.03.81-.39c2.91 4.14 9.15 3.96 12.71.81 2.18-2.4 5.34-.2 7.9.26 4.43 2.63 7.75 7.03 8.92 12.06.32 3.38.38 6.79.38 10.19-1.67 1.03-3.34 2.08-5.01 3.13-1.18-6.19-4.84-12.32-10.88-14.75-5.63-2.21-12.53-2.89-17.85.48-2.82 1.68-4.83 4.36-6.54 7.1-.9-.67-1.8-1.34-2.71-2 2.14-6.84 7.12-12.15 12.27-16.89z" fill="#2175ae"/><path d="m59.32 191.59c.21-.08.63-.23.84-.3-.21.07-.63.22-.84.3z" opacity=".13"/><path d="m60.95 191.24.41-.11-.09.26-.16.23z" opacity=".13"/><path d="m58.07 193.24.52.32c-.17.06-.5.18-.67.24z" opacity=".13"/><path d="m57.46 193.7.46.1c-.16.13-.48.39-.64.52z" opacity=".13"/><path d="m51.14 198.14c.16-.12.48-.35.64-.46l-.22.56z" opacity=".13"/><path d="m50.52 198.56c.15-.11.46-.32.62-.42l-.11.38z" opacity=".13"/><path d="m101.25 300.77c1.56 4.87.4 10.03 1.01 15.03l1.84-2.12c7.22-.13 14.45-.06 21.67.07.16-1.12.31-2.23.45-3.34l.09-.64c.27 1.5.59 3.01 1.01 4.48.38.91.79 1.82 1.23 2.72 1.6 3.06 5.05 4.85 8.48 4.49 6.75-.56 13.08-3.22 19.45-5.34 3.75.99 6.9-2.44 10.58-2.79 5.97-.54 12.01-.18 17.94.71 7.5.29 14.98 1.28 22.35 2.67 2.46.46 5.87 1.93 5.34 5.01-1.95 2.69-5.68 2.74-8.63 3.47-9.65 1.19-19.3 2.78-29.04 2.67-7.3 1.21-14.7.94-22.07.96-3.67-.04-7.26.9-10.93.9-15.69.14-31.38-.05-47.06.07-3.01.05-5.93-.7-8.91-.91-7.34-.29-14.75.46-22.02-.82-3.63-.55-7.33-.06-10.97-.56-8.82-1.16-17.97-1.17-26.44-4.18-2.46-.83-1.83-4.52.18-5.51 9.89-3.5 20.64-2.52 30.75-4.77 1.03 1.68 2.23 3.38 4.14 4.13 9.15 4.2 19.36 4.89 29.28 5.15 2.98-.02 6.4-.52 8.25-3.16.23-.32.7-.96.94-1.27 1.1-2.14 1.48-4.55 1.47-6.93 0-3.4-.06-6.81-.38-10.19z" opacity=".13"/><path d="m174.54 191.74.45-.39c1.91 0 3.99.31 5.24 1.94-2.06.17-4.24-.08-6.01-1.24z" fill="#f2dfc4"/><path d="m131.24 201.15c5.39.13 10.76-.52 16.09-1.29-3.1 3.45-7.5 5.19-11.84 6.5-1.36-1.78-3.09-3.28-4.25-5.21z" fill="#2179b1"/><path d="m105.79 210.2c.89-4.84 5.93-10.41 11.41-9.64-1.06 1.25-2.06 2.55-3.08 3.83.64.86.77 2.31 1.97 2.59 1.94.84 3.49-1.08 4.84-2.16-.64-1.45-1.32-2.88-2.09-4.26 3.74.96 7.66.3 11.37 1.34-.45.38-1.35 1.16-1.8 1.54 3.73 3.98 4.38 9.76 4.3 14.97l-.75.57c.24-2.13-.16-4.73-2.41-5.64-2.65-1.49-5.79.87-6.13 3.62.07 2.13 1.63 4.13 3.83 4.36l.17 1.06c-.26 1.07-.51 2.15-.76 3.23-7.01 2.64-16.87 1.02-19.77-6.76 1.49.23 2.98.47 4.48.72.77-2.31 1.79-4.53 2.92-6.68.1-1.72-.29-3.97-2.38-4.18-2.45-.87-3.69 1.93-5.08 3.38-.26-.47-.78-1.42-1.04-1.89z" fill="#f2bb67"/><path d="m117.2 200.56h1.64c.77 1.38 1.45 2.81 2.09 4.26-1.35 1.08-2.9 3-4.84 2.16-1.2-.28-1.33-1.73-1.97-2.59 1.02-1.28 2.02-2.58 3.08-3.83z" fill="#f6d68d"/><path d="m130.21 201.9c1.99 1.83 4.43 3.8 4.78 6.66 1.32 6.83-.53 14.4-6.17 18.81-.08-1.82-.21-3.64-.26-5.46.82-1.28 2.26-1.97 3.4-2.93l.75-.57c.08-5.21-.57-10.99-4.3-14.97.45-.38 1.35-1.16 1.8-1.54z" fill="#efb052"/><path d="m106.83 212.09c1.39-1.45 2.63-4.25 5.08-3.38 2.09.21 2.48 2.46 2.38 4.18-2.5-1.21-5.09-.73-7.21.96l-.42-.98z" fill="#f9eaa1"/><path d="m134.99 208.56c5.44 6.51 1.12 18.57-6.79 21.3.16-.62.47-1.87.62-2.49 5.64-4.41 7.49-11.98 6.17-18.81z" fill="#d98522"/><path d="m200.57 210.28c2.73-.72 5.6-.22 8.31.35 2.39.53 2.47 3.88.28 4.74-3.33 1.66-7.22.87-10.81 1.11l.33-1.26c3.33-1.07 8.99 1.25 10.43-3.02-2.71-.85-6.98.95-8.54-1.92z" fill="#fce1c6"/><path d="m109.44 227.47c-4.39-4.3-6.8-11.78-3.65-17.27.26.47.78 1.42 1.04 1.89l-.17.78c-.74 1.97-.56 4.06.23 5.98 2.9 7.78 12.76 9.4 19.77 6.76.25-1.08.5-2.16.76-3.23l.62-.52c.54 3.32-.04 6.7-1.9 9.52-5.77.85-12.37.5-16.7-3.91z" fill="#eba73f"/><path d="m107.08 213.85c2.12-1.69 4.71-2.17 7.21-.96-1.13 2.15-2.15 4.37-2.92 6.68-1.5-.25-2.99-.49-4.48-.72-.79-1.92-.97-4.01-.23-5.98z" fill="#f6d48a"/><path d="m34.74 217.56.98.03c.18.39.53 1.18.71 1.57-.9 1.78-2.02-.6-1.69-1.6z" fill="#f5e9d9"/><path d="m160.19 224.34c3.13.19 6.31.43 9.23 1.68-3.21.65-6.9 1.21-9.23-1.68z" fill="#fde6cc"/><path d="m69.83 269.42c.54-.01 1.61-.01 2.15-.02 2.79 2.16 5.82 4.07 9.26 5.01-3.57.93-7.3 1.17-10.69-.53-.24-1.49-.48-2.98-.72-4.46z" fill="#f6b193"/><path d="m123.06 278.68c4.44-.61 8.38-3.03 11.43-6.23.32.39.95 1.15 1.27 1.53.24.56.72 1.66.96 2.21-.05.42-.15 1.26-.21 1.68.23 5.52-6.41 6.39-10.57 6.46-.3-1.06-.91-1.85-1.84-2.37.39-1.3.05-2.4-1.04-3.28z" fill="#f8b395"/><path d="m169.06 302.06c2.96-2.3 5.38-5.21 8.43-7.4l-.12 1.26c-4.03 7.41-12.25 10.93-19.35 14.72-.22-.51-.66-1.53-.89-2.04l.24-.14c3.94-2.04 8.09-3.77 11.69-6.4z" fill="#bebcbb"/><path d="m172.93 302.86c2.06-1.56 3.18-4.05 5.35-5.48-.18 2.56-1.28 4.99-3.16 6.73-3.71 3.54-8.27 6.01-12.79 8.34-7.53 3.36-15.24 6.61-23.42 7.97-3.01.48-6.61.19-8.56-2.47l1.84-.3c8.62 1.2 16.73-2.77 24.57-5.74 5.88-2.01 11.25-5.3 16.17-9.05z" fill="#849da8"/></svg>