<?xml version="1.0" encoding="UTF-8" ?>
<!DOCTYPE svg PUBLIC "-//W3C//DTD SVG 1.1//EN" "http://www.w3.org/Graphics/SVG/1.1/DTD/svg11.dtd">
<svg width="234pt" height="219pt" viewBox="0 0 234 219" version="1.1" xmlns="http://www.w3.org/2000/svg">
<g id="#919207ff">
<path fill="#919207" opacity="1.00" d=" M 74.68 0.00 L 83.01 0.00 C 86.48 1.14 90.08 2.42 93.79 1.82 C 100.61 0.87 107.61 -0.23 114.40 1.54 C 122.64 3.50 130.76 -0.95 139.00 0.82 C 144.79 1.89 150.74 2.53 156.58 1.38 C 162.75 0.11 169.98 2.03 173.67 7.39 C 175.82 10.49 175.45 14.42 175.61 18.00 C 175.50 22.38 179.72 24.95 181.22 28.75 C 183.89 33.71 182.13 39.45 183.16 44.72 C 184.74 48.08 187.54 50.85 188.33 54.59 C 189.93 60.02 188.32 65.61 188.03 71.10 C 188.02 71.58 188.01 72.55 188.01 73.04 C 189.82 77.70 192.44 82.12 193.23 87.13 C 193.16 87.79 193.02 89.13 192.95 89.80 C 192.48 92.86 191.37 95.82 191.17 98.93 C 191.75 102.87 194.10 106.32 194.64 110.28 C 194.73 113.38 193.70 116.47 194.38 119.56 C 194.91 122.32 194.99 125.13 194.94 127.94 C 193.93 128.69 192.93 129.45 191.91 130.17 C 187.30 133.78 181.69 131.15 177.22 128.81 C 176.27 128.39 175.31 128.01 174.34 127.65 C 171.19 127.98 168.16 129.01 164.99 129.17 C 161.21 129.46 157.47 128.69 153.74 128.21 C 153.17 128.22 152.03 128.24 151.45 128.25 C 146.84 128.70 142.24 129.40 137.60 129.29 C 136.15 129.09 134.72 128.83 133.30 128.53 C 130.18 127.94 127.18 126.70 124.00 126.51 C 120.78 126.75 117.71 127.85 114.59 128.60 C 112.93 129.03 111.27 129.46 109.60 129.86 C 105.01 129.62 100.79 127.27 96.18 127.26 C 92.42 127.95 88.86 129.78 84.93 129.43 C 84.56 129.45 83.82 129.48 83.46 129.50 C 76.87 130.66 74.02 137.36 69.06 141.03 C 66.17 143.11 64.13 146.05 62.02 148.87 C 61.01 149.42 60.00 149.97 59.00 150.52 C 57.43 148.85 55.56 147.17 55.12 144.81 C 54.50 140.97 55.64 136.84 53.80 133.24 C 52.34 129.85 49.45 127.39 47.58 124.26 C 45.44 119.64 47.09 114.06 44.45 109.59 C 42.22 105.78 39.41 102.32 37.57 98.27 C 38.88 98.30 40.18 98.29 41.48 98.25 C 43.40 102.07 45.76 105.69 47.23 109.72 C 48.57 113.37 48.78 117.32 50.17 120.95 C 51.98 125.51 55.53 129.12 57.23 133.74 C 58.63 137.54 59.26 141.56 60.23 145.48 C 64.44 141.18 70.36 138.80 73.72 133.66 C 75.62 131.00 77.96 128.71 80.48 126.64 C 79.05 122.20 78.95 117.53 79.11 112.92 C 79.48 106.76 73.03 102.99 72.72 97.02 C 72.42 94.02 72.83 90.91 71.93 87.99 C 70.46 84.13 66.92 81.44 65.61 77.50 C 64.47 73.64 64.78 69.47 63.37 65.67 C 61.54 61.14 57.65 57.95 55.14 53.85 C 53.37 50.90 53.54 47.33 52.97 44.05 C 52.56 37.96 45.30 35.97 43.46 30.55 C 42.23 26.92 42.23 22.61 39.30 19.76 C 36.11 16.51 32.99 13.12 31.08 8.92 C 28.79 14.73 26.66 20.74 22.61 25.61 C 18.76 30.12 18.35 36.33 15.31 41.28 C 13.84 44.21 11.40 47.23 12.15 50.71 C 13.22 54.91 17.19 57.17 20.20 59.88 C 22.57 61.81 23.29 64.91 24.42 67.61 C 25.62 70.90 27.71 73.76 29.87 76.49 C 29.22 77.28 28.58 78.07 27.95 78.87 C 25.92 76.22 23.94 73.53 22.27 70.64 C 20.98 68.39 20.84 65.69 19.60 63.42 C 17.99 61.63 15.85 60.44 14.01 58.91 C 10.66 56.46 9.15 52.06 9.50 48.03 C 9.98 44.57 13.04 42.28 14.01 39.02 C 15.15 35.24 15.63 31.18 17.77 27.78 C 19.58 24.67 22.72 22.41 23.90 18.92 C 25.88 13.23 26.78 6.69 31.25 2.27 C 35.54 -1.10 41.05 2.32 45.88 1.92 C 50.87 1.28 55.87 -0.17 60.94 0.74 C 65.52 1.53 70.15 0.83 74.68 0.00 M 53.74 2.84 C 49.98 3.75 46.09 4.46 42.23 3.69 C 39.08 3.00 35.85 3.27 32.76 4.17 C 33.27 9.59 36.21 14.27 40.26 17.78 C 43.89 20.79 43.69 25.79 45.23 29.86 C 47.29 34.48 52.71 36.60 54.51 41.39 C 55.42 44.67 55.06 48.24 56.52 51.38 C 58.60 55.82 62.43 59.17 64.49 63.62 C 66.31 67.73 65.81 72.41 67.30 76.62 C 68.65 79.50 71.02 81.77 72.39 84.66 C 74.92 89.78 73.27 95.91 75.86 101.02 C 77.70 104.90 81.22 108.33 80.80 112.95 C 81.06 117.28 79.71 122.52 83.00 126.02 C 86.06 128.65 90.27 126.45 93.66 125.71 C 98.67 123.91 103.95 125.27 109.04 125.87 C 114.13 126.48 118.91 123.83 123.99 124.18 C 129.73 124.51 135.32 126.10 141.06 126.42 C 145.23 126.86 149.37 126.07 153.48 125.53 C 157.07 125.05 160.52 126.51 164.06 126.83 C 168.37 127.20 172.45 124.80 176.75 125.30 C 181.39 126.45 186.46 129.83 191.20 127.25 C 194.36 125.53 192.57 121.64 192.01 118.96 C 190.30 114.47 193.14 109.55 190.79 105.19 C 188.06 99.72 190.09 93.70 190.12 87.95 C 190.40 81.50 186.22 76.04 185.29 69.79 C 184.29 65.25 186.41 60.75 185.81 56.21 C 184.53 50.11 179.65 45.30 179.17 38.98 C 178.90 34.94 179.16 30.63 176.97 27.03 C 175.30 23.38 171.55 20.41 172.00 16.06 C 171.98 12.29 172.58 7.49 168.83 5.19 C 163.41 1.57 156.85 4.62 150.97 4.91 C 145.72 5.63 140.93 3.01 135.90 2.14 C 130.49 1.98 125.52 5.01 120.11 4.83 C 115.69 4.41 111.52 2.46 107.04 2.54 C 100.97 2.68 95.08 4.77 88.98 4.47 C 85.21 4.27 81.70 2.59 77.93 2.37 C 73.25 2.41 68.77 4.64 64.05 3.93 C 60.62 3.51 57.22 1.92 53.74 2.84 Z" />
<path fill="#919207" opacity="1.00" d=" M 32.38 33.28 C 37.07 31.88 41.31 35.98 43.13 39.93 C 45.65 44.67 45.45 51.59 40.58 54.76 C 34.99 57.16 29.73 51.75 28.14 46.80 C 26.37 42.15 27.08 35.23 32.38 33.28 Z" />
<path fill="#919207" opacity="1.00" d=" M 36.40 74.67 C 37.54 72.58 38.01 67.18 41.38 68.85 C 45.19 70.51 45.24 75.36 46.13 78.84 C 43.03 77.13 39.76 75.76 36.40 74.67 Z" />
<path fill="#919207" opacity="1.00" d=" M 53.45 83.30 C 56.02 81.93 59.30 79.65 62.12 81.77 C 68.44 86.58 70.03 95.98 67.11 103.12 C 66.01 105.96 62.95 108.86 59.72 107.39 C 54.91 105.25 53.52 99.58 52.39 94.93 C 54.50 93.59 57.13 91.84 57.01 89.01 C 57.09 86.56 55.17 84.76 53.45 83.30 Z" />
<path fill="#919207" opacity="1.00" d=" M 61.36 119.02 C 62.57 118.34 64.37 118.41 65.19 119.66 C 67.44 122.59 68.07 127.57 64.80 130.04 C 60.14 129.41 58.32 122.26 61.36 119.02 Z" />
</g>
<g id="#fff253ff">
<path fill="#fff253" opacity="1.00" d=" M 53.74 2.84 C 57.22 1.92 60.62 3.51 64.05 3.93 C 68.77 4.64 73.25 2.41 77.93 2.37 C 81.70 2.59 85.21 4.27 88.98 4.47 C 95.08 4.77 100.97 2.68 107.04 2.54 C 111.52 2.46 115.69 4.41 120.11 4.83 C 125.52 5.01 130.49 1.98 135.90 2.14 C 140.93 3.01 145.72 5.63 150.97 4.91 C 156.85 4.62 163.41 1.57 168.83 5.19 C 172.58 7.49 171.98 12.29 172.00 16.06 C 171.55 20.41 175.30 23.38 176.97 27.03 C 179.16 30.63 178.90 34.94 179.17 38.98 C 179.65 45.30 184.53 50.11 185.81 56.21 C 186.41 60.75 184.29 65.25 185.29 69.79 C 186.22 76.04 190.40 81.50 190.12 87.95 C 190.09 93.70 188.06 99.72 190.79 105.19 C 193.14 109.55 190.30 114.47 192.01 118.96 C 192.57 121.64 194.36 125.53 191.20 127.25 C 186.46 129.83 181.39 126.45 176.75 125.30 C 172.45 124.80 168.37 127.20 164.06 126.83 C 160.52 126.51 157.07 125.05 153.48 125.53 C 149.37 126.07 145.23 126.86 141.06 126.42 C 135.32 126.10 129.73 124.51 123.99 124.18 C 118.91 123.83 114.13 126.48 109.04 125.87 C 103.95 125.27 98.67 123.91 93.66 125.71 C 90.27 126.45 86.06 128.65 83.00 126.02 C 79.71 122.52 81.06 117.28 80.80 112.95 C 81.22 108.33 77.70 104.90 75.86 101.02 C 73.27 95.91 74.92 89.78 72.39 84.66 C 71.02 81.77 68.65 79.50 67.30 76.62 C 65.81 72.41 66.31 67.73 64.49 63.62 C 62.43 59.17 58.60 55.82 56.52 51.38 C 55.06 48.24 55.42 44.67 54.51 41.39 C 52.71 36.60 47.29 34.48 45.23 29.86 C 43.69 25.79 43.89 20.79 40.26 17.78 C 36.21 14.27 33.27 9.59 32.76 4.17 C 35.85 3.27 39.08 3.00 42.23 3.69 C 46.09 4.46 49.98 3.75 53.74 2.84 M 131.84 5.99 C 132.28 7.88 132.74 9.78 133.18 11.68 C 131.35 12.12 129.53 12.61 127.72 13.14 C 127.10 11.41 126.47 9.69 125.81 7.97 C 125.16 8.23 123.84 8.74 123.18 9.00 C 124.09 10.69 124.97 12.40 125.83 14.12 C 121.97 16.77 119.34 20.73 117.77 25.09 C 114.97 20.67 110.74 17.48 106.26 14.90 C 106.33 12.45 106.25 10.01 106.00 7.57 C 103.84 9.10 104.21 11.72 104.23 14.04 C 102.18 13.53 100.11 13.09 98.02 12.79 C 97.26 10.61 97.10 7.90 94.69 6.86 C 94.78 8.86 95.02 10.84 95.33 12.82 C 93.30 13.23 91.28 13.73 89.26 14.24 C 88.41 12.57 87.55 10.91 86.70 9.24 C 86.21 9.49 85.22 9.99 84.73 10.24 C 85.59 11.93 86.48 13.61 87.37 15.28 C 77.20 21.02 75.92 34.96 80.62 44.68 L 81.46 44.90 C 74.85 46.39 68.66 51.05 66.71 57.72 C 65.63 61.04 66.60 65.43 70.00 66.97 C 73.26 68.82 77.03 67.49 80.34 66.53 C 77.76 66.15 75.10 66.16 72.57 65.48 C 69.89 64.46 67.93 61.47 68.55 58.58 C 69.70 52.56 74.90 47.65 80.95 46.71 C 84.23 45.91 88.49 46.65 90.00 50.05 C 91.30 52.23 90.16 54.71 89.62 56.93 L 90.34 56.69 C 97.13 61.64 107.11 63.24 114.35 58.35 C 118.58 55.87 121.08 51.36 122.36 46.76 C 125.06 50.63 128.78 53.60 132.78 56.05 C 130.73 57.42 128.62 58.70 126.74 60.30 C 133.07 58.11 138.48 53.81 143.56 49.53 C 149.36 44.69 153.02 37.07 160.44 34.37 C 163.24 33.01 167.09 34.92 167.32 38.10 C 167.77 42.14 165.18 45.73 162.47 48.45 C 156.55 53.96 149.41 58.03 141.88 60.93 C 138.61 62.31 135.09 63.14 132.04 65.03 C 142.44 64.08 152.11 59.43 160.74 53.77 C 160.67 54.93 162.08 56.32 163.24 55.73 C 163.91 54.66 162.65 53.23 161.56 53.11 C 164.75 50.37 167.47 47.00 168.93 43.02 C 174.66 43.58 181.34 47.38 180.95 53.93 C 181.04 58.20 177.05 60.34 173.97 62.37 C 176.08 61.92 178.52 61.80 180.09 60.11 C 183.41 56.52 183.13 50.51 180.09 46.84 C 177.50 43.66 173.43 42.16 169.46 41.66 C 170.26 38.64 169.47 35.09 166.81 33.23 C 164.63 31.38 161.66 32.06 159.14 32.58 C 156.92 24.48 151.44 17.31 143.90 13.49 C 144.35 11.74 144.89 10.01 145.14 8.23 C 142.01 5.88 142.01 10.72 141.68 12.70 C 139.83 12.33 137.97 12.02 136.09 11.78 C 135.49 9.44 134.91 7.10 134.29 4.77 C 133.68 5.07 132.45 5.68 131.84 5.99 M 53.33 8.29 C 50.83 8.78 49.45 11.51 50.03 13.89 C 51.08 19.25 55.27 24.60 61.01 25.08 C 64.09 25.60 65.75 21.77 64.84 19.22 C 63.57 13.99 59.12 8.20 53.33 8.29 M 162.00 8.50 C 161.28 10.61 159.82 12.86 160.72 15.15 C 161.43 17.22 163.53 18.27 165.10 19.60 C 165.55 17.50 166.48 15.36 166.04 13.18 C 165.24 11.23 163.44 9.95 162.00 8.50 M 60.95 29.26 C 60.09 32.02 58.78 35.43 61.17 37.84 C 62.72 40.41 65.79 40.55 68.46 40.42 C 67.93 38.10 67.67 35.64 66.46 33.55 C 65.21 31.50 62.90 30.50 60.95 29.26 M 169.25 46.17 C 168.73 47.79 169.29 48.34 170.93 47.82 C 171.45 46.21 170.89 45.66 169.25 46.17 M 84.39 48.07 C 82.40 48.46 83.26 51.55 85.15 50.91 C 87.18 50.56 86.30 47.38 84.39 48.07 M 171.04 50.41 C 169.69 51.35 171.30 53.59 172.61 52.54 C 173.95 51.60 172.33 49.37 171.04 50.41 M 176.24 49.92 C 175.76 51.55 176.32 52.10 177.94 51.57 C 178.43 49.94 177.87 49.39 176.24 49.92 M 75.29 51.00 C 73.40 51.33 73.68 54.61 75.77 53.83 C 77.66 53.52 77.38 50.19 75.29 51.00 M 81.48 53.08 C 79.71 53.39 80.20 56.32 82.02 55.74 C 83.84 55.46 83.35 52.42 81.48 53.08 M 165.75 53.92 C 166.79 54.83 167.84 55.73 168.90 56.63 C 163.94 61.76 157.78 65.59 151.16 68.19 C 139.24 73.27 125.78 72.86 113.24 70.65 C 102.96 68.34 92.22 65.89 83.62 59.45 C 85.18 58.32 86.77 57.22 88.26 55.99 C 84.38 56.64 80.16 57.96 78.41 61.85 C 79.68 61.25 80.93 60.61 82.17 59.95 C 89.12 72.75 95.69 85.87 104.51 97.52 C 109.65 103.97 115.22 110.46 122.63 114.36 C 129.79 118.21 138.38 119.11 146.24 117.16 C 153.42 115.49 159.28 109.92 162.31 103.33 C 168.40 88.49 168.48 72.23 170.00 56.51 C 171.67 57.03 173.33 57.57 175.03 58.03 C 172.64 55.39 169.40 53.62 165.75 53.92 M 84.32 92.00 C 81.61 94.52 81.39 99.27 84.12 101.87 C 85.81 104.20 89.93 102.97 90.23 100.12 C 91.90 96.42 88.93 90.14 84.32 92.00 M 179.40 92.25 C 176.13 94.62 174.53 99.71 176.62 103.29 C 178.94 106.66 184.26 104.83 185.56 101.45 C 186.66 98.40 186.63 94.11 183.63 92.14 C 182.25 91.82 180.76 91.80 179.40 92.25 M 95.32 104.13 C 91.22 105.28 91.24 110.46 92.01 113.82 C 92.65 117.03 95.88 120.64 99.41 119.40 C 105.85 115.92 103.04 103.26 95.32 104.13 M 181.26 113.42 C 180.75 115.39 180.83 117.45 180.73 119.47 C 182.34 118.92 184.80 119.43 185.62 117.54 C 186.07 115.58 186.00 113.55 186.10 111.56 C 184.51 112.13 182.39 111.99 181.26 113.42 M 141.99 122.20 C 134.19 122.64 126.82 119.66 119.61 117.11 C 130.87 127.34 150.98 128.00 161.29 116.02 C 155.14 118.82 148.84 121.76 141.99 122.20 Z" />
<path fill="#fff253" opacity="1.00" d=" M 205.32 71.49 C 210.86 69.38 216.75 66.86 222.80 68.01 C 224.19 69.30 224.51 71.28 224.86 73.06 C 225.52 78.25 225.55 83.51 225.13 88.73 C 228.14 90.43 230.96 92.85 231.65 96.41 C 232.86 99.90 230.89 103.36 228.34 105.63 C 228.72 103.16 229.17 100.67 228.98 98.16 C 227.98 100.46 227.66 103.09 226.08 105.11 C 224.52 106.96 221.87 106.62 219.71 106.61 C 221.05 104.13 222.41 101.55 222.05 98.63 C 220.27 101.64 218.64 106.67 214.26 106.04 C 210.23 103.61 211.97 98.39 214.60 95.60 C 214.89 97.64 215.13 99.69 215.52 101.72 C 216.47 98.24 216.95 94.13 214.49 91.13 C 214.48 92.11 214.45 94.09 214.43 95.08 L 212.21 95.28 C 212.84 92.64 213.64 89.40 216.63 88.55 C 218.05 87.64 219.58 88.57 221.03 88.90 C 221.14 83.90 220.62 78.87 218.99 74.12 C 219.59 73.43 220.19 72.74 220.80 72.06 C 216.25 72.73 211.69 73.52 207.38 75.18 C 206.69 73.95 206.01 72.72 205.32 71.49 Z" />
<path fill="#fff253" opacity="1.00" d=" M 11.31 83.34 C 12.64 80.28 16.35 80.97 19.03 80.91 C 24.49 81.25 29.78 82.82 35.12 83.92 C 37.30 84.14 35.86 87.00 36.07 88.34 C 30.08 87.24 24.20 85.25 18.07 85.03 C 15.44 84.65 14.07 87.44 13.57 89.58 C 12.32 94.60 11.08 99.82 11.86 105.02 C 16.35 104.74 22.16 103.66 25.19 107.94 C 26.84 109.65 25.42 111.75 24.70 113.52 C 22.77 111.86 23.13 109.35 23.01 107.08 C 20.87 109.67 20.37 113.06 19.84 116.27 C 20.87 115.28 21.89 114.28 22.93 113.30 C 22.99 114.86 23.04 116.42 23.08 117.98 C 21.27 119.64 18.87 120.88 16.42 119.73 C 14.78 118.28 14.05 116.15 12.89 114.36 C 12.82 116.74 13.29 119.07 13.77 121.39 C 11.87 120.74 9.53 120.56 8.27 118.81 C 7.46 117.38 7.01 115.78 6.40 114.27 C 5.69 116.20 4.98 118.15 4.19 120.06 C 3.20 118.49 1.74 116.96 1.95 114.95 C 1.72 110.65 6.65 108.20 6.63 103.96 C 6.63 96.86 8.37 89.77 11.31 83.34 Z" />
<path fill="#fff253" opacity="1.00" d=" M 177.85 152.49 C 185.82 145.73 194.58 139.03 205.03 136.87 C 209.71 135.90 208.85 142.21 209.09 145.20 C 207.40 145.65 205.73 146.17 204.11 146.82 C 203.88 145.05 203.50 143.32 203.04 141.60 C 194.51 144.32 186.28 148.45 179.82 154.74 C 179.33 154.18 178.34 153.06 177.85 152.49 Z" />
<path fill="#fff253" opacity="1.00" d=" M 92.34 191.53 C 93.63 191.89 94.92 192.26 96.21 192.63 C 90.50 201.75 85.24 211.59 76.68 218.42 C 74.97 216.62 73.73 214.47 72.73 212.21 C 74.13 210.95 75.58 209.74 77.08 208.60 C 76.75 209.91 76.42 211.23 76.09 212.56 C 83.23 207.10 87.77 199.09 92.34 191.53 Z" />
</g>
<g id="#000002ff">
<path fill="#000002" opacity="1.00" d=" M 131.84 5.99 C 132.45 5.68 133.68 5.07 134.29 4.77 C 134.91 7.10 135.49 9.44 136.09 11.78 C 137.97 12.02 139.83 12.33 141.68 12.70 C 142.01 10.72 142.01 5.88 145.14 8.23 C 144.89 10.01 144.35 11.74 143.90 13.49 C 151.44 17.31 156.92 24.48 159.14 32.58 C 161.66 32.06 164.63 31.38 166.81 33.23 C 169.47 35.09 170.26 38.64 169.46 41.66 C 169.33 42.00 169.06 42.68 168.93 43.02 C 167.47 47.00 164.75 50.37 161.56 53.11 C 161.35 53.27 160.94 53.60 160.74 53.77 C 152.11 59.43 142.44 64.08 132.04 65.03 C 135.09 63.14 138.61 62.31 141.88 60.93 C 149.41 58.03 156.55 53.96 162.47 48.45 C 165.18 45.73 167.77 42.14 167.32 38.10 C 167.09 34.92 163.24 33.01 160.44 34.37 C 153.02 37.07 149.36 44.69 143.56 49.53 C 138.48 53.81 133.07 58.11 126.74 60.30 C 128.62 58.70 130.73 57.42 132.78 56.05 C 128.78 53.60 125.06 50.63 122.36 46.76 C 121.08 51.36 118.58 55.87 114.35 58.35 C 107.11 63.24 97.13 61.64 90.34 56.69 C 90.78 56.54 91.67 56.26 92.11 56.12 C 96.84 58.47 102.16 60.72 107.54 59.42 C 115.22 58.10 121.01 50.71 121.11 43.02 C 122.09 31.77 115.00 20.63 104.66 16.32 C 97.73 13.13 88.39 14.26 83.62 20.60 C 78.01 27.42 78.90 37.31 82.33 44.92 L 81.46 44.90 L 80.62 44.68 C 75.92 34.96 77.20 21.02 87.37 15.28 C 86.48 13.61 85.59 11.93 84.73 10.24 C 85.22 9.99 86.21 9.49 86.70 9.24 C 87.55 10.91 88.41 12.57 89.26 14.24 C 91.28 13.73 93.30 13.23 95.33 12.82 C 95.02 10.84 94.78 8.86 94.69 6.86 C 97.10 7.90 97.26 10.61 98.02 12.79 C 100.11 13.09 102.18 13.53 104.23 14.04 C 104.21 11.72 103.84 9.10 106.00 7.57 C 106.25 10.01 106.33 12.45 106.26 14.90 C 110.74 17.48 114.97 20.67 117.77 25.09 C 119.34 20.73 121.97 16.77 125.83 14.12 C 124.97 12.40 124.09 10.69 123.18 9.00 C 123.84 8.74 125.16 8.23 125.81 7.97 C 126.47 9.69 127.10 11.41 127.72 13.14 C 129.53 12.61 131.35 12.12 133.18 11.68 C 132.74 9.78 132.28 7.88 131.84 5.99 M 126.60 15.49 C 122.46 17.89 120.29 22.42 118.96 26.82 C 121.16 30.86 122.98 35.29 122.98 39.95 C 123.09 41.83 122.81 43.76 123.28 45.60 C 126.20 49.37 129.80 52.79 134.22 54.73 C 135.96 53.78 137.51 52.54 139.14 51.43 C 135.57 48.81 132.25 45.51 130.93 41.16 C 129.05 36.15 129.77 29.57 134.27 26.19 C 137.64 23.84 142.11 25.68 144.88 28.12 C 148.22 30.90 149.00 35.36 150.09 39.32 C 152.43 37.06 155.06 35.13 157.71 33.24 C 156.06 26.87 152.40 20.86 146.83 17.20 C 141.10 12.98 132.86 11.68 126.60 15.49 M 133.18 30.14 C 130.04 37.35 133.53 46.35 140.51 49.89 C 143.01 47.53 145.65 45.26 147.75 42.52 C 148.92 41.31 148.19 39.49 148.08 38.05 C 147.42 33.90 145.31 29.56 141.27 27.81 C 138.51 26.38 134.46 27.01 133.18 30.14 Z" />
<path fill="#000002" opacity="1.00" d=" M 102.40 25.35 C 106.50 24.44 110.25 27.30 112.86 30.15 C 116.63 34.03 117.59 39.79 116.98 44.98 C 116.33 49.45 111.78 53.66 107.10 52.21 C 99.43 50.20 94.86 41.60 95.74 34.00 C 95.85 30.10 98.47 26.21 102.40 25.35 M 102.36 27.21 C 98.78 28.36 97.15 32.50 97.21 35.99 C 97.49 41.44 100.22 47.07 105.09 49.82 C 107.53 51.29 111.14 51.50 113.11 49.11 C 119.47 41.22 112.81 26.35 102.36 27.21 Z" />
<path fill="#000002" opacity="1.00" d=" M 104.26 31.87 C 106.96 31.31 108.90 33.91 110.25 35.87 C 111.91 38.89 113.28 43.15 110.65 46.05 C 108.06 47.96 105.07 45.30 103.76 43.08 C 101.96 39.67 100.51 34.57 104.26 31.87 Z" />
<path fill="#000002" opacity="1.00" d=" M 137.46 32.24 C 138.61 31.32 140.44 31.09 141.58 32.17 C 144.53 34.74 145.80 38.99 145.03 42.79 C 144.52 44.16 143.74 45.74 141.99 45.26 C 136.95 43.91 133.60 36.27 137.46 32.24 Z" />
<path fill="#000002" opacity="1.00" d=" M 165.75 53.92 C 169.40 53.62 172.64 55.39 175.03 58.03 C 173.33 57.57 171.67 57.03 170.00 56.51 C 168.48 72.23 168.40 88.49 162.31 103.33 C 159.28 109.92 153.42 115.49 146.24 117.16 C 138.38 119.11 129.79 118.21 122.63 114.36 C 115.22 110.46 109.65 103.97 104.51 97.52 C 95.69 85.87 89.12 72.75 82.17 59.95 C 80.93 60.61 79.68 61.25 78.41 61.85 C 80.16 57.96 84.38 56.64 88.26 55.99 C 86.77 57.22 85.18 58.32 83.62 59.45 C 92.22 65.89 102.96 68.34 113.24 70.65 C 125.78 72.86 139.24 73.27 151.16 68.19 C 157.78 65.59 163.94 61.76 168.90 56.63 C 167.84 55.73 166.79 54.83 165.75 53.92 M 153.86 70.27 C 154.66 74.77 155.42 79.27 155.96 83.81 C 150.83 84.55 145.62 84.68 140.47 84.00 C 140.10 80.65 139.63 77.31 139.03 73.99 C 137.67 74.30 136.31 74.61 134.96 74.93 C 135.48 78.26 135.91 81.61 136.21 84.97 C 130.23 85.07 124.22 85.07 118.29 84.15 C 117.92 80.66 117.87 77.02 116.48 73.73 C 106.14 71.71 96.01 68.59 86.59 63.80 C 92.28 74.14 97.63 84.71 104.63 94.27 C 106.29 90.95 108.03 87.03 111.88 85.81 C 114.31 84.68 117.88 85.24 118.92 87.99 C 120.28 91.40 120.76 95.07 121.85 98.56 C 123.52 97.99 125.65 98.15 126.98 96.87 C 128.06 94.30 126.99 91.42 126.90 88.75 C 129.60 87.32 133.22 85.82 135.89 88.16 C 140.73 91.80 141.09 98.38 140.25 103.88 C 145.37 104.98 150.00 107.53 153.75 111.16 C 157.70 106.70 161.23 101.70 162.90 95.91 C 166.22 84.55 166.83 72.67 168.07 60.97 C 163.86 64.82 159.03 67.89 153.86 70.27 M 141.72 73.79 C 142.20 76.53 142.80 79.24 143.22 81.99 C 146.54 82.00 149.85 81.93 153.17 81.75 C 152.60 78.18 152.01 74.61 151.00 71.14 C 147.98 72.28 144.85 73.05 141.72 73.79 M 119.81 73.91 C 120.34 76.53 119.87 79.62 121.26 81.92 C 125.29 82.64 129.40 82.84 133.48 82.94 C 133.11 80.25 132.69 77.57 132.04 74.93 C 127.95 74.84 123.89 74.28 119.81 73.91 M 117.98 108.68 C 127.03 116.39 140.85 117.39 151.36 112.21 C 146.40 106.87 138.50 104.47 131.43 106.45 C 133.04 108.09 134.74 109.64 136.22 111.40 C 131.57 108.92 126.70 106.07 121.24 106.23 C 119.86 106.56 117.54 106.67 117.98 108.68 Z" />
<path fill="#000002" opacity="1.00" d=" M 204.14 69.94 C 210.37 67.94 216.90 65.26 223.55 66.34 C 228.13 72.29 226.82 80.58 226.95 87.64 C 229.71 89.87 232.24 92.42 234.00 95.52 L 234.00 102.43 C 232.86 104.10 231.85 106.06 230.02 107.08 C 224.49 109.21 218.27 109.14 212.65 107.43 C 209.87 106.22 209.61 102.83 210.06 100.23 C 210.65 96.94 210.11 93.46 211.21 90.27 C 212.84 87.37 216.46 86.83 219.27 85.62 C 218.80 81.71 218.00 77.86 217.00 74.05 C 214.17 75.05 211.34 76.04 208.53 77.08 C 208.00 79.72 208.28 83.09 205.76 84.78 C 201.92 87.37 197.27 88.29 192.95 89.80 C 193.02 89.13 193.16 87.79 193.23 87.13 C 197.47 85.61 202.74 85.22 205.78 81.57 C 207.13 76.43 203.77 70.66 198.79 69.01 C 194.75 68.33 191.36 71.28 188.01 73.04 C 188.01 72.55 188.02 71.58 188.03 71.10 C 190.67 69.06 193.57 66.94 197.01 66.67 C 199.73 66.73 201.91 68.60 204.14 69.94 M 205.32 71.49 C 206.01 72.72 206.69 73.95 207.38 75.18 C 211.69 73.52 216.25 72.73 220.80 72.06 C 220.19 72.74 219.59 73.43 218.99 74.12 C 220.62 78.87 221.14 83.90 221.03 88.90 C 219.58 88.57 218.05 87.64 216.63 88.55 C 213.64 89.40 212.84 92.64 212.21 95.28 L 214.43 95.08 C 214.45 94.09 214.48 92.11 214.49 91.13 C 216.95 94.13 216.47 98.24 215.52 101.72 C 215.13 99.69 214.89 97.64 214.60 95.60 C 211.97 98.39 210.23 103.61 214.26 106.04 C 218.64 106.67 220.27 101.64 222.05 98.63 C 222.41 101.55 221.05 104.13 219.71 106.61 C 221.87 106.62 224.52 106.96 226.08 105.11 C 227.66 103.09 227.98 100.46 228.98 98.16 C 229.17 100.67 228.72 103.16 228.34 105.63 C 230.89 103.36 232.86 99.90 231.65 96.41 C 230.96 92.85 228.14 90.43 225.13 88.73 C 225.55 83.51 225.52 78.25 224.86 73.06 C 224.51 71.28 224.19 69.30 222.80 68.01 C 216.75 66.86 210.86 69.38 205.32 71.49 Z" />
<path fill="#000002" opacity="1.00" d=" M 29.87 76.49 C 31.78 75.15 34.09 74.66 36.40 74.67 C 39.76 75.76 43.03 77.13 46.13 78.84 C 48.61 80.25 51.05 81.74 53.45 83.30 C 55.17 84.76 57.09 86.56 57.01 89.01 C 57.13 91.84 54.50 93.59 52.39 94.93 C 48.94 96.56 45.26 97.67 41.48 98.25 C 40.18 98.29 38.88 98.30 37.57 98.27 C 34.11 98.03 30.10 98.15 27.41 95.59 C 25.63 93.43 25.28 90.53 24.52 87.92 C 22.05 87.80 19.58 87.73 17.11 87.74 C 15.10 92.48 13.87 97.52 13.75 102.67 C 17.37 102.96 21.24 102.71 24.57 104.42 C 27.43 106.06 29.27 110.12 27.32 113.11 C 25.71 115.83 24.65 119.11 22.07 121.10 C 19.17 122.36 15.92 122.51 12.81 122.79 C 9.22 122.56 5.83 121.08 2.24 120.75 C 1.49 119.74 0.75 118.72 0.00 117.71 L 0.00 112.60 C 1.37 109.76 3.53 107.18 3.92 103.96 C 4.51 99.16 5.33 94.38 6.78 89.76 C 7.95 86.46 8.47 82.61 11.00 80.03 C 16.17 78.01 21.86 79.32 27.21 79.74 C 27.40 79.52 27.76 79.08 27.95 78.87 C 28.58 78.07 29.22 77.28 29.87 76.49 M 30.03 80.23 C 31.94 80.93 33.87 81.59 35.80 82.25 C 35.64 81.41 35.33 79.73 35.17 78.89 C 39.42 82.21 38.96 88.79 34.87 92.01 C 34.18 92.00 32.82 92.00 32.13 92.00 C 32.49 91.54 33.21 90.64 33.56 90.18 C 31.66 89.91 29.77 89.59 27.88 89.28 C 28.69 91.28 28.79 94.24 31.24 94.98 C 37.36 96.93 43.88 95.50 49.87 93.75 C 52.14 92.96 55.17 91.72 55.24 88.90 C 55.43 86.37 53.01 84.95 51.11 83.89 C 46.01 81.09 40.85 77.93 34.98 77.13 C 32.73 76.71 31.18 78.60 30.03 80.23 M 11.31 83.34 C 8.37 89.77 6.63 96.86 6.63 103.96 C 6.65 108.20 1.72 110.65 1.95 114.95 C 1.74 116.96 3.20 118.49 4.19 120.06 C 4.98 118.15 5.69 116.20 6.40 114.27 C 7.01 115.78 7.46 117.38 8.27 118.81 C 9.53 120.56 11.87 120.74 13.77 121.39 C 13.29 119.07 12.82 116.74 12.89 114.36 C 14.05 116.15 14.78 118.28 16.42 119.73 C 18.87 120.88 21.27 119.64 23.08 117.98 C 23.04 116.42 22.99 114.86 22.93 113.30 C 21.89 114.28 20.87 115.28 19.84 116.27 C 20.37 113.06 20.87 109.67 23.01 107.08 C 23.13 109.35 22.77 111.86 24.70 113.52 C 25.42 111.75 26.84 109.65 25.19 107.94 C 22.16 103.66 16.35 104.74 11.86 105.02 C 11.08 99.82 12.32 94.60 13.57 89.58 C 14.07 87.44 15.44 84.65 18.07 85.03 C 24.20 85.25 30.08 87.24 36.07 88.34 C 35.86 87.00 37.30 84.14 35.12 83.92 C 29.78 82.82 24.49 81.25 19.03 80.91 C 16.35 80.97 12.64 80.28 11.31 83.34 Z" />
<path fill="#000002" opacity="1.00" d=" M 151.45 128.25 C 152.03 128.24 153.17 128.22 153.74 128.21 C 155.51 129.78 157.30 131.32 159.12 132.83 C 164.15 130.98 169.28 129.42 174.34 127.65 C 175.31 128.01 176.27 128.39 177.22 128.81 C 171.26 131.02 165.42 133.83 159.15 135.05 C 156.96 133.82 155.34 131.86 153.60 130.10 C 152.54 132.35 151.15 134.40 149.64 136.36 C 150.84 137.83 151.55 140.56 153.96 140.01 C 167.02 139.87 180.08 140.10 193.14 139.88 C 192.83 136.63 192.33 133.40 191.91 130.17 C 192.93 129.45 193.93 128.69 194.94 127.94 C 194.98 131.33 195.41 134.69 195.90 138.05 C 199.62 136.65 203.49 134.48 207.59 135.30 C 210.22 136.33 210.72 139.49 210.96 141.97 C 211.44 150.89 211.13 159.91 209.38 168.70 C 210.91 169.43 212.43 170.18 213.94 170.95 C 214.72 165.33 216.00 158.05 222.28 156.13 C 228.44 154.18 234.06 161.04 232.92 166.84 C 231.73 172.71 227.49 177.36 222.94 180.97 C 219.82 183.09 219.60 187.42 216.60 189.63 C 213.52 192.02 209.46 193.91 205.53 192.72 C 203.77 191.59 203.21 189.44 202.17 187.75 C 200.89 185.20 198.77 182.94 198.49 180.00 C 198.92 176.33 200.95 173.04 201.26 169.33 C 202.31 160.73 202.23 152.01 201.65 143.37 C 200.13 144.35 198.28 144.98 197.16 146.45 C 196.96 150.56 198.28 154.61 197.92 158.72 C 197.03 160.21 195.51 161.16 194.23 162.28 C 188.63 166.62 183.37 171.37 177.96 175.95 C 176.21 177.33 174.41 179.06 172.01 178.97 C 152.17 179.53 132.33 179.99 112.48 180.10 C 111.03 183.97 109.98 188.09 107.65 191.56 C 104.97 194.46 99.48 191.67 97.37 195.37 C 91.78 203.78 86.27 212.48 78.41 219.00 L 74.85 219.00 C 71.48 214.31 70.72 208.52 69.35 203.07 C 64.09 205.45 67.56 213.13 62.54 215.86 C 58.05 218.17 52.62 213.86 53.16 209.00 C 53.35 202.26 60.27 199.31 65.46 196.81 C 66.03 195.27 66.20 193.49 67.31 192.23 C 70.22 189.87 74.17 189.86 77.72 189.58 C 78.18 193.07 79.05 196.61 78.25 200.12 C 77.69 202.48 78.23 204.87 78.86 207.15 C 83.26 202.10 86.80 196.38 89.86 190.44 C 86.77 188.03 83.97 185.05 83.40 181.00 C 76.92 180.97 70.45 181.00 63.97 180.98 C 62.16 170.85 61.20 160.58 59.00 150.52 C 60.00 149.97 61.01 149.42 62.02 148.87 C 62.61 152.23 63.10 155.60 63.76 158.95 C 71.00 152.89 78.21 146.79 85.35 140.62 C 84.83 136.89 84.15 133.19 83.46 129.50 C 83.82 129.48 84.56 129.45 84.93 129.43 C 85.31 132.89 85.91 136.33 86.44 139.78 C 103.29 139.75 120.14 139.88 136.99 139.77 C 139.18 140.30 139.92 137.92 141.09 136.61 C 138.86 134.69 136.76 132.60 135.32 130.02 C 132.63 132.39 130.08 134.95 127.12 136.98 C 121.05 135.22 115.51 132.05 109.60 129.86 C 111.27 129.46 112.93 129.03 114.59 128.60 C 118.83 130.47 122.93 132.90 127.48 133.93 C 129.50 132.22 131.34 130.31 133.30 128.53 C 134.72 128.83 136.15 129.09 137.60 129.29 C 138.78 130.85 139.86 132.56 141.49 133.71 C 143.67 134.54 146.23 134.48 148.39 133.60 C 150.00 132.24 150.55 130.08 151.45 128.25 M 143.50 135.94 C 141.84 140.25 139.64 144.33 137.02 148.13 C 139.65 150.84 142.08 153.79 145.09 156.12 C 147.92 153.88 150.58 151.27 152.49 148.19 C 150.91 144.32 149.13 140.51 147.27 136.77 C 146.13 136.12 144.75 136.22 143.50 135.94 M 177.85 152.49 C 178.34 153.06 179.33 154.18 179.82 154.74 C 186.28 148.45 194.51 144.32 203.04 141.60 C 203.50 143.32 203.88 145.05 204.11 146.82 C 205.73 146.17 207.40 145.65 209.09 145.20 C 208.85 142.21 209.71 135.90 205.03 136.87 C 194.58 139.03 185.82 145.73 177.85 152.49 M 86.79 141.10 C 87.80 147.43 88.53 153.80 89.93 160.05 C 108.22 160.04 126.52 159.68 144.80 159.09 C 141.14 156.36 138.59 152.31 134.88 149.76 C 130.29 149.53 125.70 150.00 121.11 149.90 C 121.07 148.10 121.04 146.30 121.03 144.51 C 126.30 144.36 131.57 144.16 136.85 144.05 C 137.28 143.07 137.71 142.09 138.15 141.11 C 121.03 141.23 103.91 140.80 86.79 141.10 M 152.18 141.46 C 152.82 142.32 153.49 143.16 154.22 143.96 C 157.80 144.23 161.40 143.98 164.99 144.00 C 164.99 145.98 164.99 147.96 165.00 149.94 C 161.45 149.92 157.90 149.91 154.35 150.00 C 151.58 153.30 148.51 156.32 145.20 159.07 C 150.71 159.23 156.23 159.05 161.74 159.00 C 165.30 153.29 169.05 147.47 174.39 143.26 C 177.67 140.83 181.38 143.84 184.72 144.55 C 186.45 143.67 188.01 142.52 189.59 141.40 C 177.12 141.33 164.64 140.99 152.18 141.46 M 63.96 160.33 C 64.91 165.90 65.73 171.50 66.71 177.06 C 72.70 172.61 78.47 167.88 84.47 163.44 C 85.83 162.34 87.38 161.36 88.36 159.87 C 87.80 153.89 86.30 148.03 85.75 142.04 C 78.36 147.99 71.39 154.43 63.96 160.33 M 176.42 144.12 C 169.80 150.07 164.78 157.54 159.73 164.81 C 159.81 163.35 160.07 161.92 160.28 160.49 C 137.54 161.06 114.80 160.84 92.07 161.56 C 89.00 161.47 86.70 163.73 84.39 165.41 C 78.85 169.74 73.05 173.74 67.58 178.16 C 74.32 178.23 81.05 178.01 87.79 178.00 C 90.11 175.43 92.50 172.92 95.19 170.75 C 93.38 175.49 89.92 179.22 86.84 183.14 C 90.85 189.29 98.73 190.58 105.51 191.01 C 108.45 184.45 111.01 177.71 114.30 171.31 C 114.13 173.29 113.92 175.27 113.72 177.25 C 132.89 176.98 152.08 177.06 171.24 176.25 C 174.88 176.14 177.16 172.84 179.86 170.83 C 184.11 167.04 189.04 163.98 192.68 159.54 C 188.58 160.20 185.77 163.52 182.03 165.04 C 177.10 167.08 172.00 168.92 166.70 169.73 C 170.76 166.71 175.57 165.07 180.19 163.16 C 182.83 162.03 185.68 160.72 187.14 158.11 C 188.37 156.13 187.96 153.69 188.13 151.49 C 185.88 152.91 183.76 154.51 181.70 156.17 C 182.38 156.67 183.75 157.66 184.44 158.16 C 180.50 158.33 176.54 155.82 175.63 151.89 C 175.01 149.79 176.40 147.90 177.23 146.10 C 177.23 147.64 177.20 149.19 177.16 150.74 C 178.96 149.11 180.78 147.52 182.59 145.90 C 180.58 145.21 178.60 144.04 176.42 144.12 M 204.61 148.24 C 204.61 149.00 204.61 150.53 204.61 151.30 L 204.79 151.79 C 204.67 153.28 204.56 154.78 204.53 156.28 L 204.78 156.81 C 204.18 161.61 203.81 166.45 202.68 171.18 C 204.20 170.59 205.73 170.03 207.29 169.52 C 208.06 165.28 208.70 160.98 208.77 156.65 C 208.80 156.33 208.87 155.69 208.90 155.36 C 208.89 153.79 208.84 152.22 208.74 150.65 L 208.64 150.16 C 208.77 149.29 209.03 147.55 209.16 146.69 C 207.58 147.01 205.94 147.25 204.61 148.24 M 189.45 150.32 C 189.83 152.95 189.98 155.61 190.04 158.27 C 191.74 158.25 193.44 158.22 195.15 158.19 C 194.61 154.77 194.05 151.36 193.43 147.96 C 192.10 148.74 190.78 149.54 189.45 150.32 M 223.20 159.82 C 222.29 161.37 221.43 162.95 220.66 164.57 C 223.42 164.76 225.39 162.96 226.53 160.64 C 225.70 160.43 224.03 160.02 223.20 159.82 M 222.65 168.69 C 219.54 172.08 218.24 176.76 214.81 179.93 C 216.50 180.53 218.20 181.12 219.90 181.72 C 225.09 178.14 229.19 172.92 230.68 166.72 C 227.94 166.74 224.60 166.30 222.65 168.69 M 212.71 180.73 C 212.56 181.54 212.27 183.16 212.13 183.97 C 214.24 184.43 216.36 184.85 218.51 185.16 C 217.63 182.54 214.96 181.77 212.71 180.73 M 205.44 190.12 C 209.93 192.17 214.48 189.71 217.96 186.90 C 215.65 186.23 213.37 185.40 211.00 184.98 C 208.50 185.83 206.92 188.08 205.44 190.12 M 92.34 191.53 C 87.77 199.09 83.23 207.10 76.09 212.56 C 76.42 211.23 76.75 209.91 77.08 208.60 C 75.58 209.74 74.13 210.95 72.73 212.21 C 73.73 214.47 74.97 216.62 76.68 218.42 C 85.24 211.59 90.50 201.75 96.21 192.63 C 94.92 192.26 93.63 191.89 92.34 191.53 M 67.17 195.21 C 67.78 195.82 67.78 195.82 67.17 195.21 M 71.10 200.24 C 71.25 201.72 71.53 203.18 71.76 204.65 L 72.04 205.04 C 72.02 205.37 71.97 206.03 71.95 206.36 C 72.20 206.95 72.70 208.12 72.95 208.71 C 72.76 209.19 72.36 210.14 72.16 210.61 C 73.77 209.06 77.42 208.57 76.92 205.77 C 76.70 205.22 76.27 204.11 76.06 203.56 C 76.03 203.25 75.96 202.62 75.93 202.30 C 75.49 201.07 75.03 199.83 74.58 198.60 C 73.33 198.95 72.02 199.24 71.10 200.24 M 60.33 206.34 C 58.81 208.28 59.57 210.64 61.14 212.28 C 62.76 210.76 63.89 204.64 60.33 206.34 Z" />
<path fill="#000002" opacity="1.00" d=" M 93.96 145.01 C 101.29 144.97 108.61 144.99 115.93 145.00 C 115.99 146.66 116.05 148.32 116.11 149.99 C 108.83 149.97 101.54 150.04 94.26 149.96 C 94.16 148.31 94.06 146.66 93.96 145.01 Z" />
<path fill="#000002" opacity="1.00" d=" M 69.20 160.15 C 73.71 156.56 78.34 153.12 83.07 149.83 C 83.32 151.69 83.79 153.56 83.62 155.45 C 79.37 159.18 74.61 162.27 70.25 165.86 C 69.92 163.95 69.57 162.05 69.20 160.15 Z" />
</g>
<g id="#a9bc26ff">
<path fill="#a9bc26" opacity="1.00" d=" M 53.33 8.29 C 59.12 8.20 63.57 13.99 64.84 19.22 C 65.75 21.77 64.09 25.60 61.01 25.08 C 55.27 24.60 51.08 19.25 50.03 13.89 C 49.45 11.51 50.83 8.78 53.33 8.29 Z" />
<path fill="#a9bc26" opacity="1.00" d=" M 162.00 8.50 C 163.44 9.95 165.24 11.23 166.04 13.18 C 166.48 15.36 165.55 17.50 165.10 19.60 C 163.53 18.27 161.43 17.22 160.72 15.15 C 159.82 12.86 161.28 10.61 162.00 8.50 Z" />
<path fill="#a9bc26" opacity="1.00" d=" M 60.95 29.26 C 62.90 30.50 65.21 31.50 66.46 33.55 C 67.67 35.64 67.93 38.10 68.46 40.42 C 65.79 40.55 62.72 40.41 61.17 37.84 C 58.78 35.43 60.09 32.02 60.95 29.26 Z" />
<path fill="#a9bc26" opacity="1.00" d=" M 84.32 92.00 C 88.93 90.14 91.90 96.42 90.23 100.12 C 89.93 102.97 85.81 104.20 84.12 101.87 C 81.39 99.27 81.61 94.52 84.32 92.00 Z" />
<path fill="#a9bc26" opacity="1.00" d=" M 179.40 92.25 C 180.76 91.80 182.25 91.82 183.63 92.14 C 186.63 94.11 186.66 98.40 185.56 101.45 C 184.26 104.83 178.94 106.66 176.62 103.29 C 174.53 99.71 176.13 94.62 179.40 92.25 Z" />
<path fill="#a9bc26" opacity="1.00" d=" M 95.32 104.13 C 103.04 103.26 105.85 115.92 99.41 119.40 C 95.88 120.64 92.65 117.03 92.01 113.82 C 91.24 110.46 91.22 105.28 95.32 104.13 Z" />
<path fill="#a9bc26" opacity="1.00" d=" M 181.26 113.42 C 182.39 111.99 184.51 112.13 186.10 111.56 C 186.00 113.55 186.07 115.58 185.62 117.54 C 184.80 119.43 182.34 118.92 180.73 119.47 C 180.83 117.45 180.75 115.39 181.26 113.42 Z" />
</g>
<g id="#e7e57bff">
<path fill="#e7e57b" opacity="1.00" d=" M 31.08 8.92 C 32.99 13.12 36.11 16.51 39.30 19.76 C 42.23 22.61 42.23 26.92 43.46 30.55 C 45.30 35.97 52.56 37.96 52.97 44.05 C 53.54 47.33 53.37 50.90 55.14 53.85 C 57.65 57.95 61.54 61.14 63.37 65.67 C 64.78 69.47 64.47 73.64 65.61 77.50 C 66.92 81.44 70.46 84.13 71.93 87.99 C 72.83 90.91 72.42 94.02 72.72 97.02 C 73.03 102.99 79.48 106.76 79.11 112.92 C 78.95 117.53 79.05 122.20 80.48 126.64 C 77.96 128.71 75.62 131.00 73.72 133.66 C 70.36 138.80 64.44 141.18 60.23 145.48 C 59.26 141.56 58.63 137.54 57.23 133.74 C 55.53 129.12 51.98 125.51 50.17 120.95 C 48.78 117.32 48.57 113.37 47.23 109.72 C 45.76 105.69 43.40 102.07 41.48 98.25 C 45.26 97.67 48.94 96.56 52.39 94.93 C 53.52 99.58 54.91 105.25 59.72 107.39 C 62.95 108.86 66.01 105.96 67.11 103.12 C 70.03 95.98 68.44 86.58 62.12 81.77 C 59.30 79.65 56.02 81.93 53.45 83.30 C 51.05 81.74 48.61 80.25 46.13 78.84 C 45.24 75.36 45.19 70.51 41.38 68.85 C 38.01 67.18 37.54 72.58 36.40 74.67 C 34.09 74.66 31.78 75.15 29.87 76.49 C 27.71 73.76 25.62 70.90 24.42 67.61 C 23.29 64.91 22.57 61.81 20.20 59.88 C 17.19 57.17 13.22 54.91 12.15 50.71 C 11.40 47.23 13.84 44.21 15.31 41.28 C 18.35 36.33 18.76 30.12 22.61 25.61 C 26.66 20.74 28.79 14.73 31.08 8.92 M 32.38 33.28 C 27.08 35.23 26.37 42.15 28.14 46.80 C 29.73 51.75 34.99 57.16 40.58 54.76 C 45.45 51.59 45.65 44.67 43.13 39.93 C 41.31 35.98 37.07 31.88 32.38 33.28 M 61.36 119.02 C 58.32 122.26 60.14 129.41 64.80 130.04 C 68.07 127.57 67.44 122.59 65.19 119.66 C 64.37 118.41 62.57 118.34 61.36 119.02 Z" />
<path fill="#e7e57b" opacity="1.00" d=" M 117.98 108.68 C 117.54 106.67 119.86 106.56 121.24 106.23 C 126.70 106.07 131.57 108.92 136.22 111.40 C 134.74 109.64 133.04 108.09 131.43 106.45 C 138.50 104.47 146.40 106.87 151.36 112.21 C 140.85 117.39 127.03 116.39 117.98 108.68 Z" />
</g>
<g id="#ffffffff">
<path fill="#ffffff" opacity="1.00" d=" M 126.60 15.49 C 132.86 11.68 141.10 12.98 146.83 17.20 C 152.40 20.86 156.06 26.87 157.71 33.24 C 155.06 35.13 152.43 37.06 150.09 39.32 C 149.00 35.36 148.22 30.90 144.88 28.12 C 142.11 25.68 137.64 23.84 134.27 26.19 C 129.77 29.57 129.05 36.15 130.93 41.16 C 132.25 45.51 135.57 48.81 139.14 51.43 C 137.51 52.54 135.96 53.78 134.22 54.73 C 129.80 52.79 126.20 49.37 123.28 45.60 C 122.81 43.76 123.09 41.83 122.98 39.95 C 122.98 35.29 121.16 30.86 118.96 26.82 C 120.29 22.42 122.46 17.89 126.60 15.49 Z" />
<path fill="#ffffff" opacity="1.00" d=" M 83.62 20.60 C 88.39 14.26 97.73 13.13 104.66 16.32 C 115.00 20.63 122.09 31.77 121.11 43.02 C 121.01 50.71 115.22 58.10 107.54 59.42 C 102.16 60.72 96.84 58.47 92.11 56.12 C 92.05 53.17 92.95 49.66 90.78 47.23 C 88.59 44.99 85.24 44.99 82.33 44.92 C 78.90 37.31 78.01 27.42 83.62 20.60 M 102.40 25.35 C 98.47 26.21 95.85 30.10 95.74 34.00 C 94.86 41.60 99.43 50.20 107.10 52.21 C 111.78 53.66 116.33 49.45 116.98 44.98 C 117.59 39.79 116.63 34.03 112.86 30.15 C 110.25 27.30 106.50 24.44 102.40 25.35 Z" />
<path fill="#ffffff" opacity="1.00" d=" M 188.01 73.04 C 191.36 71.28 194.75 68.33 198.79 69.01 C 203.77 70.66 207.13 76.43 205.78 81.57 C 202.74 85.22 197.47 85.61 193.23 87.13 C 192.44 82.12 189.82 77.70 188.01 73.04 Z" />
<path fill="#ffffff" opacity="1.00" d=" M 141.72 73.79 C 144.85 73.05 147.98 72.28 151.00 71.14 C 152.01 74.61 152.60 78.18 153.17 81.75 C 149.85 81.93 146.54 82.00 143.22 81.99 C 142.80 79.24 142.20 76.53 141.72 73.79 Z" />
<path fill="#ffffff" opacity="1.00" d=" M 119.81 73.91 C 123.89 74.28 127.95 74.84 132.04 74.93 C 132.69 77.57 133.11 80.25 133.48 82.94 C 129.40 82.84 125.29 82.64 121.26 81.92 C 119.87 79.62 120.34 76.53 119.81 73.91 Z" />
<path fill="#ffffff" opacity="1.00" d=" M 30.03 80.23 C 31.18 78.60 32.73 76.71 34.98 77.13 C 40.85 77.93 46.01 81.09 51.11 83.89 C 53.01 84.95 55.43 86.37 55.24 88.90 C 55.17 91.72 52.14 92.96 49.87 93.75 C 43.88 95.50 37.36 96.93 31.24 94.98 C 28.79 94.24 28.69 91.28 27.88 89.28 C 29.77 89.59 31.66 89.91 33.56 90.18 C 33.21 90.64 32.49 91.54 32.13 92.00 C 32.82 92.00 34.18 92.00 34.87 92.01 C 38.96 88.79 39.42 82.21 35.17 78.89 C 35.33 79.73 35.64 81.41 35.80 82.25 C 33.87 81.59 31.94 80.93 30.03 80.23 Z" />
<path fill="#ffffff" opacity="1.00" d=" M 114.59 128.60 C 117.71 127.85 120.78 126.75 124.00 126.51 C 127.18 126.70 130.18 127.94 133.30 128.53 C 131.34 130.31 129.50 132.22 127.48 133.93 C 122.93 132.90 118.83 130.47 114.59 128.60 Z" />
<path fill="#ffffff" opacity="1.00" d=" M 84.93 129.43 C 88.86 129.78 92.42 127.95 96.18 127.26 C 100.79 127.27 105.01 129.62 109.60 129.86 C 115.51 132.05 121.05 135.22 127.12 136.98 C 130.08 134.95 132.63 132.39 135.32 130.02 C 136.76 132.60 138.86 134.69 141.09 136.61 C 139.92 137.92 139.18 140.30 136.99 139.77 C 120.14 139.88 103.29 139.75 86.44 139.78 C 85.91 136.33 85.31 132.89 84.93 129.43 Z" />
<path fill="#ffffff" opacity="1.00" d=" M 164.99 129.17 C 168.16 129.01 171.19 127.98 174.34 127.65 C 169.28 129.42 164.15 130.98 159.12 132.83 C 157.30 131.32 155.51 129.78 153.74 128.21 C 157.47 128.69 161.21 129.46 164.99 129.17 Z" />
<path fill="#ffffff" opacity="1.00" d=" M 159.15 135.05 C 165.42 133.83 171.26 131.02 177.22 128.81 C 181.69 131.15 187.30 133.78 191.91 130.17 C 192.33 133.40 192.83 136.63 193.14 139.88 C 180.08 140.10 167.02 139.87 153.96 140.01 C 151.55 140.56 150.84 137.83 149.64 136.36 C 151.15 134.40 152.54 132.35 153.60 130.10 C 155.34 131.86 156.96 133.82 159.15 135.05 Z" />
<path fill="#ffffff" opacity="1.00" d=" M 204.61 148.24 C 205.94 147.25 207.58 147.01 209.16 146.69 C 209.03 147.55 208.77 149.29 208.64 150.16 C 207.19 149.72 205.65 150.25 204.61 151.30 C 204.61 150.53 204.61 149.00 204.61 148.24 Z" />
<path fill="#ffffff" opacity="1.00" d=" M 204.79 151.79 C 206.21 152.12 207.66 151.58 208.74 150.65 C 208.84 152.22 208.89 153.79 208.90 155.36 C 207.43 154.61 205.59 155.05 204.53 156.28 C 204.56 154.78 204.67 153.28 204.79 151.79 Z" />
<path fill="#ffffff" opacity="1.00" d=" M 204.78 156.81 C 206.12 157.15 207.45 157.09 208.77 156.65 C 208.70 160.98 208.06 165.28 207.29 169.52 C 205.73 170.03 204.20 170.59 202.68 171.18 C 203.81 166.45 204.18 161.61 204.78 156.81 Z" />
<path fill="#ffffff" opacity="1.00" d=" M 223.20 159.82 C 224.03 160.02 225.70 160.43 226.53 160.64 C 225.39 162.96 223.42 164.76 220.66 164.57 C 221.43 162.95 222.29 161.37 223.20 159.82 Z" />
<path fill="#ffffff" opacity="1.00" d=" M 71.10 200.24 C 72.02 199.24 73.33 198.95 74.58 198.60 C 75.03 199.83 75.49 201.07 75.93 202.30 C 74.12 201.53 72.35 203.00 71.76 204.65 C 71.53 203.18 71.25 201.72 71.10 200.24 Z" />
<path fill="#ffffff" opacity="1.00" d=" M 72.04 205.04 C 73.33 204.42 74.69 203.98 76.06 203.56 C 75.49 205.26 73.83 206.70 71.95 206.36 C 71.97 206.03 72.02 205.37 72.04 205.04 Z" />
<path fill="#ffffff" opacity="1.00" d=" M 60.33 206.34 C 63.89 204.64 62.76 210.76 61.14 212.28 C 59.57 210.64 58.81 208.28 60.33 206.34 Z" />
<path fill="#ffffff" opacity="1.00" d=" M 72.95 208.71 C 74.22 207.66 75.56 206.71 76.92 205.77 C 77.42 208.57 73.77 209.06 72.16 210.61 C 72.36 210.14 72.76 209.19 72.95 208.71 Z" />
</g>
<g id="#81c7e5ff">
<path fill="#81c7e5" opacity="1.00" d=" M 102.36 27.21 C 112.81 26.35 119.47 41.22 113.11 49.11 C 111.14 51.50 107.53 51.29 105.09 49.82 C 100.22 47.07 97.49 41.44 97.21 35.99 C 97.15 32.50 98.78 28.36 102.36 27.21 M 104.26 31.87 C 100.51 34.57 101.96 39.67 103.76 43.08 C 105.07 45.30 108.06 47.96 110.65 46.05 C 113.28 43.15 111.91 38.89 110.25 35.87 C 108.90 33.91 106.96 31.31 104.26 31.87 Z" />
<path fill="#81c7e5" opacity="1.00" d=" M 133.18 30.14 C 134.46 27.01 138.51 26.38 141.27 27.81 C 145.31 29.56 147.42 33.90 148.08 38.05 C 148.19 39.49 148.92 41.31 147.75 42.52 C 145.65 45.26 143.01 47.53 140.51 49.89 C 133.53 46.35 130.04 37.35 133.18 30.14 M 137.46 32.24 C 133.60 36.27 136.95 43.91 141.99 45.26 C 143.74 45.74 144.52 44.16 145.03 42.79 C 145.80 38.99 144.53 34.74 141.58 32.17 C 140.44 31.09 138.61 31.32 137.46 32.24 Z" />
<path fill="#81c7e5" opacity="1.00" d=" M 69.06 141.03 C 74.02 137.36 76.87 130.66 83.46 129.50 C 84.15 133.19 84.83 136.89 85.35 140.62 C 78.21 146.79 71.00 152.89 63.76 158.95 C 63.10 155.60 62.61 152.23 62.02 148.87 C 64.13 146.05 66.17 143.11 69.06 141.03 Z" />
<path fill="#81c7e5" opacity="1.00" d=" M 204.61 151.30 C 205.65 150.25 207.19 149.72 208.64 150.16 L 208.74 150.65 C 207.66 151.58 206.21 152.12 204.79 151.79 L 204.61 151.30 Z" />
<path fill="#81c7e5" opacity="1.00" d=" M 222.65 168.69 C 224.60 166.30 227.94 166.74 230.68 166.72 C 229.19 172.92 225.09 178.14 219.90 181.72 C 218.20 181.12 216.50 180.53 214.81 179.93 C 218.24 176.76 219.54 172.08 222.65 168.69 Z" />
<path fill="#81c7e5" opacity="1.00" d=" M 212.71 180.73 C 214.96 181.77 217.63 182.54 218.51 185.16 C 216.36 184.85 214.24 184.43 212.13 183.97 C 212.27 183.16 212.56 181.54 212.71 180.73 Z" />
<path fill="#81c7e5" opacity="1.00" d=" M 205.44 190.12 C 206.92 188.08 208.50 185.83 211.00 184.98 C 213.37 185.40 215.65 186.23 217.96 186.90 C 214.48 189.71 209.93 192.17 205.44 190.12 Z" />
<path fill="#81c7e5" opacity="1.00" d=" M 67.17 195.21 C 67.78 195.82 67.78 195.82 67.17 195.21 Z" />
<path fill="#81c7e5" opacity="1.00" d=" M 76.06 203.56 C 76.27 204.11 76.70 205.22 76.92 205.77 C 75.56 206.71 74.22 207.66 72.95 208.71 C 72.70 208.12 72.20 206.95 71.95 206.36 C 73.83 206.70 75.49 205.26 76.06 203.56 Z" />
</g>
<g id="#ef492fff">
<path fill="#ef492f" opacity="1.00" d=" M 168.93 43.02 C 169.06 42.68 169.33 42.00 169.46 41.66 C 173.43 42.16 177.50 43.66 180.09 46.84 C 183.13 50.51 183.41 56.52 180.09 60.11 C 178.52 61.80 176.08 61.92 173.97 62.37 C 177.05 60.34 181.04 58.20 180.95 53.93 C 181.34 47.38 174.66 43.58 168.93 43.02 Z" />
<path fill="#ef492f" opacity="1.00" d=" M 81.46 44.90 L 82.33 44.92 C 85.24 44.99 88.59 44.99 90.78 47.23 C 92.95 49.66 92.05 53.17 92.11 56.12 C 91.67 56.26 90.78 56.54 90.34 56.69 L 89.62 56.93 C 90.16 54.71 91.30 52.23 90.00 50.05 C 88.49 46.65 84.23 45.91 80.95 46.71 C 74.90 47.65 69.70 52.56 68.55 58.58 C 67.93 61.47 69.89 64.46 72.57 65.48 C 75.10 66.16 77.76 66.15 80.34 66.53 C 77.03 67.49 73.26 68.82 70.00 66.97 C 66.60 65.43 65.63 61.04 66.71 57.72 C 68.66 51.05 74.85 46.39 81.46 44.90 Z" />
<path fill="#ef492f" opacity="1.00" d=" M 169.25 46.17 C 170.89 45.66 171.45 46.21 170.93 47.82 C 169.29 48.34 168.73 47.79 169.25 46.17 Z" />
<path fill="#ef492f" opacity="1.00" d=" M 84.39 48.07 C 86.30 47.38 87.18 50.56 85.15 50.91 C 83.26 51.55 82.40 48.46 84.39 48.07 Z" />
<path fill="#ef492f" opacity="1.00" d=" M 171.04 50.41 C 172.33 49.37 173.95 51.60 172.61 52.54 C 171.30 53.59 169.69 51.35 171.04 50.41 Z" />
<path fill="#ef492f" opacity="1.00" d=" M 176.24 49.92 C 177.87 49.39 178.43 49.94 177.94 51.57 C 176.32 52.10 175.76 51.55 176.24 49.92 Z" />
<path fill="#ef492f" opacity="1.00" d=" M 75.29 51.00 C 77.38 50.19 77.66 53.52 75.77 53.83 C 73.68 54.61 73.40 51.33 75.29 51.00 Z" />
<path fill="#ef492f" opacity="1.00" d=" M 81.48 53.08 C 83.35 52.42 83.84 55.46 82.02 55.74 C 80.20 56.32 79.71 53.39 81.48 53.08 Z" />
<path fill="#ef492f" opacity="1.00" d=" M 160.74 53.77 C 160.94 53.60 161.35 53.27 161.56 53.11 C 162.65 53.23 163.91 54.66 163.24 55.73 C 162.08 56.32 160.67 54.93 160.74 53.77 Z" />
<path fill="#ef492f" opacity="1.00" d=" M 141.99 122.20 C 148.84 121.76 155.14 118.82 161.29 116.02 C 150.98 128.00 130.87 127.34 119.61 117.11 C 126.82 119.66 134.19 122.64 141.99 122.20 Z" />
<path fill="#ef492f" opacity="1.00" d=" M 137.60 129.29 C 142.24 129.40 146.84 128.70 151.45 128.25 C 150.55 130.08 150.00 132.24 148.39 133.60 C 146.23 134.48 143.67 134.54 141.49 133.71 C 139.86 132.56 138.78 130.85 137.60 129.29 Z" />
<path fill="#ef492f" opacity="1.00" d=" M 143.50 135.94 C 144.75 136.22 146.13 136.12 147.27 136.77 C 149.13 140.51 150.91 144.32 152.49 148.19 C 150.58 151.27 147.92 153.88 145.09 156.12 C 142.08 153.79 139.65 150.84 137.02 148.13 C 139.64 144.33 141.84 140.25 143.50 135.94 Z" />
<path fill="#ef492f" opacity="1.00" d=" M 204.53 156.28 C 205.59 155.05 207.43 154.61 208.90 155.36 C 208.87 155.69 208.80 156.33 208.77 156.65 C 207.45 157.09 206.12 157.15 204.78 156.81 L 204.53 156.28 Z" />
<path fill="#ef492f" opacity="1.00" d=" M 71.76 204.65 C 72.35 203.00 74.12 201.53 75.93 202.30 C 75.96 202.62 76.03 203.25 76.06 203.56 C 74.69 203.98 73.33 204.42 72.04 205.04 L 71.76 204.65 Z" />
</g>
<g id="#891d03ff">
<path fill="#891d03" opacity="1.00" d=" M 153.86 70.27 C 159.03 67.89 163.86 64.82 168.07 60.97 C 166.83 72.67 166.22 84.55 162.90 95.91 C 161.23 101.70 157.70 106.70 153.75 111.16 C 150.00 107.53 145.37 104.98 140.25 103.88 C 141.09 98.38 140.73 91.80 135.89 88.16 C 133.22 85.82 129.60 87.32 126.90 88.75 C 126.99 91.42 128.06 94.30 126.98 96.87 C 125.65 98.15 123.52 97.99 121.85 98.56 C 120.76 95.07 120.28 91.40 118.92 87.99 C 117.88 85.24 114.31 84.68 111.88 85.81 C 108.03 87.03 106.29 90.95 104.63 94.27 C 97.63 84.71 92.28 74.14 86.59 63.80 C 96.01 68.59 106.14 71.71 116.48 73.73 C 117.87 77.02 117.92 80.66 118.29 84.15 C 124.22 85.07 130.23 85.07 136.21 84.97 C 135.91 81.61 135.48 78.26 134.96 74.93 C 136.31 74.61 137.67 74.30 139.03 73.99 C 139.63 77.31 140.10 80.65 140.47 84.00 C 145.62 84.68 150.83 84.55 155.96 83.81 C 155.42 79.27 154.66 74.77 153.86 70.27 Z" />
</g>
<g id="#d08f22ff">
<path fill="#d08f22" opacity="1.00" d=" M 86.79 141.10 C 103.91 140.80 121.03 141.23 138.15 141.11 C 137.71 142.09 137.28 143.07 136.85 144.05 C 131.57 144.16 126.30 144.36 121.03 144.51 C 121.04 146.30 121.07 148.10 121.11 149.90 C 125.70 150.00 130.29 149.53 134.88 149.76 C 138.59 152.31 141.14 156.36 144.80 159.09 C 126.52 159.68 108.22 160.04 89.93 160.05 C 88.53 153.80 87.80 147.43 86.79 141.10 M 93.96 145.01 C 94.06 146.66 94.16 148.31 94.26 149.96 C 101.54 150.04 108.83 149.97 116.11 149.99 C 116.05 148.32 115.99 146.66 115.93 145.00 C 108.61 144.99 101.29 144.97 93.96 145.01 Z" />
<path fill="#d08f22" opacity="1.00" d=" M 152.18 141.46 C 164.64 140.99 177.12 141.33 189.59 141.40 C 188.01 142.52 186.45 143.67 184.72 144.55 C 181.38 143.84 177.67 140.83 174.39 143.26 C 169.05 147.47 165.30 153.29 161.74 159.00 C 156.23 159.05 150.71 159.23 145.20 159.07 C 148.51 156.32 151.58 153.30 154.35 150.00 C 157.90 149.91 161.45 149.92 165.00 149.94 C 164.99 147.96 164.99 145.98 164.99 144.00 C 161.40 143.98 157.80 144.23 154.22 143.96 C 153.49 143.16 152.82 142.32 152.18 141.46 Z" />
<path fill="#d08f22" opacity="1.00" d=" M 176.42 144.12 C 178.60 144.04 180.58 145.21 182.59 145.90 C 180.78 147.52 178.96 149.11 177.16 150.74 C 177.20 149.19 177.23 147.64 177.23 146.10 C 176.40 147.90 175.01 149.79 175.63 151.89 C 176.54 155.82 180.50 158.33 184.44 158.16 C 183.75 157.66 182.38 156.67 181.70 156.17 C 183.76 154.51 185.88 152.91 188.13 151.49 C 187.96 153.69 188.37 156.13 187.14 158.11 C 185.68 160.72 182.83 162.03 180.19 163.16 C 175.57 165.07 170.76 166.71 166.70 169.73 C 163.21 170.90 160.69 167.82 159.73 164.81 C 164.78 157.54 169.80 150.07 176.42 144.12 Z" />
<path fill="#d08f22" opacity="1.00" d=" M 189.45 150.32 C 190.78 149.54 192.10 148.74 193.43 147.96 C 194.05 151.36 194.61 154.77 195.15 158.19 C 193.44 158.22 191.74 158.25 190.04 158.27 C 189.98 155.61 189.83 152.95 189.45 150.32 Z" />
</g>
<g id="#9c5c06ff">
<path fill="#9c5c06" opacity="1.00" d=" M 63.96 160.33 C 71.39 154.43 78.36 147.99 85.75 142.04 C 86.30 148.03 87.80 153.89 88.36 159.87 C 87.38 161.36 85.83 162.34 84.47 163.44 C 78.47 167.88 72.70 172.61 66.71 177.06 C 65.73 171.50 64.91 165.90 63.96 160.33 M 69.20 160.15 C 69.57 162.05 69.92 163.95 70.25 165.86 C 74.61 162.27 79.37 159.18 83.62 155.45 C 83.79 153.56 83.32 151.69 83.07 149.83 C 78.34 153.12 73.71 156.56 69.20 160.15 Z" />
<path fill="#9c5c06" opacity="1.00" d=" M 182.03 165.04 C 185.77 163.52 188.58 160.20 192.68 159.54 C 189.04 163.98 184.11 167.04 179.86 170.83 C 177.16 172.84 174.88 176.14 171.24 176.25 C 152.08 177.06 132.89 176.98 113.72 177.25 C 113.92 175.27 114.13 173.29 114.30 171.31 C 111.01 177.71 108.45 184.45 105.51 191.01 C 98.73 190.58 90.85 189.29 86.84 183.14 C 89.92 179.22 93.38 175.49 95.19 170.75 C 92.50 172.92 90.11 175.43 87.79 178.00 C 81.05 178.01 74.32 178.23 67.58 178.16 C 73.05 173.74 78.85 169.74 84.39 165.41 C 86.70 163.73 89.00 161.47 92.07 161.56 C 114.80 160.84 137.54 161.06 160.28 160.49 C 160.07 161.92 159.81 163.35 159.73 164.81 C 160.69 167.82 163.21 170.90 166.70 169.73 C 172.00 168.92 177.10 167.08 182.03 165.04 Z" />
</g>
</svg>
