<svg height="321pt" viewBox="0 0 240 321" width="240pt" xmlns="http://www.w3.org/2000/svg"><path d="m0 0h.25c-.06.07-.19.22-.25.29z"/><path d="m130.02 0h12.6c2.73 1.2 6.14 1.05 8.42 3.14-10.52-3.59-21.95-2.39-32.52.3-.66.97-1.34 1.93-2.02 2.89 1.16.02 3.48.06 4.65.08-2.05.27-4.11.4-6.17.55-.61.99-1.23 1.98-1.85 2.97.56.16 1.67.47 2.22.63-1.63.03-3.35.02-4.73 1.02-1.37-.85-3.03-.92-4.57-1.2 3 .15 6.53.55 8.25-2.51-.25-.36-.74-1.09-.98-1.45.79-.14 2.38-.43 3.18-.58-.16-.61-.47-1.82-.62-2.43-3.89 1.54-7.88 2.84-11.96 3.75 4.52-2.89 10.06-3.63 15.18-4.95 3.58-1.03 7.55-.53 10.92-2.21z"/><path d="m151.04 3.14.73-.35c.32.29.95.87 1.26 1.16-.5-.2-1.49-.61-1.99-.81z"/><path d="m155.14 5.09c.16.18.48.55.64.74-.16-.19-.48-.56-.64-.74z"/><path d="m101.87 7.8c.33-.26.98-.77 1.31-1.03l.74.39c-.52.16-1.54.48-2.05.64z"/><path d="m158.9 8.04c1.42-.08 2.11.6 2.07 2.04-1.34-.02-2.03-.7-2.07-2.04z"/><path d="m97.16 10.04c.29-.3.88-.9 1.18-1.19l.81.24c-.5.23-1.5.71-1.99.95z"/><path d="m6.74 9.92c11.56 1.05 22.93 3.77 33.9 7.52 3.11 1.12 6.36 2.02 9.11 3.92-1.62-.44-3.24-.89-4.81-1.47-11.75-4.48-24.03-7.68-36.54-9 2.28 3.83 5.29 7.16 7.72 10.9 10.64 15.11 20.16 30.99 28.74 47.36.61 1.27 1.08 2.61 1.56 3.94-1.78-.39-3.56-.8-5.33-1.22-.05.78-.14 2.34-.19 3.12-1.77 0-3.54.01-5.32.03.7.96 1.4 1.93 2.1 2.9-1.4.17-2.8.33-4.19.5-.43.8-.85 1.6-1.27 2.41-.6-.14-1.79-.43-2.38-.57.27-.37.82-1.09 1.09-1.46-8.03-22.97-16.31-45.86-24.19-68.88m2.59 5.02c7.38 21.25 15.05 42.4 22.35 63.68 1.09-.82 2.29-1.43 3.6-1.83-.36-.4-1.08-1.2-1.44-1.6 1.9-1.12 4.09-1.31 6.25-1.14-.55-.93-.99-1.91-1.34-2.93 2.26-.24 4.53-.09 6.59 1-9.34-18.3-20-35.93-31.98-52.63-1.24-1.59-2.1-3.66-4.03-4.55z"/><path d="m196.92 19.01c11.85-5.12 24.73-7.73 37.53-9.12-.56 2.15-1.25 4.27-2.44 6.16l.03-2.2c-13.92 18.05-25.71 37.69-36.12 57.95.49.3 1.48.91 1.97 1.21-.8-.04-2.42-.11-3.23-.14 5.14-11.52 11.79-22.28 18.33-33.04 6.3-9.91 12.75-19.76 20.12-28.91-10.9.95-21.59 3.64-31.91 7.2-1.39.46-2.85.66-4.28.89z"/><path d="m112.07 15.43c2.51.22 4.06-2.09 5.87-3.44-.51.74-1.52 2.22-2.03 2.96 2.61.04 5.19-.29 7.21-2.06-.51.7-1.54 2.09-2.05 2.79 2.63-.53 6.93.72 7.65-2.88-1.45 3.08 2.24 3.53 4.42 3.67 1.03-.8 1.97-1.71 2.94-2.57-.75 1.18-1.5 2.35-2.27 3.51 1.52-.17 3.01-.01 4.46.48-1.5-.06-3-.12-4.49-.19-.28.24-.84.73-1.11.97-.03-2.43-3.07-2.24-4.66-3.19-.58.88-1.15 1.76-1.73 2.64.03-.58.08-1.73.11-2.31-1.96.07-3.92.22-5.86.48-.96-1.9-3.33-1.05-5.03-1.3-1.32.99-2.65 1.97-3.98 2.94.28-.48.84-1.44 1.12-1.92-2.23-.08-4.45-.15-6.68-.21.83-.97 1.56-2.08 2.69-2.72-.09.27-.29.82-.39 1.1.24 1.87 2.47 1.24 3.81 1.25z"/><path d="m163.18 13.17.4.09.13.44c-.13-.13-.4-.4-.53-.53z"/><path d="m163.71 13.7c4.64 4.82 5.97 11.9 5.13 18.36.57-.15 1.7-.46 2.26-.61-3.33 1.98-3.48 6.24-5.93 8.93-3.27 3.99-8.5 5.42-13.37 6.3-16.86 3.2-33.61 7.1-50.59 9.58l.25-1.06c15.71-2.17 31.2-5.84 46.79-8.81 4.72-.98 9.8-1.49 13.84-4.37 3.52-2.39 5.24-6.55 5.96-10.6.07-.57.21-1.72.28-2.29-.4.07-1.21.2-1.61.27-.31.18-.92.53-1.23.71-2.21 2.15-4.51 4.39-7.56 5.27-6.2 1.91-12.63 2.9-18.95 4.32-5.64 1.08-11.19 2.69-16.92 3.21 11.02-2.72 22.25-4.52 33.27-7.26 4.08-1.13 8.63-3.32 10.18-7.54.64.09 1.9.28 2.54.38.02-2.95-.51-5.85-1.11-8.73-1.61.11-3.22.21-4.83.31 1.04 1.02 2.09 2.04 3.11 3.08-1.47-.87-2.92-1.76-4.37-2.66-1.87.94-3.75 1.87-5.62 2.8 1.18 1.23 2.35 2.47 3.48 3.76-1.34-1.13-2.59-2.35-3.81-3.59-1.81 1.22-3.71 2.29-5.73 3.11-.87-1.35-1.74-2.69-2.59-4.05.57.64 1.71 1.92 2.29 2.56 1.58-.35 3.21-.54 4.7-1.27-.25-1.39-.7-2.74-1.44-3.95 1.04.96 2.09 1.9 3.17 2.82 1.66-.85 3.31-1.72 4.93-2.64-.62-.57-1.85-1.72-2.47-2.29 1.17.69 2.32 1.42 3.47 2.16 1.74-.27 3.48-.51 5.23-.71-.95-1.82-1.86-3.65-2.75-5.5z"/><path d="m87.02 15.8c.19-.14.57-.41.76-.55-.19.14-.57.41-.76.55z"/><path d="m139.67 18.33c.32-.41.96-1.23 1.28-1.65-.19.58-.57 1.74-.76 2.32 2.29.83 4.56 1.87 6.39 3.52-.92 1.11-1.8 2.24-2.67 3.39.47-1.27.94-2.55 1.4-3.84-1.74-.93-3.52-1.81-5.31-2.63-.41.42-1.23 1.26-1.64 1.68.43-1.09.6-2.21-.09-3.23z"/><path d="m145.95 19.86c-.27-1.34.29-1.88 1.68-1.62.24 1.38-.32 1.92-1.68 1.62z"/><path d="m81.04 19.6c.22-.1.67-.3.89-.4-.22.1-.67.3-.89.4z"/><path d="m195.2 19.23c.43-.06 1.29-.17 1.72-.22-.49.25-1.45.75-1.93 1z"/><path d="m192.51 20.66c.15-.09.46-.28.62-.38l-.12.54z"/><path d="m50.93 21.69c1.51-.3 2.48.23 2.9 1.58-1.37.18-2.33-.35-2.9-1.58z"/><path d="m77.04 23.07c.16-.23.5-.67.67-.9-.17.23-.51.67-.67.9z"/><path d="m76.08 23.6c.24-.14.72-.4.96-.53-.24.13-.72.39-.96.53z"/><path d="m182.89 25.03c.5-.24 1.49-.73 1.99-.97-.29.32-.88.96-1.18 1.28z"/><path d="m228.19 25.26.91-.15c-.24.47-.71 1.4-.94 1.86.01-.43.02-1.28.03-1.71z"/><path d="m72.36 26.87c.12-.14.37-.44.5-.58-.13.14-.38.44-.5.58z"/><path d="m61.19 26.44c2.84.99 5.37 2.65 8.2 3.65-4.07 4.74-8.05 9.55-11.53 14.75 1.59 3.35 4.46 5.66 7.6 7.49-3.75-.91-6.16-3.92-8.2-6.96-.88 2.67-2.6 5.64-1.25 8.45 1.05 2.63 3.84 3.89 6.31 4.85 8.47 1.85 17.32-2.36 25.63.23-8.32-.35-16.56 1.77-24.87.94-3.29-.79-6.61-2.74-8.06-5.93-1.23-2.82.02-5.95 1.46-8.44 3.28-5.23 7.09-10.11 11.2-14.71-2.25-1.3-4.56-2.55-6.49-4.32z"/><path d="m176.95 28c.52-.24 1.56-.72 2.08-.96l-.29.77c-.45.05-1.34.14-1.79.19z"/><path d="m69.39 30.09c.08-.23.22-.68.3-.91-.08.23-.22.68-.3.91z"/><path d="m171.1 31.45c.16-.07.47-.19.62-.26l-.28.14z"/><path d="m113.87 45.59c2.73-.92 5.27-2.42 8.19-2.68-4.73 1.28-8.7 4.79-13.83 4.56-5.2-1.19-10.11 1.72-15.28 1.92 5.08-1.31 10.18-2.97 15.49-2.82.12-.02.36-.04.48-.06 1.45-.16 2.87-.41 4.29-.73.16-.05.5-.15.66-.19z"/><path d="m212.06 49.62c.16-.15.46-.44.62-.59l-.31.29z"/><path d="m89.86 50.44c.65-1.41 1.68-1.76 3.09-1.05-.8.97-1.83 1.32-3.09 1.05z"/><path d="m210.66 59.24c-2.08-2.97-1.62-7.46 1.4-9.62-1.87 2.91-2.2 6.31-1.4 9.62z"/><path d="m79.57 52.2c3.37-.89 6.79-1.64 10.29-1.76-3.74.8-7.48 1.66-11.29 2.08z"/><path d="m65.46 52.33.23-.02.28.1c-.13-.02-.39-.06-.51-.08z"/><path d="m86.96 57.28c4.61.26 9.44-2.51 13.85-.55-4.44.09-8.76 1.2-13.17 1.51z"/><path d="m210.66 59.24c1.79 1.06 3.55 2.18 5.36 3.21-2.01 6.62-5.21 12.92-6.39 19.76-.79-1.25-1.44-2.58-2.02-3.94-1.2-.09-2.4-.18-3.6-.26.45-1 .91-2 1.36-3.01-1.83 0-3.65-.01-5.47-.02.4-1 .8-2 1.21-2.99-.87.04-2.59.12-3.45.16l-.6-1.05c1.75-.03 3.5-.05 5.26-.07-.21.71-.64 2.14-.85 2.85 1.96.11 3.92.39 5.75 1.16-.35.43-1.05 1.3-1.41 1.73 1.31.56 2.61 1.13 3.9 1.71 1.44-5.24 3.42-10.31 5.28-15.41-1.62-1.06-3.33-2.1-4.33-3.83z"/><path d="m48.4 77.36c18.77-1.62 37.52-3.43 56.28-5.21.25 2.79.46 5.61.12 8.4-12.63.85-25.2 2.3-37.81 3.39-6.3.39-12.6 1.61-18.91 1.37.39-2.57-1.16-5.79.32-7.95z"/><path d="m129.85 73.16c13.35 1.61 26.8 2.3 40.17 3.73 5.64.17 11.2 1.29 16.86 1.24-.42 2.67-.78 5.35-1.03 8.04-19.01-1.1-37.96-3.17-56.92-4.76.08-2.77.15-5.57.92-8.25z"/><path d="m29.28 80.8c.14-.14.42-.41.56-.54-.14.13-.42.4-.56.54z"/><path d="m209.63 82.21c1.63-.69 2.99.8 3.58 2.16-1.46-.1-2.98-.74-3.58-2.16z"/><path d="m213.21 84.37c.14.12.41.38.55.5-.14-.12-.41-.38-.55-.5z"/><path d="m213.76 84.87c1.63.08 2.4.9 2.33 2.48l-1.1-.49c-.25-.31-.76-.93-1.02-1.24z"/><path d="m216.09 87.35c.24.17.72.52.96.69-.24-.17-.72-.52-.96-.69z"/><path d="m217.05 88.04c.16.16.48.48.64.64-.16-.16-.48-.48-.64-.64z"/><path d="m217.69 88.68c1.87 1.44 3.38 3.26 4.69 5.21-2.12-1.17-3.48-3.19-4.69-5.21z"/><path d="m17.76 92.35c.33-.51.99-1.54 1.32-2.05l.25.85c-.39.3-1.18.9-1.57 1.2z"/><path d="m17.19 92.71c.14-.09.43-.27.57-.36-.14.09-.43.27-.57.36z"/><path d="m222.38 93.89c1.4.72 2.63 1.83 3 3.43l-.17.36c-1.92.08-3.24-2.02-2.83-3.79z"/><path d="m13.16 98.18c-.17-1.41.43-2.19 1.81-2.32.16 1.37-.44 2.15-1.81 2.32z"/><path d="m45.81 97.18c18.07 4.31 36.08 8.86 54.18 13.06 1.15.39 2.81.41 3.21 1.85-3.05-.36-6.01-1.25-8.98-2.01-5.27 6.27-14.01 10.5-22.22 8.09-7.38-1.45-13.52-7.24-15.88-14.31-.53-1.13-.65-2.54-1.64-3.39-2.7-.78-5.53-1.07-8.22-1.89-.12-.35-.34-1.05-.45-1.4m10.54 3.72c1.88 8.04 8.39 15.14 16.79 16.26 7.26 1.52 14.94-1.73 19.65-7.3-4.55-1.22-9.15-2.23-13.71-3.38-.92 1.84-2.82 3.52-5.01 2.67-2.04-.43-2.42-2.7-2.37-4.44-5.11-1.3-10.26-2.43-15.35-3.81z"/><path d="m11.81 100.21c.34-.51 1.01-1.52 1.35-2.03-.34.51-1.01 1.52-1.35 2.03z"/><path d="m225.21 97.68.4.22c1.81 2.17 3.59 4.47 4.47 7.2l-.38-.24c-1.74-2.22-3.36-4.57-4.49-7.18z"/><path d="m11.37 100.85c.11-.16.33-.48.44-.64-.11.16-.33.48-.44.64z"/><path d="m9.38 103.14c.21-1.16.88-1.92 1.99-2.29-.11.54-.32 1.61-.42 2.15-.39.04-1.18.11-1.57.14z"/><path d="m43.12 102.1 1.28.44c2.06 5.2 3.41 10.67 5.56 15.84 2.78-1.08 5.42-2.52 8.25-3.48-1.54 2.91-5.53 2.87-7.95 4.86 1.33 3.8 2.62 7.61 3.89 11.43 1.9-.95 3.78-2.08 5.94-2.3-1.08 2.14-4.58 1.81-5.33 3.97.84 2.87 1.78 5.73 2.94 8.5 1.43-.63 2.89-1.19 4.41-1.53-.7 1.61-2.68 1.82-4.07 2.58.8 3 1.79 5.95 2.99 8.82 1.38-.59 2.78-1.13 4.22-1.56-.86 1.47-2.52 2.08-3.86 2.99.24.75.7 2.23.93 2.97 1.44.52 3.25.59 4.13 2.06 1.1.13 2.21.23 3.32.31.8-.84 1.61-1.67 2.42-2.49.2.29.59.86.79 1.15-1.47.77-2.77 1.94-4.44 2.27l-.32-.08c-2.19-1.06-4.5-1.85-6.88-2.39 2.73 8.73 10.86 13.98 18.8 17.47 3.93 1.75 8 3.19 12.15 4.34l.04.89c-7.31-1.61-14.2-4.85-20.6-8.7-1.15.7-2.35 1.33-3.58 1.9.91 2.98 2.03 5.89 2.93 8.87-3.01-1.39-2.46-5.59-4.07-8.17-1.05-.14-2.09-.29-3.13-.44.66-.32 1.98-.97 2.64-1.29-.75-2.07-1.41-4.17-1.98-6.29-2.53.78-4.99 1.78-7.51 2.56.87-2.71 4.94-2.27 6.98-4.01-1.34-2.28-3.17-4.56-3.3-7.3-.12-1.05.44-2.55-.79-3.13-1.37.53-2.69 1.19-4.04 1.76.34-1.99 2.63-2.18 4.08-3.05-1.08-2.96-2.09-5.95-3.09-8.93-2.3 1.18-4.53 2.61-7.09 3.17 1.39-2.29 4.36-2.56 6.38-4.08-.07-3.13-1.95-6.03-2.47-9.16-2.42.62-4.55 1.98-6.83 2.95.64-2.71 4.22-2.76 6.27-4.06-1.34-3.95-2.58-7.94-4.11-11.82-2.03 1.01-4.08 1.98-6.18 2.82.61-2.61 4.11-2.51 6.06-3.83-2.08-5.56-3.95-11.19-5.78-16.83m23.89 65.24c-.56 1.24.2 3.92 1.96 3.42 2.38-.89-.69-3.36-1.96-3.42z"/><path d="m230.08 105.1c1.94.57 2.75 2.97 2.81 4.81-2.06-.34-2.49-2.78-3-4.43z"/><path d="m5.45 111.07c.06-1.9 1.05-3.54 2.42-4.79l.35.53c.24 1.82-.94 3.35-2.21 4.49z"/><path d="m131.86 106.75c.81-1.44 2.59-.34 3.8-.23 17.97 4.36 35.92 8.79 53.91 13.03.13.34.38 1.02.5 1.36-3.24-.42-6.5-2.28-9.7-1.76-4.38 4.87-10.62 8.62-17.39 8.09-10.3.25-19.23-8.21-21.21-18.03-3.32-.76-6.65-1.46-9.91-2.46m11.12 2.85c1.88 7 6.91 13.45 14.07 15.52 7.94 2.68 17.32-.23 22.43-6.84-5.44-.96-10.71-2.72-16.16-3.67-.38 1.47-1.47 2.47-2.55 3.42-2.86.42-5.61-2.36-4.61-5.24-4.37-1.16-8.77-2.22-13.18-3.19z"/><path d="m232.89 109.91c1.6 2.11 2.85 4.55 3.1 7.23-1.34-2.27-2.63-4.61-3.1-7.23z"/><path d="m3.22 116.76c.09-.21.26-.65.35-.87l-.13.44z"/><path d="m235.99 117.14.79.12c.08.4.24 1.21.32 1.61l-.78-.11c-.09-.41-.25-1.22-.33-1.62z"/><path d="m0 125.21.61-.24c.15.81.45 2.44.6 3.26l.03 1.12-.6.69-.64-.09z"/><path d="m239.52 127.01.48.27v4.33l-.79.06-.72-.58c.21-1.4.55-2.76 1.03-4.08z"/><path d="m108.33 129.36c7.9-.87 16.71-1 23.49 3.81 2.44 1.51 4.33 3.97 4.76 6.86-.13 2.93-1.67 5.71-4.11 7.34-7.12 5.06-16.42 5.61-24.78 4.13-5.09-1.34-11.13-3.52-13.12-8.9-1.06-2.28.02-4.78 1.28-6.72 2.78-4.1 7.95-5.42 12.48-6.52m-8.33 3.74c-1.9.77-4.23 3.27-2.3 5.17 1.62 2.34 4.74 2.17 7.25 2.03-1.11 1.93 1.32 3.29 2.98 2.99 3.47.54 7-.57 9.27-3.29.68-2.13-.62-3.82-2.14-5.11-1.85-.17-3.87.06-5.45-1.12-.39.36-1.17 1.08-1.56 1.44-1.63-2.86-5.29-2.44-8.05-2.11z"/><path d="m10.75 131.17c1.28.11 2.38.8 3.29 1.68l-.49.35c-.76-.31-2.27-.92-3.02-1.23z"/><path d="m227.22 133.98c.15-.14.45-.43.6-.57l-.17.47z"/><path d="m224.66 135.97c.41-1.32 1.26-1.98 2.56-1.99-.21 1.48-1.06 2.14-2.56 1.99z"/><path d="m14.03 138.87c.26-.17.76-.51 1.02-.68-.26.17-.76.51-1.02.68z"/><path d="m225.91 140.39c.3.46.91 1.39 1.22 1.86-.4-.3-1.2-.9-1.59-1.21z"/><path d="m227.13 142.25c.25.08.75.24 1 .32-.25-.08-.75-.24-1-.32z"/><path d="m12.06 143.18.24-.02.26.08c-.12-.02-.38-.05-.5-.06z"/><path d="m24.37 145.91c1.37-.59 2.37-.23 3.02 1.08-1.26.44-2.27.08-3.02-1.08z"/><path d="m27.39 146.99.53-.05.01.44c-.14-.09-.41-.29-.54-.39z"/><path d="m32.37 148.81.6.05.02.67c-.16-.18-.47-.54-.62-.72z"/><path d="m35.15 150.16c.13.09.38.27.5.36-.12-.09-.37-.27-.5-.36z"/><path d="m206.33 150.27c.41-.01 1.25-.04 1.66-.05-.46.22-1.38.68-1.84.9z"/><path d="m199.04 154.86c.19-.13.55-.39.74-.52-.19.13-.55.39-.74.52z"/><path d="m171.45 158.04c3.86-1.1 7.72-2.26 11.64-3.17-.35 2.02-.77 4.16-2.11 5.8.01-.49.02-1.45.03-1.93.29-.71.89-2.11 1.18-2.81-3.3 1.11-6.65 2.03-10.03 2.89-.26.02-.8.05-1.07.07-.38-.25-1.13-.76-1.51-1.01-.27.57-.81 1.72-1.08 2.29l-.61.06c-.43-.04-1.29-.12-1.72-.16.5-1.62 2.8-2.12 3.17-4.01.52.5 1.58 1.48 2.11 1.98z"/><path d="m72.98 156.66c1.18.74 3.57 1.9 3.71 3.42-.39.05-1.18.15-1.57.21l-.52-.26c-.81-1-1.35-2.13-1.62-3.37z"/><path d="m186.07 158.86c1.39.39 1.61 1.91 2.04 3.06.85 2.8 1.98 5.5 2.97 8.26-1.47-.22-1.64-1.94-2.19-3.02-1-2.74-1.96-5.51-2.82-8.3z"/><path d="m76.69 160.08c6.82-.86 13.5 1.62 20.3 1.92 5.02.05 9.97 1.23 15.01 1.02 8.72-.15 17.45.29 26.15-.3 1.56-.07 3.09.25 4.63.5-22.04 1.85-44.34.86-66.09-3.14z"/><path d="m158.77 160.57c2.11-1.49 5.02-1.04 7.4-.5-2.33.79-4.83.92-7.27 1z"/><path d="m197.06 160.14.38-.08c-.07.15-.2.47-.27.62z"/><path d="m142.12 162.59c5.54-.46 11.26-2.44 16.78-1.52-5.32 1.08-10.71 1.77-16.12 2.15z"/><path d="m179.64 161.89c.33-.31 1.01-.92 1.34-1.22-2.12 5.5-7.56 8.89-12.49 11.66l.34-1.09c4.13-2.44 7.97-5.45 10.81-9.35z"/><path d="m39.92 165.18.85.14c.06.43.19 1.28.25 1.71-.27-.47-.82-1.39-1.1-1.85z"/><path d="m194.37 166.1.82-.23c-.28.51-.82 1.53-1.1 2.03.07-.45.21-1.35.28-1.8z"/><path d="m189.76 175.24c.83-2.78 2.26-5.31 4.33-7.34-.61 1.53-1.29 3.04-2.07 4.49 1.03 2.33 2.13 4.62 3.04 7-1.92-1.31-2.5-3.66-3.41-5.66-.47.38-1.42 1.13-1.89 1.51z"/><path d="m43.26 171.17c.11.15.34.47.45.62-.11-.15-.34-.47-.45-.62z"/><path d="m157.61 176.19c3.53-1.14 6.95-2.6 10.2-4.37l.55.85c-3.49 1.68-6.96 3.45-10.68 4.55z"/><path d="m46.41 175.11.14-.09c-.09.09-.26.28-.35.37z"/><path d="m189.11 175.96c.16-.18.49-.54.65-.72-.16.18-.49.54-.65.72z"/><path d="m32.63 181.6c3.9-2.8 8.66-4.03 13-6l.57-.21-.38.39c-3.97 2.74-8.58 4.49-13.19 5.82z"/><path d="m187.61 178.29c.38-.59 1.13-1.75 1.5-2.33-.37.58-1.12 1.74-1.5 2.33z"/><path d="m146.7 179.36c2.74-.57 5.45-1.27 8.09-2.19-1.3 2.91-5.44 2.12-8.04 3.04z"/><path d="m48.22 178.45c.2.17.6.5.8.67-.2-.17-.6-.5-.8-.67z"/><path d="m92.45 178.32c3.36.92 6.78 1.57 10.2 2.18-2.95 1.5-6.51-.57-9.62-.94-.15-.31-.43-.93-.58-1.24z"/><path d="m187.05 178.94c.14-.16.42-.49.56-.65-.14.16-.42.49-.56.65z"/><path d="m49.02 179.12c.18.16.52.49.7.65-.18-.16-.52-.49-.7-.65z"/><path d="m113.54 181.64c10.98.94 22.08-.07 32.86-2.21-.08.32-.24.96-.32 1.27-11.61 1.82-23.37 2.99-35.13 1.95.85-.37 1.72-.7 2.59-1.01z"/><path d="m186.58 179.47c.12-.13.35-.4.47-.53-.12.13-.35.4-.47.53z"/><path d="m102.99 180.56c2.5.44 5.03.5 7.55.6-1.08 1.43-3.11.67-4.62.86-1.21.03-2.79.12-2.93-1.46z"/><path d="m179.02 179.89c1.54.63 3.05 1.34 4.52 2.11 1.03-.83 2.04-1.68 3.04-2.53-.61.75-1.83 2.24-2.45 2.98 1.13.93 2.26 1.86 3.38 2.79-1.56-.23-2.81-1.21-4.06-2.08-.39.36-1.16 1.06-1.54 1.41.67-2.34-1.49-3.37-2.89-4.68z"/><path d="m52.24 182.32c.12.11.34.33.46.45-.12-.12-.34-.34-.46-.45z"/><path d="m86.65 188.45c.42-3.07 4.01-5.91 6.91-3.79 3.53 2.2 2.19 6.95 2.38 10.41 6.05 3.18 10.79-6.02 16.94-3.74 1.76 1.18 3.33 3.26 2.98 5.48-.82 2.79-3.53 4.21-5.87 5.54.4 1.66.79 3.32 1.16 4.99 3.48.64 7.04.69 10.57.65.3-1.19.61-2.36.93-3.53.11.88.35 2.65.47 3.54 5.71-.65 11.41-1.31 17.1-2.14-1.14-2.38-2.3-4.75-3.23-7.22 2.18 1.71 2.91 4.48 4.06 6.87 2.83-.59 5.74-1.01 8.41-2.16.52-1.21.9-2.47 1.34-3.71.07.86.19 2.57.25 3.43 5.19-2.09 10.35-4.29 15.17-7.16-.78-1.06-1.56-2.12-2.31-3.19 1.16.79 2.3 1.61 3.43 2.46 3.4-2.1 6.45-4.7 9.88-6.75-.72.9-1.46 1.8-2.2 2.69.77 2.06 1.57 4.16 3.02 5.87-1.66-1.47-3.15-3.17-5.05-4.35-1.89.77-3.4 2.2-4.95 3.48 1.32 2.19 2.92 4.37 3.02 7.04-1.16-1.94-2.29-3.89-3.73-5.63-2.58 4.28 2.28 7.62 3.09 11.65-1.12-1.83-2.32-3.61-3.66-5.28 2.18 11.63 3.91 23.54 2.38 35.38-.72 4.93-.83 10.26-3.32 14.7 1.97-9.54 3.8-19.25 3.07-29.03-.59-7.57-1.34-15.25-4-22.41-5.14 7.43-10.93 14.81-18.95 19.31-6.39 3.56-12.3 7.91-18.71 11.42-1.14.79-2.55.85-3.81.32-7.75-2.49-15.19-5.96-22.17-10.14-4.04-3.7-10.09 2.33-13.77-2.4-5.91 2.53-12.24 3.71-18.55 4.73.02 6.42-.35 12.92.89 19.27.66 4.46 2.3 8.68 3.31 13.05-.77-1.05-1.43-2.18-1.81-3.43-3.08-9.36-3.53-19.31-3.34-29.09-2.54.33-5.13 1.43-7.71.74-2.06-.44-3.61-1.95-5.27-3.13-.43-4.79.56-9.53 2.03-14.06-.49 3.67-1.55 7.25-1.79 10.94-.28 3.22 2.99 6.1 6.14 5.59 8.79-.5 17.59-2.01 25.81-5.25 2.43 1.71 5.42 2.02 8.26 1.26 3.85-1.03 8.46-.73 11.45-3.79 2.2-1.98 5.54-4.89 3.15-8.04-1.36 1.24-2.76 2.45-4.29 3.48 1.34-1.85 3.1-3.38 4.27-5.35.33-1.79-.32-3.52-.97-5.15-2.38 1.39-4.73 2.83-7.18 4.1 3.24-4.19 9.22-4.75 12.52-8.84 1.7-2.13-.35-4.45-1.51-6.23-5.55-.59-9.43 4.43-14.74 4.99-1.24-.1-2.16-1.08-2.93-1.96-.53-3.44.72-7.53-2.35-10.07-1.59.22-3.58.03-4.52 1.64-1.71 3.66-1.63 7.92-3.6 11.5-1.88 3.48-3.35 7.17-4.16 11.05 1.55-.33 3.11-.65 4.68-.92-7.94 3.78-16.72 5.48-25.42 6.42 2.82-1.69 6.36-.95 9.25-2.29 1.46-2.79 1.75-6.15 2.22-9.25-1-2.1-2.57-3.85-3.94-5.71-1.19.92-2.38 1.84-3.61 2.69 1.09-1.64 2.4-3.1 3.62-4.64-.82.01-2.45.03-3.27.04l1.27-.54c-.08-.55-.26-1.66-.34-2.21 1 .54 2.01 1.09 3.02 1.64.37-.29 1.12-.86 1.5-1.15.19.61.57 1.85.76 2.47 3.74 2.29 7.88 3.8 11.85 5.63 2.38-3.89 3.59-8.3 4.47-12.73m-18.9 7.24c2.68 5.59 7.73 9.59 12.5 13.35-.15-2.46.57-4.83 1.57-7.03-4.87-1.71-9.23-4.61-14.07-6.32m83.26 8.37c.31 1.43-.01 2.53-.96 3.31-.01-.77-.04-2.31-.05-3.09-2.72.88-5.49 1.63-8.31 2.1.88 2.54 2.35 4.81 3.61 7.17l.51-.49-.16 1.02c.59 1 1.09 2.04 1.51 3.12-.99-.67-1.83-1.51-2.5-2.52l.69-.94-1.1.23c-.84-2.54-2.42-4.73-3.49-7.17-3.35.17-6.59 1.12-9.94 1.28.09 1.64.15 3.28.21 4.92h-1.03c0-1.55 0-3.09.02-4.63-2.36.12-4.73.32-7.08.54l.05 1.48c-.02.72-.04 2.18-.05 2.9-.29-.54-.85-1.64-1.14-2.18.07-.56.2-1.66.27-2.21-3.94.03-7.89 0-11.79-.55.35.69 1.06 2.05 1.42 2.74.08.69.24 2.08.32 2.77l-.63-.05c-2.2 4.27-6.62 7.76-11.6 7.73 6.61 4.3 13.84 7.63 21.24 10.34 1.56.42 3.11 1.38 4.78 1.08 4.67-2.21 8.86-5.27 13.25-7.95 4.02-2.59 8.35-4.7 12.05-7.76 6.85-5.69 11.85-13.18 16.35-20.77-5.34 2.83-10.75 5.52-16.45 7.58m-78.79-.27c-.51 2.8-1.24 5.56-1.63 8.39 2.94-.7 5.85-1.49 8.75-2.36-2.09-2.33-4.61-4.19-7.12-6.03z"/><path d="m180.8 185.04c.27-.12.83-.35 1.11-.47-.28.12-.84.35-1.11.47z"/><path d="m55.31 185.39c.17.16.5.46.66.61-.16-.15-.49-.45-.66-.61z"/><path d="m179.7 187.14c.27-.52.82-1.57 1.1-2.1l.26 1.2c-.34.22-1.02.67-1.36.9z"/><path d="m187.51 185.24.4.33-.26.47-.37-.41z"/><path d="m55.97 186c.2.26.6.78.79 1.04-.19-.26-.59-.78-.79-1.04z"/><path d="m187.65 186.04c1.55-.3 2.37.31 2.49 1.82-1.23.02-2.06-.58-2.49-1.82z"/><path d="m179.18 187.68c.13-.13.39-.4.52-.54-.13.14-.39.41-.52.54z"/><path d="m48.64 189.83c2.81-.99 5.87-.97 8.66-2.07-2.06 2.62-5.7 2.34-8.66 2.07z"/><path d="m177.22 188.43c.49-.18 1.47-.56 1.96-.75-.22.32-.65.97-.87 1.29z"/><path d="m59.55 189.23c2-.23 4.19 1.13 4.47 3.21-1.91-.38-3.4-1.64-4.47-3.21z"/><path d="m64.02 192.44c.26.04.77.11 1.03.15-.26-.04-.77-.11-1.03-.15z"/><path d="m60.9 198.79c.37-1.69 1.37-3.24 3.22-3.45.09 1.8-1.23 3.75-3.22 3.45z"/><path d="m178.04 196.99c1.51.35 2.19 1.8 2.29 3.24-1.4-.38-2.81-1.65-2.29-3.24z"/><path d="m57.03 209.13c.76-3.63 2.19-7.05 3.87-10.34-1.1 3.52-2.47 6.94-3.87 10.34z"/><path d="m180.33 200.23c.11.14.32.42.43.56-.11-.14-.32-.42-.43-.56z"/><path d="m180.76 200.79c1.26.59 2.55 1.83 2.18 3.38-1.75.01-2.05-2.07-2.18-3.38z"/><path d="m182.94 204.17c1.69.39 2.01 2.27 2.16 3.75-1.74-.19-2.7-2.19-2.16-3.75z"/><path d="m185.1 207.92c.25.51.75 1.54 1.01 2.05-.33-.31-.98-.93-1.31-1.24z"/><path d="m170.42 209.18c.32.5.97 1.48 1.29 1.98-.32-.5-.97-1.48-1.29-1.98z"/><path d="m186.11 209.97c.99 2.6 2.03 5.18 3.06 7.76l-.04 1.49c-1.44-2.93-2.6-5.99-3.02-9.25z"/><path d="m171.71 211.16c.3.47.89 1.41 1.18 1.88l-.78-.23c-.1-.41-.3-1.24-.4-1.65z"/><path d="m172.89 213.04c.32.26.95.79 1.26 1.05l-.45.85c-.2-.47-.61-1.43-.81-1.9z"/><path d="m174.26 215.79.85-.18c1.07.5 1.6 1.36 1.6 2.56l-.64.27c-.94-.66-1.54-1.54-1.81-2.65z"/><path d="m177.57 222.16.45.04-.11.52c-.09-.14-.26-.42-.34-.56z"/><path d="m191.9 225.39c1.31.4 1.66 1.3 1.05 2.72-1.22-.61-1.57-1.52-1.05-2.72z"/><path d="m179.6 227.85.31.04-.1.37c-.05-.11-.16-.31-.21-.41z"/><path d="m197.24 238.89c1.37.3 3.19 1.01 2.96 2.75-1.57.17-3.33-1.02-2.96-2.75z"/><path d="m178.04 242.29c.15-.27.43-.82.57-1.1-.14.28-.42.83-.57 1.1z"/><path d="m176.9 243.06c.29-.19.86-.58 1.14-.77-.28.19-.85.58-1.14.77z"/><path d="m200.2 241.64c1.22.35 1.89 1.22 2.03 2.6-1.5-.2-2.18-1.07-2.03-2.6z"/><path d="m175.74 245.19c.29-.53.87-1.6 1.16-2.13l.26 1.24c-.36.22-1.06.67-1.42.89z"/><path d="m202.23 244.24c.04.1.11.31.15.42l-.12-.21z"/><path d="m175.26 245.78c.12-.15.36-.44.48-.59-.12.15-.36.44-.48.59z"/><path d="m174.62 245.86c.16-.02.48-.06.64-.08-.16 3.89-.09 7.87-1.48 11.58-.25-.06-.74-.17-.99-.23 1.25-3.62 2.48-7.39 1.83-11.27z"/><path d="m204.52 251.3.34.25.07.37c-.1-.16-.31-.47-.41-.62z"/><path d="m112.08 260.96c-1.84-3.04.1-7.05 3.06-8.55 2.85-.85 6.57-.35 7.93 2.67-2.17-2.16-5.06-2.63-8.01-2.17-1.89 1.84-4.25 4.53-2.69 7.3.8 2.6 3.46 3.68 5.85 4.34-2.42.88-5.11-1.48-6.14-3.59z"/><path d="m204.93 251.92c.79 1.16.83 2.59.52 3.93l-.7.11c-.69-1.39-.63-2.74.18-4.04z"/><path d="m164.83 255.26c.25-.32.74-.96.99-1.28-.14.5-.4 1.5-.54 2z"/><path d="m116.63 256.28c.73 1.47 1.67 3.03 3.48 1.66l.68-.62c.21-.06.61-.18.82-.24-.63 1.53.01 3.05.07 4.59-1.1-.06-1.45-1.57-2.02-2.33-1.26.58-2.22 1.66-3.41 2.37.58-1.82 2.15-3.77.38-5.43z"/><path d="m121.61 257.08c.3-.14.3-.14 0 0z"/><path d="m172.55 257.63c.06-.12.18-.38.24-.5-.06.12-.18.38-.24.5z"/><path d="m73.13 258.1c.28.3.85.89 1.13 1.18l-.26.76-.79-.29c-.02-.41-.06-1.24-.08-1.65z"/><path d="m172.26 262.82c-1.02-1.61-.66-3.64.29-5.19.58 1.63 1.06 3.77-.29 5.19z"/><path d="m192.48 257.73c2.72 4 .17 9.26-1.88 13.06-1.4.9-2.89 1.69-4.37 2.46 2.03-1.99 4.76-3.62 5.49-6.56 1.1-2.87 1.13-5.96.76-8.96z"/><path d="m197.94 269.28c1.58-3.66 1.61-7.79 2.89-11.43.08 3.83.05 8.59-2.89 11.43z"/><path d="m74 260.04c1.89.73 3.24 2.89 3.09 4.92-1.85-.86-3.2-2.85-3.09-4.92z"/><path d="m179.91 263.09c.7-.59 2.12-1.76 2.83-2.34.05 2.68.58 5.46-.26 8.09l-1.3.19c.73-1.82.96-3.77 1.02-5.71l-1.89-.07z"/><path d="m172.26 262.82.82-.24c.25.38.77 1.15 1.02 1.54-.46-.33-1.38-.97-1.84-1.3z"/><path d="m160 264.84c.13-.06.4-.19.53-.26-.13.07-.4.2-.53.26z"/><path d="m77.09 264.96c.52.29 1.55.88 2.06 1.18l.4.8c-.45 1.24-1.08 2.54-2.38 3.09.27-1.69.51-3.41-.08-5.07z"/><path d="m160.11 266.81c-1.49-.53-1.52-1.19-.11-1.97.03.5.08 1.48.11 1.97z"/><path d="m149.91 266.88c3.51 3.57 5.5 8.29 8.28 12.4.51-.24 1.53-.7 2.04-.93-1.16 2.43-2.15 5.08-4.31 6.84.74-1.44 1.49-2.87 2.21-4.32-1.63-3.12-3.64-6.02-5.4-9.07-10.01 5.36-21.34 8.71-32.77 8.21.34 1.03.66 2.08.97 3.13l-.1.67c-.66-1.26-1.35-2.5-2.04-3.74-6.88.19-13.73-.91-20.36-2.65-3.03-.87-6.16-1.7-8.76-3.55 6.25 1.94 12.47 4.07 19 4.86 14.78 1.61 30.43-.13 43.43-7.79-.77-1.34-1.51-2.68-2.19-4.06z"/><path d="m160.11 266.81c.52.27 1.57.8 2.09 1.06.02.61.05 1.82.07 2.42-1.53-.32-2.55-1.96-2.16-3.48z"/><path d="m180.43 269.34c.18-.08.56-.23.75-.31-.19.08-.57.23-.75.31z"/><path d="m182.48 268.84c.71.92 1.33 1.9 1.94 2.9.61.49 1.21.99 1.81 1.51l.03.4c-1.06-.07-2.13-.13-3.18-.18-.29.65-.87 1.95-1.16 2.59.16-1.46.35-2.92.55-4.37.01-.09.03-.28.03-.37 0-.62-.01-1.86-.02-2.48z"/><path d="m75.32 273.28c-.57-1.34.3-3.18 1.85-3.25.33 1.42-.65 2.65-1.85 3.25z"/><path d="m162.27 270.29c1.33.53 1.79 1.48 1.4 2.84-1.29-.55-1.76-1.5-1.4-2.84z"/><path d="m163.67 273.13c5.54-.5 11.24-.77 16.21-3.57-3.56 2.35-7.11 4.82-11.2 6.15-.52-.01-1.54-.03-2.05-.04.98-.33 1.76-.92 2.33-1.76-1.29-.23-2.57-.23-3.86.01l.76 1.72c.67 1.16 1.36 2.32 2.07 3.47-.01.9-.03 2.71-.04 3.62-.9-3.42-2.58-6.51-4.22-9.6z"/><path d="m196.21 271.11.88-1.56.86.05-.08.74c-.42.2-1.24.58-1.66.77z"/><path d="m73.12 276.08c.11-1.24.59-3.01 2.2-2.8.13 1.31-.61 3.07-2.2 2.8z"/><path d="m83.79 275.09c.37-1.38 1.05-2.54 2.05-3.49 1.59-.07 2.99.99 3.83 2.27-1.29-.3-2.59-.49-3.9-.58-.5.45-1.49 1.35-1.98 1.8z"/><path d="m83.4 275.74c.1-.16.29-.49.39-.65-.1.16-.29.49-.39.65z"/><path d="m72.27 278.17c.21-.52.64-1.56.85-2.09l.34.8c-.3.32-.89.96-1.19 1.29z"/><path d="m80.73 278.52c.53-1.25 1.42-2.18 2.67-2.78-.15 1.73-1.15 3.15-2.19 4.48-.12-.43-.36-1.27-.48-1.7z"/><path d="m181.04 279.07c-.43-1.3-.14-2.3.88-3.01-.03.71-.09 2.11-.11 2.82z"/><path d="m70.85 279.92c.36-.44 1.07-1.31 1.42-1.75-.14.41-.43 1.24-.57 1.65z"/><path d="m73.08 284.8c-2.06-.76-2.97-2.84-2.23-4.88 1.65.99 2.54 2.98 2.23 4.88z"/><path d="m80.72 280.94c1.26.64 1.82 1.73 1.66 3.24-1.36-.78-1.91-1.86-1.66-3.24z"/><path d="m159.25 294.83c2.65-3.97 4.88-8.22 7.72-12.07l.12 1.12c-1.7 3.08-4.45 5.7-5.2 9.23 3.65-.35 7.27.24 10.73 1.4-4.42.6-9.06-1.91-13.37.32z"/><path d="m82.38 284.18c.09.14.27.4.37.53-.1-.13-.28-.39-.37-.53z"/><path d="m73.08 284.8c1.24.36 2 1.23 2.31 2.59l-.3.52c-1.35-.36-2.34-1.7-2.01-3.11z"/><path d="m82.75 284.71c1.8.73 2.7 2.48 2.9 4.33-2.21-.11-2.78-2.54-2.9-4.33z"/><path d="m155.71 285.49c-.52 3.49-3.2 6.17-4.92 9.16-2.77.96-5.82 2.2-7.11 5.07-1.96 3.48-.1 7.44 1.62 10.59-2.39-1.64-3.28-4.45-3.54-7.19-1.97-.94-4.28-1.47-5.72-3.23 1.92.76 3.84 1.53 5.76 2.3.5-1.41 1.02-2.82 1.58-4.21.24-.2.71-.6.95-.8 1.8-1.66 4.06-2.61 6.26-3.6.22-.36.68-1.07.91-1.42.26-.43.78-1.29 1.03-1.72 1.01-1.68 2.08-3.33 3.18-4.95z"/><path d="m123.95 287.27c.24.47.72 1.39.96 1.85-.35-.29-1.05-.89-1.4-1.19z"/><path d="m75.09 287.91.61.06c.09.48.26 1.42.35 1.9-.24-.49-.72-1.47-.96-1.96z"/><path d="m85.65 289.04c.25.51.76 1.53 1.01 2.05-.32-.31-.97-.92-1.3-1.22z"/><path d="m124.91 289.12c1.86.1 3.46 1.94 3.09 3.82-1.8-.35-2.74-2.18-3.09-3.82z"/><path d="m76.05 289.87c1.29.16 2.03.96 2.21 2.38l-.71.16c-.38-.63-1.12-1.91-1.5-2.54z"/><path d="m86.66 291.09c.3.33.9.99 1.2 1.32l-.41.82c-.2-.53-.59-1.61-.79-2.14z"/><path d="m128 292.94c1.36-.02 2.12.67 2.26 2.06-1.44.04-2.19-.65-2.26-2.06z"/><path d="m172.78 294.49c.55-.35 1.66-1.07 2.22-1.43.01.73.02 2.2.03 2.93-1.28.19-2.03-.31-2.25-1.5z"/><path d="m67.1 294.92c.18-.11.55-.33.73-.43l-.28.41z"/><path d="m64.01 295.93c.84-1.03 1.87-1.37 3.09-1.01-.65 1.37-1.68 1.71-3.09 1.01z"/><path d="m130.26 295 .94.13c.27.17.82.5 1.09.67.15.25.46.74.61.99l-.18.81c-1.44.35-3.33-1.09-2.46-2.6z"/><path d="m62.07 297.1c.48-.3 1.45-.88 1.94-1.17l-.2.82c-.44.09-1.31.26-1.74.35z"/><path d="m59.82 298.24c.56-.29 1.68-.86 2.25-1.14-.57.28-1.69.85-2.25 1.14z"/><path d="m59.15 298.74c.17-.12.5-.38.67-.5-.17.12-.5.38-.67.5z"/><path d="m56.75 300.28c.6-.38 1.8-1.15 2.4-1.54-.6.39-1.8 1.16-2.4 1.54z"/><path d="m134.18 298.97.8-.4c.27.33.8.99 1.06 1.32-.46-.23-1.39-.69-1.86-.92z"/><path d="m181.03 298.83c.5.33 1.51 1.01 2.01 1.35-.5-.34-1.51-1.02-2.01-1.35z"/><path d="m56.07 300.89c.17-.15.51-.45.68-.61-.17.16-.51.46-.68.61z"/><path d="m55.57 301.34c.13-.11.38-.34.5-.45-.12.11-.37.34-.5.45z"/><path d="m183.47 300.53c4.93 2.94 8.44 10.73 3.25 15.11.22-1.33 1.55-2.78.77-4.12-1.61-3.34-4.72-5.48-7.53-7.71 3.7.87 5.76 4.24 8.35 6.7.27-4.04-2.9-6.83-4.84-9.98z"/><path d="m57.88 315.16c1.34-4 4.26-7.55 8.07-9.4-.51 1.47-2.16 2.02-3.19 3.07-2.13 1.7-2.81 4.59-4.88 6.33z"/><path d="m173.79 305.81c4.85 1.88 7.46 6.7 9.23 11.3.65-.12 1.94-.36 2.59-.48-2.65 2.62-6.51 2.74-9.66 4.37h-9.88c-4.7-1.65-9.9-2.62-13.81-5.9 6.51 2.17 12.84 5.82 19.99 4.94-1.01-5.37-4.41-9.63-8.33-13.22 5.23 2.36 7.87 7.93 9.06 13.26 3.16-.57 6.3-1.26 9.37-2.21-1.3-4.98-4.59-8.94-8.56-12.06z"/><path d="m145.3 310.31c.09.08.27.25.36.34-.09-.09-.27-.26-.36-.34z"/><path d="m145.66 310.65c2.45 1 4.77 2.34 6.51 4.37-2.53-.85-4.67-2.48-6.51-4.37z"/><path d="m85.97 316.16c.48-2.21 2.96-3.03 4.93-3.35-.38 2.25-3.09 2.78-4.93 3.35z"/><path d="m118.52 3.44c10.57-2.69 22-3.89 32.52-.3.5.2 1.49.61 1.99.81.3.34.89 1.01 1.19 1.35l.92-.21c.16.18.48.55.64.74.32 1.37 1.72 2.35 3.12 2.21.04 1.34.73 2.02 2.07 2.04-.16 1.38.79 2.88 2.21 3.09.13.13.4.4.53.53.89 1.85 1.8 3.68 2.75 5.5-1.75.2-3.49.44-5.23.71-1.15-.74-2.3-1.47-3.47-2.16.62.57 1.85 1.72 2.47 2.29-1.62.92-3.27 1.79-4.93 2.64-1.08-.92-2.13-1.86-3.17-2.82.74 1.21 1.19 2.56 1.44 3.95-1.49.73-3.12.92-4.7 1.27-.58-.64-1.72-1.92-2.29-2.56-1.83-1.65-4.1-2.69-6.39-3.52.19-.58.57-1.74.76-2.32-.32.42-.96 1.24-1.28 1.65-.35-.11-1.05-.33-1.4-.44-1.45-.49-2.94-.65-4.46-.48.77-1.16 1.52-2.33 2.27-3.51-.97.86-1.91 1.77-2.94 2.57-2.18-.14-5.87-.59-4.42-3.67-.72 3.6-5.02 2.35-7.65 2.88.51-.7 1.54-2.09 2.05-2.79-2.02 1.77-4.6 2.1-7.21 2.06.51-.74 1.52-2.22 2.03-2.96-1.81 1.35-3.36 3.66-5.87 3.44-1.34-.01-3.57.62-3.81-1.25.1-.28.3-.83.39-1.1.49-.38 1.48-1.13 1.97-1.5 1.38-1 3.1-.99 4.73-1.02-.55-.16-1.66-.47-2.22-.63.62-.99 1.24-1.98 1.85-2.97 2.06-.15 4.12-.28 6.17-.55-1.17-.02-3.49-.06-4.65-.08.68-.96 1.36-1.92 2.02-2.89m27.43 16.42c1.36.3 1.92-.24 1.68-1.62-1.39-.26-1.95.28-1.68 1.62z" fill="#f6c87a"/><path d="m166.72 29.4c.4-.07 1.21-.2 1.61-.27-.07.57-.21 1.72-.28 2.29-.33-.51-1-1.51-1.33-2.02z" fill="#f6c87a"/><path d="m67.75 195.69c4.84 1.71 9.2 4.61 14.07 6.32-1 2.2-1.72 4.57-1.57 7.03-4.77-3.76-9.82-7.76-12.5-13.35z" fill="#f6c87a"/><path d="m151.01 204.06c5.7-2.06 11.11-4.75 16.45-7.58-4.5 7.59-9.5 15.08-16.35 20.77-3.7 3.06-8.03 5.17-12.05 7.76-4.39 2.68-8.58 5.74-13.25 7.95-1.67.3-3.22-.66-4.78-1.08-7.4-2.71-14.63-6.04-21.24-10.34 4.98.03 9.4-3.46 11.6-7.73l.63.05c5.87.42 13.32 1.31 17.47-3.86-2.17.02-4.34.17-6.5.39l-.05-1.48c2.35-.22 4.72-.42 7.08-.54-.02 1.54-.02 3.08-.02 4.63h1.03c-.06-1.64-.12-3.28-.21-4.92 3.35-.16 6.59-1.11 9.94-1.28 1.07 2.44 2.65 4.63 3.49 7.17-8.13 4.26-16.89 7.97-26.24 8.03-3.09-.06-6.14-.62-9.21-.82 6.59 2.83 14.24 4.21 21.11 1.52 5.22-2.03 10.28-4.63 14.75-8.02.67 1.01 1.51 1.85 2.5 2.52-.42-1.08-.92-2.12-1.51-3.12 5.24-3.34 10.24-7.2 14.12-12.1-2.31 1.19-4.15 3.02-6.06 4.74-2.51 2.27-5.53 3.91-7.9 6.34l-.51.49c-1.26-2.36-2.73-4.63-3.61-7.17 2.82-.47 5.59-1.22 8.31-2.1.01.78.04 2.32.05 3.09.95-.78 1.27-1.88.96-3.31z" fill="#f6c87a"/><path d="m110.28 208.35c3.9.55 7.85.58 11.79.55-.07.55-.2 1.65-.27 2.21-3.36-.18-6.74-.17-10.1-.02-.36-.69-1.07-2.05-1.42-2.74z" fill="#f6c87a"/><path d="m103.92 7.16c4.08-.91 8.07-2.21 11.96-3.75.15.61.46 1.82.62 2.43-.8.15-2.39.44-3.18.58.24.36.73 1.09.98 1.45-1.72 3.06-5.25 2.66-8.25 2.51 1.54.28 3.2.35 4.57 1.2-.49.37-1.48 1.12-1.97 1.5-1.13.64-1.86 1.75-2.69 2.72 2.23.06 4.45.13 6.68.21-.28.48-.84 1.44-1.12 1.92 1.33-.97 2.66-1.95 3.98-2.94 1.7.25 4.07-.6 5.03 1.3 1.94-.26 3.9-.41 5.86-.48-.03.58-.08 1.73-.11 2.31.58-.88 1.15-1.76 1.73-2.64 1.59.95 4.63.76 4.66 3.19.27-.24.83-.73 1.11-.97 1.49.07 2.99.13 4.49.19.69 1.02.52 2.14.09 3.23.41-.42 1.23-1.26 1.64-1.68 1.79.82 3.57 1.7 5.31 2.63-.46 1.29-.93 2.57-1.4 3.84.87-1.15 1.75-2.28 2.67-3.39.85 1.36 1.72 2.7 2.59 4.05 2.02-.82 3.92-1.89 5.73-3.11 1.22 1.24 2.47 2.46 3.81 3.59-1.13-1.29-2.3-2.53-3.48-3.76 1.87-.93 3.75-1.86 5.62-2.8 1.45.9 2.9 1.79 4.37 2.66-1.02-1.04-2.07-2.06-3.11-3.08 1.61-.1 3.22-.2 4.83-.31.6 2.88 1.13 5.78 1.11 8.73-.64-.1-1.9-.29-2.54-.38-1.55 4.22-6.1 6.41-10.18 7.54-11.02 2.74-22.25 4.54-33.27 7.26-2.92.26-5.46 1.76-8.19 2.68-.16.04-.5.14-.66.19-1.42.32-2.84.57-4.29.73-.12.02-.36.04-.48.06-5.31-.15-10.41 1.51-15.49 2.82-1.41-.71-2.44-.36-3.09 1.05-3.5.12-6.92.87-10.29 1.76-4.63-.02-9.27-.32-13.88.11l-.23.02c-3.14-1.83-6.01-4.14-7.6-7.49 3.48-5.2 7.46-10.01 11.53-14.75.08-.23.22-.68.3-.91 1.55.05 2.44-.72 2.67-2.31.12-.14.37-.44.5-.58 1.61.25 3.22-1.04 3.22-2.69.24-.14.72-.4.96-.53.16-.23.5-.67.67-.9 1.58.28 3.47-.8 3.33-2.57.22-.1.67-.3.89-.4 2.01-.32 4.4-1.31 5.09-3.4.19-.14.57-.41.76-.55 3.31-1.38 6.52-3.04 9.38-5.21.49-.24 1.49-.72 1.99-.95 1.4.49 2.31.06 2.72-1.29.51-.16 1.53-.48 2.05-.64z" fill="#cb6732"/><path d="m153.71 206.72c1.91-1.72 3.75-3.55 6.06-4.74-3.88 4.9-8.88 8.76-14.12 12.1l.16-1.02c2.37-2.43 5.39-4.07 7.9-6.34z" fill="#cb6732"/><path d="m122.99 210.39c2.16-.22 4.33-.37 6.5-.39-4.15 5.17-11.6 4.28-17.47 3.86-.08-.69-.24-2.08-.32-2.77 3.36-.15 6.74-.16 10.1.02.29.54.85 1.64 1.14 2.18.01-.72.03-2.18.05-2.9z" fill="#cb6732"/><path d="m118.01 222c9.35-.06 18.11-3.77 26.24-8.03l1.1-.23-.69.94c-4.47 3.39-9.53 5.99-14.75 8.02-6.87 2.69-14.52 1.31-21.11-1.52 3.07.2 6.12.76 9.21.82z" fill="#cb6732"/><g fill="#24211f"><path d="m153.03 3.95c.53.29 1.58.85 2.11 1.14l-.92.21c-.3-.34-.89-1.01-1.19-1.35z"/><path d="m155.78 5.83c1.41-.33 3.06.69 3.12 2.21-1.4.14-2.8-.84-3.12-2.21z"/><path d="m99.15 9.09c.51-1.22 1.42-1.65 2.72-1.29-.41 1.35-1.32 1.78-2.72 1.29z"/><path d="m87.78 15.25c2.71-2.37 5.89-4.24 9.38-5.21-2.86 2.17-6.07 3.83-9.38 5.21z"/><path d="m160.97 10.08c1.5.08 2.47 1.68 2.21 3.09-1.42-.21-2.37-1.71-2.21-3.09z"/><path d="m81.93 19.2c.79-1.98 3.02-3.27 5.09-3.4-.69 2.09-3.08 3.08-5.09 3.4z"/><path d="m228.19 25.26c1.1-3.11 1.88-6.4 3.79-9.15-.62 3.1-1.67 6.09-2.88 9z"/><path d="m77.71 22.17c.7-1.31 1.94-2.15 3.33-2.57.14 1.77-1.75 2.85-3.33 2.57z"/><path d="m193.13 20.28c.46-.07 1.39-.2 1.86-.27-.29.26-.86.8-1.15 1.06l-.83-.25z"/><path d="m184.88 24.06c2.36-1.51 4.98-2.52 7.63-3.4-1.86 2.32-4.8 3.12-7.63 3.4z"/><path d="m56.05 23.78c1.41.36 3.44.62 3.8 2.34-1.57.12-3.9-.29-3.8-2.34z"/><path d="m72.86 26.29c.48-1.46 1.85-2.24 3.22-2.69 0 1.65-1.61 2.94-3.22 2.69z"/><path d="m179.03 27.04c.59-1.56 2.41-1.84 3.86-2.01.07 1.95-2.36 2.47-3.86 2.01z"/><path d="m69.69 29.18c.46-1.26 1.35-2.03 2.67-2.31-.23 1.59-1.12 2.36-2.67 2.31z"/><path d="m226.61 29.59c.34-.98.85-1.85 1.55-2.62-1.81 7.47-4.99 14.53-7.32 21.84-2.67-1.02-5.56-.99-8.16.22 1.76-2.43 4.91-2.25 7.46-1.4 2.38-5.93 4.32-12.02 6.47-18.04z"/><path d="m171.72 31.19c1-1.98 3.21-2.74 5.23-3.19-.36 2.47-3.22 2.91-5.23 3.19z"/><path d="m65.69 52.31c4.61-.43 9.25-.13 13.88-.11l-1 .32c-4.18.36-8.45.52-12.6-.11z"/><path d="m19.08 90.3c2.92-3.64 6.25-6.99 10.2-9.5-2.46 4.16-6.89 6.64-9.95 10.35z"/><path d="m213.97 85.62c.26.31.77.93 1.02 1.24-.25-.31-.76-.93-1.02-1.24z"/><path d="m14.97 95.86c-.15-1.46 1.03-2.56 2.22-3.15.08 1.37-.4 3.48-2.22 3.15z"/><path d="m225.38 97.32c.06.14.17.43.23.58l-.4-.22z"/><path d="m9.38 103.14c.39-.03 1.18-.1 1.57-.14-.52 1.42-.83 3.69-2.73 3.81l-.35-.53c.46-1.07.96-2.12 1.51-3.14z"/><path d="m229.7 104.86.38.24-.19.38c-.05-.16-.14-.46-.19-.62z"/><path d="m5.45 111.07.56.23c.28 1.67-.41 3.39-2.17 3.84.07-1.51.62-2.93 1.61-4.07z"/><path d="m0 124.13c1.01-2.48 1.98-4.99 3.22-7.37-.33 2.88-1.1 5.71-2.61 8.21l-.61.24z"/><path d="m237.1 118.87c.82 2.13 1.84 4.17 2.9 6.19v2.22l-.48-.27c-1.33-2.52-2.64-5.2-2.42-8.14z"/><path d="m1.24 129.35c3.24.18 6.42.86 9.51 1.82l-.22.8c-3.23-.96-6.56-1.51-9.89-1.93z"/><path d="m227.82 133.41c3.16-1.97 7-2.59 10.67-2.32l.72.58c-3.97.08-7.75 1.29-11.56 2.21z"/><path d="m13.55 133.2.49-.35c2.3.75 3.06 3.83 1.01 5.34-.22-1.75-.69-3.43-1.5-4.99z"/><path d="m108.05 135.21c.39-.36 1.17-1.08 1.56-1.44 1.58 1.18 3.6.95 5.45 1.12 1.52 1.29 2.82 2.98 2.14 5.11-2.27 2.72-5.8 3.83-9.27 3.29-1.66.3-4.09-1.06-2.98-2.99 1.51-.83 3.06-1.72 3.81-3.36-.18-.43-.54-1.3-.71-1.73z"/><path d="m225.54 141.04c-1.76-1.11-2.43-3.46-.88-5.07.63 1.4.95 2.91 1.25 4.42z"/><path d="m10.17 142.9c.66-1.81 2.57-2.72 3.86-4.03-.07 1.62-.75 3.21-1.97 4.31-.47-.07-1.42-.21-1.89-.28z"/><path d="m12.3 143.16c4.14-.38 8.57.45 12.07 2.75-3.97-.72-7.87-1.76-11.81-2.67z"/><path d="m228.13 142.57c.71.61 1.42 1.23 2.14 1.85-7.69.83-14.98 3.41-22.28 5.8.65-.8 1.45-1.38 2.4-1.76 5.51-2.27 11.34-3.54 17.15-4.79z"/><path d="m27.92 146.94c1.76-.5 3.54.31 4.45 1.87-1.61.17-3.19-.45-4.44-1.43z"/><path d="m32.97 148.86c.55.33 1.64.98 2.18 1.3-.54-.15-1.62-.47-2.16-.63z"/><path d="m35.65 150.52.94.93c1.04 4.58 3.02 9.01 3.33 13.73-2.42-4.56-3.3-9.66-4.27-14.66z"/><path d="m199.78 154.34c1.41-2.13 3.81-3.34 6.37-3.22-2.03 1.26-4.12 2.43-6.37 3.22z"/><path d="m197.06 160.14c-.66-1.99-.3-4.59 1.98-5.28-.42 1.76-.78 3.56-1.6 5.2z"/><path d="m195.19 165.87c-.75-1.89-.2-4.57 1.98-5.19-.19 1.88-.78 3.71-1.98 5.19z"/><path d="m41.02 167.03c2.06.22 2.28 2.48 2.24 4.14-1.42-.91-2.38-2.42-2.24-4.14z"/><path d="m43.71 171.79c1.56.41 2.51 1.77 2.7 3.32l-.21.28-.57.21c-1.2-.91-1.68-2.39-1.92-3.81z"/><path d="m46.55 175.02c1.45-1.11 3.09-1.96 4.91-2.28-.96 1.03-2.09 1.88-3.28 2.63.01.77.03 2.31.04 3.08-.6-.67-1.8-2-2.4-2.67l.38-.39c.09-.09.26-.28.35-.37z"/><path d="m49.72 179.77c1.44.21 2.28 1.06 2.52 2.55-1.43-.3-2.27-1.15-2.52-2.55z"/><path d="m52.7 182.77c1.5.25 2.37 1.13 2.61 2.62-1.41-.33-2.28-1.21-2.61-2.62z"/><path d="m56.76 187.04c.91-.84 1.96-1.49 3.08-2-.06 1.4-.17 2.8-.29 4.19-.75-.49-1.5-.98-2.25-1.47z"/><path d="m172.25 188.16c2.93-1.38.26 3.38 0 0z"/><path d="m174.15 214.09.96 1.52-.85.18-.56-.85z"/><path d="m176.07 218.44.64-.27c1.23.92 1.97 2.53 1.31 4.03l-.45-.04c-.82-1.1-1.27-2.39-1.5-3.72z"/><path d="m189.17 217.73c1.21 2.43 2.43 4.92 2.73 7.66-1.47-1.78-2.22-3.97-2.77-6.17z"/><path d="m177.91 222.72c2.06.72 2.73 3.26 2 5.17l-.31-.04c-.96-1.56-1.43-3.34-1.69-5.13z"/><path d="m179.81 228.26c2.7 4.04 2.97 9.09 3.38 13.78-1.46-.59-3-.93-4.58-.85 1.16-.86 2.35-1.69 3.54-2.52-.68-3.5-1.48-6.96-2.34-10.41z"/><path d="m192.99 228.35c1.24 3.02 1.87 6.24 2.16 9.5.52.26 1.57.78 2.09 1.04-.77.03-2.3.11-3.07.15-.07-3.6-.93-7.11-1.18-10.69z"/><path d="m202.26 244.45.12.21c1.31 2.09 2.23 4.41 2.48 6.89l-.34-.25c-1.25-2.09-2.01-4.43-2.26-6.85z"/><path d="m160.53 264.58c.91-3.16 2.31-6.32 4.75-8.6-.97 3.16-2.49 6.16-4.75 8.6z"/><path d="m204.75 255.96.7-.11c.89 4.1 1.1 8.73-1.37 12.35.85-4.02 1.38-8.16.67-12.24z"/><path d="m174.1 264.12c1.91-.47 3.87-.73 5.81-1.03l.4.16c-1.45 2.1-4.27 2.59-6.21.87z"/><path d="m79.15 266.14c-.84-1.28 1.73-3.66 1.95-1.49-.32.88-.84 1.64-1.55 2.29z"/><path d="m197.95 269.6c1.45.01 2.89.26 4.26.74-.92 1.64-3.45 1.76-4.34 0z"/><path d="m191.92 272.21c1.32-.67 2.76-1.29 4.29-1.1-.71 1.61-3.04 2.96-4.29 1.1z"/><path d="m79.17 278.21c.39.08 1.17.24 1.56.31.12.43.36 1.27.48 1.7l-.49.72c-1.3.21-2.7-1.75-1.55-2.73z"/><path d="m181.04 279.07.77-.19c-1.54 4.69-2.22 10.22-6.18 13.61 2.5-4.17 4.05-8.78 5.41-13.42z"/><path d="m120.93 283.14c2.14-.05 2.79 2.44 3.02 4.13l-.44.66c-1.08-1.24-2.04-2.6-2.68-4.12z"/><path d="m75.39 287.39c.08.14.23.44.31.58l-.61-.06z"/><path d="m77.55 292.41.71-.16c.61.97 1.28 1.91 1.94 2.85-4.06-2.02-8.42-.54-12.65-.2l.28-.41c3.12-1.2 6.49-1.34 9.72-2.08z"/><path d="m87.45 293.23c3.82.96 8.15 2.49 9.84 6.4 2.37 4.99-.86 11.27-5.89 13.05 1.92-2.81 5.3-4.98 5.61-8.62.43-3.24-1.79-6.15-4.38-7.81-1.72-1.05-4.22-.97-5.18-3.02z"/><path d="m131.2 295.13c.27.17.82.5 1.09.67-.27-.17-.82-.5-1.09-.67z"/><path d="m132.29 295.8c.15.25.46.74.61.99-.15-.25-.46-.74-.61-.99z"/><path d="m175.8 296.02c1.66-.19 3.18.67 4.11 2.02-1.71.47-3.68-.13-4.11-2.02z"/><path d="m132.9 296.79c.53.28 1.57.83 2.1 1.11l-.02.67-.8.4c-.36-.34-1.09-1.03-1.46-1.37z"/><path d="m51.52 313.54c-2.37-4.44.46-9.44 4.05-12.2-1.32 2.62-3.19 5.04-3.75 7.98 2.75-2.25 5.21-5 8.64-6.26-2.95 3.54-7.25 5.93-8.94 10.48z"/><path d="m66.66 319.94c1.53-5.2 3.92-11.41 9.59-13.15-3.78 3.74-7.41 7.82-8.44 13.24 5.95.5 11.38-2.19 17.03-3.53-2.86 2.4-6.69 2.76-9.89 4.5h-10.22c-4.28-1.6-9.47-2.15-12.29-6.22 1.66.7 3.34 1.38 5.02 2.02 2.53 2.28 6.05 2.38 9.2 3.14z"/></g><path d="m8.4 10.89c12.51 1.32 24.79 4.52 36.54 9 1.57.58 3.19 1.03 4.81 1.47.3.08.89.25 1.18.33.57 1.23 1.53 1.76 2.9 1.58.56.13 1.67.39 2.22.51-.1 2.05 2.23 2.46 3.8 2.34.33.08 1.01.24 1.34.32 1.93 1.77 4.24 3.02 6.49 4.32-4.11 4.6-7.92 9.48-11.2 14.71-1.44 2.49-2.69 5.62-1.46 8.44 1.45 3.19 4.77 5.14 8.06 5.93 8.31.83 16.55-1.29 24.87-.94l.19.06-.5-.72c4.41-.31 8.73-1.42 13.17-1.51l.26.11c.04-.14.11-.43.14-.58 16.98-2.48 33.73-6.38 50.59-9.58 4.87-.88 10.1-2.31 13.37-6.3 2.45-2.69 2.6-6.95 5.93-8.93l.34-.12.28-.14c2.01-.28 4.87-.72 5.23-3.19.45-.05 1.34-.14 1.79-.19l.29-.77c1.5.46 3.93-.06 3.86-2.01l.81.31c.3-.32.89-.96 1.18-1.28 2.83-.28 5.77-1.08 7.63-3.4l.5.16.83.25c.29-.26.86-.8 1.15-1.06.48-.25 1.44-.75 1.93-1 1.43-.23 2.89-.43 4.28-.89 10.32-3.56 21.01-6.25 31.91-7.2-7.37 9.15-13.82 19-20.12 28.91-6.54 10.76-13.19 21.52-18.33 33.04.81.03 2.43.1 3.23.14l.33.15-.56-1.01c.86-.04 2.58-.12 3.45-.16-.41.99-.81 1.99-1.21 2.99 1.82.01 3.64.02 5.47.02-.45 1.01-.91 2.01-1.36 3.01 1.2.08 2.4.17 3.6.26.58 1.36 1.23 2.69 2.02 3.94.6 1.42 2.12 2.06 3.58 2.16.14.12.41.38.55.5l.21.75c.26.31.77.93 1.02 1.24l1.1.49c.24.17.72.52.96.69.16.16.48.48.64.64 1.21 2.02 2.57 4.04 4.69 5.21-.41 1.77.91 3.87 2.83 3.79 1.13 2.61 2.75 4.96 4.49 7.18.05.16.14.46.19.62.51 1.65.94 4.09 3 4.43.47 2.62 1.76 4.96 3.1 7.23.08.4.24 1.21.33 1.62l.78.11c-.22 2.94 1.09 5.62 2.42 8.14-.48 1.32-.82 2.68-1.03 4.08-3.67-.27-7.51.35-10.67 2.32-.15.14-.45.43-.6.57-1.3.01-2.15.67-2.56 1.99-1.55 1.61-.88 3.96.88 5.07.39.31 1.19.91 1.59 1.21.25.08.75.24 1 .32l-.59 1.1c-5.81 1.25-11.64 2.52-17.15 4.79-.95.38-1.75.96-2.4 1.76-.41.01-1.25.04-1.66.05l-.18.85c-2.56-.12-4.96 1.09-6.37 3.22-.19.13-.55.39-.74.52-2.28.69-2.64 3.29-1.98 5.28l.11.54c-2.18.62-2.73 3.3-1.98 5.19l-.82.23c-.07.45-.21 1.35-.28 1.8-2.07 2.03-3.5 4.56-4.33 7.34-.16.18-.49.54-.65.72-.37.58-1.12 1.74-1.5 2.33-.14.16-.42.49-.56.65-.12.13-.35.4-.47.53-1 .85-2.01 1.7-3.04 2.53-1.47-.77-2.98-1.48-4.52-2.11 1.4 1.31 3.56 2.34 2.89 4.68-.28.12-.84.35-1.11.47-.28.53-.83 1.58-1.1 2.1-.13.14-.39.41-.52.54-.49.19-1.47.57-1.96.75-3.43 2.05-6.48 4.65-9.88 6.75-1.13-.85-2.27-1.67-3.43-2.46.75 1.07 1.53 2.13 2.31 3.19-4.82 2.87-9.98 5.07-15.17 7.16-.06-.86-.18-2.57-.25-3.43-.44 1.24-.82 2.5-1.34 3.71-2.67 1.15-5.58 1.57-8.41 2.16-1.15-2.39-1.88-5.16-4.06-6.87.93 2.47 2.09 4.84 3.23 7.22-5.69.83-11.39 1.49-17.1 2.14-.12-.89-.36-2.66-.47-3.54-.32 1.17-.63 2.34-.93 3.53-3.53.04-7.09-.01-10.57-.65-.37-1.67-.76-3.33-1.16-4.99 2.34-1.33 5.05-2.75 5.87-5.54.35-2.22-1.22-4.3-2.98-5.48-6.15-2.28-10.89 6.92-16.94 3.74-.19-3.46 1.15-8.21-2.38-10.41-2.9-2.12-6.49.72-6.91 3.79-.88 4.43-2.09 8.84-4.47 12.73-3.97-1.83-8.11-3.34-11.85-5.63-.19-.62-.57-1.86-.76-2.47-.38.29-1.13.86-1.5 1.15-1.01-.55-2.02-1.1-3.02-1.64-.26-.04-.77-.11-1.03-.15-.28-2.08-2.47-3.44-4.47-3.21.12-1.39.23-2.79.29-4.19-1.12.51-2.17 1.16-3.08 2-.19-.26-.59-.78-.79-1.04-.16-.15-.49-.45-.66-.61-.24-1.49-1.11-2.37-2.61-2.62-.12-.12-.34-.34-.46-.45-.24-1.49-1.08-2.34-2.52-2.55-.18-.16-.52-.49-.7-.65-.2-.17-.6-.5-.8-.67-.01-.77-.03-2.31-.04-3.08 1.19-.75 2.32-1.6 3.28-2.63-1.82.32-3.46 1.17-4.91 2.28l-.14.09c-.19-1.55-1.14-2.91-2.7-3.32-.11-.15-.34-.47-.45-.62.04-1.66-.18-3.92-2.24-4.14-.06-.43-.19-1.28-.25-1.71l-.85-.14c-.31-4.72-2.29-9.15-3.33-13.73l-.94-.93c-.12-.09-.37-.27-.5-.36-.54-.32-1.63-.97-2.18-1.3l-.6-.05c-.91-1.56-2.69-2.37-4.45-1.87l-.53.05c-.65-1.31-1.65-1.67-3.02-1.08-3.5-2.3-7.93-3.13-12.07-2.75l-.24.02c1.22-1.1 1.9-2.69 1.97-4.31.26-.17.76-.51 1.02-.68 2.05-1.51 1.29-4.59-1.01-5.34-.91-.88-2.01-1.57-3.29-1.68-3.09-.96-6.27-1.64-9.51-1.82l-.03-1.12c-.15-.82-.45-2.45-.6-3.26 1.51-2.5 2.28-5.33 2.61-8.21l.22-.43.13-.44.27-.75c1.76-.45 2.45-2.17 2.17-3.84 1.27-1.14 2.45-2.67 2.21-4.49 1.9-.12 2.21-2.39 2.73-3.81.1-.54.31-1.61.42-2.15.11-.16.33-.48.44-.64.34-.51 1.01-1.52 1.35-2.03 1.37-.17 1.97-.95 1.81-2.32 1.82.33 2.3-1.78 2.22-3.15.14-.09.43-.27.57-.36.39-.3 1.18-.9 1.57-1.2 3.06-3.71 7.49-6.19 9.95-10.35.14-.14.42-.41.56-.54.59.14 1.78.43 2.38.57.42-.81.84-1.61 1.27-2.41 1.39-.17 2.79-.33 4.19-.5-.7-.97-1.4-1.94-2.1-2.9 1.78-.02 3.55-.03 5.32-.03.05-.78.14-2.34.19-3.12 1.77.42 3.55.83 5.33 1.22-.48-1.33-.95-2.67-1.56-3.94-8.58-16.37-18.1-32.25-28.74-47.36-2.43-3.74-5.44-7.07-7.72-10.9m40 66.47c-1.48 2.16.07 5.38-.32 7.95 6.31.24 12.61-.98 18.91-1.37 12.61-1.09 25.18-2.54 37.81-3.39.34-2.79.13-5.61-.12-8.4-18.76 1.78-37.51 3.59-56.28 5.21m81.45-4.2c-.77 2.68-.84 5.48-.92 8.25 18.96 1.59 37.91 3.66 56.92 4.76.25-2.69.61-5.37 1.03-8.04-5.66.05-11.22-1.07-16.86-1.24-13.37-1.43-26.82-2.12-40.17-3.73m-84.04 24.02c.11.35.33 1.05.45 1.4 2.69.82 5.52 1.11 8.22 1.89.99.85 1.11 2.26 1.64 3.39 2.36 7.07 8.5 12.86 15.88 14.31 8.21 2.41 16.95-1.82 22.22-8.09 2.97.76 5.93 1.65 8.98 2.01-.4-1.44-2.06-1.46-3.21-1.85-18.1-4.2-36.11-8.75-54.18-13.06m-2.69 4.92c1.83 5.64 3.7 11.27 5.78 16.83-1.95 1.32-5.45 1.22-6.06 3.83 2.1-.84 4.15-1.81 6.18-2.82 1.53 3.88 2.77 7.87 4.11 11.82-2.05 1.3-5.63 1.35-6.27 4.06 2.28-.97 4.41-2.33 6.83-2.95.52 3.13 2.4 6.03 2.47 9.16-2.02 1.52-4.99 1.79-6.38 4.08 2.56-.56 4.79-1.99 7.09-3.17 1 2.98 2.01 5.97 3.09 8.93-1.45.87-3.74 1.06-4.08 3.05 1.35-.57 2.67-1.23 4.04-1.76 1.23.58.67 2.08.79 3.13.13 2.74 1.96 5.02 3.3 7.3-2.04 1.74-6.11 1.3-6.98 4.01 2.52-.78 4.98-1.78 7.51-2.56.57 2.12 1.23 4.22 1.98 6.29-.66.32-1.98.97-2.64 1.29 1.04.15 2.08.3 3.13.44 1.61 2.58 1.06 6.78 4.07 8.17-.9-2.98-2.02-5.89-2.93-8.87 1.23-.57 2.43-1.2 3.58-1.9 6.4 3.85 13.29 7.09 20.6 8.7l-.04-.89.16.05c.15.31.43.93.58 1.24 3.11.37 6.67 2.44 9.62.94l.34.06c.14 1.58 1.72 1.49 2.93 1.46 1.51-.19 3.54.57 4.62-.86.75.12 2.25.36 3 .48-.87.31-1.74.64-2.59 1.01 11.76 1.04 23.52-.13 35.13-1.95.08-.31.24-.95.32-1.27l.3-.07.05.85c2.6-.92 6.74-.13 8.04-3.04.94-.33 1.88-.67 2.82-.98l.07 1.03c3.72-1.1 7.19-2.87 10.68-4.55l-.55-.85c.26-.14.76-.43 1.02-.58l-.34 1.09c4.93-2.77 10.37-6.16 12.49-11.66 1.34-1.64 1.76-3.78 2.11-5.8-3.92.91-7.78 2.07-11.64 3.17-.53-.5-1.59-1.48-2.11-1.98-.37 1.89-2.67 2.39-3.17 4.01-2.38-.54-5.29-.99-7.4.5l.13.5c-5.52-.92-11.24 1.06-16.78 1.52l.66.63c-1.54-.25-3.07-.57-4.63-.5-8.7.59-17.43.15-26.15.3-5.04.21-9.99-.97-15.01-1.02-6.8-.3-13.48-2.78-20.3-1.92-.14-1.52-2.53-2.68-3.71-3.42-.2-.29-.59-.86-.79-1.15-.81.82-1.62 1.65-2.42 2.49-1.11-.08-2.22-.18-3.32-.31-.88-1.47-2.69-1.54-4.13-2.06-.23-.74-.69-2.22-.93-2.97 1.34-.91 3-1.52 3.86-2.99-1.44.43-2.84.97-4.22 1.56-1.2-2.87-2.19-5.82-2.99-8.82 1.39-.76 3.37-.97 4.07-2.58-1.52.34-2.98.9-4.41 1.53-1.16-2.77-2.1-5.63-2.94-8.5.75-2.16 4.25-1.83 5.33-3.97-2.16.22-4.04 1.35-5.94 2.3-1.27-3.82-2.56-7.63-3.89-11.43 2.42-1.99 6.41-1.95 7.95-4.86-2.83.96-5.47 2.4-8.25 3.48-2.15-5.17-3.5-10.64-5.56-15.84-.32-.11-.96-.33-1.28-.44m88.74 4.65c3.26 1 6.59 1.7 9.91 2.46 1.98 9.82 10.91 18.28 21.21 18.03 6.77.53 13.01-3.22 17.39-8.09 3.2-.52 6.46 1.34 9.7 1.76-.12-.34-.37-1.02-.5-1.36-17.99-4.24-35.94-8.67-53.91-13.03-1.21-.11-2.99-1.21-3.8.23m-23.53 22.61c-4.53 1.1-9.7 2.42-12.48 6.52-1.26 1.94-2.34 4.44-1.28 6.72 1.99 5.38 8.03 7.56 13.12 8.9 8.36 1.48 17.66.93 24.78-4.13 2.44-1.63 3.98-4.41 4.11-7.34-.43-2.89-2.32-5.35-4.76-6.86-6.78-4.81-15.59-4.68-23.49-3.81m77.74 29.5c.86 2.79 1.82 5.56 2.82 8.3.55 1.08.72 2.8 2.19 3.02-.99-2.76-2.12-5.46-2.97-8.26-.43-1.15-.65-2.67-2.04-3.06m-13.82 29.3c.26 3.38 2.93-1.38 0 0z" fill="#656566"/><path d="m68.22 158.85.32.08c.93 1.61-1.31 4.78-2.6 2.59.8-.86 1.56-1.75 2.28-2.67z" fill="#656566"/><path d="m171.09 158.89c.27-.02.81-.05 1.07-.07 1.21 1.2 2.57 2.5 2.9 4.24-2.23.31-3.03-2.64-3.97-4.17z" fill="#656566"/><path d="m175.85 161.74c1.2-1.66 3.48-1.97 5.16-3-.01.48-.02 1.44-.03 1.93-.33.3-1.01.91-1.34 1.22l.54-1.59c-1.36.8-2.8 1.28-4.33 1.44z" fill="#656566"/><path d="m74.6 160.03.52.26c-.05.58-.17 1.75-.22 2.33 2.53-1.76 3.57 1.22 4.47 3.08 1.76.58 3.59 1.1 5.05 2.29-3.58-.16-6.68-1.87-8.05-5.28-.38.85-1.13 2.53-1.51 3.37-1.1-1.86-.51-4.1-.39-6.11z" fill="#656566"/><path d="m167.89 160.23.61-.06c.11.55.34 1.65.45 2.21-.48 1.14-.94 2.28-1.39 3.44-.27-.6-.82-1.8-1.09-2.39-1.15.65-1.48 1.9-1.85 3.08-4.42 1.01-8.82 2.06-13.13 3.5 3.29-3.04 8.08-2.87 12.13-4.18.52-2.31 2.4-3.27 4.62-3.43-.09-.54-.27-1.62-.35-2.17z" fill="#656566"/><path d="m67.01 167.34c1.27.06 4.34 2.53 1.96 3.42-1.76.5-2.52-2.18-1.96-3.42z" fill="#656566"/><path d="m88.35 186.45c.94-1.61 2.93-1.42 4.52-1.64 3.07 2.54 1.82 6.63 2.35 10.07.77.88 1.69 1.86 2.93 1.96 5.31-.56 9.19-5.58 14.74-4.99 1.16 1.78 3.21 4.1 1.51 6.23-3.3 4.09-9.28 4.65-12.52 8.84 2.45-1.27 4.8-2.71 7.18-4.1.65 1.63 1.3 3.36.97 5.15-1.17 1.97-2.93 3.5-4.27 5.35 1.53-1.03 2.93-2.24 4.29-3.48 2.39 3.15-.95 6.06-3.15 8.04-2.99 3.06-7.6 2.76-11.45 3.79-2.84.76-5.83.45-8.26-1.26-8.22 3.24-17.02 4.75-25.81 5.25-3.15.51-6.42-2.37-6.14-5.59.24-3.69 1.3-7.27 1.79-10.94 1.4-3.4 2.77-6.82 3.87-10.34 1.99.3 3.31-1.65 3.22-3.45.82-.01 2.45-.03 3.27-.04-1.22 1.54-2.53 3-3.62 4.64 1.23-.85 2.42-1.77 3.61-2.69 1.37 1.86 2.94 3.61 3.94 5.71-.47 3.1-.76 6.46-2.22 9.25-2.89 1.34-6.43.6-9.25 2.29 8.7-.94 17.48-2.64 25.42-6.42-1.57.27-3.13.59-4.68.92.81-3.88 2.28-7.57 4.16-11.05 1.97-3.58 1.89-7.84 3.6-11.5z" fill="#656566"/><path d="m168.04 196.12c1.55-1.28 3.06-2.71 4.95-3.48 1.9 1.18 3.39 2.88 5.05 4.35-.52 1.59.89 2.86 2.29 3.24.11.14.32.42.43.56.13 1.31.43 3.39 2.18 3.38-.54 1.56.42 3.56 2.16 3.75l-.3.81c.33.31.98.93 1.31 1.24.42 3.26 1.58 6.32 3.02 9.25.55 2.2 1.3 4.39 2.77 6.17-.52 1.2-.17 2.11 1.05 2.72l.04.24c.25 3.58 1.11 7.09 1.18 10.69.77-.04 2.3-.12 3.07-.15-.37 1.73 1.39 2.92 2.96 2.75-.15 1.53.53 2.4 2.03 2.6l.03.21c.25 2.42 1.01 4.76 2.26 6.85.1.15.31.46.41.62-.81 1.3-.87 2.65-.18 4.04.71 4.08.18 8.22-.67 12.24-.62.72-1.24 1.43-1.87 2.14-1.37-.48-2.81-.73-4.26-.74l-.86-.05c-.22.39-.66 1.17-.88 1.56-1.53-.19-2.97.43-4.29 1.1-.33-.35-.99-1.06-1.32-1.42 2.05-3.8 4.6-9.06 1.88-13.06.37 3 .34 6.09-.76 8.96-.73 2.94-3.46 4.57-5.49 6.56-.6-.52-1.2-1.02-1.81-1.51-.61-1-1.23-1.98-1.94-2.9.84-2.63.31-5.41.26-8.09-.71.58-2.13 1.75-2.83 2.34-1.94.3-3.9.56-5.81 1.03-.25-.39-.77-1.16-1.02-1.54l-.82.24c1.35-1.42.87-3.56.29-5.19.06-.12.18-.38.24-.5.25.06.74.17.99.23 1.39-3.71 1.32-7.69 1.48-11.58.12-.15.36-.44.48-.59.36-.22 1.06-.67 1.42-.89l-.26-1.24c.29-.19.86-.58 1.14-.77.15-.27.43-.82.57-1.1 1.58-.08 3.12.26 4.58.85-.41-4.69-.68-9.74-3.38-13.78l.1-.37c.73-1.91.06-4.45-2-5.17l.11-.52c.66-1.5-.08-3.11-1.31-4.03 0-1.2-.53-2.06-1.6-2.56-.24-.38-.72-1.14-.96-1.52-.31-.26-.94-.79-1.26-1.05-.29-.47-.88-1.41-1.18-1.88-.32-.5-.97-1.48-1.29-1.98-.81-4.03-5.67-7.37-3.09-11.65 1.44 1.74 2.57 3.69 3.73 5.63-.1-2.67-1.7-4.85-3.02-7.04m29.9 73.16c2.94-2.84 2.97-7.6 2.89-11.43-1.28 3.64-1.31 7.77-2.89 11.43z" fill="#656566"/><path d="m72.22 203.79c2.51 1.84 5.03 3.7 7.12 6.03-2.9.87-5.81 1.66-8.75 2.36.39-2.83 1.12-5.59 1.63-8.39z" fill="#656566"/><path d="m145.94 221.85c8.02-4.5 13.81-11.88 18.95-19.31 2.66 7.16 3.41 14.84 4 22.41.73 9.78-1.1 19.49-3.07 29.03-.25.32-.74.96-.99 1.28l.45.72c-2.44 2.28-3.84 5.44-4.75 8.6-.13.07-.4.2-.53.26-1.41.78-1.38 1.44.11 1.97-.39 1.52.63 3.16 2.16 3.48-.36 1.34.11 2.29 1.4 2.84 1.64 3.09 3.32 6.18 4.22 9.6-.2.29-.6.86-.8 1.15l-.12-1.12c-2.84 3.85-5.07 8.1-7.72 12.07 4.31-2.23 8.95.28 13.37-.32l.16-.02c.22 1.19.97 1.69 2.25 1.5l.77.03c.43 1.89 2.4 2.49 4.11 2.02.28.2.84.59 1.12.79.5.33 1.51 1.01 2.01 1.35.1.09.32.26.43.35 1.94 3.15 5.11 5.94 4.84 9.98-2.59-2.46-4.65-5.83-8.35-6.7 2.81 2.23 5.92 4.37 7.53 7.71.78 1.34-.55 2.79-.77 4.12-.34.35-.71.68-1.11.99-.65.12-1.94.36-2.59.48-1.77-4.6-4.38-9.42-9.23-11.3 3.97 3.12 7.26 7.08 8.56 12.06-3.07.95-6.21 1.64-9.37 2.21-1.19-5.33-3.83-10.9-9.06-13.26 3.92 3.59 7.32 7.85 8.33 13.22-7.15.88-13.48-2.77-19.99-4.94l-.09-.08c-1.74-2.03-4.06-3.37-6.51-4.37-.09-.09-.27-.26-.36-.34-1.72-3.15-3.58-7.11-1.62-10.59 1.29-2.87 4.34-4.11 7.11-5.07 1.72-2.99 4.4-5.67 4.92-9.16.06-.08.16-.23.21-.3 2.16-1.76 3.15-4.41 4.31-6.84-.51.23-1.53.69-2.04.93-2.78-4.11-4.77-8.83-8.28-12.4.68 1.38 1.42 2.72 2.19 4.06-13 7.66-28.65 9.4-43.43 7.79-6.53-.79-12.75-2.92-19-4.86-.84-1.28-2.24-2.34-3.83-2.27-1 .95-1.68 2.11-2.05 3.49-.1.16-.29.49-.39.65-1.25.6-2.14 1.53-2.67 2.78-.39-.07-1.17-.23-1.56-.31-1.15.98.25 2.94 1.55 2.73-.25 1.38.3 2.46 1.66 3.24.09.14.27.4.37.53.12 1.79.69 4.22 2.9 4.33l-.29.83c.33.3.98.91 1.3 1.22.2.53.59 1.61.79 2.14.96 2.05 3.46 1.97 5.18 3.02 2.59 1.66 4.81 4.57 4.38 7.81-.31 3.64-3.69 5.81-5.61 8.62-.12.03-.38.1-.5.13-1.97.32-4.45 1.14-4.93 3.35-.28.08-.85.25-1.13.34-5.65 1.34-11.08 4.03-17.03 3.53 1.03-5.42 4.66-9.5 8.44-13.24-5.67 1.74-8.06 7.95-9.59 13.15-3.15-.76-6.67-.86-9.2-3.14-1.68-.64-3.36-1.32-5.02-2.02-.23-.31-.69-.93-.92-1.24 1.69-4.55 5.99-6.94 8.94-10.48-3.43 1.26-5.89 4.01-8.64 6.26.56-2.94 2.43-5.36 3.75-7.98.13-.11.38-.34.5-.45.17-.15.51-.45.68-.61.6-.38 1.8-1.15 2.4-1.54.17-.12.5-.38.67-.5.56-.29 1.68-.86 2.25-1.14.43-.09 1.3-.26 1.74-.35l.2-.82c1.41.7 2.44.36 3.09-1.01l.45-.02c4.23-.34 8.59-1.82 12.65.2-.66-.94-1.33-1.88-1.94-2.85-.18-1.42-.92-2.22-2.21-2.38-.09-.48-.26-1.42-.35-1.9-.08-.14-.23-.44-.31-.58-.31-1.36-1.07-2.23-2.31-2.59.31-1.9-.58-3.89-2.23-4.88l.85-.1c.14-.41.43-1.24.57-1.65.3-.33.89-.97 1.19-1.29l-.34-.8c1.59.27 2.33-1.49 2.2-2.8 1.2-.6 2.18-1.83 1.85-3.25 1.3-.55 1.93-1.85 2.38-3.09.71-.65 1.23-1.41 1.55-2.29-.22-2.17-2.79.21-1.95 1.49-.51-.3-1.54-.89-2.06-1.18.15-2.03-1.2-4.19-3.09-4.92l.26-.76c-.28-.29-.85-.88-1.13-1.18-1.01-4.37-2.65-8.59-3.31-13.05-1.24-6.35-.87-12.85-.89-19.27 6.31-1.02 12.64-2.2 18.55-4.73 3.68 4.73 9.73-1.3 13.77 2.4 6.98 4.18 14.42 7.65 22.17 10.14 1.26.53 2.67.47 3.81-.32 6.41-3.51 12.32-7.86 18.71-11.42m-33.86 39.11c1.03 2.11 3.72 4.47 6.14 3.59-2.39-.66-5.05-1.74-5.85-4.34-1.56-2.77.8-5.46 2.69-7.3 2.95-.46 5.84.01 8.01 2.17-1.36-3.02-5.08-3.52-7.93-2.67-2.96 1.5-4.9 5.51-3.06 8.55m4.55-4.68c1.77 1.66.2 3.61-.38 5.43 1.19-.71 2.15-1.79 3.41-2.37.57.76.92 2.27 2.02 2.33-.06-1.54-.7-3.06-.07-4.59-.21.06-.61.18-.82.24l-.68.62c-1.81 1.37-2.75-.19-3.48-1.66m4.98.8c.3-.14.3-.14 0 0m-63.73 58.08c2.07-1.74 2.75-4.63 4.88-6.33 1.03-1.05 2.68-1.6 3.19-3.07-3.81 1.85-6.73 5.4-8.07 9.4z" fill="#656566"/><path d="m119.96 280.01c11.43.5 22.76-2.85 32.77-8.21 1.76 3.05 3.77 5.95 5.4 9.07-4.59-.43-8.93-2.07-13.39-3.15.12 5.35 4.28 9.21 7.79 12.72-.25.43-.77 1.29-1.03 1.72-5.57.48-10.65-1.72-15.82-3.35 1.33 4.09 4.97 6.57 8.65 8.37-.24.2-.71.6-.95.8-2.8.05-5.59-.03-8.38-.08-.53-.28-1.57-.83-2.1-1.11-.15-.25-.46-.74-.61-.99-.27-.17-.82-.5-1.09-.67l-.94-.13c-.14-1.39-.9-2.08-2.26-2.06.37-1.88-1.23-3.72-3.09-3.82-.24-.46-.72-1.38-.96-1.85-.23-1.69-.88-4.18-3.02-4.13-.31-1.05-.63-2.1-.97-3.13z" fill="#656566"/><path d="m195.92 71.8c10.41-20.26 22.2-39.9 36.12-57.95l-.03 2.2-.03.06c-1.91 2.75-2.69 6.04-3.79 9.15-.01.43-.02 1.28-.03 1.71-.7.77-1.21 1.64-1.55 2.62-2.15 6.02-4.09 12.11-6.47 18.04-2.55-.85-5.7-1.03-7.46 1.4-.16.15-.46.44-.62.59-3.02 2.16-3.48 6.65-1.4 9.62 1 1.73 2.71 2.77 4.33 3.83-1.86 5.1-3.84 10.17-5.28 15.41-1.29-.58-2.59-1.15-3.9-1.71.36-.43 1.06-1.3 1.41-1.73-1.83-.77-3.79-1.05-5.75-1.16.21-.71.64-2.14.85-2.85-1.76.02-3.51.04-5.26.07l.6 1.05.56 1.01-.33-.15c-.49-.3-1.48-.91-1.97-1.21z" fill="#989899"/><path d="m9.33 14.94c1.93.89 2.79 2.96 4.03 4.55 11.98 16.7 22.64 34.33 31.98 52.63-2.06-1.09-4.33-1.24-6.59-1 .35 1.02.79 2 1.34 2.93-2.16-.17-4.35.02-6.25 1.14l1.44 1.6c-1.31.4-2.51 1.01-3.6 1.83-7.3-21.28-14.97-42.43-22.35-63.68z" fill="#989899"/><path d="m181.18 269.03 1.3-.19c.01.62.02 1.86.02 2.48l-.03.37c-.2 1.45-.39 2.91-.55 4.37-1.02.71-1.31 1.71-.88 3.01-1.36 4.64-2.91 9.25-5.41 13.42-.16.14-.47.43-.63.57-.56.36-1.67 1.08-2.22 1.43l-.16.02c-3.46-1.16-7.08-1.75-10.73-1.4.75-3.53 3.5-6.15 5.2-9.23.2-.29.6-.86.8-1.15.01-.91.03-2.72.04-3.62-.71-1.15-1.4-2.31-2.07-3.47l.77.03c.51.01 1.53.03 2.05.04 4.09-1.33 7.64-3.8 11.2-6.15l.55-.22c.18-.08.56-.23.75-.31z" fill="#989899"/><path d="m144.74 277.72c4.46 1.08 8.8 2.72 13.39 3.15-.72 1.45-1.47 2.88-2.21 4.32-.05.07-.15.22-.21.3-1.1 1.62-2.17 3.27-3.18 4.95-3.51-3.51-7.67-7.37-7.79-12.72z" fill="#989899"/><path d="m135.68 288.81c5.17 1.63 10.25 3.83 15.82 3.35-.23.35-.69 1.06-.91 1.42-2.2.99-4.46 1.94-6.26 3.6-3.68-1.8-7.32-4.28-8.65-8.37z" fill="#989899"/><path d="m135 297.9c2.79.05 5.58.13 8.38.08-.56 1.39-1.08 2.8-1.58 4.21-1.92-.77-3.84-1.54-5.76-2.3-.26-.33-.79-.99-1.06-1.32z" fill="#989899"/><path d="m165.49 30.11c.31-.18.92-.53 1.23-.71.33.51 1 1.51 1.33 2.02-.72 4.05-2.44 8.21-5.96 10.6-4.04 2.88-9.12 3.39-13.84 4.37-15.59 2.97-31.08 6.64-46.79 8.81l-.25 1.06c-.03.15-.1.44-.14.58l-.26-.11c-4.41-1.96-9.24.81-13.85.55l.68.96.5.72-.19-.06c-8.31-2.59-17.16 1.62-25.63-.23-2.47-.96-5.26-2.22-6.31-4.85-1.35-2.81.37-5.78 1.25-8.45 2.04 3.04 4.45 6.05 8.2 6.96.12.02.38.06.51.08 4.15.63 8.42.47 12.6.11 3.81-.42 7.55-1.28 11.29-2.08 1.26.27 2.29-.08 3.09-1.05 5.17-.2 10.08-3.11 15.28-1.92 5.13.23 9.1-3.28 13.83-4.56 5.73-.52 11.28-2.13 16.92-3.21 6.32-1.42 12.75-2.41 18.95-4.32 3.05-.88 5.35-3.12 7.56-5.27z" fill="#dc9c83"/><path d="m113.21 45.78c.16-.05.5-.15.66-.19-.16.04-.5.14-.66.19z" fill="#dc9c83"/><path d="m108.44 46.57c.12-.02.36-.04.48-.06-.12.02-.36.04-.48.06z" fill="#dc9c83"/><path d="m56.35 100.9c5.09 1.38 10.24 2.51 15.35 3.81-.05 1.74.33 4.01 2.37 4.44 2.19.85 4.09-.83 5.01-2.67 4.56 1.15 9.16 2.16 13.71 3.38-4.71 5.57-12.39 8.82-19.65 7.3-8.4-1.12-14.91-8.22-16.79-16.26z" fill="#fefefd"/><path d="m142.98 109.6c4.41.97 8.81 2.03 13.18 3.19-1 2.88 1.75 5.66 4.61 5.24 1.08-.95 2.17-1.95 2.55-3.42 5.45.95 10.72 2.71 16.16 3.67-5.11 6.61-14.49 9.52-22.43 6.84-7.16-2.07-12.19-8.52-14.07-15.52z" fill="#fefefd"/><path d="m100 133.1c2.76-.33 6.42-.75 8.05 2.11.17.43.53 1.3.71 1.73-.75 1.64-2.3 2.53-3.81 3.36-2.51.14-5.63.31-7.25-2.03-1.93-1.9.4-4.4 2.3-5.17z" fill="#fefefd"/><path d="m61.34 156.46c2.38.54 4.69 1.33 6.88 2.39-.72.92-1.48 1.81-2.28 2.67 1.29 2.19 3.53-.98 2.6-2.59 1.67-.33 2.97-1.5 4.44-2.27.27 1.24.81 2.37 1.62 3.37l-.13-.06c-.12 2.01-.71 4.25.39 6.11.38-.84 1.13-2.52 1.51-3.37 1.37 3.41 4.47 5.12 8.05 5.28-1.46-1.19-3.29-1.71-5.05-2.29-.9-1.86-1.94-4.84-4.47-3.08.05-.58.17-1.75.22-2.33.39-.06 1.18-.16 1.57-.21 21.75 4 44.05 4.99 66.09 3.14 5.41-.38 10.8-1.07 16.12-2.15 2.44-.08 4.94-.21 7.27-1 .43.04 1.29.12 1.72.16.08.55.26 1.63.35 2.17-2.22.16-4.1 1.12-4.62 3.43-4.05 1.31-8.84 1.14-12.13 4.18 4.31-1.44 8.71-2.49 13.13-3.5.37-1.18.7-2.43 1.85-3.08.27.59.82 1.79 1.09 2.39.45-1.16.91-2.3 1.39-3.44-.11-.56-.34-1.66-.45-2.21.27-.57.81-1.72 1.08-2.29.38.25 1.13.76 1.51 1.01.94 1.53 1.74 4.48 3.97 4.17-.33-1.74-1.69-3.04-2.9-4.24 3.38-.86 6.73-1.78 10.03-2.89-.29.7-.89 2.1-1.18 2.81-1.68 1.03-3.96 1.34-5.16 3 1.53-.16 2.97-.64 4.33-1.44l-.54 1.59c-2.84 3.9-6.68 6.91-10.81 9.35-.26.15-.76.44-1.02.58-3.25 1.77-6.67 3.23-10.2 4.37-.94.31-1.88.65-2.82.98-2.64.92-5.35 1.62-8.09 2.19l-.3.07c-10.78 2.14-21.88 3.15-32.86 2.21-.75-.12-2.25-.36-3-.48-2.52-.1-5.05-.16-7.55-.6l-.34-.06c-3.42-.61-6.84-1.26-10.2-2.18l-.16-.05c-4.15-1.15-8.22-2.59-12.15-4.34-7.94-3.49-16.07-8.74-18.8-17.47z" fill="#fefefd"/><path d="m165.1 273.92c1.29-.24 2.57-.24 3.86-.01-.57.84-1.35 1.43-2.33 1.76l-.77-.03c-.19-.43-.57-1.29-.76-1.72z" fill="#fefefd"/></svg>