<svg height="540pt" viewBox="0 0 192 540" width="192pt" xmlns="http://www.w3.org/2000/svg"><path d="m133.72 3.95c.65-1.56 2.73-.82 2.67.72-.66-.18-2-.54-2.67-.72z" fill="#f7d1e3"/><path d="m125.33 29.08c1.15-2 2.31-3.99 3.73-5.82 1.03 4.06.8 8.39 2.4 12.31 2.19 5.41 3.42 11.14 5.6 16.55.04 2.08.26 4.25 1.7 5.87.35 2.4.67 4.81 1.07 7.2.41 2.41 1.25 4.72 1.99 7.05.69 3.09 1.2 6.23 1.52 9.38-5.96 2.84-9.9 8.42-12.46 14.32-3.19 6.46-4.19 13.63-6.17 20.47l-.65-.79c-.5-2.62-1.05-5.22-1.77-7.79.26-1.74-.08-3.51-1.14-4.93-.53-2.74-1.17-5.46-1.97-8.14.38-1.98.06-4.01-1.15-5.65l-.12-.81c-.79-9.4-.16-18.86-.32-28.28-.18-6.85 2.37-13.3 3.24-20l.15-.79c1.87-3.19 3.27-6.62 4.35-10.15z" fill="#f7d1e3"/><path d="m81.93 132.68c1.6-.03 2.99 1.13 3.13 2.76-1.48-.3-2.74-1.26-3.13-2.76z" fill="#f7d1e3"/><path d="m132.08 5.8c.54-.62 1.09-1.24 1.64-1.85.67.18 2.01.54 2.67.72.2.53.59 1.58.78 2.11.24 2.43 1.13 4.69 2.65 6.6l.21.66c-1 2 .06 4.23 2.23 4.74.23.49.71 1.49.94 1.99 2.25 8.7 7.65 16.11 11.43 24.17-.38.2-1.15.61-1.54.81-2.01-2.5-3.16-5.53-4.67-8.34-3.67-6.82-7.25-13.72-10-20.97-.54-1.38-1.2-2.77-2.45-3.65-.28 5.17.47 10.4 1.97 15.34 2.12 5.21 5.75 9.6 8.39 14.54 7.31 13.26 16.99 25.27 22.36 39.56.36.23 1.08.7 1.44.94.13-1.77.16-3.54.09-5.31.99 3.65 1.48 7.41 2.52 11.04-.12 6.7.25 13.39.04 20.08-.12.36-.35 1.08-.47 1.44-.22-1.89-.44-3.78-.64-5.66-1.22 5.04-3.15 9.9-5.47 14.54-5.12 9.2-12.56 16.77-18.63 25.31-1.17 1.97-3.41 2.67-5.23 3.85-1.55 2.69-2.46 5.74-4.44 8.18-2.64-1.37-5.44-2.4-8.07-3.79-.67-2.61 1.41-5.24 2.2-7.73 1.69-3.09 3.66-6.05 4.75-9.43 3.6-10.94 7.81-22.01 7.71-33.7-.2-6.8.59-13.71-1.15-20.37-.32-3.15-.83-6.29-1.52-9.38-.38-3.81.04-7.89-1.82-11.38-.12 1.44-.18 2.88-.17 4.33-.4-2.39-.72-4.8-1.07-7.2 1.03-2.17.29-4.58-1.7-5.87-2.18-5.41-3.41-11.14-5.6-16.55-1.6-3.92-1.37-8.25-2.4-12.31-1.42 1.83-2.58 3.82-3.73 5.82-3.07 2.43-4.84 6.21-4.35 10.15l-.15.79c-1.89 5.04-3.08 10.31-3.75 15.65-1.45 4.65-.65 9.55-.85 14.33-.14 4.44-.47 8.97.76 13.31.29 1.66.61 3.33.92 4.99l.12.81c-.64 1.96-.72 4.33 1.15 5.65.8 2.68 1.44 5.4 1.97 8.14-.75 1.72-.66 3.91 1.14 4.93.72 2.57 1.27 5.17 1.77 7.79-.81 3.01-.1 6.08.3 9.09.52 3.52-.68 6.97-.94 10.46-.51 4.82.5 9.69-.33 14.49-.99-.55-1.98-1.1-2.96-1.67.67-4.53.21-9.13-.16-13.66.52-5.51-.45-10.97-.94-16.44-.08-8.11-2.04-15.99-3.06-23.99-1.41-7.64-1.66-15.42-2.84-23.09-1.32-11.71 1.32-23.39 3.49-34.84l.31-.71c2.88-3.34 3.44-7.91 5.46-11.73 1.82-4.75 5.25-8.72 6.63-13.65.25-.44.76-1.31 1.01-1.75 1.51-.03 2.2-.81 2.05-2.33z" fill="#00afeb"/><path d="m59.49 25.73c.47-1.91.87-4.03 2.48-5.34 4.82.86 5.24 6.63 7.81 9.93 3.35 4.3 6.08 9.19 10.26 12.76.23.24.68.73.91.97 2 2.94 4.54 5.48 6.33 8.56 1.95 6.35 8.2 9.99 12.78 14.38 2.32 1.58 4.15 5.06 7.37 4.24 1.45 1.23 2.82 2.56 4.14 3.94.22 1.05.44 2.1.66 3.15 2.06 14.15 4.84 28.27 4.97 42.62-.77 1.94-1.5 3.9-2.25 5.85-3.2 2.49-4.56 6.41-6.94 9.55-.94-.32-1.85-.72-2.78-1.02-1.51 2.13-2.47 5-5.44 5.37-3.44-1.24-7.53-1.56-10.05-4.51.42-2.13.88-4.26 1.32-6.39.06 1.43.15 2.86.27 4.29.7-2.93 1.05-5.92 1.24-8.92.19-1.31.36-2.62.52-3.94.71-5.77.48-11.62.08-17.42-.51-6.65-1.22-13.59-4.12-19.67-2.49-4.13-4.47-8.51-6.49-12.87-5.72-10.81-12.53-20.99-19.8-30.81l-.4-.54c-2.19.64-2.43 3.61-3.68 5.29-.24-6.48-.77-13.1.81-19.47z" fill="#00afeb"/><path d="m67.71 118.7c.3-.65.91-1.94 1.21-2.59 1.75 3.09 3.19 6.38 5.42 9.18.09.1.25.31.34.41 1.74 1.98 3.62 3.84 5.6 5.59.11.09.33.28.44.38.3.25.9.75 1.21 1.01.39 1.5 1.65 2.46 3.13 2.76 3.14 3.02 7.41 4.16 11.07 6.34-3.1.5-6.28.72-9.23 1.89 4.37.22 8.75-.18 13.12.13 6.25.3 11.88 3.56 18.13 3.97l.84.27c4.97 3.92 11.88 4.88 16.17 9.73-3.11-.81-6.01-2.25-9.15-2.95 5.58 7.11 12.29 13.38 16.93 21.23 5.13 8.98 9.43 18.61 11.22 28.86 1.95 10.02 1.3 20.4-.92 30.32-1.72 7.26-4 14.55-8.3 20.74-1.75 2.63-4.16 4.73-6.14 7.18l.54.62c6.12-.09 12.23-1.57 18.39-.72.24.38.7 1.15.94 1.53.54 1 1.24 1.91 2.17 2.58.35.29 1.06.88 1.41 1.17.1.1.3.31.4.41l.52.72c-.05 1.81-.12 3.63-.35 5.44-1.15-.09-2.28-.25-3.43-.33-.28 2.6.58 5.62-1.28 7.8-1.14-1.57-2.08-3.26-3.02-4.94-1.04-2.28-2.88-4.12-5.2-5.08-4.97 4.51-8.79 10.45-14.88 13.63-4.17 2.15-8.18 4.71-12.63 6.27-1.24.8-2.28-.18-2.81-1.28 3.33-2.37 6.28-5.18 9.17-8.05 1.56-.03 2.59-1.35 2.43-2.87.19-.29.57-.87.77-1.17 4.83-5.54 2.46-13.23 1.18-19.62 2.61-3.7 6.85-6.15 9.01-10.29.18-.26.55-.77.74-1.03 1.52-.12 2.63-1.35 2.45-2.89 3.05-4.75 5.49-10.29 4.72-16.07-.98-7.94-3.66-15.93-8.88-22.11-8.07-9.03-17.67-16.5-27.43-23.6-1.62-1.13-3.22-2.31-5.03-3.11-2.06-.36-3.96.87-5.7 1.81-10.21 5.69-18.8 13.9-26.19 22.86-4.97 6.67-9.12 14.09-10.99 22.25-3.31 8.85-2.62 18.58-.58 27.64-.08 1.37-.22 2.74-.42 4.11-3.73.77-7.84.53-11.04 2.92-1.04.49-2.09.96-3.16 1.39-1.77-2.64-4.4-4.19-7.56-4.42.84-1.37 1.81-2.65 2.75-3.95.84 2.03 4.05 3.18 4.16.1-.59-8.54-.66-17.13-1.32-25.66l-.85-.25c-.78 5.94.72 12.04-.69 17.9.91-16.36.78-34.23-8.57-48.41-2.49-2.91-6.48-7.84-10.53-4.47-6.94 5.46-8.34 14.66-10.64 22.63-2.71-2.47-1.33-6.26-1.07-9.39 1.12-6.55 1.69-13.36 4.46-19.48 2.32-3.85 5.63-7.16 9.29-9.74.33.06 1.01.19 1.34.25.65 4.36 1.32 9.61 5.9 11.62 4.06 4.43 6.44 10 9.55 15.01.63-.66 1.25-1.33 1.84-2.01 1.31 1.15 2.57 2.42 4.17 3.16 7.07-8.45 16.28-14.62 24.78-21.49 6.09-4.6 9.6-11.94 10.71-19.37.06-4.71 3.29-8.56 3.75-13.09.56-2.92-3.49-4.03-5.19-1.99-.47 3.27-.03 6.57.32 9.83l-.14 1.19c-2.16-4.72-2.16-10.92-6.92-14.04 1.79 11.6.66 24.13-6.01 34.08-2.45 3.54-6.76 4.79-10.49 6.48-3.95 1.63-7.61 3.92-11.66 5.32.86-5.49 3.31-10.52 5.41-15.6 1.81-4.34 4.99-7.95 6.67-12.35-9.39 8.32-14.3 20.7-15.92 32.95 4.04-1.91 7.53-5.08 12.04-5.85-.08.43-.24 1.31-.32 1.75-4.91 1.99-9.41 4.78-13.16 8.55-2.95-5.26-6.68-10.19-8.78-15.87 1.3-4.55-1.46-8.97-1.17-13.56-.07-7.7 3.82-14.57 5.23-21.98-1.6 2.14-2.82 4.53-4.06 6.89-3.79 1.33-4 5.97-6.96 8.25-.33-3.44-.27-6.9-.22-10.34l.12-.77.53.4c.37.31 1.12.93 1.5 1.23 1.57-2.64 2.9-5.46 4.92-7.81 3.14-3.92 7.61-6.69 9.98-11.23 7.33-4.47 16.21-4.73 24.54-4.94 2.82 1.2 5.66 2.34 8.58 3.27-3.11-3.51-6.74-6.5-10.08-9.79-2.27-1.79-2.28-4.9-3.14-7.45z" fill="#00afeb"/><path d="m135.16 157.77c3.62.77 6.61 3.04 9.35 5.42-3.74.89-7.24-2.66-9.35-5.42z" fill="#00afeb"/><path d="m130.03 8.13c.14-1.27.82-2.04 2.05-2.33.15 1.52-.54 2.3-2.05 2.33z" fill="#dddaca"/><path d="m86.76 234.7c3.91-5.16 9.86-8.88 16.24-9.99 8.32-.14 16.7 4.72 20.48 12.18-4.11-.7-7.81-2.75-11.88-3.59-1.16-.71-2.3-1.45-3.48-2.1-6.8-3.9-15.21-.7-20.08 4.8-.32-.33-.96-.98-1.28-1.3z" fill="#dddaca"/><path d="m137.17 6.78c1.22 2.05 2.17 4.25 2.65 6.6-1.52-1.91-2.41-4.17-2.65-6.6z" fill="#437b8f" opacity=".74"/><path d="m121.75 21.76c2.03-4.17 4.15-8.39 7.27-11.88-1.38 4.93-4.81 8.9-6.63 13.65-2.02 3.82-2.58 8.39-5.46 11.73.72-4.77 2.8-9.16 4.82-13.5z" fill="#40667d" opacity=".79"/><path d="m135.97 12.79c1.25.88 1.91 2.27 2.45 3.65 2.75 7.25 6.33 14.15 10 20.97 1.51 2.81 2.66 5.84 4.67 8.34.39-.2 1.16-.61 1.54-.81 3.92 6.96 6.69 14.58 11.35 21.11.4.95.78 1.91 1.15 2.87-.61 1.97-.02 4.15 1.94 5.06.4 1.29.81 2.58 1.15 3.88.07 1.77.04 3.54-.09 5.31-.36-.24-1.08-.71-1.44-.94-5.37-14.29-15.05-26.3-22.36-39.56-2.64-4.94-6.27-9.33-8.39-14.54-1.5-4.94-2.25-10.17-1.97-15.34z" fill="#0196cc"/><path d="m140.03 14.04c1.32 1.26 1.83 3.01 2.23 4.74-2.17-.51-3.23-2.74-2.23-4.74z" fill="#fff"/><path d="m103.32 235.35c.3-2.14 2.53-2.8 4.15-3.71 3.45 2.81 7.28 6.44 6.83 11.32-4.99 3.07-12.19-1.9-10.98-7.61z" fill="#fff"/><path d="m111.6 233.3c4.07.84 7.77 2.89 11.88 3.59 1.7 8.51-3.94 15.82-9.85 21.17-.41.02-1.24.07-1.65.09.56-1.26 1.2-2.48 1.77-3.73 4.26-6.61 2.37-15.18-2.15-21.12z" fill="#fff"/><path d="m80.6 245.14c1.33-3.87 3.34-7.46 6.16-10.44.32.32.96.97 1.28 1.3-4.52 7.96-2.99 18.91 4.25 24.76-4.23.21-8.72-.51-12.29-2.88-1.26-4.13-.29-8.61.6-12.74z" fill="#fff"/><path d="m18.37 246.2c-.69-6.13 6.9-9.42 11.94-7.5-1.17 1.46-2.7 2.86-2.85 4.85-.52 5.17.37 10.73 3.45 15.03l.52.85c-4.56.74-7.69-3.55-10.36-6.56-.22-.47-.66-1.39-.89-1.85-.62-1.6-1.26-3.2-1.81-4.82z" fill="#fff"/><path d="m140.09 289.08c1.61-1.88 3.65-3.27 5.98-4.09-1.91 1.48-3.92 2.83-5.98 4.09z" fill="#fff"/><path d="m61.45 19.4c3.4-.36 5.11 3.12 6.41 5.65 3.3 6.52 8.73 11.62 12.18 18.03-4.18-3.57-6.91-8.46-10.26-12.76-2.57-3.3-2.99-9.07-7.81-9.93-1.61 1.31-2.01 3.43-2.48 5.34-1.58 6.37-1.05 12.99-.81 19.47.12 3.28.33 6.56.43 9.84-1.38-10.51-2.2-21.4.32-31.83.31-1.42.87-2.85 2.02-3.81z" fill="#b95165"/><path d="m143.2 20.77c2.02 3.14 3.47 6.58 5.06 9.94 6.06 11.7 12.39 23.29 17.72 35.34-4.66-6.53-7.43-14.15-11.35-21.11-3.78-8.06-9.18-15.47-11.43-24.17z" fill="#b95165"/><path d="m80.95 44.05c4.07 3.27 7.14 7.52 10.77 11.23 2.78 2.89 5.72 5.61 8.39 8.6-5.13-2.71-8.26-7.83-12.83-11.27-1.79-3.08-4.33-5.62-6.33-8.56z" fill="#b95165"/><path d="m163.94 131.94c2.59-6.68 6.14-12.97 7.98-19.96-.77 7.2-3.47 14.27-7.98 19.96z" fill="#b95165"/><path d="m90.72 255.59c5.35-2.39 11.34-3.14 17.14-2.31 1.27.16 2.46.77 3.31 1.73-.99 3.58-4.74 5.15-8.17 5.18-3.54.03-7.78 1.14-10.7-1.44-.84-.88-2.75-1.77-1.58-3.16z" fill="#b95165"/><path d="m147.18 284.24c-.01-2.07 1.65-3.47 3.67-3.36-.45 1.8-1.94 2.91-3.67 3.36z" fill="#b95165"/><path d="m120.98 39.23c-.49-3.94 1.28-7.72 4.35-10.15-1.08 3.53-2.48 6.96-4.35 10.15z" fill="#2886b7"/><path d="m113.73 45.26c.34-3.26 1.37-6.4 2.89-9.29-2.17 11.45-4.81 23.13-3.49 34.84-.08 2.53-.46 5.03-.9 7.51-.22-1.05-.44-2.1-.66-3.15 1.27-3.6.67-7.44.73-11.16-.15-6.29.78-12.52 1.43-18.75z" fill="#792a38"/><path d="m117.08 55.67c.67-5.34 1.86-10.61 3.75-15.65-.87 6.7-3.42 13.15-3.24 20 .16 9.42-.47 18.88.32 28.28-.31-1.66-.63-3.33-.92-4.99.56-9.2.44-18.44.09-27.64z" fill="#792a38"/><path d="m172.74 88.9c1.09 3.25 1.16 6.71 1.16 10.1-.03 3.34.26 6.84-1.12 9.98.21-6.69-.16-13.38-.04-20.08z" fill="#792a38"/><path d="m18.53 183.94c1.53-2.81 3.36-5.44 5.43-7.88l.08 1.01c-1.48 2.4-3.11 4.7-4.73 7.01z" fill="#792a38"/><path d="m88.04 236c4.87-5.5 13.28-8.7 20.08-4.8l-.65.44c-1.62.91-3.85 1.57-4.15 3.71-1.21 5.71 5.99 10.68 10.98 7.61.13 3.84-1.08 7.63-.55 11.46-.57 1.25-1.21 2.47-1.77 3.73.41-.02 1.24-.07 1.65-.09l.97-.05-.04.78c-3.51 1.05-6.93 2.64-10.61 2.95-3.9.03-7.9.26-11.66-.98-7.24-5.85-8.77-16.8-4.25-24.76m15.21 9.27c.02.6.05 1.81.07 2.41.58 0 1.76-.01 2.34-.02.01-.58.04-1.76.05-2.34-.62-.01-1.84-.04-2.46-.05m-12.53 10.32c-1.17 1.39.74 2.28 1.58 3.16 2.92 2.58 7.16 1.47 10.7 1.44 3.43-.03 7.18-1.6 8.17-5.18-.85-.96-2.04-1.57-3.31-1.73-5.8-.83-11.79-.08-17.14 2.31z" fill="#792a38"/><path d="m26.83 376.91c1.16-2.15 2.5-4.2 4.1-6.05-.68 2.44-1.8 4.76-4.1 6.05z" fill="#792a38"/><path d="m58.68 45.2c1.25-1.68 1.49-4.65 3.68-5.29l.4.54c-1.31 3.4-.28 7.05-.37 10.56-.32 7.61 1.78 15 3.4 22.36 3.44 10.11 8.38 19.64 12.16 29.62-.07 1.37-.13 2.74-.19 4.12-3.33-7.78-7.38-15.23-10.81-22.96-.25-.54-.74-1.63-.99-2.17-.3-.97-.61-1.93-.9-2.89-.27-.54-.8-1.61-1.07-2.15-2.3-7.13-3.81-14.5-4.88-21.9-.1-3.28-.31-6.56-.43-9.84z" fill="#0a9fd8"/><path d="m62.39 51.01c.09-3.51-.94-7.16.37-10.56 7.27 9.82 14.08 20 19.8 30.81 2.02 4.36 4 8.74 6.49 12.87.09.62.27 1.87.35 2.49-4.47 7.8-4.01 17.21-7.12 25.51-1.28-3.12-2.8-6.13-4.33-9.14-3.78-9.98-8.72-19.51-12.16-29.62-1.62-7.36-3.72-14.75-3.4-22.36z" fill="#f8d1e3"/><g fill="#141116"><path d="m137.06 52.12c1.99 1.29 2.73 3.7 1.7 5.87-1.44-1.62-1.66-3.79-1.7-5.87z"/><path d="m118.03 89.11c1.21 1.64 1.53 3.67 1.15 5.65-1.87-1.32-1.79-3.69-1.15-5.65z"/><path d="m93.17 103.8c.4 5.8.63 11.65-.08 17.42-.08-5.8-.15-11.61.08-17.42z"/><path d="m127.19 132.85c.73 6.17.03 12.39.19 18.59 2.67-.94 3.16-4.21 4.65-6.32-.79 2.49-2.87 5.12-2.2 7.73 2.63 1.39 5.43 2.42 8.07 3.79 2.49 2.02 5.14 3.84 7.81 5.62.73.64 1.45 1.27 2.17 1.92 1.08 1.23 2.14 2.48 3.24 3.69-2.3-1.43-4.47-3.04-6.61-4.68-2.74-2.38-5.73-4.65-9.35-5.42-4.29-4.85-11.2-5.81-16.17-9.73l1.14-.05c.98.57 1.97 1.12 2.96 1.67.9.55 1.87.84 2.93.86 2.06-5.58 1.08-11.82 1.17-17.67z"/><path d="m108.12 231.2c1.18.65 2.32 1.39 3.48 2.1 4.52 5.94 6.41 14.51 2.15 21.12-.53-3.83.68-7.62.55-11.46.45-4.88-3.38-8.51-6.83-11.32z"/><path d="m34.51 236.98c.9.43 1.74.97 2.47 1.64-.89.59-1.74 1.23-2.57 1.9-1.08 2.85.67 5.29 2.82 6.99-.36.07-1.06.19-1.42.25-.4.06-1.19.17-1.59.23-.99-2.66-1.58-5.43-1.65-8.27-2.19.05-3.91 2.19-3.93 4.31-.46 4.97 1.38 9.74 2.27 14.55-3.08-4.3-3.97-9.86-3.45-15.03.15-1.99 1.68-3.39 2.85-4.85 1.42-.53 2.81-1.12 4.2-1.72z"/><path d="m123.48 236.89c.6 1.94.99 3.95 1.63 5.88.93-.18 1.85-.4 2.77-.65-2.16 5.04-5.56 9.46-9.31 13.41-1.19.96-2.29 2.51-3.97 2.48l-.97.05c5.91-5.35 11.55-12.66 9.85-21.17z"/><path d="m79.71 242.44.58-.31c.11 1 .21 2 .31 3.01-.89 4.13-1.86 8.61-.6 12.74 3.57 2.37 8.06 3.09 12.29 2.88 3.76 1.24 7.76 1.01 11.66.98l-.44.56c-7.5.12-15.31.54-22.3-2.68-1.53-.61-2.65-2.17-2.68-3.82-.44-4.51.86-8.9 1.18-13.36z"/><path d="m142.87 247.94c-.01-1.47.95-2.71 2.45-2.89.18 1.54-.93 2.77-2.45 2.89z"/><path d="m21.07 252.87c2.67 3.01 5.8 7.3 10.36 6.56.38-.03 1.14-.1 1.51-.13 1.65-.02 3.29 0 4.94.05 3.83.7 7.7 1.87 10.53 4.71-2.99 1.38-5.72 3.27-8.7 4.68-4.46.65-5.91-4.58-7.08-7.82l-.93-.19c-2.99.15-5.4-2.27-8.3-2.03-1.06-1.82-1.72-3.83-2.33-5.83z"/><path d="m74.32 276.46c.93.41 2.32.6 2.38 1.86-3 .16-4.57 2.91-6.9 4.37-5.88 3.73-13.81 3.96-19.79.33-1.99.33-3.86 1.27-5.89 1.4-1.56-.28-2.86-1.3-4.14-2.18 2.56 1.2 5.42 1.72 8.17.85.11-.72.33-2.17.44-2.9 2.56 1.83 4.91 4.55 8.38 4.31 6.71.92 14.45-1.41 17.35-8.04z"/><path d="m128.74 282.92c-.04-1.47.99-2.64 2.43-2.87.16 1.52-.87 2.84-2.43 2.87z"/><path d="m92.38 306.68c3.84.7 6.98-2.55 10.8-2.69-1.75.79-3.6 1.62-4.58 3.36-5.59-.27-11.1.89-16.4 2.58-1.55.77-3.31 2.16-3.09 4.11-.02 3.09.21 6.18.6 9.25 5.46-2.7 10.58-6.09 16.29-8.32l.69.31c-2.24 2.16-5.38 2.83-8.09 4.18-2.73 1.21-5.13 3.02-7.49 4.82-1.27.01-2.44.46-3.34 1.36.07-.33.21-.98.28-1.31l.18-.96c.39-3.01.76-6.22-.13-9.17-2.22-2.74-5.13-4.91-8.12-6.74-.97-.53-1.97-1-2.97-1.45 1.47.25 2.96.42 4.42.77 2.5 1.45 4.02 4.1 6.52 5.58 2.1-1.34 4.01-3.14 6.51-3.7 2.57-.88 5.68-1.01 7.4-3.4.13.36.39 1.07.52 1.42z"/><path d="m71.14 339.03c.53-1.09 1.13-2.15 1.71-3.21.46.02 1.37.05 1.83.07.3.29.91.86 1.22 1.15l-.24.63c-1.58.16-3.37.05-4.52 1.36z"/><path d="m64.93 355.16c.57-.7 1.15-1.4 1.73-2.08 1.35.08 2.7.15 4.05.2-.12 1.6-.2 3.2-.21 4.81l-.45-.81c-.09-.4-.28-1.19-.37-1.59-1.59-.41-3.24-.27-4.83.03z"/><path d="m164.69 359.46c.75-1.69 2.13-2.99 3.39-4.31-3.24 4.74-3.96 10.84-1.51 16.1-.43-.17-1.31-.52-1.74-.69-.62-3.65-.53-7.43-.14-11.1z"/><path d="m58.98 384.66c-1.69-2.42-3.58-5.51-1.91-8.44-.62 3.4 1.85 5.87 4.11 7.99-.55.11-1.65.34-2.2.45z"/><path d="m73.73 430.18c1.51 2.29 2.68 4.8 4.43 6.93 1.34.3 2.69.49 4.07.59-1.74.31-3.9.74-5.31-.6-1.62-2.01-2.23-4.58-3.19-6.92z"/><path d="m119.98 438c4.65 9.1 7.23 19.17 9.84 29.03-.88-1.11-1.8-2.19-2.79-3.19-.09.72-.26 2.14-.35 2.86-2.6 3.12-4.93 6.47-6.71 10.13-.15-.44-.46-1.31-.61-1.75-1.69-2.99-3.69-6.76-7.42-7.35-2.72-.08-5.28 1.12-7.83 1.91-.32-.13-.96-.39-1.28-.52 1.39-.65 2.76-1.35 4.18-1.94 2.46.09 4.95.04 7.38.54 2.19 1.53 3.75 3.77 5.69 5.6 2.95-2.81 4.83-6.6 6.24-10.37-.02-6.37-2.48-12.45-4.82-18.29-.65-2.19-1.1-4.42-1.52-6.66z"/><path d="m68.93 443.52c3.46 1.23 6.39 3.57 9.85 4.82.99 7.42.9 14.99-.52 22.35-.32 2.02-.52 4.07-.98 6.08-3.18-1.98-6.84.23-10.25.29-3.06.74-6.7-.65-9.41.82 4.22 7.19 8.36 14.59 10.57 22.68-3.41-6.56-6.37-13.34-9.88-19.85-.89-1.68-2.04-3.21-3.39-4.55 7.32.65 15 .36 21.89-2.36 1.11-7.81 2.43-15.78 1.51-23.69-1.82-1.71-3.99-2.99-6.09-4.33-1.1-.75-2.2-1.51-3.3-2.26z"/><path d="m87.86 523.07c8.04 1.94 15.96 4.6 24.23 5.4 5.27.32 10.6.36 15.83-.49.83.04 2.47.14 3.3.19-7.01 2.2-14.56 1.87-21.77 1.09-7.24-1.82-14.91-2.66-21.59-6.19z"/></g><path d="m87.28 52.61c4.57 3.44 7.7 8.56 12.83 11.27.26.2.8.58 1.07.78-.02 1.43.69 2.19 2.13 2.27 1.38 1.43 2.74 2.87 4.12 4.3-3.22.82-5.05-2.66-7.37-4.24-4.58-4.39-10.83-8.03-12.78-14.38z" fill="#10c6ea" opacity=".98"/><path d="m116.23 70c.2-4.78-.6-9.68.85-14.33.35 9.2.47 18.44-.09 27.64-1.23-4.34-.9-8.87-.76-13.31z" fill="#0482ba"/><path d="m140 60.86c1.86 3.49 1.44 7.57 1.82 11.38-.74-2.33-1.58-4.64-1.99-7.05-.01-1.45.05-2.89.17-4.33z" fill="#2d5289"/><path d="m69.98 315.28c2.37 3.06 5.04 5.9 8.25 8.09l-.18.96c-2.92-.58-4.89-2.8-6.98-4.72-1.3 1.53-2.52 3.12-3.84 4.64.34-1.52.63-3.04.84-4.57-2.82 1.94-5.16 4.5-8.01 6.4 2.26-4.16 6.24-6.72 10.12-9.17-.05-.41-.15-1.22-.2-1.63z" fill="#2d5289"/><path d="m111.36 316.07c3.36 2.18 5.13 5.91 7.58 8.95-1.9-1.29-3.58-2.85-5.35-4.29-2.04-.44-4.06.88-6.03 1.32 1.12-2.09 2.82-3.81 3.8-5.98z" fill="#2d5289"/><path d="m114.28 475.2c1.67-.23 3.14.96 4.73 1.34.09-.37.26-1.09.35-1.46.15.44.46 1.31.61 1.75-1.09 2.12-1.98 4.36-2.41 6.72-1.11 5.8-2.6 11.58-2.79 17.51-.27 1.69 1.1 2.81 2.15 3.9-2.52-.62-5.16-1.12-7.35-2.59-.03-6.48.82-12.92 1.23-19.38.32-2.8.52-6.44 3.48-7.79z" fill="#2d5289"/><path d="m101.18 64.66c1.36.15 2.07.9 2.13 2.27-1.44-.08-2.15-.84-2.13-2.27z" fill="#4a627b" opacity=".71"/><path d="m167.13 68.92c1.44 1.29 2.07 3.14 1.94 5.06-1.96-.91-2.55-3.09-1.94-5.06z" fill="#46667b" opacity=".67"/><path d="m113.13 70.81c1.18 7.67 1.43 15.45 2.84 23.09 1.02 8 2.98 15.88 3.06 23.99-.6 1.02-1.23 2.03-1.83 3.05-.13-14.35-2.91-28.47-4.97-42.62.44-2.48.82-4.98.9-7.51z" fill="#02789b"/><path d="m65.24 254.72c.64 2.07 1.39 4.11 1.92 6.22-4.48-.11-8.95.19-13.38.81 3.2-2.39 7.31-2.15 11.04-2.92.2-1.37.34-2.74.42-4.11z" fill="#02789b"/><path d="m131.63 373.73c.44-1.43 1.14-2.76 1.89-4.03.53 5.31 6.23 6.91 9.54 10.22 5.56 4.22 9.79 11.03 17.04 12.43-.3.21-.91.63-1.21.85-2.45.27-4.97.86-7.42.29-2.13-1.61-4.03-3.59-6.54-4.63-2.16-1.32-4.18-2.85-6.1-4.49.05-1.71-1.55-2.81-3.13-2.18-1.29-.97-2.54-1.98-3.74-3.04-.14-1.81-.26-3.62-.33-5.42z" fill="#02789b"/><path d="m63.99 76.94c.27.54.8 1.61 1.07 2.15-.27-.54-.8-1.61-1.07-2.15z" fill="#556272" opacity=".58"/><path d="m65.96 81.98c.25.54.74 1.63.99 2.17-.25-.54-.74-1.63-.99-2.17z" fill="#566475" opacity=".6"/><path d="m130.88 95.94c2.56-5.9 6.5-11.48 12.46-14.32 1.74 6.66.95 13.57 1.15 20.37.1 11.69-4.11 22.76-7.71 33.7-1.09 3.38-3.06 6.34-4.75 9.43-1.49 2.11-1.98 5.38-4.65 6.32-.16-6.2.54-12.42-.19-18.59-.89-5.47-1.61-10.97-2.48-16.44 1.98-6.84 2.98-14.01 6.17-20.47z" fill="#dc9fba"/><path d="m72.85 335.82c1.1-2.78 2.41-5.49 4.18-7.92-.58 2.72-1.35 5.4-2.35 7.99-.46-.02-1.37-.05-1.83-.07z" fill="#dc9fba"/><path d="m89.05 84.13c2.9 6.08 3.61 13.02 4.12 19.67-.23 5.81-.16 11.62-.08 17.42-.16 1.32-.33 2.63-.52 3.94l-.78-.59c1.59-12.7.08-25.48-2.39-37.95-.08-.62-.26-1.87-.35-2.49z" fill="#31548b"/><path d="m69.06 129.4c1.14 1.04 2.21 2.16 3.29 3.27-8.33.21-17.21.47-24.54 4.94-.7.12-2.09.36-2.78.48 5.52-3.98 12.27-6.11 19.07-6.21 2.07.94 5.74.61 4.96-2.48z" fill="#31548b"/><path d="m34.11 289.04c7.73 5.75 16.62 9.77 25.54 13.29 2.24 1.06 4.42 2.24 6.6 3.43-9.13-2.37-17.51-6.86-25.8-11.23-2.35-1.23-4.56-2.71-6.54-4.48z" fill="#31548b"/><path d="m59.17 415.1c.55-1.01 1.12-2.01 1.71-2.99-.25 2.2-.59 4.4-.98 6.59-2.38 6.77-4.95 13.48-7.87 20.05-1.16 1.19-2.28 2.46-3.63 3.45-1.11.06-2.22-.11-3.32-.19-.04-.44-.11-1.3-.15-1.73 3.07 1.24 5.39-1.27 6.46-3.89 3.23-6.85 5.52-14.09 7.78-21.29z" fill="#31548b"/><path d="m67.09 423.93c-.63-3.7-3.49-7.44-2.34-11.18 3.24 9.01 6.31 18.16 10.85 26.61.82 1.11 1.52 3.47 3.35 2.72 9.46-2.91 18.61-6.9 27.13-11.95 3.17-1.76 6.15-3.95 9.66-5.01l.17.81c-5.18 2.65-10.14 5.68-14.97 8.91-4.29 1.97-8.65 3.79-12.93 5.81-3.45.5-6.55 2.13-9.87 3.08-1.44-.78-2.62-1.93-3.84-3.01-2.45-5.58-4.69-11.24-7.21-16.79z" fill="#31548b"/><path d="m106.6 482.46c.4-.45 1.19-1.34 1.58-1.79.25 6.07.42 12.16-.13 18.23-.36.99-.79 1.95-1.28 2.89-2.56.35-5.14.56-7.7.88 2.61-4.01 5.63-7.88 7-12.55.86-2.48.26-5.12.53-7.66z" fill="#31548b"/><path d="m89.4 86.62c2.47 12.47 3.98 25.25 2.39 37.95-.23 1.74-.48 3.48-.73 5.22-.44 2.13-.9 4.26-1.32 6.39-.86-.79-1.38-1.83-1.84-2.88 1.74-7.59-3.22-14.32-5.62-21.17 3.11-8.3 2.65-17.71 7.12-25.51z" fill="#e4a9c2"/><path d="m77.95 102.99c1.53 3.01 3.05 6.02 4.33 9.14 2.4 6.85 7.36 13.58 5.62 21.17-.48-1.03-.95-2.05-1.37-3.1-.27-1.21-.77-2.31-1.51-3.29l-.11-.76c.45-1.98-.17-3.99-1.82-5.22l-.02-.78c-.27-.54-.81-1.64-1.08-2.18-.69-1.93-1.41-3.86-2.11-5.78-.23-.55-.7-1.65-.93-2.19-.41-.97-.8-1.93-1.19-2.89.06-1.38.12-2.75.19-4.12z" fill="#23a9cd" opacity=".96"/><path d="m121.15 102.9c1.06 1.42 1.4 3.19 1.14 4.93-1.8-1.02-1.89-3.21-1.14-4.93z" fill="#518eb7"/><path d="m166.2 119.3c2.32-4.64 4.25-9.5 5.47-14.54.2 1.88.42 3.77.64 5.66-.1.39-.29 1.17-.39 1.56-1.84 6.99-5.39 13.28-7.98 19.96-.21.28-.62.85-.83 1.13-4.63 4.09-7.17 9.85-10.45 14.97-.97-.66-1.71-.5-2.21.46-3.02 3.97-3.4 9.12-4.74 13.76-2.67-1.78-5.32-3.6-7.81-5.62 1.98-2.44 2.89-5.49 4.44-8.18 1.82-1.18 4.06-1.88 5.23-3.85 6.07-8.54 13.51-16.11 18.63-25.31z" fill="#0195cd"/><path d="m78.95 110c.23.54.7 1.64.93 2.19-.23-.55-.7-1.65-.93-2.19z" fill="#637d8f" opacity=".65"/><path d="m124.06 115.62.65.79c.87 5.47 1.59 10.97 2.48 16.44-.09 5.85.89 12.09-1.17 17.67-1.06-.02-2.03-.31-2.93-.86.83-4.8-.18-9.67.33-14.49.26-3.49 1.46-6.94.94-10.46-.4-3.01-1.11-6.08-.3-9.09z" fill="#0a92c7"/><path d="m81.99 117.97c.27.54.81 1.64 1.08 2.18-.27-.54-.81-1.64-1.08-2.18z" fill="#604f58" opacity=".52"/><path d="m117.2 120.94c.6-1.02 1.23-2.03 1.83-3.05.49 5.47 1.46 10.93.94 16.44-.74-3.33-.91-6.74-1.26-10.11-2.03.05-1.69 2.86-2.58 4.19-.3-.41-.88-1.22-1.18-1.62.75-1.95 1.48-3.91 2.25-5.85z" fill="#2d6480" opacity=".81"/><path d="m67.71 118.7c.86 2.55.87 5.66 3.14 7.45 3.34 3.29 6.97 6.28 10.08 9.79-2.92-.93-5.76-2.07-8.58-3.27-1.08-1.11-2.15-2.23-3.29-3.27l-.4-.38c-1.68-3.18-1.47-6.88-.95-10.32z" fill="#0392ce"/><path d="m83.09 120.93c1.65 1.23 2.27 3.24 1.82 5.22-1.66-1.22-2.2-3.25-1.82-5.22z" fill="#3c4751" opacity=".55"/><path d="m74.34 125.29c.09.1.25.31.34.41-.09-.1-.25-.31-.34-.41z" fill="#44515b" opacity=".62"/><path d="m91.06 129.79c.25-1.74.5-3.48.73-5.22l.78.59c-.19 3-.54 5.99-1.24 8.92-.12-1.43-.21-2.86-.27-4.29z" fill="#022069"/><path d="m37.29 189.87c-.26-2.04-.44-4.08-.62-6.13.32.7.95 2.09 1.27 2.79 2.1 5.68 5.83 10.61 8.78 15.87 3.75-3.77 8.25-6.56 13.16-8.55-3.39 3.44-8.61 4.68-11.2 9.02-.59.68-1.21 1.35-1.84 2.01-3.11-5.01-5.49-10.58-9.55-15.01z" fill="#022069"/><path d="m11.76 225.83c1.8.55 3.51 1.33 5.27 1.96 4.17.74 8.58-.04 12.6 1.55 4.88 1.61 8.52 5.77 10.35 10.47-.2.35-.6 1.05-.8 1.39-.71-.88-1.44-1.74-2.2-2.58-.73-.67-1.57-1.21-2.47-1.64-4.26-2.2-9.46-3.27-14.09-1.66-4.32 1.62-2.98 7.42-2.05 10.88.55 1.62 1.19 3.22 1.81 4.82-2.81-2.06-2.96-5.6-3.71-8.69-1.02-.2-2.04-.34-3.07-.43-.37-.22-1.11-.64-1.47-.85-.55-.66-1.06-1.34-1.53-2.04.1-.33.31-.98.41-1.3 1.05.7 3.88.5 2.99-1.35-.85-.72-1.86-1.05-3.03-1.01-.89-.97-1.79-1.94-2.6-2.98.54-.11 1.6-.34 2.13-.45 1.13-.22 2.25-.45 3.34-.8-.63-1.76-1.36-3.49-1.88-5.29z" fill="#022069"/><path d="m133.06 256.71c3.09-2.51 5.84-5.41 9.07-7.74-2.16 4.14-6.4 6.59-9.01 10.29 1.28 6.39 3.65 14.08-1.18 19.62 2.29-5.64 4.21-13.5-.95-18.15-.07-.38-.23-1.14-.31-1.52.71-.91 1.57-1.69 2.38-2.5z" fill="#022069"/><path d="m127.26 516.28c.58.52 1.16 1.05 1.74 1.6.27.98.48 1.98.63 3-3.36 6.56-11.72 6.16-17.97 5.32 4.78-1.29 10.07-1.36 14.3-4.2 2-1.22.98-3.82 1.3-5.72z" fill="#022069"/><path d="m85.02 126.91c.74.98 1.24 2.08 1.51 3.29l-.27.74c-1.74-.57-1.73-2.59-1.24-4.03z" fill="#3b434b" opacity=".58"/><path d="m108.01 136.34c2.38-3.14 3.74-7.06 6.94-9.55.3.4.88 1.21 1.18 1.62-1.68 3.97-1.81 8.32-2.64 12.49-.79 1.25-1.56 2.52-2.51 3.64-3.82-.99-7.48-2.51-11.19-3.85 2.97-.37 3.93-3.24 5.44-5.37.93.3 1.84.7 2.78 1.02z" fill="#0195cc"/><path d="m68.66 129.02.4.38c.78 3.09-2.89 3.42-4.96 2.48 1.74-.54 3.48-1.31 4.56-2.86z" fill="#9fc2d4"/><path d="m152.66 148.04c3.28-5.12 5.82-10.88 10.45-14.97-4.75 7.78-10.4 15.15-12.98 24.04.37-3.14 1.25-6.19 2.53-9.07z" fill="#9fc2d4"/><path d="m36.46 363.08c-2.28-4.02-2.63-9-.65-13.21.71 3.6 1.31 7.57 4.04 10.29 2.2 2.03 4.77 3.63 7 5.64-1.1 1.23-2.33 2.33-3.57 3.42-2.63-1.63-4.87-3.76-6.82-6.14z" fill="#9fc2d4"/><path d="m61.02 521c6.71-.47 13.7-.17 19.93-3.14-1.21 1.76-3.07 2.87-5.02 3.65-1.55.1-3.1.17-4.64.29-7.18.52-14.36 1.02-21.56 1.16-4.62-.9-9.7-.38-13.92-2.67 2.15.46 4.35.34 6.52.12 6.23.15 12.45 1.01 18.69.59z" fill="#9fc2d4"/><path d="m86.53 130.2c.42 1.05.89 2.07 1.37 3.1.46 1.05.98 2.09 1.84 2.88 2.52 2.95 6.61 3.27 10.05 4.51 3.71 1.34 7.37 2.86 11.19 3.85.95-1.12 1.72-2.39 2.51-3.64-.11 1.54-.3 3.09-.14 4.64 1.56.82 3.18 1.52 4.8 2.23-6.25-.41-11.88-3.67-18.13-3.97-4.37-.31-8.75.09-13.12-.13 2.95-1.17 6.13-1.39 9.23-1.89-3.66-2.18-7.93-3.32-11.07-6.34.72-1.41.99-2.96 1.2-4.5z" fill="#015485"/><path d="m80.28 131.29c.11.09.33.28.44.38-.11-.1-.33-.29-.44-.38z" fill="#485062" opacity=".72"/><path d="m33.04 150.99c3.14-4.99 7.03-9.62 11.99-12.9.69-.12 2.08-.36 2.78-.48-2.37 4.54-6.84 7.31-9.98 11.23-2.02 2.35-3.35 5.17-4.92 7.81-.38-.3-1.13-.92-1.5-1.23 1.38-1.04 1.75-2.8 1.63-4.43z" fill="#16c7e4" opacity=".96"/><path d="m80.16 147.07c4.76 3.12 4.76 9.32 6.92 14.04-.41 6.36-2.2 12.81-5.92 18.04-1.14 1.79-3.78 2.99-3.53 5.39-8.5 6.87-17.71 13.04-24.78 21.49-1.6-.74-2.86-2.01-4.17-3.16 2.59-4.34 7.81-5.58 11.2-9.02.08-.44.24-1.32.32-1.75-4.51.77-8 3.94-12.04 5.85 1.62-12.25 6.53-24.63 15.92-32.95-1.68 4.4-4.86 8.01-6.67 12.35-2.1 5.08-4.55 10.11-5.41 15.6 4.05-1.4 7.71-3.69 11.66-5.32 3.73-1.69 8.04-2.94 10.49-6.48 6.67-9.95 7.8-22.48 6.01-34.08z" fill="#0196ce"/><path d="m150.45 148.5c.5-.96 1.24-1.12 2.21-.46-1.28 2.88-2.16 5.93-2.53 9.07l-.16.82c-1.17.75-1.55 1.8-1.17 3.13l.08.91c-.25.55-.75 1.66-1 2.21-.72-.65-1.44-1.28-2.17-1.92 1.34-4.64 1.72-9.79 4.74-13.76z" fill="#0fbedf"/><path d="m86.9 150.09c1.7-2.04 5.75-.93 5.19 1.99-.46 4.53-3.69 8.38-3.75 13.09.15-1.84-.2-3.65-1.12-5.25-.35-3.26-.79-6.56-.32-9.83z" fill="#0191c9"/><path d="m30.88 155.02c-.05-1.66.92-3.03 2.16-4.03.12 1.63-.25 3.39-1.63 4.43z" fill="#3b6470" opacity=".65"/><path d="m37.94 157.88c1.24-2.36 2.46-4.75 4.06-6.89-1.41 7.41-5.3 14.28-5.23 21.98-.29 4.59 2.47 9.01 1.17 13.56-.32-.7-.95-2.09-1.27-2.79-.94-4.53-2.45-9.06-1.99-13.75.18-4.24 1.79-8.2 3.26-12.11z" fill="#08d6f7"/><path d="m126.01 154.82c3.14.7 6.04 2.14 9.15 2.95 2.11 2.76 5.61 6.31 9.35 5.42 2.14 1.64 4.31 3.25 6.61 4.68.67.61 1.33 1.25 1.98 1.89 1.12 3.61 3.17 6.77 5.28 9.86 2.86 5.33 5.62 10.76 7.4 16.55 1.28 3.69 2 7.65 4.32 10.89l.24.8c-.02.75-.08 2.27-.11 3.02-.52-.14-1.56-.42-2.08-.56.94 18.05-2.13 36.57-10.42 52.73-6.16-.85-12.27.63-18.39.72l-.54-.62c1.98-2.45 4.39-4.55 6.14-7.18 4.3-6.19 6.58-13.48 8.3-20.74 2.22-9.92 2.87-20.3.92-30.32-1.79-10.25-6.09-19.88-11.22-28.86-4.64-7.85-11.35-14.12-16.93-21.23z" fill="#0097cf"/><path d="m29.76 168.77c-.77-4.35-.2-8.77 1-12.98-.05 3.44-.11 6.9.22 10.34 2.96-2.28 3.17-6.92 6.96-8.25-1.47 3.91-3.08 7.87-3.26 12.11-.46 4.69 1.05 9.22 1.99 13.75.18 2.05.36 4.09.62 6.13-4.58-2.01-5.25-7.26-5.9-11.62-.33-.06-1.01-.19-1.34-.25-3.66 2.58-6.97 5.89-9.29 9.74-2.77 6.12-3.34 12.93-4.46 19.48-.26 3.13-1.64 6.92 1.07 9.39-.05 3.73-.32 7.45-.34 11.18-1.76-.63-3.47-1.41-5.27-1.96.52 1.8 1.25 3.53 1.88 5.29-1.09.35-2.21.58-3.34.8-.15-8.29-1.26-16.68.48-24.89.79-2.58.81-5.3 1.08-7.95.25-.55.76-1.66 1.01-2.22 1.17-4.58 3.31-8.84 5.66-12.92l.78.14c.36.06 1.07.18 1.43.24 3.48-3.16 5.82-7.42 9.27-10.66.65 1.46.67 3.98 2.92 3.51.89-1.94 1.21-4.08 1.46-6.18-.93.64-1.86 1.27-2.79 1.89-.69-1.34-1.26-2.73-1.84-4.11z" fill="#0494cd"/><path d="m148.8 161.06c-.38-1.33 0-2.38 1.17-3.13.49 1.39.1 2.43-1.17 3.13z" fill="#454b55" opacity=".6"/><path d="m87.22 159.92c.92 1.6 1.27 3.41 1.12 5.25-1.11 7.43-4.62 14.77-10.71 19.37-.25-2.4 2.39-3.6 3.53-5.39 3.72-5.23 5.51-11.68 5.92-18.04z" fill="#016898"/><path d="m147.88 164.18c.25-.55.75-1.66 1-2.21-.25.55-.75 1.66-1 2.21z" fill="#443e45" opacity=".51"/><path d="m185.75 202.59c2.19-12.37 3.84-24.82 6.25-37.15v9.85c-2.39 7.09-2.43 14.68-3.88 21.98-1.65 8.89-2.14 17.98-4.19 26.8l-1.23-.38c.61-7.09 2.07-14.06 3.05-21.1z" fill="#47cdcc"/><path d="m172.54 347.53c.82-3.66.78-7.49 1.98-11.09 1.6 1.18 3.23 2.48 5.28 2.65.26.54.8 1.62 1.06 2.17-.28 4-.38 8.03-.15 12.04l-.26.73c-2.23.46-4.49-.28-5.55-2.36-1.18-2.25-3.95-2.08-6.11-2.47.37-.16 1.12-.49 1.49-.66.57-.25 1.69-.75 2.26-1.01z" fill="#47cdcc"/><path d="m29.76 168.77c.58 1.38 1.15 2.77 1.84 4.11.93-.62 1.86-1.25 2.79-1.89-.25 2.1-.57 4.24-1.46 6.18-2.25.47-2.27-2.05-2.92-3.51-.11-.42-.34-1.24-.46-1.66-1.93 1.58-3.66 3.39-5.51 5.07l-.08-1.01c1.84-2.5 4.07-4.7 5.8-7.29z" fill="#186388" opacity=".96"/><path d="m153.1 169.76c3.94 3.68 6.35 8.59 8.97 13.22 3.76 7.6 6.98 15.61 8.03 24.08-2.32-3.24-3.04-7.2-4.32-10.89-1.78-5.79-4.54-11.22-7.4-16.55-2.11-3.09-4.16-6.25-5.28-9.86z" fill="#2f6181" opacity=".87"/><path d="m24.04 177.07c1.85-1.68 3.58-3.49 5.51-5.07.12.42.35 1.24.46 1.66-3.45 3.24-5.79 7.5-9.27 10.66-.36-.06-1.07-.18-1.43-.24 1.62-2.31 3.25-4.61 4.73-7.01z" fill="#0ec5e8"/><path d="m188.12 197.27c1.45-7.3 1.49-14.89 3.88-21.98v14.07c-3.17 18.85-4.45 37.98-7.35 56.88-.67 6.1-1.5 12.19-1.83 18.32-1.99 12.47-3.35 25.02-4.77 37.56-1.26 11.43-3.14 22.82-3.53 34.32-1.2 3.6-1.16 7.43-1.98 11.09-.57.26-1.69.76-2.26 1.01.84-4.79 1.07-9.65 1.8-14.45 1.69-11.28 2.61-22.65 4.35-33.92.97-5.67.51-11.48 1.73-17.12 1.03-4.99 1.16-10.1 1.87-15.13 1.39-8.9 2-17.9 3.46-26.79.53-5.66.8-11.38.44-17.06 2.05-8.82 2.54-17.91 4.19-26.8z" fill="#effcf8"/><path d="m103 181.97c1.74-.94 3.64-2.17 5.7-1.81 1.81.8 3.41 1.98 5.03 3.11 9.76 7.1 19.36 14.57 27.43 23.6 5.22 6.18 7.9 14.17 8.88 22.11.77 5.78-1.67 11.32-4.72 16.07-1.5.18-2.46 1.42-2.45 2.89-.19.26-.56.77-.74 1.03-3.23 2.33-5.98 5.23-9.07 7.74-3.65-.46-6.93 1.8-9.96 3.52l-.34.81c2.74.16 5.5-.05 8.23-.31 5.16 4.65 3.24 12.51.95 18.15-.2.3-.58.88-.77 1.17-1.44.23-2.47 1.4-2.43 2.87-2.89 2.87-5.84 5.68-9.17 8.05-5.82 3.55-11.97 6.5-18.03 9.63-1.95 1.04-4.2 1.2-6.35 1.52-7.41-.4-14.79 1.08-22.19.24-3.95-.07-7.76-1.18-11.66-1.61-.42.39-1.26 1.18-1.69 1.58-8.92-3.52-17.81-7.54-25.54-13.29-2.82-3.97-6.28-7.58-8.06-12.19-.09-1.56-.21-3.13-.09-4.68 2.48-3.56 4.69-7.21 5.74-11.44l.93.19c1.17 3.24 2.62 8.47 7.08 7.82 2.98-1.41 5.71-3.3 8.7-4.68.55-.23 1.66-.69 2.21-.92 1.07-.43 2.12-.9 3.16-1.39 4.43-.62 8.9-.92 13.38-.81-.53-2.11-1.28-4.15-1.92-6.22-2.04-9.06-2.73-18.79.58-27.64 1.87-8.16 6.02-15.58 10.99-22.25 7.39-8.96 15.98-17.17 26.19-22.86m-10.95 18.01c-1.07.64-3.37 1.44-2.25 3.12 1.67.14 3.3-.27 4.9-.7 6.46-.02 12.98-.37 19.36.92 3.83.57 7.44 2.1 11.3 2.54-.99-2.74-3.96-3.72-6.35-4.87-4.79-2.02-10.03-3.8-15.29-3.15-3.95-.8-8.1.44-11.67 2.14m2.76 23.77c-7.21 3.58-13.08 10.38-14.52 18.38l-.58.31c-.32 4.46-1.62 8.85-1.18 13.36.03 1.65 1.15 3.21 2.68 3.82 6.99 3.22 14.8 2.8 22.3 2.68l.44-.56c3.68-.31 7.1-1.9 10.61-2.95l.04-.78c1.68.03 2.78-1.52 3.97-2.48 3.75-3.95 7.15-8.37 9.31-13.41 3.39-5.25 6.11-10.91 9.98-15.84-3.28 1.02-6.38 3-9.93 2.83 2.06-4.45 5.29-8.31 6.9-13-4.39 2.99-9.62 5.42-15.02 5.1-.36-2.03.85-3.92 1.16-5.9-8.17 4.3-17.76 4.69-26.16 8.44m-20.49 52.71c-2.9 6.63-10.64 8.96-17.35 8.04-3.47.24-5.82-2.48-8.38-4.31-.11.73-.33 2.18-.44 2.9-2.75.87-5.61.35-8.17-.85 1.28.88 2.58 1.9 4.14 2.18 2.03-.13 3.9-1.07 5.89-1.4 5.98 3.63 13.91 3.4 19.79-.33 2.33-1.46 3.9-4.21 6.9-4.37-.06-1.26-1.45-1.45-2.38-1.86m-18.43 15.56c.16.36.47 1.09.63 1.45 2.36.66 6.48 1.37 7.51-1.56-2.71-.18-5.43-.11-8.14.11z" fill="#fffbdb"/><path d="m166.09 382.88c5.46 3.31 10.44 7.92 13.44 13.59-.31 4.95-2.12 9.68-3.57 14.39-.24.3-.72.91-.96 1.21-1.99-.04-3.97-.11-5.96-.2-1.29-4.18-5.17-6.15-9.14-7.11.39-2.88.78-5.77 1.21-8.65 2.48-2.34 5.38-4.63 6.04-8.19-2.64 2.78-5.23 5.75-8.9 7.19.16-.48.48-1.44.64-1.91.3-.22.91-.64 1.21-.85 3.51-1.95 4.81-5.9 5.99-9.47z" fill="#fffbdb"/><path d="m17.33 414.97c.95-2.16 2.2-4.17 3.63-6.05.23 1.75.4 3.51.54 5.28-.39.51-1.15 1.54-1.54 2.05-.89-.4-1.77-.82-2.63-1.28z" fill="#fffbdb"/><path d="m184.65 246.24c2.9-18.9 4.18-38.03 7.35-56.88v20.05c-1.61 15.51-2.59 31.07-3.88 46.61-.8 6.16-.47 12.44-1.77 18.54-1.15-3.35-.6-7.49-3.53-10 .33-6.13 1.16-12.22 1.83-18.32z" fill="#24bfbf"/><path d="m28.01 193.98c4.05-3.37 8.04 1.56 10.53 4.47 9.35 14.18 9.48 32.05 8.57 48.41-.51 1.72-1.14 3.4-1.7 5.1-1.1 2.41-2.34 4.89-4.59 6.43-.02-.82-.03-1.64-.04-2.46 2.27-5.21 1.32-11.04-.8-16.12-1.83-4.7-5.47-8.86-10.35-10.47-4.02-1.59-8.43-.81-12.6-1.55.02-3.73.29-7.45.34-11.18 2.3-7.97 3.7-17.17 10.64-22.63m-7.53 18 .55.75c6.32-1.05 12.48.91 18.74 1.07-.04-.38-.11-1.16-.15-1.55-5.53-3.77-13.58-4.02-19.14-.27z" fill="#fffbdc"/><path d="m11.86 199.08c.25-.55.76-1.66 1.01-2.22-.25.56-.76 1.67-1.01 2.22z" fill="#475e75" opacity=".68"/><path d="m92.05 199.98c3.57-1.7 7.72-2.94 11.67-2.14 2.49 1.34 6.37 1.05 8.08 3.12-5.61 1.51-11.52-.01-17.1 1.44-1.6.43-3.23.84-4.9.7-1.12-1.68 1.18-2.48 2.25-3.12z" fill="#092479"/><path d="m103.72 197.84c5.26-.65 10.5 1.13 15.29 3.15 2.39 1.15 5.36 2.13 6.35 4.87-3.86-.44-7.47-1.97-11.3-2.54-6.38-1.29-12.9-.94-19.36-.92 5.58-1.45 11.49.07 17.1-1.44-1.71-2.07-5.59-1.78-8.08-3.12z" fill="#04073e"/><path d="m170.34 207.86c.61 1.74 1.08 3.55 1.14 5.41 1.03 17.17-2.11 34.8-10.11 50.1-.68 1.16-.8 2.49-.53 3.79-.93-.67-1.63-1.58-2.17-2.58 5.21-6.91 7.06-15.56 9.38-23.72 1.96-9.85 2.8-19.94 2.18-29.98.03-.75.09-2.27.11-3.02z" fill="#3e6073" opacity=".77"/><path d="m20.48 211.98c5.56-3.75 13.61-3.5 19.14.27.04.39.11 1.17.15 1.55-6.26-.16-12.42-2.12-18.74-1.07z" fill="#011753"/><path d="m168.15 210.32c.52.14 1.56.42 2.08.56.62 10.04-.22 20.13-2.18 29.98-2.32 8.16-4.17 16.81-9.38 23.72-.24-.38-.7-1.15-.94-1.53 8.29-16.16 11.36-34.68 10.42-52.73z" fill="#07c1e7"/><path d="m94.81 223.75c8.4-3.75 17.99-4.14 26.16-8.44-.31 1.98-1.52 3.87-1.16 5.9 5.4.32 10.63-2.11 15.02-5.1-1.61 4.69-4.84 8.55-6.9 13 3.55.17 6.65-1.81 9.93-2.83-3.87 4.93-6.59 10.59-9.98 15.84-.92.25-1.84.47-2.77.65-.64-1.93-1.03-3.94-1.63-5.88-3.78-7.46-12.16-12.32-20.48-12.18-6.38 1.11-12.33 4.83-16.24 9.99-2.82 2.98-4.83 6.57-6.16 10.44-.1-1.01-.2-2.01-.31-3.01 1.44-8 7.31-14.8 14.52-18.38z" fill="#011564"/><path d="m180.35 240.2c.02-5.59 1.42-11.04 2.35-16.51l1.23.38c.36 5.68.09 11.4-.44 17.06-.78 0-1.56.02-2.34-.07-.2-.21-.6-.65-.8-.86z" fill="#99faf3"/><path d="m47.8 228.96.85.25c.66 8.53.73 17.12 1.32 25.66-.11 3.08-3.32 1.93-4.16-.1-.14-.94-.27-1.87-.4-2.81.56-1.7 1.19-3.38 1.7-5.1 1.41-5.86-.09-11.96.69-17.9z" fill="#0491cb"/><path d="m10.77 235.35c1.17-.04 2.18.29 3.03 1.01.89 1.85-1.94 2.05-2.99 1.35-.01-.59-.03-1.77-.04-2.36z" fill="#b3d4dd"/><path d="m69.98 315.28c-1.43-2.45-2.38-5.6 0-7.82 2.99 1.83 5.9 4 8.12 6.74.89 2.95.52 6.16.13 9.17-3.21-2.19-5.88-5.03-8.25-8.09z" fill="#b3d4dd"/><path d="m20.42 235.32c4.63-1.61 9.83-.54 14.09 1.66-1.39.6-2.78 1.19-4.2 1.72-5.04-1.92-12.63 1.37-11.94 7.5-.93-3.46-2.27-9.26 2.05-10.88z" fill="#e4e0d1"/><path d="m34.41 240.52c.83-.67 1.68-1.31 2.57-1.9.76.84 1.49 1.7 2.2 2.58.69 1.58 1.44 3.15 1.93 4.81-.64 1.44-2.62 1.06-3.88 1.5-2.15-1.7-3.9-4.14-2.82-6.99z" fill="#fefefe"/><path d="m103.25 245.27c.62.01 1.84.04 2.46.05-.01.58-.04 1.76-.05 2.34-.58.01-1.76.02-2.34.02-.02-.6-.05-1.81-.07-2.41z" fill="#fefefe"/><path d="m34.22 247.99c.4-.06 1.19-.17 1.59-.23.7.87 1.49 2.7-.07 3.2-1.84.53-2.14-1.79-1.52-2.97z" fill="#fefefe"/><path d="m179.5 239.24c.21.24.63.72.85.96.2.21.6.65.8.86.78.09 1.56.07 2.34.07-1.46 8.89-2.07 17.89-3.46 26.79-1.45 2.01-3.38 3.61-5.46 4.94 1.22-11.27 4.2-22.32 4.93-33.62z" fill="#57f7f6"/><path d="m28.64 244.03c.02-2.12 1.74-4.26 3.93-4.31.07 2.84.66 5.61 1.65 8.27-.62 1.18-.32 3.5 1.52 2.97 1.56-.5.77-2.33.07-3.2.36-.06 1.06-.18 1.42-.25 1.26-.44 3.24-.06 3.88-1.5-.49-1.66-1.24-3.23-1.93-4.81.2-.34.6-1.04.8-1.39 2.12 5.08 3.07 10.91.8 16.12-2.94-.1-5.89-.25-8.83 0 .29 1.13.62 2.25.99 3.37-.37.03-1.13.1-1.51.13l-.52-.85c-.89-4.81-2.73-9.58-2.27-14.55z" fill="#782537"/><path d="m11.93 241.05c.36.21 1.1.63 1.47.85-.15.5-.45 1.52-.6 2.02-.92-.75-1.21-1.71-.87-2.87z" fill="#416572" opacity=".53"/><path d="m13.4 241.9c1.03.09 2.05.23 3.07.43.75 3.09.9 6.63 3.71 8.69.23.46.67 1.38.89 1.85.61 2 1.27 4.01 2.33 5.83 1.17 2.34 2.77 4.41 4.11 6.65-.43 2.29-1.29 4.49-1.55 6.82-.12 1.55 0 3.12.09 4.68-.23 1.36-.64 2.74-1.93 3.48-.54-1.38-.93-2.81-1.28-4.24-.26-.58-.77-1.73-1.03-2.31-.22.31-.66.92-.87 1.22-.09 1.4-.19 2.79-.28 4.19-4.02-2.11-3.29-7.55-4.85-11.23.57-1.96 2-3.47 3.3-4.96 2.32-1.44.58-3.88-1.09-4.95-1.9-4.65-3.68-9.35-5.22-14.13.15-.5.45-1.52.6-2.02z" fill="#0799ca"/><path d="m45.41 251.96c.13.94.26 1.87.4 2.81-.94 1.3-1.91 2.58-2.75 3.95 3.16.23 5.79 1.78 7.56 4.42-.55.23-1.66.69-2.21.92-2.83-2.84-6.7-4.01-10.53-4.71 1-.26 1.98-.58 2.94-.96 2.25-1.54 3.49-4.02 4.59-6.43z" fill="#3c7792"/><path d="m31.95 255.93c2.94-.25 5.89-.1 8.83 0 .01.82.02 1.64.04 2.46-.96.38-1.94.7-2.94.96-1.65-.05-3.29-.07-4.94-.05-.37-1.12-.7-2.24-.99-3.37z" fill="#bd5869"/><path d="m123.1 260.23c3.03-1.72 6.31-3.98 9.96-3.52-.81.81-1.67 1.59-2.38 2.5.08.38.24 1.14.31 1.52-2.73.26-5.49.47-8.23.31z" fill="#e4daae"/><path d="m61.34 300.75c3.9.43 7.71 1.54 11.66 1.61 7.4.84 14.78-.64 22.19-.24-1.18.96-2.3 2.01-3.33 3.14-1.72 2.39-4.83 2.52-7.4 3.4-2.5.56-4.41 2.36-6.51 3.7-2.5-1.48-4.02-4.13-6.52-5.58-1.46-.35-2.95-.52-4.42-.77l-.76-.25c-2.18-1.19-4.36-2.37-6.6-3.43.43-.4 1.27-1.19 1.69-1.58z" fill="#e4daae"/><path d="m18.02 258.05c1.67 1.07 3.41 3.51 1.09 4.95-.7-1.57-1.02-3.25-1.09-4.95z" fill="#26272c" opacity=".39"/><path d="m23.4 258.7c2.9-.24 5.31 2.18 8.3 2.03-1.05 4.23-3.26 7.88-5.74 11.44.26-2.33 1.12-4.53 1.55-6.82-1.34-2.24-2.94-4.31-4.11-6.65z" fill="#efdeba"/><path d="m182.82 264.56c2.93 2.51 2.38 6.65 3.53 10-.66 15.25-2.11 30.48-3.25 45.71-.09-3.16.42-6.52-1.04-9.45-1.91-3.62-1.78-7.8-2.34-11.75-.59 1-1.15 2.01-1.67 3.05 1.42-12.54 2.78-25.09 4.77-37.56z" fill="#46c9c9"/><path d="m162.25 268.33c.1.1.3.31.4.41-.1-.1-.3-.31-.4-.41z" fill="#3f485e" opacity=".67"/><path d="m174.57 272.86c2.08-1.33 4.01-2.93 5.46-4.94-.71 5.03-.84 10.14-1.87 15.13-1.22 5.64-.76 11.45-1.73 17.12-.09-.78-.27-2.34-.36-3.12-1.87 1.78-3.21 3.99-4.84 5.97-.3-.56-.89-1.67-1.19-2.23 1.45-9.32 2.67-18.68 4.53-27.93z" fill="#9dfdfd"/><path d="m163.17 269.46c1.13 2.62 1.12 5.64.01 8.27-.56-.07-1.68-.19-2.24-.25-.74 2.66-.61 6.26-3.69 7.43-1.06-2.06-1.84-4.27-3.13-6.2-.59.28-1.76.86-2.35 1.15.84-1.14 2.09-1.8 3.32-2.43.94 1.68 1.88 3.37 3.02 4.94 1.86-2.18 1-5.2 1.28-7.8 1.15.08 2.28.24 3.43.33.23-1.81.3-3.63.35-5.44z" fill="#31596e" opacity=".74"/><path d="m135.01 285.98c6.09-3.18 9.91-9.12 14.88-13.63 2.32.96 4.16 2.8 5.2 5.08-1.23.63-2.48 1.29-3.32 2.43-.23.25-.69.76-.92 1.02-2.02-.11-3.68 1.29-3.67 3.36-.28.19-.83.56-1.11.75-2.33.82-4.37 2.21-5.98 4.09-.96.63-1.95 1.23-2.94 1.81-5.14 1.08-9.61 3.94-14.46 5.8-4.01 1.78-8.47 2.6-12.06 5.25l-.71.24c-2.18-.68-4.52-.22-5.98 1.61l-.76.2c-3.82.14-6.96 3.39-10.8 2.69-.13-.35-.39-1.06-.52-1.42 1.03-1.13 2.15-2.18 3.33-3.14 2.15-.32 4.4-.48 6.35-1.52 6.06-3.13 12.21-6.08 18.03-9.63.53 1.1 1.57 2.08 2.81 1.28 4.45-1.56 8.46-4.12 12.63-6.27z" fill="#029ad0"/><path d="m20.94 275c.21-.3.65-.91.87-1.22.26.58.77 1.73 1.03 2.31-.48-.27-1.43-.82-1.9-1.09z" fill="#596677" opacity=".67"/><path d="m26.05 276.85c1.78 4.61 5.24 8.22 8.06 12.19l-.2 1.01c-3.84-2.51-8.42-4.99-9.79-9.72 1.29-.74 1.7-2.12 1.93-3.48z" fill="#1e86cc"/><path d="m122.69 296.69c4.85-1.86 9.32-4.72 14.46-5.8-5.92 3.98-12.61 6.59-19.22 9.19-2.34.95-4.81 1.49-7.3 1.86 3.59-2.65 8.05-3.47 12.06-5.25z" fill="#456373" opacity=".82"/><path d="m55.89 292.02c2.71-.22 5.43-.29 8.14-.11-1.03 2.93-5.15 2.22-7.51 1.56-.16-.36-.47-1.09-.63-1.45z" fill="#b3b391"/><path d="m171.23 303.02c1.63-1.98 2.97-4.19 4.84-5.97.09.78.27 2.34.36 3.12-1.74 11.27-2.66 22.64-4.35 33.92-2.03 2.5-4.74 4.27-7.46 5.92 1.04-12.86 4.36-25.43 5.24-38.31l.18-.91c.3.56.89 1.67 1.19 2.23z" fill="#58f4f3"/><path d="m178.05 302.12c.52-1.04 1.08-2.05 1.67-3.05.56 3.95.43 8.13 2.34 11.75 1.46 2.93.95 6.29 1.04 9.45-.6 7-.89 14.07-2.24 20.99-.26-.55-.8-1.63-1.06-2.17-2.05-.17-3.68-1.47-5.28-2.65.39-11.5 2.27-22.89 3.53-34.32z" fill="#28c4c4"/><path d="m103.94 303.79c1.46-1.83 3.8-2.29 5.98-1.61-1.6 1.55-3.83 1.96-5.98 1.61z" fill="#41627e" opacity=".76"/><path d="m167.94 310.73c.43-3.05 1.08-6.06 1.92-9.03-.88 12.88-4.2 25.45-5.24 38.31-.55 2.09-1.13 4.18-1.73 6.26.95-11.94 3.29-23.7 5.05-35.54z" fill="#2e7879" opacity=".73"/><path d="m82.2 309.93c5.3-1.69 10.81-2.85 16.4-2.58.64.35 1.94 1.05 2.59 1.4.51 1.77.45 3.63.73 5.44 2.31.41 4.67.39 6.98.84-4.42.62-8.8-2.76-12.9-.06-5.71 2.23-10.83 5.62-16.29 8.32-.39-3.07-.62-6.16-.6-9.25-.22-1.95 1.54-3.34 3.09-4.11z" fill="#b3cfde"/><path d="m96 314.97c4.1-2.7 8.48.68 12.9.06.39.13 1.18.38 1.58.51-5.7 1.35-10.26 5.32-15.81 7.05-3.88 1.43-8.05 1.8-11.92 3.23-2.66 3.01-2.56 7.74-5.91 10.27 1.04-4.07 2.73-7.92 4.27-11.81 2.36-1.8 4.76-3.61 7.49-4.82 2.71-1.35 5.85-2.02 8.09-4.18z" fill="#1a9da8"/><path d="m94.67 322.59c5.55-1.73 10.11-5.7 15.81-7.05l.88.53c-.98 2.17-2.68 3.89-3.8 5.98-.49.63-.99 1.25-1.5 1.87-1.02 1.01-2.29 1.92-2.66 3.41-2.64 8-3.61 16.58-2.86 24.97.12 2.32 1.12 4.43 2.3 6.38-.34 4.51-1.35 9.02-.85 13.55.91.13 1.82.27 2.73.42.84 4.83 1.03 10.68-2.7 14.41-1.44 1.58-3.71.91-5.47.42-9.02-3.15-18.07-6.85-27.66-7.71-.23-4.6-.59-9.25.33-13.8 4.65.47 9.17 1.82 13.84 2.08-3.35-4.38-10.1-4.72-12.56-9.96.01-1.61.09-3.21.21-4.81.17-.47.49-1.41.65-1.89 1.86-4.43 3.24-9.04 4.3-13.72l.24-.63c.23-.24.7-.71.94-.95 3.35-2.53 3.25-7.26 5.91-10.27 3.87-1.43 8.04-1.8 11.92-3.23z" fill="#24b7be"/><path d="m45 399.94.82.33c.67.59 1.34 1.19 2.01 1.79.73.64 1.46 1.29 2.19 1.93 1.05 5.29 2.93 10.5 2.97 15.94-.73 4.31-3.67 7.78-5.39 11.71-.47.98-.39 1.95.26 2.91-.42.71-.86 1.41-1.34 2.1-5.37-1.9-9.54-6.24-13.25-10.42 2.97-3.92 4.42-8.94 8.27-12.18.22 1.33.44 2.66.67 4 2.93-5.07 4.14-11.59 2.56-17.32z" fill="#24b7be"/><path d="m101.17 403.23c.63-.02 1.9-.08 2.54-.1 3.82 6.39 10.15 10.61 15.75 15.29-1.24.9-2.46 1.82-3.56 2.9-4.74 2.86-9.9 4.96-14.53 8.03-6.17 3.23-12.19 7.1-19.14 8.35-1.38-.1-2.73-.29-4.07-.59-1.75-2.13-2.92-4.64-4.43-6.93-1.58-3.26-2.87-6.65-4.1-10.05.59-3.71 4.54-4.67 7.43-6.04 8.23-3.21 15.68-8.12 24.11-10.86z" fill="#24b7be"/><path d="m60.06 326.08c2.85-1.9 5.19-4.46 8.01-6.4-.21 1.53-.5 3.05-.84 4.57-1.15 2.05-2.09 4.23-2.8 6.47-4.28 8.7-8.39 17.49-12.56 26.25-1.51 3.02-2.84 6.2-5.02 8.83-2.23-2.01-4.8-3.61-7-5.64-2.73-2.72-3.33-6.69-4.04-10.29 1.1-1.93 3.17-2.94 4.96-4.08 3.22-.24 6.55-.15 9.6-1.32 2.16-1.81 2.76-4.74 3.8-7.23 1.33-4.03 4.12-7.33 5.89-11.16z" fill="#bae4fb"/><path d="m67.23 324.25c1.32-1.52 2.54-3.11 3.84-4.64 2.09 1.92 4.06 4.14 6.98 4.72-.07.33-.21.98-.28 1.31-.18.57-.56 1.7-.74 2.26-1.77 2.43-3.08 5.14-4.18 7.92-.58 1.06-1.18 2.12-1.71 3.21-.34 1.23-.55 2.49-.77 3.75-1.49 3.34-2.65 6.8-3.71 10.3-.58.68-1.16 1.38-1.73 2.08-3.23.63-5.76-2.16-7.75-4.29 1.33-5.94 5.47-10.68 7.66-16.27.73-1.31.05-2.64-.41-3.88.71-2.24 1.65-4.42 2.8-6.47z" fill="#23b7be"/><path d="m55.11 354.27c1.99 2.1 3.37 4.78 5.23 7.03.14 2.38-.22 4.76-.29 7.14-.05.48-.15 1.44-.2 1.92l-.11.65c-.9 1.73-1.86 3.43-2.67 5.21-1.67 2.93.22 6.02 1.91 8.44-3.38.99-6.7 2.15-10.08 3.15-1.2-1.37-2.47-2.7-3.87-3.86-.27-.22-.81-.67-1.08-.89-.06-.46-.17-1.37-.23-1.83-.27-3.09.15-6.19 1.17-9.12 4.37-5.37 7.14-11.71 10.22-17.84z" fill="#23b7be"/><path d="m107.56 322.05c1.97-.44 3.99-1.76 6.03-1.32 1.77 1.44 3.45 3 5.35 4.29 5.33 4.96 10.58 10.08 14.98 15.91.04 1.47.8 2.26 2.28 2.37.28.25.82.73 1.1.97.11.1.35.29.46.39.92.7 1.87 1.38 2.82 2.05-.93 3.01.67 5.95.83 8.95-4.52 6.78-12.89 8.68-19.81 12.02-1.67.61-4.12 2.4-5.34.14-3.09-4.25-6.75-8.04-9.93-12.22-.74-1.35-2.33-1.28-3.62-1.58-2.04-10.15.63-20.36 3.35-30.1.51-.62 1.01-1.24 1.5-1.87z" fill="#bae3fb"/><path d="m59.9 418.7c2.41 1.72 4.85 3.41 7.19 5.23 2.52 5.55 4.76 11.21 7.21 16.79-4.59-2.31-9.42-4.11-14.22-5.92 2.54 3.26 5.29 6.52 8.85 8.72 1.1.75 2.2 1.51 3.3 2.26 1.77 7.18.6 14.59.23 21.85.1 3.93-4.29 5.27-7.46 5.67-7.3 1.12-12.73-4.7-18.94-7.39.59-7.22.38-14.44-.27-21.64 1.8.43 3.58 1.77 5.49 1.13.98-2.09.92-4.41.75-6.65 2.92-6.57 5.49-13.28 7.87-20.05z" fill="#bae3fb"/><path d="m100.94 434.84c3.81-.92 7.74-2.47 11.71-1.6 1.81 6.49.16 14.01 4.37 19.72 2.04 2.85 4.38 6.49 3.08 10.1-2.89 4.71-8.88 2.18-13.09 4.12-1.42.59-2.79 1.29-4.18 1.94-2.24.96-4.42 2.05-6.59 3.14-6.07-.18-11.14 5.88-17.18 3.72-.4-1.75-.61-3.52-.8-5.29 1.42-7.36 1.51-14.93.52-22.35 3.04-2.61 6.82-4.4 9.23-7.69 4.28-2.02 8.64-3.84 12.93-5.81z" fill="#bae3fb"/><path d="m77.77 325.64c.9-.9 2.07-1.35 3.34-1.36-1.54 3.89-3.23 7.74-4.27 11.81-.24.24-.71.71-.94.95-.31-.29-.92-.86-1.22-1.15 1-2.59 1.77-5.27 2.35-7.99.18-.56.56-1.69.74-2.26z" fill="#f9fbfc"/><path d="m64.85 355.72c1.59-.3 3.24-.44 4.83-.03.09.4.28 1.19.37 1.59-.14.42-.43 1.26-.57 1.68-1.6 3.9-1.89 8.14-2.45 12.27-1.09-.32-2.16-.72-3.2-1.18.89-4.5 3.4-8.51 4.1-13.05-3.58 3.31-3.1 8.76-5.2 12.9-.72.12-2.16.35-2.88.46.05-.48.15-1.44.2-1.92 2.38-3.89 4.39-8.12 4.8-12.72z" fill="#f9fbfc"/><path d="m58.29 412.89c.22.55.66 1.66.88 2.21-2.26 7.2-4.55 14.44-7.78 21.29-1.07 2.62-3.39 5.13-6.46 3.89-1.01-.68-2.02-1.35-3.03-2.01-.09-1.62-1.53-2.72-3.11-2.28-1.67-1.62-3.3-3.27-4.9-4.95-1.57-2.61-3.52-5.08-4.23-8.1 1.3.99 2.48 2.12 3.61 3.29 3.71 4.18 7.88 8.52 13.25 10.42.48-.69.92-1.39 1.34-2.1 4.21-6.81 8.07-13.98 10.43-21.66z" fill="#f9fbfc"/><path d="m103.4 327.33c.37-1.49 1.64-2.4 2.66-3.41-2.72 9.74-5.39 19.95-3.35 30.1.54 4.85 5.92 6.61 8 10.65-.33 1.05-.64 2.12-.94 3.19-1.42-3.66-3.47-7.12-6.93-9.18-1.18-1.95-2.18-4.06-2.3-6.38-.75-8.39.22-16.97 2.86-24.97z" fill="#207788"/><path d="m54.01 333.95c1.82-2.77 3.69-5.53 6.05-7.87-1.77 3.83-4.56 7.13-5.89 11.16-1.04 2.49-1.64 5.42-3.8 7.23-3.05 1.17-6.38 1.08-9.6 1.32 1.4-.91 2.79-1.82 4.19-2.74 3.84-2.08 6.96-5.27 9.05-9.1z" fill="#92c1d9"/><path d="m64.43 330.72c.46 1.24 1.14 2.57.41 3.88-2.19 5.59-6.33 10.33-7.66 16.27 1.99 2.13 4.52 4.92 7.75 4.29l-.08.56c-.41 4.6-2.42 8.83-4.8 12.72.07-2.38.43-4.76.29-7.14-1.86-2.25-3.24-4.93-5.23-7.03-3.08 6.13-5.85 12.47-10.22 17.84-.52-.97-1.06-1.94-1.61-2.89 1.24-1.09 2.47-2.19 3.57-3.42 2.18-2.63 3.51-5.81 5.02-8.83 4.17-8.76 8.28-17.55 12.56-26.25z" fill="#189daa"/><path d="m157.71 339.78c1.11-2.79 1.73-6.24 4.47-7.94.52 5.57-1.15 11.06-1.02 16.63.34-.03 1.03-.11 1.37-.15.38.48 1.13 1.43 1.5 1.91 1.62-.18 3.19-.61 4.76-1.03 2.16.39 4.93.22 6.11 2.47 1.06 2.08 3.32 2.82 5.55 2.36l.26-.73c.91-2.69 1.77-5.39 2.53-8.13.3-.56.89-1.69 1.19-2.26.54.91 1.14 1.88.95 3.01-.35 4.26-.65 8.55-1.58 12.74-3.75 3.72-6.03 9.49-11.56 10.98-.16-.44-.48-1.32-.64-1.76l.2-.81c1.26-1 1.71-2.61 1.31-4.13-.22-3.41-.27-7.02-2.16-9.99-1.03.63-2.02 1.34-2.87 2.2-1.26 1.32-2.64 2.62-3.39 4.31-.39 3.67-.48 7.45.14 11.1.43.17 1.31.52 1.74.69.59.16 1.76.49 2.35.66 1.71.5 3.69.78 4.85 2.31-.23.96-.48 1.92-.77 2.87-3.34-1.84-7.07-1.73-10.74-1.48-1.87-.92-1.58-3.34-2.21-5.03-.24-1.97-2.39-2.62-3.75-3.68-.26-.19-.79-.57-1.05-.75-2.08-8.76-.16-17.94 2.46-26.37z" fill="#7094ea"/><path d="m44.96 343.05c2.88-3.16 5.91-6.19 9.05-9.1-2.09 3.83-5.21 7.02-9.05 9.1z" fill="#486273" opacity=".8"/><path d="m164.62 340.01c2.72-1.65 5.43-3.42 7.46-5.92-.73 4.8-.96 9.66-1.8 14.45-.37.17-1.12.5-1.49.66-1.57.42-3.14.85-4.76 1.03-.37-.48-1.12-1.43-1.5-1.91.09-.51.27-1.54.36-2.05.6-2.08 1.18-4.17 1.73-6.26z" fill="#9cfcfc"/><path d="m151.07 445.86c1.28 1.08 2.61 2.11 3.92 3.18 1.05 1.93 1.96 3.94 2.85 5.96.37 2 .72 4 1.13 6-3.33-4.64-5-10.23-7.9-15.14z" fill="#9cfcfc"/><path d="m185.12 335.18c.32.13.96.4 1.28.54 1.03 4 .93 8.18.79 12.28-.52 6.28-.71 12.94-4.19 18.44-.14-2.62.27-5.23.8-7.78.93-4.19 1.23-8.48 1.58-12.74.19-1.13-.41-2.1-.95-3.01-.3.57-.89 1.7-1.19 2.26.67-3.32.99-6.71 1.88-9.99z" fill="#5377b9"/><path d="m71.14 339.03c1.15-1.31 2.94-1.2 4.52-1.36-1.06 4.68-2.44 9.29-4.3 13.72-.63.14-1.91.4-2.54.53.68-3.02 1.85-5.99 1.55-9.14.22-1.26.43-2.52.77-3.75z" fill="#b1cadb"/><path d="m133.92 340.93c1.35.23 2.11 1.02 2.28 2.37-1.48-.11-2.24-.9-2.28-2.37z" fill="#638292" opacity=".88"/><path d="m70.37 342.78c.3 3.15-.87 6.12-1.55 9.14.63-.13 1.91-.39 2.54-.53-.16.48-.48 1.42-.65 1.89-1.35-.05-2.7-.12-4.05-.2 1.06-3.5 2.22-6.96 3.71-10.3z" fill="#dbe4ec"/><path d="m137.3 344.27c.11.1.35.29.46.39-.11-.1-.35-.29-.46-.39z" fill="#527080" opacity=".82"/><path d="m141.41 355.66c-.16-3-1.76-5.94-.83-8.95 2.12 1.4 4.41 2.72 6 4.75.28 2.41-.32 4.81-.68 7.18-.86-.3-1.74-.56-2.63-.77-.22.22-.66.65-.88.86-1.85 2.11-3.9 4.04-6.35 5.43-2.98 1.47-6.17 2.91-8.27 5.59-.91 1.8-.45 3.98-.78 5.94-2.83.04-5.65.38-8.37 1.17-2.29-4.29-4.94-8.34-7.91-12.19-2.08-4.04-7.46-5.8-8-10.65 1.29.3 2.88.23 3.62 1.58 3.18 4.18 6.84 7.97 9.93 12.22 1.22 2.26 3.67.47 5.34-.14 6.92-3.34 15.29-5.24 19.81-12.02z" fill="#92c3d9"/><path d="m168.08 355.15c.85-.86 1.84-1.57 2.87-2.2 1.89 2.97 1.94 6.58 2.16 9.99-1.42.89-1.8 2.59-1.31 4.13l-.2.81c-.86 1.36-1.76 2.7-2.68 4.03-.59-.17-1.76-.5-2.35-.66-2.45-5.26-1.73-11.36 1.51-16.1z" fill="#01f701"/><path d="m62.73 369.9c2.1-4.14 1.62-9.59 5.2-12.9-.7 4.54-3.21 8.55-4.1 13.05 1.04.46 2.11.86 3.2 1.18.56-4.13.85-8.37 2.45-12.27.13 2.34.11 4.69-.26 7.01-.92 4.55-.56 9.2-.33 13.8-.15 1.08-.27 2.17-.36 3.27 15.75 2.3 32.4 5.25 45.29 15.28l.03.99c.01 1.17.05 2.35.12 3.53l.04.94c-3.3-1.25-6.87-.78-10.3-.65-.64.02-1.91.08-2.54.1-12.38.73-24.61 3.79-37.09 3.01-1.35 0-2.7.02-4.04.06-3.39-.52-6.71-1.42-10.02-2.31-.73-.64-1.46-1.29-2.19-1.93.4-1.1.91-2.15 1.54-3.13 8.43 6.81 20.39 5.74 30.43 4.07 10.83.03 21.51-2.12 32.33-2.2-.36-2.29-2.62-3.39-4.31-4.61-3.24-2.2-6.99-3.4-10.72-4.44-3.36-1.86-6.98-3.27-10.84-3.54-7.75-2.01-15.61-3.4-23.61-3.86-1.42-3.09-1.49-6.47-1.23-9.78.24-1.46-1.02-2.44-1.68-3.56l.11-.65c.72-.11 2.16-.34 2.88-.46m.21 3.2c-.73 1.62-.43 3.46-.15 5.15-.37 1.96.23 4.39 2.22 5.25 2.16-1.83 3.27-4.77 2.48-7.54-.13-.76-.39-2.27-.52-3.02-1.32-.38-2.66-.33-4.03.16z" fill="#1f687d"/><path d="m69.48 358.96c.14-.42.43-1.26.57-1.68l.45.81c2.46 5.24 9.21 5.58 12.56 9.96-4.67-.26-9.19-1.61-13.84-2.08.37-2.32.39-4.67.26-7.01z" fill="#189ca6"/><path d="m142.39 358.73c.22-.21.66-.64.88-.86.89.21 1.77.47 2.63.77 2.98 2.89 5.55 6.33 9.11 8.54l.24-1.03c.26.18.79.56 1.05.75 1.69 3.24 2.15 7.23 4.91 9.84 1.12 1.11 2.37 2.11 3.61 3.1.17.26.51.79.68 1.05.2.66.4 1.32.59 1.99-1.18 3.57-2.48 7.52-5.99 9.47-7.25-1.4-11.48-8.21-17.04-12.43-3.31-3.31-9.01-4.91-9.54-10.22.58-1.01 1.17-1.99 1.79-2.96l.5-.32c3.41-2.16 7.26-5.35 11.42-2.97-1.4-1.77-3.02-3.37-4.84-4.72z" fill="#008cb2"/><path d="m101.99 372.23c-.5-4.53.51-9.04.85-13.55 3.46 2.06 5.51 5.52 6.93 9.18 1.52 7.26 5.66 13.56 8.09 20.5 1.59 3.91-2.26 6.91-4.04 9.96-12.89-10.03-29.54-12.98-45.29-15.28.09-1.1.21-2.19.36-3.27 9.59.86 18.64 4.56 27.66 7.71 1.76.49 4.03 1.16 5.47-.42 3.73-3.73 3.54-9.58 2.7-14.41-.91-.15-1.82-.29-2.73-.42z" fill="#1c9ca6"/><path d="m142.39 358.73c1.82 1.35 3.44 2.95 4.84 4.72-4.16-2.38-8.01.81-11.42 2.97.06-.56.17-1.7.23-2.26 2.45-1.39 4.5-3.32 6.35-5.43z" fill="#116a8c"/><path d="m172.24 369.64c5.53-1.49 7.81-7.26 11.56-10.98-.53 2.55-.94 5.16-.8 7.78l-.19.59c-2.1 2.21-4.54 4.02-6.94 5.88-.66 1.5-.81 3.17-1.24 4.75-.4-.14-1.22-.43-1.63-.57.29-.95.54-1.91.77-2.87-1.16-1.53-3.14-1.81-4.85-2.31.92-1.33 1.82-2.67 2.68-4.03.16.44.48 1.32.64 1.76z" fill="#6778cc"/><path d="m36.46 363.08c1.95 2.38 4.19 4.51 6.82 6.14.55.95 1.09 1.92 1.61 2.89-1.02 2.93-1.44 6.03-1.17 9.12-.58-1.6.17-4.52-1.67-5.14-.22 2.46-1.09 5.86 1.9 6.97.27.22.81.67 1.08.89-.23.44-.67 1.3-.89 1.73-.94 1.29-1.92 2.56-2.95 3.79-2.95 1.29-5.98 2.42-9.26 1.89-2.67-.95-4.63-2.99-6.12-5.33-.1-2.42-.14-4.85-.12-7.27.29-.46.86-1.39 1.14-1.85 2.3-1.29 3.42-3.61 4.1-6.05 1.95-2.51 3.98-4.99 5.53-7.78z" fill="#018bb3"/><path d="m171.8 367.07c-.49-1.54-.11-3.24 1.31-4.13.4 1.52-.05 3.13-1.31 4.13z" fill="#368d75"/><path d="m127.77 369.75c2.1-2.68 5.29-4.12 8.27-5.59-.06.56-.17 1.7-.23 2.26l-.5.32c-4.04.34-6.69 4.29-6.84 8.12.57.78 1.34 1.39 2.1 1.99.37-1.04.72-2.08 1.06-3.12.07 1.8.19 3.61.33 5.42-2.09-1.47-4.59-.78-6.92-.59.75-.89 1.4-1.85 1.95-2.87.33-1.96-.13-4.14.78-5.94z" fill="#54758c"/><path d="m128.47 374.86c.15-3.83 2.8-7.78 6.84-8.12-.62.97-1.21 1.95-1.79 2.96-.75 1.27-1.45 2.6-1.89 4.03-.34 1.04-.69 2.08-1.06 3.12-.76-.6-1.53-1.21-2.1-1.99z" fill="#e2f2fb"/><path d="m32.07 515.07c1.84.96 3.51 2.2 5.28 3.28 1.55.93 3.29 1.45 4.98 2.06-2.17.22-4.37.34-6.52-.12-1.47-1.07-2.83-2.27-4.15-3.51.1-.42.31-1.28.41-1.71z" fill="#e2f2fb"/><path d="m129 517.88c.24-.12.72-.36.95-.49.47 3.4 2.26 6.22 4.82 8.45-2.29.69-4.6 1.33-6.85 2.14-5.23.85-10.56.81-15.83.49-8.27-.8-16.19-3.46-24.23-5.4l-.73-.35c-1.4-.87-2.82-1.73-4.09-2.79.1-.51.29-1.52.38-2.03 6.53 4.81 14.66 6.55 22.51 7.81 1.9.29 3.81.41 5.73.49 6.25.84 14.61 1.24 17.97-5.32-.15-1.02-.36-2.02-.63-3z" fill="#e2f2fb"/><path d="m156.3 366.9c1.36 1.06 3.51 1.71 3.75 3.68.63 1.69.34 4.11 2.21 5.03 3.67-.25 7.4-.36 10.74 1.48.41.14 1.23.43 1.63.57.43-1.58.58-3.25 1.24-4.75 2.4-1.86 4.84-3.67 6.94-5.88-.32 3.67-3.9 5.15-6.11 7.54-1.19 2.6-2.05 5.35-3.51 7.82-.98.45-1.98.87-2.99 1.27 3.49 4.83 9.76 8.07 10.79 14.37-.83 4.5-1.82 9.36-5.03 12.83 1.45-4.71 3.26-9.44 3.57-14.39-3-5.67-7.98-10.28-13.44-13.59-.19-.67-.39-1.33-.59-1.99.98.29 3.14 1.87 3.56.15-.34-2.09-2.8-1.87-4.24-1.2-1.24-.99-2.49-1.99-3.61-3.1-2.76-2.61-3.22-6.6-4.91-9.84m7.65 9.98.03 1.04c3.06.05 5.76 1.24 8.17 3.05-.1-.63-.3-1.88-.4-2.5-2.31-1.46-5.09-2.22-7.8-1.59z" fill="#495d80" opacity=".9"/><path d="m109.77 367.86c2.62 3.26 3.54 7.42 5.3 11.14 1.68 3.87 4.02 7.66 4.22 11.99-.18 3.51-2.58 6.48-5.44 8.32l-.03-.99c1.78-3.05 5.63-6.05 4.04-9.96-2.43-6.94-6.57-13.24-8.09-20.5z" fill="#405c67" opacity=".8"/><path d="m57.07 376.22c.81-1.78 1.77-3.48 2.67-5.21.66 1.12 1.92 2.1 1.68 3.56-.26 3.31-.19 6.69 1.23 9.78-.36-.04-1.1-.11-1.47-.14-2.26-2.12-4.73-4.59-4.11-7.99z" fill="#cddfef"/><path d="m62.94 373.1c1.37-.49 2.71-.54 4.03-.16.13.75.39 2.26.52 3.02-.55 2.19-2.97 1.86-4.7 2.29-.28-1.69-.58-3.53.15-5.15z" fill="#f3fafd"/><path d="m118.62 376.86c2.72-.79 5.54-1.13 8.37-1.17-.55 1.02-1.2 1.98-1.95 2.87-1.71.14-3.45.23-5.15-.08-.32-.4-.95-1.22-1.27-1.62z" fill="#c4dee8"/><path d="m42.05 376.09c1.84.62 1.09 3.54 1.67 5.14.06.46.17 1.37.23 1.83-2.99-1.11-2.12-4.51-1.9-6.97z" fill="#02506e"/><path d="m67.49 375.96c.79 2.77-.32 5.71-2.48 7.54-1.99-.86-2.59-3.29-2.22-5.25 1.73-.43 4.15-.1 4.7-2.29z" fill="#c5d6e2"/><path d="m163.95 376.88c2.71-.63 5.49.13 7.8 1.59.1.62.3 1.87.4 2.5-2.41-1.81-5.11-3-8.17-3.05z" fill="#7d9ee7"/><path d="m21.77 387.58c1.03-3.05 2.12-6.12 3.92-8.82-.02 2.42.02 4.85.12 7.27-.66-.68-1.36-1.34-2.07-1.97.13 3.3 2.8 5.57 4.27 8.32-2.14-1.52-4.12-3.25-6.24-4.8z" fill="#6e7f88" opacity=".91"/><path d="m164.82 379.84c1.44-.67 3.9-.89 4.24 1.2-.42 1.72-2.58.14-3.56-.15-.17-.26-.51-.79-.68-1.05z" fill="#bddeef"/><path d="m67.03 477.06c3.41-.06 7.07-2.27 10.25-.29-.29.52-.86 1.57-1.15 2.09-3.23.45-6.55.57-9.68 1.56-1.06.31-2.51 1.23-2.2 2.52.61 4.32 2.48 8.36 4.27 12.3.36 1.52.8 3.02 1.07 4.56-.35.19-1.05.57-1.4.76-2.21-8.09-6.35-15.49-10.57-22.68 2.71-1.47 6.35-.08 9.41-.82z" fill="#bddeef"/><path d="m135.7 382.19c1.58-.63 3.18.47 3.13 2.18-1.36-.17-2.53-.94-3.13-2.18z" fill="#4e6478" opacity=".81"/><path d="m23.74 384.06c.71.63 1.41 1.29 2.07 1.97 1.49 2.34 3.45 4.38 6.12 5.33.28.42.85 1.27 1.14 1.69-1.57-.27-3.12-.6-4.69-.83 1.59 3.2 6.09 2.5 9.01 3.79 1.09 6.57-1.53 13.99-7.48 17.37-3.45-2.38 2.1-6.53.38-9.66-2.63-1.86-5.72.03-7.92 1.65-2.41 1.61-3.97 4.1-5.31 6.6-.99-1.6-2.16-3.08-3.36-4.52.92-3.04 2.98-5.54 4.68-8.17 3.42-2.98 3.28-7.56 3.39-11.7 2.12 1.55 4.1 3.28 6.24 4.8-1.47-2.75-4.14-5.02-4.27-8.32z" fill="#fdfcdc"/><path d="m44.14 385.68c.22-.43.66-1.29.89-1.73 1.4 1.16 2.67 2.49 3.87 3.86-1.59 4.02-1.13 8.54-3.08 12.46l-.82-.33c.96-3.81 2.39-7.68 1.92-11.67-.31-1.39-1.73-1.9-2.78-2.59z" fill="#2c4754" opacity=".76"/><path d="m61.18 384.21c.37.03 1.11.1 1.47.14 8 .46 15.86 1.85 23.61 3.86-.71.94-1.3 2.16-2.63 2.32-6.39 1.56-12.88 2.73-19.36 3.91-4.33.7-9.38 1.19-13.08-1.66-1.04-1.52-1.61-3.29-2.29-4.97 3.38-1 6.7-2.16 10.08-3.15.55-.11 1.65-.34 2.2-.45z" fill="#51abdd"/><path d="m16.89 397.76c.91-3.7 2.72-7.07 4.88-10.18-.11 4.14.03 8.72-3.39 11.7-.37-.38-1.12-1.14-1.49-1.52z" fill="#949490" opacity=".96"/><path d="m45.82 400.27c1.95-3.92 1.49-8.44 3.08-12.46.68 1.68 1.25 3.45 2.29 4.97 3.7 2.85 8.75 2.36 13.08 1.66 6.48-1.18 12.97-2.35 19.36-3.91 1.33-.16 1.92-1.38 2.63-2.32 3.86.27 7.48 1.68 10.84 3.54-11.18-.16-22 2.7-32.97 4.42-5.31.98-10.7.28-16.05.01.41.92.85 1.84 1.29 2.75-.63.98-1.14 2.03-1.54 3.13-.67-.6-1.34-1.2-2.01-1.79z" fill="#357eaa"/><path d="m158.25 395.11c3.67-1.44 6.26-4.41 8.9-7.19-.66 3.56-3.56 5.85-6.04 8.19-2.69.4-5.4.6-8.09 1.02.02 4.66-.56 10.52 4.11 13.3 1.39-1.63 2.02-3.71 2.77-5.67 3.97.96 7.85 2.93 9.14 7.11-.61 1.42-.83 2.93-.49 4.46-.16.43-.48 1.29-.64 1.72 1.44-.15 2.87-.34 4.31-.52-1.87 1.01-4.19 1.71-4.86 3.98-1.24 3.13-4.41 5.8-7.94 5.2-2.61-2.02-4.13-5.74-2.78-8.91.72 2.37 1.39 4.84 2.86 6.88 2.23.52 4.46-.6 5.98-2.16.57-3.08.84-6.21 1.27-9.3.83-3.44-2.39-6.08-5.62-5.81-1.09 1.64-1.46 3.6-2.03 5.46-.61 1.09-1.26 2.17-1.89 3.26.11-1.33.08-2.65-.08-3.96-1.38-1.69-3.14-3.02-4.39-4.81-.8-3.79.45-8-1.55-11.5-1.79-2.58-4.19-4.66-6.26-7 2.51 1.04 4.41 3.02 6.54 4.63 2.45.57 4.97-.02 7.42-.29-.16.47-.48 1.43-.64 1.91z" fill="#5a7b8d"/><path d="m31.93 391.36c3.28.53 6.31-.6 9.26-1.89-.94 1.44-1.85 2.89-2.67 4.4-.39.71-.77 1.42-1.13 2.14-2.92-1.29-7.42-.59-9.01-3.79 1.57.23 3.12.56 4.69.83-.29-.42-.86-1.27-1.14-1.69z" fill="#8198a9"/><path d="m64.13 396.17c10.97-1.72 21.79-4.58 32.97-4.42-.89 2.51-1.51 5.13-2.65 7.56-4.77 1.61-9.78 2.4-14.65 3.69-10.04 1.67-22 2.74-30.43-4.07-.44-.91-.88-1.83-1.29-2.75 5.35.27 10.74.97 16.05-.01z" fill="#51abdc"/><path d="m97.1 391.75c3.73 1.04 7.48 2.24 10.72 4.44 1.69 1.22 3.95 2.32 4.31 4.61-10.82.08-21.5 2.23-32.33 2.2 4.87-1.29 9.88-2.08 14.65-3.69 1.14-2.43 1.76-5.05 2.65-7.56z" fill="#3e91bd"/><path d="m37.39 396.01c.36-.72.74-1.43 1.13-2.14.03 3.19.99 6.48-.06 9.61-1.11 3.51-2.96 6.82-5.49 9.5-.97.97-2.09 2.21-3.62 1.77-.86-.83-1.59-1.8-2.09-2.88.53-2.72 2.51-5.17 1.96-8.02-1.45-.5-2.6-.15-3.44 1.05.09 1.65 1.58 3.55.22 5-.29-1.29-.62-2.57-1.06-3.8-1.01.18-1.93.55-2.79 1.11.01.66.01 1.98.02 2.64.79.17 2.37.49 3.16.65-1.33 1.17-2.68 2.34-3.83 3.7-.14-1.77-.31-3.53-.54-5.28-1.43 1.88-2.68 3.89-3.63 6.05.86.46 1.74.88 2.63 1.28-3.24.31-6.37 1.3-9.62 1.53-.28-7.31 3.88-13.54 6.55-20.02.37.38 1.12 1.14 1.49 1.52-1.7 2.63-3.76 5.13-4.68 8.17-1.02 3.12-1.95 6.27-2.49 9.51 2.72-.56 4.77-2.48 5.85-4.99 1.34-2.5 2.9-4.99 5.31-6.6 2.2-1.62 5.29-3.51 7.92-1.65 1.72 3.13-3.83 7.28-.38 9.66 5.95-3.38 8.57-10.8 7.48-17.37z" fill="#717676" opacity=".83"/><path d="m153.02 397.13c2.69-.42 5.4-.62 8.09-1.02-.43 2.88-.82 5.77-1.21 8.65-.75 1.96-1.38 4.04-2.77 5.67-4.67-2.78-4.09-8.64-4.11-13.3z" fill="#e4dcb2"/><path d="m135.95 430.07c2.69 2.3 5.41 4.58 7.83 7.18-2.98-1.96-6.08-3.95-7.83-7.18z" fill="#e4dcb2"/><path d="m34.22 417.09c3.99-5.15 7.35-10.7 10.55-16.36 1.58 5.73.37 12.25-2.56 17.32-.23-1.34-.45-2.67-.67-4-3.85 3.24-5.3 8.26-8.27 12.18-1.13-1.17-2.31-2.3-3.61-3.29.71 3.02 2.66 5.49 4.23 8.1-2.04-2.18-5.14-4.46-4.69-7.81.86-1.68 2.24-2.99 3.48-4.38.39-.44 1.16-1.32 1.54-1.76z" fill="#1c9da8"/><path d="m64.08 406.24c12.48.78 24.71-2.28 37.09-3.01-8.43 2.74-15.88 7.65-24.11 10.86-2.89 1.37-6.84 2.33-7.43 6.04-1.23-3.16-2.52-6.3-3.78-9.44-.54-1.51-1.13-2.99-1.77-4.45z" fill="#1b9da9"/><path d="m103.71 403.13c3.43-.13 7-.6 10.3.65 1.39 6.27 7.53 9.75 10.41 15.24-2.76 1.03-5.63 1.74-8.52 2.3 1.1-1.08 2.32-2 3.56-2.9-5.6-4.68-11.93-8.9-15.75-15.29z" fill="#1a9ba3"/><path d="m113.97 402.84c5.78 7.31 11.16 14.96 17.43 21.88-.55-.19-1.64-.56-2.19-.75-1.6-1.65-3.19-3.3-4.79-4.95-2.88-5.49-9.02-8.97-10.41-15.24z" fill="#394e57" opacity=".85"/><path d="m50.02 403.99c3.31.89 6.63 1.79 10.02 2.31-.64 2.18-1.24 4.37-1.75 6.59-2.36 7.68-6.22 14.85-10.43 21.66-.65-.96-.73-1.93-.26-2.91 1.72-3.93 4.66-7.4 5.39-11.71-.04-5.44-1.92-10.65-2.97-15.94z" fill="#1b9ca8"/><path d="m22.15 407.21c.86-.56 1.78-.93 2.79-1.11.44 1.23.77 2.51 1.06 3.8l-.67.6c-.79-.16-2.37-.48-3.16-.65-.01-.66-.01-1.98-.02-2.64z" fill="#dfdfb5"/><path d="m60.04 406.3c1.34-.04 2.69-.06 4.04-.06.64 1.46 1.23 2.94 1.77 4.45-.28.52-.82 1.55-1.1 2.06-1.15 3.74 1.71 7.48 2.34 11.18-2.34-1.82-4.78-3.51-7.19-5.23.39-2.19.73-4.39.98-6.59-.59.98-1.16 1.98-1.71 2.99-.22-.55-.66-1.66-.88-2.21.51-2.22 1.11-4.41 1.75-6.59z" fill="#95c3d2"/><path d="m161.13 407.41c3.23-.27 6.45 2.37 5.62 5.81-2.54-.19-5.09-.61-7.65-.35.57-1.86.94-3.82 2.03-5.46z" fill="#6c9fdd"/><path d="m11.21 416.96c.54-3.24 1.47-6.39 2.49-9.51 1.2 1.44 2.37 2.92 3.36 4.52-1.08 2.51-3.13 4.43-5.85 4.99z" fill="#f4f2cb"/><path d="m64.75 412.75c.28-.51.82-1.54 1.1-2.06 1.26 3.14 2.55 6.28 3.78 9.44 1.23 3.4 2.52 6.79 4.1 10.05.96 2.34 1.57 4.91 3.19 6.92 1.41 1.34 3.57.91 5.31.6 6.95-1.25 12.97-5.12 19.14-8.35 4.63-3.07 9.79-5.17 14.53-8.03 2.89-.56 5.76-1.27 8.52-2.3 1.6 1.65 3.19 3.3 4.79 4.95-.46.63-.91 1.26-1.36 1.91-1.03-1.37-1.71-3.8-3.81-3.7-2.32.24-4.58.95-6.72 1.86.09 2.4.49 4.78.91 7.14.35 2.06.87 4.09 1.52 6.08l.23.74c.42 2.24.87 4.47 1.52 6.66-.32.22-.96.65-1.28.87-2.07-6.38-3.08-13.03-4.31-19.6l-.17-.81c-3.51 1.06-6.49 3.25-9.66 5.01-8.52 5.05-17.67 9.04-27.13 11.95-1.83.75-2.53-1.61-3.35-2.72-4.54-8.45-7.61-17.6-10.85-26.61z" fill="#fcfdfe"/><path d="m159.1 412.87c2.56-.26 5.11.16 7.65.35-.43 3.09-.7 6.22-1.27 9.3-1.52 1.56-3.75 2.68-5.98 2.16-1.47-2.04-2.14-4.51-2.86-6.88.14-.42.43-1.25.57-1.67.63-1.09 1.28-2.17 1.89-3.26z" fill="#6f95e8"/><path d="m63.02 502.85 1.92-.72c3.01-.06 6.01-.22 9.02-.14-.05.39-.16 1.17-.21 1.56-2.96.15-5.9.62-8.84.91-.67-.5-1.27-1.08-1.89-1.61z" fill="#6f95e8"/><path d="m169.04 411.87c1.99.09 3.97.16 5.96.2l.08.75c-2.06 1.37-4.24 2.55-6.53 3.51-.34-1.53-.12-3.04.49-4.46z" fill="#d9d0a8"/><path d="m168.55 416.33c2.29-.96 4.47-2.14 6.53-3.51.93 2.25-.89 3.98-2.86 4.71-1.44.18-2.87.37-4.31.52.16-.43.48-1.29.64-1.72z" fill="#202325" opacity=".27"/><path d="m32.68 418.85c.39-.44 1.16-1.32 1.54-1.76-.38.44-1.15 1.32-1.54 1.76z" fill="#4a404c" opacity=".68"/><path d="m117.32 424.04c2.14-.91 4.4-1.62 6.72-1.86 2.1-.1 2.78 2.33 3.81 3.7.01 1.69.03 3.57-1.36 4.79-2.48.08-4.35 1.86-6.41 3-.13-1.13-.26-2.25-.38-3.37-.37.22-1.1.66-1.47.88-.42-2.36-.82-4.74-.91-7.14z" fill="#1d9ba8"/><path d="m129.21 423.97c.55.19 1.64.56 2.19.75 1.59 1.72 3.1 3.5 4.55 5.35 1.75 3.23 4.85 5.22 7.83 7.18.63.6 1.27 1.2 1.9 1.8.05 1.44.8 2.16 2.24 2.16l1.04.88c.73 1.24 1.41 2.5 2.11 3.77 2.9 4.91 4.57 10.5 7.9 15.14 1.58 3.45 3 7.06 3.32 10.87-1.85 1.81-4.67 2.18-6.73 3.75-3.56 2.61-6.51 5.93-9.91 8.73-1.27-6.12-3.66-11.98-6.91-17.31-1.9 2.03-.84 5.49-2.37 7.83-1.42 2.22-1.54 4.94-2.29 7.42-.17-3.96-.78-7.95-2.8-11.42.87-1.85 2.4-3.66 1.92-5.83-1.49-11.03-3.73-22.16-8.39-32.32.42-.52 1.26-1.54 1.68-2.05 1.39-1.22 1.37-3.1 1.36-4.79.45-.65.9-1.28 1.36-1.91z" fill="#4faadb"/><path d="m100.94 434.84c4.83-3.23 9.79-6.26 14.97-8.91 1.23 6.57 2.24 13.22 4.31 19.6.32-.22.96-.65 1.28-.87 2.34 5.84 4.8 11.92 4.82 18.29-1.41 3.77-3.29 7.56-6.24 10.37-1.94-1.83-3.5-4.07-5.69-5.6-2.43-.5-4.92-.45-7.38-.54 4.21-1.94 10.2.59 13.09-4.12 1.3-3.61-1.04-7.25-3.08-10.1-4.21-5.71-2.56-13.23-4.37-19.72-3.97-.87-7.9.68-11.71 1.6z" fill="#93c4dc"/><path d="m118.23 431.18c.37-.22 1.1-.66 1.47-.88.12 1.12.25 2.24.38 3.37 2.06-1.14 3.93-2.92 6.41-3-.42.51-1.26 1.53-1.68 2.05-1.82 1.36-3.52 2.87-5.06 4.54-.65-1.99-1.17-4.02-1.52-6.08z" fill="#14576e"/><path d="m119.75 437.26c1.54-1.67 3.24-3.18 5.06-4.54 4.66 10.16 6.9 21.29 8.39 32.32.48 2.17-1.05 3.98-1.92 5.83-.61-.14-1.84-.41-2.46-.55-.14-.24-.42-.73-.56-.98.77-.64 1.29-1.4 1.56-2.31-2.61-9.86-5.19-19.93-9.84-29.03z" fill="#3e91c0"/><path d="m60.08 434.8c4.8 1.81 9.63 3.61 14.22 5.92 1.22 1.08 2.4 2.23 3.84 3.01 3.32-.95 6.42-2.58 9.87-3.08-2.41 3.29-6.19 5.08-9.23 7.69-3.46-1.25-6.39-3.59-9.85-4.82-3.56-2.2-6.31-5.46-8.85-8.72z" fill="#93c4d9"/><path d="m38.79 435.99c1.58-.44 3.02.66 3.11 2.28-1.43-.07-2.65-.92-3.11-2.28z" fill="#7a8e95" opacity=".86"/><path d="m48.4 442.2c1.35-.99 2.47-2.26 3.63-3.45.17 2.24.23 4.56-.75 6.65-1.91.64-3.69-.7-5.49-1.13.65 7.2.86 14.42.27 21.64-.08 1.42-.15 2.85-.2 4.29-.75-1.62-1.61-3.34-1.03-5.15 1.71-7.6.52-15.37.25-23.04 1.1.08 2.21.25 3.32.19z" fill="#8fbdd6"/><path d="m145.68 439.05c1.36.08 2.11.8 2.24 2.16-1.44 0-2.19-.72-2.24-2.16z" fill="#545958" opacity=".76"/><path d="m148.96 442.09c2.48 1.86 4.78 4.05 6.03 6.95-1.31-1.07-2.64-2.1-3.92-3.18-.7-1.27-1.38-2.53-2.11-3.77z" fill="#405e67" opacity=".77"/><path d="m72.23 445.78c2.1 1.34 4.27 2.62 6.09 4.33.92 7.91-.4 15.88-1.51 23.69-6.89 2.72-14.57 3.01-21.89 2.36-3.77-.36-7.56-2.31-9.06-5.96.05-1.44.12-2.87.2-4.29 6.21 2.69 11.64 8.51 18.94 7.39 3.17-.4 7.56-1.74 7.46-5.67.37-7.26 1.54-14.67-.23-21.85z" fill="#94c5dd"/><path d="m127.03 463.84c.99 1 1.91 2.08 2.79 3.19-.27.91-.79 1.67-1.56 2.31-.4-.66-1.19-1.98-1.58-2.64.09-.72.26-2.14.35-2.86z" fill="#94c5dd"/><path d="m157.84 455c6.57 3.39 12.77 7.48 19.17 11.18-6.29-1.39-11.28-5.65-16.95-8.43.96 3.84 2.14 7.68 4.07 11.17-.02 1.59-.02 3.19-.22 4.79-2.87.48-5.82 1.11-8 3.2-3.84 3.34-8.04 6.54-10.8 10.87 1.08 1.56 2.33 2.98 3.59 4.4-1.8-1.11-3.53-2.36-5.48-3.17-1.94 1.6-3.74 3.51-6.26 4.19 2.92-2.93 5.94-5.75 8.69-8.85 3.4-2.8 6.35-6.12 9.91-8.73 2.06-1.57 4.88-1.94 6.73-3.75-.32-3.81-1.74-7.42-3.32-10.87-.41-2-.76-4-1.13-6z" fill="#416c7e" opacity=".94"/><path d="m160.06 457.75c5.67 2.78 10.66 7.04 16.95 8.43 1.42.67 2.83 1.35 4.2 2.13-2.49 1.71-5.28 2.91-7.93 4.32-2.02-.28-3.55 1.11-5.2 2-1.1-2.06-1.76-4.52-3.95-5.71-1.93-3.49-3.11-7.33-4.07-11.17z" fill="#59b6da"/><path d="m136.37 474.87c1.53-2.34.47-5.8 2.37-7.83 3.25 5.33 5.64 11.19 6.91 17.31-2.75 3.1-5.77 5.92-8.69 8.85l-.8.28c-3.67-2.48-2.07-7.48-2.08-11.19.75-2.48.87-5.2 2.29-7.42z" fill="#3e92c0"/><path d="m104.11 469.64c2.55-.79 5.11-1.99 7.83-1.91 3.73.59 5.73 4.36 7.42 7.35-.09.37-.26 1.09-.35 1.46-1.59-.38-3.06-1.57-4.73-1.34-2.96 1.35-3.16 4.99-3.48 7.79-.41 6.46-1.26 12.9-1.23 19.38-.33-.23-.99-.7-1.32-.94-.05-.63-.15-1.9-.2-2.53.55-6.07.38-12.16.13-18.23-.04-2.21.56-4.96-1.54-6.46-2.42-.18-4.46 1.48-6.52 2.51-5.29 3.3-11.01 6.39-14.67 11.62-.3-1.07-.56-2.15-.76-3.22 5.45-6.29 11.86-11.87 19.42-15.48z" fill="#e4f5fb"/><path d="m96.24 472.26c2.17-1.09 4.35-2.18 6.59-3.14l1.28.52c-7.56 3.61-13.97 9.19-19.42 15.48.2 1.07.46 2.15.76 3.22.67 6.35-.11 12.71-.06 19.07-.04 3.59-1.24 7.01-1.97 10.49-.09.51-.28 1.52-.38 2.03 1.27 1.06 2.69 1.92 4.09 2.79-3.59-1.31-7.42-1.58-11.2-1.21 1.95-.78 3.81-1.89 5.02-3.65-.07-7.09 2.92-13.72 3.03-20.79.26-4.8.87-11.25-3.91-14.12-4-3.22-9.52-2.12-14.02-.77-.67 4.57 3.17 8.51 2.47 13.06-1.79-3.94-3.66-7.98-4.27-12.3-.31-1.29 1.14-2.21 2.2-2.52 3.13-.99 6.45-1.11 9.68-1.56 2.88 1.04 4.94 3.42 7.62 4.8 4-3.97 8.17-7.76 12.49-11.4z" fill="#32496f"/><path d="m164.13 468.92c2.19 1.19 2.85 3.65 3.95 5.71 1.65-.89 3.18-2.28 5.2-2-1.17 2.04-2.37 4.05-3.58 6.07-4.15 5.62-5.59 13.98-12.82 16.8-2.39-.69-4.66-1.73-7-2.54-.3-.2-.89-.59-1.18-.78-1.26-1.42-2.51-2.84-3.59-4.4 2.76-4.33 6.96-7.53 10.8-10.87 2.18-2.09 5.13-2.72 8-3.2.2-1.6.2-3.2.22-4.79z" fill="#66c1e2"/><path d="m128.82 470.32c.62.14 1.85.41 2.46.55 2.02 3.47 2.63 7.46 2.8 11.42.01 3.71-1.59 8.71 2.08 11.19-.5.11-1.52.33-2.03.44-.21-.3-.64-.89-.86-1.19-.37-7.59.18-15.89-4.45-22.41z" fill="#455256" opacity=".84"/><path d="m77.28 476.77c.46-2.01.66-4.06.98-6.08.19 1.77.4 3.54.8 5.29 6.04 2.16 11.11-3.9 17.18-3.72-4.32 3.64-8.49 7.43-12.49 11.4-2.68-1.38-4.74-3.76-7.62-4.8.29-.52.86-1.57 1.15-2.09z" fill="#90c2d7"/><path d="m100.12 476.72c2.06-1.03 4.1-2.69 6.52-2.51 2.1 1.5 1.5 4.25 1.54 6.46-.39.45-1.18 1.34-1.58 1.79-.27 2.54.33 5.18-.53 7.66-1.37 4.67-4.39 8.54-7 12.55 2.56-.32 5.14-.53 7.7-.88.49-.94.92-1.9 1.28-2.89.05.63.15 1.9.2 2.53.33.24.99.71 1.32.94 2.19 1.47 4.83 1.97 7.35 2.59 6.85 2.05 12.19 7.45 15.36 13.73 1.16 2.6 3.71 4.87 3.47 7.9-1.45.69-2.99 1.15-4.53 1.58-.83-.05-2.47-.15-3.3-.19 2.25-.81 4.56-1.45 6.85-2.14-2.56-2.23-4.35-5.05-4.82-8.45-.23.13-.71.37-.95.49-.58-.55-1.16-1.08-1.74-1.6-.32 1.9.7 4.5-1.3 5.72-4.23 2.84-9.52 2.91-14.3 4.2-1.92-.08-3.83-.2-5.73-.49.19-.38.58-1.14.77-1.52-5.43-1.35-11.05-2.37-16.07-4.94-2.84-12.25 1.67-24.61 3.98-36.59 2.25-1.91 5.06-3.02 7.36-4.87l-.21-.73c-.41-.08-1.23-.25-1.64-.34z" fill="#3c62a2"/><path d="m66.05 482.18c4.5-1.35 10.02-2.45 14.02.77 4.78 2.87 4.17 9.32 3.91 14.12-.11 7.07-3.1 13.7-3.03 20.79-6.23 2.97-13.22 2.67-19.93 3.14-6.24.42-12.46-.44-18.69-.59-1.69-.61-3.43-1.13-4.98-2.06-.39-1.12-.77-2.25-1.08-3.38 9.01-1.07 18.44-4.35 24.63-11.24l2.12-.88c.62.53 1.22 1.11 1.89 1.61 2.94-.29 5.88-.76 8.84-.91.05-.39.16-1.17.21-1.56-3.01-.08-6.01.08-9.02.14 1.1-.5 2.19-1.01 3.25-1.57l1.4-.76c-.27-1.54-.71-3.04-1.07-4.56.7-4.55-3.14-8.49-2.47-13.06z" fill="#3c62a2"/><path d="m85.45 488.34c3.66-5.23 9.38-8.32 14.67-11.62.41.09 1.23.26 1.64.34l.21.73c-2.3 1.85-5.11 2.96-7.36 4.87-2.31 11.98-6.82 24.34-3.98 36.59 5.02 2.57 10.64 3.59 16.07 4.94-.19.38-.58 1.14-.77 1.52-7.85-1.26-15.98-3-22.51-7.81.73-3.48 1.93-6.9 1.97-10.49-.05-6.36.73-12.72.06-19.07z" fill="#31548e"/><path d="m156.88 495.5c7.23-2.82 8.67-11.18 12.82-16.8-1.7 5.9-4.46 11.76-9.07 15.95-1.37 1.16-3.22 2.71-5.13 1.8-2.04-.88-3.81-2.25-5.62-3.49 2.34.81 4.61 1.85 7 2.54z" fill="#4c5c61" opacity=".76"/><path d="m39.01 513.25c8.12-.86 14.73-6.12 21.89-9.52-6.19 6.89-15.62 10.17-24.63 11.24.31 1.13.69 2.26 1.08 3.38-1.77-1.08-3.44-2.32-5.28-3.28-.1.43-.31 1.29-.41 1.71-.47-.77-.66-1.61-.58-2.5 2.28-1.65 5.32-.6 7.93-1.03z" fill="#364b70" opacity=".86"/><path d="m49.73 522.96c7.2-.14 14.38-.64 21.56-1.16-6.97 1.73-14.47 2.78-21.56 1.16z" fill="#2e343b" opacity=".48"/></svg>