<?xml version="1.0" encoding="UTF-8" ?>
<!DOCTYPE svg PUBLIC "-//W3C//DTD SVG 1.1//EN" "http://www.w3.org/Graphics/SVG/1.1/DTD/svg11.dtd">
<svg width="234pt" height="333pt" viewBox="0 0 234 333" version="1.1" xmlns="http://www.w3.org/2000/svg">
<g id="#825d45ff">
<path fill="#825d45" opacity="1.00" d=" M 8.50 6.79 C 8.84 3.37 11.59 0.47 15.09 0.35 C 21.22 -0.08 27.49 0.67 33.28 2.77 C 32.33 2.81 30.44 2.90 29.50 2.95 C 32.19 4.97 35.49 5.89 38.27 7.77 C 44.62 11.93 50.17 17.36 54.41 23.67 C 55.68 23.02 56.92 22.32 58.13 21.56 C 56.25 19.78 54.08 18.13 53.11 15.64 C 53.49 15.75 54.26 15.97 54.64 16.08 C 56.63 18.16 58.42 20.43 60.37 22.55 C 54.37 23.76 48.96 29.59 49.82 35.94 C 45.61 34.45 41.11 36.21 38.26 39.44 C 35.53 38.56 35.08 35.46 33.71 33.32 C 27.80 22.37 17.90 14.58 8.50 6.79 Z" />
<path fill="#825d45" opacity="1.00" d=" M 204.85 29.77 C 211.16 28.56 217.74 28.42 223.99 30.04 C 227.10 30.93 229.27 33.77 229.61 36.95 C 223.14 42.25 215.09 45.20 208.92 50.92 C 208.34 50.71 207.18 50.28 206.60 50.07 L 206.64 50.94 C 204.14 47.87 201.28 45.08 198.02 42.82 C 195.67 41.42 195.05 38.60 194.03 36.26 L 193.79 34.91 C 195.47 36.52 197.40 34.85 199.09 34.20 C 205.22 31.10 212.17 30.53 218.93 30.51 C 214.25 30.00 209.55 29.78 204.85 29.77 Z" />
<path fill="#825d45" opacity="1.00" d=" M 22.60 58.75 C 28.40 54.87 37.03 56.26 41.13 61.95 C 43.99 66.26 43.37 71.95 41.43 76.50 C 37.55 84.28 28.07 87.06 19.96 86.88 C 13.80 86.95 8.23 83.82 3.81 79.76 L 3.73 79.42 C 3.42 78.87 2.80 77.77 2.48 77.22 C 3.15 76.96 3.82 76.70 4.49 76.43 L 5.39 76.09 L 5.21 76.42 C 4.83 76.80 4.07 77.55 3.69 77.92 C 4.85 78.96 6.05 79.96 7.26 80.94 C 12.18 85.59 19.53 86.61 25.97 85.37 C 31.16 84.33 36.61 82.11 39.56 77.47 C 41.53 73.94 43.15 69.64 41.51 65.66 C 40.08 60.31 34.32 57.14 29.00 57.70 C 23.32 58.21 18.95 62.62 15.76 67.01 C 13.22 70.64 10.81 75.86 5.69 75.97 C 6.07 75.67 6.81 75.07 7.18 74.77 C 7.34 74.50 7.65 73.96 7.81 73.69 L 8.66 73.52 L 8.89 72.68 L 9.75 72.58 L 9.85 71.88 L 10.10 69.99 L 10.55 72.48 C 14.24 67.66 17.11 61.87 22.60 58.75 Z" />
<path fill="#825d45" opacity="1.00" d=" M 105.52 102.67 C 113.26 101.83 121.45 105.33 125.67 112.00 C 128.82 116.31 129.23 121.84 128.91 126.99 C 127.71 134.85 121.57 141.57 113.97 143.78 C 109.14 145.37 103.82 144.61 99.20 142.68 C 91.81 139.28 86.48 131.22 87.25 122.96 C 87.03 112.83 95.51 103.69 105.52 102.67 M 102.34 104.40 C 94.64 106.67 88.61 113.97 88.29 122.07 C 86.91 132.85 96.34 143.31 107.09 143.53 C 117.83 144.35 128.22 134.87 127.96 123.99 C 128.94 110.99 114.62 100.23 102.34 104.40 Z" />
</g>
<g id="#7e97a3ff">
<path fill="#7e97a3" opacity="1.00" d=" M 77.95 5.12 C 88.09 -0.83 100.35 2.51 110.63 6.15 C 120.52 2.38 132.34 -0.02 142.18 5.15 C 138.08 4.55 134.15 2.91 129.96 3.00 C 123.11 2.66 116.49 4.76 110.14 7.09 C 103.22 4.07 95.64 2.08 88.05 2.81 C 84.56 3.00 81.32 4.35 77.95 5.12 Z" />
<path fill="#7e97a3" opacity="1.00" d=" M 58.29 311.42 C 65.83 315.63 74.56 316.43 82.94 317.58 C 88.59 317.05 94.63 318.73 99.97 316.37 C 100.02 316.75 100.11 317.51 100.16 317.89 C 99.92 318.20 99.45 318.84 99.22 319.16 C 96.66 320.46 93.95 321.79 90.99 321.56 C 81.59 321.44 71.94 320.61 63.18 316.98 C 60.76 316.08 58.28 314.31 58.29 311.42 Z" />
</g>
<g id="#9d785ffe">
<path fill="#9d785f" opacity="1.00" d=" M 29.50 2.95 C 30.44 2.90 32.33 2.81 33.28 2.77 C 40.55 5.57 48.02 9.35 53.00 15.48 L 53.11 15.64 C 54.08 18.13 56.25 19.78 58.13 21.56 C 56.92 22.32 55.68 23.02 54.41 23.67 C 50.17 17.36 44.62 11.93 38.27 7.77 C 35.49 5.89 32.19 4.97 29.50 2.95 Z" />
<path fill="#9d785f" opacity="1.00" d=" M 158.91 124.89 C 161.36 118.78 167.04 113.03 174.05 113.29 C 180.22 113.34 185.34 118.32 187.07 124.00 C 188.78 128.60 187.99 133.51 187.33 138.21 C 185.69 144.07 181.60 149.61 175.66 151.57 C 170.93 152.47 165.39 151.96 162.25 147.84 C 160.31 145.23 157.22 141.84 158.50 138.48 C 159.89 142.35 161.60 146.47 165.09 148.91 C 168.99 151.88 174.78 151.56 178.67 148.73 C 187.62 142.40 189.89 128.38 183.46 119.53 C 180.37 115.16 174.23 113.18 169.25 115.27 C 165.57 116.86 162.86 119.99 160.67 123.24 L 160.93 124.81 C 160.55 125.91 160.12 126.99 159.68 128.06 C 157.74 128.05 158.41 125.90 158.91 124.89 Z" />
</g>
<g id="#f5faffff">
<path fill="#f5faff" opacity="1.00" d=" M 77.95 5.12 C 81.32 4.35 84.56 3.00 88.05 2.81 C 95.64 2.08 103.22 4.07 110.14 7.09 C 116.49 4.76 123.11 2.66 129.96 3.00 C 134.15 2.91 138.08 4.55 142.18 5.15 C 142.56 5.33 143.31 5.68 143.69 5.86 C 146.47 8.25 149.76 10.03 152.23 12.79 C 153.31 13.73 154.36 15.43 156.07 14.88 C 160.72 14.31 165.44 14.60 170.03 15.54 C 173.26 16.19 176.14 17.94 179.36 18.64 L 179.74 18.87 C 182.53 21.38 185.21 24.03 188.22 26.28 C 188.36 26.45 188.64 26.81 188.78 26.98 C 190.13 30.29 192.30 33.16 194.03 36.26 C 195.05 38.60 195.67 41.42 198.02 42.82 C 201.28 45.08 204.14 47.87 206.64 50.94 C 207.04 51.57 207.85 52.83 208.25 53.46 C 208.29 53.54 208.38 53.70 208.43 53.78 C 209.18 55.20 209.87 56.65 210.47 58.14 C 211.72 61.80 211.72 65.66 211.65 69.48 L 212.59 70.30 C 212.76 70.44 213.10 70.73 213.27 70.87 C 213.46 71.03 213.83 71.36 214.01 71.52 C 215.91 73.81 217.82 76.08 219.67 78.40 C 222.31 83.22 224.70 88.39 224.73 94.00 C 224.73 100.48 223.52 107.08 220.68 112.93 C 221.96 117.40 221.74 122.10 221.52 126.69 C 219.57 128.78 218.32 131.37 216.57 133.61 C 214.45 136.15 211.68 138.00 209.18 140.13 C 212.83 149.79 207.32 161.07 198.08 165.17 C 196.93 168.40 196.60 172.43 193.61 174.58 C 191.87 175.10 190.08 174.55 188.40 174.11 C 190.65 168.00 191.59 161.47 191.47 154.97 C 190.61 143.97 194.90 133.49 195.84 122.64 C 197.60 121.75 198.32 119.88 199.27 118.28 C 200.67 115.62 203.01 113.67 204.91 111.39 C 200.38 105.45 197.36 97.86 198.58 90.30 C 191.66 88.63 185.52 84.99 180.34 80.17 C 181.61 76.68 182.08 72.65 180.76 69.11 C 179.60 67.00 177.59 64.54 174.88 65.12 C 175.72 65.79 176.58 66.43 177.47 67.04 C 177.47 68.54 178.16 70.59 176.42 71.44 C 173.83 73.02 170.10 72.09 168.48 69.53 C 165.56 65.10 167.86 59.17 165.18 54.64 C 165.66 58.70 166.26 62.74 166.56 66.82 C 166.71 69.22 168.65 70.81 170.00 72.59 C 170.79 73.82 171.82 74.84 173.02 75.67 C 170.22 82.70 163.07 87.09 155.99 88.85 C 144.07 91.05 131.41 84.74 124.87 74.74 C 123.50 68.10 124.79 60.68 129.05 55.30 C 130.54 53.34 132.79 52.13 134.23 50.12 C 126.95 53.28 124.43 61.55 123.35 68.76 C 116.27 69.16 109.19 68.51 102.47 66.19 C 98.41 74.17 88.88 77.40 80.40 76.53 C 79.62 82.12 79.07 88.02 75.88 92.86 C 72.80 98.13 67.30 101.42 61.56 103.06 C 63.32 106.66 64.78 110.43 65.55 114.37 C 63.89 117.03 64.50 120.31 63.30 123.12 C 62.05 126.71 59.95 129.89 57.73 132.95 C 64.11 138.18 66.60 147.46 63.09 155.03 C 65.35 157.17 67.89 159.63 67.88 162.99 C 68.15 167.52 64.10 171.06 60.01 172.10 C 52.86 174.37 44.30 170.54 41.68 163.40 C 37.77 163.32 33.68 162.97 30.33 160.77 C 25.39 157.90 23.30 152.20 21.95 146.97 C 21.65 144.94 19.64 144.04 18.32 142.75 C 12.85 138.31 8.83 131.98 7.75 124.97 C 6.64 118.69 7.14 112.30 7.98 106.04 C 7.04 103.57 5.70 101.24 3.88 99.32 C 3.64 100.97 3.46 102.64 3.35 104.31 C 0.18 96.45 1.19 87.62 3.81 79.76 C 8.23 83.82 13.80 86.95 19.96 86.88 C 28.07 87.06 37.55 84.28 41.43 76.50 C 43.37 71.95 43.99 66.26 41.13 61.95 C 37.03 56.26 28.40 54.87 22.60 58.75 C 17.11 61.87 14.24 67.66 10.55 72.48 L 10.10 69.99 L 10.07 69.76 L 10.45 69.97 C 10.66 69.30 11.07 67.95 11.27 67.27 C 11.51 65.94 11.72 64.61 11.89 63.27 C 11.94 63.06 12.04 62.62 12.09 62.40 C 12.57 60.67 12.94 58.90 13.33 57.14 C 14.53 56.37 14.86 55.34 14.33 54.07 C 14.56 53.56 15.03 52.56 15.26 52.05 C 15.53 51.61 16.07 50.71 16.34 50.27 C 16.42 50.13 16.58 49.87 16.66 49.74 C 16.75 49.61 16.91 49.36 16.99 49.24 C 17.48 48.54 18.47 47.15 18.96 46.45 C 19.05 46.32 19.23 46.06 19.31 45.93 C 20.13 44.59 21.01 43.28 22.09 42.14 C 22.20 42.01 22.43 41.75 22.54 41.63 C 22.79 41.38 23.28 40.90 23.53 40.65 C 23.65 40.54 23.90 40.33 24.02 40.22 C 24.65 39.69 25.92 38.63 26.55 38.10 L 27.21 37.70 C 28.25 39.91 30.43 42.16 29.44 44.78 C 31.84 43.24 34.45 43.51 36.71 45.08 C 36.70 43.08 37.02 41.07 38.26 39.44 C 41.11 36.21 45.61 34.45 49.82 35.94 C 48.96 29.59 54.37 23.76 60.37 22.55 C 58.42 20.43 56.63 18.16 54.64 16.08 C 58.45 15.87 62.27 15.54 66.08 15.92 C 69.11 12.12 72.75 8.93 76.48 5.85 C 76.85 5.66 77.58 5.30 77.95 5.12 Z" />
<path fill="#f5faff" opacity="1.00" d=" M 8.89 72.68 C 9.13 72.48 9.61 72.08 9.85 71.88 L 9.75 72.58 L 8.89 72.68 Z" />
<path fill="#f5faff" opacity="1.00" d=" M 7.81 73.69 C 8.08 73.44 8.62 72.93 8.89 72.68 L 8.66 73.52 L 7.81 73.69 Z" />
<path fill="#f5faff" opacity="1.00" d=" M 7.18 74.77 C 7.34 74.50 7.65 73.96 7.81 73.69 C 7.65 73.96 7.34 74.50 7.18 74.77 Z" />
<path fill="#f5faff" opacity="1.00" d=" M 66.92 181.11 C 68.86 182.49 70.84 183.83 72.84 185.14 L 73.13 185.86 C 74.32 188.78 76.60 191.07 78.90 193.15 C 86.61 199.95 96.38 203.97 106.32 206.17 C 104.68 209.16 103.47 212.53 103.57 215.98 C 103.47 224.05 109.86 231.78 117.95 232.76 C 126.78 234.68 136.36 228.04 137.74 219.14 C 138.82 214.77 137.66 210.20 135.49 206.36 C 139.83 205.05 144.23 203.31 147.33 199.86 C 149.31 199.47 151.29 199.04 153.28 198.71 C 153.52 202.77 156.61 206.03 156.56 210.15 C 156.97 213.81 156.04 217.38 154.93 220.83 C 157.37 229.41 155.16 238.83 149.50 245.66 C 149.03 245.90 148.10 246.38 147.63 246.62 C 146.96 251.71 144.90 256.69 141.71 260.72 C 139.15 264.02 134.56 264.66 132.05 268.00 C 126.30 275.00 115.45 274.61 107.90 271.03 C 105.28 271.58 102.60 272.18 99.90 271.84 C 97.07 271.58 94.65 269.91 91.94 269.19 C 88.51 269.05 84.93 269.78 81.66 268.41 C 78.62 267.42 76.30 265.18 73.82 263.29 C 70.18 262.40 66.22 262.14 63.12 259.81 C 59.71 257.75 58.13 253.99 56.27 250.68 C 54.52 248.80 51.96 247.78 50.50 245.60 C 48.07 242.58 47.81 238.61 47.24 234.94 C 49.18 232.13 52.94 231.23 54.36 228.06 C 53.90 227.20 53.45 226.33 53.01 225.47 C 54.56 224.58 56.55 223.35 56.23 221.26 C 55.96 218.05 53.00 216.25 50.81 214.34 C 52.39 213.92 54.41 213.84 55.16 212.10 C 56.44 210.12 54.23 207.82 52.39 207.29 L 52.05 207.13 C 52.56 204.35 52.57 201.38 50.81 199.01 L 51.03 198.52 C 51.17 198.45 51.43 198.31 51.56 198.24 C 53.70 197.32 55.62 195.95 57.28 194.32 C 57.44 194.19 57.76 193.93 57.92 193.80 C 58.09 193.74 58.42 193.62 58.59 193.56 C 59.22 193.08 60.48 192.11 61.11 191.62 L 61.27 191.39 L 61.36 191.13 C 64.87 189.18 67.99 185.38 66.92 181.11 Z" />
</g>
<g id="#627884bb">
<path fill="#627884" opacity="0.73" d=" M 65.84 14.86 C 69.19 11.69 71.93 7.52 76.48 5.85 C 72.75 8.93 69.11 12.12 66.08 15.92 C 62.27 15.54 58.45 15.87 54.64 16.08 C 54.26 15.97 53.49 15.75 53.11 15.64 L 53.00 15.48 C 57.27 15.05 61.55 14.95 65.84 14.86 Z" />
</g>
<g id="#7e94a3d2">
<path fill="#7e94a3" opacity="0.82" d=" M 143.69 5.86 C 148.24 7.37 151.39 11.11 154.98 14.05 C 163.26 13.42 172.29 13.79 179.36 18.64 C 176.14 17.94 173.26 16.19 170.03 15.54 C 165.44 14.60 160.72 14.31 156.07 14.88 C 154.36 15.43 153.31 13.73 152.23 12.79 C 149.76 10.03 146.47 8.25 143.69 5.86 Z" />
</g>
<g id="#6a4835ff">
<path fill="#6a4835" opacity="1.00" d=" M 8.50 6.79 C 17.90 14.58 27.80 22.37 33.71 33.32 C 35.08 35.46 35.53 38.56 38.26 39.44 C 37.02 41.07 36.70 43.08 36.71 45.08 C 34.45 43.51 31.84 43.24 29.44 44.78 C 30.43 42.16 28.25 39.91 27.21 37.70 L 27.01 37.27 C 24.57 31.14 20.71 25.67 16.66 20.51 C 13.37 16.37 8.47 12.56 8.50 6.79 Z" />
<path fill="#6a4835" opacity="1.00" d=" M 208.92 50.92 C 215.09 45.20 223.14 42.25 229.61 36.95 C 228.98 41.97 224.76 45.20 221.12 48.17 C 217.69 50.86 214.77 54.11 211.66 57.14 C 211.36 57.39 210.77 57.89 210.47 58.14 C 209.87 56.65 209.18 55.20 208.43 53.78 C 208.38 53.70 208.29 53.54 208.25 53.46 C 207.85 52.83 207.04 51.57 206.64 50.94 L 206.60 50.07 C 207.18 50.28 208.34 50.71 208.92 50.92 Z" />
</g>
<g id="#728998ca">
<path fill="#728998" opacity="0.79" d=" M 179.74 18.87 C 183.19 20.50 186.13 23.09 188.22 26.28 C 185.21 24.03 182.53 21.38 179.74 18.87 Z" />
</g>
<g id="#7f96a4e1">
<path fill="#7f96a4" opacity="0.88" d=" M 188.78 26.98 C 190.63 28.92 192.12 31.17 193.30 33.57 C 193.42 33.90 193.67 34.57 193.79 34.91 L 194.03 36.26 C 192.30 33.16 190.13 30.29 188.78 26.98 Z" />
</g>
<g id="#553b24b0">
<path fill="#553b24" opacity="0.69" d=" M 196.74 31.99 C 199.09 30.86 201.61 30.13 204.21 29.88 C 201.86 31.04 199.34 31.73 196.74 31.99 Z" />
</g>
<g id="#9b745bfc">
<path fill="#9b745b" opacity="1.00" d=" M 204.21 29.88 L 204.85 29.77 C 209.55 29.78 214.25 30.00 218.93 30.51 C 212.17 30.53 205.22 31.10 199.09 34.20 C 197.40 34.85 195.47 36.52 193.79 34.91 C 193.67 34.57 193.42 33.90 193.30 33.57 C 194.43 33.02 195.58 32.49 196.74 31.99 C 199.34 31.73 201.86 31.04 204.21 29.88 Z" />
</g>
<g id="#627784aa">
<path fill="#627784" opacity="0.67" d=" M 25.84 38.15 C 25.99 38.04 26.28 37.81 26.43 37.69 L 26.55 38.10 L 25.84 38.15 Z" />
<path fill="#627784" opacity="0.67" d=" M 23.53 40.65 C 23.65 40.54 23.90 40.33 24.02 40.22 C 23.90 40.33 23.65 40.54 23.53 40.65 Z" />
<path fill="#627784" opacity="0.67" d=" M 22.54 41.63 C 22.79 41.38 23.28 40.90 23.53 40.65 C 23.28 40.90 22.79 41.38 22.54 41.63 Z" />
<path fill="#627784" opacity="0.67" d=" M 22.09 42.14 C 22.20 42.01 22.43 41.75 22.54 41.63 C 22.43 41.75 22.20 42.01 22.09 42.14 Z" />
</g>
<g id="#044672ff">
<path fill="#044672" opacity="1.00" d=" M 26.43 37.69 L 27.01 37.27 L 27.21 37.70 L 26.55 38.10 L 26.43 37.69 Z" />
<path fill="#044672" opacity="1.00" d=" M 15.26 52.05 C 17.19 46.48 21.17 41.68 25.84 38.15 L 26.55 38.10 C 25.92 38.63 24.65 39.69 24.02 40.22 C 23.90 40.33 23.65 40.54 23.53 40.65 C 23.28 40.90 22.79 41.38 22.54 41.63 C 22.43 41.75 22.20 42.01 22.09 42.14 C 21.01 43.28 20.13 44.59 19.31 45.93 C 19.23 46.06 19.05 46.32 18.96 46.45 C 18.47 47.15 17.48 48.54 16.99 49.24 C 16.91 49.36 16.75 49.61 16.66 49.74 C 16.58 49.87 16.42 50.13 16.34 50.27 C 16.07 50.71 15.53 51.61 15.26 52.05 Z" />
<path fill="#044672" opacity="1.00" d=" M 123.35 68.76 C 124.43 61.55 126.95 53.28 134.23 50.12 C 132.79 52.13 130.54 53.34 129.05 55.30 C 124.79 60.68 123.50 68.10 124.87 74.74 C 125.77 81.12 130.40 86.11 135.39 89.78 C 148.47 99.52 169.23 95.84 178.38 82.39 C 181.07 78.40 181.40 73.15 179.97 68.64 L 178.40 67.78 C 178.53 69.53 178.31 71.55 176.50 72.34 C 174.39 72.97 172.16 72.54 170.00 72.59 C 168.65 70.81 166.71 69.22 166.56 66.82 C 166.26 62.74 165.66 58.70 165.18 54.64 C 167.86 59.17 165.56 65.10 168.48 69.53 C 170.10 72.09 173.83 73.02 176.42 71.44 C 178.16 70.59 177.47 68.54 177.47 67.04 C 176.58 66.43 175.72 65.79 174.88 65.12 C 177.59 64.54 179.60 67.00 180.76 69.11 C 182.08 72.65 181.61 76.68 180.34 80.17 C 180.00 80.92 179.32 82.42 178.98 83.17 C 182.04 87.96 187.25 91.46 193.03 91.58 C 194.05 91.80 195.44 91.39 196.08 92.47 C 194.31 92.43 192.55 92.35 190.79 92.32 C 192.38 99.02 195.51 105.86 201.46 109.75 C 201.52 110.01 201.64 110.54 201.70 110.81 C 200.11 109.57 198.50 108.35 196.90 107.13 C 196.80 106.98 196.60 106.69 196.50 106.54 C 193.37 102.18 191.04 97.26 190.13 91.94 C 185.44 90.78 181.01 88.09 178.75 83.69 C 172.53 90.77 163.67 95.91 154.01 95.70 C 140.12 96.97 125.18 86.63 123.63 72.32 C 123.64 71.61 123.67 70.19 123.68 69.48 C 119.74 69.52 115.79 69.72 111.87 69.32 C 108.88 68.98 106.12 67.64 103.18 67.13 C 101.33 68.64 100.34 71.02 98.37 72.45 C 93.47 76.50 86.88 77.26 80.76 77.52 C 80.50 85.74 77.67 94.71 70.65 99.60 C 68.35 101.35 65.64 102.39 62.91 103.23 C 64.90 109.33 67.44 115.47 66.56 122.06 C 66.13 125.77 64.58 129.38 62.21 132.27 C 69.07 138.52 71.44 148.12 70.30 157.11 C 72.64 159.61 75.76 161.88 76.31 165.49 C 77.29 171.80 73.22 178.24 67.29 180.42 C 66.77 180.55 65.73 180.80 65.20 180.93 C 59.72 182.07 54.19 181.05 48.78 180.39 C 48.40 179.97 47.66 179.13 47.29 178.71 C 52.93 180.79 59.03 181.15 64.97 180.41 C 72.20 179.13 77.49 171.24 75.29 164.09 C 73.97 161.38 71.54 159.48 69.56 157.26 C 70.79 148.35 68.63 138.46 61.29 132.64 C 65.43 127.61 67.02 120.71 65.55 114.37 C 64.78 110.43 63.32 106.66 61.56 103.06 C 67.30 101.42 72.80 98.13 75.88 92.86 C 79.07 88.02 79.62 82.12 80.40 76.53 C 88.88 77.40 98.41 74.17 102.47 66.19 C 109.19 68.51 116.27 69.16 123.35 68.76 Z" />
<path fill="#044672" opacity="1.00" d=" M 14.33 54.07 C 14.56 53.56 15.03 52.56 15.26 52.05 C 15.03 52.56 14.56 53.56 14.33 54.07 Z" />
<path fill="#044672" opacity="1.00" d=" M 13.33 57.14 C 12.82 55.80 13.15 54.77 14.33 54.07 C 14.86 55.34 14.53 56.37 13.33 57.14 Z" />
<path fill="#044672" opacity="1.00" d=" M 11.20 62.47 C 11.92 60.70 12.66 58.94 13.33 57.14 C 12.94 58.90 12.57 60.67 12.09 62.40 L 11.76 62.77 L 11.89 63.27 C 11.72 64.61 11.51 65.94 11.27 67.27 L 10.30 67.38 L 11.06 66.15 C 11.13 64.92 11.18 63.70 11.20 62.47 Z" />
<path fill="#044672" opacity="1.00" d=" M 210.47 58.14 C 210.77 57.89 211.36 57.39 211.66 57.14 L 211.10 58.02 C 212.13 62.05 212.16 66.19 212.59 70.30 L 211.65 69.48 C 211.72 65.66 211.72 61.80 210.47 58.14 Z" />
<path fill="#044672" opacity="1.00" d=" M 9.10 70.91 C 9.37 69.69 9.54 68.40 10.30 67.38 C 10.24 67.97 10.13 69.16 10.07 69.76 L 10.10 69.99 L 9.85 71.88 C 9.61 72.08 9.13 72.48 8.89 72.68 C 8.62 72.93 8.08 73.44 7.81 73.69 C 7.65 73.96 7.34 74.50 7.18 74.77 C 6.81 75.07 6.07 75.67 5.69 75.97 L 5.39 76.09 L 4.49 76.43 C 6.14 74.69 7.59 72.77 9.10 70.91 Z" />
<path fill="#044672" opacity="1.00" d=" M 212.59 70.30 C 212.76 70.44 213.10 70.73 213.27 70.87 C 213.10 70.73 212.76 70.44 212.59 70.30 Z" />
<path fill="#044672" opacity="1.00" d=" M 213.27 70.87 C 213.46 71.03 213.83 71.36 214.01 71.52 C 213.83 71.36 213.46 71.03 213.27 70.87 Z" />
<path fill="#044672" opacity="1.00" d=" M 214.01 71.52 C 216.20 73.12 218.00 75.19 219.40 77.50 L 219.67 78.40 C 217.82 76.08 215.91 73.81 214.01 71.52 Z" />
<path fill="#044672" opacity="1.00" d=" M 3.73 79.42 L 3.81 79.76 C 1.19 87.62 0.18 96.45 3.35 104.31 C 3.73 105.46 4.19 106.60 4.48 107.78 C 0.91 113.21 1.05 120.23 1.80 126.47 C 3.34 135.54 9.21 143.51 17.06 148.22 C 15.61 152.16 17.92 156.26 18.68 160.15 L 18.53 160.75 C 16.78 156.74 16.30 152.37 15.86 148.06 C 2.29 139.75 -3.31 120.91 3.93 106.66 C -0.41 98.35 -0.45 87.80 3.73 79.42 Z" />
<path fill="#044672" opacity="1.00" d=" M 221.28 130.47 L 221.34 130.26 C 221.32 130.38 221.27 130.61 221.25 130.73 L 221.28 130.47 Z" />
<path fill="#044672" opacity="1.00" d=" M 220.15 133.07 C 220.42 132.48 220.97 131.31 221.25 130.73 C 220.97 131.31 220.42 132.48 220.15 133.07 Z" />
<path fill="#044672" opacity="1.00" d=" M 215.68 139.10 C 216.87 136.88 218.69 135.10 220.15 133.07 C 219.14 135.40 217.65 137.49 215.68 139.10 Z" />
<path fill="#044672" opacity="1.00" d=" M 215.06 139.65 C 215.21 139.51 215.52 139.24 215.68 139.10 C 215.52 139.24 215.21 139.51 215.06 139.65 Z" />
<path fill="#044672" opacity="1.00" d=" M 213.10 140.69 C 213.59 140.43 214.57 139.91 215.06 139.65 C 214.74 140.17 214.11 141.22 213.79 141.75 C 214.58 148.47 214.34 156.15 209.79 161.60 C 213.58 155.35 214.47 147.80 213.10 140.69 Z" />
<path fill="#044672" opacity="1.00" d=" M 18.53 160.75 L 19.14 160.85 L 19.81 161.89 L 19.69 162.56 L 18.92 162.44 C 18.83 162.01 18.63 161.17 18.53 160.75 Z" />
<path fill="#044672" opacity="1.00" d=" M 209.26 162.31 C 209.39 162.13 209.66 161.78 209.79 161.60 C 209.66 161.78 209.39 162.13 209.26 162.31 Z" />
<path fill="#044672" opacity="1.00" d=" M 208.35 163.35 C 208.58 163.09 209.03 162.57 209.26 162.31 C 209.03 162.57 208.58 163.09 208.35 163.35 Z" />
<path fill="#044672" opacity="1.00" d=" M 19.69 162.56 L 20.18 162.45 C 21.33 163.73 22.84 165.07 22.63 166.99 C 21.13 166.02 19.34 164.59 19.69 162.56 Z" />
<path fill="#044672" opacity="1.00" d=" M 207.22 164.44 C 207.50 164.17 208.07 163.62 208.35 163.35 C 208.07 163.62 207.50 164.17 207.22 164.44 Z" />
<path fill="#044672" opacity="1.00" d=" M 205.99 165.12 C 206.30 164.95 206.91 164.61 207.22 164.44 L 206.62 165.14 L 205.99 165.12 Z" />
<path fill="#044672" opacity="1.00" d=" M 205.24 165.62 L 205.99 165.12 L 205.98 165.71 L 205.22 166.23 L 205.24 165.62 Z" />
<path fill="#044672" opacity="1.00" d=" M 204.56 166.21 L 205.22 166.23 C 204.90 166.40 204.25 166.75 203.92 166.93 L 204.56 166.21 Z" />
<path fill="#044672" opacity="1.00" d=" M 22.63 166.99 C 22.78 167.15 23.06 167.46 23.20 167.61 C 23.06 167.46 22.78 167.15 22.63 166.99 Z" />
<path fill="#044672" opacity="1.00" d=" M 203.10 167.14 L 203.92 166.93 C 203.68 167.11 203.18 167.46 202.94 167.64 L 203.10 167.14 Z" />
<path fill="#044672" opacity="1.00" d=" M 23.20 167.61 L 24.11 167.76 C 24.44 167.97 25.10 168.38 25.44 168.59 L 25.44 169.16 C 24.97 169.18 24.02 169.22 23.54 169.24 C 23.46 168.83 23.29 168.02 23.20 167.61 Z" />
<path fill="#044672" opacity="1.00" d=" M 200.98 167.75 L 202.24 167.38 L 202.94 167.64 C 202.46 169.14 201.81 170.58 201.04 171.95 C 200.91 171.48 200.65 170.53 200.52 170.05 L 200.58 168.74 L 200.98 167.75 Z" />
<path fill="#044672" opacity="1.00" d=" M 25.44 169.16 L 25.95 169.28 C 26.51 169.71 27.62 170.55 28.18 170.97 C 28.59 171.17 29.41 171.57 29.82 171.77 C 34.98 171.97 40.19 173.35 43.79 177.28 C 39.18 173.91 33.49 171.44 27.71 172.72 L 27.40 172.17 C 27.12 170.90 26.47 169.90 25.44 169.16 Z" />
<path fill="#044672" opacity="1.00" d=" M 200.10 172.09 L 201.04 171.95 C 200.77 172.46 200.23 173.49 199.96 174.00 C 199.99 173.52 200.07 172.57 200.10 172.09 Z" />
<path fill="#044672" opacity="1.00" d=" M 196.25 180.20 C 197.59 178.19 198.79 176.11 199.96 174.00 C 199.33 176.24 198.18 178.27 196.78 180.11 L 196.25 180.20 Z" />
<path fill="#044672" opacity="1.00" d=" M 43.79 177.28 C 45.15 176.64 46.58 177.55 47.29 178.71 C 45.93 179.49 44.33 178.61 43.79 177.28 Z" />
<path fill="#044672" opacity="1.00" d=" M 194.71 182.18 C 195.09 181.68 195.86 180.69 196.25 180.20 L 196.36 180.73 C 195.94 181.09 195.12 181.81 194.71 182.18 Z" />
<path fill="#044672" opacity="1.00" d=" M 193.69 182.80 C 193.95 182.64 194.45 182.33 194.71 182.18 C 194.45 182.33 193.95 182.64 193.69 182.80 Z" />
<path fill="#044672" opacity="1.00" d=" M 193.11 183.62 C 193.25 183.41 193.55 183.00 193.69 182.80 C 193.55 183.00 193.25 183.41 193.11 183.62 Z" />
<path fill="#044672" opacity="1.00" d=" M 190.88 184.10 C 191.44 183.98 192.55 183.74 193.11 183.62 C 192.82 184.22 192.26 185.44 191.98 186.04 C 187.90 187.13 183.65 186.47 179.51 187.04 C 179.86 186.93 180.57 186.69 180.93 186.58 C 182.72 186.43 184.51 186.35 186.31 186.29 C 187.48 186.44 188.40 186.06 189.09 185.14 C 189.54 184.88 190.43 184.36 190.88 184.10 Z" />
<path fill="#044672" opacity="1.00" d=" M 140.05 315.03 C 145.95 313.56 151.90 311.78 157.13 308.60 C 157.36 309.11 157.80 310.13 158.02 310.64 C 157.71 310.96 157.07 311.59 156.76 311.91 C 148.92 314.88 140.81 318.85 132.19 317.65 C 130.98 317.42 129.76 317.19 128.55 316.97 C 128.11 316.07 127.70 315.16 127.32 314.25 C 131.29 316.21 135.85 316.12 140.05 315.03 Z" />
</g>
<g id="#798e9ac6">
<path fill="#798e9a" opacity="0.78" d=" M 18.96 46.45 C 19.05 46.32 19.23 46.06 19.31 45.93 C 19.23 46.06 19.05 46.32 18.96 46.45 Z" />
<path fill="#798e9a" opacity="0.78" d=" M 16.66 49.74 C 16.75 49.61 16.91 49.36 16.99 49.24 C 16.91 49.36 16.75 49.61 16.66 49.74 Z" />
<path fill="#798e9a" opacity="0.78" d=" M 16.34 50.27 C 16.42 50.13 16.58 49.87 16.66 49.74 C 16.58 49.87 16.42 50.13 16.34 50.27 Z" />
</g>
<g id="#52768cff">
<path fill="#52768c" opacity="1.00" d=" M 208.25 53.46 C 208.29 53.54 208.38 53.70 208.43 53.78 C 208.38 53.70 208.29 53.54 208.25 53.46 Z" />
</g>
<g id="#fbcfb4ff">
<path fill="#fbcfb4" opacity="1.00" d=" M 15.76 67.01 C 18.95 62.62 23.32 58.21 29.00 57.70 C 34.32 57.14 40.08 60.31 41.51 65.66 C 40.22 69.32 38.77 73.15 35.68 75.70 C 29.16 80.94 20.21 83.02 12.04 81.24 C 10.47 80.89 8.86 80.51 7.26 80.94 C 6.05 79.96 4.85 78.96 3.69 77.92 C 4.07 77.55 4.83 76.80 5.21 76.42 C 5.33 76.31 5.57 76.08 5.69 75.97 C 10.81 75.86 13.22 70.64 15.76 67.01 Z" />
<path fill="#fbcfb4" opacity="1.00" d=" M 104.24 69.87 C 110.52 71.66 117.04 73.49 123.63 72.32 C 125.18 86.63 140.12 96.97 154.01 95.70 C 163.67 95.91 172.53 90.77 178.75 83.69 C 181.01 88.09 185.44 90.78 190.13 91.94 C 191.04 97.26 193.37 102.18 196.50 106.54 C 195.99 109.80 195.64 113.08 195.58 116.38 C 194.92 127.06 192.21 137.47 190.42 147.98 C 190.57 156.00 191.05 164.25 188.25 171.93 C 187.54 173.99 186.34 175.94 186.30 178.18 C 184.36 178.14 183.22 180.43 183.24 182.15 C 183.15 182.25 182.97 182.44 182.88 182.54 C 181.32 183.82 179.46 185.06 178.89 187.12 C 178.58 187.27 177.96 187.57 177.65 187.73 C 177.17 187.87 176.22 188.17 175.74 188.32 L 175.44 188.44 L 175.31 188.72 L 175.09 189.16 C 167.83 195.27 157.96 196.70 148.95 198.53 C 146.32 196.59 142.97 197.49 139.96 197.36 C 132.58 197.65 125.23 196.87 117.96 195.69 C 102.16 192.82 86.06 188.34 73.18 178.33 C 75.72 175.67 79.09 173.01 79.11 168.98 C 79.21 164.17 76.38 159.95 73.39 156.43 C 73.70 154.47 74.07 152.52 74.42 150.57 C 75.14 151.92 75.40 153.51 76.27 154.77 C 79.69 155.59 83.72 156.09 86.68 153.73 C 89.65 152.15 90.90 148.92 92.51 146.19 C 91.37 142.77 91.59 137.96 87.60 136.42 C 83.24 132.83 76.53 132.50 72.08 136.13 C 72.79 138.12 73.63 140.13 73.56 142.29 C 71.83 138.64 69.44 135.35 66.31 132.79 C 70.97 124.37 69.03 114.48 67.33 105.53 C 71.05 103.75 74.61 101.43 77.07 98.05 C 81.14 93.16 82.45 86.81 83.73 80.77 C 85.17 79.71 87.24 80.12 88.93 79.67 C 95.21 78.86 100.58 74.88 104.24 69.87 M 101.04 84.07 C 97.74 85.32 93.87 86.71 91.93 89.83 C 101.75 87.25 112.12 87.39 122.12 88.78 C 123.77 88.87 125.34 90.04 127.00 89.55 C 120.29 82.91 109.84 81.68 101.04 84.07 M 105.52 102.67 C 95.51 103.69 87.03 112.83 87.25 122.96 C 86.48 131.22 91.81 139.28 99.20 142.68 C 103.82 144.61 109.14 145.37 113.97 143.78 C 121.57 141.57 127.71 134.85 128.91 126.99 C 129.23 121.84 128.82 116.31 125.67 112.00 C 121.45 105.33 113.26 101.83 105.52 102.67 M 158.81 115.17 C 165.79 109.89 174.17 106.09 182.99 105.58 C 182.30 103.58 179.77 103.65 178.10 103.04 C 169.86 100.90 160.12 106.61 158.81 115.17 M 158.91 124.89 C 158.41 125.90 157.74 128.05 159.68 128.06 C 159.45 128.68 159.00 129.92 158.77 130.54 C 158.65 133.35 158.84 136.18 159.89 138.82 L 158.50 138.48 C 157.22 141.84 160.31 145.23 162.25 147.84 C 165.39 151.96 170.93 152.47 175.66 151.57 C 181.60 149.61 185.69 144.07 187.33 138.21 C 187.99 133.51 188.78 128.60 187.07 124.00 C 185.34 118.32 180.22 113.34 174.05 113.29 C 167.04 113.03 161.36 118.78 158.91 124.89 M 138.09 148.99 C 135.00 150.22 132.31 153.31 133.12 156.83 C 135.17 161.99 140.96 164.41 146.16 164.78 C 150.29 165.04 155.06 164.38 157.92 161.08 C 159.92 159.04 159.54 155.87 158.72 153.39 C 158.40 153.19 157.75 152.79 157.42 152.59 C 157.23 152.27 156.84 151.62 156.65 151.30 C 151.27 147.79 144.13 146.48 138.09 148.99 M 108.23 155.94 C 103.60 162.27 100.51 171.21 104.34 178.66 C 108.34 185.79 117.24 188.48 124.98 188.12 C 130.49 187.54 136.41 187.12 141.07 183.80 C 145.29 180.87 147.56 175.82 148.08 170.83 C 134.15 167.77 121.40 161.19 108.23 155.94 Z" />
<path fill="#fbcfb4" opacity="1.00" d=" M 47.40 180.98 L 48.78 180.39 C 54.19 181.05 59.72 182.07 65.20 180.93 C 66.60 181.65 66.89 183.54 66.09 184.83 C 64.79 187.27 62.58 189.04 60.95 191.24 L 60.16 191.29 C 59.95 191.36 59.53 191.51 59.32 191.59 C 59.01 192.00 58.38 192.83 58.07 193.24 C 57.92 193.36 57.61 193.59 57.46 193.70 C 55.38 194.75 53.44 196.04 51.78 197.68 C 51.62 197.79 51.30 198.02 51.14 198.14 C 50.98 198.24 50.67 198.45 50.52 198.56 C 49.04 199.40 47.63 200.37 46.10 201.12 C 44.61 199.64 43.91 197.55 42.71 195.84 C 42.69 199.32 45.84 201.97 46.99 205.17 C 45.41 206.02 43.17 206.28 42.39 208.13 C 40.72 211.25 38.23 213.83 36.75 217.07 L 35.72 217.59 L 34.74 217.56 C 34.41 217.09 33.73 216.15 33.40 215.67 C 31.80 210.79 29.80 206.02 28.66 201.00 C 28.17 198.45 29.90 196.22 31.27 194.27 C 35.64 188.74 41.74 185.02 47.40 180.98 Z" />
<path fill="#fbcfb4" opacity="1.00" d=" M 189.83 191.87 C 191.32 190.10 192.74 186.50 195.64 187.54 C 198.28 189.04 197.80 192.41 196.68 194.75 C 195.40 197.29 194.23 200.66 190.90 200.75 C 195.06 202.57 198.24 206.35 199.28 210.79 C 199.60 210.66 200.24 210.41 200.57 210.28 C 202.13 213.15 206.40 211.35 209.11 212.20 C 207.67 216.47 202.01 214.15 198.68 215.22 L 198.35 216.48 C 197.41 218.52 195.34 219.65 193.75 221.15 L 193.50 221.27 C 185.38 222.38 177.63 225.47 169.42 226.02 C 166.50 224.77 163.32 224.53 160.19 224.34 C 158.67 222.86 157.30 221.23 155.93 219.61 C 157.81 215.13 158.06 209.94 156.24 205.40 C 155.34 203.18 154.27 200.99 154.00 198.58 C 155.78 198.09 157.52 197.48 159.34 197.19 C 161.69 198.35 163.27 200.54 165.24 202.21 C 165.38 202.40 165.67 202.79 165.82 202.98 C 166.75 204.84 167.87 206.58 169.04 208.30 C 166.41 210.07 162.72 210.42 160.82 213.11 C 165.18 211.27 169.30 208.79 173.91 207.60 C 174.42 209.82 173.60 213.29 176.14 214.42 C 175.61 212.28 174.86 210.18 174.68 207.97 C 174.69 205.18 175.99 202.41 175.19 199.62 C 174.61 197.14 172.58 194.60 174.22 192.05 C 175.99 193.21 178.17 193.46 180.23 193.29 C 182.40 194.83 182.60 197.42 182.44 199.87 C 185.52 197.81 188.10 195.16 189.83 191.87 M 183.83 200.90 C 184.43 202.82 186.37 204.02 186.63 206.09 C 186.93 208.58 185.77 210.86 184.88 213.10 C 188.91 210.69 188.68 202.69 183.83 200.90 Z" />
<path fill="#fbcfb4" opacity="1.00" d=" M 195.03 201.66 C 198.34 200.10 201.57 198.30 205.09 197.22 C 207.13 196.60 209.24 197.77 209.83 199.82 C 207.63 203.76 203.85 207.27 199.34 208.16 C 198.62 205.54 196.53 203.77 195.03 201.66 Z" />
<path fill="#fbcfb4" opacity="1.00" d=" M 41.95 210.94 C 42.79 208.07 45.18 205.76 48.38 206.27 C 49.61 206.54 50.83 206.82 52.05 207.13 L 52.39 207.29 C 53.27 208.58 54.12 209.89 54.96 211.21 C 53.78 212.06 52.70 214.02 50.96 213.33 C 48.35 212.25 45.62 213.52 43.95 215.61 C 45.66 215.11 47.38 214.65 49.14 214.40 C 51.50 216.30 54.42 217.92 55.47 220.95 C 55.88 222.70 54.11 223.76 52.96 224.68 C 49.54 225.33 46.32 223.65 43.00 223.16 C 46.12 225.97 51.42 224.24 53.74 228.06 C 52.22 229.67 50.37 231.51 47.96 231.35 C 45.90 230.63 43.96 229.60 41.85 229.02 C 43.70 230.98 46.40 231.56 48.89 232.24 C 47.54 234.20 45.22 234.53 43.02 234.24 L 42.58 233.94 C 39.29 232.07 36.41 228.92 36.53 224.90 C 35.75 219.61 38.43 214.66 41.95 210.94 Z" />
<path fill="#fbcfb4" opacity="1.00" d=" M 70.55 273.88 C 73.94 275.58 77.67 275.34 81.24 274.41 C 81.92 274.49 83.30 274.64 83.99 274.72 C 84.45 278.50 85.31 282.25 85.50 286.06 C 83.13 290.19 76.21 291.79 72.95 287.84 C 71.82 283.25 71.41 278.52 70.55 273.88 Z" />
<path fill="#fbcfb4" opacity="1.00" d=" M 136.51 277.87 C 136.78 278.81 137.32 279.58 138.13 280.18 C 138.79 282.56 139.72 284.85 140.76 287.09 C 141.29 288.74 141.87 290.40 142.34 292.08 C 141.19 296.56 135.98 298.58 131.71 297.87 L 131.30 297.37 C 128.73 293.99 128.00 289.65 125.85 286.02 C 125.87 285.60 125.92 284.75 125.94 284.33 C 130.10 284.26 136.74 283.39 136.51 277.87 Z" />
</g>
<g id="#f8b294ff">
<path fill="#f8b294" opacity="1.00" d=" M 41.51 65.66 C 43.15 69.64 41.53 73.94 39.56 77.47 C 36.61 82.11 31.16 84.33 25.97 85.37 C 19.53 86.61 12.18 85.59 7.26 80.94 C 8.86 80.51 10.47 80.89 12.04 81.24 C 20.21 83.02 29.16 80.94 35.68 75.70 C 38.77 73.15 40.22 69.32 41.51 65.66 Z" />
</g>
<g id="#f8b194ff">
<path fill="#f8b194" opacity="1.00" d=" M 103.18 67.13 C 106.12 67.64 108.88 68.98 111.87 69.32 C 115.79 69.72 119.74 69.52 123.68 69.48 C 123.67 70.19 123.64 71.61 123.63 72.32 C 117.04 73.49 110.52 71.66 104.24 69.87 C 100.58 74.88 95.21 78.86 88.93 79.67 C 87.24 80.12 85.17 79.71 83.73 80.77 C 82.45 86.81 81.14 93.16 77.07 98.05 C 74.61 101.43 71.05 103.75 67.33 105.53 C 69.03 114.48 70.97 124.37 66.31 132.79 C 69.44 135.35 71.83 138.64 73.56 142.29 C 73.67 145.07 73.94 147.83 74.42 150.57 C 74.07 152.52 73.70 154.47 73.39 156.43 C 76.38 159.95 79.21 164.17 79.11 168.98 C 79.09 173.01 75.72 175.67 73.18 178.33 C 86.06 188.34 102.16 192.82 117.96 195.69 C 125.23 196.87 132.58 197.65 139.96 197.36 C 142.97 197.49 146.32 196.59 148.95 198.53 C 136.46 201.79 123.44 200.49 110.79 199.13 L 110.29 199.05 C 98.12 196.52 86.58 191.80 75.54 186.19 L 75.06 185.91 C 74.75 185.63 74.13 185.07 73.82 184.79 C 71.69 183.26 69.48 181.86 67.29 180.42 C 73.22 178.24 77.29 171.80 76.31 165.49 C 75.76 161.88 72.64 159.61 70.30 157.11 C 71.44 148.12 69.07 138.52 62.21 132.27 C 64.58 129.38 66.13 125.77 66.56 122.06 C 67.44 115.47 64.90 109.33 62.91 103.23 C 65.64 102.39 68.35 101.35 70.65 99.60 C 77.67 94.71 80.50 85.74 80.76 77.52 C 86.88 77.26 93.47 76.50 98.37 72.45 C 100.34 71.02 101.33 68.64 103.18 67.13 Z" />
</g>
<g id="#bddfe0ff">
<path fill="#bddfe0" opacity="1.00" d=" M 178.40 67.78 L 179.97 68.64 C 181.40 73.15 181.07 78.40 178.38 82.39 C 169.23 95.84 148.47 99.52 135.39 89.78 C 130.40 86.11 125.77 81.12 124.87 74.74 C 131.41 84.74 144.07 91.05 155.99 88.85 C 163.07 87.09 170.22 82.70 173.02 75.67 C 171.82 74.84 170.79 73.82 170.00 72.59 C 172.16 72.54 174.39 72.97 176.50 72.34 C 178.31 71.55 178.53 69.53 178.40 67.78 Z" />
<path fill="#bddfe0" opacity="1.00" d=" M 3.88 99.32 C 5.70 101.24 7.04 103.57 7.98 106.04 C 7.14 112.30 6.64 118.69 7.75 124.97 C 8.83 131.98 12.85 138.31 18.32 142.75 C 19.64 144.04 21.65 144.94 21.95 146.97 C 23.30 152.20 25.39 157.90 30.33 160.77 C 33.68 162.97 37.77 163.32 41.68 163.40 C 44.30 170.54 52.86 174.37 60.01 172.10 C 64.10 171.06 68.15 167.52 67.88 162.99 C 67.89 159.63 65.35 157.17 63.09 155.03 C 66.60 147.46 64.11 138.18 57.73 132.95 C 59.95 129.89 62.05 126.71 63.30 123.12 C 64.50 120.31 63.89 117.03 65.55 114.37 C 67.02 120.71 65.43 127.61 61.29 132.64 C 68.63 138.46 70.79 148.35 69.56 157.26 C 71.54 159.48 73.97 161.38 75.29 164.09 C 77.49 171.24 72.20 179.13 64.97 180.41 C 59.03 181.15 52.93 180.79 47.29 178.71 C 46.58 177.55 45.15 176.64 43.79 177.28 C 40.19 173.35 34.98 171.97 29.82 171.77 C 29.41 171.57 28.59 171.17 28.18 170.97 C 27.62 170.55 26.51 169.71 25.95 169.28 C 25.82 169.11 25.56 168.76 25.44 168.59 C 25.10 168.38 24.44 167.97 24.11 167.76 L 23.20 167.61 C 23.06 167.46 22.78 167.15 22.63 166.99 C 22.84 165.07 21.33 163.73 20.18 162.45 C 20.09 162.31 19.90 162.03 19.81 161.89 L 19.14 160.85 C 19.02 160.67 18.79 160.32 18.68 160.15 C 17.92 156.26 15.61 152.16 17.06 148.22 C 9.21 143.51 3.34 135.54 1.80 126.47 C 3.93 124.52 2.83 121.45 3.11 118.93 C 2.78 115.10 5.17 111.60 4.48 107.78 C 4.19 106.60 3.73 105.46 3.35 104.31 C 3.46 102.64 3.64 100.97 3.88 99.32 Z" />
<path fill="#bddfe0" opacity="1.00" d=" M 216.57 133.61 C 218.32 131.37 219.57 128.78 221.52 126.69 C 221.46 127.64 221.34 129.52 221.28 130.47 L 221.25 130.73 C 220.97 131.31 220.42 132.48 220.15 133.07 C 218.69 135.10 216.87 136.88 215.68 139.10 C 215.52 139.24 215.21 139.51 215.06 139.65 C 214.57 139.91 213.59 140.43 213.10 140.69 C 214.47 147.80 213.58 155.35 209.79 161.60 C 209.66 161.78 209.39 162.13 209.26 162.31 C 209.03 162.57 208.58 163.09 208.35 163.35 C 208.07 163.62 207.50 164.17 207.22 164.44 C 206.91 164.61 206.30 164.95 205.99 165.12 L 205.24 165.62 C 205.07 165.77 204.73 166.06 204.56 166.21 L 203.92 166.93 L 203.10 167.14 C 202.88 167.20 202.46 167.32 202.24 167.38 L 200.98 167.75 C 199.09 166.69 198.50 170.35 200.58 168.74 L 200.52 170.05 C 200.41 170.56 200.21 171.58 200.10 172.09 C 200.07 172.57 199.99 173.52 199.96 174.00 C 198.79 176.11 197.59 178.19 196.25 180.20 C 195.86 180.69 195.09 181.68 194.71 182.18 C 194.45 182.33 193.95 182.64 193.69 182.80 C 193.55 183.00 193.25 183.41 193.11 183.62 C 192.55 183.74 191.44 183.98 190.88 184.10 C 190.43 184.36 189.54 184.88 189.09 185.14 C 187.65 184.37 186.73 184.75 186.31 186.29 C 184.51 186.35 182.72 186.43 180.93 186.58 C 181.42 185.64 182.42 183.76 182.92 182.83 C 182.98 182.73 183.10 182.54 183.16 182.44 C 183.29 182.36 183.55 182.19 183.68 182.11 C 183.85 181.99 184.19 181.76 184.36 181.64 C 185.49 180.76 186.14 179.61 186.30 178.18 C 187.08 176.86 187.82 175.52 188.40 174.11 C 190.08 174.55 191.87 175.10 193.61 174.58 C 196.60 172.43 196.93 168.40 198.08 165.17 C 207.32 161.07 212.83 149.79 209.18 140.13 C 211.68 138.00 214.45 136.15 216.57 133.61 Z" />
<path fill="#bddfe0" opacity="1.00" d=" M 43.02 234.69 C 44.42 234.77 45.83 234.85 47.24 234.94 C 47.81 238.61 48.07 242.58 50.50 245.60 C 51.96 247.78 54.52 248.80 56.27 250.68 C 58.13 253.99 59.71 257.75 63.12 259.81 C 66.22 262.14 70.18 262.40 73.82 263.29 C 76.30 265.18 78.62 267.42 81.66 268.41 C 84.93 269.78 88.51 269.05 91.94 269.19 C 94.65 269.91 97.07 271.58 99.90 271.84 C 102.60 272.18 105.28 271.58 107.90 271.03 C 115.45 274.61 126.30 275.00 132.05 268.00 C 134.56 264.66 139.15 264.02 141.71 260.72 C 144.90 256.69 146.96 251.71 147.63 246.62 C 148.10 246.38 149.03 245.90 149.50 245.66 C 149.44 249.88 147.80 253.77 146.60 257.75 C 146.30 258.06 145.69 258.70 145.38 259.01 L 145.68 259.85 C 143.64 260.06 142.99 262.58 142.63 264.26 C 142.48 264.44 142.19 264.80 142.05 264.98 C 141.79 265.24 141.29 265.75 141.03 266.01 C 140.77 266.26 140.24 266.78 139.98 267.03 C 139.77 267.18 139.35 267.47 139.15 267.61 C 138.66 267.84 137.70 268.30 137.21 268.54 C 133.57 272.54 129.52 276.77 123.95 277.80 C 118.26 279.41 112.54 276.98 107.45 274.62 C 104.03 275.42 100.64 276.77 97.05 276.44 C 93.51 276.38 90.50 273.79 86.91 274.24 C 81.50 274.49 76.49 272.10 72.35 268.82 C 67.38 268.59 62.09 268.32 57.90 265.29 C 54.31 263.08 52.47 259.10 51.55 255.13 C 45.12 250.58 41.82 242.46 43.02 234.69 Z" />
</g>
<g id="#0e4f7dff">
<path fill="#0e4f7d" opacity="1.00" d=" M 219.67 78.40 L 219.40 77.50 C 222.79 81.96 224.58 87.39 225.32 92.90 C 225.75 98.02 224.80 103.21 223.31 108.11 C 223.19 108.40 222.95 108.98 222.84 109.27 C 222.35 110.47 221.87 111.67 221.39 112.88 C 222.38 118.58 223.45 124.67 221.34 130.26 L 221.28 130.47 C 221.34 129.52 221.46 127.64 221.52 126.69 C 221.74 122.10 221.96 117.40 220.68 112.93 C 223.52 107.08 224.73 100.48 224.73 94.00 C 224.70 88.39 222.31 83.22 219.67 78.40 Z" />
<path fill="#0e4f7d" opacity="1.00" d=" M 153.28 198.71 C 153.46 198.68 153.82 198.61 154.00 198.58 C 154.27 200.99 155.34 203.18 156.24 205.40 C 158.06 209.94 157.81 215.13 155.93 219.61 L 155.74 220.45 C 155.98 224.01 157.03 227.53 156.51 231.12 C 156.17 236.47 153.46 241.22 150.52 245.56 C 149.13 249.56 149.19 254.20 146.60 257.75 C 147.80 253.77 149.44 249.88 149.50 245.66 C 155.16 238.83 157.37 229.41 154.93 220.83 C 156.04 217.38 156.97 213.81 156.56 210.15 C 156.61 206.03 153.52 202.77 153.28 198.71 Z" />
<path fill="#0e4f7d" opacity="1.00" d=" M 145.38 259.01 C 145.69 258.70 146.30 258.06 146.60 257.75 C 146.37 258.27 145.91 259.33 145.68 259.85 L 145.38 259.01 Z" />
<path fill="#0e4f7d" opacity="1.00" d=" M 142.63 264.26 C 142.99 262.58 143.64 260.06 145.68 259.85 C 145.69 261.81 144.41 263.51 142.63 264.26 Z" />
<path fill="#0e4f7d" opacity="1.00" d=" M 142.05 264.98 C 142.19 264.80 142.48 264.44 142.63 264.26 C 142.48 264.44 142.19 264.80 142.05 264.98 Z" />
<path fill="#0e4f7d" opacity="1.00" d=" M 141.03 266.01 C 141.29 265.75 141.79 265.24 142.05 264.98 C 141.79 265.24 141.29 265.75 141.03 266.01 Z" />
<path fill="#0e4f7d" opacity="1.00" d=" M 139.98 267.03 C 140.24 266.78 140.77 266.26 141.03 266.01 C 140.77 266.26 140.24 266.78 139.98 267.03 Z" />
<path fill="#0e4f7d" opacity="1.00" d=" M 139.15 267.61 C 139.35 267.47 139.77 267.18 139.98 267.03 C 139.77 267.18 139.35 267.47 139.15 267.61 Z" />
<path fill="#0e4f7d" opacity="1.00" d=" M 137.21 268.54 C 137.70 268.30 138.66 267.84 139.15 267.61 C 138.65 268.03 137.67 268.88 137.18 269.30 L 137.21 268.54 Z" />
<path fill="#0e4f7d" opacity="1.00" d=" M 57.55 313.04 C 56.29 303.12 62.29 292.73 70.91 288.03 C 65.76 292.77 60.78 298.08 58.64 304.92 C 59.55 305.58 60.45 306.25 61.35 306.92 C 60.76 308.33 60.29 309.78 59.87 311.25 C 71.54 315.94 84.32 316.92 96.79 316.69 C 96.75 316.04 96.66 314.74 96.62 314.09 C 98.29 313.04 99.96 311.99 101.63 310.96 C 101.64 313.34 101.26 315.75 100.16 317.89 C 100.11 317.51 100.02 316.75 99.97 316.37 C 94.63 318.73 88.59 317.05 82.94 317.58 C 74.56 316.43 65.83 315.63 58.29 311.42 C 58.28 314.31 60.76 316.08 63.18 316.98 C 71.94 320.61 81.59 321.44 90.99 321.56 C 93.95 321.79 96.66 320.46 99.22 319.16 C 97.37 321.80 93.95 322.30 90.97 322.32 C 81.05 322.06 70.84 321.37 61.69 317.17 C 59.78 316.42 58.58 314.72 57.55 313.04 Z" />
</g>
<g id="#bcdfdfff">
<path fill="#bcdfdf" opacity="1.00" d=" M 178.98 83.17 C 179.32 82.42 180.00 80.92 180.34 80.17 C 185.52 84.99 191.66 88.63 198.58 90.30 C 197.36 97.86 200.38 105.45 204.91 111.39 C 203.01 113.67 200.67 115.62 199.27 118.28 C 198.32 119.88 197.60 121.75 195.84 122.64 C 196.54 117.49 196.40 112.29 196.90 107.13 C 198.50 108.35 200.11 109.57 201.70 110.81 C 201.64 110.54 201.52 110.01 201.46 109.75 C 195.51 105.86 192.38 99.02 190.79 92.32 C 192.55 92.35 194.31 92.43 196.08 92.47 C 195.44 91.39 194.05 91.80 193.03 91.58 C 187.25 91.46 182.04 87.96 178.98 83.17 Z" />
<path fill="#bcdfdf" opacity="1.00" d=" M 49.62 202.82 C 49.92 201.87 50.52 199.96 50.81 199.01 C 52.57 201.38 52.56 204.35 52.05 207.13 C 50.83 206.82 49.61 206.54 48.38 206.27 C 48.71 205.46 49.36 203.83 49.69 203.01 C 48.86 202.87 47.20 202.57 46.37 202.43 C 47.46 202.42 48.55 202.62 49.62 202.82 Z" />
</g>
<g id="#0f1016ff">
<path fill="#0f1016" opacity="1.00" d=" M 101.04 84.07 C 109.84 81.68 120.29 82.91 127.00 89.55 C 125.34 90.04 123.77 88.87 122.12 88.78 C 112.12 87.39 101.75 87.25 91.93 89.83 C 93.87 86.71 97.74 85.32 101.04 84.07 M 97.87 86.78 C 103.29 87.60 108.76 85.35 114.23 86.69 C 116.12 86.76 119.38 88.25 120.38 86.16 C 113.12 84.35 104.75 83.14 97.87 86.78 Z" />
<path fill="#0f1016" opacity="1.00" d=" M 158.77 130.54 C 161.00 132.48 161.82 135.37 162.79 138.05 L 163.13 139.12 C 165.27 139.28 166.36 137.83 167.06 136.03 C 167.19 135.82 167.43 135.39 167.55 135.17 C 168.10 136.81 168.97 138.29 170.36 139.34 C 170.41 139.72 170.50 140.48 170.55 140.86 C 172.13 140.57 173.71 140.25 175.29 139.92 L 175.43 141.06 C 173.13 143.97 169.06 145.91 165.41 144.50 C 162.78 143.57 161.07 141.22 159.89 138.82 C 158.84 136.18 158.65 133.35 158.77 130.54 Z" />
</g>
<g id="#553a21ff">
<path fill="#553a21" opacity="1.00" d=" M 97.87 86.78 C 104.75 83.14 113.12 84.35 120.38 86.16 C 119.38 88.25 116.12 86.76 114.23 86.69 C 108.76 85.35 103.29 87.60 97.87 86.78 Z" />
<path fill="#553a21" opacity="1.00" d=" M 227.79 98.68 C 229.63 100.28 231.56 101.78 233.49 103.28 L 234.00 102.10 L 234.00 104.11 C 230.63 106.51 226.91 108.43 222.84 109.27 C 222.95 108.98 223.19 108.40 223.31 108.11 C 226.98 107.69 230.51 106.09 233.14 103.47 C 231.04 102.27 228.97 100.86 227.79 98.68 Z" />
<path fill="#553a21" opacity="1.00" d=" M 196.50 106.54 C 196.60 106.69 196.80 106.98 196.90 107.13 C 196.40 112.29 196.54 117.49 195.84 122.64 C 194.90 133.49 190.61 143.97 191.47 154.97 C 191.59 161.47 190.65 168.00 188.40 174.11 C 187.82 175.52 187.08 176.86 186.30 178.18 C 186.34 175.94 187.54 173.99 188.25 171.93 C 191.05 164.25 190.57 156.00 190.42 147.98 C 192.21 137.47 194.92 127.06 195.58 116.38 C 195.64 113.08 195.99 109.80 196.50 106.54 Z" />
<path fill="#553a21" opacity="1.00" d=" M 108.23 155.94 C 121.40 161.19 134.15 167.77 148.08 170.83 C 147.56 175.82 145.29 180.87 141.07 183.80 C 136.41 187.12 130.49 187.54 124.98 188.12 C 117.24 188.48 108.34 185.79 104.34 178.66 C 100.51 171.21 103.60 162.27 108.23 155.94 M 106.22 160.31 L 106.87 161.23 L 106.10 160.98 C 105.38 163.58 104.59 166.17 103.75 168.73 C 103.68 171.32 103.14 174.10 104.42 176.50 C 107.33 183.94 115.90 187.17 123.34 187.35 C 129.46 186.61 136.13 186.18 141.22 182.30 C 144.42 179.82 145.96 175.97 146.92 172.17 C 146.08 171.74 145.25 171.30 144.42 170.87 C 132.01 167.77 120.50 161.94 108.72 157.06 C 107.89 158.15 107.05 159.23 106.22 160.31 Z" />
<path fill="#553a21" opacity="1.00" d=" M 183.24 182.15 C 183.22 180.43 184.36 178.14 186.30 178.18 C 186.14 179.61 185.49 180.76 184.36 181.64 C 184.19 181.76 183.85 181.99 183.68 182.11 L 183.24 182.15 Z" />
<path fill="#553a21" opacity="1.00" d=" M 65.20 180.93 C 65.73 180.80 66.77 180.55 67.29 180.42 C 69.48 181.86 71.69 183.26 73.82 184.79 L 72.84 185.14 C 70.84 183.83 68.86 182.49 66.92 181.11 C 67.99 185.38 64.87 189.18 61.36 191.13 L 60.95 191.24 C 62.58 189.04 64.79 187.27 66.09 184.83 C 66.89 183.54 66.60 181.65 65.20 180.93 Z" />
<path fill="#553a21" opacity="1.00" d=" M 182.88 182.54 C 182.97 182.44 183.15 182.25 183.24 182.15 L 183.16 182.44 L 182.88 182.54 Z" />
<path fill="#553a21" opacity="1.00" d=" M 178.89 187.12 C 179.46 185.06 181.32 183.82 182.88 182.54 L 182.92 182.83 C 182.42 183.76 181.42 185.64 180.93 186.58 C 180.57 186.69 179.86 186.93 179.51 187.04 L 178.89 187.12 Z" />
<path fill="#553a21" opacity="1.00" d=" M 191.98 186.04 C 194.25 186.37 197.26 186.42 197.97 189.18 C 199.63 193.83 195.19 197.57 193.94 201.69 C 197.52 199.69 201.10 197.55 205.08 196.46 C 207.65 195.52 211.26 198.03 209.98 200.89 C 208.25 204.81 204.10 206.59 200.94 209.12 C 203.46 209.31 206.04 209.10 208.52 209.65 C 210.75 210.07 212.76 213.05 210.77 214.94 C 207.88 218.08 203.07 217.00 199.26 217.20 C 197.71 218.88 195.94 220.38 193.75 221.15 C 195.34 219.65 197.41 218.52 198.35 216.48 C 201.94 216.24 205.83 217.03 209.16 215.37 C 211.35 214.51 211.27 211.16 208.88 210.63 C 206.17 210.06 203.30 209.56 200.57 210.28 C 200.24 210.41 199.60 210.66 199.28 210.79 C 198.24 206.35 195.06 202.57 190.90 200.75 C 194.23 200.66 195.40 197.29 196.68 194.75 C 197.80 192.41 198.28 189.04 195.64 187.54 C 192.74 186.50 191.32 190.10 189.83 191.87 C 188.10 195.16 185.52 197.81 182.44 199.87 C 182.60 197.42 182.40 194.83 180.23 193.29 C 178.98 191.66 176.90 191.35 174.99 191.35 L 174.46 191.01 C 179.24 189.43 182.74 193.99 183.84 198.06 C 187.47 194.85 190.36 190.61 191.98 186.04 M 195.03 201.66 C 196.53 203.77 198.62 205.54 199.34 208.16 C 203.85 207.27 207.63 203.76 209.83 199.82 C 209.24 197.77 207.13 196.60 205.09 197.22 C 201.57 198.30 198.34 200.10 195.03 201.66 Z" />
<path fill="#553a21" opacity="1.00" d=" M 177.65 187.73 C 177.96 187.57 178.58 187.27 178.89 187.12 C 178.58 187.27 177.96 187.57 177.65 187.73 Z" />
<path fill="#553a21" opacity="1.00" d=" M 175.74 188.32 C 176.22 188.17 177.17 187.87 177.65 187.73 C 177.96 189.27 177.25 189.97 175.51 189.82 L 175.09 189.16 L 175.31 188.72 C 175.42 188.62 175.63 188.42 175.74 188.32 Z" />
<path fill="#553a21" opacity="1.00" d=" M 148.95 198.53 C 157.96 196.70 167.83 195.27 175.09 189.16 L 174.46 191.01 C 174.48 191.19 174.52 191.55 174.54 191.74 L 173.35 191.34 C 169.38 193.70 165.05 195.36 160.65 196.76 C 162.24 198.53 163.88 200.26 165.24 202.21 C 163.27 200.54 161.69 198.35 159.34 197.19 C 157.52 197.48 155.78 198.09 154.00 198.58 C 153.82 198.61 153.46 198.68 153.28 198.71 C 151.29 199.04 149.31 199.47 147.33 199.86 C 142.00 200.63 136.63 201.28 131.24 201.15 C 132.40 203.08 134.13 204.58 135.49 206.36 C 137.66 210.20 138.82 214.77 137.74 219.14 C 136.36 228.04 126.78 234.68 117.95 232.76 C 109.86 231.78 103.47 224.05 103.57 215.98 C 103.47 212.53 104.68 209.16 106.32 206.17 C 108.04 203.74 110.32 201.78 112.89 200.28 C 112.19 199.89 111.49 199.50 110.79 199.13 C 123.44 200.49 136.46 201.79 148.95 198.53 M 105.79 210.20 C 102.64 215.69 105.05 223.17 109.44 227.47 C 113.77 231.88 120.37 232.23 126.14 231.38 C 128.00 228.56 128.58 225.18 128.04 221.86 L 127.42 222.38 L 127.25 221.32 C 125.05 221.09 123.49 219.09 123.42 216.96 C 123.76 214.21 126.90 211.85 129.55 213.34 C 131.80 214.25 132.20 216.85 131.96 218.98 C 130.82 219.94 129.38 220.63 128.56 221.91 C 128.61 223.73 128.74 225.55 128.82 227.37 C 128.67 227.99 128.36 229.24 128.20 229.86 C 136.11 227.13 140.43 215.07 134.99 208.56 C 134.64 205.70 132.20 203.73 130.21 201.90 C 126.50 200.86 122.58 201.52 118.84 200.56 C 118.43 200.56 117.61 200.56 117.20 200.56 C 111.72 199.79 106.68 205.36 105.79 210.20 Z" />
<path fill="#553a21" opacity="1.00" d=" M 60.16 191.29 L 60.95 191.24 L 61.11 191.62 C 60.48 192.11 59.22 193.08 58.59 193.56 L 58.07 193.24 C 58.38 192.83 59.01 192.00 59.32 191.59 C 59.53 191.51 59.95 191.36 60.16 191.29 Z" />
<path fill="#553a21" opacity="1.00" d=" M 57.46 193.70 C 57.61 193.59 57.92 193.36 58.07 193.24 L 57.92 193.80 L 57.46 193.70 Z" />
<path fill="#553a21" opacity="1.00" d=" M 173.92 198.14 C 173.23 196.17 171.60 193.40 174.22 192.05 C 172.58 194.60 174.61 197.14 175.19 199.62 C 175.99 202.41 174.69 205.18 174.68 207.97 C 174.86 210.18 175.61 212.28 176.14 214.42 C 173.60 213.29 174.42 209.82 173.91 207.60 C 169.30 208.79 165.18 211.27 160.82 213.11 C 162.72 210.42 166.41 210.07 169.04 208.30 C 167.87 206.58 166.75 204.84 165.82 202.98 C 167.35 204.66 168.66 206.52 169.83 208.47 C 171.21 207.92 172.59 207.38 173.99 206.86 C 174.53 203.99 175.31 200.91 173.92 198.14 Z" />
<path fill="#553a21" opacity="1.00" d=" M 51.78 197.68 C 53.44 196.04 55.38 194.75 57.46 193.70 L 57.28 194.32 C 55.62 195.95 53.70 197.32 51.56 198.24 L 51.78 197.68 Z" />
<path fill="#553a21" opacity="1.00" d=" M 46.99 205.17 C 45.84 201.97 42.69 199.32 42.71 195.84 C 43.91 197.55 44.61 199.64 46.10 201.12 C 47.63 200.37 49.04 199.40 50.52 198.56 L 51.03 198.52 L 50.81 199.01 C 50.52 199.96 49.92 201.87 49.62 202.82 C 48.55 202.62 47.46 202.42 46.37 202.43 C 47.20 202.57 48.86 202.87 49.69 203.01 C 49.36 203.83 48.71 205.46 48.38 206.27 C 45.18 205.76 42.79 208.07 41.95 210.94 C 38.43 214.66 35.75 219.61 36.53 224.90 C 36.41 228.92 39.29 232.07 42.58 233.94 C 38.98 233.17 36.28 229.66 36.21 226.01 C 36.09 222.66 34.78 219.61 33.40 216.62 L 33.40 215.67 C 33.73 216.15 34.41 217.09 34.74 217.56 C 34.41 218.56 35.53 220.94 36.43 219.16 C 36.25 218.77 35.90 217.98 35.72 217.59 L 36.75 217.07 C 38.23 213.83 40.72 211.25 42.39 208.13 C 43.17 206.28 45.41 206.02 46.99 205.17 Z" />
<path fill="#553a21" opacity="1.00" d=" M 51.14 198.14 L 51.56 198.24 C 51.43 198.31 51.17 198.45 51.03 198.52 L 51.14 198.14 Z" />
<path fill="#553a21" opacity="1.00" d=" M 183.83 200.90 C 188.68 202.69 188.91 210.69 184.88 213.10 C 185.77 210.86 186.93 208.58 186.63 206.09 C 186.37 204.02 184.43 202.82 183.83 200.90 Z" />
<path fill="#553a21" opacity="1.00" d=" M 52.39 207.29 C 54.23 207.82 56.44 210.12 55.16 212.10 C 54.41 213.84 52.39 213.92 50.81 214.34 C 53.00 216.25 55.96 218.05 56.23 221.26 C 56.55 223.35 54.56 224.58 53.01 225.47 C 53.45 226.33 53.90 227.20 54.36 228.06 C 52.94 231.23 49.18 232.13 47.24 234.94 C 45.83 234.85 44.42 234.77 43.02 234.69 L 43.02 234.24 C 45.22 234.53 47.54 234.20 48.89 232.24 C 46.40 231.56 43.70 230.98 41.85 229.02 C 43.96 229.60 45.90 230.63 47.96 231.35 C 50.37 231.51 52.22 229.67 53.74 228.06 C 51.42 224.24 46.12 225.97 43.00 223.16 C 46.32 223.65 49.54 225.33 52.96 224.68 C 54.11 223.76 55.88 222.70 55.47 220.95 C 54.42 217.92 51.50 216.30 49.14 214.40 C 47.38 214.65 45.66 215.11 43.95 215.61 C 45.62 213.52 48.35 212.25 50.96 213.33 C 52.70 214.02 53.78 212.06 54.96 211.21 C 54.12 209.89 53.27 208.58 52.39 207.29 Z" />
<path fill="#553a21" opacity="1.00" d=" M 155.93 219.61 C 157.30 221.23 158.67 222.86 160.19 224.34 C 162.52 227.23 166.21 226.67 169.42 226.02 C 177.63 225.47 185.38 222.38 193.50 221.27 C 193.00 221.50 191.98 221.96 191.48 222.19 C 182.34 223.98 173.36 226.94 163.97 227.21 C 160.29 226.46 158.17 222.99 155.74 220.45 L 155.93 219.61 Z" />
<path fill="#553a21" opacity="1.00" d=" M 69.21 269.16 C 70.13 269.23 71.06 269.32 71.98 269.40 C 71.44 269.41 70.37 269.41 69.83 269.42 C 70.07 270.90 70.31 272.39 70.55 273.88 C 71.41 278.52 71.82 283.25 72.95 287.84 C 76.21 291.79 83.13 290.19 85.50 286.06 C 85.31 282.25 84.45 278.50 83.99 274.72 L 84.58 274.78 C 85.24 278.66 85.56 282.59 86.27 286.47 C 88.36 287.00 90.51 287.50 92.33 288.71 C 89.77 288.25 86.61 286.05 84.43 288.45 C 80.87 291.60 74.63 291.78 71.72 287.64 C 71.78 281.41 69.99 275.32 69.21 269.16 Z" />
<path fill="#553a21" opacity="1.00" d=" M 135.00 271.87 C 135.19 272.40 135.57 273.45 135.76 273.98 C 135.44 273.60 134.81 272.84 134.49 272.45 L 135.00 271.87 Z" />
<path fill="#553a21" opacity="1.00" d=" M 135.76 273.98 C 136.00 274.54 136.48 275.64 136.72 276.19 C 136.48 275.64 136.00 274.54 135.76 273.98 Z" />
<path fill="#553a21" opacity="1.00" d=" M 136.72 276.19 C 138.40 276.75 139.00 278.66 138.13 280.18 C 137.32 279.58 136.78 278.81 136.51 277.87 C 136.57 277.45 136.67 276.61 136.72 276.19 Z" />
<path fill="#553a21" opacity="1.00" d=" M 122.48 278.76 L 123.06 278.68 C 124.15 279.56 124.49 280.66 124.10 281.96 C 122.71 281.62 122.26 280.02 122.48 278.76 Z" />
<path fill="#553a21" opacity="1.00" d=" M 138.13 280.18 C 139.69 282.16 140.33 284.65 140.76 287.09 C 139.72 284.85 138.79 282.56 138.13 280.18 Z" />
<path fill="#553a21" opacity="1.00" d=" M 124.10 281.96 C 125.03 282.48 125.64 283.27 125.94 284.33 C 125.92 284.75 125.87 285.60 125.85 286.02 C 124.10 285.70 123.76 283.40 124.10 281.96 Z" />
<path fill="#553a21" opacity="1.00" d=" M 125.85 286.02 C 128.00 289.65 128.73 293.99 131.30 297.37 C 126.72 299.47 127.26 305.57 126.31 309.77 L 126.22 310.41 C 126.19 306.83 126.23 303.09 127.93 299.84 C 128.42 298.56 129.65 297.52 129.63 296.09 C 128.46 292.70 126.51 289.59 125.85 286.02 Z" />
<path fill="#553a21" opacity="1.00" d=" M 140.76 287.09 C 141.33 287.80 141.89 288.52 142.43 289.26 C 145.16 295.19 136.67 300.77 131.71 297.87 C 135.98 298.58 141.19 296.56 142.34 292.08 C 141.87 290.40 141.29 288.74 140.76 287.09 Z" />
</g>
<g id="#fdd1b5ff">
<path fill="#fdd1b5" opacity="1.00" d=" M 225.32 92.90 C 225.81 94.94 226.61 96.93 227.79 98.68 C 228.97 100.86 231.04 102.27 233.14 103.47 C 230.51 106.09 226.98 107.69 223.31 108.11 C 224.80 103.21 225.75 98.02 225.32 92.90 Z" />
</g>
<g id="#4a341fff">
<path fill="#4a341f" opacity="1.00" d=" M 158.81 115.17 C 160.12 106.61 169.86 100.90 178.10 103.04 C 179.77 103.65 182.30 103.58 182.99 105.58 C 174.17 106.09 165.79 109.89 158.81 115.17 Z" />
<path fill="#4a341f" opacity="1.00" d=" M 36.68 188.01 C 40.08 185.43 43.39 182.56 47.40 180.98 C 41.74 185.02 35.64 188.74 31.27 194.27 C 29.90 196.22 28.17 198.45 28.66 201.00 C 29.80 206.02 31.80 210.79 33.40 215.67 L 33.40 216.62 C 31.19 211.21 29.14 205.69 27.85 199.98 C 28.89 194.92 32.92 191.24 36.68 188.01 Z" />
</g>
<g id="#ffffffff">
<path fill="#ffffff" opacity="1.00" d=" M 102.34 104.40 C 114.62 100.23 128.94 110.99 127.96 123.99 C 128.22 134.87 117.83 144.35 107.09 143.53 C 96.34 143.31 86.91 132.85 88.29 122.07 C 88.61 113.97 94.64 106.67 102.34 104.40 M 100.55 108.87 L 100.21 109.22 C 95.63 110.81 91.70 114.89 91.23 119.85 C 89.43 127.54 96.14 135.59 103.93 135.67 C 110.29 136.09 117.22 131.17 117.72 124.60 C 119.04 121.97 117.87 118.64 116.88 115.99 C 114.14 109.92 106.76 107.43 100.55 108.87 Z" />
<path fill="#ffffff" opacity="1.00" d=" M 169.25 115.27 C 174.23 113.18 180.37 115.16 183.46 119.53 C 189.89 128.38 187.62 142.40 178.67 148.73 C 174.78 151.56 168.99 151.88 165.09 148.91 C 161.60 146.47 159.89 142.35 158.50 138.48 L 159.89 138.82 C 161.07 141.22 162.78 143.57 165.41 144.50 C 169.06 145.91 173.13 143.97 175.43 141.06 C 178.49 137.55 178.94 132.56 178.50 128.12 C 177.88 124.19 175.14 120.05 170.96 119.43 C 168.51 118.88 166.00 119.61 163.99 121.04 C 163.99 121.29 163.98 121.78 163.97 122.03 C 163.81 122.17 163.50 122.45 163.34 122.60 C 162.74 123.15 161.53 124.25 160.93 124.81 L 160.67 123.24 C 162.86 119.99 165.57 116.86 169.25 115.27 Z" />
<path fill="#ffffff" opacity="1.00" d=" M 156.65 151.30 C 156.84 151.62 157.23 152.27 157.42 152.59 C 157.75 152.79 158.40 153.19 158.72 153.39 L 157.59 153.26 C 158.59 155.52 156.72 156.52 155.08 157.45 C 152.22 157.28 149.38 154.47 151.95 151.92 C 153.71 151.75 155.44 151.98 157.12 152.62 L 156.65 151.30 Z" />
<path fill="#ffffff" opacity="1.00" d=" M 106.22 160.31 C 107.05 159.23 107.89 158.15 108.72 157.06 C 120.50 161.94 132.01 167.77 144.42 170.87 C 144.24 174.12 140.70 173.09 138.58 172.66 C 127.67 169.88 117.34 165.30 106.87 161.23 L 106.22 160.31 Z" />
<path fill="#ffffff" opacity="1.00" d=" M 160.93 286.64 C 167.25 286.36 174.54 288.58 177.49 294.66 C 174.44 296.85 172.02 299.76 169.06 302.06 C 165.46 304.69 161.31 306.42 157.37 308.46 C 155.63 301.11 155.63 292.61 160.93 286.64 Z" />
<path fill="#ffffff" opacity="1.00" d=" M 67.89 299.82 C 73.21 296.45 80.11 297.13 85.74 299.34 C 91.78 301.77 95.44 307.90 96.62 314.09 C 96.66 314.74 96.75 316.04 96.79 316.69 C 84.32 316.92 71.54 315.94 59.87 311.25 C 60.29 309.78 60.76 308.33 61.35 306.92 C 63.06 304.18 65.07 301.50 67.89 299.82 Z" />
</g>
<g id="#1e2534ff">
<path fill="#1e2534" opacity="1.00" d=" M 100.55 108.87 C 106.76 107.43 114.14 109.92 116.88 115.99 C 117.87 118.64 119.04 121.97 117.72 124.60 C 116.45 126.08 115.43 127.74 114.27 129.29 C 112.84 130.52 110.85 130.68 109.11 131.22 C 109.30 130.27 109.49 129.31 109.68 128.36 C 107.00 127.82 104.11 127.38 102.20 125.23 L 101.91 125.88 C 100.50 123.50 97.91 123.89 95.69 124.85 C 94.93 125.09 94.17 125.33 93.41 125.57 C 93.67 122.62 92.82 119.65 93.46 116.73 C 96.10 116.92 98.54 115.93 100.90 114.90 C 101.02 115.64 101.26 117.11 101.38 117.85 C 101.88 116.03 102.30 113.86 104.70 113.97 C 102.92 117.06 103.80 121.39 107.20 122.90 C 111.67 125.68 117.98 119.71 115.20 115.16 C 113.74 111.76 109.21 110.32 106.13 112.47 C 106.41 111.81 106.97 110.49 107.25 109.83 C 105.07 109.50 102.29 110.58 100.55 108.87 Z" />
</g>
<g id="#cff1efff">
<path fill="#cff1ef" opacity="1.00" d=" M 1.80 126.47 C 1.05 120.23 0.91 113.21 4.48 107.78 C 5.17 111.60 2.78 115.10 3.11 118.93 C 2.83 121.45 3.93 124.52 1.80 126.47 Z" />
</g>
<g id="#0f1117ff">
<path fill="#0f1117" opacity="1.00" d=" M 91.23 119.85 C 91.70 114.89 95.63 110.81 100.21 109.22 C 97.96 111.72 94.98 113.63 93.46 116.73 C 92.82 119.65 93.67 122.62 93.41 125.57 C 94.17 125.33 94.93 125.09 95.69 124.85 C 96.30 126.26 96.19 128.42 98.02 128.89 C 99.97 129.93 101.36 127.41 101.91 125.88 L 102.20 125.23 C 104.11 127.38 107.00 127.82 109.68 128.36 C 109.49 129.31 109.30 130.27 109.11 131.22 C 110.85 130.68 112.84 130.52 114.27 129.29 C 115.43 127.74 116.45 126.08 117.72 124.60 C 117.22 131.17 110.29 136.09 103.93 135.67 C 96.14 135.59 89.43 127.54 91.23 119.85 Z" />
</g>
<g id="#33405cff">
<path fill="#33405c" opacity="1.00" d=" M 100.21 109.22 L 100.55 108.87 C 102.29 110.58 105.07 109.50 107.25 109.83 C 106.97 110.49 106.41 111.81 106.13 112.47 C 105.66 112.98 105.18 113.48 104.70 113.97 C 102.30 113.86 101.88 116.03 101.38 117.85 C 101.26 117.11 101.02 115.64 100.90 114.90 C 98.54 115.93 96.10 116.92 93.46 116.73 C 94.98 113.63 97.96 111.72 100.21 109.22 Z" />
<path fill="#33405c" opacity="1.00" d=" M 42.58 233.94 L 43.02 234.24 L 43.02 234.69 C 41.82 242.46 45.12 250.58 51.55 255.13 C 52.47 259.10 54.31 263.08 57.90 265.29 C 62.09 268.32 67.38 268.59 72.35 268.82 C 76.49 272.10 81.50 274.49 86.91 274.24 C 90.50 273.79 93.51 276.38 97.05 276.44 C 100.64 276.77 104.03 275.42 107.45 274.62 C 112.54 276.98 118.26 279.41 123.95 277.80 C 129.52 276.77 133.57 272.54 137.21 268.54 L 137.18 269.30 C 136.45 270.15 135.72 271.01 135.00 271.87 L 134.49 272.45 C 131.44 275.65 127.50 278.07 123.06 278.68 L 122.48 278.76 C 117.11 279.24 111.96 277.43 107.20 275.14 C 101.39 277.35 94.61 277.66 89.07 274.52 C 87.57 274.64 86.08 274.73 84.58 274.78 L 83.99 274.72 C 83.30 274.64 81.92 274.49 81.24 274.41 C 77.80 273.47 74.77 271.56 71.98 269.40 C 71.06 269.32 70.13 269.23 69.21 269.16 C 62.19 268.97 54.13 265.72 52.03 258.36 C 51.33 254.28 47.01 252.62 45.26 249.12 C 42.31 244.62 42.26 239.11 42.58 233.94 Z" />
<path fill="#33405c" opacity="1.00" d=" M 142.43 289.26 C 149.02 286.07 156.58 285.31 163.82 285.74 C 169.06 286.38 174.84 288.27 177.64 293.13 C 180.05 296.83 179.03 301.99 175.77 304.84 C 170.19 309.88 163.25 313.05 156.48 316.12 C 150.11 318.24 143.78 320.90 137.03 321.46 C 133.60 321.82 130.15 320.03 128.55 316.97 C 129.76 317.19 130.98 317.42 132.19 317.65 L 130.35 317.95 C 132.30 320.61 135.90 320.90 138.91 320.42 C 147.09 319.06 154.80 315.81 162.33 312.45 C 166.85 310.12 171.41 307.65 175.12 304.11 C 177.00 302.37 178.10 299.94 178.28 297.38 C 176.11 298.81 174.99 301.30 172.93 302.86 C 168.01 306.61 162.64 309.90 156.76 311.91 C 157.07 311.59 157.71 310.96 158.02 310.64 C 165.12 306.85 173.34 303.33 177.37 295.92 L 177.49 294.66 C 174.54 288.58 167.25 286.36 160.93 286.64 C 154.59 285.93 148.58 288.23 142.43 289.26 Z" />
</g>
<g id="#f7fafbff">
<path fill="#f7fafb" opacity="1.00" d=" M 106.13 112.47 C 109.21 110.32 113.74 111.76 115.20 115.16 C 117.98 119.71 111.67 125.68 107.20 122.90 C 103.80 121.39 102.92 117.06 104.70 113.97 C 105.18 113.48 105.66 112.98 106.13 112.47 Z" />
<path fill="#f7fafb" opacity="1.00" d=" M 169.97 122.81 C 171.11 121.95 172.44 121.13 173.87 121.96 C 179.27 124.13 176.97 134.28 170.98 133.00 C 167.79 131.23 167.52 127.02 168.96 124.01 C 169.21 123.71 169.72 123.11 169.97 122.81 Z" />
</g>
<g id="#1c2332ff">
<path fill="#1c2332" opacity="1.00" d=" M 163.99 121.04 C 166.00 119.61 168.51 118.88 170.96 119.43 C 175.14 120.05 177.88 124.19 178.50 128.12 C 178.94 132.56 178.49 137.55 175.43 141.06 L 175.29 139.92 C 173.71 140.25 172.13 140.57 170.55 140.86 C 170.50 140.48 170.41 139.72 170.36 139.34 C 168.97 138.29 168.10 136.81 167.55 135.17 C 167.43 135.39 167.19 135.82 167.06 136.03 C 166.15 135.34 165.52 133.90 164.20 134.01 C 162.61 134.66 162.75 136.65 162.79 138.05 C 161.82 135.37 161.00 132.48 158.77 130.54 C 159.00 129.92 159.45 128.68 159.68 128.06 C 160.12 126.99 160.55 125.91 160.93 124.81 C 161.53 124.25 162.74 123.15 163.34 122.60 C 161.93 125.49 161.00 128.61 161.27 131.86 C 161.96 129.27 163.49 126.51 166.46 126.25 C 167.03 124.76 167.95 123.45 169.26 122.51 L 168.96 124.01 C 167.52 127.02 167.79 131.23 170.98 133.00 C 176.97 134.28 179.27 124.13 173.87 121.96 C 172.44 121.13 171.11 121.95 169.97 122.81 C 169.98 122.15 169.99 120.83 170.00 120.17 C 167.96 120.69 165.96 121.35 163.97 122.03 C 163.98 121.78 163.99 121.29 163.99 121.04 Z" />
</g>
<g id="#313e59ff">
<path fill="#313e59" opacity="1.00" d=" M 163.97 122.03 C 165.96 121.35 167.96 120.69 170.00 120.17 C 169.99 120.83 169.98 122.15 169.97 122.81 C 169.72 123.11 169.21 123.71 168.96 124.01 L 169.26 122.51 C 167.95 123.45 167.03 124.76 166.46 126.25 C 163.49 126.51 161.96 129.27 161.27 131.86 C 161.00 128.61 161.93 125.49 163.34 122.60 C 163.50 122.45 163.81 122.17 163.97 122.03 Z" />
</g>
<g id="#4a4f55ff">
<path fill="#4a4f55" opacity="1.00" d=" M 95.69 124.85 C 97.91 123.89 100.50 123.50 101.91 125.88 C 101.36 127.41 99.97 129.93 98.02 128.89 C 96.19 128.42 96.30 126.26 95.69 124.85 Z" />
</g>
<g id="#fac1a7ff">
<path fill="#fac1a7" opacity="1.00" d=" M 72.08 136.13 C 76.53 132.50 83.24 132.83 87.60 136.42 C 91.59 137.96 91.37 142.77 92.51 146.19 C 90.90 148.92 89.65 152.15 86.68 153.73 C 83.72 156.09 79.69 155.59 76.27 154.77 C 75.40 153.51 75.14 151.92 74.42 150.57 C 73.94 147.83 73.67 145.07 73.56 142.29 C 73.63 140.13 72.79 138.12 72.08 136.13 Z" />
</g>
<g id="#4b4f56ff">
<path fill="#4b4f56" opacity="1.00" d=" M 164.20 134.01 C 165.52 133.90 166.15 135.34 167.06 136.03 C 166.36 137.83 165.27 139.28 163.13 139.12 L 162.79 138.05 C 162.75 136.65 162.61 134.66 164.20 134.01 Z" />
</g>
<g id="#32231bff">
<path fill="#32231b" opacity="1.00" d=" M 138.09 148.99 C 144.13 146.48 151.27 147.79 156.65 151.30 L 157.12 152.62 C 155.44 151.98 153.71 151.75 151.95 151.92 C 148.92 150.75 145.31 150.59 142.62 152.67 C 140.73 154.28 141.78 157.19 143.70 158.26 C 147.10 160.83 152.03 160.30 155.08 157.45 C 156.72 156.52 158.59 155.52 157.59 153.26 L 158.72 153.39 C 159.54 155.87 159.92 159.04 157.92 161.08 C 155.06 164.38 150.29 165.04 146.16 164.78 C 140.96 164.41 135.17 161.99 133.12 156.83 C 132.31 153.31 135.00 150.22 138.09 148.99 Z" />
<path fill="#32231b" opacity="1.00" d=" M 75.54 186.19 C 86.58 191.80 98.12 196.52 110.29 199.05 C 102.52 198.58 95.25 195.46 88.05 192.75 C 83.79 190.79 79.19 189.23 75.54 186.19 Z" />
</g>
<g id="#553339ff">
<path fill="#553339" opacity="1.00" d=" M 142.62 152.67 C 145.31 150.59 148.92 150.75 151.95 151.92 C 149.38 154.47 152.22 157.28 155.08 157.45 C 152.03 160.30 147.10 160.83 143.70 158.26 C 141.78 157.19 140.73 154.28 142.62 152.67 Z" />
</g>
<g id="#9d3f3fff">
<path fill="#9d3f3f" opacity="1.00" d=" M 106.10 160.98 L 106.87 161.23 C 117.34 165.30 127.67 169.88 138.58 172.66 C 140.70 173.09 144.24 174.12 144.42 170.87 C 145.25 171.30 146.08 171.74 146.92 172.17 C 145.96 175.97 144.42 179.82 141.22 182.30 C 136.13 186.18 129.46 186.61 123.34 187.35 C 122.31 177.27 112.98 170.73 103.75 168.73 C 104.59 166.17 105.38 163.58 106.10 160.98 Z" />
</g>
<g id="#688997ce">
<path fill="#688997" opacity="0.81" d=" M 204.56 166.21 C 204.73 166.06 205.07 165.77 205.24 165.62 L 205.22 166.23 L 204.56 166.21 Z" />
<path fill="#688997" opacity="0.81" d=" M 205.99 165.12 L 206.62 165.14 C 206.46 165.28 206.14 165.57 205.98 165.71 L 205.99 165.12 Z" />
</g>
<g id="#4a6673b5">
<path fill="#4a6673" opacity="0.71" d=" M 200.58 168.74 C 198.50 170.35 199.09 166.69 200.98 167.75 L 200.58 168.74 Z" />
<path fill="#4a6673" opacity="0.71" d=" M 200.10 172.09 C 200.21 171.58 200.41 170.56 200.52 170.05 C 200.65 170.53 200.91 171.48 201.04 171.95 L 200.10 172.09 Z" />
</g>
<g id="#de7a6cff">
<path fill="#de7a6c" opacity="1.00" d=" M 103.75 168.73 C 112.98 170.73 122.31 177.27 123.34 187.35 C 115.90 187.17 107.33 183.94 104.42 176.50 C 103.14 174.10 103.68 171.32 103.75 168.73 Z" />
</g>
<g id="#6e8e9cd0">
<path fill="#6e8e9c" opacity="0.82" d=" M 196.25 180.20 L 196.78 180.11 C 196.67 180.26 196.46 180.57 196.36 180.73 L 196.25 180.20 Z" />
</g>
<g id="#59798ac1">
<path fill="#59798a" opacity="0.76" d=" M 189.09 185.14 C 189.54 184.88 190.43 184.36 190.88 184.10 C 190.43 184.36 189.54 184.88 189.09 185.14 Z" />
<path fill="#59798a" opacity="0.76" d=" M 186.31 186.29 C 186.73 184.75 187.65 184.37 189.09 185.14 C 188.40 186.06 187.48 186.44 186.31 186.29 Z" />
</g>
<g id="#39444dff">
<path fill="#39444d" opacity="1.00" d=" M 72.84 185.14 L 73.82 184.79 C 74.13 185.07 74.75 185.63 75.06 185.91 C 74.57 185.90 73.61 185.87 73.13 185.86 L 72.84 185.14 Z" />
</g>
<g id="#2175aeff">
<path fill="#2175ae" opacity="1.00" d=" M 73.13 185.86 C 73.61 185.87 74.57 185.90 75.06 185.91 L 75.54 186.19 C 79.19 189.23 83.79 190.79 88.05 192.75 C 95.25 195.46 102.52 198.58 110.29 199.05 L 110.79 199.13 C 111.49 199.50 112.19 199.89 112.89 200.28 C 110.32 201.78 108.04 203.74 106.32 206.17 C 96.38 203.97 86.61 199.95 78.90 193.15 C 76.60 191.07 74.32 188.78 73.13 185.86 Z" />
<path fill="#2175ae" opacity="1.00" d=" M 142.43 289.26 C 148.58 288.23 154.59 285.93 160.93 286.64 C 155.63 292.61 155.63 301.11 157.37 308.46 L 157.13 308.60 C 151.90 311.78 145.95 313.56 140.05 315.03 C 135.85 316.12 131.29 316.21 127.32 314.25 C 126.90 312.78 126.58 311.27 126.31 309.77 C 127.26 305.57 126.72 299.47 131.30 297.37 L 131.71 297.87 C 136.67 300.77 145.16 295.19 142.43 289.26 Z" />
<path fill="#2175ae" opacity="1.00" d=" M 70.91 288.03 L 71.72 287.64 C 74.63 291.78 80.87 291.60 84.43 288.45 C 86.61 286.05 89.77 288.25 92.33 288.71 C 96.76 291.34 100.08 295.74 101.25 300.77 C 101.57 304.15 101.63 307.56 101.63 310.96 C 99.96 311.99 98.29 313.04 96.62 314.09 C 95.44 307.90 91.78 301.77 85.74 299.34 C 80.11 297.13 73.21 296.45 67.89 299.82 C 65.07 301.50 63.06 304.18 61.35 306.92 C 60.45 306.25 59.55 305.58 58.64 304.92 C 60.78 298.08 65.76 292.77 70.91 288.03 Z" />
</g>
<g id="#00000022">
<path fill="#000000" opacity="0.13" d=" M 59.32 191.59 C 59.53 191.51 59.95 191.36 60.16 191.29 C 59.95 191.36 59.53 191.51 59.32 191.59 Z" />
<path fill="#000000" opacity="0.13" d=" M 60.95 191.24 L 61.36 191.13 L 61.27 191.39 L 61.11 191.62 L 60.95 191.24 Z" />
<path fill="#000000" opacity="0.13" d=" M 58.07 193.24 L 58.59 193.56 C 58.42 193.62 58.09 193.74 57.92 193.80 L 58.07 193.24 Z" />
<path fill="#000000" opacity="0.13" d=" M 57.46 193.70 L 57.92 193.80 C 57.76 193.93 57.44 194.19 57.28 194.32 L 57.46 193.70 Z" />
<path fill="#000000" opacity="0.13" d=" M 51.14 198.14 C 51.30 198.02 51.62 197.79 51.78 197.68 L 51.56 198.24 L 51.14 198.14 Z" />
<path fill="#000000" opacity="0.13" d=" M 50.52 198.56 C 50.67 198.45 50.98 198.24 51.14 198.14 L 51.03 198.52 L 50.52 198.56 Z" />
<path fill="#000000" opacity="0.13" d=" M 101.25 300.77 C 102.81 305.64 101.65 310.80 102.26 315.80 C 102.72 315.27 103.64 314.21 104.10 313.68 C 111.32 313.55 118.55 313.62 125.77 313.75 C 125.93 312.63 126.08 311.52 126.22 310.41 L 126.31 309.77 C 126.58 311.27 126.90 312.78 127.32 314.25 C 127.70 315.16 128.11 316.07 128.55 316.97 C 130.15 320.03 133.60 321.82 137.03 321.46 C 143.78 320.90 150.11 318.24 156.48 316.12 C 160.23 317.11 163.38 313.68 167.06 313.33 C 173.03 312.79 179.07 313.15 185.00 314.04 C 192.50 314.33 199.98 315.32 207.35 316.71 C 209.81 317.17 213.22 318.64 212.69 321.72 C 210.74 324.41 207.01 324.46 204.06 325.19 C 194.41 326.38 184.76 327.97 175.02 327.86 C 167.72 329.07 160.32 328.80 152.95 328.82 C 149.28 328.78 145.69 329.72 142.02 329.72 C 126.33 329.86 110.64 329.67 94.96 329.79 C 91.95 329.84 89.03 329.09 86.05 328.88 C 78.71 328.59 71.30 329.34 64.03 328.06 C 60.40 327.51 56.70 328.00 53.06 327.50 C 44.24 326.34 35.09 326.33 26.62 323.32 C 24.16 322.49 24.79 318.80 26.80 317.81 C 36.69 314.31 47.44 315.29 57.55 313.04 C 58.58 314.72 59.78 316.42 61.69 317.17 C 70.84 321.37 81.05 322.06 90.97 322.32 C 93.95 322.30 97.37 321.80 99.22 319.16 C 99.45 318.84 99.92 318.20 100.16 317.89 C 101.26 315.75 101.64 313.34 101.63 310.96 C 101.63 307.56 101.57 304.15 101.25 300.77 Z" />
</g>
<g id="#f2dfc4ff">
<path fill="#f2dfc4" opacity="1.00" d=" M 174.54 191.74 L 174.99 191.35 C 176.90 191.35 178.98 191.66 180.23 193.29 C 178.17 193.46 175.99 193.21 174.22 192.05 L 174.54 191.74 Z" />
</g>
<g id="#2179b1ff">
<path fill="#2179b1" opacity="1.00" d=" M 131.24 201.15 C 136.63 201.28 142.00 200.63 147.33 199.86 C 144.23 203.31 139.83 205.05 135.49 206.36 C 134.13 204.58 132.40 203.08 131.24 201.15 Z" />
</g>
<g id="#f2bb67ff">
<path fill="#f2bb67" opacity="1.00" d=" M 105.79 210.20 C 106.68 205.36 111.72 199.79 117.20 200.56 C 116.14 201.81 115.14 203.11 114.12 204.39 C 114.76 205.25 114.89 206.70 116.09 206.98 C 118.03 207.82 119.58 205.90 120.93 204.82 C 120.29 203.37 119.61 201.94 118.84 200.56 C 122.58 201.52 126.50 200.86 130.21 201.90 C 129.76 202.28 128.86 203.06 128.41 203.44 C 132.14 207.42 132.79 213.20 132.71 218.41 L 131.96 218.98 C 132.20 216.85 131.80 214.25 129.55 213.34 C 126.90 211.85 123.76 214.21 123.42 216.96 C 123.49 219.09 125.05 221.09 127.25 221.32 L 127.42 222.38 C 127.16 223.45 126.91 224.53 126.66 225.61 C 119.65 228.25 109.79 226.63 106.89 218.85 C 108.38 219.08 109.87 219.32 111.37 219.57 C 112.14 217.26 113.16 215.04 114.29 212.89 C 114.39 211.17 114.00 208.92 111.91 208.71 C 109.46 207.84 108.22 210.64 106.83 212.09 C 106.57 211.62 106.05 210.67 105.79 210.20 Z" />
</g>
<g id="#f6d68dff">
<path fill="#f6d68d" opacity="1.00" d=" M 117.20 200.56 C 117.61 200.56 118.43 200.56 118.84 200.56 C 119.61 201.94 120.29 203.37 120.93 204.82 C 119.58 205.90 118.03 207.82 116.09 206.98 C 114.89 206.70 114.76 205.25 114.12 204.39 C 115.14 203.11 116.14 201.81 117.20 200.56 Z" />
</g>
<g id="#efb052ff">
<path fill="#efb052" opacity="1.00" d=" M 130.21 201.90 C 132.20 203.73 134.64 205.70 134.99 208.56 C 136.31 215.39 134.46 222.96 128.82 227.37 C 128.74 225.55 128.61 223.73 128.56 221.91 C 129.38 220.63 130.82 219.94 131.96 218.98 L 132.71 218.41 C 132.79 213.20 132.14 207.42 128.41 203.44 C 128.86 203.06 129.76 202.28 130.21 201.90 Z" />
</g>
<g id="#f9eaa1ff">
<path fill="#f9eaa1" opacity="1.00" d=" M 106.83 212.09 C 108.22 210.64 109.46 207.84 111.91 208.71 C 114.00 208.92 114.39 211.17 114.29 212.89 C 111.79 211.68 109.20 212.16 107.08 213.85 L 106.66 212.87 L 106.83 212.09 Z" />
</g>
<g id="#d98522ff">
<path fill="#d98522" opacity="1.00" d=" M 134.99 208.56 C 140.43 215.07 136.11 227.13 128.20 229.86 C 128.36 229.24 128.67 227.99 128.82 227.37 C 134.46 222.96 136.31 215.39 134.99 208.56 Z" />
</g>
<g id="#fce1c6ff">
<path fill="#fce1c6" opacity="1.00" d=" M 200.57 210.28 C 203.30 209.56 206.17 210.06 208.88 210.63 C 211.27 211.16 211.35 214.51 209.16 215.37 C 205.83 217.03 201.94 216.24 198.35 216.48 L 198.68 215.22 C 202.01 214.15 207.67 216.47 209.11 212.20 C 206.40 211.35 202.13 213.15 200.57 210.28 Z" />
</g>
<g id="#eba73fff">
<path fill="#eba73f" opacity="1.00" d=" M 109.44 227.47 C 105.05 223.17 102.64 215.69 105.79 210.20 C 106.05 210.67 106.57 211.62 106.83 212.09 L 106.66 212.87 C 105.92 214.84 106.10 216.93 106.89 218.85 C 109.79 226.63 119.65 228.25 126.66 225.61 C 126.91 224.53 127.16 223.45 127.42 222.38 L 128.04 221.86 C 128.58 225.18 128.00 228.56 126.14 231.38 C 120.37 232.23 113.77 231.88 109.44 227.47 Z" />
</g>
<g id="#f6d48aff">
<path fill="#f6d48a" opacity="1.00" d=" M 107.08 213.85 C 109.20 212.16 111.79 211.68 114.29 212.89 C 113.16 215.04 112.14 217.26 111.37 219.57 C 109.87 219.32 108.38 219.08 106.89 218.85 C 106.10 216.93 105.92 214.84 106.66 212.87 L 107.08 213.85 Z" />
</g>
<g id="#f5e9d9ff">
<path fill="#f5e9d9" opacity="1.00" d=" M 34.74 217.56 L 35.72 217.59 C 35.90 217.98 36.25 218.77 36.43 219.16 C 35.53 220.94 34.41 218.56 34.74 217.56 Z" />
</g>
<g id="#fde6ccff">
<path fill="#fde6cc" opacity="1.00" d=" M 160.19 224.34 C 163.32 224.53 166.50 224.77 169.42 226.02 C 166.21 226.67 162.52 227.23 160.19 224.34 Z" />
</g>
<g id="#f6b193ff">
<path fill="#f6b193" opacity="1.00" d=" M 69.83 269.42 C 70.37 269.41 71.44 269.41 71.98 269.40 C 74.77 271.56 77.80 273.47 81.24 274.41 C 77.67 275.34 73.94 275.58 70.55 273.88 C 70.31 272.39 70.07 270.90 69.83 269.42 Z" />
</g>
<g id="#f8b395ff">
<path fill="#f8b395" opacity="1.00" d=" M 123.06 278.68 C 127.50 278.07 131.44 275.65 134.49 272.45 C 134.81 272.84 135.44 273.60 135.76 273.98 C 136.00 274.54 136.48 275.64 136.72 276.19 C 136.67 276.61 136.57 277.45 136.51 277.87 C 136.74 283.39 130.10 284.26 125.94 284.33 C 125.64 283.27 125.03 282.48 124.10 281.96 C 124.49 280.66 124.15 279.56 123.06 278.68 Z" />
</g>
<g id="#bebcbbff">
<path fill="#bebcbb" opacity="1.00" d=" M 169.06 302.06 C 172.02 299.76 174.44 296.85 177.49 294.66 L 177.37 295.92 C 173.34 303.33 165.12 306.85 158.02 310.64 C 157.80 310.13 157.36 309.11 157.13 308.60 L 157.37 308.46 C 161.31 306.42 165.46 304.69 169.06 302.06 Z" />
</g>
<g id="#849da8ff">
<path fill="#849da8" opacity="1.00" d=" M 172.93 302.86 C 174.99 301.30 176.11 298.81 178.28 297.38 C 178.10 299.94 177.00 302.37 175.12 304.11 C 171.41 307.65 166.85 310.12 162.33 312.45 C 154.80 315.81 147.09 319.06 138.91 320.42 C 135.90 320.90 132.30 320.61 130.35 317.95 L 132.19 317.65 C 140.81 318.85 148.92 314.88 156.76 311.91 C 162.64 309.90 168.01 306.61 172.93 302.86 Z" />
</g>
</svg>
