<?xml version="1.0" encoding="utf-8"?>
<!-- Generator: Adobe Illustrator 24.0.1, SVG Export Plug-In . SVG Version: 6.00 Build 0)  -->
<svg version="1.1" id="Layer_1" xmlns="http://www.w3.org/2000/svg" xmlns:xlink="http://www.w3.org/1999/xlink" x="0px" y="0px"
	 viewBox="0 0 292.86 447.43" style="enable-background:new 0 0 292.86 447.43;" xml:space="preserve">
<style type="text/css">
	.st0{fill:#FEFEFD;}
	.st1{fill:#FEE568;}
	.st2{fill:#005EF5;}
	.st3{fill:#E8412E;}
	.st4{fill:#4C4F4E;}
	.st5{fill:#C0D5D9;}
	.st6{fill:#F69F97;}
	.st7{fill:#F6A441;}
	.st8{fill:none;stroke:#000000;stroke-miterlimit:10;}
</style>
<g>
	<path d="M0.78,0.93h0.26C0.98,1,0.85,1.13,0.78,1.19V0.93z"/>
	<path d="M125.9,13.07c3.45-3.4,9.08-3.94,13.2-1.47c3.7,1.86,5.06,6,6.95,9.38c-0.63,2.29-1.26,4.61-2.38,6.72
		c0.82-3.33,1.27-7.02-0.37-10.19c-2.44-5.29-9.81-8.77-14.94-5.05c-4.86,2.88-6.88,8.91-5.41,14.27c-0.54-1.14-1.05-2.29-1.57-3.44
		c-3.59,0.73-7.16,1.5-10.72,2.36c3.27-1.48,6.83-2.23,10.09-3.73C122.76,19.16,123.2,15.38,125.9,13.07z"/>
	<path d="M132.11,13.94c2.1,1.56,3.9,3.48,5.31,5.69c-1.83-1.74-4.05-2.99-6.56-3.37C131.28,15.48,131.69,14.71,132.11,13.94z"/>
	<g>
		<path d="M181.75,30.88c4.91-4.73,8.08-10.93,13.14-15.52c5.99,6.39,7.05,15.45,8.77,23.65c1.62,7.22,0.96,14.63,1.08,21.96
			c-0.05,3.82,2.02,7.12,3.66,10.42c2.96,5.74,3.81,12.23,5.5,18.39c10.05-1.29,20.26-4.61,30.39-2.34
			c-10.01,1.71-20.3,1.35-30.19,3.88c-0.28,8.39-1.29,16.85-4.11,24.8c-11.88-6.77-25.92-7.57-39.25-8.32
			c-6.4-0.7-11.38,3.88-16.99,6.04c3.02-2.02,6.26-3.66,9.43-5.42c-5.47-0.03-9.92-3.21-14.77-5.17c-4.54-1.57-8.14,2.45-11.41,4.91
			c-2.72,2.51-6.34,3.46-9.75,4.62c3.9,0.61,7.83,1.08,11.68,2c-6.36-0.15-12.73-2.67-19.05-0.8c-13.65,3.54-27.59,7.61-39.32,15.7
			c-2.94,2.38-7.28,5-6.43,9.42c-5.11-5.66-7.35-13.08-10.39-19.9c-3.97,1.21-8.08,1.82-12.22,1.95l0.44-0.27
			c3.73-1.6,7.7-2.51,11.65-3.44c-0.8-7.42-1.03-14.92-0.6-22.37c0.27-4.33,3.11-8.27,2.4-12.67c-0.55-3.85-1.23-7.68-1.57-11.55
			c1.27-0.26,2.67-0.59,3.5-1.69c0.73-0.59,0.49-2.42-0.71-1.7c-1.19,0.68-2.02,1.81-2.87,2.85c-1.4-8.29-1.22-16.77-0.73-25.13
			c0.16-4.22,2.44-7.91,5.62-10.54c3.93,2.83,7.52,6.12,11.46,8.93c3.68,2.63,7.99,4.11,12.22,5.6c0.16-3.01,0.23-6.03,0.2-9.04
			c0.61-0.81,1.24-1.62,1.87-2.42c-0.79,3.49-0.98,7.06-0.85,10.63c8.21-4.13,16.5-8.24,25.44-10.58c-1.33,0.73-2.64,1.5-3.94,2.27
			c3.63,7.66,7.01,15.43,10.14,23.31c0.7,0.09,2.12,0.27,2.83,0.36c-0.79-6.69-2.24-13.29-4.24-19.73c-0.7-2.47-2.17-4.61-3.89-6.48
			c3.61-0.68,7.26-1.06,10.9-1.53c-1.61-1.39-3.24-2.77-4.73-4.29c2.36,1.45,4.92,2.88,7.76,2.97c2.55-0.11,4.74-1.61,6.9-2.81
			c-0.32,0.58-0.96,1.76-1.28,2.34c9.49,0.32,19.26,0.12,28.35,3.25c0.67,7.74-1.12,15.41-3.83,22.62c5.7-0.36,10.27,3.3,15.14,5.6
			c-2.68-4.64-7.87-6.34-12.07-9.15c-0.58-1.56,0.04-3.26,0.19-4.85c0.86-4.41,1.2-8.92,2.26-13.29c2.43-2.97,1.15-6.81,0.25-10.15
			l0.5,0.31c1.42,3.45,2.03,7.15,2.31,10.86C175.6,36.53,178.78,33.82,181.75,30.88z M190.55,42.23c2.48,4.1,6.08,7.51,10.19,9.96
			c-2.29-3.1-5.24-5.59-7.81-8.44c-2.09-2.18-2.07-5.36-2.85-8.1C189.67,37.86,189.28,40.2,190.55,42.23z M65.54,49.02
			c3.31,2.85,7.73,3.58,11.57,5.45c-0.2-0.48-0.58-1.44-0.78-1.92C72.71,51.44,69.16,50.13,65.54,49.02z M191.78,49.65
			c1.96,2.86,4.4,5.35,7.27,7.3C197.43,53.81,194.91,51.27,191.78,49.65z M88.96,50.88c-0.21,0.29-0.65,0.88-0.86,1.17
			C88.86,55.15,92.28,50.23,88.96,50.88z M85.12,54.13c-0.96,0.3-2.4,1.35-1.83,2.5C84.92,57.95,88.08,53.76,85.12,54.13z
			 M79.03,60.27c-1.3,0.2-2.58,1.88-1.93,3.15C78.58,64.2,80.75,60.97,79.03,60.27z M117.55,60.9c2.56,4.89,7.47,8.96,13.21,8.95
			c5.01-0.15,9.99-0.73,14.99-1.18c4.15-0.08,8.65-1.34,10.39-5.53c-3.08,2.38-6.5,4.68-10.56,4.59c-6.73,0.04-13.57,0.9-20.24-0.29
			C122.5,65.57,120.24,62.97,117.55,60.9z M100.71,73.92c3.48-3,5.64-8.69,10.92-8.57c-0.7-1.11-1.41-2.22-2.12-3.32
			C105.56,65.11,102.02,68.95,100.71,73.92z M163.07,69.11c-4.1,1.64-6.04,6.12-7.02,10.13c-1.86,9.31,1.5,20.46,10.1,25.34
			c4.33,2.81,10.22,0.6,12.77-3.57c2.92-4.08,3.48-9.27,2.84-14.12c-0.38-6.58-3.82-12.93-9.27-16.65
			C169.77,68.37,166.15,67.97,163.07,69.11z M67.72,78.97c1.79-2.49,3.15-5.27,4.03-8.2C69.57,73.02,68.31,75.93,67.72,78.97z
			 M142.7,74.7c-2.33,0.52-4.73,0.34-7.03,0.97c7.5,0.33,16.11,0.27,22.28-4.61C152.96,72.59,148,74.61,142.7,74.7z M114.36,73.5
			c-7.96,4.08-10.56,14.09-9.62,22.4c0.79,6.65,4.76,14.26,12.02,15.32c6.61,1.3,12.82-4.07,14.19-10.32
			c2.98-4.09,2.02-9.72,1.52-14.43c-1.26,4.92-0.81,10.08-2.09,15.02c-2.44,2.31-4.85,5.6-8.6,5.41c-3.71,0.29-6.62-2.59-8.54-5.41
			c-3.64-5.8-2.46-13.49,1.02-19.07c2.05-3.18,5.9-6.31,9.91-4.91c4.2,1,5.42,5.59,7.83,8.59c-0.45-4.29-2.64-9.04-7.02-10.45
			C121.55,74.63,118.01,71.46,114.36,73.5z M115.16,83.62c0.49,0.71,1.48,2.12,1.97,2.83c0.57-0.2,1.71-0.61,2.28-0.81
			c2.04-1.68,0.28-4.32-0.74-6.02C117.39,80.86,116.34,82.29,115.16,83.62z M124.75,99.25c5.96-3.33,6.01-13.36,0.08-16.8
			C119.73,86.26,118.62,95.99,124.75,99.25z M114.59,90.98c0.42,1.1,0.89,2.18,1.41,3.23c2.7-0.93,2.73-3.5,1.79-5.81
			C116.73,89.19,114.92,89.55,114.59,90.98z M201.75,93.79c3.8-0.25,7.55-1.13,11.03-2.7C208.97,91.33,205.21,92.16,201.75,93.79z
			 M143.12,92.17c-2.2,1.07-4.51,3.02-4.46,5.68c1.08,5.59,10.65,6.31,12.43,1.01C152.68,94.41,147.05,90.39,143.12,92.17z
			 M195.09,95.05c-0.59,0.09-2.65,1.26-1.28,1.77c1.47,0.06,3.34-0.09,4.32-1.32C197.96,94.16,195.92,94.77,195.09,95.05z
			 M184.12,98.97c-1.39-0.04-2.69,2.36-0.52,2.08C185.99,101.42,187.31,97.79,184.12,98.97z M70.34,116.57
			c-1.73,0.37-3.4,0.98-5.01,1.71c12.75-1.98,25.52-4.19,38.46-4.52c4.36-0.03,8.78,0.35,13.1-0.45
			C101.3,112.19,85.69,113.9,70.34,116.57z"/>
	</g>
	<path d="M125.62,25.53c1.43-3.26,3.12-6.41,5.24-9.27c-0.82,2.15-1.7,4.28-2.47,6.45c1.32,1.79,2.35,3.75,3.32,5.74
		c1.8,0.26,3.6,0.51,5.39,0.77c-0.42-2.76-0.6-5.7,2.19-7.27c-0.33-0.41-0.99-1.23-1.32-1.63c1.38,0.99,2.69,2.09,3.99,3.2
		c-1.4,0.19-2.8,0.4-4.19,0.62c0.31,1.77,0.62,3.55,0.93,5.32c-2.91,0.27-5.82,0.58-8.71,0.98c0.02-1.78-0.01-3.57-0.35-5.32
		C128.29,25.1,126.95,25.32,125.62,25.53z"/>
	<path d="M137.42,19.63c0.07,0.09,0.22,0.27,0.29,0.36C137.64,19.9,137.49,19.72,137.42,19.63z"/>
	<path d="M137.71,19.99c0.06,0.08,0.2,0.24,0.26,0.33C137.91,20.23,137.77,20.07,137.71,19.99z"/>
	<path d="M146.77,21.08c7.73,0.51,15.7,1.91,22.24,6.3C161.88,24.36,154.25,22.95,146.77,21.08z"/>
	<path d="M94.4,37.71c4.23-5.39,9.78-9.74,16.26-12.06C104.93,29.24,99.59,33.39,94.4,37.71z"/>
	<path d="M169.01,27.38l0.35,0.21l0.04,0.23C169.31,27.71,169.11,27.49,169.01,27.38z"/>
	<path d="M169.4,27.82l0.33-0.01v0.39C169.65,28.11,169.49,27.91,169.4,27.82z"/>
	<g>
		<path d="M167.34,72.53c2.7-1.05,5.72,0.2,7.67,2.16c5.35,4.93,7.11,12.93,5.18,19.82c-1.3,4.06-5.56,7.76-10.01,6
			c-7.13-3.24-10.25-11.98-9.12-19.38C161.38,77.38,163.97,74.08,167.34,72.53z M164.92,75.71c-1.08,1.49-2.94,3.52-1.22,5.31
			c0.94,2.47,3.67,0.56,4.12-1.23C167.64,78.01,166.08,76.89,164.92,75.71z M170.94,77.73c-3.1,3.56-1.82,8.92,0.44,12.55
			c0.96,1.81,3.25,2.59,5.06,1.53c2.56-4.08,1.4-9.55-1.42-13.17C174.11,77.37,172.3,77.29,170.94,77.73z M164.38,85.48
			c-1.88,1.43,0.14,3,1.39,3.9c0.92-0.82,1.84-1.64,2.77-2.45C167.18,86.26,165.76,83.28,164.38,85.48z"/>
	</g>
	<path d="M39.85,123.01c-2.35-4.55-4.31-9.51-3.76-14.74c1.09,4.83,0.99,10.84,5.37,14.08c3.11,2.17,6.79-0.03,9.75-1.38l0.31,0.18
		c0.41,0.23,1.22,0.68,1.62,0.91c-5.6,1.52-10.81,4.24-16.48,5.54c2.46-1.33,5.02-2.47,7.55-3.68c-3.35-0.2-6.79-0.69-10.09,0.13
		c-2.64,2.09-4.31,6.34-8.3,5.87c-3.58,0.47-6.07-2.31-8.29-4.64c-2.28,0.07-4.55,0.16-6.83,0.2c2.31-0.55,4.64-0.99,6.97-1.44
		c-0.29-2.6-0.58-5.2-0.76-7.8c0.46-1.19,0.96-2.37,1.46-3.54c-0.53,4.2-1.03,8.71,0.82,12.68c1.84,4.71,9.59,5.46,11.96,0.83
		c3.62-5.08,1.81-11.55,1.44-17.27l0.12-0.75c1.27,4.87,1.82,9.91,1.2,14.93C35.89,123.08,37.87,123.05,39.85,123.01z"/>
	<path d="M157.8,120.31c2.72-0.15,4.41-2.46,6.38-4.02c-2.62,6.67-11.78,5.78-16.69,2.31c-5.08,4.7-12.69,5.41-18.96,2.87
		c3.98,0.36,8.05,1.37,12.01,0.35c2.65-0.67,4.6-2.71,6.64-4.39C150.28,119.54,153.97,121.12,157.8,120.31z"/>
	<path d="M35.27,131.44c2.06-0.87,3.87-2.22,5.82-3.29c-1.55,1.47-3.06,3.15-5.14,3.86c-3.38,1.01-7.11,0.25-10.39,1.64
		c-3.2,1.69-5.9,4.45-7.39,7.75c-1.36,3.13-0.13,6.54,0.07,9.77c-1.75-3.86-2.07-8.73,0.43-12.35c1.73-2.54,4.07-4.76,6.91-5.99
		C28.71,131.84,32.14,132.5,35.27,131.44z"/>
	<path d="M143.64,131.76c3.35-0.86,6.8-1.39,10.26-1.58C150.65,131.51,147.11,131.78,143.64,131.76z"/>
	<g>
		<path d="M138.78,160.98c16.28-0.23,33.16-3.41,46.76-12.84c0.02,4.09,0.83,8.11,1.94,12.03c-2.24,6.93-6.29,13.07-11.19,18.4
			c3.19-1.79,6.76-2.83,10.45-2.5c8.14,0.42,16.22-0.87,24.34-1.26c-1.69-5.44-4.61-10.43-6.01-15.96
			c2.87,4.89,5.18,10.09,6.88,15.51c4.04,0,8.05-0.5,11.99-1.39c-3.47-7.23-6.47-15.29-12.89-20.47c0.67-0.25,1.33-0.5,2-0.75
			c4.26,6.89,8.83,13.65,11.64,21.31c0.16,0.34,0.49,1.01,0.66,1.35c-1.36-0.04-2.72-0.08-4.07-0.11c0.06,7.01,3.22,14.05,9.16,18
			c5.98,4.41,14.1,4.58,20.93,2.23c2.37-0.8,4.11-2.68,5.85-4.39c3.83,2.47,8.14,5.79,8.4,10.73c-0.5,6.19-3.46,11.92-7.02,16.9
			c-6.21,9.02-14.6,16.13-23.22,22.74c-2.32,1.66-2.42,4.71-3.1,7.23c-1.19,0.02-2.39,0.06-3.58,0.11c1.31-0.55,2.61-1.15,3.92-1.73
			c-0.18-10.67-4.98-21.32-13.61-27.76c5.44-2.72,9.41-7.42,13.92-11.36c-8.06-3.42-16.75-5.01-25.42-5.78
			c-1.07,0.09-2.97-0.4-3.3,1.02c-2.44,6.66-2.53,13.9-4.46,20.7c-11.54-4.3-23.05-9.19-35.35-10.87c-2.34-0.33-5.13-0.09-6.59,2.02
			c-0.83,4.64-0.21,9.41,0.6,14.01c0.82,4.52,4.71,7.45,7.93,10.33c-2.07,5.32-2.44,11.06-3.34,16.65c2.83-0.14,5.66-0.29,8.49-0.45
			c0.11-3.1,0.44-6.26-0.18-9.33c-0.73-2.19-2.31-3.95-3.67-5.77c1.81,1.61,4.37,2.99,4.69,5.65c0.8,5.58-0.61,11.15-0.71,16.73
			c-0.16,6.99,0.13,13.99-0.1,20.98c-0.01,3.26-0.25,6.57,0.43,9.79c1.54,5.35,8.31,8.33,13.32,5.89c2.86-4.18,3.54-9.4,5.41-14.05
			c-0.91,4.81-1.49,9.96-4.22,14.15c-3.66,3.48-9.63,1.64-12.83-1.61c-3.47-3-2.67-7.99-3.05-12.07c-2.44-0.14-4.88-0.28-7.32-0.44
			c-4.18-9.05-7.23-18.61-11.85-27.43c-0.32,0-0.97,0.02-1.29,0.03c-4.63,7.69-7.71,16.22-12.02,24.09c-0.9,1.32-1.76,3.18-3.53,3.4
			c-9.16,1.13-18.27-1.54-27.44-0.59c-5.05-1.35-10.43-1.01-15.36-2.89c5.39-9.82,12.68-18.41,18.42-28.02
			c8.29,1.23,16.68,1.54,25.05,1.9c-0.61-7.69-1.75-15.33-2.55-23.01c-10.18,0.19-20.29-1.04-30.43-1.5
			c-2.6-6.98-4.95-14.07-6.85-21.27c-13.03,6.16-26.8,10.95-41.05,13.25c-3.66,0.48-7.51,1.05-11.1-0.06
			c-3.32-1.99-5.26-5.54-7.3-8.71c-6.7-11.7-12.13-24.06-17.16-36.56c8.43,0,16.75-2.52,23.61-7.45c2.17,5.02,4.07,10.14,6.05,15.24
			c0.38-8.33-0.27-16.67,0.33-24.99l0.94,0.01c-0.32,8.93-0.78,17.93,0.31,26.83c0.54,3.2,2.09,6.07,3.68,8.85
			c7.11-2.3,14.66-3.18,21.46-6.39c2.52-0.19,5.04-0.3,7.56-0.39c-2.16-6.79-3.54-13.82-3.98-20.94c1.74,0.21,3.47,0.48,5.21,0.73
			c-1.47,0.03-2.93,0.09-4.4,0.18c0.62,6.88,2.09,13.67,4.35,20.2c4.92-0.13,9.83-0.52,14.73-0.92
			c14.53,19.6,35.61,34.35,59.1,41.05c-0.38-3.98-0.81-7.95-1.24-11.93c-14.47-5.9-28.13-13.94-40.06-24.04
			c-3.22-2.47-5.87-7.01-10.54-6.17c2.49-0.64,4.95-1.41,7.4-2.17c-4.88-4.69-9.02-10.08-13.74-14.89
			c-4.6-0.61-9.29-0.28-13.88-1.13c4.66,0.06,9.31-0.15,13.96-0.2c1.3-4.12,2.26-8.37,2.42-12.7
			C113.97,159.48,126.41,160.74,138.78,160.98z M136.89,162.36c-1.16,0.27-1.91,2.02-1.01,2.93
			C137.43,166.03,138.66,162.56,136.89,162.36z M145.41,162.33c-0.46,1.47,1.67,3.48,3.12,3.03
			C149.17,163.78,146.98,161.64,145.41,162.33z M134.15,168.47c-1.18,0.7-1.98,2.62-1.18,3.84
			C134.54,172.59,135.83,168.93,134.15,168.47z M143.11,174.15c-5.39,1.19-6.61,9.65-1.44,11.94c4.07,2.74,10.32-1.26,9.41-6.16
			C151.23,176.02,146.71,172.91,143.11,174.15z M206.21,175.78c-0.17,8.11-1.29,16.13-2.07,24.19
			C206.66,192.26,207.33,183.79,206.21,175.78z M162.14,184.42c-0.6,1.43,0.6,4.2,2.3,4.01C165.04,187,163.83,184.23,162.14,184.42z
			 M169.15,185.11c-0.95,0.32-2.42,1.35-1.86,2.52C168.91,188.93,172.11,184.71,169.15,185.11z M116.3,187.26
			c-0.61,1.45,1.69,3.06,2.98,2.35C119.89,188.16,117.58,186.55,116.3,187.26z M126.18,191.42c-1.11-0.07-2.41,1.34-1.66,2.39
			C125.86,194.96,128.13,191.97,126.18,191.42z M91.94,191.83c-0.03,5.14,0.69,10.31,2.62,15.1
			C93.97,201.86,93.36,196.75,91.94,191.83z M236.14,203.13c-1.14,0.41-2.2,1.47-2.2,2.74
			C235.06,208.08,239.18,202.88,236.14,203.13z M133.57,232.25c0.04,0.62,0.13,1.86,0.18,2.48c1.15,6.77,1.27,13.69,2.79,20.4
			c8.42-0.14,16.84,0.02,25.27-0.1c1.54-5.52,2.05-11.24,2.67-16.91c-1.3-1.35-2.6-2.7-3.9-4.04l-0.91,0.02l0.11-1.3
			C151.05,232.31,142.3,232.63,133.57,232.25z"/>
	</g>
	<path d="M223.01,148.3l0.74-0.21c0.19,0.51,0.59,1.55,0.79,2.06C224.16,149.69,223.39,148.77,223.01,148.3z"/>
	<path d="M224.54,150.15c0.13,0.15,0.38,0.44,0.51,0.59C224.92,150.59,224.67,150.3,224.54,150.15z"/>
	<path d="M225.05,150.74c0.03,0.04,0.1,0.11,0.13,0.15C225.15,150.85,225.08,150.78,225.05,150.74z"/>
	<path d="M225.18,150.89c2.5,2.2,4.67,4.72,5.94,7.83C229.17,156.09,227.18,153.49,225.18,150.89z"/>
	<path d="M38.88,157.52c-0.52-1.72,1.58-2.81,2.93-3.27c0.02,0.33,0.05,1,0.07,1.34C41.17,156.43,40.2,158.11,38.88,157.52z"/>
	<path d="M202.77,155.86l0.75,0.27c0.7,0.79,1.22,1.69,1.55,2.72C203.54,158.98,201.91,157.37,202.77,155.86z"/>
	<path d="M231.12,158.72c2.75,3.35,5.26,6.89,7.17,10.8c0.67,0.23,2.03,0.7,2.7,0.93c-2.38,0.73-4.84,1.17-7.29,1.55
		c1.23-0.59,2.45-1.22,3.67-1.84C235.29,166.34,233.2,162.54,231.12,158.72z"/>
	<path d="M62.7,164.61l0.78,0.28c-0.13,7.37,0.17,14.74,0.62,22.09C62.28,179.67,62.93,172.07,62.7,164.61z"/>
	<path d="M70.9,166.79l0.79,0.18c0.52,7.45,0.15,15.04,2.44,22.25l-1.04-0.08C71.33,181.81,71.18,174.27,70.9,166.79z"/>
	<g>
		<path d="M163.01,215.74c1.1,5.45,0.64,11.43,3.51,16.39c3.59,5.38,9.77,8.18,15.54,10.62c5.94,2.2,12.11,4.46,18.53,4.38
			c1.4-1.38,1.97-3.32,2.47-5.17c1.29-5.25,2.06-10.64,2.07-16.06c0.59,0.72,1.17,1.47,1.75,2.21c-0.36,0.93-0.72,1.86-1.08,2.79
			c0.89-0.34,1.78-0.67,2.67-1.01c-3.35,3.27-4.03,7.97-4.78,12.36c3.01-3.33,6.51-6.34,10.93-7.56
			c-3.72,5.97-8.43,11.31-11.45,17.72c-0.44,0.11-1.32,0.34-1.75,0.45c-0.36-1.79-0.72-3.57-1.11-5.35
			c-1.1,2.67-2.29,5.49-2.24,8.42c1.28,3.32,3.89,5.9,5.79,8.87c2.67,3.55,4.7,8.91,10.04,8.59c-0.97,0.35-1.93,0.71-2.89,1.07
			c0.6,1.69,1.21,3.38,1.82,5.07c-5.02,1.72-10.36,2.1-15.48,3.35c-2.16,0.11-4.3,0.38-6.43,0.74c3.39-11.68,6.05-23.56,7.65-35.61
			c-10.35-1.86-20.95-4.93-29.26-11.65C163.17,231.48,162.91,222.92,163.01,215.74z M205.95,241.25c-2.45,3.19-5.44,6.8-4.13,11.12
			c3.28-5.02,6.66-10.01,9.7-15.19C209.16,237.73,207.39,239.4,205.95,241.25z"/>
	</g>
	<path d="M181.92,232.01c-0.06-2.76,3.02-3.75,4.88-5.12c3.02,1.96,5.29,5.78,3.14,9.19C187.24,240.13,181.38,235.97,181.92,232.01z
		"/>
	<path d="M219.31,248.11c0.49-0.01,1.48-0.04,1.97-0.05l0.41,0.28c-1.09,1.18-2.47,2.23-2.9,3.86c-2.05,4.97,0.91,10.64-2.09,15.37
		c0.53-2.69,0.9-5.41,0.8-8.16c-2.67,2.48-5.33,5.03-8.52,6.83c2.69-2.69,6.1-4.93,7.54-8.61
		C217.74,254.55,218.42,251.29,219.31,248.11z"/>
	<path d="M180.15,248.73c1.56,6.69-0.52,13.46-0.51,20.19c-0.1,3.74,0.45,7.7-1.38,11.14c0.82-6.4,0.43-12.88,1.37-19.27
		C180.13,256.79,179.89,252.75,180.15,248.73z"/>
	<g>
		<path d="M63.95,406.11c8.82-18.69,15.55-38.26,22.36-57.73c3.8,0.05,7.6-0.34,11.41-0.19c8.84,0.41,17.44,2.8,25.68,5.94
			c-6,18.58-11.95,37.18-17.47,55.92c-1.72,6.14-2.06,12.54-3.29,18.78c-0.84,4.17-0.52,8.46-1.29,12.62
			c-3.8,4.34-10.39,3.58-15.61,3.7c-5.86,0.27-11.31-2.23-17.04-2.84c-6.41,0.73-12.13,4.2-18.4,5.62H14.29
			c-3.95-1.21-8.29-2.21-11.34-5.18c-2.06-2.09-0.91-5.17,0.09-7.47c2.69-5.9,5.81-12.05,11.38-15.74
			c7.98-5.59,17.99-6.71,27.42-7.65c6.15-0.66,12.38,0.51,18.5-0.41C62.09,410.14,62.94,408,63.95,406.11z M89.1,358.06
			c-1.06,1.79-1.74,3.77-2.46,5.71c-4.52,12.37-9.29,24.65-13.84,37.02c1.32,0.14,2.65,0.29,3.97,0.43
			c6.21-14.43,11.78-29.13,17.97-43.57C92.87,357.66,90.88,357.3,89.1,358.06z M49.86,432.74c0.2,2.72,0.47,5.44,0.67,8.17
			c-6.16,1.39-12.49,0.86-18.75,0.94c-4.15-0.01-8.31,0.12-12.45-0.3c-4.76-0.5-9.22-2.38-13.85-3.5c6.14,4.32,14.06,4.69,21.3,5.01
			c8.63-0.14,17.35,0.44,25.85-1.37c7.76-1.65,15.06-5.51,23.11-5.67c8.08-0.11,16.41,0.39,24.21-2.01
			c-7.06,0.2-14.09,1.06-21.16,0.78c-9.31-0.19-17.89,3.79-26.71,6.15C51.42,438.19,50.84,435.4,49.86,432.74z M70.78,440.72
			c2.24-0.21,4.47-0.69,6.74-0.62c0.93,0.72,1.69,1.66,2.47,2.55c-0.36-1.49-0.74-2.97-1.15-4.44
			C76.07,438.75,73.35,439.56,70.78,440.72z"/>
	</g>
	<g>
		<path d="M215.27,351.28c5.54,20.5,10.15,41.26,16.1,61.65c8.34-1.87,16.93-1.21,25.39-1.1c9.22,0.66,19.26,2.25,26.19,8.92
			c5.12,4.67,5.57,12.01,8.83,17.81v2.46c-5.44,3.99-12.06,5.63-18.57,6.91h-20.76c-7.45-1.53-15.12-2.01-22.41-4.28
			c-2.77-0.76-5.46-1.9-8.33-2.18c-4.45,0.5-8.19,4.55-12.85,3.49c-6.45-1.45-13-2.65-19.18-5.07c-0.18-13.67,0.88-27.39-0.82-41.01
			c-0.45-9.45-2.63-18.68-3.98-28.01c-0.69-4.7-2.03-9.26-3.12-13.86c0.58,0.62,1.16,1.24,1.75,1.87c3.49-2.07,7.1-4.05,11.05-5.06
			C201.31,351.91,208.41,352.52,215.27,351.28z M206.79,359.73c4.24,13.83,8.58,27.64,13.07,41.4c1.25-0.41,2.51-0.81,3.76-1.21
			c-4.24-13.36-7.78-26.93-11.98-40.3C210.02,359.6,208.4,359.64,206.79,359.73z M255.94,413.94c-0.22,0.29-0.67,0.87-0.89,1.15
			C255.84,418.16,259.29,413.25,255.94,413.94z M249.67,424.06c1.42-1.91,2.48-4.08,3.15-6.36
			C250.95,419.33,250.07,421.67,249.67,424.06z M246.52,440.93c-11.35-1.26-22.28-5.15-33.73-5.73c-6.45-0.31-12.81-1.34-19.2-2.14
			c8.21,3.73,17.51,2.29,26.2,3.8c13.59,2.38,27.04,6.66,40.98,6.19c7.76-0.16,16.06,0.62,23.23-2.94
			c-5.07,0.57-10.05,1.92-15.19,1.76c-7-0.21-14.09,0.59-21-0.83c-0.07-4.78,0.34-9.55,0.88-14.29
			C246.69,431.2,247.12,436.18,246.52,440.93z"/>
	</g>
</g>
<g>
	<path class="st0" d="M119.59,1.38h30.53c9.64,2.17,19.94,3.66,28.13,9.64c1.78,1.45,4.37,3.48,3.4,6.1
		c-2.16,5.05-6.46,9.07-11.41,11.37l-0.41-0.23c-0.09-0.06-0.27-0.17-0.37-0.22l-0.35-0.21c-6.54-4.39-14.51-5.79-22.24-6.3
		l-0.72-0.1c-1.89-3.38-3.25-7.52-6.95-9.38c-4.12-2.47-9.75-1.93-13.2,1.47c-2.7,2.31-3.14,6.09-5.15,8.85
		c-3.26,1.5-6.82,2.25-10.09,3.73c-6.48,2.32-12.03,6.67-16.26,12.06c-0.63,0.8-1.26,1.61-1.87,2.42
		c-6.99-2.24-14.8-6.03-17.71-13.19c2.16-4.82,6.42-8.26,10.4-11.55C95.24,8.04,107.44,4.11,119.59,1.38z"/>
	<path class="st0" d="M118.99,37.76l0.9-0.27c1.72,1.87,3.19,4.01,3.89,6.48c2,6.44,3.45,13.04,4.24,19.73
		c-0.71-0.09-2.13-0.27-2.83-0.36c-3.13-7.88-6.51-15.65-10.14-23.31C116.35,39.26,117.66,38.49,118.99,37.76z"/>
	<path class="st0" d="M88.96,50.88c3.32-0.65-0.1,4.27-0.86,1.17C88.31,51.76,88.75,51.17,88.96,50.88z"/>
	<path class="st0" d="M164.92,75.71c1.16,1.18,2.72,2.3,2.9,4.08c-0.45,1.79-3.18,3.7-4.12,1.23
		C161.98,79.23,163.84,77.2,164.92,75.71z"/>
	<path class="st0" d="M170.94,77.73c1.36-0.44,3.17-0.36,4.08,0.91c2.82,3.62,3.98,9.09,1.42,13.17c-1.81,1.06-4.1,0.28-5.06-1.53
		C169.12,86.65,167.84,81.29,170.94,77.73z"/>
	<path class="st0" d="M115.16,83.62c1.18-1.33,2.23-2.76,3.51-4c1.02,1.7,2.78,4.34,0.74,6.02c-0.57,0.2-1.71,0.61-2.28,0.81
		C116.64,85.74,115.65,84.33,115.16,83.62z"/>
	<g>
		<path class="st0" d="M9.9,83.01c1.86-1.88,4.65-1.18,7-1.24c0.51,3.71,0.3,7.47-0.13,11.18c-0.93,7.73-0.65,15.56,0.14,23.29
			c0.18,2.6,0.47,5.2,0.76,7.8c-2.33,0.45-4.66,0.89-6.97,1.44c2.28-0.04,4.55-0.13,6.83-0.2c2.22,2.33,4.71,5.11,8.29,4.64
			c3.99,0.47,5.66-3.78,8.3-5.87c3.3-0.82,6.74-0.33,10.09-0.13c-2.53,1.21-5.09,2.35-7.55,3.68c5.67-1.3,10.88-4.02,16.48-5.54
			c3.48,1.83,7.53,3.44,9.38,7.19c1.64,2.55,1.48,6.5-1.43,8.07c-4.25,0.53-8.66-1.71-12.8-0.01c-2.6,0.97-2.51,4.07-3,6.34
			c-0.44,3.74-2.02,7.17-3.48,10.6c-1.35,0.46-3.45,1.55-2.93,3.27c1.32,0.59,2.29-1.09,3-1.93c1.3,3.09,3.36,5.94,3.91,9.32
			c-0.4,1.99-2.07,3.38-3.38,4.82c-6.86,4.93-15.18,7.45-23.61,7.45c-3.37-0.12-6.71-0.62-10.01-1.32c-0.71-5.2-0.1-10.43,0-15.63
			c-1.65-2.97-4.43-5.19-5.78-8.35c-1.14-2.7-1.63-5.62-2.23-8.48v-2.87c1.13-6.48,2.56-13.03,1.93-19.65
			c-0.7-7.15-1.01-14.37-0.45-21.55C2.77,93.24,5.19,87.07,9.9,83.01z M35.27,131.44c-3.13,1.06-6.56,0.4-9.69,1.39
			c-2.84,1.23-5.18,3.45-6.91,5.99c-2.5,3.62-2.18,8.49-0.43,12.35c-0.2-3.23-1.43-6.64-0.07-9.77c1.49-3.3,4.19-6.06,7.39-7.75
			c3.28-1.39,7.01-0.63,10.39-1.64c2.08-0.71,3.59-2.39,5.14-3.86C39.14,129.22,37.33,130.57,35.27,131.44z"/>
	</g>
	<path class="st0" d="M124.75,99.25c-6.13-3.26-5.02-12.99,0.08-16.8C130.76,85.89,130.71,95.92,124.75,99.25z"/>
	<path class="st0" d="M164.38,85.48c1.38-2.2,2.8,0.78,4.16,1.45c-0.93,0.81-1.85,1.63-2.77,2.45
		C164.52,88.48,162.5,86.91,164.38,85.48z"/>
	<path class="st0" d="M114.59,90.98c0.33-1.43,2.14-1.79,3.2-2.58c0.94,2.31,0.91,4.88-1.79,5.81
		C115.48,93.16,115.01,92.08,114.59,90.98z"/>
	<path class="st0" d="M37.2,98.35c3.41-2.67,8.58-1.09,10.88,2.32c4.11,5.77,5.03,13.35,3.88,20.21c-0.19,0.03-0.56,0.07-0.75,0.09
		c-2.96,1.35-6.64,3.55-9.75,1.38c-4.38-3.24-4.28-9.25-5.37-14.08c-0.55,5.23,1.41,10.19,3.76,14.74
		c-1.98,0.04-3.96,0.07-5.94,0.11c0.62-5.02,0.07-10.06-1.2-14.93C33.36,104.64,34.48,100.88,37.2,98.35z"/>
	<g>
		<path class="st0" d="M137,108.16c3.27-2.46,6.87-6.48,11.41-4.91c4.85,1.96,9.3,5.14,14.77,5.17c-3.17,1.76-6.41,3.4-9.43,5.42
			c5.61-2.16,10.59-6.74,16.99-6.04c13.33,0.75,27.37,1.55,39.25,8.32c-4.61,12.85-13.04,24.4-24.45,32.02
			c-13.6,9.43-30.48,12.61-46.76,12.84c-12.37-0.24-24.81-1.5-36.71-5.02c-10.63-3.06-20.11-9.14-27.94-16.86
			c-0.85-4.42,3.49-7.04,6.43-9.42c11.73-8.09,25.67-12.16,39.32-15.7c6.32-1.87,12.69,0.65,19.05,0.8c-3.85-0.92-7.78-1.39-11.68-2
			C130.66,111.62,134.28,110.67,137,108.16z M157.8,120.31c-3.83,0.81-7.52-0.77-10.62-2.88c-2.04,1.68-3.99,3.72-6.64,4.39
			c-3.96,1.02-8.03,0.01-12.01-0.35c6.27,2.54,13.88,1.83,18.96-2.87c4.91,3.47,14.07,4.36,16.69-2.31
			C162.21,117.85,160.52,120.16,157.8,120.31z M143.64,131.76c3.47,0.02,7.01-0.25,10.26-1.58
			C150.44,130.37,146.99,130.9,143.64,131.76z"/>
	</g>
	<path class="st0" d="M18.37,112.7c1.47-3.26,2.79-7.64,6.7-8.62c3.49-0.85,5.74,2.45,7.52,4.86c0.37,5.72,2.18,12.19-1.44,17.27
		c-2.37,4.63-10.12,3.88-11.96-0.83C17.34,121.41,17.84,116.9,18.37,112.7z"/>
	<path class="st0" d="M213.05,151.75c3.29-1.24,6.55-2.57,9.96-3.45c0.38,0.47,1.15,1.39,1.53,1.85c0.13,0.15,0.38,0.44,0.51,0.59
		c0.03,0.04,0.1,0.11,0.13,0.15c2,2.6,3.99,5.2,5.94,7.83c2.08,3.82,4.17,7.62,6.25,11.44c-1.22,0.62-2.44,1.25-3.67,1.84
		c-2.99,0.49-6,0.78-9.01,1.06C221.88,165.4,217.31,158.64,213.05,151.75z"/>
	<path class="st0" d="M204.86,154.87c2.07-0.77,4.13-1.57,6.19-2.37c6.42,5.18,9.42,13.24,12.89,20.47
		c-3.94,0.89-7.95,1.39-11.99,1.39c-1.7-5.42-4.01-10.62-6.88-15.51c-0.33-1.03-0.85-1.93-1.55-2.72
		C203.85,155.82,204.52,155.19,204.86,154.87z"/>
	<path class="st0" d="M63.48,164.89c2.45,0.71,4.94,1.3,7.42,1.9c0.28,7.48,0.43,15.02,2.19,22.35c-2.9-0.21-5.79-0.34-8.68-0.59
		c-0.08-0.39-0.24-1.18-0.31-1.57C63.65,179.63,63.35,172.26,63.48,164.89z"/>
	<path class="st0" d="M71.69,166.97c2.34,0.41,4.71,0.68,7.07,0.98c0.44,7.12,1.82,14.15,3.98,20.94c-2.52,0.09-5.04,0.2-7.56,0.39
		l-1.05-0.06C71.84,182.01,72.21,174.42,71.69,166.97z"/>
	<path class="st0" d="M105.91,187.05c4.67-0.84,7.32,3.7,10.54,6.17c11.93,10.1,25.59,18.14,40.06,24.04
		c0.43,3.98,0.86,7.95,1.24,11.93c-23.49-6.7-44.57-21.45-59.1-41.05C101.09,187.9,103.51,187.54,105.91,187.05z"/>
	<path class="st0" d="M203.35,224.29c3.17-3.65,7.17-6.42,11.29-8.88c1.47,0.96,2.94,1.92,4.37,2.95
		c8.63,6.44,13.43,17.09,13.61,27.76c-1.31,0.58-2.61,1.18-3.92,1.73c-2.47,0.2-4.95,0.24-7.42,0.21c-0.49,0.01-1.48,0.04-1.97,0.05
		c-0.89,3.18-1.57,6.44-2.79,9.52c-1.44,3.68-4.85,5.92-7.54,8.61c3.19-1.8,5.85-4.35,8.52-6.83c0.1,2.75-0.27,5.47-0.8,8.16
		c3-4.73,0.04-10.4,2.09-15.37c0.43-1.63,1.81-2.68,2.9-3.86c2.99,2.69,7.28,5.86,6.26,10.48c-1.06,7.31-7.12,12.75-14.05,14.57
		c-5.34,0.32-7.37-5.04-10.04-8.59c-1.9-2.97-4.51-5.55-5.79-8.87c-0.05-2.93,1.14-5.75,2.24-8.42c0.39,1.78,0.75,3.56,1.11,5.35
		c0.43-0.11,1.31-0.34,1.75-0.45c3.02-6.41,7.73-11.75,11.45-17.72c-4.42,1.22-7.92,4.23-10.93,7.56c0.75-4.39,1.43-9.09,4.78-12.36
		c-0.89,0.34-1.78,0.67-2.67,1.01c0.36-0.93,0.72-1.86,1.08-2.79c-0.58-0.74-1.16-1.49-1.75-2.21
		C204.69,225.5,203.79,224.69,203.35,224.29z"/>
	<path class="st0" d="M102.26,230.53c10.14,0.46,20.25,1.69,30.43,1.5c0.8,7.68,1.94,15.32,2.55,23.01
		c-8.37-0.36-16.76-0.67-25.05-1.9C107.55,245.6,104.86,238.08,102.26,230.53z"/>
	<path class="st0" d="M133.57,232.25c8.73,0.38,17.48,0.06,26.21,0.55l-0.11,1.3c-8.64,0.37-17.31-0.29-25.92,0.63
		C133.7,234.11,133.61,232.87,133.57,232.25z"/>
	<path class="st0" d="M205.95,241.25c1.44-1.85,3.21-3.52,5.57-4.07c-3.04,5.18-6.42,10.17-9.7,15.19
		C200.51,248.05,203.5,244.44,205.95,241.25z"/>
	<path class="st0" d="M163,255.08c0.9-5.59,1.27-11.33,3.34-16.65c0.33,0.28,0.98,0.82,1.3,1.1c1.36,1.82,2.94,3.58,3.67,5.77
		c0.62,3.07,0.29,6.23,0.18,9.33C168.66,254.79,165.83,254.94,163,255.08z"/>
	<path class="st0" d="M89.1,358.06c1.78-0.76,3.77-0.4,5.64-0.41c-6.19,14.44-11.76,29.14-17.97,43.57
		c-1.32-0.14-2.65-0.29-3.97-0.43c4.55-12.37,9.32-24.65,13.84-37.02C87.36,361.83,88.04,359.85,89.1,358.06z"/>
	<path class="st0" d="M206.79,359.73c1.61-0.09,3.23-0.13,4.85-0.11c4.2,13.37,7.74,26.94,11.98,40.3c-1.25,0.4-2.51,0.8-3.76,1.21
		C215.37,387.37,211.03,373.56,206.79,359.73z"/>
</g>
<g>
	<g>
		<path class="st1" d="M128.36,12.46c5.13-3.72,12.5-0.24,14.94,5.05c1.64,3.17,1.19,6.86,0.37,10.19
			c-0.89,1.45-1.95,2.77-2.95,4.13c-2.16,1.2-4.35,2.7-6.9,2.81c-2.84-0.09-5.4-1.52-7.76-2.97c-1.32-1.45-2.29-3.17-3.11-4.94
			C121.48,21.37,123.5,15.34,128.36,12.46z M132.11,13.94c-0.42,0.77-0.83,1.54-1.25,2.32c-2.12,2.86-3.81,6.01-5.24,9.27
			c1.33-0.21,2.67-0.43,4.02-0.41c0.34,1.75,0.37,3.54,0.35,5.32c2.89-0.4,5.8-0.71,8.71-0.98c-0.31-1.77-0.62-3.55-0.93-5.32
			c1.39-0.22,2.79-0.43,4.19-0.62c-1.3-1.11-2.61-2.21-3.99-3.2c-0.06-0.09-0.2-0.25-0.26-0.33c-0.07-0.09-0.22-0.27-0.29-0.36
			C136.01,17.42,134.21,15.5,132.11,13.94z"/>
	</g>
	<g>
		<path class="st1" d="M163.07,69.11c3.08-1.14,6.7-0.74,9.42,1.13c5.45,3.72,8.89,10.07,9.27,16.65
			c0.64,4.85,0.08,10.04-2.84,14.12c-2.55,4.17-8.44,6.38-12.77,3.57c-8.6-4.88-11.96-16.03-10.1-25.34
			C157.03,75.23,158.97,70.75,163.07,69.11z M167.34,72.53c-3.37,1.55-5.96,4.85-6.28,8.6c-1.13,7.4,1.99,16.14,9.12,19.38
			c4.45,1.76,8.71-1.94,10.01-6c1.93-6.89,0.17-14.89-5.18-19.82C173.06,72.73,170.04,71.48,167.34,72.53z"/>
	</g>
	<path class="st1" d="M114.36,73.5c3.65-2.04,7.19,1.13,10.62,2.15c4.38,1.41,6.57,6.16,7.02,10.45c-2.41-3-3.63-7.59-7.83-8.59
		c-4.01-1.4-7.86,1.73-9.91,4.91c-3.48,5.58-4.66,13.27-1.02,19.07c1.92,2.82,4.83,5.7,8.54,5.41c3.75,0.19,6.16-3.1,8.6-5.41
		l0.57-0.59c-1.37,6.25-7.58,11.62-14.19,10.32c-7.26-1.06-11.23-8.67-12.02-15.32C103.8,87.59,106.4,77.58,114.36,73.5z"/>
	<path class="st1" d="M143.11,174.15c3.6-1.24,8.12,1.87,7.97,5.78c0.91,4.9-5.34,8.9-9.41,6.16
		C136.5,183.8,137.72,175.34,143.11,174.15z"/>
	<path class="st1" d="M221.28,174.3c1.35,0.03,2.71,0.07,4.07,0.11c0.91,1.11,1.89,2.16,2.81,3.27c2.68,4.53,5.23,9.14,8.33,13.41
		c1.18-1.73,2.36-3.45,3.55-5.17c1.97,1.57,3.87,3.22,5.71,4.94c2.03,2.26,3.47-1.41,2.62-3.15c0.43-0.45,1.27-1.34,1.7-1.79
		c2.43,1.33,4.81,2.73,7.15,4.22c-1.74,1.71-3.48,3.59-5.85,4.39c-6.83,2.35-14.95,2.18-20.93-2.23
		C224.5,188.35,221.34,181.31,221.28,174.3z"/>
</g>
<g>
	<path class="st2" d="M130.86,16.26c2.51,0.38,4.73,1.63,6.56,3.37c0.07,0.09,0.22,0.27,0.29,0.36c0.06,0.08,0.2,0.24,0.26,0.33
		c0.33,0.4,0.99,1.22,1.32,1.63c-2.79,1.57-2.61,4.51-2.19,7.27c-1.79-0.26-3.59-0.51-5.39-0.77c-0.97-1.99-2-3.95-3.32-5.74
		C129.16,20.54,130.04,18.41,130.86,16.26z"/>
	<path class="st2" d="M228.16,177.68c2.32-0.17,4.69,0.04,6.84,0.98c5.17,2.09,10.17,4.6,15.07,7.26c-0.43,0.45-1.27,1.34-1.7,1.79
		c-1,0.94-1.96,1.93-2.62,3.15c-1.84-1.72-3.74-3.37-5.71-4.94c-1.19,1.72-2.37,3.44-3.55,5.17
		C233.39,186.82,230.84,182.21,228.16,177.68z"/>
</g>
<g>
	<path class="st3" d="M146.05,20.98l0.72,0.1c7.48,1.87,15.11,3.28,22.24,6.3c0.1,0.11,0.3,0.33,0.39,0.44
		c0.09,0.09,0.25,0.29,0.33,0.38c0.9,3.34,2.18,7.18-0.25,10.15c-0.42-0.23-1.26-0.7-1.69-0.93c-9.09-3.13-18.86-2.93-28.35-3.25
		c0.32-0.58,0.96-1.76,1.28-2.34c1-1.36,2.06-2.68,2.95-4.13C144.79,25.59,145.42,23.27,146.05,20.98z"/>
	<path class="st3" d="M110.66,25.65c3.56-0.86,7.13-1.63,10.72-2.36c0.52,1.15,1.03,2.3,1.57,3.44c0.82,1.77,1.79,3.49,3.11,4.94
		c1.49,1.52,3.12,2.9,4.73,4.29c-3.64,0.47-7.29,0.85-10.9,1.53l-0.9,0.27c-8.94,2.34-17.23,6.45-25.44,10.58
		c-0.13-3.57,0.06-7.14,0.85-10.63C99.59,33.39,104.93,29.24,110.66,25.65z"/>
	<path class="st3" d="M223.75,148.09c3.1-2.19,6.53-3.84,10.08-5.17c7.44,6.65,14.01,14.33,19.21,22.86
		c-3.96,1.69-7.96,3.31-12.05,4.67c-0.67-0.23-2.03-0.7-2.7-0.93c-1.91-3.91-4.42-7.45-7.17-10.8c-1.27-3.11-3.44-5.63-5.94-7.83
		c-0.03-0.04-0.1-0.11-0.13-0.15c-0.13-0.15-0.38-0.44-0.51-0.59C224.34,149.64,223.94,148.6,223.75,148.09z"/>
	<path class="st3" d="M202.77,155.86c0.52-0.25,1.56-0.74,2.09-0.99c-0.34,0.32-1.01,0.95-1.34,1.26L202.77,155.86z"/>
	<path class="st3" d="M187.48,160.17c5.09-1.44,10.25-2.69,15.29-4.31c-0.86,1.51,0.77,3.12,2.3,2.99
		c1.4,5.53,4.32,10.52,6.01,15.96c-8.12,0.39-16.2,1.68-24.34,1.26c-3.69-0.33-7.26,0.71-10.45,2.5
		C181.19,173.24,185.24,167.1,187.48,160.17z"/>
	<path class="st3" d="M49.73,159.99c4.48,1.07,8.64,3.11,12.97,4.62c0.23,7.46-0.42,15.06,1.4,22.37c0.07,0.39,0.23,1.18,0.31,1.57
		c-4.81-0.39-9.59-1.06-14.37-1.73C48.95,177.92,49.41,168.92,49.73,159.99z"/>
	<path class="st3" d="M79.57,168.86c1.47-0.09,2.93-0.15,4.4-0.18c0.43,0.04,1.29,0.14,1.72,0.18c4.59,0.85,9.28,0.52,13.88,1.13
		c4.72,4.81,8.86,10.2,13.74,14.89c-2.45,0.76-4.91,1.53-7.4,2.17c-2.4,0.49-4.82,0.85-7.26,1.09c-4.9,0.4-9.81,0.79-14.73,0.92
		C81.66,182.53,80.19,175.74,79.57,168.86z"/>
</g>
<g>
	<path class="st4" d="M169.36,27.59c0.1,0.05,0.28,0.16,0.37,0.22l-0.33,0.01L169.36,27.59z"/>
	<polygon class="st4" points="169.73,27.81 170.14,28.04 170.23,28.51 169.73,28.2 	"/>
	<path class="st4" d="M167.79,37.42c0.43,0.23,1.27,0.7,1.69,0.93c-1.06,4.37-1.4,8.88-2.26,13.29c-0.15,1.59-0.77,3.29-0.19,4.85
		c4.2,2.81,9.39,4.51,12.07,9.15c-4.87-2.3-9.44-5.96-15.14-5.6C166.67,52.83,168.46,45.16,167.79,37.42z"/>
	<path class="st4" d="M100.71,73.92c1.31-4.97,4.85-8.81,8.8-11.89c0.71,1.1,1.42,2.21,2.12,3.32
		C106.35,65.23,104.19,70.92,100.71,73.92z"/>
	<path class="st4" d="M201.75,93.79c3.46-1.63,7.22-2.46,11.03-2.7C209.3,92.66,205.55,93.54,201.75,93.79z"/>
	<path class="st4" d="M70.34,116.57c15.35-2.67,30.96-4.38,46.55-3.26c-4.32,0.8-8.74,0.42-13.1,0.45
		c-12.94,0.33-25.71,2.54-38.46,4.52C66.94,117.55,68.61,116.94,70.34,116.57z"/>
	<path class="st4" d="M206.21,175.78c1.12,8.01,0.45,16.48-2.07,24.19C204.92,191.91,206.04,183.89,206.21,175.78z"/>
	<path class="st4" d="M91.94,191.83c1.42,4.92,2.03,10.03,2.62,15.1C92.63,202.14,91.91,196.97,91.94,191.83z"/>
	<path class="st4" d="M236.14,203.13c3.04-0.25-1.08,4.95-2.2,2.74C233.94,204.6,235,203.54,236.14,203.13z"/>
	<path class="st4" d="M70.78,440.72c2.57-1.16,5.29-1.97,8.06-2.51c0.41,1.47,0.79,2.95,1.15,4.44c-0.78-0.89-1.54-1.83-2.47-2.55
		C75.25,440.03,73.02,440.51,70.78,440.72z"/>
</g>
<g>
	<path class="st5" d="M190.55,42.23c-1.27-2.03-0.88-4.37-0.47-6.58c0.78,2.74,0.76,5.92,2.85,8.1c2.57,2.85,5.52,5.34,7.81,8.44
		C196.63,49.74,193.03,46.33,190.55,42.23z"/>
	<path class="st5" d="M65.54,49.02c3.62,1.11,7.17,2.42,10.79,3.53c0.2,0.48,0.58,1.44,0.78,1.92
		C73.27,52.6,68.85,51.87,65.54,49.02z"/>
	<path class="st5" d="M191.78,49.65c3.13,1.62,5.65,4.16,7.27,7.3C196.18,55,193.74,52.51,191.78,49.65z"/>
	<path class="st5" d="M85.12,54.13c2.96-0.37-0.2,3.82-1.83,2.5C82.72,55.48,84.16,54.43,85.12,54.13z"/>
	<path class="st5" d="M79.03,60.27c1.72,0.7-0.45,3.93-1.93,3.15C76.45,62.15,77.73,60.47,79.03,60.27z"/>
	<path class="st5" d="M117.55,60.9c2.69,2.07,4.95,4.67,7.79,6.54c6.67,1.19,13.51,0.33,20.24,0.29c4.06,0.09,7.48-2.21,10.56-4.59
		c-1.74,4.19-6.24,5.45-10.39,5.53c-5,0.45-9.98,1.03-14.99,1.18C125.02,69.86,120.11,65.79,117.55,60.9z"/>
	<path class="st5" d="M66.63,67.46c1.2-0.72,1.44,1.11,0.71,1.7c-0.83,1.1-2.23,1.43-3.5,1.69l-0.08-0.54
		C64.61,69.27,65.44,68.14,66.63,67.46z"/>
	<path class="st5" d="M67.72,78.97c0.59-3.04,1.85-5.95,4.03-8.2C70.87,73.7,69.51,76.48,67.72,78.97z"/>
	<path class="st5" d="M142.7,74.7c5.3-0.09,10.26-2.11,15.25-3.64c-6.17,4.88-14.78,4.94-22.28,4.61
		C137.97,75.04,140.37,75.22,142.7,74.7z"/>
	<path class="st5" d="M195.09,95.05c0.83-0.28,2.87-0.89,3.04,0.45c-0.98,1.23-2.85,1.38-4.32,1.32
		C192.44,96.31,194.5,95.14,195.09,95.05z"/>
	<path class="st5" d="M184.12,98.97c3.19-1.18,1.87,2.45-0.52,2.08C181.43,101.33,182.73,98.93,184.12,98.97z"/>
	<path class="st5" d="M136.89,162.36c1.77,0.2,0.54,3.67-1.01,2.93C134.98,164.38,135.73,162.63,136.89,162.36z"/>
	<path class="st5" d="M145.41,162.33c1.57-0.69,3.76,1.45,3.12,3.03C147.08,165.81,144.95,163.8,145.41,162.33z"/>
	<path class="st5" d="M134.15,168.47c1.68,0.46,0.39,4.12-1.18,3.84C132.17,171.09,132.97,169.17,134.15,168.47z"/>
	<path class="st5" d="M162.14,184.42c1.69-0.19,2.9,2.58,2.3,4.01C162.74,188.62,161.54,185.85,162.14,184.42z"/>
	<path class="st5" d="M169.15,185.11c2.96-0.4-0.24,3.82-1.86,2.52C166.73,186.46,168.2,185.43,169.15,185.11z"/>
	<path class="st5" d="M116.3,187.26c1.28-0.71,3.59,0.9,2.98,2.35C117.99,190.32,115.69,188.71,116.3,187.26z"/>
	<path class="st5" d="M126.18,191.42c1.95,0.55-0.32,3.54-1.66,2.39C123.77,192.76,125.07,191.35,126.18,191.42z"/>
	<path class="st5" d="M133.75,234.73c8.61-0.92,17.28-0.26,25.92-0.63l0.91-0.02c1.3,1.34,2.6,2.69,3.9,4.04
		c-0.62,5.67-1.13,11.39-2.67,16.91c-8.43,0.12-16.85-0.04-25.27,0.1C135.02,248.42,134.9,241.5,133.75,234.73z"/>
	<path class="st5" d="M150.12,257.15c0.32-0.01,0.97-0.03,1.29-0.03c4.62,8.82,7.67,18.38,11.85,27.43c2.44,0.16,4.88,0.3,7.32,0.44
		c0.38,4.08-0.42,9.07,3.05,12.07c3.2,3.25,9.17,5.09,12.83,1.61c2.73-4.19,3.31-9.34,4.22-14.15l0.24-0.9
		c2.13-0.36,4.27-0.63,6.43-0.74c2.88,11,5.74,22.01,8.5,33.05c3.39,11.71,5.68,23.73,9.42,35.35c-6.86,1.24-13.96,0.63-20.71,2.54
		c-3.95,1.01-7.56,2.99-11.05,5.06c-0.59-0.63-1.17-1.25-1.75-1.87c-4.79-20.28-11.79-39.99-20.1-59.08
		c-5.95,1.3-11.91,2.59-17.81,4.08c-2.71,0.48-3.32,3.61-4.34,5.72c-5.53,15.4-11.23,30.77-16.11,46.4
		c-8.24-3.14-16.84-5.53-25.68-5.94c-3.81-0.15-7.61,0.24-11.41,0.19c7.57-21.23,14.46-42.71,20.82-64.33
		c9.17-0.95,18.28,1.72,27.44,0.59c1.77-0.22,2.63-2.08,3.53-3.4C142.41,273.37,145.49,264.84,150.12,257.15z"/>
	<path class="st5" d="M255.94,413.94c3.35-0.69-0.1,4.22-0.89,1.15C255.27,414.81,255.72,414.23,255.94,413.94z"/>
	<path class="st5" d="M249.67,424.06c0.4-2.39,1.28-4.73,3.15-6.36C252.15,419.98,251.09,422.15,249.67,424.06z"/>
	<path class="st5" d="M246.52,440.93c0.6-4.75,0.17-9.73,2.17-14.18c-0.54,4.74-0.95,9.51-0.88,14.29c6.91,1.42,14,0.62,21,0.83
		c5.14,0.16,10.12-1.19,15.19-1.76c-7.17,3.56-15.47,2.78-23.23,2.94c-13.94,0.47-27.39-3.81-40.98-6.19
		c-8.69-1.51-17.99-0.07-26.2-3.8c6.39,0.8,12.75,1.83,19.2,2.14C224.24,435.78,235.17,439.67,246.52,440.93z"/>
	<path class="st5" d="M49.86,432.74c0.98,2.66,1.56,5.45,2.22,8.2c8.82-2.36,17.4-6.34,26.71-6.15c7.07,0.28,14.1-0.58,21.16-0.78
		c-7.8,2.4-16.13,1.9-24.21,2.01c-8.05,0.16-15.35,4.02-23.11,5.67c-8.5,1.81-17.22,1.23-25.85,1.37
		c-7.24-0.32-15.16-0.69-21.3-5.01c4.63,1.12,9.09,3,13.85,3.5c4.14,0.42,8.3,0.29,12.45,0.3c6.26-0.08,12.59,0.45,18.75-0.94
		C50.33,438.18,50.06,435.46,49.86,432.74z"/>
</g>
<g>
	<path class="st6" d="M130.38,101.49c1.28-4.94,0.83-10.1,2.09-15.02c0.5,4.71,1.46,10.34-1.52,14.43L130.38,101.49z"/>
	<path class="st6" d="M143.12,92.17c3.93-1.78,9.56,2.24,7.97,6.69c-1.78,5.3-11.35,4.58-12.43-1.01
		C138.61,95.19,140.92,93.24,143.12,92.17z"/>
</g>
<g>
	<g>
		<path class="st7" d="M157.81,214.09c1.46-2.11,4.25-2.35,6.59-2.02c12.3,1.68,23.81,6.57,35.35,10.87c1.2,0.44,2.41,0.87,3.6,1.35
			c0.44,0.4,1.34,1.21,1.78,1.61c-0.01,5.42-0.78,10.81-2.07,16.06c-0.5,1.85-1.07,3.79-2.47,5.17c-6.42,0.08-12.59-2.18-18.53-4.38
			c-5.77-2.44-11.95-5.24-15.54-10.62c-2.87-4.96-2.41-10.94-3.51-16.39c-0.1,7.18,0.16,15.74,6.3,20.62
			c8.31,6.72,18.91,9.79,29.26,11.65c-1.6,12.05-4.26,23.93-7.65,35.61l-0.24,0.9c-1.87,4.65-2.55,9.87-5.41,14.05
			c-5.01,2.44-11.78-0.54-13.32-5.89c-0.68-3.22-0.44-6.53-0.43-9.79c0.23-6.99-0.06-13.99,0.1-20.98
			c0.1-5.58,1.51-11.15,0.71-16.73c-0.32-2.66-2.88-4.04-4.69-5.65c-0.32-0.28-0.97-0.82-1.3-1.1c-3.22-2.88-7.11-5.81-7.93-10.33
			C157.6,223.5,156.98,218.73,157.81,214.09z M181.92,232.01c-0.54,3.96,5.32,8.12,8.02,4.07c2.15-3.41-0.12-7.23-3.14-9.19
			C184.94,228.26,181.86,229.25,181.92,232.01z M180.15,248.73c-0.26,4.02-0.02,8.06-0.52,12.06c-0.94,6.39-0.55,12.87-1.37,19.27
			c1.83-3.44,1.28-7.4,1.38-11.14C179.63,262.19,181.71,255.42,180.15,248.73z"/>
	</g>
</g>
<path class="st8" d="M121.53,22.74c0,0-19.45,3.24-29,17.39c0,0-14.57-3.64-17.71-13.19c0,0,10.6-23.18,51.16-26.01
	s54.57,11.84,54.57,11.84s6.86,5.26-10.41,15.27c0,0-11.39-6.02-24.68-6.7"/>
<path class="st8" d="M8.79,175.86c0,0,27.75,6.69,37-10.95c0,0-0.23-3.23-3.91-9.32c0,0,1.62-5.14,2.53-7.94
	c0.91-2.8,0.9-9.56,4.05-10.41c3.15-0.85,5.22-0.47,8.97,0.01s4.66-0.67,4.66-0.67s4.84-4.75-3.18-11.33c0,0-6.54-3.19-6.96-4.38
	c0,0,1.78-12.69-2.32-17.66c0,0-3.15-6.66-7.76-6.22c0,0-7.65-1.84-9.17,11.19c0,0-3.97-5.14-7.64-4.11c0,0-4.35-0.34-7.66,10.91
	l-0.55,0.64c0,0-0.05-20.13,0.04-33.85c0,0-6.03-2.08-8.82,3.04s-6.31,5.42-6.11,23.38s1.83,16.97-0.01,25.33
	s-1.07,13.14,0.34,16.44s3.97,7.44,6.48,10.27C8.79,160.23,7.8,173.85,8.79,175.86z"/>
<path class="st8" d="M49.73,159.99c0,0,14.27,7.58,49.59,9.3"/>
<path class="st8" d="M50.04,186.82c0,0,17.81,3.31,29.53,2.46s25.51-0.26,33.74-4.4"/>
<path class="st8" d="M187.48,160.17c0,0,29.26-9.75,46.35-17.25c0,0,16.02,14.64,19.21,22.86c0,0-12.3,7.34-41.16,9.36l-40.1,5.29
	L187.48,160.17z"/>
<path class="st8" d="M198.81,222.08l4.54,2.21c0,0,6.46-6.81,11.29-8.88c0,0,17.61,7.97,17.98,30.71c0,0-2.43,2.01-4.34,1.94
	l-8.4,0.04l1.8,0.24c0,0,6.74,4.87,6.36,8.38c-0.37,3.51-1.5,13.76-14.15,16.67s-13.34-6.88-13.34-6.88"/>
<line class="st8" x1="108.26" y1="281.28" x2="86.53" y2="349.15"/>
<path class="st8" d="M123.4,354.13l16.11-46.4c0,0,1.19-3.67,2.27-4.53c1.08-0.86,5.36-2.02,7.78-2.57
	c2.41-0.56,8.83-1.98,8.83-1.98s3.48-1.04,4.28,0.94c1.03,2.52,12.61,33.78,14.43,40.06c1.82,6.28,5.9,20.48,5.9,20.48l9.86,1.01
	l21.92-9.77l-18.27-71.31"/>
<path class="st8" d="M69.17,130.65c0,0,8.16,23.22,45.04,28.14c37.17,4.95,79.5,1.88,95.78-44.14"/>
<g>
	<path d="M128.53,121.45c1.62,0.44,3.27,0.77,4.93,0.94c1.65,0.2,3.32,0.28,4.96,0.08c1.63-0.2,3.24-0.55,4.67-1.3
		c1.42-0.76,2.59-1.87,3.49-3.19l0.29-0.43l0.42,0.28c1.3,0.87,2.77,1.58,4.26,2.12c1.5,0.54,3.07,0.86,4.65,0.88
		c1.58,0.01,3.15-0.43,4.51-1.25c1.44-0.75,2.46-2.06,3.47-3.34c-0.83,1.4-1.79,2.81-3.21,3.74c-1.38,0.95-3.05,1.52-4.75,1.6
		c-1.7,0.09-3.38-0.24-4.98-0.76c-1.6-0.54-3.1-1.25-4.53-2.19l0.71-0.14c-1,1.46-2.33,2.7-3.9,3.5c-1.59,0.76-3.32,1.13-5.03,1.22
		c-1.72,0.1-3.43-0.07-5.09-0.37C131.72,122.54,130.08,122.11,128.53,121.45z"/>
</g>
<line class="st8" x1="99.29" y1="220.48" x2="110.81" y2="253.9"/>
</svg>
