<?xml version="1.0" encoding="utf-8"?>
<!-- Generator: Adobe Illustrator 24.0.1, SVG Export Plug-In . SVG Version: 6.00 Build 0)  -->
<svg version="1.1" id="图层_1" xmlns="http://www.w3.org/2000/svg" xmlns:xlink="http://www.w3.org/1999/xlink" x="0px" y="0px"
	 viewBox="0 0 254.31 350.61" style="enable-background:new 0 0 254.31 350.61;" xml:space="preserve">
<style type="text/css">
	.st0{fill:#E51919;}
	.st1{fill:#EE7D7E;}
	.st2{opacity:0.93;fill:#3F2523;enable-background:new    ;}
	.st3{fill:#211714;}
	.st4{fill:#201713;}
	.st5{fill:#060405;}
	.st6{fill:#FFFFFF;}
	.st7{fill:#E41A1B;}
	.st8{fill:#211613;}
	.st9{opacity:0.98;fill:#2D0D0D;enable-background:new    ;}
	.st10{opacity:0.89;fill:#3B2320;enable-background:new    ;}
	.st11{fill:#7E3033;}
	.st12{fill:#F5B1B1;}
	.st13{opacity:0.92;fill:#D72D2D;enable-background:new    ;}
	.st14{fill:#DDE204;}
	.st15{fill:#DADF05;}
	.st16{opacity:0.91;fill:#7873BD;enable-background:new    ;}
	.st17{fill:#B996C4;}
	.st18{opacity:0.84;fill:#A0A529;enable-background:new    ;}
	.st19{opacity:0.85;fill:#736CAF;enable-background:new    ;}
	.st20{opacity:0.82;fill:#747704;enable-background:new    ;}
	.st21{opacity:0.85;fill:#929944;enable-background:new    ;}
	.st22{fill:#E61919;}
	.st23{opacity:0.18;fill:#0D0809;enable-background:new    ;}
	.st24{opacity:0.3;fill:#150F10;enable-background:new    ;}
	.st25{opacity:0.42;fill:#1C1516;enable-background:new    ;}
	.st26{opacity:0.55;fill:#251C1D;enable-background:new    ;}
	.st27{opacity:0.07;fill:#050303;enable-background:new    ;}
</style>
<g id="_x23_e51919fc">
	<path class="st0" d="M-120.93-84.66h0.26c-0.07,0.06-0.2,0.19-0.26,0.26V-84.66z"/>
	<path class="st0" d="M81.23,4.47c1.74-4.06,6.78-5.2,10.71-4.05c5.97,1.63,10.94,5.57,15.78,9.27
		c15.34,12.29,27.81,28.41,35.35,46.59c-1.77-0.34-3.55-0.57-5.33-0.8c0.75-1.54,1.21-3.31,0.18-4.85
		c-7.78-15.08-19.09-28.17-32.05-39.06c-5.05-4.22-11.15-7.72-17.86-7.99c-2.76-0.32-4.81,2.28-5.12,4.79
		c-1.07,6.83,0.58,14.01,4.38,19.77c2.6,4.32,6.37,8.22,7.24,13.36c1.6,17.23,0.8,34.57,0.01,51.83c-0.47,4.37-1.34,8.7-1.67,13.09
		c-0.43,6.18-2.33,12.11-3.62,18.13c-0.97,4.64-3.08,9.04-3.47,13.8c-0.23,2.52,2.18,4.04,3.85,5.48c2.53,1.82,4.88,3.9,6.62,6.5
		c-7.72-3.5-13.42-10.02-20.04-15.13c-15.68-12.64-31.55-25.38-49.74-34.28c-5.84-2.78-11.74-6.25-18.36-6.48
		c-3.23-0.2-5.99,2.75-5.74,5.94c0.09,6.28,3.6,11.76,6.53,17.08c13.61,24.22,33.64,43.84,49.73,66.3
		c4.05,6.01,8.38,11.91,11.35,18.56c-2.79-3.07-5.57-6.16-8.54-9.06c-2.78,6-5.07,12.21-7.4,18.4c-0.49-7.18,1.99-14.13,4.89-20.57
		c0.97-1.61-0.65-2.96-1.42-4.22c-12.13-15.79-25.14-30.89-37.19-46.74c-6.31-8.82-13.17-17.44-17.38-27.52
		c-1.92-4.77-3.19-9.97-2.44-15.13c0.39-3.19,3.45-5.55,6.59-5.58c7.34-0.56,14.25,2.59,20.67,5.77
		c20.28,10.41,36.93,26.28,55.58,39.14c0.86-2.3,1.68-4.64,2.16-7.05c5.61-24.69,7.25-50.14,7.03-75.4
		c-0.07-4.1-0.17-8.25-1.13-12.26c-1.59-6.63-7.73-10.88-9.65-17.37C79.8,18.24,78.62,10.94,81.23,4.47z"/>
	<path class="st0" d="M145.79,65.28c0.36,0.22,1.09,0.66,1.45,0.87c2.22,2.46,3.54,5.55,5.49,8.21c-0.44-0.11-1.32-0.32-1.76-0.43
		C148.33,71.69,146.88,68.49,145.79,65.28z"/>
</g>
<g id="_x23_ee7d7eff">
	<path class="st1" d="M82.89,8.37c0.31-2.51,2.36-5.11,5.12-4.79c6.71,0.27,12.81,3.77,17.86,7.99
		c12.96,10.89,24.27,23.98,32.05,39.06c1.03,1.54,0.57,3.31-0.18,4.85c-0.52,1.47-1.38,2.93-1.26,4.55
		c2.69,2.41,6.13,3.65,9.31,5.25c1.09,3.21,2.54,6.41,5.18,8.65c-5.23,1.22-9.24,4.93-12.27,9.19c-3.73-2.9-7.51-6.87-12.65-6.52
		c-6.43-0.03-11.4,5.6-13.06,11.39c-1.47,7.58-0.63,15.7,3.03,22.56c2.31,5.07,6.7,9.12,12.11,10.61c1.87,0.72,4.04,0.81,5.9,0.03
		c3.97-1.28,6.76-4.51,9.75-7.23c3.47,2.32,6.95,5.14,11.26,5.57c4.41,0.54,8.34-2.01,11.8-4.38
		c10.08,28.35,26.96,53.65,44.88,77.58c5.14,6.78,5.76,15.62,5.82,23.82c-2.71,6.27-7.84,10.93-12.29,15.95
		c-0.28,0.23-0.83,0.68-1.1,0.91c-15.05,9.38-31.68,16.74-49.32,19.39c-11.6,1.37-23.41,1.38-34.98-0.28
		c-21.1-3.49-41.34-11.86-58.85-24.11c-0.26-0.23-0.78-0.69-1.04-0.92c-1.74-2.26-3.52-4.49-5.27-6.74
		c-0.11-2.41-0.28-4.81-0.62-7.2c-0.01-0.47-0.04-1.42-0.05-1.89c2.33-6.19,4.62-12.4,7.4-18.4c2.97,2.9,5.75,5.99,8.54,9.06
		c-2.97-6.65-7.3-12.55-11.35-18.56c-16.09-22.46-36.12-42.08-49.73-66.3c-2.93-5.32-6.44-10.8-6.53-17.08
		c-0.25-3.19,2.51-6.14,5.74-5.94c6.62,0.23,12.52,3.7,18.36,6.48c18.19,8.9,34.06,21.64,49.74,34.28
		c6.62,5.11,12.32,11.63,20.04,15.13c-1.74-2.6-4.09-4.68-6.62-6.5c-1.67-1.44-4.08-2.96-3.85-5.48c0.39-4.76,2.5-9.16,3.47-13.8
		c1.29-6.02,3.19-11.95,3.62-18.13c0.33-4.39,1.2-8.72,1.67-13.09c0.79-17.26,1.59-34.6-0.01-51.83c-0.87-5.14-4.64-9.04-7.24-13.36
		C83.47,22.38,81.82,15.2,82.89,8.37 M101.92,27.98c0.16,2.37,0.93,4.68,3.36,5.58C105.59,31.05,104.83,28.29,101.92,27.98
		 M111.79,66.84c0.94-0.1,1.88-0.21,2.83-0.32c-0.22,1.26-0.43,2.51-0.64,3.77c4.48-1.47,8.1-4.53,11.36-7.82
		c-1.61-1.29-2.75-4.25-5.23-3.33C116.2,59.98,112.71,62.85,111.79,66.84 M102.17,127.28c1.36-0.55,2.72-1.12,4.08-1.7
		c3.03,11.96,7.69,24.06,16.92,32.65c10.37,10.18,26.17,13.57,40.12,10.28c5.96-1.44,11.35-5.45,14.07-10.99
		c-1.79,0.71-3.53,1.51-5.25,2.35c-5.43-5.11-9.89-11.95-10.46-19.54c-0.49-3.13,1.4-5.76,3.12-8.15
		c-6.51,1.19-13.01,2.99-19.69,2.56c-12.06-0.55-24.17-4.2-34.2-10.97c0.71-1.12,1.43-2.22,2.14-3.34
		C108.51,120.98,104.78,123.67,102.17,127.28 M45.11,149.26c0.96,2.01,2.32,3.79,4.09,5.16c-0.2-1.42,0.03-3.05-0.89-4.26
		C47.25,149.8,46.19,149.5,45.11,149.26 M170.36,178.15c0.96,1.16,2.43,1.64,3.78,2.23c-0.56-1.54-1.36-2.96-2.33-4.27
		C171.24,176.73,170.75,177.41,170.36,178.15 M199.14,200.33c0.07,2.47,1.53,4.25,3.81,5.08
		C203.04,202.86,201.71,200.81,199.14,200.33 M140.18,215.33c0.3,2.3,1.02,4.57,2.85,6.12C144.5,218.77,143.17,215.92,140.18,215.33
		 M173.39,225.26c0.61,1.77,1.36,3.49,2.14,5.19c-1.95,0.9-4.06,1.29-6.18,1.42c0.02,0.35,0.06,1.03,0.09,1.38
		c2.11-0.4,4.22-0.82,6.33-1.24C175.66,229.52,176.46,226.19,173.39,225.26 M179.58,228.65c-0.33,2.63,0.06,6.11-2.73,7.55
		c-4.59,3.11-10.16,1.09-14.87-0.57c3.39,5.58,12.08,5.16,16.67,1.3c2.52-2.01,2.28-5.41,2.3-8.3
		C180.6,228.64,179.92,228.65,179.58,228.65z"/>
	<path class="st1" d="M237.02,90.23c3.43-1.87,7.32-4.51,11.4-3.27c2.86,2.11,3.1,6.12,2.98,9.38c-0.56,6.86-3.1,13.37-5.72,19.66
		c-7.1,15.97-16.04,31.03-24.75,46.16c-4.22,6.43-8.08,13.57-14.42,18.17c-9.35-12.77-17.67-26.24-25.57-39.94
		c-1.01-1.82-1.85-3.72-2.72-5.6C200.23,123.3,216.26,103.53,237.02,90.23 M209.19,124.47c2.6,2.24,5.41,0.14,6.97-2.14
		C213.58,122.06,211.12,122.71,209.19,124.47z"/>
	<path class="st1" d="M170.79,307.49c10.25,1.32,20.24-1.93,29.64-5.64c0.34,3.16-0.37,6.3-1.68,9.18
		c-2.24,5.1-4.24,10.66-8.54,14.44c-2.78,2.51-7.26,3.63-10.42,1.14C173.87,322.21,171.55,314.53,170.79,307.49 M190.48,312.64
		c-0.52,1.46-0.89,2.98-1.29,4.48c0.66-0.03,2-0.09,2.66-0.12C192.43,315.36,193.56,311.86,190.48,312.64z"/>
	<path class="st1" d="M90.11,327.25c-1.77-4.91-3.93-10.19-2.37-15.45c10.66,4.02,22.33,3.2,33.47,2.4
		c-2.41,6.92-5.12,13.88-9.46,19.83c-2.75,3.7-7.59,6.95-12.33,5.1C94.53,337.05,92,331.91,90.11,327.25z"/>
</g>
<g id="_x23_3f2523ec">
	<path class="st2" d="M101.92,27.98c2.91,0.31,3.67,3.07,3.36,5.58C102.85,32.66,102.08,30.35,101.92,27.98z"/>
</g>
<g id="_x23_211714fc">
	<path class="st3" d="M137.74,55.48c1.78,0.23,3.56,0.46,5.33,0.8c1.99,0.47,3.96,1.2,5.64,2.4c0.1,2.57-0.79,5.04-1.47,7.47
		c-0.36-0.21-1.09-0.65-1.45-0.87c-3.18-1.6-6.62-2.84-9.31-5.25C136.36,58.41,137.22,56.95,137.74,55.48z"/>
</g>
<g id="_x23_201713fe">
	<path class="st4" d="M111.79,66.84c0.92-3.99,4.41-6.86,8.32-7.7c2.48-0.92,3.62,2.04,5.23,3.33c-3.26,3.29-6.88,6.35-11.36,7.82
		c0.21-1.26,0.42-2.51,0.64-3.77C113.67,66.63,112.73,66.74,111.79,66.84z"/>
</g>
<g id="_x23_060405fb">
	<path class="st5" d="M138.7,83.12c3.03-4.26,7.04-7.97,12.27-9.19c0.44,0.11,1.32,0.32,1.76,0.43c5.36,1.14,10.06,4.72,12.86,9.4
		c5.74,8.54,6.08,19.9,2.63,29.38c-0.34,0.5-1.03,1.51-1.38,2.01c-3.46,2.37-7.39,4.92-11.8,4.38c-4.31-0.43-7.79-3.25-11.26-5.57
		c-2.99,2.72-5.78,5.95-9.75,7.23c-1.74-1.32-4.14-1.32-5.9-0.03c-5.41-1.49-9.8-5.54-12.11-10.61c-3.66-6.86-4.5-14.98-3.03-22.56
		c1.66-5.79,6.63-11.42,13.06-11.39C131.19,76.25,134.97,80.22,138.7,83.12 M147.36,76.61c-3.55,1.11-5.83,4.52-7.02,7.87
		c1.24,4.38,3.92,8.31,4.57,12.9c1.22,4.63-0.1,9.32-0.25,13.97c2.43,3.78,6.63,7.11,11.38,6.69c5.5,0.18,10.35-4.16,11.55-9.4
		c2.52-9.44,0.22-20.25-6.11-27.73C158.09,76.96,152.41,74.75,147.36,76.61 M123.36,78.65c-6.31,1.07-9.43,7.87-9.69,13.67
		c-0.61,9.26,2.25,19.68,10.05,25.37c4.98,3.69,12.82,2.92,16.86-1.84c2-2.36,3.22-5.38,3.3-8.49c0.64-9.11-2.18-18.67-8.32-25.51
		C132.58,78.35,127.59,78.03,123.36,78.65z"/>
	<path class="st5" d="M45.11,149.26c1.08,0.24,2.14,0.54,3.2,0.9c0.92,1.21,0.69,2.84,0.89,4.26
		C47.43,153.05,46.07,151.27,45.11,149.26z"/>
	<path class="st5" d="M170.36,178.15c0.39-0.74,0.88-1.42,1.45-2.04c0.97,1.31,1.77,2.73,2.33,4.27
		C172.79,179.79,171.32,179.31,170.36,178.15z"/>
	<path class="st5" d="M199.14,200.33c2.57,0.48,3.9,2.53,3.81,5.08C200.67,204.58,199.21,202.8,199.14,200.33z"/>
	<path class="st5" d="M217.54,216.55c0.37-0.82,0.71-1.65,1.05-2.48c5.11,15.97,2.85,33.58-4.37,48.52c-1.44,2.83-3.9,5-5.28,7.86
		c-1.69,7.44,5.8,13.42,4.34,20.81c-2.15,3.77-6.14,6.03-9.42,8.74c-1.12,0.66-2.26,1.29-3.43,1.85c-9.4,3.71-19.39,6.96-29.64,5.64
		c-1.06-0.13-2.12-0.28-3.16-0.47c-2.49-1.04-5.23-2.03-6.99-4.16c-0.26-2.26,0.02-4.53,0.14-6.79c-8.78,1.01-17.51,2.4-26.19,3.99
		c0.19,2.94,1.36,6.48-0.97,8.89c-2.27,2.37-5.51,3.42-8.55,4.43c-1.28,0.32-2.57,0.59-3.86,0.82c-11.14,0.8-22.81,1.62-33.47-2.4
		c-1.28-0.49-2.54-1.03-3.79-1.57c-2.78-1.34-5.73-2.56-8.02-4.69c-2.31-6.76-0.32-14.08-1.11-21.03
		c-2.04-3.77-5.51-6.52-7.89-10.06c-9.29-12.03-16.86-26.52-16.35-42.1c-0.19-5.41,1.52-10.62,2-15.97
		c0.41,1.58,1.13,3.06,2.11,4.37c1.75,2.25,3.53,4.48,5.27,6.74c-2.06-1.54-4.19-2.97-6.37-4.32c0.37,2.19,0.69,4.61,2.54,6.09
		c10.64,9.56,23.32,16.67,36.75,21.48c11.67,4.7,24.06,7.38,36.59,8.29c9.92,1.1,19.77-0.91,29.63-1.65
		c-4.04,0.85-8.09,1.73-12.18,2.32c-0.6,0.07-1.79,0.21-2.39,0.28c-18.77,0.92-37.81-1.95-55.25-9.04
		c-7.45-2.74-14-7.32-21.01-10.94c-5.31-2.75-9.43-7.2-14.53-10.27c-0.82,12.66,3.67,25.14,10.15,35.85
		c0.56,0.94,1.12,1.88,1.69,2.82c3.57,6.69,9.35,11.67,14.7,16.88c-2.91,4.79-3.23,10.62-4.04,16.05c-0.53,2.77,1.81,4.78,4.07,5.82
		c5.55,2.6,11.64,3.85,17.71,4.42c0.5,0.04,1.49,0.1,1.99,0.14c7.03,0.14,14.11,0.55,21.11-0.34c3.9-0.43,7.31-2.49,10.64-4.41
		c0-5.02-0.22-10.06,0.31-15.05c1.38,1.21,1.78,3.03,2.28,4.72c10.87,0.71,21.48-2.2,31.85-5.09c13.86-4.38,27.87-10.31,38.22-20.84
		c11.11-11.05,15.32-27.57,13.85-42.86c-3.59,3.32-6.64,7.18-10.25,10.5c-0.68,0.55-1.39,1.08-2.1,1.59
		c-14.68,7.89-30.08,15.45-46.82,17.45c16.48-4.4,33.29-9.54,47.14-19.87c4.25-3.4,8.44-7.07,11.46-11.64
		c1.4-1.8,0.71-4.11,0.51-6.16c-4.46,4.14-7.87,9.34-12.96,12.79C209.7,227.48,214.83,222.82,217.54,216.55 M197.02,280.27
		c-9.91,6.45-21.02,10.65-31.91,15.08c-3.23,0.97-3.2,5.87-0.39,7.37c5.35,3.21,11.99,3.31,17.98,2.22
		c10.42-1.82,20.84-6.36,27.76-14.61c-1.42-4.33-2.49-8.76-3.89-13.1c1.36-0.71,1.14-3.74-0.61-3.63
		C202.79,275.58,200.09,278.17,197.02,280.27z"/>
	<path class="st5" d="M140.18,215.33c2.99,0.59,4.32,3.44,2.85,6.12C141.2,219.9,140.48,217.63,140.18,215.33z"/>
	<path class="st5" d="M173.39,225.26c3.07,0.93,2.27,4.26,2.38,6.75c-2.11,0.42-4.22,0.84-6.33,1.24c-0.03-0.35-0.07-1.03-0.09-1.38
		c2.12-0.13,4.23-0.52,6.18-1.42C174.75,228.75,174,227.03,173.39,225.26z"/>
	<path class="st5" d="M61,228.41c17.51,12.25,37.75,20.62,58.85,24.11c11.57,1.66,23.38,1.65,34.98,0.28
		c17.64-2.65,34.27-10.01,49.32-19.39c-6.75,6.45-15.3,10.55-23.75,14.28c-20.03,8.22-42.41,8.98-63.6,5.82
		c-16.74-2.47-32.63-9.14-46.96-18.01C66.59,233.53,63.72,231.04,61,228.41z"/>
</g>
<g id="_x23_ffffffff">
	<path class="st6" d="M147.36,76.61c5.05-1.86,10.73,0.35,14.12,4.3c6.33,7.48,8.63,18.29,6.11,27.73c-1.2,5.24-6.05,9.58-11.55,9.4
		c-4.75,0.42-8.95-2.91-11.38-6.69c0.15-4.65,1.47-9.34,0.25-13.97c-0.65-4.59-3.33-8.52-4.57-12.9
		C141.53,81.13,143.81,77.72,147.36,76.61 M148.33,91.34c-2.81,3.68-1.16,12.16,4.63,11.36c3.45-1.46,3.22-5.69,2.35-8.69
		C154.37,91.16,150.91,90.24,148.33,91.34z"/>
	<path class="st6" d="M123.36,78.65c4.23-0.62,9.22-0.3,12.2,3.2c6.14,6.84,8.96,16.4,8.32,25.51c-0.08,3.11-1.3,6.13-3.3,8.49
		c-4.04,4.76-11.88,5.53-16.86,1.84c-7.8-5.69-10.66-16.11-10.05-25.37C113.93,86.52,117.05,79.72,123.36,78.65 M129.4,92.79
		c-6.14,1.65-4.09,11.82,1.66,12.3c2.31,0.51,3.41-2.14,4.07-3.88C136.08,97.65,133.53,92.42,129.4,92.79z"/>
</g>
<g id="_x23_e41a1bfb">
	<path class="st7" d="M239.42,85.78c3.18-1.6,6.96-2.57,10.47-1.51c3.4,1.51,4.14,5.68,4.35,9.01c0.63,8.78-2.96,17.04-6.33,24.92
		c-8.53,21.68-21.81,40.99-34.9,60.1c-1.16,1.9-2.97,3.6-3.4,5.82c2.22,3.94,5.35,7.36,6.96,11.64c2.25,5.74,3.45,12.23,2.02,18.31
		c-0.34,0.83-0.68,1.66-1.05,2.48c-0.06-8.2-0.68-17.04-5.82-23.82c-17.92-23.93-34.8-49.23-44.88-77.58
		c0.35-0.5,1.04-1.51,1.38-2.01c3.51,6.49,4.81,13.98,9.09,20.1c4.96-2.35,9.27-5.77,13.63-9.05c9.52-7.39,18.45-15.5,27.62-23.31
		C225.3,95.58,231.69,89.66,239.42,85.78 M237.02,90.23c-20.76,13.3-36.79,33.07-58.8,44.56c0.87,1.88,1.71,3.78,2.72,5.6
		c7.9,13.7,16.22,27.17,25.57,39.94c6.34-4.6,10.2-11.74,14.42-18.17c8.71-15.13,17.65-30.19,24.75-46.16
		c2.62-6.29,5.16-12.8,5.72-19.66c0.12-3.26-0.12-7.27-2.98-9.38C244.34,85.72,240.45,88.36,237.02,90.23z"/>
</g>
<g id="_x23_211613fe">
	<path class="st8" d="M148.33,91.34c2.58-1.1,6.04-0.18,6.98,2.67c0.87,3,1.1,7.23-2.35,8.69
		C147.17,103.5,145.52,95.02,148.33,91.34z"/>
	<path class="st8" d="M129.4,92.79c4.13-0.37,6.68,4.86,5.73,8.42c-0.66,1.74-1.76,4.39-4.07,3.88
		C125.31,104.61,123.26,94.44,129.4,92.79z"/>
</g>
<g id="_x23_211613fb">
	<path class="st8" d="M102.17,127.28c2.61-3.61,6.34-6.3,10.85-6.85c-0.71,1.12-1.43,2.22-2.14,3.34
		c10.03,6.77,22.14,10.42,34.2,10.97c6.68,0.43,13.18-1.37,19.69-2.56c-1.72,2.39-3.61,5.02-3.12,8.15
		c0.57,7.59,5.03,14.43,10.46,19.54c1.72-0.84,3.46-1.64,5.25-2.35c-2.72,5.54-8.11,9.55-14.07,10.99
		c-13.95,3.29-29.75-0.1-40.12-10.28c-9.23-8.59-13.89-20.69-16.92-32.65C104.89,126.16,103.53,126.73,102.17,127.28 M109.15,125.55
		c0.55,9.8,4.97,18.95,11.11,26.47c2.89-0.4,5.83-0.94,8.73-0.41c3.54,0.6,7.05,2.19,10.68,1.33c5.37-1.16,11.27-1.2,16.1,1.76
		c4.23,2.11,6.67,6.32,8.63,10.43c2.1-0.64,4.11-1.53,6.01-2.63c-6.08-7.48-10.69-16.52-10.45-26.39
		c-7.01-0.06-14.01,1.12-20.99,0.03C128.25,135.34,118.43,130.63,109.15,125.55 M123.17,153.79c0.23,3.01,2.9,4.71,5.13,6.29
		c9.89,6.45,22.39,9.02,33.94,6.23c-2.3-8.71-12.33-12.58-20.59-11.26c0.72,1.4,1.46,2.79,2.18,4.2
		C137.84,155.07,130.55,152.31,123.17,153.79z"/>
	<path class="st8" d="M179.58,228.65c0.34,0,1.02-0.01,1.37-0.02c-0.02,2.89,0.22,6.29-2.3,8.3c-4.59,3.86-13.28,4.28-16.67-1.3
		c4.71,1.66,10.28,3.68,14.87,0.57C179.64,234.76,179.25,231.28,179.58,228.65z"/>
	<path class="st8" d="M190.48,312.64c3.08-0.78,1.95,2.72,1.37,4.36c-0.66,0.03-2,0.09-2.66,0.12
		C189.59,315.62,189.96,314.1,190.48,312.64z"/>
</g>
<g id="_x23_2d0d0df9">
	<path class="st9" d="M128.13,121.16c1.76-1.29,4.16-1.29,5.9,0.03C132.17,121.97,130,121.88,128.13,121.16z"/>
</g>
<g id="_x23_3b2320e2">
	<path class="st10" d="M209.19,124.47c1.93-1.76,4.39-2.41,6.97-2.14C214.6,124.61,211.79,126.71,209.19,124.47z"/>
</g>
<g id="_x23_7e3033ff">
	<path class="st11" d="M109.15,125.55c9.28,5.08,19.1,9.79,29.82,10.59c6.98,1.09,13.98-0.09,20.99-0.03
		c-0.24,9.87,4.37,18.91,10.45,26.39c-1.9,1.1-3.91,1.99-6.01,2.63c-1.96-4.11-4.4-8.32-8.63-10.43c-4.83-2.96-10.73-2.92-16.1-1.76
		c-3.63,0.86-7.14-0.73-10.68-1.33c-2.9-0.53-5.84,0.01-8.73,0.41C114.12,144.5,109.7,135.35,109.15,125.55z"/>
</g>
<g id="_x23_f5b1b1ff">
	<path class="st12" d="M123.17,153.79c7.38-1.48,14.67,1.28,20.66,5.46c-0.72-1.41-1.46-2.8-2.18-4.2
		c8.26-1.32,18.29,2.55,20.59,11.26c-11.55,2.79-24.05,0.22-33.94-6.23C126.07,158.5,123.4,156.8,123.17,153.79z"/>
</g>
<g id="_x23_d72d2deb">
	<path class="st13" d="M53.34,212.68l0.73,0.87c0.34,2.39,0.51,4.79,0.62,7.2c-0.98-1.31-1.7-2.79-2.11-4.37
		C52.77,215.46,53.15,213.61,53.34,212.68z"/>
</g>
<g id="_x23_dde204fd">
	<path class="st14" d="M205.25,232.5c5.09-3.45,8.5-8.65,12.96-12.79c0.2,2.05,0.89,4.36-0.51,6.16
		c-3.02,4.57-7.21,8.24-11.46,11.64c-13.85,10.33-30.66,15.47-47.14,19.87c-9.86,0.74-19.71,2.75-29.63,1.65
		c-12.53-0.91-24.92-3.59-36.59-8.29c-13.43-4.81-26.11-11.92-36.75-21.48c-1.85-1.48-2.17-3.9-2.54-6.09
		c2.18,1.35,4.31,2.78,6.37,4.32c0.26,0.23,0.78,0.69,1.04,0.92c2.72,2.63,5.59,5.12,8.84,7.09c14.33,8.87,30.22,15.54,46.96,18.01
		c21.19,3.16,43.57,2.4,63.6-5.82c8.45-3.73,17-7.83,23.75-14.28C204.42,233.18,204.97,232.73,205.25,232.5z"/>
</g>
<g id="_x23_dadf05ff">
	<path class="st15" d="M208.02,238.34c3.61-3.32,6.66-7.18,10.25-10.5c1.47,15.29-2.74,31.81-13.85,42.86
		c-10.35,10.53-24.36,16.46-38.22,20.84c-10.37,2.89-20.98,5.8-31.85,5.09c-0.5-1.69-0.9-3.51-2.28-4.72
		c-0.53,4.99-0.31,10.03-0.31,15.05c-3.33,1.92-6.74,3.98-10.64,4.41c-7,0.89-14.08,0.48-21.11,0.34c0.69-5.46,1.66-11.14,0.1-16.52
		c-0.93-3-3.49-6.27-6.95-5.93c-3.1,1.24-6.08,2.8-9.27,3.81c-0.14-1.67-1-3.48-0.3-5.11c2.18-2.68,5.94-3.72,7.73-6.75
		c0.36-3.24-1.69-6.11-3.6-8.52c-3.29-3.8-7.3-7.37-12.26-8.7c-3.92-1.02-7.86,0.42-11.57,1.59c-6.48-10.71-10.97-23.19-10.15-35.85
		c5.1,3.07,9.22,7.52,14.53,10.27c7.01,3.62,13.56,8.2,21.01,10.94c17.44,7.09,36.48,9.96,55.25,9.04c1.6,4.31,3.19,9,6.98,11.91
		c2.71,2.23,6.98,3.05,9.98,0.93c2.26-2.66,3.47-6.19,6.5-8.18c0.26,3.07,0.12,6.19,0.67,9.23c0.82,1.53,2.58,2.19,4.12,2.76
		c3.09,1.3,6.45,0.97,9.58,0.06c6.15-1.66,13.15-3.58,16.92-9.12c2.92-6.01-4.05-10.09-5.32-15.47c3.24,0.83,6.12,2.55,9.15,3.9
		c3.07-0.4,4.31-3.86,5.18-6.41c1.04-2.8,0.62-5.79,0.1-8.65C208.3,240.29,208.11,238.99,208.02,238.34z"/>
	<path class="st15" d="M197.02,280.27c3.07-2.1,5.77-4.69,8.94-6.67c-0.4,1.24,0.15,2.49,0.61,3.63c1.4,4.34,2.47,8.77,3.89,13.1
		c-6.92,8.25-17.34,12.79-27.76,14.61c-5.99,1.09-12.63,0.99-17.98-2.22c-2.81-1.5-2.84-6.4,0.39-7.37
		C176,290.92,187.11,286.72,197.02,280.27z"/>
</g>
<g id="_x23_7873bde9">
	<path class="st16" d="M205.92,239.93c0.71-0.51,1.42-1.04,2.1-1.59c0.09,0.65,0.28,1.95,0.37,2.6c0.02,2.88-0.01,5.77-0.1,8.65
		c-0.87,2.55-2.11,6.01-5.18,6.41c-3.03-1.35-5.91-3.07-9.15-3.9c1.27,5.38,8.24,9.46,5.32,15.47c-3.77,5.54-10.77,7.46-16.92,9.12
		c-3.19,0.05-6.39,0.03-9.58-0.06c-1.54-0.57-3.3-1.23-4.12-2.76c-0.55-3.04-0.41-6.16-0.67-9.23c-3.03,1.99-4.24,5.52-6.5,8.18
		c-3,2.12-7.27,1.3-9.98-0.93c-3.79-2.91-5.38-7.6-6.98-11.91c0.6-0.07,1.79-0.21,2.39-0.28c0.69,4.88,3.13,9.87,7.78,12.07
		c2.54,1.26,6.22,0.39,7.13-2.53c1.56-2.45,2.02-7.41,5.99-6.58c5.8,1.51-0.06,10.91,6.03,12.05c5.96,1.36,12.22-0.4,17.62-2.96
		c3.4-1.61,7.05-4.87,6.23-9.02c-1.31-3.19-4.19-5.42-5.57-8.58c-0.45-2.09,1.52-3.41,2.67-4.82c2.88,1.74,5.66,3.86,8.97,4.72
		C207.73,250.59,205.94,244.53,205.92,239.93z"/>
</g>
<g id="_x23_b996c4ff">
	<path class="st17" d="M159.1,257.38c16.74-2,32.14-9.56,46.82-17.45c0.02,4.6,1.81,10.66-2.15,14.12
		c-3.31-0.86-6.09-2.98-8.97-4.72c-1.15,1.41-3.12,2.73-2.67,4.82c1.38,3.16,4.26,5.39,5.57,8.58c0.82,4.15-2.83,7.41-6.23,9.02
		c-5.4,2.56-11.66,4.32-17.62,2.96c-6.09-1.14-0.23-10.54-6.03-12.05c-3.97-0.83-4.43,4.13-5.99,6.58
		c-0.91,2.92-4.59,3.79-7.13,2.53c-4.65-2.2-7.09-7.19-7.78-12.07C151.01,259.11,155.06,258.23,159.1,257.38z"/>
	<path class="st17" d="M67.28,265.89c3.31,0.03,6.74-0.45,9.96,0.54c3.54,1.39,6.45,4,9,6.76c1.85,2.14,3.88,4.91,2.97,7.91
		c-2.08,2.18-4.85,3.52-6.98,5.64c-1.36,2.84-0.74,7.54,2.91,8.2c2.8-0.82,5.28-2.49,8.12-3.21c2.26-0.69,3.97,1.73,4.87,3.48
		c1.72,5.3,0.61,10.98-0.11,16.36c-6.07-0.57-12.16-1.82-17.71-4.42c-2.26-1.04-4.6-3.05-4.07-5.82c0.81-5.43,1.13-11.26,4.04-16.05
		c-5.35-5.21-11.13-10.19-14.7-16.88C66.14,267.56,66.71,266.73,67.28,265.89z"/>
</g>
<g id="_x23_a0a529d5">
	<path class="st18" d="M208.39,240.94c0.52,2.86,0.94,5.85-0.1,8.65C208.38,246.71,208.41,243.82,208.39,240.94z"/>
</g>
<g id="_x23_736cafda">
	<path class="st19" d="M63.89,265.58c3.71-1.17,7.65-2.61,11.57-1.59c4.96,1.33,8.97,4.9,12.26,8.7c1.91,2.41,3.96,5.28,3.6,8.52
		c-1.79,3.03-5.55,4.07-7.73,6.75c-0.7,1.63,0.16,3.44,0.3,5.11c3.19-1.01,6.17-2.57,9.27-3.81c3.46-0.34,6.02,2.93,6.95,5.93
		c1.56,5.38,0.59,11.06-0.1,16.52c-0.5-0.04-1.49-0.1-1.99-0.14c0.72-5.38,1.83-11.06,0.11-16.36c-0.9-1.75-2.61-4.17-4.87-3.48
		c-2.84,0.72-5.32,2.39-8.12,3.21c-3.65-0.66-4.27-5.36-2.91-8.2c2.13-2.12,4.9-3.46,6.98-5.64c0.91-3-1.12-5.77-2.97-7.91
		c-2.55-2.76-5.46-5.37-9-6.76c-3.22-0.99-6.65-0.51-9.96-0.54c-0.57,0.84-1.14,1.67-1.7,2.51
		C65.01,267.46,64.45,266.52,63.89,265.58z"/>
</g>
<g id="_x23_747704d0">
	<path class="st20" d="M205.96,273.6c1.75-0.11,1.97,2.92,0.61,3.63C206.11,276.09,205.56,274.84,205.96,273.6z"/>
</g>
<g id="_x23_929944d9">
	<path class="st21" d="M172.78,276.63c3.19,0.09,6.39,0.11,9.58,0.06C179.23,277.6,175.87,277.93,172.78,276.63z"/>
</g>
<g id="_x23_e61919fb">
	<path class="st22" d="M200.43,301.85c1.17-0.56,2.31-1.19,3.43-1.85c0.04,5.66-2.12,10.98-4.06,16.2
		c-2.45,5.89-6.43,11.86-12.72,14.05c-2.66,0.07-5.33-0.02-7.99-0.06c-3.13-2.54-6.1-5.4-7.93-9.04c-1.57-4.6-2.55-9.38-3.53-14.13
		c1.04,0.19,2.1,0.34,3.16,0.47c0.76,7.04,3.08,14.72,9,19.12c3.16,2.49,7.64,1.37,10.42-1.14c4.3-3.78,6.3-9.34,8.54-14.44
		C200.06,308.15,200.77,305.01,200.43,301.85z"/>
</g>
<g id="_x23_e51919fe">
	<path class="st0" d="M83.95,310.23c1.25,0.54,2.51,1.08,3.79,1.57c-1.56,5.26,0.6,10.54,2.37,15.45c1.89,4.66,4.42,9.8,9.31,11.88
		c4.74,1.85,9.58-1.4,12.33-5.1c4.34-5.95,7.05-12.91,9.46-19.83c1.29-0.23,2.58-0.5,3.86-0.82c-1.17,2.34-2.37,4.67-3.39,7.09
		c-0.72,1.67-1.41,3.35-2.12,5.03c-0.56,1.25-1.16,2.49-1.78,3.72c-1.53,2.77-3.23,5.44-5.12,7.98c-1.12,1.1-2.3,2.13-3.53,3.11
		c-3.58,1.36-7.46,1.81-11.27,1.39c-3.77-1.62-6.36-5.06-8.35-8.52C86.48,325.9,84.67,318.07,83.95,310.23z"/>
</g>
<g id="_x23_0d08092e">
	<path class="st23" d="M119.56,325.5c0.71-1.68,1.4-3.36,2.12-5.03c0.27,0.27,0.83,0.83,1.1,1.1c5.07,0.77,10.13-1.39,15.25-1.34
		c11.04-0.2,22.16-0.72,33.13,0.92c1.83,3.64,4.8,6.5,7.93,9.04c-3.86,3.72-8.13,7.19-13.26,9c-14.27,5.27-29.7,6.23-44.78,6.17
		c-7.92,0.25-15.39-2.81-23.19-3.66c3.81,0.42,7.69-0.03,11.27-1.39c9.37,2.93,19.29,2.36,28.96,1.95
		c9.32-0.79,18.85-2.3,27.23-6.66c2.76-1.31,4.48-3.9,6.17-6.31c-1.75-1.74-3.46-3.81-6.01-4.32c-8.59-2.21-17.59-1.85-26.38-1.44
		C132.53,323.7,126.16,326.03,119.56,325.5z"/>
</g>
<g id="_x23_150f104d">
	<path class="st24" d="M119.56,325.5c6.6,0.53,12.97-1.8,19.54-1.97c8.79-0.41,17.79-0.77,26.38,1.44c2.55,0.51,4.26,2.58,6.01,4.32
		c-1.69,2.41-3.41,5-6.17,6.31c-8.38,4.36-17.91,5.87-27.23,6.66c-9.67,0.41-19.59,0.98-28.96-1.95c1.23-0.98,2.41-2.01,3.53-3.11
		c3.9,1.75,8.08,2.96,12.38,3.05c11.16,0.47,22.7-0.42,33.06-4.88c2.08-1.05,4.95-2.3,5.01-5.02c0.16-2.02-2.21-2.72-3.7-3.27
		c-7.32-1.96-15.03-1.88-22.5-1.08c-6.46,0.62-12.67,2.65-19.13,3.22C118.4,327.99,119,326.75,119.56,325.5z"/>
</g>
<g id="_x23_1c15166c">
	<path class="st25" d="M136.91,326c7.47-0.8,15.18-0.88,22.5,1.08c1.49,0.55,3.86,1.25,3.7,3.27c-0.06,2.72-2.93,3.97-5.01,5.02
		c-10.36,4.46-21.9,5.35-33.06,4.88c-4.3-0.09-8.48-1.3-12.38-3.05c1.89-2.54,3.59-5.21,5.12-7.98
		C124.24,328.65,130.45,326.62,136.91,326 M128.51,329.91c-2.99,1.14-7.48,2.2-7.48,6.16c9.59,3.39,20.26,2.37,29.66-1.15
		c1.97-0.65,3.37-2.2,4.77-3.63c-1.32-1.18-2.7-2.47-4.56-2.62C143.48,327.34,135.78,328.06,128.51,329.91z"/>
</g>
<g id="_x23_251c1d8b">
	<path class="st26" d="M128.51,329.91c7.27-1.85,14.97-2.57,22.39-1.24c1.86,0.15,3.24,1.44,4.56,2.62c-1.4,1.43-2.8,2.98-4.77,3.63
		c-9.4,3.52-20.07,4.54-29.66,1.15C121.03,332.11,125.52,331.05,128.51,329.91z"/>
</g>
<g id="_x23_05030313">
	<path class="st27" d="M165.83,339.19c5.13-1.81,9.4-5.28,13.26-9c2.66,0.04,5.33,0.13,7.99,0.06c-1.5,4.37-5.8,6.53-9.67,8.44
		c-14.4,6.9-30.57,8.77-46.33,9.68c-11.47-0.35-23.13,0.98-34.42-1.66c-4.28-1.04-8.88-2.97-10.71-7.3
		c1.19-2.07,2.37-4.16,3.56-6.23c1.99,3.46,4.58,6.9,8.35,8.52c7.8,0.85,15.27,3.91,23.19,3.66
		C136.13,345.42,151.56,344.46,165.83,339.19z"/>
</g>
</svg>
