<svg height="219pt" viewBox="0 0 234 219" width="234pt" xmlns="http://www.w3.org/2000/svg"><path d="m74.68 0h8.33c3.47 1.14 7.07 2.42 10.78 1.82 6.82-.95 13.82-2.05 20.61-.28 8.24 1.96 16.36-2.49 24.6-.72 5.79 1.07 11.74 1.71 17.58.56 6.17-1.27 13.4.65 17.09 6.01 2.15 3.1 1.78 7.03 1.94 10.61-.11 4.38 4.11 6.95 5.61 10.75 2.67 4.96.91 10.7 1.94 15.97 1.58 3.36 4.38 6.13 5.17 9.87 1.6 5.43-.01 11.02-.3 16.51-.01.48-.02 1.45-.02 1.94 1.81 4.66 4.43 9.08 5.22 14.09-.07.66-.21 2-.28 2.67-.47 3.06-1.58 6.02-1.78 9.13.58 3.94 2.93 7.39 3.47 11.35.09 3.1-.94 6.19-.26 9.28.53 2.76.61 5.57.56 8.38-1.01.75-2.01 1.51-3.03 2.23-4.61 3.61-10.22.98-14.69-1.36-.95-.42-1.91-.8-2.88-1.16-3.15.33-6.18 1.36-9.35 1.52-3.78.29-7.52-.48-11.25-.96-.57.01-1.71.03-2.29.04-4.61.45-9.21 1.15-13.85 1.04-1.45-.2-2.88-.46-4.3-.76-3.12-.59-6.12-1.83-9.3-2.02-3.22.24-6.29 1.34-9.41 2.09-1.66.43-3.32.86-4.99 1.26-4.59-.24-8.81-2.59-13.42-2.6-3.76.69-7.32 2.52-11.25 2.17-.37.02-1.11.05-1.47.07-6.59 1.16-9.44 7.86-14.4 11.53-2.89 2.08-4.93 5.02-7.04 7.84-1.01.55-2.02 1.1-3.02 1.65-1.57-1.67-3.44-3.35-3.88-5.71-.62-3.84.52-7.97-1.32-11.57-1.46-3.39-4.35-5.85-6.22-8.98-2.14-4.62-.49-10.2-3.13-14.67-2.23-3.81-5.04-7.27-6.88-11.32 1.31.03 2.61.02 3.91-.02 1.92 3.82 4.28 7.44 5.75 11.47 1.34 3.65 1.55 7.6 2.94 11.23 1.81 4.56 5.36 8.17 7.06 12.79 1.4 3.8 2.03 7.82 3 11.74 4.21-4.3 10.13-6.68 13.49-11.82 1.9-2.66 4.24-4.95 6.76-7.02-1.43-4.44-1.53-9.11-1.37-13.72.37-6.16-6.08-9.93-6.39-15.9-.3-3 .11-6.11-.79-9.03-1.47-3.86-5.01-6.55-6.32-10.49-1.14-3.86-.83-8.03-2.24-11.83-1.83-4.53-5.72-7.72-8.23-11.82-1.77-2.95-1.6-6.52-2.17-9.8-.41-6.09-7.67-8.08-9.51-13.5-1.23-3.63-1.23-7.94-4.16-10.79-3.19-3.25-6.31-6.64-8.22-10.84-2.29 5.81-4.42 11.82-8.47 16.69-3.85 4.51-4.26 10.72-7.3 15.67-1.47 2.93-3.91 5.95-3.16 9.43 1.07 4.2 5.04 6.46 8.05 9.17 2.37 1.93 3.09 5.03 4.22 7.73 1.2 3.29 3.29 6.15 5.45 8.88-.65.79-1.29 1.58-1.92 2.38-2.03-2.65-4.01-5.34-5.68-8.23-1.29-2.25-1.43-4.95-2.67-7.22-1.61-1.79-3.75-2.98-5.59-4.51-3.35-2.45-4.86-6.85-4.51-10.88.48-3.46 3.54-5.75 4.51-9.01 1.14-3.78 1.62-7.84 3.76-11.24 1.81-3.11 4.95-5.37 6.13-8.86 1.98-5.69 2.88-12.23 7.35-16.65 4.29-3.37 9.8.05 14.63-.35 4.99-.64 9.99-2.09 15.06-1.18 4.58.79 9.21.09 13.74-.74m-20.94 2.84c-3.76.91-7.65 1.62-11.51.85-3.15-.69-6.38-.42-9.47.48.51 5.42 3.45 10.1 7.5 13.61 3.63 3.01 3.43 8.01 4.97 12.08 2.06 4.62 7.48 6.74 9.28 11.53.91 3.28.55 6.85 2.01 9.99 2.08 4.44 5.91 7.79 7.97 12.24 1.82 4.11 1.32 8.79 2.81 13 1.35 2.88 3.72 5.15 5.09 8.04 2.53 5.12.88 11.25 3.47 16.36 1.84 3.88 5.36 7.31 4.94 11.93.26 4.33-1.09 9.57 2.2 13.07 3.06 2.63 7.27.43 10.66-.31 5.01-1.8 10.29-.44 15.38.16 5.09.61 9.87-2.04 14.95-1.69 5.74.33 11.33 1.92 17.07 2.24 4.17.44 8.31-.35 12.42-.89 3.59-.48 7.04.98 10.58 1.3 4.31.37 8.39-2.03 12.69-1.53 4.64 1.15 9.71 4.53 14.45 1.95 3.16-1.72 1.37-5.61.81-8.29-1.71-4.49 1.13-9.41-1.22-13.77-2.73-5.47-.7-11.49-.67-17.24.28-6.45-3.9-11.91-4.83-18.16-1-4.54 1.12-9.04.52-13.58-1.28-6.1-6.16-10.91-6.64-17.23-.27-4.04-.01-8.35-2.2-11.95-1.67-3.65-5.42-6.62-4.97-10.97-.02-3.77.58-8.57-3.17-10.87-5.42-3.62-11.98-.57-17.86-.28-5.25.72-10.04-1.9-15.07-2.77-5.41-.16-10.38 2.87-15.79 2.69-4.42-.42-8.59-2.37-13.07-2.29-6.07.14-11.96 2.23-18.06 1.93-3.77-.2-7.28-1.88-11.05-2.1-4.68.04-9.16 2.27-13.88 1.56-3.43-.42-6.83-2.01-10.31-1.09z" fill="#919207"/><path d="m32.38 33.28c4.69-1.4 8.93 2.7 10.75 6.65 2.52 4.74 2.32 11.66-2.55 14.83-5.59 2.4-10.85-3.01-12.44-7.96-1.77-4.65-1.06-11.57 4.24-13.52z" fill="#919207"/><path d="m36.4 74.67c1.14-2.09 1.61-7.49 4.98-5.82 3.81 1.66 3.86 6.51 4.75 9.99-3.1-1.71-6.37-3.08-9.73-4.17z" fill="#919207"/><path d="m53.45 83.3c2.57-1.37 5.85-3.65 8.67-1.53 6.32 4.81 7.91 14.21 4.99 21.35-1.1 2.84-4.16 5.74-7.39 4.27-4.81-2.14-6.2-7.81-7.33-12.46 2.11-1.34 4.74-3.09 4.62-5.92.08-2.45-1.84-4.25-3.56-5.71z" fill="#919207"/><path d="m61.36 119.02c1.21-.68 3.01-.61 3.83.64 2.25 2.93 2.88 7.91-.39 10.38-4.66-.63-6.48-7.78-3.44-11.02z" fill="#919207"/><path d="m53.74 2.84c3.48-.92 6.88.67 10.31 1.09 4.72.71 9.2-1.52 13.88-1.56 3.77.22 7.28 1.9 11.05 2.1 6.1.3 11.99-1.79 18.06-1.93 4.48-.08 8.65 1.87 13.07 2.29 5.41.18 10.38-2.85 15.79-2.69 5.03.87 9.82 3.49 15.07 2.77 5.88-.29 12.44-3.34 17.86.28 3.75 2.3 3.15 7.1 3.17 10.87-.45 4.35 3.3 7.32 4.97 10.97 2.19 3.6 1.93 7.91 2.2 11.95.48 6.32 5.36 11.13 6.64 17.23.6 4.54-1.52 9.04-.52 13.58.93 6.25 5.11 11.71 4.83 18.16-.03 5.75-2.06 11.77.67 17.24 2.35 4.36-.49 9.28 1.22 13.77.56 2.68 2.35 6.57-.81 8.29-4.74 2.58-9.81-.8-14.45-1.95-4.3-.5-8.38 1.9-12.69 1.53-3.54-.32-6.99-1.78-10.58-1.3-4.11.54-8.25 1.33-12.42.89-5.74-.32-11.33-1.91-17.07-2.24-5.08-.35-9.86 2.3-14.95 1.69-5.09-.6-10.37-1.96-15.38-.16-3.39.74-7.6 2.94-10.66.31-3.29-3.5-1.94-8.74-2.2-13.07.42-4.62-3.1-8.05-4.94-11.93-2.59-5.11-.94-11.24-3.47-16.36-1.37-2.89-3.74-5.16-5.09-8.04-1.49-4.21-.99-8.89-2.81-13-2.06-4.45-5.89-7.8-7.97-12.24-1.46-3.14-1.1-6.71-2.01-9.99-1.8-4.79-7.22-6.91-9.28-11.53-1.54-4.07-1.34-9.07-4.97-12.08-4.05-3.51-6.99-8.19-7.5-13.61 3.09-.9 6.32-1.17 9.47-.48 3.86.77 7.75.06 11.51-.85m78.1 3.15c.44 1.89.9 3.79 1.34 5.69-1.83.44-3.65.93-5.46 1.46-.62-1.73-1.25-3.45-1.91-5.17-.65.26-1.97.77-2.63 1.03.91 1.69 1.79 3.4 2.65 5.12-3.86 2.65-6.49 6.61-8.06 10.97-2.8-4.42-7.03-7.61-11.51-10.19.07-2.45-.01-4.89-.26-7.33-2.16 1.53-1.79 4.15-1.77 6.47-2.05-.51-4.12-.95-6.21-1.25-.76-2.18-.92-4.89-3.33-5.93.09 2 .33 3.98.64 5.96-2.03.41-4.05.91-6.07 1.42-.85-1.67-1.71-3.33-2.56-5-.49.25-1.48.75-1.97 1 .86 1.69 1.75 3.37 2.64 5.04-10.17 5.74-11.45 19.68-6.75 29.4l.84.22c-6.61 1.49-12.8 6.15-14.75 12.82-1.08 3.32-.11 7.71 3.29 9.25 3.26 1.85 7.03.52 10.34-.44-2.58-.38-5.24-.37-7.77-1.05-2.68-1.02-4.64-4.01-4.02-6.9 1.15-6.02 6.35-10.93 12.4-11.87 3.28-.8 7.54-.06 9.05 3.34 1.3 2.18.16 4.66-.38 6.88l.72-.24c6.79 4.95 16.77 6.55 24.01 1.66 4.23-2.48 6.73-6.99 8.01-11.59 2.7 3.87 6.42 6.84 10.42 9.29-2.05 1.37-4.16 2.65-6.04 4.25 6.33-2.19 11.74-6.49 16.82-10.77 5.8-4.84 9.46-12.46 16.88-15.16 2.8-1.36 6.65.55 6.88 3.73.45 4.04-2.14 7.63-4.85 10.35-5.92 5.51-13.06 9.58-20.59 12.48-3.27 1.38-6.79 2.21-9.84 4.1 10.4-.95 20.07-5.6 28.7-11.26-.07 1.16 1.34 2.55 2.5 1.96.67-1.07-.59-2.5-1.68-2.62 3.19-2.74 5.91-6.11 7.37-10.09 5.73.56 12.41 4.36 12.02 10.91.09 4.27-3.9 6.41-6.98 8.44 2.11-.45 4.55-.57 6.12-2.26 3.32-3.59 3.04-9.6 0-13.27-2.59-3.18-6.66-4.68-10.63-5.18.8-3.02.01-6.57-2.65-8.43-2.18-1.85-5.15-1.17-7.67-.65-2.22-8.1-7.7-15.27-15.24-19.09.45-1.75.99-3.48 1.24-5.26-3.13-2.35-3.13 2.49-3.46 4.47-1.85-.37-3.71-.68-5.59-.92-.6-2.34-1.18-4.68-1.8-7.01-.61.3-1.84.91-2.45 1.22m-78.51 2.3c-2.5.49-3.88 3.22-3.3 5.6 1.05 5.36 5.24 10.71 10.98 11.19 3.08.52 4.74-3.31 3.83-5.86-1.27-5.23-5.72-11.02-11.51-10.93m108.67.21c-.72 2.11-2.18 4.36-1.28 6.65.71 2.07 2.81 3.12 4.38 4.45.45-2.1 1.38-4.24.94-6.42-.8-1.95-2.6-3.23-4.04-4.68m-101.05 20.76c-.86 2.76-2.17 6.17.22 8.58 1.55 2.57 4.62 2.71 7.29 2.58-.53-2.32-.79-4.78-2-6.87-1.25-2.05-3.56-3.05-5.51-4.29m108.3 16.91c-.52 1.62.04 2.17 1.68 1.65.52-1.61-.04-2.16-1.68-1.65m-84.86 1.9c-1.99.39-1.13 3.48.76 2.84 2.03-.35 1.15-3.53-.76-2.84m86.65 2.34c-1.35.94.26 3.18 1.57 2.13 1.34-.94-.28-3.17-1.57-2.13m5.2-.49c-.48 1.63.08 2.18 1.7 1.65.49-1.63-.07-2.18-1.7-1.65m-100.95 1.08c-1.89.33-1.61 3.61.48 2.83 1.89-.31 1.61-3.64-.48-2.83m6.19 2.08c-1.77.31-1.28 3.24.54 2.66 1.82-.28 1.33-3.32-.54-2.66m84.27.84c1.04.91 2.09 1.81 3.15 2.71-4.96 5.13-11.12 8.96-17.74 11.56-11.92 5.08-25.38 4.67-37.92 2.46-10.28-2.31-21.02-4.76-29.62-11.2 1.56-1.13 3.15-2.23 4.64-3.46-3.88.65-8.1 1.97-9.85 5.86 1.27-.6 2.52-1.24 3.76-1.9 6.95 12.8 13.52 25.92 22.34 37.57 5.14 6.45 10.71 12.94 18.12 16.84 7.16 3.85 15.75 4.75 23.61 2.8 7.18-1.67 13.04-7.24 16.07-13.83 6.09-14.84 6.17-31.1 7.69-46.82 1.67.52 3.33 1.06 5.03 1.52-2.39-2.64-5.63-4.41-9.28-4.11m-81.43 38.08c-2.71 2.52-2.93 7.27-.2 9.87 1.69 2.33 5.81 1.1 6.11-1.75 1.67-3.7-1.3-9.98-5.91-8.12m95.08.25c-3.27 2.37-4.87 7.46-2.78 11.04 2.32 3.37 7.64 1.54 8.94-1.84 1.1-3.05 1.07-7.34-1.93-9.31-1.38-.32-2.87-.34-4.23.11m-84.08 11.88c-4.1 1.15-4.08 6.33-3.31 9.69.64 3.21 3.87 6.82 7.4 5.58 6.44-3.48 3.63-16.14-4.09-15.27m85.94 9.29c-.51 1.97-.43 4.03-.53 6.05 1.61-.55 4.07-.04 4.89-1.93.45-1.96.38-3.99.48-5.98-1.59.57-3.71.43-4.84 1.86m-39.27 8.78c-7.8.44-15.17-2.54-22.38-5.09 11.26 10.23 31.37 10.89 41.68-1.09-6.15 2.8-12.45 5.74-19.3 6.18z" fill="#fff253"/><path d="m205.32 71.49c5.54-2.11 11.43-4.63 17.48-3.48 1.39 1.29 1.71 3.27 2.06 5.05.66 5.19.69 10.45.27 15.67 3.01 1.7 5.83 4.12 6.52 7.68 1.21 3.49-.76 6.95-3.31 9.22.38-2.47.83-4.96.64-7.47-1 2.3-1.32 4.93-2.9 6.95-1.56 1.85-4.21 1.51-6.37 1.5 1.34-2.48 2.7-5.06 2.34-7.98-1.78 3.01-3.41 8.04-7.79 7.41-4.03-2.43-2.29-7.65.34-10.44.29 2.04.53 4.09.92 6.12.95-3.48 1.43-7.59-1.03-10.59-.01.98-.04 2.96-.06 3.95l-2.22.2c.63-2.64 1.43-5.88 4.42-6.73 1.42-.91 2.95.02 4.4.35.11-5-.41-10.03-2.04-14.78.6-.69 1.2-1.38 1.81-2.06-4.55.67-9.11 1.46-13.42 3.12-.69-1.23-1.37-2.46-2.06-3.69z" fill="#fff253"/><path d="m11.31 83.34c1.33-3.06 5.04-2.37 7.72-2.43 5.46.34 10.75 1.91 16.09 3.01 2.18.22.74 3.08.95 4.42-5.99-1.1-11.87-3.09-18-3.31-2.63-.38-4 2.41-4.5 4.55-1.25 5.02-2.49 10.24-1.71 15.44 4.49-.28 10.3-1.36 13.33 2.92 1.65 1.71.23 3.81-.49 5.58-1.93-1.66-1.57-4.17-1.69-6.44-2.14 2.59-2.64 5.98-3.17 9.19 1.03-.99 2.05-1.99 3.09-2.97.06 1.56.11 3.12.15 4.68-1.81 1.66-4.21 2.9-6.66 1.75-1.64-1.45-2.37-3.58-3.53-5.37-.07 2.38.4 4.71.88 7.03-1.9-.65-4.24-.83-5.5-2.58-.81-1.43-1.26-3.03-1.87-4.54-.71 1.93-1.42 3.88-2.21 5.79-.99-1.57-2.45-3.1-2.24-5.11-.23-4.3 4.7-6.75 4.68-10.99 0-7.1 1.74-14.19 4.68-20.62z" fill="#fff253"/><path d="m177.85 152.49c7.97-6.76 16.73-13.46 27.18-15.62 4.68-.97 3.82 5.34 4.06 8.33-1.69.45-3.36.97-4.98 1.62-.23-1.77-.61-3.5-1.07-5.22-8.53 2.72-16.76 6.85-23.22 13.14-.49-.56-1.48-1.68-1.97-2.25z" fill="#fff253"/><path d="m92.34 191.53c1.29.36 2.58.73 3.87 1.1-5.71 9.12-10.97 18.96-19.53 25.79-1.71-1.8-2.95-3.95-3.95-6.21 1.4-1.26 2.85-2.47 4.35-3.61-.33 1.31-.66 2.63-.99 3.96 7.14-5.46 11.68-13.47 16.25-21.03z" fill="#fff253"/><path d="m131.84 5.99c.61-.31 1.84-.92 2.45-1.22.62 2.33 1.2 4.67 1.8 7.01 1.88.24 3.74.55 5.59.92.33-1.98.33-6.82 3.46-4.47-.25 1.78-.79 3.51-1.24 5.26 7.54 3.82 13.02 10.99 15.24 19.09 2.52-.52 5.49-1.2 7.67.65 2.66 1.86 3.45 5.41 2.65 8.43-.13.34-.4 1.02-.53 1.36-1.46 3.98-4.18 7.35-7.37 10.09-.21.16-.62.49-.82.66-8.63 5.66-18.3 10.31-28.7 11.26 3.05-1.89 6.57-2.72 9.84-4.1 7.53-2.9 14.67-6.97 20.59-12.48 2.71-2.72 5.3-6.31 4.85-10.35-.23-3.18-4.08-5.09-6.88-3.73-7.42 2.7-11.08 10.32-16.88 15.16-5.08 4.28-10.49 8.58-16.82 10.77 1.88-1.6 3.99-2.88 6.04-4.25-4-2.45-7.72-5.42-10.42-9.29-1.28 4.6-3.78 9.11-8.01 11.59-7.24 4.89-17.22 3.29-24.01-1.66.44-.15 1.33-.43 1.77-.57 4.73 2.35 10.05 4.6 15.43 3.3 7.68-1.32 13.47-8.71 13.57-16.4.98-11.25-6.11-22.39-16.45-26.7-6.93-3.19-16.27-2.06-21.04 4.28-5.61 6.82-4.72 16.71-1.29 24.32l-.87-.02-.84-.22c-4.7-9.72-3.42-23.66 6.75-29.4-.89-1.67-1.78-3.35-2.64-5.04.49-.25 1.48-.75 1.97-1 .85 1.67 1.71 3.33 2.56 5 2.02-.51 4.04-1.01 6.07-1.42-.31-1.98-.55-3.96-.64-5.96 2.41 1.04 2.57 3.75 3.33 5.93 2.09.3 4.16.74 6.21 1.25-.02-2.32-.39-4.94 1.77-6.47.25 2.44.33 4.88.26 7.33 4.48 2.58 8.71 5.77 11.51 10.19 1.57-4.36 4.2-8.32 8.06-10.97-.86-1.72-1.74-3.43-2.65-5.12.66-.26 1.98-.77 2.63-1.03.66 1.72 1.29 3.44 1.91 5.17 1.81-.53 3.63-1.02 5.46-1.46-.44-1.9-.9-3.8-1.34-5.69m-5.24 9.5c-4.14 2.4-6.31 6.93-7.64 11.33 2.2 4.04 4.02 8.47 4.02 13.13.11 1.88-.17 3.81.3 5.65 2.92 3.77 6.52 7.19 10.94 9.13 1.74-.95 3.29-2.19 4.92-3.3-3.57-2.62-6.89-5.92-8.21-10.27-1.88-5.01-1.16-11.59 3.34-14.97 3.37-2.35 7.84-.51 10.61 1.93 3.34 2.78 4.12 7.24 5.21 11.2 2.34-2.26 4.97-4.19 7.62-6.08-1.65-6.37-5.31-12.38-10.88-16.04-5.73-4.22-13.97-5.52-20.23-1.71m6.58 14.65c-3.14 7.21.35 16.21 7.33 19.75 2.5-2.36 5.14-4.63 7.24-7.37 1.17-1.21.44-3.03.33-4.47-.66-4.15-2.77-8.49-6.81-10.24-2.76-1.43-6.81-.8-8.09 2.33z" fill="#000002"/><path d="m102.4 25.35c4.1-.91 7.85 1.95 10.46 4.8 3.77 3.88 4.73 9.64 4.12 14.83-.65 4.47-5.2 8.68-9.88 7.23-7.67-2.01-12.24-10.61-11.36-18.21.11-3.9 2.73-7.79 6.66-8.65m-.04 1.86c-3.58 1.15-5.21 5.29-5.15 8.78.28 5.45 3.01 11.08 7.88 13.83 2.44 1.47 6.05 1.68 8.02-.71 6.36-7.89-.3-22.76-10.75-21.9z" fill="#000002"/><path d="m104.26 31.87c2.7-.56 4.64 2.04 5.99 4 1.66 3.02 3.03 7.28.4 10.18-2.59 1.91-5.58-.75-6.89-2.97-1.8-3.41-3.25-8.51.5-11.21z" fill="#000002"/><path d="m137.46 32.24c1.15-.92 2.98-1.15 4.12-.07 2.95 2.57 4.22 6.82 3.45 10.62-.51 1.37-1.29 2.95-3.04 2.47-5.04-1.35-8.39-8.99-4.53-13.02z" fill="#000002"/><path d="m165.75 53.92c3.65-.3 6.89 1.47 9.28 4.11-1.7-.46-3.36-1-5.03-1.52-1.52 15.72-1.6 31.98-7.69 46.82-3.03 6.59-8.89 12.16-16.07 13.83-7.86 1.95-16.45 1.05-23.61-2.8-7.41-3.9-12.98-10.39-18.12-16.84-8.82-11.65-15.39-24.77-22.34-37.57-1.24.66-2.49 1.3-3.76 1.9 1.75-3.89 5.97-5.21 9.85-5.86-1.49 1.23-3.08 2.33-4.64 3.46 8.6 6.44 19.34 8.89 29.62 11.2 12.54 2.21 26 2.62 37.92-2.46 6.62-2.6 12.78-6.43 17.74-11.56-1.06-.9-2.11-1.8-3.15-2.71m-11.89 16.35c.8 4.5 1.56 9 2.1 13.54-5.13.74-10.34.87-15.49.19-.37-3.35-.84-6.69-1.44-10.01-1.36.31-2.72.62-4.07.94.52 3.33.95 6.68 1.25 10.04-5.98.1-11.99.1-17.92-.82-.37-3.49-.42-7.13-1.81-10.42-10.34-2.02-20.47-5.14-29.89-9.93 5.69 10.34 11.04 20.91 18.04 30.47 1.66-3.32 3.4-7.24 7.25-8.46 2.43-1.13 6-.57 7.04 2.18 1.36 3.41 1.84 7.08 2.93 10.57 1.67-.57 3.8-.41 5.13-1.69 1.08-2.57.01-5.45-.08-8.12 2.7-1.43 6.32-2.93 8.99-.59 4.84 3.64 5.2 10.22 4.36 15.72 5.12 1.1 9.75 3.65 13.5 7.28 3.95-4.46 7.48-9.46 9.15-15.25 3.32-11.36 3.93-23.24 5.17-34.94-4.21 3.85-9.04 6.92-14.21 9.3m-12.14 3.52c.48 2.74 1.08 5.45 1.5 8.2 3.32.01 6.63-.06 9.95-.24-.57-3.57-1.16-7.14-2.17-10.61-3.02 1.14-6.15 1.91-9.28 2.65m-21.91.12c.53 2.62.06 5.71 1.45 8.01 4.03.72 8.14.92 12.22 1.02-.37-2.69-.79-5.37-1.44-8.01-4.09-.09-8.15-.65-12.23-1.02m-1.83 34.77c9.05 7.71 22.87 8.71 33.38 3.53-4.96-5.34-12.86-7.74-19.93-5.76 1.61 1.64 3.31 3.19 4.79 4.95-4.65-2.48-9.52-5.33-14.98-5.17-1.38.33-3.7.44-3.26 2.45z" fill="#000002"/><path d="m204.14 69.94c6.23-2 12.76-4.68 19.41-3.6 4.58 5.95 3.27 14.24 3.4 21.3 2.76 2.23 5.29 4.78 7.05 7.88v6.91c-1.14 1.67-2.15 3.63-3.98 4.65-5.53 2.13-11.75 2.06-17.37.35-2.78-1.21-3.04-4.6-2.59-7.2.59-3.29.05-6.77 1.15-9.96 1.63-2.9 5.25-3.44 8.06-4.65-.47-3.91-1.27-7.76-2.27-11.57-2.83 1-5.66 1.99-8.47 3.03-.53 2.64-.25 6.01-2.77 7.7-3.84 2.59-8.49 3.51-12.81 5.02.07-.67.21-2.01.28-2.67 4.24-1.52 9.51-1.91 12.55-5.56 1.35-5.14-2.01-10.91-6.99-12.56-4.04-.68-7.43 2.27-10.78 4.03 0-.49.01-1.46.02-1.94 2.64-2.04 5.54-4.16 8.98-4.43 2.72.06 4.9 1.93 7.13 3.27m1.18 1.55c.69 1.23 1.37 2.46 2.06 3.69 4.31-1.66 8.87-2.45 13.42-3.12-.61.68-1.21 1.37-1.81 2.06 1.63 4.75 2.15 9.78 2.04 14.78-1.45-.33-2.98-1.26-4.4-.35-2.99.85-3.79 4.09-4.42 6.73l2.22-.2c.02-.99.05-2.97.06-3.95 2.46 3 1.98 7.11 1.03 10.59-.39-2.03-.63-4.08-.92-6.12-2.63 2.79-4.37 8.01-.34 10.44 4.38.63 6.01-4.4 7.79-7.41.36 2.92-1 5.5-2.34 7.98 2.16.01 4.81.35 6.37-1.5 1.58-2.02 1.9-4.65 2.9-6.95.19 2.51-.26 5-.64 7.47 2.55-2.27 4.52-5.73 3.31-9.22-.69-3.56-3.51-5.98-6.52-7.68.42-5.22.39-10.48-.27-15.67-.35-1.78-.67-3.76-2.06-5.05-6.05-1.15-11.94 1.37-17.48 3.48z" fill="#000002"/><path d="m29.87 76.49c1.91-1.34 4.22-1.83 6.53-1.82 3.36 1.09 6.63 2.46 9.73 4.17 2.48 1.41 4.92 2.9 7.32 4.46 1.72 1.46 3.64 3.26 3.56 5.71.12 2.83-2.51 4.58-4.62 5.92-3.45 1.63-7.13 2.74-10.91 3.32-1.3.04-2.6.05-3.91.02-3.46-.24-7.47-.12-10.16-2.68-1.78-2.16-2.13-5.06-2.89-7.67-2.47-.12-4.94-.19-7.41-.18-2.01 4.74-3.24 9.78-3.36 14.93 3.62.29 7.49.04 10.82 1.75 2.86 1.64 4.7 5.7 2.75 8.69-1.61 2.72-2.67 6-5.25 7.99-2.9 1.26-6.15 1.41-9.26 1.69-3.59-.23-6.98-1.71-10.57-2.04-.75-1.01-1.49-2.03-2.24-3.04v-5.11c1.37-2.84 3.53-5.42 3.92-8.64.59-4.8 1.41-9.58 2.86-14.2 1.17-3.3 1.69-7.15 4.22-9.73 5.17-2.02 10.86-.71 16.21-.29.19-.22.55-.66.74-.87.63-.8 1.27-1.59 1.92-2.38m.16 3.74c1.91.7 3.84 1.36 5.77 2.02-.16-.84-.47-2.52-.63-3.36 4.25 3.32 3.79 9.9-.3 13.12-.69-.01-2.05-.01-2.74-.01.36-.46 1.08-1.36 1.43-1.82-1.9-.27-3.79-.59-5.68-.9.81 2 .91 4.96 3.36 5.7 6.12 1.95 12.64.52 18.63-1.23 2.27-.79 5.3-2.03 5.37-4.85.19-2.53-2.23-3.95-4.13-5.01-5.1-2.8-10.26-5.96-16.13-6.76-2.25-.42-3.8 1.47-4.95 3.1m-18.72 3.11c-2.94 6.43-4.68 13.52-4.68 20.62.02 4.24-4.91 6.69-4.68 10.99-.21 2.01 1.25 3.54 2.24 5.11.79-1.91 1.5-3.86 2.21-5.79.61 1.51 1.06 3.11 1.87 4.54 1.26 1.75 3.6 1.93 5.5 2.58-.48-2.32-.95-4.65-.88-7.03 1.16 1.79 1.89 3.92 3.53 5.37 2.45 1.15 4.85-.09 6.66-1.75-.04-1.56-.09-3.12-.15-4.68-1.04.98-2.06 1.98-3.09 2.97.53-3.21 1.03-6.6 3.17-9.19.12 2.27-.24 4.78 1.69 6.44.72-1.77 2.14-3.87.49-5.58-3.03-4.28-8.84-3.2-13.33-2.92-.78-5.2.46-10.42 1.71-15.44.5-2.14 1.87-4.93 4.5-4.55 6.13.22 12.01 2.21 18 3.31-.21-1.34 1.23-4.2-.95-4.42-5.34-1.1-10.63-2.67-16.09-3.01-2.68.06-6.39-.63-7.72 2.43z" fill="#000002"/><path d="m151.45 128.25c.58-.01 1.72-.03 2.29-.04 1.77 1.57 3.56 3.11 5.38 4.62 5.03-1.85 10.16-3.41 15.22-5.18.97.36 1.93.74 2.88 1.16-5.96 2.21-11.8 5.02-18.07 6.24-2.19-1.23-3.81-3.19-5.55-4.95-1.06 2.25-2.45 4.3-3.96 6.26 1.2 1.47 1.91 4.2 4.32 3.65 13.06-.14 26.12.09 39.18-.13-.31-3.25-.81-6.48-1.23-9.71 1.02-.72 2.02-1.48 3.03-2.23.04 3.39.47 6.75.96 10.11 3.72-1.4 7.59-3.57 11.69-2.75 2.63 1.03 3.13 4.19 3.37 6.67.48 8.92.17 17.94-1.58 26.73 1.53.73 3.05 1.48 4.56 2.25.78-5.62 2.06-12.9 8.34-14.82 6.16-1.95 11.78 4.91 10.64 10.71-1.19 5.87-5.43 10.52-9.98 14.13-3.12 2.12-3.34 6.45-6.34 8.66-3.08 2.39-7.14 4.28-11.07 3.09-1.76-1.13-2.32-3.28-3.36-4.97-1.28-2.55-3.4-4.81-3.68-7.75.43-3.67 2.46-6.96 2.77-10.67 1.05-8.6.97-17.32.39-25.96-1.52.98-3.37 1.61-4.49 3.08-.2 4.11 1.12 8.16.76 12.27-.89 1.49-2.41 2.44-3.69 3.56-5.6 4.34-10.86 9.09-16.27 13.67-1.75 1.38-3.55 3.11-5.95 3.02-19.84.56-39.68 1.02-59.53 1.13-1.45 3.87-2.5 7.99-4.83 11.46-2.68 2.9-8.17.11-10.28 3.81-5.59 8.41-11.1 17.11-18.96 23.63h-3.56c-3.37-4.69-4.13-10.48-5.5-15.93-5.26 2.38-1.79 10.06-6.81 12.79-4.49 2.31-9.92-2-9.38-6.86.19-6.74 7.11-9.69 12.3-12.19.57-1.54.74-3.32 1.85-4.58 2.91-2.36 6.86-2.37 10.41-2.65.46 3.49 1.33 7.03.53 10.54-.56 2.36-.02 4.75.61 7.03 4.4-5.05 7.94-10.77 11-16.71-3.09-2.41-5.89-5.39-6.46-9.44-6.48-.03-12.95 0-19.43-.02-1.81-10.13-2.77-20.4-4.97-30.46 1-.55 2.01-1.1 3.02-1.65.59 3.36 1.08 6.73 1.74 10.08 7.24-6.06 14.45-12.16 21.59-18.33-.52-3.73-1.2-7.43-1.89-11.12.36-.02 1.1-.05 1.47-.07.38 3.46.98 6.9 1.51 10.35 16.85-.03 33.7.1 50.55-.01 2.19.53 2.93-1.85 4.1-3.16-2.23-1.92-4.33-4.01-5.77-6.59-2.69 2.37-5.24 4.93-8.2 6.96-6.07-1.76-11.61-4.93-17.52-7.12 1.67-.4 3.33-.83 4.99-1.26 4.24 1.87 8.34 4.3 12.89 5.33 2.02-1.71 3.86-3.62 5.82-5.4 1.42.3 2.85.56 4.3.76 1.18 1.56 2.26 3.27 3.89 4.42 2.18.83 4.74.77 6.9-.11 1.61-1.36 2.16-3.52 3.06-5.35m-7.95 7.69c-1.66 4.31-3.86 8.39-6.48 12.19 2.63 2.71 5.06 5.66 8.07 7.99 2.83-2.24 5.49-4.85 7.4-7.93-1.58-3.87-3.36-7.68-5.22-11.42-1.14-.65-2.52-.55-3.77-.83m34.35 16.55c.49.57 1.48 1.69 1.97 2.25 6.46-6.29 14.69-10.42 23.22-13.14.46 1.72.84 3.45 1.07 5.22 1.62-.65 3.29-1.17 4.98-1.62-.24-2.99.62-9.3-4.06-8.33-10.45 2.16-19.21 8.86-27.18 15.62m-91.06-11.39c1.01 6.33 1.74 12.7 3.14 18.95 18.29-.01 36.59-.37 54.87-.96-3.66-2.73-6.21-6.78-9.92-9.33-4.59-.23-9.18.24-13.77.14-.04-1.8-.07-3.6-.08-5.39 5.27-.15 10.54-.35 15.82-.46.43-.98.86-1.96 1.3-2.94-17.12.12-34.24-.31-51.36-.01m65.39.36c.64.86 1.31 1.7 2.04 2.5 3.58.27 7.18.02 10.77.04 0 1.98 0 3.96.01 5.94-3.55-.02-7.1-.03-10.65.06-2.77 3.3-5.84 6.32-9.15 9.07 5.51.16 11.03-.02 16.54-.07 3.56-5.71 7.31-11.53 12.65-15.74 3.28-2.43 6.99.58 10.33 1.29 1.73-.88 3.29-2.03 4.87-3.15-12.47-.07-24.95-.41-37.41.06m-88.22 18.87c.95 5.57 1.77 11.17 2.75 16.73 5.99-4.45 11.76-9.18 17.76-13.62 1.36-1.1 2.91-2.08 3.89-3.57-.56-5.98-2.06-11.84-2.61-17.83-7.39 5.95-14.36 12.39-21.79 18.29m112.46-16.21c-6.62 5.95-11.64 13.42-16.69 20.69.08-1.46.34-2.89.55-4.32-22.74.57-45.48.35-68.21 1.07-3.07-.09-5.37 2.17-7.68 3.85-5.54 4.33-11.34 8.33-16.81 12.75 6.74.07 13.47-.15 20.21-.16 2.32-2.57 4.71-5.08 7.4-7.25-1.81 4.74-5.27 8.47-8.35 12.39 4.01 6.15 11.89 7.44 18.67 7.87 2.94-6.56 5.5-13.3 8.79-19.7-.17 1.98-.38 3.96-.58 5.94 19.17-.27 38.36-.19 57.52-1 3.64-.11 5.92-3.41 8.62-5.42 4.25-3.79 9.18-6.85 12.82-11.29-4.1.66-6.91 3.98-10.65 5.5-4.93 2.04-10.03 3.88-15.33 4.69 4.06-3.02 8.87-4.66 13.49-6.57 2.64-1.13 5.49-2.44 6.95-5.05 1.23-1.98.82-4.42.99-6.62-2.25 1.42-4.37 3.02-6.43 4.68.68.5 2.05 1.49 2.74 1.99-3.94.17-7.9-2.34-8.81-6.27-.62-2.1.77-3.99 1.6-5.79 0 1.54-.03 3.09-.07 4.64 1.8-1.63 3.62-3.22 5.43-4.84-2.01-.69-3.99-1.86-6.17-1.78m28.19 4.12v3.06l.18.49c-.12 1.49-.23 2.99-.26 4.49l.25.53c-.6 4.8-.97 9.64-2.1 14.37 1.52-.59 3.05-1.15 4.61-1.66.77-4.24 1.41-8.54 1.48-12.87.03-.32.1-.96.13-1.29-.01-1.57-.06-3.14-.16-4.71l-.1-.49c.13-.87.39-2.61.52-3.47-1.58.32-3.22.56-4.55 1.55m-15.16 2.08c.38 2.63.53 5.29.59 7.95 1.7-.02 3.4-.05 5.11-.08-.54-3.42-1.1-6.83-1.72-10.23-1.33.78-2.65 1.58-3.98 2.36m33.75 9.5c-.91 1.55-1.77 3.13-2.54 4.75 2.76.19 4.73-1.61 5.87-3.93-.83-.21-2.5-.62-3.33-.82m-.55 8.87c-3.11 3.39-4.41 8.07-7.84 11.24 1.69.6 3.39 1.19 5.09 1.79 5.19-3.58 9.29-8.8 10.78-15-2.74.02-6.08-.42-8.03 1.97m-9.94 12.04c-.15.81-.44 2.43-.58 3.24 2.11.46 4.23.88 6.38 1.19-.88-2.62-3.55-3.39-5.8-4.43m-7.27 9.39c4.49 2.05 9.04-.41 12.52-3.22-2.31-.67-4.59-1.5-6.96-1.92-2.5.85-4.08 3.1-5.56 5.14m-113.1 1.41c-4.57 7.56-9.11 15.57-16.25 21.03.33-1.33.66-2.65.99-3.96-1.5 1.14-2.95 2.35-4.35 3.61 1 2.26 2.24 4.41 3.95 6.21 8.56-6.83 13.82-16.67 19.53-25.79-1.29-.37-2.58-.74-3.87-1.1m-25.17 3.68c.61.61.61.61 0 0m3.93 5.03c.15 1.48.43 2.94.66 4.41l.28.39c-.02.33-.07.99-.09 1.32.25.59.75 1.76 1 2.35-.19.48-.59 1.43-.79 1.9 1.61-1.55 5.26-2.04 4.76-4.84-.22-.55-.65-1.66-.86-2.21-.03-.31-.1-.94-.13-1.26-.44-1.23-.9-2.47-1.35-3.7-1.25.35-2.56.64-3.48 1.64m-10.77 6.1c-1.52 1.94-.76 4.3.81 5.94 1.62-1.52 2.75-7.64-.81-5.94z" fill="#000002"/><path d="m93.96 145.01c7.33-.04 14.65-.02 21.97-.01.06 1.66.12 3.32.18 4.99-7.28-.02-14.57.05-21.85-.03-.1-1.65-.2-3.3-.3-4.95z" fill="#000002"/><path d="m69.2 160.15c4.51-3.59 9.14-7.03 13.87-10.32.25 1.86.72 3.73.55 5.62-4.25 3.73-9.01 6.82-13.37 10.41-.33-1.91-.68-3.81-1.05-5.71z" fill="#000002"/><path d="m53.33 8.29c5.79-.09 10.24 5.7 11.51 10.93.91 2.55-.75 6.38-3.83 5.86-5.74-.48-9.93-5.83-10.98-11.19-.58-2.38.8-5.11 3.3-5.6z" fill="#a9bc26"/><path d="m162 8.5c1.44 1.45 3.24 2.73 4.04 4.68.44 2.18-.49 4.32-.94 6.42-1.57-1.33-3.67-2.38-4.38-4.45-.9-2.29.56-4.54 1.28-6.65z" fill="#a9bc26"/><path d="m60.95 29.26c1.95 1.24 4.26 2.24 5.51 4.29 1.21 2.09 1.47 4.55 2 6.87-2.67.13-5.74-.01-7.29-2.58-2.39-2.41-1.08-5.82-.22-8.58z" fill="#a9bc26"/><path d="m84.32 92c4.61-1.86 7.58 4.42 5.91 8.12-.3 2.85-4.42 4.08-6.11 1.75-2.73-2.6-2.51-7.35.2-9.87z" fill="#a9bc26"/><path d="m179.4 92.25c1.36-.45 2.85-.43 4.23-.11 3 1.97 3.03 6.26 1.93 9.31-1.3 3.38-6.62 5.21-8.94 1.84-2.09-3.58-.49-8.67 2.78-11.04z" fill="#a9bc26"/><path d="m95.32 104.13c7.72-.87 10.53 11.79 4.09 15.27-3.53 1.24-6.76-2.37-7.4-5.58-.77-3.36-.79-8.54 3.31-9.69z" fill="#a9bc26"/><path d="m181.26 113.42c1.13-1.43 3.25-1.29 4.84-1.86-.1 1.99-.03 4.02-.48 5.98-.82 1.89-3.28 1.38-4.89 1.93.1-2.02.02-4.08.53-6.05z" fill="#a9bc26"/><path d="m31.08 8.92c1.91 4.2 5.03 7.59 8.22 10.84 2.93 2.85 2.93 7.16 4.16 10.79 1.84 5.42 9.1 7.41 9.51 13.5.57 3.28.4 6.85 2.17 9.8 2.51 4.1 6.4 7.29 8.23 11.82 1.41 3.8 1.1 7.97 2.24 11.83 1.31 3.94 4.85 6.63 6.32 10.49.9 2.92.49 6.03.79 9.03.31 5.97 6.76 9.74 6.39 15.9-.16 4.61-.06 9.28 1.37 13.72-2.52 2.07-4.86 4.36-6.76 7.02-3.36 5.14-9.28 7.52-13.49 11.82-.97-3.92-1.6-7.94-3-11.74-1.7-4.62-5.25-8.23-7.06-12.79-1.39-3.63-1.6-7.58-2.94-11.23-1.47-4.03-3.83-7.65-5.75-11.47 3.78-.58 7.46-1.69 10.91-3.32 1.13 4.65 2.52 10.32 7.33 12.46 3.23 1.47 6.29-1.43 7.39-4.27 2.92-7.14 1.33-16.54-4.99-21.35-2.82-2.12-6.1.16-8.67 1.53-2.4-1.56-4.84-3.05-7.32-4.46-.89-3.48-.94-8.33-4.75-9.99-3.37-1.67-3.84 3.73-4.98 5.82-2.31-.01-4.62.48-6.53 1.82-2.16-2.73-4.25-5.59-5.45-8.88-1.13-2.7-1.85-5.8-4.22-7.73-3.01-2.71-6.98-4.97-8.05-9.17-.75-3.48 1.69-6.5 3.16-9.43 3.04-4.95 3.45-11.16 7.3-15.67 4.05-4.87 6.18-10.88 8.47-16.69m1.3 24.36c-5.3 1.95-6.01 8.87-4.24 13.52 1.59 4.95 6.85 10.36 12.44 7.96 4.87-3.17 5.07-10.09 2.55-14.83-1.82-3.95-6.06-8.05-10.75-6.65m28.98 85.74c-3.04 3.24-1.22 10.39 3.44 11.02 3.27-2.47 2.64-7.45.39-10.38-.82-1.25-2.62-1.32-3.83-.64z" fill="#e7e57b"/><path d="m117.98 108.68c-.44-2.01 1.88-2.12 3.26-2.45 5.46-.16 10.33 2.69 14.98 5.17-1.48-1.76-3.18-3.31-4.79-4.95 7.07-1.98 14.97.42 19.93 5.76-10.51 5.18-24.33 4.18-33.38-3.53z" fill="#e7e57b"/><g fill="#fff"><path d="m126.6 15.49c6.26-3.81 14.5-2.51 20.23 1.71 5.57 3.66 9.23 9.67 10.88 16.04-2.65 1.89-5.28 3.82-7.62 6.08-1.09-3.96-1.87-8.42-5.21-11.2-2.77-2.44-7.24-4.28-10.61-1.93-4.5 3.38-5.22 9.96-3.34 14.97 1.32 4.35 4.64 7.65 8.21 10.27-1.63 1.11-3.18 2.35-4.92 3.3-4.42-1.94-8.02-5.36-10.94-9.13-.47-1.84-.19-3.77-.3-5.65 0-4.66-1.82-9.09-4.02-13.13 1.33-4.4 3.5-8.93 7.64-11.33z"/><path d="m83.62 20.6c4.77-6.34 14.11-7.47 21.04-4.28 10.34 4.31 17.43 15.45 16.45 26.7-.1 7.69-5.89 15.08-13.57 16.4-5.38 1.3-10.7-.95-15.43-3.3-.06-2.95.84-6.46-1.33-8.89-2.19-2.24-5.54-2.24-8.45-2.31-3.43-7.61-4.32-17.5 1.29-24.32m18.78 4.75c-3.93.86-6.55 4.75-6.66 8.65-.88 7.6 3.69 16.2 11.36 18.21 4.68 1.45 9.23-2.76 9.88-7.23.61-5.19-.35-10.95-4.12-14.83-2.61-2.85-6.36-5.71-10.46-4.8z"/><path d="m188.01 73.04c3.35-1.76 6.74-4.71 10.78-4.03 4.98 1.65 8.34 7.42 6.99 12.56-3.04 3.65-8.31 4.04-12.55 5.56-.79-5.01-3.41-9.43-5.22-14.09z"/><path d="m141.72 73.79c3.13-.74 6.26-1.51 9.28-2.65 1.01 3.47 1.6 7.04 2.17 10.61-3.32.18-6.63.25-9.95.24-.42-2.75-1.02-5.46-1.5-8.2z"/><path d="m119.81 73.91c4.08.37 8.14.93 12.23 1.02.65 2.64 1.07 5.32 1.44 8.01-4.08-.1-8.19-.3-12.22-1.02-1.39-2.3-.92-5.39-1.45-8.01z"/><path d="m30.03 80.23c1.15-1.63 2.7-3.52 4.95-3.1 5.87.8 11.03 3.96 16.13 6.76 1.9 1.06 4.32 2.48 4.13 5.01-.07 2.82-3.1 4.06-5.37 4.85-5.99 1.75-12.51 3.18-18.63 1.23-2.45-.74-2.55-3.7-3.36-5.7 1.89.31 3.78.63 5.68.9-.35.46-1.07 1.36-1.43 1.82.69 0 2.05 0 2.74.01 4.09-3.22 4.55-9.8.3-13.12.16.84.47 2.52.63 3.36-1.93-.66-3.86-1.32-5.77-2.02z"/><path d="m114.59 128.6c3.12-.75 6.19-1.85 9.41-2.09 3.18.19 6.18 1.43 9.3 2.02-1.96 1.78-3.8 3.69-5.82 5.4-4.55-1.03-8.65-3.46-12.89-5.33z"/><path d="m84.93 129.43c3.93.35 7.49-1.48 11.25-2.17 4.61.01 8.83 2.36 13.42 2.6 5.91 2.19 11.45 5.36 17.52 7.12 2.96-2.03 5.51-4.59 8.2-6.96 1.44 2.58 3.54 4.67 5.77 6.59-1.17 1.31-1.91 3.69-4.1 3.16-16.85.11-33.7-.02-50.55.01-.53-3.45-1.13-6.89-1.51-10.35z"/><path d="m164.99 129.17c3.17-.16 6.2-1.19 9.35-1.52-5.06 1.77-10.19 3.33-15.22 5.18-1.82-1.51-3.61-3.05-5.38-4.62 3.73.48 7.47 1.25 11.25.96z"/><path d="m159.15 135.05c6.27-1.22 12.11-4.03 18.07-6.24 4.47 2.34 10.08 4.97 14.69 1.36.42 3.23.92 6.46 1.23 9.71-13.06.22-26.12-.01-39.18.13-2.41.55-3.12-2.18-4.32-3.65 1.51-1.96 2.9-4.01 3.96-6.26 1.74 1.76 3.36 3.72 5.55 4.95z"/><path d="m204.61 148.24c1.33-.99 2.97-1.23 4.55-1.55-.13.86-.39 2.6-.52 3.47-1.45-.44-2.99.09-4.03 1.14 0-.77 0-2.3 0-3.06z"/><path d="m204.79 151.79c1.42.33 2.87-.21 3.95-1.14.1 1.57.15 3.14.16 4.71-1.47-.75-3.31-.31-4.37.92.03-1.5.14-3 .26-4.49z"/><path d="m204.78 156.81c1.34.34 2.67.28 3.99-.16-.07 4.33-.71 8.63-1.48 12.87-1.56.51-3.09 1.07-4.61 1.66 1.13-4.73 1.5-9.57 2.1-14.37z"/><path d="m223.2 159.82c.83.2 2.5.61 3.33.82-1.14 2.32-3.11 4.12-5.87 3.93.77-1.62 1.63-3.2 2.54-4.75z"/><path d="m71.1 200.24c.92-1 2.23-1.29 3.48-1.64.45 1.23.91 2.47 1.35 3.7-1.81-.77-3.58.7-4.17 2.35-.23-1.47-.51-2.93-.66-4.41z"/><path d="m72.04 205.04c1.29-.62 2.65-1.06 4.02-1.48-.57 1.7-2.23 3.14-4.11 2.8.02-.33.07-.99.09-1.32z"/><path d="m60.33 206.34c3.56-1.7 2.43 4.42.81 5.94-1.57-1.64-2.33-4-.81-5.94z"/><path d="m72.95 208.71c1.27-1.05 2.61-2 3.97-2.94.5 2.8-3.15 3.29-4.76 4.84.2-.47.6-1.42.79-1.9z"/></g><path d="m102.36 27.21c10.45-.86 17.11 14.01 10.75 21.9-1.97 2.39-5.58 2.18-8.02.71-4.87-2.75-7.6-8.38-7.88-13.83-.06-3.49 1.57-7.63 5.15-8.78m1.9 4.66c-3.75 2.7-2.3 7.8-.5 11.21 1.31 2.22 4.3 4.88 6.89 2.97 2.63-2.9 1.26-7.16-.4-10.18-1.35-1.96-3.29-4.56-5.99-4z" fill="#81c7e5"/><path d="m133.18 30.14c1.28-3.13 5.33-3.76 8.09-2.33 4.04 1.75 6.15 6.09 6.81 10.24.11 1.44.84 3.26-.33 4.47-2.1 2.74-4.74 5.01-7.24 7.37-6.98-3.54-10.47-12.54-7.33-19.75m4.28 2.1c-3.86 4.03-.51 11.67 4.53 13.02 1.75.48 2.53-1.1 3.04-2.47.77-3.8-.5-8.05-3.45-10.62-1.14-1.08-2.97-.85-4.12.07z" fill="#81c7e5"/><path d="m69.06 141.03c4.96-3.67 7.81-10.37 14.4-11.53.69 3.69 1.37 7.39 1.89 11.12-7.14 6.17-14.35 12.27-21.59 18.33-.66-3.35-1.15-6.72-1.74-10.08 2.11-2.82 4.15-5.76 7.04-7.84z" fill="#81c7e5"/><path d="m204.61 151.3c1.04-1.05 2.58-1.58 4.03-1.14l.1.49c-1.08.93-2.53 1.47-3.95 1.14z" fill="#81c7e5"/><path d="m222.65 168.69c1.95-2.39 5.29-1.95 8.03-1.97-1.49 6.2-5.59 11.42-10.78 15-1.7-.6-3.4-1.19-5.09-1.79 3.43-3.17 4.73-7.85 7.84-11.24z" fill="#81c7e5"/><path d="m212.71 180.73c2.25 1.04 4.92 1.81 5.8 4.43-2.15-.31-4.27-.73-6.38-1.19.14-.81.43-2.43.58-3.24z" fill="#81c7e5"/><path d="m205.44 190.12c1.48-2.04 3.06-4.29 5.56-5.14 2.37.42 4.65 1.25 6.96 1.92-3.48 2.81-8.03 5.27-12.52 3.22z" fill="#81c7e5"/><path d="m67.17 195.21c.61.61.61.61 0 0z" fill="#81c7e5"/><path d="m76.06 203.56c.21.55.64 1.66.86 2.21-1.36.94-2.7 1.89-3.97 2.94-.25-.59-.75-1.76-1-2.35 1.88.34 3.54-1.1 4.11-2.8z" fill="#81c7e5"/><path d="m168.93 43.02c.13-.34.4-1.02.53-1.36 3.97.5 8.04 2 10.63 5.18 3.04 3.67 3.32 9.68 0 13.27-1.57 1.69-4.01 1.81-6.12 2.26 3.08-2.03 7.07-4.17 6.98-8.44.39-6.55-6.29-10.35-12.02-10.91z" fill="#ef492f"/><path d="m81.46 44.9.87.02c2.91.07 6.26.07 8.45 2.31 2.17 2.43 1.27 5.94 1.33 8.89-.44.14-1.33.42-1.77.57l-.72.24c.54-2.22 1.68-4.7.38-6.88-1.51-3.4-5.77-4.14-9.05-3.34-6.05.94-11.25 5.85-12.4 11.87-.62 2.89 1.34 5.88 4.02 6.9 2.53.68 5.19.67 7.77 1.05-3.31.96-7.08 2.29-10.34.44-3.4-1.54-4.37-5.93-3.29-9.25 1.95-6.67 8.14-11.33 14.75-12.82z" fill="#ef492f"/><path d="m169.25 46.17c1.64-.51 2.2.04 1.68 1.65-1.64.52-2.2-.03-1.68-1.65z" fill="#ef492f"/><path d="m84.39 48.07c1.91-.69 2.79 2.49.76 2.84-1.89.64-2.75-2.45-.76-2.84z" fill="#ef492f"/><path d="m171.04 50.41c1.29-1.04 2.91 1.19 1.57 2.13-1.31 1.05-2.92-1.19-1.57-2.13z" fill="#ef492f"/><path d="m176.24 49.92c1.63-.53 2.19.02 1.7 1.65-1.62.53-2.18-.02-1.7-1.65z" fill="#ef492f"/><path d="m75.29 51c2.09-.81 2.37 2.52.48 2.83-2.09.78-2.37-2.5-.48-2.83z" fill="#ef492f"/><path d="m81.48 53.08c1.87-.66 2.36 2.38.54 2.66-1.82.58-2.31-2.35-.54-2.66z" fill="#ef492f"/><path d="m160.74 53.77c.2-.17.61-.5.82-.66 1.09.12 2.35 1.55 1.68 2.62-1.16.59-2.57-.8-2.5-1.96z" fill="#ef492f"/><path d="m141.99 122.2c6.85-.44 13.15-3.38 19.3-6.18-10.31 11.98-30.42 11.32-41.68 1.09 7.21 2.55 14.58 5.53 22.38 5.09z" fill="#ef492f"/><path d="m137.6 129.29c4.64.11 9.24-.59 13.85-1.04-.9 1.83-1.45 3.99-3.06 5.35-2.16.88-4.72.94-6.9.11-1.63-1.15-2.71-2.86-3.89-4.42z" fill="#ef492f"/><path d="m143.5 135.94c1.25.28 2.63.18 3.77.83 1.86 3.74 3.64 7.55 5.22 11.42-1.91 3.08-4.57 5.69-7.4 7.93-3.01-2.33-5.44-5.28-8.07-7.99 2.62-3.8 4.82-7.88 6.48-12.19z" fill="#ef492f"/><path d="m204.53 156.28c1.06-1.23 2.9-1.67 4.37-.92-.03.33-.1.97-.13 1.29-1.32.44-2.65.5-3.99.16z" fill="#ef492f"/><path d="m71.76 204.65c.59-1.65 2.36-3.12 4.17-2.35.03.32.1.95.13 1.26-1.37.42-2.73.86-4.02 1.48z" fill="#ef492f"/><path d="m153.86 70.27c5.17-2.38 10-5.45 14.21-9.3-1.24 11.7-1.85 23.58-5.17 34.94-1.67 5.79-5.2 10.79-9.15 15.25-3.75-3.63-8.38-6.18-13.5-7.28.84-5.5.48-12.08-4.36-15.72-2.67-2.34-6.29-.84-8.99.59.09 2.67 1.16 5.55.08 8.12-1.33 1.28-3.46 1.12-5.13 1.69-1.09-3.49-1.57-7.16-2.93-10.57-1.04-2.75-4.61-3.31-7.04-2.18-3.85 1.22-5.59 5.14-7.25 8.46-7-9.56-12.35-20.13-18.04-30.47 9.42 4.79 19.55 7.91 29.89 9.93 1.39 3.29 1.44 6.93 1.81 10.42 5.93.92 11.94.92 17.92.82-.3-3.36-.73-6.71-1.25-10.04 1.35-.32 2.71-.63 4.07-.94.6 3.32 1.07 6.66 1.44 10.01 5.15.68 10.36.55 15.49-.19-.54-4.54-1.3-9.04-2.1-13.54z" fill="#891d03"/><path d="m86.79 141.1c17.12-.3 34.24.13 51.36.01-.44.98-.87 1.96-1.3 2.94-5.28.11-10.55.31-15.82.46.01 1.79.04 3.59.08 5.39 4.59.1 9.18-.37 13.77-.14 3.71 2.55 6.26 6.6 9.92 9.33-18.28.59-36.58.95-54.87.96-1.4-6.25-2.13-12.62-3.14-18.95m7.17 3.91c.1 1.65.2 3.3.3 4.95 7.28.08 14.57.01 21.85.03-.06-1.67-.12-3.33-.18-4.99-7.32-.01-14.64-.03-21.97.01z" fill="#d08f22"/><path d="m152.18 141.46c12.46-.47 24.94-.13 37.41-.06-1.58 1.12-3.14 2.27-4.87 3.15-3.34-.71-7.05-3.72-10.33-1.29-5.34 4.21-9.09 10.03-12.65 15.74-5.51.05-11.03.23-16.54.07 3.31-2.75 6.38-5.77 9.15-9.07 3.55-.09 7.1-.08 10.65-.06-.01-1.98-.01-3.96-.01-5.94-3.59-.02-7.19.23-10.77-.04-.73-.8-1.4-1.64-2.04-2.5z" fill="#d08f22"/><path d="m176.42 144.12c2.18-.08 4.16 1.09 6.17 1.78-1.81 1.62-3.63 3.21-5.43 4.84.04-1.55.07-3.1.07-4.64-.83 1.8-2.22 3.69-1.6 5.79.91 3.93 4.87 6.44 8.81 6.27-.69-.5-2.06-1.49-2.74-1.99 2.06-1.66 4.18-3.26 6.43-4.68-.17 2.2.24 4.64-.99 6.62-1.46 2.61-4.31 3.92-6.95 5.05-4.62 1.91-9.43 3.55-13.49 6.57-3.49 1.17-6.01-1.91-6.97-4.92 5.05-7.27 10.07-14.74 16.69-20.69z" fill="#d08f22"/><path d="m189.45 150.32c1.33-.78 2.65-1.58 3.98-2.36.62 3.4 1.18 6.81 1.72 10.23-1.71.03-3.41.06-5.11.08-.06-2.66-.21-5.32-.59-7.95z" fill="#d08f22"/><path d="m63.96 160.33c7.43-5.9 14.4-12.34 21.79-18.29.55 5.99 2.05 11.85 2.61 17.83-.98 1.49-2.53 2.47-3.89 3.57-6 4.44-11.77 9.17-17.76 13.62-.98-5.56-1.8-11.16-2.75-16.73m5.24-.18c.37 1.9.72 3.8 1.05 5.71 4.36-3.59 9.12-6.68 13.37-10.41.17-1.89-.3-3.76-.55-5.62-4.73 3.29-9.36 6.73-13.87 10.32z" fill="#9c5c06"/><path d="m182.03 165.04c3.74-1.52 6.55-4.84 10.65-5.5-3.64 4.44-8.57 7.5-12.82 11.29-2.7 2.01-4.98 5.31-8.62 5.42-19.16.81-38.35.73-57.52 1 .2-1.98.41-3.96.58-5.94-3.29 6.4-5.85 13.14-8.79 19.7-6.78-.43-14.66-1.72-18.67-7.87 3.08-3.92 6.54-7.65 8.35-12.39-2.69 2.17-5.08 4.68-7.4 7.25-6.74.01-13.47.23-20.21.16 5.47-4.42 11.27-8.42 16.81-12.75 2.31-1.68 4.61-3.94 7.68-3.85 22.73-.72 45.47-.5 68.21-1.07-.21 1.43-.47 2.86-.55 4.32.96 3.01 3.48 6.09 6.97 4.92 5.3-.81 10.4-2.65 15.33-4.69z" fill="#9c5c06"/></svg>