<svg enable-background="new 0 0 292.86 447.43" viewBox="0 0 292.86 447.43" xmlns="http://www.w3.org/2000/svg"><path d="m.78.93h.26c-.06.07-.19.2-.26.26z"/><path d="m125.9 13.07c3.45-3.4 9.08-3.94 13.2-1.47 3.7 1.86 5.06 6 6.95 9.38-.63 2.29-1.26 4.61-2.38 6.72.82-3.33 1.27-7.02-.37-10.19-2.44-5.29-9.81-8.77-14.94-5.05-4.86 2.88-6.88 8.91-5.41 14.27-.54-1.14-1.05-2.29-1.57-3.44-3.59.73-7.16 1.5-10.72 2.36 3.27-1.48 6.83-2.23 10.09-3.73 2.01-2.76 2.45-6.54 5.15-8.85z"/><path d="m132.11 13.94c2.1 1.56 3.9 3.48 5.31 5.69-1.83-1.74-4.05-2.99-6.56-3.37.42-.78.83-1.55 1.25-2.32z"/><path d="m181.75 30.88c4.91-4.73 8.08-10.93 13.14-15.52 5.99 6.39 7.05 15.45 8.77 23.65 1.62 7.22.96 14.63 1.08 21.96-.05 3.82 2.02 7.12 3.66 10.42 2.96 5.74 3.81 12.23 5.5 18.39 10.05-1.29 20.26-4.61 30.39-2.34-10.01 1.71-20.3 1.35-30.19 3.88-.28 8.39-1.29 16.85-4.11 24.8-11.88-6.77-25.92-7.57-39.25-8.32-6.4-.7-11.38 3.88-16.99 6.04 3.02-2.02 6.26-3.66 9.43-5.42-5.47-.03-9.92-3.21-14.77-5.17-4.54-1.57-8.14 2.45-11.41 4.91-2.72 2.51-6.34 3.46-9.75 4.62 3.9.61 7.83 1.08 11.68 2-6.36-.15-12.73-2.67-19.05-.8-13.65 3.54-27.59 7.61-39.32 15.7-2.94 2.38-7.28 5-6.43 9.42-5.11-5.66-7.35-13.08-10.39-19.9-3.97 1.21-8.08 1.82-12.22 1.95l.44-.27c3.73-1.6 7.7-2.51 11.65-3.44-.8-7.42-1.03-14.92-.6-22.37.27-4.33 3.11-8.27 2.4-12.67-.55-3.85-1.23-7.68-1.57-11.55 1.27-.26 2.67-.59 3.5-1.69.73-.59.49-2.42-.71-1.7-1.19.68-2.02 1.81-2.87 2.85-1.4-8.29-1.22-16.77-.73-25.13.16-4.22 2.44-7.91 5.62-10.54 3.93 2.83 7.52 6.12 11.46 8.93 3.68 2.63 7.99 4.11 12.22 5.6.16-3.01.23-6.03.2-9.04.61-.81 1.24-1.62 1.87-2.42-.79 3.49-.98 7.06-.85 10.63 8.21-4.13 16.5-8.24 25.44-10.58-1.33.73-2.64 1.5-3.94 2.27 3.63 7.66 7.01 15.43 10.14 23.31.7.09 2.12.27 2.83.36-.79-6.69-2.24-13.29-4.24-19.73-.7-2.47-2.17-4.61-3.89-6.48 3.61-.68 7.26-1.06 10.9-1.53-1.61-1.39-3.24-2.77-4.73-4.29 2.36 1.45 4.92 2.88 7.76 2.97 2.55-.11 4.74-1.61 6.9-2.81-.32.58-.96 1.76-1.28 2.34 9.49.32 19.26.12 28.35 3.25.67 7.74-1.12 15.41-3.83 22.62 5.7-.36 10.27 3.3 15.14 5.6-2.68-4.64-7.87-6.34-12.07-9.15-.58-1.56.04-3.26.19-4.85.86-4.41 1.2-8.92 2.26-13.29 2.43-2.97 1.15-6.81.25-10.15l.5.31c1.42 3.45 2.03 7.15 2.31 10.86 3.06-2.84 6.24-5.55 9.21-8.49zm8.8 11.35c2.48 4.1 6.08 7.51 10.19 9.96-2.29-3.1-5.24-5.59-7.81-8.44-2.09-2.18-2.07-5.36-2.85-8.1-.41 2.21-.8 4.55.47 6.58zm-125.01 6.79c3.31 2.85 7.73 3.58 11.57 5.45-.2-.48-.58-1.44-.78-1.92-3.62-1.11-7.17-2.42-10.79-3.53zm126.24.63c1.96 2.86 4.4 5.35 7.27 7.3-1.62-3.14-4.14-5.68-7.27-7.3zm-102.82 1.23c-.21.29-.65.88-.86 1.17.76 3.1 4.18-1.82.86-1.17zm-3.84 3.25c-.96.3-2.4 1.35-1.83 2.5 1.63 1.32 4.79-2.87 1.83-2.5zm-6.09 6.14c-1.3.2-2.58 1.88-1.93 3.15 1.48.78 3.65-2.45 1.93-3.15zm38.52.63c2.56 4.89 7.47 8.96 13.21 8.95 5.01-.15 9.99-.73 14.99-1.18 4.15-.08 8.65-1.34 10.39-5.53-3.08 2.38-6.5 4.68-10.56 4.59-6.73.04-13.57.9-20.24-.29-2.84-1.87-5.1-4.47-7.79-6.54zm-16.84 13.02c3.48-3 5.64-8.69 10.92-8.57-.7-1.11-1.41-2.22-2.12-3.32-3.95 3.08-7.49 6.92-8.8 11.89zm62.36-4.81c-4.1 1.64-6.04 6.12-7.02 10.13-1.86 9.31 1.5 20.46 10.1 25.34 4.33 2.81 10.22.6 12.77-3.57 2.92-4.08 3.48-9.27 2.84-14.12-.38-6.58-3.82-12.93-9.27-16.65-2.72-1.87-6.34-2.27-9.42-1.13zm-95.35 9.86c1.79-2.49 3.15-5.27 4.03-8.2-2.18 2.25-3.44 5.16-4.03 8.2zm74.98-4.27c-2.33.52-4.73.34-7.03.97 7.5.33 16.11.27 22.28-4.61-4.99 1.53-9.95 3.55-15.25 3.64zm-28.34-1.2c-7.96 4.08-10.56 14.09-9.62 22.4.79 6.65 4.76 14.26 12.02 15.32 6.61 1.3 12.82-4.07 14.19-10.32 2.98-4.09 2.02-9.72 1.52-14.43-1.26 4.92-.81 10.08-2.09 15.02-2.44 2.31-4.85 5.6-8.6 5.41-3.71.29-6.62-2.59-8.54-5.41-3.64-5.8-2.46-13.49 1.02-19.07 2.05-3.18 5.9-6.31 9.91-4.91 4.2 1 5.42 5.59 7.83 8.59-.45-4.29-2.64-9.04-7.02-10.45-3.43-1.02-6.97-4.19-10.62-2.15zm.8 10.12c.49.71 1.48 2.12 1.97 2.83.57-.2 1.71-.61 2.28-.81 2.04-1.68.28-4.32-.74-6.02-1.28 1.24-2.33 2.67-3.51 4zm9.59 15.63c5.96-3.33 6.01-13.36.08-16.8-5.1 3.81-6.21 13.54-.08 16.8zm-10.16-8.27c.42 1.1.89 2.18 1.41 3.23 2.7-.93 2.73-3.5 1.79-5.81-1.06.79-2.87 1.15-3.2 2.58zm87.16 2.81c3.8-.25 7.55-1.13 11.03-2.7-3.81.24-7.57 1.07-11.03 2.7zm-58.63-1.62c-2.2 1.07-4.51 3.02-4.46 5.68 1.08 5.59 10.65 6.31 12.43 1.01 1.59-4.45-4.04-8.47-7.97-6.69zm51.97 2.88c-.59.09-2.65 1.26-1.28 1.77 1.47.06 3.34-.09 4.32-1.32-.17-1.34-2.21-.73-3.04-.45zm-10.97 3.92c-1.39-.04-2.69 2.36-.52 2.08 2.39.37 3.71-3.26.52-2.08zm-113.78 17.6c-1.73.37-3.4.98-5.01 1.71 12.75-1.98 25.52-4.19 38.46-4.52 4.36-.03 8.78.35 13.1-.45-15.59-1.12-31.2.59-46.55 3.26z"/><path d="m125.62 25.53c1.43-3.26 3.12-6.41 5.24-9.27-.82 2.15-1.7 4.28-2.47 6.45 1.32 1.79 2.35 3.75 3.32 5.74 1.8.26 3.6.51 5.39.77-.42-2.76-.6-5.7 2.19-7.27-.33-.41-.99-1.23-1.32-1.63 1.38.99 2.69 2.09 3.99 3.2-1.4.19-2.8.4-4.19.62.31 1.77.62 3.55.93 5.32-2.91.27-5.82.58-8.71.98.02-1.78-.01-3.57-.35-5.32-1.35-.02-2.69.2-4.02.41z"/><path d="m137.42 19.63c.07.09.22.27.29.36-.07-.09-.22-.27-.29-.36z"/><path d="m137.71 19.99c.06.08.2.24.26.33-.06-.09-.2-.25-.26-.33z"/><path d="m146.77 21.08c7.73.51 15.7 1.91 22.24 6.3-7.13-3.02-14.76-4.43-22.24-6.3z"/><path d="m94.4 37.71c4.23-5.39 9.78-9.74 16.26-12.06-5.73 3.59-11.07 7.74-16.26 12.06z"/><path d="m169.01 27.38.35.21.04.23c-.09-.11-.29-.33-.39-.44z"/><path d="m169.4 27.82.33-.01v.39c-.08-.09-.24-.29-.33-.38z"/><path d="m167.34 72.53c2.7-1.05 5.72.2 7.67 2.16 5.35 4.93 7.11 12.93 5.18 19.82-1.3 4.06-5.56 7.76-10.01 6-7.13-3.24-10.25-11.98-9.12-19.38.32-3.75 2.91-7.05 6.28-8.6zm-2.42 3.18c-1.08 1.49-2.94 3.52-1.22 5.31.94 2.47 3.67.56 4.12-1.23-.18-1.78-1.74-2.9-2.9-4.08zm6.02 2.02c-3.1 3.56-1.82 8.92.44 12.55.96 1.81 3.25 2.59 5.06 1.53 2.56-4.08 1.4-9.55-1.42-13.17-.91-1.27-2.72-1.35-4.08-.91zm-6.56 7.75c-1.88 1.43.14 3 1.39 3.9.92-.82 1.84-1.64 2.77-2.45-1.36-.67-2.78-3.65-4.16-1.45z"/><path d="m39.85 123.01c-2.35-4.55-4.31-9.51-3.76-14.74 1.09 4.83.99 10.84 5.37 14.08 3.11 2.17 6.79-.03 9.75-1.38l.31.18c.41.23 1.22.68 1.62.91-5.6 1.52-10.81 4.24-16.48 5.54 2.46-1.33 5.02-2.47 7.55-3.68-3.35-.2-6.79-.69-10.09.13-2.64 2.09-4.31 6.34-8.3 5.87-3.58.47-6.07-2.31-8.29-4.64-2.28.07-4.55.16-6.83.2 2.31-.55 4.64-.99 6.97-1.44-.29-2.6-.58-5.2-.76-7.8.46-1.19.96-2.37 1.46-3.54-.53 4.2-1.03 8.71.82 12.68 1.84 4.71 9.59 5.46 11.96.83 3.62-5.08 1.81-11.55 1.44-17.27l.12-.75c1.27 4.87 1.82 9.91 1.2 14.93 1.98-.04 3.96-.07 5.94-.11z"/><path d="m157.8 120.31c2.72-.15 4.41-2.46 6.38-4.02-2.62 6.67-11.78 5.78-16.69 2.31-5.08 4.7-12.69 5.41-18.96 2.87 3.98.36 8.05 1.37 12.01.35 2.65-.67 4.6-2.71 6.64-4.39 3.1 2.11 6.79 3.69 10.62 2.88z"/><path d="m35.27 131.44c2.06-.87 3.87-2.22 5.82-3.29-1.55 1.47-3.06 3.15-5.14 3.86-3.38 1.01-7.11.25-10.39 1.64-3.2 1.69-5.9 4.45-7.39 7.75-1.36 3.13-.13 6.54.07 9.77-1.75-3.86-2.07-8.73.43-12.35 1.73-2.54 4.07-4.76 6.91-5.99 3.13-.99 6.56-.33 9.69-1.39z"/><path d="m143.64 131.76c3.35-.86 6.8-1.39 10.26-1.58-3.25 1.33-6.79 1.6-10.26 1.58z"/><path d="m138.78 160.98c16.28-.23 33.16-3.41 46.76-12.84.02 4.09.83 8.11 1.94 12.03-2.24 6.93-6.29 13.07-11.19 18.4 3.19-1.79 6.76-2.83 10.45-2.5 8.14.42 16.22-.87 24.34-1.26-1.69-5.44-4.61-10.43-6.01-15.96 2.87 4.89 5.18 10.09 6.88 15.51 4.04 0 8.05-.5 11.99-1.39-3.47-7.23-6.47-15.29-12.89-20.47.67-.25 1.33-.5 2-.75 4.26 6.89 8.83 13.65 11.64 21.31.16.34.49 1.01.66 1.35-1.36-.04-2.72-.08-4.07-.11.06 7.01 3.22 14.05 9.16 18 5.98 4.41 14.1 4.58 20.93 2.23 2.37-.8 4.11-2.68 5.85-4.39 3.83 2.47 8.14 5.79 8.4 10.73-.5 6.19-3.46 11.92-7.02 16.9-6.21 9.02-14.6 16.13-23.22 22.74-2.32 1.66-2.42 4.71-3.1 7.23-1.19.02-2.39.06-3.58.11 1.31-.55 2.61-1.15 3.92-1.73-.18-10.67-4.98-21.32-13.61-27.76 5.44-2.72 9.41-7.42 13.92-11.36-8.06-3.42-16.75-5.01-25.42-5.78-1.07.09-2.97-.4-3.3 1.02-2.44 6.66-2.53 13.9-4.46 20.7-11.54-4.3-23.05-9.19-35.35-10.87-2.34-.33-5.13-.09-6.59 2.02-.83 4.64-.21 9.41.6 14.01.82 4.52 4.71 7.45 7.93 10.33-2.07 5.32-2.44 11.06-3.34 16.65 2.83-.14 5.66-.29 8.49-.45.11-3.1.44-6.26-.18-9.33-.73-2.19-2.31-3.95-3.67-5.77 1.81 1.61 4.37 2.99 4.69 5.65.8 5.58-.61 11.15-.71 16.73-.16 6.99.13 13.99-.1 20.98-.01 3.26-.25 6.57.43 9.79 1.54 5.35 8.31 8.33 13.32 5.89 2.86-4.18 3.54-9.4 5.41-14.05-.91 4.81-1.49 9.96-4.22 14.15-3.66 3.48-9.63 1.64-12.83-1.61-3.47-3-2.67-7.99-3.05-12.07-2.44-.14-4.88-.28-7.32-.44-4.18-9.05-7.23-18.61-11.85-27.43-.32 0-.97.02-1.29.03-4.63 7.69-7.71 16.22-12.02 24.09-.9 1.32-1.76 3.18-3.53 3.4-9.16 1.13-18.27-1.54-27.44-.59-5.05-1.35-10.43-1.01-15.36-2.89 5.39-9.82 12.68-18.41 18.42-28.02 8.29 1.23 16.68 1.54 25.05 1.9-.61-7.69-1.75-15.33-2.55-23.01-10.18.19-20.29-1.04-30.43-1.5-2.6-6.98-4.95-14.07-6.85-21.27-13.03 6.16-26.8 10.95-41.05 13.25-3.66.48-7.51 1.05-11.1-.06-3.32-1.99-5.26-5.54-7.3-8.71-6.7-11.7-12.13-24.06-17.16-36.56 8.43 0 16.75-2.52 23.61-7.45 2.17 5.02 4.07 10.14 6.05 15.24.38-8.33-.27-16.67.33-24.99l.94.01c-.32 8.93-.78 17.93.31 26.83.54 3.2 2.09 6.07 3.68 8.85 7.11-2.3 14.66-3.18 21.46-6.39 2.52-.19 5.04-.3 7.56-.39-2.16-6.79-3.54-13.82-3.98-20.94 1.74.21 3.47.48 5.21.73-1.47.03-2.93.09-4.4.18.62 6.88 2.09 13.67 4.35 20.2 4.92-.13 9.83-.52 14.73-.92 14.53 19.6 35.61 34.35 59.1 41.05-.38-3.98-.81-7.95-1.24-11.93-14.47-5.9-28.13-13.94-40.06-24.04-3.22-2.47-5.87-7.01-10.54-6.17 2.49-.64 4.95-1.41 7.4-2.17-4.88-4.69-9.02-10.08-13.74-14.89-4.6-.61-9.29-.28-13.88-1.13 4.66.06 9.31-.15 13.96-.2 1.3-4.12 2.26-8.37 2.42-12.7 11.9 3.52 24.34 4.78 36.71 5.02zm-1.89 1.38c-1.16.27-1.91 2.02-1.01 2.93 1.55.74 2.78-2.73 1.01-2.93zm8.52-.03c-.46 1.47 1.67 3.48 3.12 3.03.64-1.58-1.55-3.72-3.12-3.03zm-11.26 6.14c-1.18.7-1.98 2.62-1.18 3.84 1.57.28 2.86-3.38 1.18-3.84zm8.96 5.68c-5.39 1.19-6.61 9.65-1.44 11.94 4.07 2.74 10.32-1.26 9.41-6.16.15-3.91-4.37-7.02-7.97-5.78zm63.1 1.63c-.17 8.11-1.29 16.13-2.07 24.19 2.52-7.71 3.19-16.18 2.07-24.19zm-44.07 8.64c-.6 1.43.6 4.2 2.3 4.01.6-1.43-.61-4.2-2.3-4.01zm7.01.69c-.95.32-2.42 1.35-1.86 2.52 1.62 1.3 4.82-2.92 1.86-2.52zm-52.85 2.15c-.61 1.45 1.69 3.06 2.98 2.35.61-1.45-1.7-3.06-2.98-2.35zm9.88 4.16c-1.11-.07-2.41 1.34-1.66 2.39 1.34 1.15 3.61-1.84 1.66-2.39zm-34.24.41c-.03 5.14.69 10.31 2.62 15.1-.59-5.07-1.2-10.18-2.62-15.1zm144.2 11.3c-1.14.41-2.2 1.47-2.2 2.74 1.12 2.21 5.24-2.99 2.2-2.74zm-102.57 29.12c.04.62.13 1.86.18 2.48 1.15 6.77 1.27 13.69 2.79 20.4 8.42-.14 16.84.02 25.27-.1 1.54-5.52 2.05-11.24 2.67-16.91-1.3-1.35-2.6-2.7-3.9-4.04l-.91.02.11-1.3c-8.73-.49-17.48-.17-26.21-.55z"/><path d="m223.01 148.3.74-.21c.19.51.59 1.55.79 2.06-.38-.46-1.15-1.38-1.53-1.85z"/><path d="m224.54 150.15c.13.15.38.44.51.59-.13-.15-.38-.44-.51-.59z"/><path d="m225.05 150.74c.03.04.1.11.13.15-.03-.04-.1-.11-.13-.15z"/><path d="m225.18 150.89c2.5 2.2 4.67 4.72 5.94 7.83-1.95-2.63-3.94-5.23-5.94-7.83z"/><path d="m38.88 157.52c-.52-1.72 1.58-2.81 2.93-3.27.02.33.05 1 .07 1.34-.71.84-1.68 2.52-3 1.93z"/><path d="m202.77 155.86.75.27c.7.79 1.22 1.69 1.55 2.72-1.53.13-3.16-1.48-2.3-2.99z"/><path d="m231.12 158.72c2.75 3.35 5.26 6.89 7.17 10.8.67.23 2.03.7 2.7.93-2.38.73-4.84 1.17-7.29 1.55 1.23-.59 2.45-1.22 3.67-1.84-2.08-3.82-4.17-7.62-6.25-11.44z"/><path d="m62.7 164.61.78.28c-.13 7.37.17 14.74.62 22.09-1.82-7.31-1.17-14.91-1.4-22.37z"/><path d="m70.9 166.79.79.18c.52 7.45.15 15.04 2.44 22.25l-1.04-.08c-1.76-7.33-1.91-14.87-2.19-22.35z"/><path d="m163.01 215.74c1.1 5.45.64 11.43 3.51 16.39 3.59 5.38 9.77 8.18 15.54 10.62 5.94 2.2 12.11 4.46 18.53 4.38 1.4-1.38 1.97-3.32 2.47-5.17 1.29-5.25 2.06-10.64 2.07-16.06.59.72 1.17 1.47 1.75 2.21-.36.93-.72 1.86-1.08 2.79.89-.34 1.78-.67 2.67-1.01-3.35 3.27-4.03 7.97-4.78 12.36 3.01-3.33 6.51-6.34 10.93-7.56-3.72 5.97-8.43 11.31-11.45 17.72-.44.11-1.32.34-1.75.45-.36-1.79-.72-3.57-1.11-5.35-1.1 2.67-2.29 5.49-2.24 8.42 1.28 3.32 3.89 5.9 5.79 8.87 2.67 3.55 4.7 8.91 10.04 8.59-.97.35-1.93.71-2.89 1.07.6 1.69 1.21 3.38 1.82 5.07-5.02 1.72-10.36 2.1-15.48 3.35-2.16.11-4.3.38-6.43.74 3.39-11.68 6.05-23.56 7.65-35.61-10.35-1.86-20.95-4.93-29.26-11.65-6.14-4.88-6.4-13.44-6.3-20.62zm42.94 25.51c-2.45 3.19-5.44 6.8-4.13 11.12 3.28-5.02 6.66-10.01 9.7-15.19-2.36.55-4.13 2.22-5.57 4.07z"/><path d="m181.92 232.01c-.06-2.76 3.02-3.75 4.88-5.12 3.02 1.96 5.29 5.78 3.14 9.19-2.7 4.05-8.56-.11-8.02-4.07z"/><path d="m219.31 248.11c.49-.01 1.48-.04 1.97-.05l.41.28c-1.09 1.18-2.47 2.23-2.9 3.86-2.05 4.97.91 10.64-2.09 15.37.53-2.69.9-5.41.8-8.16-2.67 2.48-5.33 5.03-8.52 6.83 2.69-2.69 6.1-4.93 7.54-8.61 1.22-3.08 1.9-6.34 2.79-9.52z"/><path d="m180.15 248.73c1.56 6.69-.52 13.46-.51 20.19-.1 3.74.45 7.7-1.38 11.14.82-6.4.43-12.88 1.37-19.27.5-4 .26-8.04.52-12.06z"/><path d="m63.95 406.11c8.82-18.69 15.55-38.26 22.36-57.73 3.8.05 7.6-.34 11.41-.19 8.84.41 17.44 2.8 25.68 5.94-6 18.58-11.95 37.18-17.47 55.92-1.72 6.14-2.06 12.54-3.29 18.78-.84 4.17-.52 8.46-1.29 12.62-3.8 4.34-10.39 3.58-15.61 3.7-5.86.27-11.31-2.23-17.04-2.84-6.41.73-12.13 4.2-18.4 5.62h-36.01c-3.95-1.21-8.29-2.21-11.34-5.18-2.06-2.09-.91-5.17.09-7.47 2.69-5.9 5.81-12.05 11.38-15.74 7.98-5.59 17.99-6.71 27.42-7.65 6.15-.66 12.38.51 18.5-.41 1.75-1.34 2.6-3.48 3.61-5.37zm25.15-48.05c-1.06 1.79-1.74 3.77-2.46 5.71-4.52 12.37-9.29 24.65-13.84 37.02 1.32.14 2.65.29 3.97.43 6.21-14.43 11.78-29.13 17.97-43.57-1.87.01-3.86-.35-5.64.41zm-39.24 74.68c.2 2.72.47 5.44.67 8.17-6.16 1.39-12.49.86-18.75.94-4.15-.01-8.31.12-12.45-.3-4.76-.5-9.22-2.38-13.85-3.5 6.14 4.32 14.06 4.69 21.3 5.01 8.63-.14 17.35.44 25.85-1.37 7.76-1.65 15.06-5.51 23.11-5.67 8.08-.11 16.41.39 24.21-2.01-7.06.2-14.09 1.06-21.16.78-9.31-.19-17.89 3.79-26.71 6.15-.66-2.75-1.24-5.54-2.22-8.2zm20.92 7.98c2.24-.21 4.47-.69 6.74-.62.93.72 1.69 1.66 2.47 2.55-.36-1.49-.74-2.97-1.15-4.44-2.77.54-5.49 1.35-8.06 2.51z"/><path d="m215.27 351.28c5.54 20.5 10.15 41.26 16.1 61.65 8.34-1.87 16.93-1.21 25.39-1.1 9.22.66 19.26 2.25 26.19 8.92 5.12 4.67 5.57 12.01 8.83 17.81v2.46c-5.44 3.99-12.06 5.63-18.57 6.91h-20.76c-7.45-1.53-15.12-2.01-22.41-4.28-2.77-.76-5.46-1.9-8.33-2.18-4.45.5-8.19 4.55-12.85 3.49-6.45-1.45-13-2.65-19.18-5.07-.18-13.67.88-27.39-.82-41.01-.45-9.45-2.63-18.68-3.98-28.01-.69-4.7-2.03-9.26-3.12-13.86.58.62 1.16 1.24 1.75 1.87 3.49-2.07 7.1-4.05 11.05-5.06 6.75-1.91 13.85-1.3 20.71-2.54zm-8.48 8.45c4.24 13.83 8.58 27.64 13.07 41.4 1.25-.41 2.51-.81 3.76-1.21-4.24-13.36-7.78-26.93-11.98-40.3-1.62-.02-3.24.02-4.85.11zm49.15 54.21c-.22.29-.67.87-.89 1.15.79 3.07 4.24-1.84.89-1.15zm-6.27 10.12c1.42-1.91 2.48-4.08 3.15-6.36-1.87 1.63-2.75 3.97-3.15 6.36zm-3.15 16.87c-11.35-1.26-22.28-5.15-33.73-5.73-6.45-.31-12.81-1.34-19.2-2.14 8.21 3.73 17.51 2.29 26.2 3.8 13.59 2.38 27.04 6.66 40.98 6.19 7.76-.16 16.06.62 23.23-2.94-5.07.57-10.05 1.92-15.19 1.76-7-.21-14.09.59-21-.83-.07-4.78.34-9.55.88-14.29-2 4.45-1.57 9.43-2.17 14.18z"/><g fill="#fefefd"><path d="m119.59 1.38h30.53c9.64 2.17 19.94 3.66 28.13 9.64 1.78 1.45 4.37 3.48 3.4 6.1-2.16 5.05-6.46 9.07-11.41 11.37l-.41-.23c-.09-.06-.27-.17-.37-.22l-.35-.21c-6.54-4.39-14.51-5.79-22.24-6.3l-.72-.1c-1.89-3.38-3.25-7.52-6.95-9.38-4.12-2.47-9.75-1.93-13.2 1.47-2.7 2.31-3.14 6.09-5.15 8.85-3.26 1.5-6.82 2.25-10.09 3.73-6.48 2.32-12.03 6.67-16.26 12.06-.63.8-1.26 1.61-1.87 2.42-6.99-2.24-14.8-6.03-17.71-13.19 2.16-4.82 6.42-8.26 10.4-11.55 9.92-7.8 22.12-11.73 34.27-14.46z"/><path d="m118.99 37.76.9-.27c1.72 1.87 3.19 4.01 3.89 6.48 2 6.44 3.45 13.04 4.24 19.73-.71-.09-2.13-.27-2.83-.36-3.13-7.88-6.51-15.65-10.14-23.31 1.3-.77 2.61-1.54 3.94-2.27z"/><path d="m88.96 50.88c3.32-.65-.1 4.27-.86 1.17.21-.29.65-.88.86-1.17z"/><path d="m164.92 75.71c1.16 1.18 2.72 2.3 2.9 4.08-.45 1.79-3.18 3.7-4.12 1.23-1.72-1.79.14-3.82 1.22-5.31z"/><path d="m170.94 77.73c1.36-.44 3.17-.36 4.08.91 2.82 3.62 3.98 9.09 1.42 13.17-1.81 1.06-4.1.28-5.06-1.53-2.26-3.63-3.54-8.99-.44-12.55z"/><path d="m115.16 83.62c1.18-1.33 2.23-2.76 3.51-4 1.02 1.7 2.78 4.34.74 6.02-.57.2-1.71.61-2.28.81-.49-.71-1.48-2.12-1.97-2.83z"/><path d="m9.9 83.01c1.86-1.88 4.65-1.18 7-1.24.51 3.71.3 7.47-.13 11.18-.93 7.73-.65 15.56.14 23.29.18 2.6.47 5.2.76 7.8-2.33.45-4.66.89-6.97 1.44 2.28-.04 4.55-.13 6.83-.2 2.22 2.33 4.71 5.11 8.29 4.64 3.99.47 5.66-3.78 8.3-5.87 3.3-.82 6.74-.33 10.09-.13-2.53 1.21-5.09 2.35-7.55 3.68 5.67-1.3 10.88-4.02 16.48-5.54 3.48 1.83 7.53 3.44 9.38 7.19 1.64 2.55 1.48 6.5-1.43 8.07-4.25.53-8.66-1.71-12.8-.01-2.6.97-2.51 4.07-3 6.34-.44 3.74-2.02 7.17-3.48 10.6-1.35.46-3.45 1.55-2.93 3.27 1.32.59 2.29-1.09 3-1.93 1.3 3.09 3.36 5.94 3.91 9.32-.4 1.99-2.07 3.38-3.38 4.82-6.86 4.93-15.18 7.45-23.61 7.45-3.37-.12-6.71-.62-10.01-1.32-.71-5.2-.1-10.43 0-15.63-1.65-2.97-4.43-5.19-5.78-8.35-1.14-2.7-1.63-5.62-2.23-8.48v-2.87c1.13-6.48 2.56-13.03 1.93-19.65-.7-7.15-1.01-14.37-.45-21.55.51-6.09 2.93-12.26 7.64-16.32zm25.37 48.43c-3.13 1.06-6.56.4-9.69 1.39-2.84 1.23-5.18 3.45-6.91 5.99-2.5 3.62-2.18 8.49-.43 12.35-.2-3.23-1.43-6.64-.07-9.77 1.49-3.3 4.19-6.06 7.39-7.75 3.28-1.39 7.01-.63 10.39-1.64 2.08-.71 3.59-2.39 5.14-3.86-1.95 1.07-3.76 2.42-5.82 3.29z"/><path d="m124.75 99.25c-6.13-3.26-5.02-12.99.08-16.8 5.93 3.44 5.88 13.47-.08 16.8z"/><path d="m164.38 85.48c1.38-2.2 2.8.78 4.16 1.45-.93.81-1.85 1.63-2.77 2.45-1.25-.9-3.27-2.47-1.39-3.9z"/><path d="m114.59 90.98c.33-1.43 2.14-1.79 3.2-2.58.94 2.31.91 4.88-1.79 5.81-.52-1.05-.99-2.13-1.41-3.23z"/><path d="m37.2 98.35c3.41-2.67 8.58-1.09 10.88 2.32 4.11 5.77 5.03 13.35 3.88 20.21-.19.03-.56.07-.75.09-2.96 1.35-6.64 3.55-9.75 1.38-4.38-3.24-4.28-9.25-5.37-14.08-.55 5.23 1.41 10.19 3.76 14.74-1.98.04-3.96.07-5.94.11.62-5.02.07-10.06-1.2-14.93.65-3.55 1.77-7.31 4.49-9.84z"/><path d="m137 108.16c3.27-2.46 6.87-6.48 11.41-4.91 4.85 1.96 9.3 5.14 14.77 5.17-3.17 1.76-6.41 3.4-9.43 5.42 5.61-2.16 10.59-6.74 16.99-6.04 13.33.75 27.37 1.55 39.25 8.32-4.61 12.85-13.04 24.4-24.45 32.02-13.6 9.43-30.48 12.61-46.76 12.84-12.37-.24-24.81-1.5-36.71-5.02-10.63-3.06-20.11-9.14-27.94-16.86-.85-4.42 3.49-7.04 6.43-9.42 11.73-8.09 25.67-12.16 39.32-15.7 6.32-1.87 12.69.65 19.05.8-3.85-.92-7.78-1.39-11.68-2 3.41-1.16 7.03-2.11 9.75-4.62zm20.8 12.15c-3.83.81-7.52-.77-10.62-2.88-2.04 1.68-3.99 3.72-6.64 4.39-3.96 1.02-8.03.01-12.01-.35 6.27 2.54 13.88 1.83 18.96-2.87 4.91 3.47 14.07 4.36 16.69-2.31-1.97 1.56-3.66 3.87-6.38 4.02zm-14.16 11.45c3.47.02 7.01-.25 10.26-1.58-3.46.19-6.91.72-10.26 1.58z"/><path d="m18.37 112.7c1.47-3.26 2.79-7.64 6.7-8.62 3.49-.85 5.74 2.45 7.52 4.86.37 5.72 2.18 12.19-1.44 17.27-2.37 4.63-10.12 3.88-11.96-.83-1.85-3.97-1.35-8.48-.82-12.68z"/><path d="m213.05 151.75c3.29-1.24 6.55-2.57 9.96-3.45.38.47 1.15 1.39 1.53 1.85.13.15.38.44.51.59.03.04.1.11.13.15 2 2.6 3.99 5.2 5.94 7.83 2.08 3.82 4.17 7.62 6.25 11.44-1.22.62-2.44 1.25-3.67 1.84-2.99.49-6 .78-9.01 1.06-2.81-7.66-7.38-14.42-11.64-21.31z"/><path d="m204.86 154.87c2.07-.77 4.13-1.57 6.19-2.37 6.42 5.18 9.42 13.24 12.89 20.47-3.94.89-7.95 1.39-11.99 1.39-1.7-5.42-4.01-10.62-6.88-15.51-.33-1.03-.85-1.93-1.55-2.72.33-.31 1-.94 1.34-1.26z"/><path d="m63.48 164.89c2.45.71 4.94 1.3 7.42 1.9.28 7.48.43 15.02 2.19 22.35-2.9-.21-5.79-.34-8.68-.59-.08-.39-.24-1.18-.31-1.57-.45-7.35-.75-14.72-.62-22.09z"/><path d="m71.69 166.97c2.34.41 4.71.68 7.07.98.44 7.12 1.82 14.15 3.98 20.94-2.52.09-5.04.2-7.56.39l-1.05-.06c-2.29-7.21-1.92-14.8-2.44-22.25z"/><path d="m105.91 187.05c4.67-.84 7.32 3.7 10.54 6.17 11.93 10.1 25.59 18.14 40.06 24.04.43 3.98.86 7.95 1.24 11.93-23.49-6.7-44.57-21.45-59.1-41.05 2.44-.24 4.86-.6 7.26-1.09z"/><path d="m203.35 224.29c3.17-3.65 7.17-6.42 11.29-8.88 1.47.96 2.94 1.92 4.37 2.95 8.63 6.44 13.43 17.09 13.61 27.76-1.31.58-2.61 1.18-3.92 1.73-2.47.2-4.95.24-7.42.21-.49.01-1.48.04-1.97.05-.89 3.18-1.57 6.44-2.79 9.52-1.44 3.68-4.85 5.92-7.54 8.61 3.19-1.8 5.85-4.35 8.52-6.83.1 2.75-.27 5.47-.8 8.16 3-4.73.04-10.4 2.09-15.37.43-1.63 1.81-2.68 2.9-3.86 2.99 2.69 7.28 5.86 6.26 10.48-1.06 7.31-7.12 12.75-14.05 14.57-5.34.32-7.37-5.04-10.04-8.59-1.9-2.97-4.51-5.55-5.79-8.87-.05-2.93 1.14-5.75 2.24-8.42.39 1.78.75 3.56 1.11 5.35.43-.11 1.31-.34 1.75-.45 3.02-6.41 7.73-11.75 11.45-17.72-4.42 1.22-7.92 4.23-10.93 7.56.75-4.39 1.43-9.09 4.78-12.36-.89.34-1.78.67-2.67 1.01.36-.93.72-1.86 1.08-2.79-.58-.74-1.16-1.49-1.75-2.21-.44-.4-1.34-1.21-1.78-1.61z"/><path d="m102.26 230.53c10.14.46 20.25 1.69 30.43 1.5.8 7.68 1.94 15.32 2.55 23.01-8.37-.36-16.76-.67-25.05-1.9-2.64-7.54-5.33-15.06-7.93-22.61z"/><path d="m133.57 232.25c8.73.38 17.48.06 26.21.55l-.11 1.3c-8.64.37-17.31-.29-25.92.63-.05-.62-.14-1.86-.18-2.48z"/><path d="m205.95 241.25c1.44-1.85 3.21-3.52 5.57-4.07-3.04 5.18-6.42 10.17-9.7 15.19-1.31-4.32 1.68-7.93 4.13-11.12z"/><path d="m163 255.08c.9-5.59 1.27-11.33 3.34-16.65.33.28.98.82 1.3 1.1 1.36 1.82 2.94 3.58 3.67 5.77.62 3.07.29 6.23.18 9.33-2.83.16-5.66.31-8.49.45z"/><path d="m89.1 358.06c1.78-.76 3.77-.4 5.64-.41-6.19 14.44-11.76 29.14-17.97 43.57-1.32-.14-2.65-.29-3.97-.43 4.55-12.37 9.32-24.65 13.84-37.02.72-1.94 1.4-3.92 2.46-5.71z"/><path d="m206.79 359.73c1.61-.09 3.23-.13 4.85-.11 4.2 13.37 7.74 26.94 11.98 40.3-1.25.4-2.51.8-3.76 1.21-4.49-13.76-8.83-27.57-13.07-41.4z"/></g><path d="m128.36 12.46c5.13-3.72 12.5-.24 14.94 5.05 1.64 3.17 1.19 6.86.37 10.19-.89 1.45-1.95 2.77-2.95 4.13-2.16 1.2-4.35 2.7-6.9 2.81-2.84-.09-5.4-1.52-7.76-2.97-1.32-1.45-2.29-3.17-3.11-4.94-1.47-5.36.55-11.39 5.41-14.27zm3.75 1.48c-.42.77-.83 1.54-1.25 2.32-2.12 2.86-3.81 6.01-5.24 9.27 1.33-.21 2.67-.43 4.02-.41.34 1.75.37 3.54.35 5.32 2.89-.4 5.8-.71 8.71-.98-.31-1.77-.62-3.55-.93-5.32 1.39-.22 2.79-.43 4.19-.62-1.3-1.11-2.61-2.21-3.99-3.2-.06-.09-.2-.25-.26-.33-.07-.09-.22-.27-.29-.36-1.41-2.21-3.21-4.13-5.31-5.69z" fill="#fee568"/><path d="m163.07 69.11c3.08-1.14 6.7-.74 9.42 1.13 5.45 3.72 8.89 10.07 9.27 16.65.64 4.85.08 10.04-2.84 14.12-2.55 4.17-8.44 6.38-12.77 3.57-8.6-4.88-11.96-16.03-10.1-25.34.98-4.01 2.92-8.49 7.02-10.13zm4.27 3.42c-3.37 1.55-5.96 4.85-6.28 8.6-1.13 7.4 1.99 16.14 9.12 19.38 4.45 1.76 8.71-1.94 10.01-6 1.93-6.89.17-14.89-5.18-19.82-1.95-1.96-4.97-3.21-7.67-2.16z" fill="#fee568"/><path d="m114.36 73.5c3.65-2.04 7.19 1.13 10.62 2.15 4.38 1.41 6.57 6.16 7.02 10.45-2.41-3-3.63-7.59-7.83-8.59-4.01-1.4-7.86 1.73-9.91 4.91-3.48 5.58-4.66 13.27-1.02 19.07 1.92 2.82 4.83 5.7 8.54 5.41 3.75.19 6.16-3.1 8.6-5.41l.57-.59c-1.37 6.25-7.58 11.62-14.19 10.32-7.26-1.06-11.23-8.67-12.02-15.32-.94-8.31 1.66-18.32 9.62-22.4z" fill="#fee568"/><path d="m143.11 174.15c3.6-1.24 8.12 1.87 7.97 5.78.91 4.9-5.34 8.9-9.41 6.16-5.17-2.29-3.95-10.75 1.44-11.94z" fill="#fee568"/><path d="m221.28 174.3c1.35.03 2.71.07 4.07.11.91 1.11 1.89 2.16 2.81 3.27 2.68 4.53 5.23 9.14 8.33 13.41 1.18-1.73 2.36-3.45 3.55-5.17 1.97 1.57 3.87 3.22 5.71 4.94 2.03 2.26 3.47-1.41 2.62-3.15.43-.45 1.27-1.34 1.7-1.79 2.43 1.33 4.81 2.73 7.15 4.22-1.74 1.71-3.48 3.59-5.85 4.39-6.83 2.35-14.95 2.18-20.93-2.23-5.94-3.95-9.1-10.99-9.16-18z" fill="#fee568"/><path d="m130.86 16.26c2.51.38 4.73 1.63 6.56 3.37.07.09.22.27.29.36.06.08.2.24.26.33.33.4.99 1.22 1.32 1.63-2.79 1.57-2.61 4.51-2.19 7.27-1.79-.26-3.59-.51-5.39-.77-.97-1.99-2-3.95-3.32-5.74.77-2.17 1.65-4.3 2.47-6.45z" fill="#005ef5"/><path d="m228.16 177.68c2.32-.17 4.69.04 6.84.98 5.17 2.09 10.17 4.6 15.07 7.26-.43.45-1.27 1.34-1.7 1.79-1 .94-1.96 1.93-2.62 3.15-1.84-1.72-3.74-3.37-5.71-4.94-1.19 1.72-2.37 3.44-3.55 5.17-3.1-4.27-5.65-8.88-8.33-13.41z" fill="#005ef5"/><path d="m146.05 20.98.72.1c7.48 1.87 15.11 3.28 22.24 6.3.1.11.3.33.39.44.09.09.25.29.33.38.9 3.34 2.18 7.18-.25 10.15-.42-.23-1.26-.7-1.69-.93-9.09-3.13-18.86-2.93-28.35-3.25.32-.58.96-1.76 1.28-2.34 1-1.36 2.06-2.68 2.95-4.13 1.12-2.11 1.75-4.43 2.38-6.72z" fill="#e8412e"/><path d="m110.66 25.65c3.56-.86 7.13-1.63 10.72-2.36.52 1.15 1.03 2.3 1.57 3.44.82 1.77 1.79 3.49 3.11 4.94 1.49 1.52 3.12 2.9 4.73 4.29-3.64.47-7.29.85-10.9 1.53l-.9.27c-8.94 2.34-17.23 6.45-25.44 10.58-.13-3.57.06-7.14.85-10.63 5.19-4.32 10.53-8.47 16.26-12.06z" fill="#e8412e"/><path d="m223.75 148.09c3.1-2.19 6.53-3.84 10.08-5.17 7.44 6.65 14.01 14.33 19.21 22.86-3.96 1.69-7.96 3.31-12.05 4.67-.67-.23-2.03-.7-2.7-.93-1.91-3.91-4.42-7.45-7.17-10.8-1.27-3.11-3.44-5.63-5.94-7.83-.03-.04-.1-.11-.13-.15-.13-.15-.38-.44-.51-.59-.2-.51-.6-1.55-.79-2.06z" fill="#e8412e"/><path d="m202.77 155.86c.52-.25 1.56-.74 2.09-.99-.34.32-1.01.95-1.34 1.26z" fill="#e8412e"/><path d="m187.48 160.17c5.09-1.44 10.25-2.69 15.29-4.31-.86 1.51.77 3.12 2.3 2.99 1.4 5.53 4.32 10.52 6.01 15.96-8.12.39-16.2 1.68-24.34 1.26-3.69-.33-7.26.71-10.45 2.5 4.9-5.33 8.95-11.47 11.19-18.4z" fill="#e8412e"/><path d="m49.73 159.99c4.48 1.07 8.64 3.11 12.97 4.62.23 7.46-.42 15.06 1.4 22.37.07.39.23 1.18.31 1.57-4.81-.39-9.59-1.06-14.37-1.73-1.09-8.9-.63-17.9-.31-26.83z" fill="#e8412e"/><path d="m79.57 168.86c1.47-.09 2.93-.15 4.4-.18.43.04 1.29.14 1.72.18 4.59.85 9.28.52 13.88 1.13 4.72 4.81 8.86 10.2 13.74 14.89-2.45.76-4.91 1.53-7.4 2.17-2.4.49-4.82.85-7.26 1.09-4.9.4-9.81.79-14.73.92-2.26-6.53-3.73-13.32-4.35-20.2z" fill="#e8412e"/><path d="m169.36 27.59c.1.05.28.16.37.22l-.33.01z" fill="#4c4f4e"/><path d="m169.73 27.81.41.23.09.47-.5-.31z" fill="#4c4f4e"/><path d="m167.79 37.42c.43.23 1.27.7 1.69.93-1.06 4.37-1.4 8.88-2.26 13.29-.15 1.59-.77 3.29-.19 4.85 4.2 2.81 9.39 4.51 12.07 9.15-4.87-2.3-9.44-5.96-15.14-5.6 2.71-7.21 4.5-14.88 3.83-22.62z" fill="#4c4f4e"/><path d="m100.71 73.92c1.31-4.97 4.85-8.81 8.8-11.89.71 1.1 1.42 2.21 2.12 3.32-5.28-.12-7.44 5.57-10.92 8.57z" fill="#4c4f4e"/><path d="m201.75 93.79c3.46-1.63 7.22-2.46 11.03-2.7-3.48 1.57-7.23 2.45-11.03 2.7z" fill="#4c4f4e"/><path d="m70.34 116.57c15.35-2.67 30.96-4.38 46.55-3.26-4.32.8-8.74.42-13.1.45-12.94.33-25.71 2.54-38.46 4.52 1.61-.73 3.28-1.34 5.01-1.71z" fill="#4c4f4e"/><path d="m206.21 175.78c1.12 8.01.45 16.48-2.07 24.19.78-8.06 1.9-16.08 2.07-24.19z" fill="#4c4f4e"/><path d="m91.94 191.83c1.42 4.92 2.03 10.03 2.62 15.1-1.93-4.79-2.65-9.96-2.62-15.1z" fill="#4c4f4e"/><path d="m236.14 203.13c3.04-.25-1.08 4.95-2.2 2.74 0-1.27 1.06-2.33 2.2-2.74z" fill="#4c4f4e"/><path d="m70.78 440.72c2.57-1.16 5.29-1.97 8.06-2.51.41 1.47.79 2.95 1.15 4.44-.78-.89-1.54-1.83-2.47-2.55-2.27-.07-4.5.41-6.74.62z" fill="#4c4f4e"/><path d="m190.55 42.23c-1.27-2.03-.88-4.37-.47-6.58.78 2.74.76 5.92 2.85 8.1 2.57 2.85 5.52 5.34 7.81 8.44-4.11-2.45-7.71-5.86-10.19-9.96z" fill="#c0d5d9"/><path d="m65.54 49.02c3.62 1.11 7.17 2.42 10.79 3.53.2.48.58 1.44.78 1.92-3.84-1.87-8.26-2.6-11.57-5.45z" fill="#c0d5d9"/><path d="m191.78 49.65c3.13 1.62 5.65 4.16 7.27 7.3-2.87-1.95-5.31-4.44-7.27-7.3z" fill="#c0d5d9"/><path d="m85.12 54.13c2.96-.37-.2 3.82-1.83 2.5-.57-1.15.87-2.2 1.83-2.5z" fill="#c0d5d9"/><path d="m79.03 60.27c1.72.7-.45 3.93-1.93 3.15-.65-1.27.63-2.95 1.93-3.15z" fill="#c0d5d9"/><path d="m117.55 60.9c2.69 2.07 4.95 4.67 7.79 6.54 6.67 1.19 13.51.33 20.24.29 4.06.09 7.48-2.21 10.56-4.59-1.74 4.19-6.24 5.45-10.39 5.53-5 .45-9.98 1.03-14.99 1.18-5.74.01-10.65-4.06-13.21-8.95z" fill="#c0d5d9"/><path d="m66.63 67.46c1.2-.72 1.44 1.11.71 1.7-.83 1.1-2.23 1.43-3.5 1.69l-.08-.54c.85-1.04 1.68-2.17 2.87-2.85z" fill="#c0d5d9"/><path d="m67.72 78.97c.59-3.04 1.85-5.95 4.03-8.2-.88 2.93-2.24 5.71-4.03 8.2z" fill="#c0d5d9"/><path d="m142.7 74.7c5.3-.09 10.26-2.11 15.25-3.64-6.17 4.88-14.78 4.94-22.28 4.61 2.3-.63 4.7-.45 7.03-.97z" fill="#c0d5d9"/><path d="m195.09 95.05c.83-.28 2.87-.89 3.04.45-.98 1.23-2.85 1.38-4.32 1.32-1.37-.51.69-1.68 1.28-1.77z" fill="#c0d5d9"/><path d="m184.12 98.97c3.19-1.18 1.87 2.45-.52 2.08-2.17.28-.87-2.12.52-2.08z" fill="#c0d5d9"/><path d="m136.89 162.36c1.77.2.54 3.67-1.01 2.93-.9-.91-.15-2.66 1.01-2.93z" fill="#c0d5d9"/><path d="m145.41 162.33c1.57-.69 3.76 1.45 3.12 3.03-1.45.45-3.58-1.56-3.12-3.03z" fill="#c0d5d9"/><path d="m134.15 168.47c1.68.46.39 4.12-1.18 3.84-.8-1.22 0-3.14 1.18-3.84z" fill="#c0d5d9"/><path d="m162.14 184.42c1.69-.19 2.9 2.58 2.3 4.01-1.7.19-2.9-2.58-2.3-4.01z" fill="#c0d5d9"/><path d="m169.15 185.11c2.96-.4-.24 3.82-1.86 2.52-.56-1.17.91-2.2 1.86-2.52z" fill="#c0d5d9"/><path d="m116.3 187.26c1.28-.71 3.59.9 2.98 2.35-1.29.71-3.59-.9-2.98-2.35z" fill="#c0d5d9"/><path d="m126.18 191.42c1.95.55-.32 3.54-1.66 2.39-.75-1.05.55-2.46 1.66-2.39z" fill="#c0d5d9"/><path d="m133.75 234.73c8.61-.92 17.28-.26 25.92-.63l.91-.02c1.3 1.34 2.6 2.69 3.9 4.04-.62 5.67-1.13 11.39-2.67 16.91-8.43.12-16.85-.04-25.27.1-1.52-6.71-1.64-13.63-2.79-20.4z" fill="#c0d5d9"/><path d="m150.12 257.15c.32-.01.97-.03 1.29-.03 4.62 8.82 7.67 18.38 11.85 27.43 2.44.16 4.88.3 7.32.44.38 4.08-.42 9.07 3.05 12.07 3.2 3.25 9.17 5.09 12.83 1.61 2.73-4.19 3.31-9.34 4.22-14.15l.24-.9c2.13-.36 4.27-.63 6.43-.74 2.88 11 5.74 22.01 8.5 33.05 3.39 11.71 5.68 23.73 9.42 35.35-6.86 1.24-13.96.63-20.71 2.54-3.95 1.01-7.56 2.99-11.05 5.06-.59-.63-1.17-1.25-1.75-1.87-4.79-20.28-11.79-39.99-20.1-59.08-5.95 1.3-11.91 2.59-17.81 4.08-2.71.48-3.32 3.61-4.34 5.72-5.53 15.4-11.23 30.77-16.11 46.4-8.24-3.14-16.84-5.53-25.68-5.94-3.81-.15-7.61.24-11.41.19 7.57-21.23 14.46-42.71 20.82-64.33 9.17-.95 18.28 1.72 27.44.59 1.77-.22 2.63-2.08 3.53-3.4 4.31-7.87 7.39-16.4 12.02-24.09z" fill="#c0d5d9"/><path d="m255.94 413.94c3.35-.69-.1 4.22-.89 1.15.22-.28.67-.86.89-1.15z" fill="#c0d5d9"/><path d="m249.67 424.06c.4-2.39 1.28-4.73 3.15-6.36-.67 2.28-1.73 4.45-3.15 6.36z" fill="#c0d5d9"/><path d="m246.52 440.93c.6-4.75.17-9.73 2.17-14.18-.54 4.74-.95 9.51-.88 14.29 6.91 1.42 14 .62 21 .83 5.14.16 10.12-1.19 15.19-1.76-7.17 3.56-15.47 2.78-23.23 2.94-13.94.47-27.39-3.81-40.98-6.19-8.69-1.51-17.99-.07-26.2-3.8 6.39.8 12.75 1.83 19.2 2.14 11.45.58 22.38 4.47 33.73 5.73z" fill="#c0d5d9"/><path d="m49.86 432.74c.98 2.66 1.56 5.45 2.22 8.2 8.82-2.36 17.4-6.34 26.71-6.15 7.07.28 14.1-.58 21.16-.78-7.8 2.4-16.13 1.9-24.21 2.01-8.05.16-15.35 4.02-23.11 5.67-8.5 1.81-17.22 1.23-25.85 1.37-7.24-.32-15.16-.69-21.3-5.01 4.63 1.12 9.09 3 13.85 3.5 4.14.42 8.3.29 12.45.3 6.26-.08 12.59.45 18.75-.94-.2-2.73-.47-5.45-.67-8.17z" fill="#c0d5d9"/><path d="m130.38 101.49c1.28-4.94.83-10.1 2.09-15.02.5 4.71 1.46 10.34-1.52 14.43z" fill="#f69f97"/><path d="m143.12 92.17c3.93-1.78 9.56 2.24 7.97 6.69-1.78 5.3-11.35 4.58-12.43-1.01-.05-2.66 2.26-4.61 4.46-5.68z" fill="#f69f97"/><path d="m157.81 214.09c1.46-2.11 4.25-2.35 6.59-2.02 12.3 1.68 23.81 6.57 35.35 10.87 1.2.44 2.41.87 3.6 1.35.44.4 1.34 1.21 1.78 1.61-.01 5.42-.78 10.81-2.07 16.06-.5 1.85-1.07 3.79-2.47 5.17-6.42.08-12.59-2.18-18.53-4.38-5.77-2.44-11.95-5.24-15.54-10.62-2.87-4.96-2.41-10.94-3.51-16.39-.1 7.18.16 15.74 6.3 20.62 8.31 6.72 18.91 9.79 29.26 11.65-1.6 12.05-4.26 23.93-7.65 35.61l-.24.9c-1.87 4.65-2.55 9.87-5.41 14.05-5.01 2.44-11.78-.54-13.32-5.89-.68-3.22-.44-6.53-.43-9.79.23-6.99-.06-13.99.1-20.98.1-5.58 1.51-11.15.71-16.73-.32-2.66-2.88-4.04-4.69-5.65-.32-.28-.97-.82-1.3-1.1-3.22-2.88-7.11-5.81-7.93-10.33-.81-4.6-1.43-9.37-.6-14.01zm24.11 17.92c-.54 3.96 5.32 8.12 8.02 4.07 2.15-3.41-.12-7.23-3.14-9.19-1.86 1.37-4.94 2.36-4.88 5.12zm-1.77 16.72c-.26 4.02-.02 8.06-.52 12.06-.94 6.39-.55 12.87-1.37 19.27 1.83-3.44 1.28-7.4 1.38-11.14-.01-6.73 2.07-13.5.51-20.19z" fill="#f6a441"/><path d="m121.53 22.74s-19.45 3.24-29 17.39c0 0-14.57-3.64-17.71-13.19 0 0 10.6-23.18 51.16-26.01s54.57 11.84 54.57 11.84 6.86 5.26-10.41 15.27c0 0-11.39-6.02-24.68-6.7" fill="none" stroke="#000" stroke-miterlimit="10"/><path d="m8.79 175.86s27.75 6.69 37-10.95c0 0-.23-3.23-3.91-9.32 0 0 1.62-5.14 2.53-7.94s.9-9.56 4.05-10.41 5.22-.47 8.97.01 4.66-.67 4.66-.67 4.84-4.75-3.18-11.33c0 0-6.54-3.19-6.96-4.38 0 0 1.78-12.69-2.32-17.66 0 0-3.15-6.66-7.76-6.22 0 0-7.65-1.84-9.17 11.19 0 0-3.97-5.14-7.64-4.11 0 0-4.35-.34-7.66 10.91l-.55.64s-.05-20.13.04-33.85c0 0-6.03-2.08-8.82 3.04s-6.31 5.42-6.11 23.38 1.83 16.97-.01 25.33-1.07 13.14.34 16.44 3.97 7.44 6.48 10.27c.02-0-.97 13.62.02 15.63z" fill="none" stroke="#000" stroke-miterlimit="10"/><path d="m49.73 159.99s14.27 7.58 49.59 9.3" fill="none" stroke="#000" stroke-miterlimit="10"/><path d="m50.04 186.82s17.81 3.31 29.53 2.46 25.51-.26 33.74-4.4" fill="none" stroke="#000" stroke-miterlimit="10"/><path d="m187.48 160.17s29.26-9.75 46.35-17.25c0 0 16.02 14.64 19.21 22.86 0 0-12.3 7.34-41.16 9.36l-40.1 5.29z" fill="none" stroke="#000" stroke-miterlimit="10"/><path d="m198.81 222.08 4.54 2.21s6.46-6.81 11.29-8.88c0 0 17.61 7.97 17.98 30.71 0 0-2.43 2.01-4.34 1.94l-8.4.04 1.8.24s6.74 4.87 6.36 8.38c-.37 3.51-1.5 13.76-14.15 16.67s-13.34-6.88-13.34-6.88" fill="none" stroke="#000" stroke-miterlimit="10"/><path d="m108.26 281.28-21.73 67.87" fill="none" stroke="#000" stroke-miterlimit="10"/><path d="m123.4 354.13 16.11-46.4s1.19-3.67 2.27-4.53 5.36-2.02 7.78-2.57c2.41-.56 8.83-1.98 8.83-1.98s3.48-1.04 4.28.94c1.03 2.52 12.61 33.78 14.43 40.06s5.9 20.48 5.9 20.48l9.86 1.01 21.92-9.77-18.27-71.31" fill="none" stroke="#000" stroke-miterlimit="10"/><path d="m69.17 130.65s8.16 23.22 45.04 28.14c37.17 4.95 79.5 1.88 95.78-44.14" fill="none" stroke="#000" stroke-miterlimit="10"/><path d="m128.53 121.45c1.62.44 3.27.77 4.93.94 1.65.2 3.32.28 4.96.08 1.63-.2 3.24-.55 4.67-1.3 1.42-.76 2.59-1.87 3.49-3.19l.29-.43.42.28c1.3.87 2.77 1.58 4.26 2.12 1.5.54 3.07.86 4.65.88 1.58.01 3.15-.43 4.51-1.25 1.44-.75 2.46-2.06 3.47-3.34-.83 1.4-1.79 2.81-3.21 3.74-1.38.95-3.05 1.52-4.75 1.6-1.7.09-3.38-.24-4.98-.76-1.6-.54-3.1-1.25-4.53-2.19l.71-.14c-1 1.46-2.33 2.7-3.9 3.5-1.59.76-3.32 1.13-5.03 1.22-1.72.1-3.43-.07-5.09-.37-1.68-.3-3.32-.73-4.87-1.39z"/><path d="m99.29 220.48 11.52 33.42" fill="none" stroke="#000" stroke-miterlimit="10"/></svg>