<svg enable-background="new 0 0 254.31 350.61" viewBox="0 0 254.31 350.61" xmlns="http://www.w3.org/2000/svg"><path d="m-120.93-84.66h.26c-.07.06-.2.19-.26.26z" fill="#e51919"/><path d="m81.23 4.47c1.74-4.06 6.78-5.2 10.71-4.05 5.97 1.63 10.94 5.57 15.78 9.27 15.34 12.29 27.81 28.41 35.35 46.59-1.77-.34-3.55-.57-5.33-.8.75-1.54 1.21-3.31.18-4.85-7.78-15.08-19.09-28.17-32.05-39.06-5.05-4.22-11.15-7.72-17.86-7.99-2.76-.32-4.81 2.28-5.12 4.79-1.07 6.83.58 14.01 4.38 19.77 2.6 4.32 6.37 8.22 7.24 13.36 1.6 17.23.8 34.57.01 51.83-.47 4.37-1.34 8.7-1.67 13.09-.43 6.18-2.33 12.11-3.62 18.13-.97 4.64-3.08 9.04-3.47 13.8-.23 2.52 2.18 4.04 3.85 5.48 2.53 1.82 4.88 3.9 6.62 6.5-7.72-3.5-13.42-10.02-20.04-15.13-15.68-12.64-31.55-25.38-49.74-34.28-5.84-2.78-11.74-6.25-18.36-6.48-3.23-.2-5.99 2.75-5.74 5.94.09 6.28 3.6 11.76 6.53 17.08 13.61 24.22 33.64 43.84 49.73 66.3 4.05 6.01 8.38 11.91 11.35 18.56-2.79-3.07-5.57-6.16-8.54-9.06-2.78 6-5.07 12.21-7.4 18.4-.49-7.18 1.99-14.13 4.89-20.57.97-1.61-.65-2.96-1.42-4.22-12.13-15.79-25.14-30.89-37.19-46.74-6.31-8.82-13.17-17.44-17.38-27.52-1.92-4.77-3.19-9.97-2.44-15.13.39-3.19 3.45-5.55 6.59-5.58 7.34-.56 14.25 2.59 20.67 5.77 20.28 10.41 36.93 26.28 55.58 39.14.86-2.3 1.68-4.64 2.16-7.05 5.61-24.69 7.25-50.14 7.03-75.4-.07-4.1-.17-8.25-1.13-12.26-1.59-6.63-7.73-10.88-9.65-17.37-1.93-6.49-3.11-13.79-.5-20.26z" fill="#e51919"/><path d="m145.79 65.28c.36.22 1.09.66 1.45.87 2.22 2.46 3.54 5.55 5.49 8.21-.44-.11-1.32-.32-1.76-.43-2.64-2.24-4.09-5.44-5.18-8.65z" fill="#e51919"/><path d="m82.89 8.37c.31-2.51 2.36-5.11 5.12-4.79 6.71.27 12.81 3.77 17.86 7.99 12.96 10.89 24.27 23.98 32.05 39.06 1.03 1.54.57 3.31-.18 4.85-.52 1.47-1.38 2.93-1.26 4.55 2.69 2.41 6.13 3.65 9.31 5.25 1.09 3.21 2.54 6.41 5.18 8.65-5.23 1.22-9.24 4.93-12.27 9.19-3.73-2.9-7.51-6.87-12.65-6.52-6.43-.03-11.4 5.6-13.06 11.39-1.47 7.58-.63 15.7 3.03 22.56 2.31 5.07 6.7 9.12 12.11 10.61 1.87.72 4.04.81 5.9.03 3.97-1.28 6.76-4.51 9.75-7.23 3.47 2.32 6.95 5.14 11.26 5.57 4.41.54 8.34-2.01 11.8-4.38 10.08 28.35 26.96 53.65 44.88 77.58 5.14 6.78 5.76 15.62 5.82 23.82-2.71 6.27-7.84 10.93-12.29 15.95-.28.23-.83.68-1.1.91-15.05 9.38-31.68 16.74-49.32 19.39-11.6 1.37-23.41 1.38-34.98-.28-21.1-3.49-41.34-11.86-58.85-24.11-.26-.23-.78-.69-1.04-.92-1.74-2.26-3.52-4.49-5.27-6.74-.11-2.41-.28-4.81-.62-7.2-.01-.47-.04-1.42-.05-1.89 2.33-6.19 4.62-12.4 7.4-18.4 2.97 2.9 5.75 5.99 8.54 9.06-2.97-6.65-7.3-12.55-11.35-18.56-16.09-22.46-36.12-42.08-49.73-66.3-2.93-5.32-6.44-10.8-6.53-17.08-.25-3.19 2.51-6.14 5.74-5.94 6.62.23 12.52 3.7 18.36 6.48 18.19 8.9 34.06 21.64 49.74 34.28 6.62 5.11 12.32 11.63 20.04 15.13-1.74-2.6-4.09-4.68-6.62-6.5-1.67-1.44-4.08-2.96-3.85-5.48.39-4.76 2.5-9.16 3.47-13.8 1.29-6.02 3.19-11.95 3.62-18.13.33-4.39 1.2-8.72 1.67-13.09.79-17.26 1.59-34.6-.01-51.83-.87-5.14-4.64-9.04-7.24-13.36-3.8-5.76-5.45-12.94-4.38-19.77m19.03 19.61c.16 2.37.93 4.68 3.36 5.58.31-2.51-.45-5.27-3.36-5.58m9.87 38.86c.94-.1 1.88-.21 2.83-.32-.22 1.26-.43 2.51-.64 3.77 4.48-1.47 8.1-4.53 11.36-7.82-1.61-1.29-2.75-4.25-5.23-3.33-3.91.84-7.4 3.71-8.32 7.7m-9.62 60.44c1.36-.55 2.72-1.12 4.08-1.7 3.03 11.96 7.69 24.06 16.92 32.65 10.37 10.18 26.17 13.57 40.12 10.28 5.96-1.44 11.35-5.45 14.07-10.99-1.79.71-3.53 1.51-5.25 2.35-5.43-5.11-9.89-11.95-10.46-19.54-.49-3.13 1.4-5.76 3.12-8.15-6.51 1.19-13.01 2.99-19.69 2.56-12.06-.55-24.17-4.2-34.2-10.97.71-1.12 1.43-2.22 2.14-3.34-4.51.55-8.24 3.24-10.85 6.85m-57.06 21.98c.96 2.01 2.32 3.79 4.09 5.16-.2-1.42.03-3.05-.89-4.26-1.06-.36-2.12-.66-3.2-.9m125.25 28.89c.96 1.16 2.43 1.64 3.78 2.23-.56-1.54-1.36-2.96-2.33-4.27-.57.62-1.06 1.3-1.45 2.04m28.78 22.18c.07 2.47 1.53 4.25 3.81 5.08.09-2.55-1.24-4.6-3.81-5.08m-58.96 15c.3 2.3 1.02 4.57 2.85 6.12 1.47-2.68.14-5.53-2.85-6.12m33.21 9.93c.61 1.77 1.36 3.49 2.14 5.19-1.95.9-4.06 1.29-6.18 1.42.02.35.06 1.03.09 1.38 2.11-.4 4.22-.82 6.33-1.24-.11-2.49.69-5.82-2.38-6.75m6.19 3.39c-.33 2.63.06 6.11-2.73 7.55-4.59 3.11-10.16 1.09-14.87-.57 3.39 5.58 12.08 5.16 16.67 1.3 2.52-2.01 2.28-5.41 2.3-8.3-.35.01-1.03.02-1.37.02z" fill="#ee7d7e"/><path d="m237.02 90.23c3.43-1.87 7.32-4.51 11.4-3.27 2.86 2.11 3.1 6.12 2.98 9.38-.56 6.86-3.1 13.37-5.72 19.66-7.1 15.97-16.04 31.03-24.75 46.16-4.22 6.43-8.08 13.57-14.42 18.17-9.35-12.77-17.67-26.24-25.57-39.94-1.01-1.82-1.85-3.72-2.72-5.6 22.01-11.49 38.04-31.26 58.8-44.56m-27.83 34.24c2.6 2.24 5.41.14 6.97-2.14-2.58-.27-5.04.38-6.97 2.14z" fill="#ee7d7e"/><path d="m170.79 307.49c10.25 1.32 20.24-1.93 29.64-5.64.34 3.16-.37 6.3-1.68 9.18-2.24 5.1-4.24 10.66-8.54 14.44-2.78 2.51-7.26 3.63-10.42 1.14-5.92-4.4-8.24-12.08-9-19.12m19.69 5.15c-.52 1.46-.89 2.98-1.29 4.48.66-.03 2-.09 2.66-.12.58-1.64 1.71-5.14-1.37-4.36z" fill="#ee7d7e"/><path d="m90.11 327.25c-1.77-4.91-3.93-10.19-2.37-15.45 10.66 4.02 22.33 3.2 33.47 2.4-2.41 6.92-5.12 13.88-9.46 19.83-2.75 3.7-7.59 6.95-12.33 5.1-4.89-2.08-7.42-7.22-9.31-11.88z" fill="#ee7d7e"/><path d="m101.92 27.98c2.91.31 3.67 3.07 3.36 5.58-2.43-.9-3.2-3.21-3.36-5.58z" fill="#3f2523" opacity=".93"/><path d="m137.74 55.48c1.78.23 3.56.46 5.33.8 1.99.47 3.96 1.2 5.64 2.4.1 2.57-.79 5.04-1.47 7.47-.36-.21-1.09-.65-1.45-.87-3.18-1.6-6.62-2.84-9.31-5.25-.12-1.62.74-3.08 1.26-4.55z" fill="#211714"/><path d="m111.79 66.84c.92-3.99 4.41-6.86 8.32-7.7 2.48-.92 3.62 2.04 5.23 3.33-3.26 3.29-6.88 6.35-11.36 7.82.21-1.26.42-2.51.64-3.77-.95.11-1.89.22-2.83.32z" fill="#201713"/><g fill="#060405"><path d="m138.7 83.12c3.03-4.26 7.04-7.97 12.27-9.19.44.11 1.32.32 1.76.43 5.36 1.14 10.06 4.72 12.86 9.4 5.74 8.54 6.08 19.9 2.63 29.38-.34.5-1.03 1.51-1.38 2.01-3.46 2.37-7.39 4.92-11.8 4.38-4.31-.43-7.79-3.25-11.26-5.57-2.99 2.72-5.78 5.95-9.75 7.23-1.74-1.32-4.14-1.32-5.9-.03-5.41-1.49-9.8-5.54-12.11-10.61-3.66-6.86-4.5-14.98-3.03-22.56 1.66-5.79 6.63-11.42 13.06-11.39 5.14-.35 8.92 3.62 12.65 6.52m8.66-6.51c-3.55 1.11-5.83 4.52-7.02 7.87 1.24 4.38 3.92 8.31 4.57 12.9 1.22 4.63-.1 9.32-.25 13.97 2.43 3.78 6.63 7.11 11.38 6.69 5.5.18 10.35-4.16 11.55-9.4 2.52-9.44.22-20.25-6.11-27.73-3.39-3.95-9.07-6.16-14.12-4.3m-24 2.04c-6.31 1.07-9.43 7.87-9.69 13.67-.61 9.26 2.25 19.68 10.05 25.37 4.98 3.69 12.82 2.92 16.86-1.84 2-2.36 3.22-5.38 3.3-8.49.64-9.11-2.18-18.67-8.32-25.51-2.98-3.5-7.97-3.82-12.2-3.2z"/><path d="m45.11 149.26c1.08.24 2.14.54 3.2.9.92 1.21.69 2.84.89 4.26-1.77-1.37-3.13-3.15-4.09-5.16z"/><path d="m170.36 178.15c.39-.74.88-1.42 1.45-2.04.97 1.31 1.77 2.73 2.33 4.27-1.35-.59-2.82-1.07-3.78-2.23z"/><path d="m199.14 200.33c2.57.48 3.9 2.53 3.81 5.08-2.28-.83-3.74-2.61-3.81-5.08z"/><path d="m217.54 216.55c.37-.82.71-1.65 1.05-2.48 5.11 15.97 2.85 33.58-4.37 48.52-1.44 2.83-3.9 5-5.28 7.86-1.69 7.44 5.8 13.42 4.34 20.81-2.15 3.77-6.14 6.03-9.42 8.74-1.12.66-2.26 1.29-3.43 1.85-9.4 3.71-19.39 6.96-29.64 5.64-1.06-.13-2.12-.28-3.16-.47-2.49-1.04-5.23-2.03-6.99-4.16-.26-2.26.02-4.53.14-6.79-8.78 1.01-17.51 2.4-26.19 3.99.19 2.94 1.36 6.48-.97 8.89-2.27 2.37-5.51 3.42-8.55 4.43-1.28.32-2.57.59-3.86.82-11.14.8-22.81 1.62-33.47-2.4-1.28-.49-2.54-1.03-3.79-1.57-2.78-1.34-5.73-2.56-8.02-4.69-2.31-6.76-.32-14.08-1.11-21.03-2.04-3.77-5.51-6.52-7.89-10.06-9.29-12.03-16.86-26.52-16.35-42.1-.19-5.41 1.52-10.62 2-15.97.41 1.58 1.13 3.06 2.11 4.37 1.75 2.25 3.53 4.48 5.27 6.74-2.06-1.54-4.19-2.97-6.37-4.32.37 2.19.69 4.61 2.54 6.09 10.64 9.56 23.32 16.67 36.75 21.48 11.67 4.7 24.06 7.38 36.59 8.29 9.92 1.1 19.77-.91 29.63-1.65-4.04.85-8.09 1.73-12.18 2.32-.6.07-1.79.21-2.39.28-18.77.92-37.81-1.95-55.25-9.04-7.45-2.74-14-7.32-21.01-10.94-5.31-2.75-9.43-7.2-14.53-10.27-.82 12.66 3.67 25.14 10.15 35.85.56.94 1.12 1.88 1.69 2.82 3.57 6.69 9.35 11.67 14.7 16.88-2.91 4.79-3.23 10.62-4.04 16.05-.53 2.77 1.81 4.78 4.07 5.82 5.55 2.6 11.64 3.85 17.71 4.42.5.04 1.49.1 1.99.14 7.03.14 14.11.55 21.11-.34 3.9-.43 7.31-2.49 10.64-4.41 0-5.02-.22-10.06.31-15.05 1.38 1.21 1.78 3.03 2.28 4.72 10.87.71 21.48-2.2 31.85-5.09 13.86-4.38 27.87-10.31 38.22-20.84 11.11-11.05 15.32-27.57 13.85-42.86-3.59 3.32-6.64 7.18-10.25 10.5-.68.55-1.39 1.08-2.1 1.59-14.68 7.89-30.08 15.45-46.82 17.45 16.48-4.4 33.29-9.54 47.14-19.87 4.25-3.4 8.44-7.07 11.46-11.64 1.4-1.8.71-4.11.51-6.16-4.46 4.14-7.87 9.34-12.96 12.79 4.45-5.02 9.58-9.68 12.29-15.95m-20.52 63.72c-9.91 6.45-21.02 10.65-31.91 15.08-3.23.97-3.2 5.87-.39 7.37 5.35 3.21 11.99 3.31 17.98 2.22 10.42-1.82 20.84-6.36 27.76-14.61-1.42-4.33-2.49-8.76-3.89-13.1 1.36-.71 1.14-3.74-.61-3.63-3.17 1.98-5.87 4.57-8.94 6.67z"/><path d="m140.18 215.33c2.99.59 4.32 3.44 2.85 6.12-1.83-1.55-2.55-3.82-2.85-6.12z"/><path d="m173.39 225.26c3.07.93 2.27 4.26 2.38 6.75-2.11.42-4.22.84-6.33 1.24-.03-.35-.07-1.03-.09-1.38 2.12-.13 4.23-.52 6.18-1.42-.78-1.7-1.53-3.42-2.14-5.19z"/><path d="m61 228.41c17.51 12.25 37.75 20.62 58.85 24.11 11.57 1.66 23.38 1.65 34.98.28 17.64-2.65 34.27-10.01 49.32-19.39-6.75 6.45-15.3 10.55-23.75 14.28-20.03 8.22-42.41 8.98-63.6 5.82-16.74-2.47-32.63-9.14-46.96-18.01-3.25-1.97-6.12-4.46-8.84-7.09z"/></g><path d="m147.36 76.61c5.05-1.86 10.73.35 14.12 4.3 6.33 7.48 8.63 18.29 6.11 27.73-1.2 5.24-6.05 9.58-11.55 9.4-4.75.42-8.95-2.91-11.38-6.69.15-4.65 1.47-9.34.25-13.97-.65-4.59-3.33-8.52-4.57-12.9 1.19-3.35 3.47-6.76 7.02-7.87m.97 14.73c-2.81 3.68-1.16 12.16 4.63 11.36 3.45-1.46 3.22-5.69 2.35-8.69-.94-2.85-4.4-3.77-6.98-2.67z" fill="#fff"/><path d="m123.36 78.65c4.23-.62 9.22-.3 12.2 3.2 6.14 6.84 8.96 16.4 8.32 25.51-.08 3.11-1.3 6.13-3.3 8.49-4.04 4.76-11.88 5.53-16.86 1.84-7.8-5.69-10.66-16.11-10.05-25.37.26-5.8 3.38-12.6 9.69-13.67m6.04 14.14c-6.14 1.65-4.09 11.82 1.66 12.3 2.31.51 3.41-2.14 4.07-3.88.95-3.56-1.6-8.79-5.73-8.42z" fill="#fff"/><path d="m239.42 85.78c3.18-1.6 6.96-2.57 10.47-1.51 3.4 1.51 4.14 5.68 4.35 9.01.63 8.78-2.96 17.04-6.33 24.92-8.53 21.68-21.81 40.99-34.9 60.1-1.16 1.9-2.97 3.6-3.4 5.82 2.22 3.94 5.35 7.36 6.96 11.64 2.25 5.74 3.45 12.23 2.02 18.31-.34.83-.68 1.66-1.05 2.48-.06-8.2-.68-17.04-5.82-23.82-17.92-23.93-34.8-49.23-44.88-77.58.35-.5 1.04-1.51 1.38-2.01 3.51 6.49 4.81 13.98 9.09 20.1 4.96-2.35 9.27-5.77 13.63-9.05 9.52-7.39 18.45-15.5 27.62-23.31 6.74-5.3 13.13-11.22 20.86-15.1m-2.4 4.45c-20.76 13.3-36.79 33.07-58.8 44.56.87 1.88 1.71 3.78 2.72 5.6 7.9 13.7 16.22 27.17 25.57 39.94 6.34-4.6 10.2-11.74 14.42-18.17 8.71-15.13 17.65-30.19 24.75-46.16 2.62-6.29 5.16-12.8 5.72-19.66.12-3.26-.12-7.27-2.98-9.38-4.08-1.24-7.97 1.4-11.4 3.27z" fill="#e41a1b"/><path d="m148.33 91.34c2.58-1.1 6.04-.18 6.98 2.67.87 3 1.1 7.23-2.35 8.69-5.79.8-7.44-7.68-4.63-11.36z" fill="#211613"/><path d="m129.4 92.79c4.13-.37 6.68 4.86 5.73 8.42-.66 1.74-1.76 4.39-4.07 3.88-5.75-.48-7.8-10.65-1.66-12.3z" fill="#211613"/><path d="m102.17 127.28c2.61-3.61 6.34-6.3 10.85-6.85-.71 1.12-1.43 2.22-2.14 3.34 10.03 6.77 22.14 10.42 34.2 10.97 6.68.43 13.18-1.37 19.69-2.56-1.72 2.39-3.61 5.02-3.12 8.15.57 7.59 5.03 14.43 10.46 19.54 1.72-.84 3.46-1.64 5.25-2.35-2.72 5.54-8.11 9.55-14.07 10.99-13.95 3.29-29.75-.1-40.12-10.28-9.23-8.59-13.89-20.69-16.92-32.65-1.36.58-2.72 1.15-4.08 1.7m6.98-1.73c.55 9.8 4.97 18.95 11.11 26.47 2.89-.4 5.83-.94 8.73-.41 3.54.6 7.05 2.19 10.68 1.33 5.37-1.16 11.27-1.2 16.1 1.76 4.23 2.11 6.67 6.32 8.63 10.43 2.1-.64 4.11-1.53 6.01-2.63-6.08-7.48-10.69-16.52-10.45-26.39-7.01-.06-14.01 1.12-20.99.03-10.72-.8-20.54-5.51-29.82-10.59m14.02 28.24c.23 3.01 2.9 4.71 5.13 6.29 9.89 6.45 22.39 9.02 33.94 6.23-2.3-8.71-12.33-12.58-20.59-11.26.72 1.4 1.46 2.79 2.18 4.2-5.99-4.18-13.28-6.94-20.66-5.46z" fill="#211613"/><path d="m179.58 228.65c.34 0 1.02-.01 1.37-.02-.02 2.89.22 6.29-2.3 8.3-4.59 3.86-13.28 4.28-16.67-1.3 4.71 1.66 10.28 3.68 14.87.57 2.79-1.44 2.4-4.92 2.73-7.55z" fill="#211613"/><path d="m190.48 312.64c3.08-.78 1.95 2.72 1.37 4.36-.66.03-2 .09-2.66.12.4-1.5.77-3.02 1.29-4.48z" fill="#211613"/><path d="m128.13 121.16c1.76-1.29 4.16-1.29 5.9.03-1.86.78-4.03.69-5.9-.03z" fill="#2d0d0d" opacity=".98"/><path d="m209.19 124.47c1.93-1.76 4.39-2.41 6.97-2.14-1.56 2.28-4.37 4.38-6.97 2.14z" fill="#3b2320" opacity=".89"/><path d="m109.15 125.55c9.28 5.08 19.1 9.79 29.82 10.59 6.98 1.09 13.98-.09 20.99-.03-.24 9.87 4.37 18.91 10.45 26.39-1.9 1.1-3.91 1.99-6.01 2.63-1.96-4.11-4.4-8.32-8.63-10.43-4.83-2.96-10.73-2.92-16.1-1.76-3.63.86-7.14-.73-10.68-1.33-2.9-.53-5.84.01-8.73.41-6.14-7.52-10.56-16.67-11.11-26.47z" fill="#7e3033"/><path d="m123.17 153.79c7.38-1.48 14.67 1.28 20.66 5.46-.72-1.41-1.46-2.8-2.18-4.2 8.26-1.32 18.29 2.55 20.59 11.26-11.55 2.79-24.05.22-33.94-6.23-2.23-1.58-4.9-3.28-5.13-6.29z" fill="#f5b1b1"/><path d="m53.34 212.68.73.87c.34 2.39.51 4.79.62 7.2-.98-1.31-1.7-2.79-2.11-4.37.19-.92.57-2.77.76-3.7z" fill="#d72d2d" opacity=".92"/><path d="m205.25 232.5c5.09-3.45 8.5-8.65 12.96-12.79.2 2.05.89 4.36-.51 6.16-3.02 4.57-7.21 8.24-11.46 11.64-13.85 10.33-30.66 15.47-47.14 19.87-9.86.74-19.71 2.75-29.63 1.65-12.53-.91-24.92-3.59-36.59-8.29-13.43-4.81-26.11-11.92-36.75-21.48-1.85-1.48-2.17-3.9-2.54-6.09 2.18 1.35 4.31 2.78 6.37 4.32l1.04.92c2.72 2.63 5.59 5.12 8.84 7.09 14.33 8.87 30.22 15.54 46.96 18.01 21.19 3.16 43.57 2.4 63.6-5.82 8.45-3.73 17-7.83 23.75-14.28.27-.23.82-.68 1.1-.91z" fill="#dde204"/><path d="m208.02 238.34c3.61-3.32 6.66-7.18 10.25-10.5 1.47 15.29-2.74 31.81-13.85 42.86-10.35 10.53-24.36 16.46-38.22 20.84-10.37 2.89-20.98 5.8-31.85 5.09-.5-1.69-.9-3.51-2.28-4.72-.53 4.99-.31 10.03-.31 15.05-3.33 1.92-6.74 3.98-10.64 4.41-7 .89-14.08.48-21.11.34.69-5.46 1.66-11.14.1-16.52-.93-3-3.49-6.27-6.95-5.93-3.1 1.24-6.08 2.8-9.27 3.81-.14-1.67-1-3.48-.3-5.11 2.18-2.68 5.94-3.72 7.73-6.75.36-3.24-1.69-6.11-3.6-8.52-3.29-3.8-7.3-7.37-12.26-8.7-3.92-1.02-7.86.42-11.57 1.59-6.48-10.71-10.97-23.19-10.15-35.85 5.1 3.07 9.22 7.52 14.53 10.27 7.01 3.62 13.56 8.2 21.01 10.94 17.44 7.09 36.48 9.96 55.25 9.04 1.6 4.31 3.19 9 6.98 11.91 2.71 2.23 6.98 3.05 9.98.93 2.26-2.66 3.47-6.19 6.5-8.18.26 3.07.12 6.19.67 9.23.82 1.53 2.58 2.19 4.12 2.76 3.09 1.3 6.45.97 9.58.06 6.15-1.66 13.15-3.58 16.92-9.12 2.92-6.01-4.05-10.09-5.32-15.47 3.24.83 6.12 2.55 9.15 3.9 3.07-.4 4.31-3.86 5.18-6.41 1.04-2.8.62-5.79.1-8.65-.09-.65-.28-1.95-.37-2.6z" fill="#dadf05"/><path d="m197.02 280.27c3.07-2.1 5.77-4.69 8.94-6.67-.4 1.24.15 2.49.61 3.63 1.4 4.34 2.47 8.77 3.89 13.1-6.92 8.25-17.34 12.79-27.76 14.61-5.99 1.09-12.63.99-17.98-2.22-2.81-1.5-2.84-6.4.39-7.37 10.89-4.43 22-8.63 31.91-15.08z" fill="#dadf05"/><path d="m205.92 239.93c.71-.51 1.42-1.04 2.1-1.59.09.65.28 1.95.37 2.6.02 2.88-.01 5.77-.1 8.65-.87 2.55-2.11 6.01-5.18 6.41-3.03-1.35-5.91-3.07-9.15-3.9 1.27 5.38 8.24 9.46 5.32 15.47-3.77 5.54-10.77 7.46-16.92 9.12-3.19.05-6.39.03-9.58-.06-1.54-.57-3.3-1.23-4.12-2.76-.55-3.04-.41-6.16-.67-9.23-3.03 1.99-4.24 5.52-6.5 8.18-3 2.12-7.27 1.3-9.98-.93-3.79-2.91-5.38-7.6-6.98-11.91.6-.07 1.79-.21 2.39-.28.69 4.88 3.13 9.87 7.78 12.07 2.54 1.26 6.22.39 7.13-2.53 1.56-2.45 2.02-7.41 5.99-6.58 5.8 1.51-.06 10.91 6.03 12.05 5.96 1.36 12.22-.4 17.62-2.96 3.4-1.61 7.05-4.87 6.23-9.02-1.31-3.19-4.19-5.42-5.57-8.58-.45-2.09 1.52-3.41 2.67-4.82 2.88 1.74 5.66 3.86 8.97 4.72 3.96-3.46 2.17-9.52 2.15-14.12z" fill="#7873bd" opacity=".91"/><path d="m159.1 257.38c16.74-2 32.14-9.56 46.82-17.45.02 4.6 1.81 10.66-2.15 14.12-3.31-.86-6.09-2.98-8.97-4.72-1.15 1.41-3.12 2.73-2.67 4.82 1.38 3.16 4.26 5.39 5.57 8.58.82 4.15-2.83 7.41-6.23 9.02-5.4 2.56-11.66 4.32-17.62 2.96-6.09-1.14-.23-10.54-6.03-12.05-3.97-.83-4.43 4.13-5.99 6.58-.91 2.92-4.59 3.79-7.13 2.53-4.65-2.2-7.09-7.19-7.78-12.07 4.09-.59 8.14-1.47 12.18-2.32z" fill="#b996c4"/><path d="m67.28 265.89c3.31.03 6.74-.45 9.96.54 3.54 1.39 6.45 4 9 6.76 1.85 2.14 3.88 4.91 2.97 7.91-2.08 2.18-4.85 3.52-6.98 5.64-1.36 2.84-.74 7.54 2.91 8.2 2.8-.82 5.28-2.49 8.12-3.21 2.26-.69 3.97 1.73 4.87 3.48 1.72 5.3.61 10.98-.11 16.36-6.07-.57-12.16-1.82-17.71-4.42-2.26-1.04-4.6-3.05-4.07-5.82.81-5.43 1.13-11.26 4.04-16.05-5.35-5.21-11.13-10.19-14.7-16.88.56-.84 1.13-1.67 1.7-2.51z" fill="#b996c4"/><path d="m208.39 240.94c.52 2.86.94 5.85-.1 8.65.09-2.88.12-5.77.1-8.65z" fill="#a0a529" opacity=".84"/><path d="m63.89 265.58c3.71-1.17 7.65-2.61 11.57-1.59 4.96 1.33 8.97 4.9 12.26 8.7 1.91 2.41 3.96 5.28 3.6 8.52-1.79 3.03-5.55 4.07-7.73 6.75-.7 1.63.16 3.44.3 5.11 3.19-1.01 6.17-2.57 9.27-3.81 3.46-.34 6.02 2.93 6.95 5.93 1.56 5.38.59 11.06-.1 16.52-.5-.04-1.49-.1-1.99-.14.72-5.38 1.83-11.06.11-16.36-.9-1.75-2.61-4.17-4.87-3.48-2.84.72-5.32 2.39-8.12 3.21-3.65-.66-4.27-5.36-2.91-8.2 2.13-2.12 4.9-3.46 6.98-5.64.91-3-1.12-5.77-2.97-7.91-2.55-2.76-5.46-5.37-9-6.76-3.22-.99-6.65-.51-9.96-.54-.57.84-1.14 1.67-1.7 2.51-.57-.94-1.13-1.88-1.69-2.82z" fill="#736caf" opacity=".85"/><path d="m205.96 273.6c1.75-.11 1.97 2.92.61 3.63-.46-1.14-1.01-2.39-.61-3.63z" fill="#747704" opacity=".82"/><path d="m172.78 276.63c3.19.09 6.39.11 9.58.06-3.13.91-6.49 1.24-9.58-.06z" fill="#929944" opacity=".85"/><path d="m200.43 301.85c1.17-.56 2.31-1.19 3.43-1.85.04 5.66-2.12 10.98-4.06 16.2-2.45 5.89-6.43 11.86-12.72 14.05-2.66.07-5.33-.02-7.99-.06-3.13-2.54-6.1-5.4-7.93-9.04-1.57-4.6-2.55-9.38-3.53-14.13 1.04.19 2.1.34 3.16.47.76 7.04 3.08 14.72 9 19.12 3.16 2.49 7.64 1.37 10.42-1.14 4.3-3.78 6.3-9.34 8.54-14.44 1.31-2.88 2.02-6.02 1.68-9.18z" fill="#e61919"/><path d="m83.95 310.23c1.25.54 2.51 1.08 3.79 1.57-1.56 5.26.6 10.54 2.37 15.45 1.89 4.66 4.42 9.8 9.31 11.88 4.74 1.85 9.58-1.4 12.33-5.1 4.34-5.95 7.05-12.91 9.46-19.83 1.29-.23 2.58-.5 3.86-.82-1.17 2.34-2.37 4.67-3.39 7.09-.72 1.67-1.41 3.35-2.12 5.03-.56 1.25-1.16 2.49-1.78 3.72-1.53 2.77-3.23 5.44-5.12 7.98-1.12 1.1-2.3 2.13-3.53 3.11-3.58 1.36-7.46 1.81-11.27 1.39-3.77-1.62-6.36-5.06-8.35-8.52-3.03-7.28-4.84-15.11-5.56-22.95z" fill="#e51919"/><path d="m119.56 325.5c.71-1.68 1.4-3.36 2.12-5.03.27.27.83.83 1.1 1.1 5.07.77 10.13-1.39 15.25-1.34 11.04-.2 22.16-.72 33.13.92 1.83 3.64 4.8 6.5 7.93 9.04-3.86 3.72-8.13 7.19-13.26 9-14.27 5.27-29.7 6.23-44.78 6.17-7.92.25-15.39-2.81-23.19-3.66 3.81.42 7.69-.03 11.27-1.39 9.37 2.93 19.29 2.36 28.96 1.95 9.32-.79 18.85-2.3 27.23-6.66 2.76-1.31 4.48-3.9 6.17-6.31-1.75-1.74-3.46-3.81-6.01-4.32-8.59-2.21-17.59-1.85-26.38-1.44-6.57.17-12.94 2.5-19.54 1.97z" fill="#0d0809" opacity=".18"/><path d="m119.56 325.5c6.6.53 12.97-1.8 19.54-1.97 8.79-.41 17.79-.77 26.38 1.44 2.55.51 4.26 2.58 6.01 4.32-1.69 2.41-3.41 5-6.17 6.31-8.38 4.36-17.91 5.87-27.23 6.66-9.67.41-19.59.98-28.96-1.95 1.23-.98 2.41-2.01 3.53-3.11 3.9 1.75 8.08 2.96 12.38 3.05 11.16.47 22.7-.42 33.06-4.88 2.08-1.05 4.95-2.3 5.01-5.02.16-2.02-2.21-2.72-3.7-3.27-7.32-1.96-15.03-1.88-22.5-1.08-6.46.62-12.67 2.65-19.13 3.22.62-1.23 1.22-2.47 1.78-3.72z" fill="#150f10" opacity=".3"/><path d="m136.91 326c7.47-.8 15.18-.88 22.5 1.08 1.49.55 3.86 1.25 3.7 3.27-.06 2.72-2.93 3.97-5.01 5.02-10.36 4.46-21.9 5.35-33.06 4.88-4.3-.09-8.48-1.3-12.38-3.05 1.89-2.54 3.59-5.21 5.12-7.98 6.46-.57 12.67-2.6 19.13-3.22m-8.4 3.91c-2.99 1.14-7.48 2.2-7.48 6.16 9.59 3.39 20.26 2.37 29.66-1.15 1.97-.65 3.37-2.2 4.77-3.63-1.32-1.18-2.7-2.47-4.56-2.62-7.42-1.33-15.12-.61-22.39 1.24z" fill="#1c1516" opacity=".42"/><path d="m128.51 329.91c7.27-1.85 14.97-2.57 22.39-1.24 1.86.15 3.24 1.44 4.56 2.62-1.4 1.43-2.8 2.98-4.77 3.63-9.4 3.52-20.07 4.54-29.66 1.15 0-3.96 4.49-5.02 7.48-6.16z" fill="#251c1d" opacity=".55"/><path d="m165.83 339.19c5.13-1.81 9.4-5.28 13.26-9 2.66.04 5.33.13 7.99.06-1.5 4.37-5.8 6.53-9.67 8.44-14.4 6.9-30.57 8.77-46.33 9.68-11.47-.35-23.13.98-34.42-1.66-4.28-1.04-8.88-2.97-10.71-7.3 1.19-2.07 2.37-4.16 3.56-6.23 1.99 3.46 4.58 6.9 8.35 8.52 7.8.85 15.27 3.91 23.19 3.66 15.08.06 30.51-.9 44.78-6.17z" fill="#050303" opacity=".07"/></svg>