<svg height="321pt" viewBox="0 0 219 321" width="219pt" xmlns="http://www.w3.org/2000/svg"><path d="m58.59 0h7.76c9.34 1.95 18.11 7.45 22.61 16.06 7.23 13.04 2.86 31.12-9.79 39.14-7.53 5.41-17.29 5.78-26.07 3.93-3.69 6.49-10.78 10.87-12.5 18.44-.91 3.67-.91 7.53-.37 11.25 1.21 7.53 6.67 13.55 7.79 21.11 1.36 8.52.07 17.17-.83 25.67 3.14 1.64 6.13 3.53 8.97 5.63-1.08-15.06 2.11-30.7 10.9-43.17 11.58-17.12 31.76-27.01 52.04-28.76 38.47-3.19 77.69 19.89 93.4 55.18 3.41 7.33 5.08 15.28 6.5 23.19v12.69c-3.34 26.74-22.16 50.13-46.45 61.13-4.07 1.43-5.55 5.86-8.99 8.16 3.52 4.37 6.7 9.21 7.97 14.75.99 3.17.75 7.24 4 9.11 3.73 2.67 6.73 6.72 6.66 11.49.65 6.37-3.45 12.74-9.52 14.77-5.15 2.14-11.31.62-15.32-3.12-2.46-2.38-3.62-5.69-4.94-8.77-3.46 9.65-9.49 18.78-18.5 24.03-6.1 3.83-13.25 5.44-20.31 6.35-.06 1.89-.11 3.78-.15 5.67 3.24 1.82 7.5 3.88 7.57 8.18.55 3.91-2.45 6.93-5.44 8.89h-5.11c-3.14-1.84-6.12-4.95-5.52-8.9-.13-3.63 3.32-5.51 5.85-7.35 2.26-1.37.81-4.49 1.16-6.65-7.1-.16-14.42.51-21.25-1.86-16.55-5.18-30.17-16.66-41.99-28.96-7.47-7.22-13.83-15.46-20.67-23.26-5.38 3.28-12.12 5.83-18.3 3.18-5.83-2.62-8.22-9.05-9.75-14.8v-10.69c1.69-7 3.64-14.06 7.44-20.26 4.72-8.05 11.72-15.61 21.09-17.91 6.09-1.69 12.92 1.59 15.74 7.17 4.11 7.02 2.67 15.42 2.53 23.14 2.01.38 4.02.77 6.04 1.14 3.03-5.6 6.71-10.81 10.19-16.13-6.99-9.24-13.38-19.2-16.45-30.49-4.4-.27-8.94-.76-12.7-3.28-2.59-1.9-5.95-1.14-8.82-2.19-2.69-1.76-4.4-4.59-6.52-6.93-4.3 1.15-6.22 5.36-8.95 8.43.98-4.32 4.08-9.77 9.17-9.37 2.88 1.36 4.21 4.66 6.78 6.5 1.42.45 2.91.63 4.38.89-3.29-6.06-4.72-13.98-.44-19.94 3.42-5.59 10.22-7.12 16.29-7.55 1.21-7.55 1.66-15.23 1.12-22.87-.42-5.56-3.26-10.45-5.6-15.38-3.35-6.96-3.95-15.31-1.07-22.54 2.36-6.13 8.65-9.58 11.11-15.68-6.57-3.32-12.76-8.01-15.87-14.88-5.67-10.93-3.52-25.23 5.14-33.98 4.66-5.24 11.3-8.02 17.99-9.6m-3.24 2.39c-12.21 3.01-21.9 14.87-21.51 27.6-.59 13.43 9.88 26.04 23.05 28.37 11 2.47 23.15-2.78 29.32-12.14 5.39-7.82 6.42-18.39 2.65-27.11-5.14-12.81-20.16-20.31-33.51-16.72m12.3 97.27c-8.22 12.4-11.97 28.12-9.17 42.79.78-6.32 1.68-12.65 3.26-18.83 2.97-11.89 7.65-24.41 17.74-32.08 11.1-7.83 25.44-8.55 38.53-7.22 3.84-6.75 10.34-12.04 18.22-13.02-25.57-3.92-54.08 6.29-68.58 28.36m74.35-27.85c2.39 2.01 5.29 3.94 6.08 7.17 1.13 3.08.26 6.34-.19 9.45 3.51-3.18 7.21-6.54 11.96-7.66 2.81-.93 5.73-.17 8.57.11-8.21-4.48-17.27-7.3-26.42-9.07m-24.14 23.15c.34 3.29 2.92 5.6 5.65 7.11 2.53-3.38 6.77-6.28 11.14-4.74 1.56.3 3.47 2.22 4.85.52 4.41-4 8.06-9.68 7.61-15.86.13-4.19-3.2-8.06-7.23-8.93-11.83-1.74-23.68 10.08-22.02 21.9m30.74-5.08c2.04-.33 4.55-1.72 6.17.32 3.13 3.55-.72 8.9-4.45 10.16-2.45 1.22-4.34-1.22-6.05-2.57-1.21 4.95-2.05 10.52.85 15.08 2.56 4.7 8.86 5.82 13.51 3.8 9.2-3.82 15.6-13.73 15.38-23.68-.09-5.4-4.14-11.35-10-11.16-6.21-.4-11.36 3.86-15.41 8.05m21.25-8.23c2.32 2.72 5.03 5.56 5.27 9.34 1.11 6.8-1.65 13.36-5.26 18.96 5.89 5.13 11.75 10.44 16.39 16.77 6.54 8.75 10.37 19.95 8.32 30.9-3.01 15.96-13.29 29.22-23.96 40.95-5.43 6.19-11.96 11.25-17.72 17.1 4.54 2.17 8.94 4.6 13.35 7.01 22.71-8.44 41.71-27.33 48.82-50.67 4.87-15.75 2.62-33.07-4.24-47.89-8.43-18.18-23.19-33.3-40.97-42.47m-70.85 4.14c-6.71 1.07-13.54 2.97-19.03 7.14-3.95 2.86-6.79 6.9-9.34 10.99 3.29-1.95 7.13-3.85 11.04-2.59 2.55.88 5.73 1.83 6.74 4.62-3.38-1.39-6.56-3.92-10.42-3.42-8.17.65-13.6 10.46-10.28 17.82 1.66 3.58 5.2 5.89 8.87 7.05 14.01 4.33 28.27 7.77 42.5 11.28 3.03-7.68 5.85-15.43 8.76-23.15-4.47-2.24-6.04-7.54-4.9-12.18-6.74-2.82-8.26-11.18-5.6-17.38-6.02-1.28-12.29-1.27-18.34-.18m49.51 7.15c-1.12.4-1.69 2.4-.3 2.85 2.03.41 2.75-3.7.3-2.85m-5.32 3.61c.73-.38.73-.38 0 0m-3.89 3.16c.81 1.31 1.61 2.63 2.42 3.94.4-2.38.98-4.74 1.47-7.1-1.31 1.03-2.59 2.11-3.89 3.16m-10.84-.36c-5.99 2.81-5.94 12.34.19 14.92 5.94 3.38 13.81-3.12 11.72-9.57-1.06-5.13-7.39-7.73-11.91-5.35m.68 16.79c-2.78 7.61-5.74 15.15-8.51 22.76 19.48 4.79 39.17 8.87 58.23 15.24-4.5 12.51-10.64 24.98-20.91 33.75-8.01 7.08-19.04 11.06-29.73 9.64-14.9-1.79-27.78-11.47-36.44-23.33-9.95-13.23-14.93-29.48-16.79-45.76-5.03-1.88-9.06-6.17-9.82-11.6-2.98 8.93-4.46 18.28-5.56 27.61-.3 2.38-.87 4.82-.27 7.21 2.27 10.94 6.29 21.52 11.83 31.23 2.81.14 5.52.87 8.19 1.73 25.12 7.37 49.05 18.24 72.26 30.24 13.69-12.46 27.53-25.5 36.18-42.14 4.56-8.93 7.56-19.39 4.92-29.36-3.42-13.45-13.48-24.02-24.12-32.33-4.46 5.39-11.89 9.78-19 7.34-4.05-1.25-6.21-5.11-7.64-8.81-2.1 4.97-7.44 8.24-12.82 6.58m-52.34 12.85c1.28 16.2 6.79 32.46 16.98 45.25 13.93-10.07 33.93-10.72 48.36-1.34 5.91 3.6 10.26 9.41 12.29 16.01 11.1-8.35 17.92-21.01 22.53-33.83-18.71-6.25-38.06-10.25-57.21-14.84-14.43-3.33-28.76-7.06-42.95-11.25m-37.53 8.22c-5.05 1.31-9.25 5.31-10.63 10.37-2.97 8.66 4.3 18.65 13.35 18.95 9.77 1.02 18.45-9.53 15.27-18.87-1.9-7.67-10.42-12.39-17.99-10.45m19.43 18.8c-1.59 5.31-5.76 9.39-10.86 11.39 2.78 11.14 8.96 21.16 16.06 30.05 2.26-3.13 5.08-5.95 6.85-9.39-.21-4.74-3.26-8.53-5.07-12.73-2.98-6.19-4.95-12.78-6.98-19.32m35.98 19.31c6.18 8.62 15.2 15.25 25.17 18.85 11.01 3.9 23.8 2.38 33.39-4.39-1.48-5.18-4.47-9.94-8.66-13.34-13.89-11.38-35.43-11.54-49.9-1.12m-67.37 9.99c-9.32 3.12-15.85 11.27-20.24 19.71-4.6 9.3-7.22 20.17-4.64 30.43 1.33 5.26 5.13 10.36 10.71 11.42 6.91 1.04 13.29-3.09 18.1-7.61 8.42-8.6 13.63-20.23 14.72-32.2.42-6.56-.67-13.78-5.22-18.82-3.37-3.66-8.85-4.27-13.43-2.93m44.34-.61c-.22 2.91 2.76 3.84 4.88 4.83 5.58 2.32 11.06 4.87 16.58 7.33 2.9 1.47 6.28.79 9.3 1.75 3.1 1.39 4.77 4.74 7.91 6.08 16.13 7.36 32.29 14.66 48.79 21.16 2.56 1.17 5.59 1.96 8.02.02-1.12-1.22-2.27-2.46-3.77-3.21-27.75-14.87-56.32-28.72-86.7-37.34-1.64-.42-3.33-.51-5.01-.62m.47 4.37c-2.92 3.62-5.72 7.34-8.32 11.19 5.69-3.49 12.01-5.66 18.63-6.52-3.34-1.76-6.86-3.14-10.31-4.67m-13.77 19.32c-7.05 9.71-8.53 23.14-3.92 34.19 3 7.42 8.99 13.23 15.97 16.96 1.26-4.8 2.98-9.48 5.4-13.82-9.26-4.12-17.54-13.06-17.08-23.74-.15-5.62 2.88-10.64 6.41-14.76 11.6 5.68 23.36 11.03 34.99 16.64 3.72 2.26 8.3.2 12.21 1.88 6 1.73 10.36 6.79 12.39 12.53 1.97-6.48.97-13.34-.23-19.86-.56-2.43-1.07-5.08-2.81-6.96-4.14-2.03-8.39-3.8-12.56-5.76.27 4.13-.67 8.65-4.24 11.2-5.87 5.15-16.47.98-17.03-6.87-.91-4.7 1.96-9.06 5.82-11.45-3.42-1.37-6.76-3.57-10.61-3.01-9.73-.04-19.07 4.97-24.71 12.83m34.39-7.1c5.01 2.4 9.89 5.1 15.03 7.21-.04-7.26-9.42-12.43-15.03-7.21m-2.17.82c.21.37.63 1.12.84 1.49 5.24 2.8 10.51 5.78 16.14 7.73-1.3-2.15-3.75-2.96-5.86-4.05-3.7-1.74-7.25-3.84-11.12-5.17m-.7 2.58c-2 4.08-.3 9.56 3.81 11.58.79-2.21 1.21-4.52 1.91-6.76 1.09-1.25 2.64.09 3.86.34-.95 2.74-3.14 4.77-4.48 7.31 4.1 1.65 9.24-.14 11.28-4.09-5.11-3.37-10.92-5.61-16.38-8.38m-24.57 4.31c-3.52 4.79-6.39 10.73-5 16.82 1.62 8.53 8.43 14.97 15.96 18.66 5.98-8.41 13.75-16.24 24.04-18.9-11.6-5.65-23.32-11.08-35-16.58m59.09 3.65c2.86 8.81 3.51 18.32 1.7 27.41-.52 5.63.63 11.42-1.1 16.93-3.82 14.62-14.73 28.34-29.75 32.28-8.12 2.41-17.82-.94-22-8.48-3.79-5.87-3.43-13.03-3.19-19.71-8.53-4.68-15.75-12.24-18.29-21.81-2.45-7.56-1.36-15.53.51-23.07-1.97-.31-3.94-.66-5.91-1.02-3.22 10.55-8.59 20.6-17.04 27.89 9.28 11.83 19.4 23.01 30.54 33.12 10.24 8.82 21.85 16.82 35.26 19.73 13.09 2.37 27.56 1.49 39.03-5.81 10.51-6.58 16.31-18.4 19.33-30.04-4.25-5.02-10.39-8.35-13.78-14.05 5.55 3.43 9.86 8.47 14.62 12.88 3.46-5.86 10.34-8.76 17-7.76-.33-8.77-5.11-16.55-10.61-23.03-12.13-5.06-24.33-10.04-36.32-15.46m-20.98 13.83c-13.85 2.3-24.45 13.91-29.45 26.5-3.27 8.48-4.29 18.54.3 26.74 2.64 5.06 8.09 8.36 13.74 8.72 7.63.57 14.9-3 20.65-7.75 9.49-8.11 15.71-20.16 16.17-32.7-.09-6.47-1.99-13.42-7.1-17.74-3.94-3.18-9.31-4.65-14.31-3.77m59.89 26.74c-3.98 1.33-7.26 4.55-8.45 8.61-2.14 5.63.64 12.53 5.78 15.52 4.93 3.07 11.85 2.33 16.1-1.61 3.81-3.68 5.54-9.74 3.28-14.69-2.34-6.56-10.18-10.05-16.71-7.83m-51.94 53.02c-3.68 1-6.4 5.42-4.61 9.04 1.59 5.23 9.91 5.58 12.12.66 2.95-4.72-2.25-11.31-7.51-9.7z" fill="#020202"/><path d="m135.69 83.61c3.12 1.79 5.32 4.81 7.37 7.7-3.41-1.17-6.04-4.43-7.37-7.7z" fill="#020202"/><path d="m131.6 88.8c2.88 1.69 7.39 1.92 8.78 5.26-2.94-1.54-7.55-1.79-8.78-5.26z" fill="#020202"/><path d="m93.59 93.75c4.57 1.31 7.62 5.51 11.51 8.11 3.33 3.23 8.08 5.29 10.27 9.5-4.45-2.2-7.85-6-11.83-8.9-3.32-2.9-7.23-5.18-9.95-8.71z" fill="#020202"/><path d="m88.65 104.06c6.79 3.29 13.63 6.56 20.19 10.29.19.42.56 1.26.74 1.68-6.84-3.31-13.7-6.64-20.32-10.35-.15-.4-.46-1.22-.61-1.62z" fill="#020202"/><path d="m83.49 113.82c6.67 1.56 13.06 4.1 19.61 6.08 2.52.9 5.35 1.29 7.39 3.17-7.14-.7-13.71-4.1-20.62-5.93-2.11-1.02-5.43-.81-6.38-3.32z" fill="#020202"/><path d="m148.24 121.25c9.69 1.26 19.42 2.21 29.12 3.38 1.46.35 3.35.12 4.31 1.55-11.29-.39-22.45-2.52-33.72-3.38.08-.39.22-1.16.29-1.55z" fill="#020202"/><path d="m147.75 127.2c8.73 1.97 17.23 4.85 25.89 7.11 1.81.67 4.34.55 4.94 2.82-10.07-2.71-20.11-5.54-30.09-8.53-.19-.35-.56-1.05-.74-1.4z" fill="#020202"/><path d="m146.75 133.87c6.59 2.54 12.55 6.44 18.91 9.47 2.06 1.3 5.12 1.85 5.84 4.52-6.39-2.95-12.49-6.48-18.79-9.62-2.12-1.24-4.85-1.94-5.96-4.37z" fill="#020202"/><path d="m55.35 2.39c13.35-3.59 28.37 3.91 33.51 16.72 3.77 8.72 2.74 19.29-2.65 27.11-6.17 9.36-18.32 14.61-29.32 12.14-13.17-2.33-23.64-14.94-23.05-28.37-.39-12.73 9.3-24.59 21.51-27.6z" fill="#fff100"/><path d="m92.74 201.29c5.61-5.22 14.99-.05 15.03 7.21-5.14-2.11-10.02-4.81-15.03-7.21z" fill="#fff100"/><path d="m90.57 202.11c3.87 1.33 7.42 3.43 11.12 5.17 2.11 1.09 4.56 1.9 5.86 4.05-5.63-1.95-10.9-4.93-16.14-7.73-.21-.37-.63-1.12-.84-1.49z" fill="#fff100"/><path d="m89.87 204.69c5.46 2.77 11.27 5.01 16.38 8.38-2.04 3.95-7.18 5.74-11.28 4.09 1.34-2.54 3.53-4.57 4.48-7.31-1.22-.25-2.77-1.59-3.86-.34-.7 2.24-1.12 4.55-1.91 6.76-4.11-2.02-5.81-7.5-3.81-11.58z" fill="#fff100"/><path d="m67.65 99.66c14.5-22.07 43.01-32.28 68.58-28.36-7.88.98-14.38 6.27-18.22 13.02-13.09-1.33-27.43-.61-38.53 7.22-10.09 7.67-14.77 20.19-17.74 32.08-1.58 6.18-2.48 12.51-3.26 18.83-2.8-14.67.95-30.39 9.17-42.79z" fill="#00a0e9"/><path d="m142 71.81c9.15 1.77 18.21 4.59 26.42 9.07-2.84-.28-5.76-1.04-8.57-.11-4.75 1.12-8.45 4.48-11.96 7.66.45-3.11 1.32-6.37.19-9.45-.79-3.23-3.69-5.16-6.08-7.17z" fill="#00a0e9"/><path d="m169.85 81.65c17.78 9.17 32.54 24.29 40.97 42.47 6.86 14.82 9.11 32.14 4.24 47.89-7.11 23.34-26.11 42.23-48.82 50.67-4.41-2.41-8.81-4.84-13.35-7.01 5.76-5.85 12.29-10.91 17.72-17.1 10.67-11.73 20.95-24.99 23.96-40.95 2.05-10.95-1.78-22.15-8.32-30.9-4.64-6.33-10.5-11.64-16.39-16.77 3.61-5.6 6.37-12.16 5.26-18.96-.24-3.78-2.95-6.62-5.27-9.34z" fill="#00a0e9"/><path d="m58.7 156.01c2.03 6.54 4 13.13 6.98 19.32 1.81 4.2 4.86 7.99 5.07 12.73-1.77 3.44-4.59 6.26-6.85 9.39-7.1-8.89-13.28-18.91-16.06-30.05 5.1-2 9.27-6.08 10.86-11.39z" fill="#00a0e9"/><path d="m72.12 189.07c3.45 1.53 6.97 2.91 10.31 4.67-6.62.86-12.94 3.03-18.63 6.52 2.6-3.85 5.4-7.57 8.32-11.19z" fill="#00a0e9"/><path d="m124.39 212.65c11.99 5.42 24.19 10.4 36.32 15.46 5.5 6.48 10.28 14.26 10.61 23.03-6.66-1-13.54 1.9-17 7.76-4.76-4.41-9.07-9.45-14.62-12.88 3.39 5.7 9.53 9.03 13.78 14.05-3.02 11.64-8.82 23.46-19.33 30.04-11.47 7.3-25.94 8.18-39.03 5.81-13.41-2.91-25.02-10.91-35.26-19.73-11.14-10.11-21.26-21.29-30.54-33.12 8.45-7.29 13.82-17.34 17.04-27.89 1.97.36 3.94.71 5.91 1.02-1.87 7.54-2.96 15.51-.51 23.07 2.54 9.57 9.76 17.13 18.29 21.81-.24 6.68-.6 13.84 3.19 19.71 4.18 7.54 13.88 10.89 22 8.48 15.02-3.94 25.93-17.66 29.75-32.28 1.73-5.51.58-11.3 1.1-16.93 1.81-9.09 1.16-18.6-1.7-27.41z" fill="#00a0e9"/><g fill="#fff"><path d="m117.86 94.96c-1.66-11.82 10.19-23.64 22.02-21.9 4.03.87 7.36 4.74 7.23 8.93.45 6.18-3.2 11.86-7.61 15.86-1.38 1.7-3.29-.22-4.85-.52-4.37-1.54-8.61 1.36-11.14 4.74-2.73-1.51-5.31-3.82-5.65-7.11m17.83-11.35c1.33 3.27 3.96 6.53 7.37 7.7-2.05-2.89-4.25-5.91-7.37-7.7m-4.09 5.19c1.23 3.47 5.84 3.72 8.78 5.26-1.39-3.34-5.9-3.57-8.78-5.26z"/><path d="m148.6 89.88c4.05-4.19 9.2-8.45 15.41-8.05 5.86-.19 9.91 5.76 10 11.16.22 9.95-6.18 19.86-15.38 23.68-4.65 2.02-10.95.9-13.51-3.8-2.9-4.56-2.06-10.13-.85-15.08 1.71 1.35 3.6 3.79 6.05 2.57 3.73-1.26 7.58-6.61 4.45-10.16-1.62-2.04-4.13-.65-6.17-.32z"/><path d="m99 85.79c6.05-1.09 12.32-1.1 18.34.18-2.66 6.2-1.14 14.56 5.6 17.38-1.14 4.64.43 9.94 4.9 12.18-2.91 7.72-5.73 15.47-8.76 23.15-14.23-3.51-28.49-6.95-42.5-11.28-3.67-1.16-7.21-3.47-8.87-7.05-3.32-7.36 2.11-17.17 10.28-17.82 3.86-.5 7.04 2.03 10.42 3.42-1.01-2.79-4.19-3.74-6.74-4.62-3.91-1.26-7.75.64-11.04 2.59 2.55-4.09 5.39-8.13 9.34-10.99 5.49-4.17 12.32-6.07 19.03-7.14m-5.41 7.96c2.72 3.53 6.63 5.81 9.95 8.71 3.98 2.9 7.38 6.7 11.83 8.9-2.19-4.21-6.94-6.27-10.27-9.5-3.89-2.6-6.94-6.8-11.51-8.11m-4.94 10.31c.15.4.46 1.22.61 1.62 6.62 3.71 13.48 7.04 20.32 10.35-.18-.42-.55-1.26-.74-1.68-6.56-3.73-13.4-7-20.19-10.29m-5.16 9.76c.95 2.51 4.27 2.3 6.38 3.32 6.91 1.83 13.48 5.23 20.62 5.93-2.04-1.88-4.87-2.27-7.39-3.17-6.55-1.98-12.94-4.52-19.61-6.08z"/><path d="m148.51 92.94c2.45-.85 1.73 3.26-.3 2.85-1.39-.45-.82-2.45.3-2.85z"/><path d="m143.19 96.55c.73-.38.73-.38 0 0z"/><path d="m139.3 99.71c1.3-1.05 2.58-2.13 3.89-3.16-.49 2.36-1.07 4.72-1.47 7.1-.81-1.31-1.61-2.63-2.42-3.94z"/><path d="m130.29 100.82c1.86-.23 4.54.63 3.68 3.02-1.14 2.44-4.12 1.33-4.99-.7.33-.58.98-1.74 1.31-2.32z"/><path d="m129.14 116.14c5.38 1.66 10.72-1.61 12.82-6.58 1.43 3.7 3.59 7.56 7.64 8.81 7.11 2.44 14.54-1.95 19-7.34 10.64 8.31 20.7 18.88 24.12 32.33 2.64 9.97-.36 20.43-4.92 29.36-8.65 16.64-22.49 29.68-36.18 42.14-23.21-12-47.14-22.87-72.26-30.24-2.67-.86-5.38-1.59-8.19-1.73-5.54-9.71-9.56-20.29-11.83-31.23-.6-2.39-.03-4.83.27-7.21 1.1-9.33 2.58-18.68 5.56-27.61.76 5.43 4.79 9.72 9.82 11.6 1.86 16.28 6.84 32.53 16.79 45.76 8.66 11.86 21.54 21.54 36.44 23.33 10.69 1.42 21.72-2.56 29.73-9.64 10.27-8.77 16.41-21.24 20.91-33.75-19.06-6.37-38.75-10.45-58.23-15.24 2.77-7.61 5.73-15.15 8.51-22.76m19.1 5.11c-.07.39-.21 1.16-.29 1.55 11.27.86 22.43 2.99 33.72 3.38-.96-1.43-2.85-1.2-4.31-1.55-9.7-1.17-19.43-2.12-29.12-3.38m-.49 5.95c.18.35.55 1.05.74 1.4 9.98 2.99 20.02 5.82 30.09 8.53-.6-2.27-3.13-2.15-4.94-2.82-8.66-2.26-17.16-5.14-25.89-7.11m-1 6.67c1.11 2.43 3.84 3.13 5.96 4.37 6.3 3.14 12.4 6.67 18.79 9.62-.72-2.67-3.78-3.22-5.84-4.52-6.36-3.03-12.32-6.93-18.91-9.47z"/><path d="m39.27 137.21c7.57-1.94 16.09 2.78 17.99 10.45 3.18 9.34-5.5 19.89-15.27 18.87-9.05-.3-16.32-10.29-13.35-18.95 1.38-5.06 5.58-9.06 10.63-10.37z"/><path d="m27.31 185.31c4.58-1.34 10.06-.73 13.43 2.93 4.55 5.04 5.64 12.26 5.22 18.82-1.09 11.97-6.3 23.6-14.72 32.2-4.81 4.52-11.19 8.65-18.1 7.61-5.58-1.06-9.38-6.16-10.71-11.42-2.58-10.26.04-21.13 4.64-30.43 4.39-8.44 10.92-16.59 20.24-19.71z"/><path d="m58.35 208.39c5.64-7.86 14.98-12.87 24.71-12.83 3.85-.56 7.19 1.64 10.61 3.01-3.86 2.39-6.73 6.75-5.82 11.45.56 7.85 11.16 12.02 17.03 6.87 3.57-2.55 4.51-7.07 4.24-11.2 4.17 1.96 8.42 3.73 12.56 5.76 1.74 1.88 2.25 4.53 2.81 6.96 1.2 6.52 2.2 13.38.23 19.86-2.03-5.74-6.39-10.8-12.39-12.53-3.91-1.68-8.49.38-12.21-1.88-11.63-5.61-23.39-10.96-34.99-16.64-3.53 4.12-6.56 9.14-6.41 14.76-.46 10.68 7.82 19.62 17.08 23.74-2.42 4.34-4.14 9.02-5.4 13.82-6.98-3.73-12.97-9.54-15.97-16.96-4.61-11.05-3.13-24.48 3.92-34.19z"/><path d="m65.3 209c11.68 5.5 23.4 10.93 35 16.58-10.29 2.66-18.06 10.49-24.04 18.9-7.53-3.69-14.34-10.13-15.96-18.66-1.39-6.09 1.48-12.03 5-16.82z"/><path d="m103.41 226.48c5-.88 10.37.59 14.31 3.77 5.11 4.32 7.01 11.27 7.1 17.74-.46 12.54-6.68 24.59-16.17 32.7-5.75 4.75-13.02 8.32-20.65 7.75-5.65-.36-11.1-3.66-13.74-8.72-4.59-8.2-3.57-18.26-.3-26.74 5-12.59 15.6-24.2 29.45-26.5z"/><path d="m163.3 253.22c6.53-2.22 14.37 1.27 16.71 7.83 2.26 4.95.53 11.01-3.28 14.69-4.25 3.94-11.17 4.68-16.1 1.61-5.14-2.99-7.92-9.89-5.78-15.52 1.19-4.06 4.47-7.28 8.45-8.61z"/></g><path d="m128.46 99.35c4.52-2.38 10.85.22 11.91 5.35 2.09 6.45-5.78 12.95-11.72 9.57-6.13-2.58-6.18-12.11-.19-14.92m1.83 1.47c-.33.58-.98 1.74-1.31 2.32.87 2.03 3.85 3.14 4.99.7.86-2.39-1.82-3.25-3.68-3.02z" fill="#e60012"/><path d="m76.8 128.99c14.19 4.19 28.52 7.92 42.95 11.25 19.15 4.59 38.5 8.59 57.21 14.84-4.61 12.82-11.43 25.48-22.53 33.83-2.03-6.6-6.38-12.41-12.29-16.01-14.43-9.38-34.43-8.73-48.36 1.34-10.19-12.79-15.7-29.05-16.98-45.25z" fill="#e60012"/><path d="m71.65 184.7c1.68.11 3.37.2 5.01.62 30.38 8.62 58.95 22.47 86.7 37.34 1.5.75 2.65 1.99 3.77 3.21-2.43 1.94-5.46 1.15-8.02-.02-16.5-6.5-32.66-13.8-48.79-21.16-3.14-1.34-4.81-4.69-7.91-6.08-3.02-.96-6.4-.28-9.3-1.75-5.52-2.46-11-5.01-16.58-7.33-2.12-.99-5.1-1.92-4.88-4.83z" fill="#e60012"/><path d="m111.36 306.24c5.26-1.61 10.46 4.98 7.51 9.7-2.21 4.92-10.53 4.57-12.12-.66-1.79-3.62.93-8.04 4.61-9.04z" fill="#e60012"/><path d="m94.68 175.32c14.47-10.42 36.01-10.26 49.9 1.12 4.19 3.4 7.18 8.16 8.66 13.34-9.59 6.77-22.38 8.29-33.39 4.39-9.97-3.6-18.99-10.23-25.17-18.85z" fill="#f08200"/></svg>