<?xml version="1.0" encoding="UTF-8" ?>
<!DOCTYPE svg PUBLIC "-//W3C//DTD SVG 1.1//EN" "http://www.w3.org/Graphics/SVG/1.1/DTD/svg11.dtd">
<svg width="240pt" height="321pt" viewBox="0 0 240 321" version="1.1" xmlns="http://www.w3.org/2000/svg">
<g id="#000000ff">
<path fill="#000000" opacity="1.00" d=" M 0.00 0.00 L 0.25 0.00 C 0.19 0.07 0.06 0.22 0.00 0.29 L 0.00 0.00 Z" />
<path fill="#000000" opacity="1.00" d=" M 130.02 0.00 L 142.62 0.00 C 145.35 1.20 148.76 1.05 151.04 3.14 C 140.52 -0.45 129.09 0.75 118.52 3.44 C 117.86 4.41 117.18 5.37 116.50 6.33 C 117.66 6.35 119.98 6.39 121.15 6.41 C 119.10 6.68 117.04 6.81 114.98 6.96 C 114.37 7.95 113.75 8.94 113.13 9.93 C 113.69 10.09 114.80 10.40 115.35 10.56 C 113.72 10.59 112.00 10.58 110.62 11.58 C 109.25 10.73 107.59 10.66 106.05 10.38 C 109.05 10.53 112.58 10.93 114.30 7.87 C 114.05 7.51 113.56 6.78 113.32 6.42 C 114.11 6.28 115.70 5.99 116.50 5.84 C 116.34 5.23 116.03 4.02 115.88 3.41 C 111.99 4.95 108.00 6.25 103.92 7.16 C 108.44 4.27 113.98 3.53 119.10 2.21 C 122.68 1.18 126.65 1.68 130.02 0.00 Z" />
<path fill="#000000" opacity="1.00" d=" M 151.04 3.14 L 151.77 2.79 C 152.09 3.08 152.72 3.66 153.03 3.95 C 152.53 3.75 151.54 3.34 151.04 3.14 Z" />
<path fill="#000000" opacity="1.00" d=" M 155.14 5.09 C 155.30 5.27 155.62 5.64 155.78 5.83 C 155.62 5.64 155.30 5.27 155.14 5.09 Z" />
<path fill="#000000" opacity="1.00" d=" M 101.87 7.80 C 102.20 7.54 102.85 7.03 103.18 6.77 L 103.92 7.16 C 103.40 7.32 102.38 7.64 101.87 7.80 Z" />
<path fill="#000000" opacity="1.00" d=" M 158.90 8.04 C 160.32 7.96 161.01 8.64 160.97 10.08 C 159.63 10.06 158.94 9.38 158.90 8.04 Z" />
<path fill="#000000" opacity="1.00" d=" M 97.16 10.04 C 97.45 9.74 98.04 9.14 98.34 8.85 L 99.15 9.09 C 98.65 9.32 97.65 9.80 97.16 10.04 Z" />
<path fill="#000000" opacity="1.00" d=" M 6.74 9.92 C 18.30 10.97 29.67 13.69 40.64 17.44 C 43.75 18.56 47.00 19.46 49.75 21.36 C 48.13 20.92 46.51 20.47 44.94 19.89 C 33.19 15.41 20.91 12.21 8.40 10.89 C 10.68 14.72 13.69 18.05 16.12 21.79 C 26.76 36.90 36.28 52.78 44.86 69.15 C 45.47 70.42 45.94 71.76 46.42 73.09 C 44.64 72.70 42.86 72.29 41.09 71.87 C 41.04 72.65 40.95 74.21 40.90 74.99 C 39.13 74.99 37.36 75.00 35.58 75.02 C 36.28 75.98 36.98 76.95 37.68 77.92 C 36.28 78.09 34.88 78.25 33.49 78.42 C 33.06 79.22 32.64 80.02 32.22 80.83 C 31.62 80.69 30.43 80.40 29.84 80.26 C 30.11 79.89 30.66 79.17 30.93 78.80 C 22.90 55.83 14.62 32.94 6.74 9.92 M 9.33 14.94 C 16.71 36.19 24.38 57.34 31.68 78.62 C 32.77 77.80 33.97 77.19 35.28 76.79 C 34.92 76.39 34.20 75.59 33.84 75.19 C 35.74 74.07 37.93 73.88 40.09 74.05 C 39.54 73.12 39.10 72.14 38.75 71.12 C 41.01 70.88 43.28 71.03 45.34 72.12 C 36.00 53.82 25.34 36.19 13.36 19.49 C 12.12 17.90 11.26 15.83 9.33 14.94 Z" />
<path fill="#000000" opacity="1.00" d=" M 196.92 19.01 C 208.77 13.89 221.65 11.28 234.45 9.89 C 233.89 12.04 233.20 14.16 232.01 16.05 L 232.04 13.85 C 218.12 31.90 206.33 51.54 195.92 71.80 C 196.41 72.10 197.40 72.71 197.89 73.01 C 197.09 72.97 195.47 72.90 194.66 72.87 C 199.80 61.35 206.45 50.59 212.99 39.83 C 219.29 29.92 225.74 20.07 233.11 10.92 C 222.21 11.87 211.52 14.56 201.20 18.12 C 199.81 18.58 198.35 18.78 196.92 19.01 Z" />
<path fill="#000000" opacity="1.00" d=" M 112.07 15.43 C 114.58 15.65 116.13 13.34 117.94 11.99 C 117.43 12.73 116.42 14.21 115.91 14.95 C 118.52 14.99 121.10 14.66 123.12 12.89 C 122.61 13.59 121.58 14.98 121.07 15.68 C 123.70 15.15 128.00 16.40 128.72 12.80 C 127.27 15.88 130.96 16.33 133.14 16.47 C 134.17 15.67 135.11 14.76 136.08 13.90 C 135.33 15.08 134.58 16.25 133.81 17.41 C 135.33 17.24 136.82 17.40 138.27 17.89 C 136.77 17.83 135.27 17.77 133.78 17.70 C 133.50 17.94 132.94 18.43 132.67 18.67 C 132.64 16.24 129.60 16.43 128.01 15.48 C 127.43 16.36 126.86 17.24 126.28 18.12 C 126.31 17.54 126.36 16.39 126.39 15.81 C 124.43 15.88 122.47 16.03 120.53 16.29 C 119.57 14.39 117.20 15.24 115.50 14.99 C 114.18 15.98 112.85 16.96 111.52 17.93 C 111.80 17.45 112.36 16.49 112.64 16.01 C 110.41 15.93 108.19 15.86 105.96 15.80 C 106.79 14.83 107.52 13.72 108.65 13.08 C 108.56 13.35 108.36 13.90 108.26 14.18 C 108.50 16.05 110.73 15.42 112.07 15.43 Z" />
<path fill="#000000" opacity="1.00" d=" M 163.18 13.17 L 163.58 13.26 L 163.71 13.70 C 163.58 13.57 163.31 13.30 163.18 13.17 Z" />
<path fill="#000000" opacity="1.00" d=" M 163.71 13.70 C 168.35 18.52 169.68 25.60 168.84 32.06 C 169.41 31.91 170.54 31.60 171.10 31.45 C 167.77 33.43 167.62 37.69 165.17 40.38 C 161.90 44.37 156.67 45.80 151.80 46.68 C 134.94 49.88 118.19 53.78 101.21 56.26 L 101.46 55.20 C 117.17 53.03 132.66 49.36 148.25 46.39 C 152.97 45.41 158.05 44.90 162.09 42.02 C 165.61 39.63 167.33 35.47 168.05 31.42 C 168.12 30.85 168.26 29.70 168.33 29.13 C 167.93 29.20 167.12 29.33 166.72 29.40 C 166.41 29.58 165.80 29.93 165.49 30.11 C 163.28 32.26 160.98 34.50 157.93 35.38 C 151.73 37.29 145.30 38.28 138.98 39.70 C 133.34 40.78 127.79 42.39 122.06 42.91 C 133.08 40.19 144.31 38.39 155.33 35.65 C 159.41 34.52 163.96 32.33 165.51 28.11 C 166.15 28.20 167.41 28.39 168.05 28.49 C 168.07 25.54 167.54 22.64 166.94 19.76 C 165.33 19.87 163.72 19.97 162.11 20.07 C 163.15 21.09 164.20 22.11 165.22 23.15 C 163.75 22.28 162.30 21.39 160.85 20.49 C 158.98 21.43 157.10 22.36 155.23 23.29 C 156.41 24.52 157.58 25.76 158.71 27.05 C 157.37 25.92 156.12 24.70 154.90 23.46 C 153.09 24.68 151.19 25.75 149.17 26.57 C 148.30 25.22 147.43 23.88 146.58 22.52 C 147.15 23.16 148.29 24.44 148.87 25.08 C 150.45 24.73 152.08 24.54 153.57 23.81 C 153.32 22.42 152.87 21.07 152.13 19.86 C 153.17 20.82 154.22 21.76 155.30 22.68 C 156.96 21.83 158.61 20.96 160.23 20.04 C 159.61 19.47 158.38 18.32 157.76 17.75 C 158.93 18.44 160.08 19.17 161.23 19.91 C 162.97 19.64 164.71 19.40 166.46 19.20 C 165.51 17.38 164.60 15.55 163.71 13.70 Z" />
<path fill="#000000" opacity="1.00" d=" M 87.02 15.80 C 87.21 15.66 87.59 15.39 87.78 15.25 C 87.59 15.39 87.21 15.66 87.02 15.80 Z" />
<path fill="#000000" opacity="1.00" d=" M 139.67 18.33 C 139.99 17.92 140.63 17.10 140.95 16.68 C 140.76 17.26 140.38 18.42 140.19 19.00 C 142.48 19.83 144.75 20.87 146.58 22.52 C 145.66 23.63 144.78 24.76 143.91 25.91 C 144.38 24.64 144.85 23.36 145.31 22.07 C 143.57 21.14 141.79 20.26 140.00 19.44 C 139.59 19.86 138.77 20.70 138.36 21.12 C 138.79 20.03 138.96 18.91 138.27 17.89 C 138.62 18.00 139.32 18.22 139.67 18.33 Z" />
<path fill="#000000" opacity="1.00" d=" M 145.95 19.86 C 145.68 18.52 146.24 17.98 147.63 18.24 C 147.87 19.62 147.31 20.16 145.95 19.86 Z" />
<path fill="#000000" opacity="1.00" d=" M 81.04 19.60 C 81.26 19.50 81.71 19.30 81.93 19.20 C 81.71 19.30 81.26 19.50 81.04 19.60 Z" />
<path fill="#000000" opacity="1.00" d=" M 195.20 19.23 C 195.63 19.17 196.49 19.06 196.92 19.01 C 196.43 19.26 195.47 19.76 194.99 20.01 L 195.20 19.23 Z" />
<path fill="#000000" opacity="1.00" d=" M 192.51 20.66 C 192.66 20.57 192.97 20.38 193.13 20.28 L 193.01 20.82 L 192.51 20.66 Z" />
<path fill="#000000" opacity="1.00" d=" M 50.93 21.69 C 52.44 21.39 53.41 21.92 53.83 23.27 C 52.46 23.45 51.50 22.92 50.93 21.69 Z" />
<path fill="#000000" opacity="1.00" d=" M 77.04 23.07 C 77.20 22.84 77.54 22.40 77.71 22.17 C 77.54 22.40 77.20 22.84 77.04 23.07 Z" />
<path fill="#000000" opacity="1.00" d=" M 76.08 23.60 C 76.32 23.46 76.80 23.20 77.04 23.07 C 76.80 23.20 76.32 23.46 76.08 23.60 Z" />
<path fill="#000000" opacity="1.00" d=" M 182.89 25.03 C 183.39 24.79 184.38 24.30 184.88 24.06 C 184.59 24.38 184.00 25.02 183.70 25.34 L 182.89 25.03 Z" />
<path fill="#000000" opacity="1.00" d=" M 228.19 25.26 L 229.10 25.11 C 228.86 25.58 228.39 26.51 228.16 26.97 C 228.17 26.54 228.18 25.69 228.19 25.26 Z" />
<path fill="#000000" opacity="1.00" d=" M 72.36 26.87 C 72.48 26.73 72.73 26.43 72.86 26.29 C 72.73 26.43 72.48 26.73 72.36 26.87 Z" />
<path fill="#000000" opacity="1.00" d=" M 61.19 26.44 C 64.03 27.43 66.56 29.09 69.39 30.09 C 65.32 34.83 61.34 39.64 57.86 44.84 C 59.45 48.19 62.32 50.50 65.46 52.33 C 61.71 51.42 59.30 48.41 57.26 45.37 C 56.38 48.04 54.66 51.01 56.01 53.82 C 57.06 56.45 59.85 57.71 62.32 58.67 C 70.79 60.52 79.64 56.31 87.95 58.90 C 79.63 58.55 71.39 60.67 63.08 59.84 C 59.79 59.05 56.47 57.10 55.02 53.91 C 53.79 51.09 55.04 47.96 56.48 45.47 C 59.76 40.24 63.57 35.36 67.68 30.76 C 65.43 29.46 63.12 28.21 61.19 26.44 Z" />
<path fill="#000000" opacity="1.00" d=" M 176.95 28.00 C 177.47 27.76 178.51 27.28 179.03 27.04 L 178.74 27.81 C 178.29 27.86 177.40 27.95 176.95 28.00 Z" />
<path fill="#000000" opacity="1.00" d=" M 69.39 30.09 C 69.47 29.86 69.61 29.41 69.69 29.18 C 69.61 29.41 69.47 29.86 69.39 30.09 Z" />
<path fill="#000000" opacity="1.00" d=" M 171.10 31.45 C 171.26 31.38 171.57 31.26 171.72 31.19 L 171.44 31.33 L 171.10 31.45 Z" />
<path fill="#000000" opacity="1.00" d=" M 113.87 45.59 C 116.60 44.67 119.14 43.17 122.06 42.91 C 117.33 44.19 113.36 47.70 108.23 47.47 C 103.03 46.28 98.12 49.19 92.95 49.39 C 98.03 48.08 103.13 46.42 108.44 46.57 C 108.56 46.55 108.80 46.53 108.92 46.51 C 110.37 46.35 111.79 46.10 113.21 45.78 C 113.37 45.73 113.71 45.63 113.87 45.59 Z" />
<path fill="#000000" opacity="1.00" d=" M 212.06 49.62 C 212.22 49.47 212.52 49.18 212.68 49.03 L 212.37 49.32 L 212.06 49.62 Z" />
<path fill="#000000" opacity="1.00" d=" M 89.86 50.44 C 90.51 49.03 91.54 48.68 92.95 49.39 C 92.15 50.36 91.12 50.71 89.86 50.44 Z" />
<path fill="#000000" opacity="1.00" d=" M 210.66 59.24 C 208.58 56.27 209.04 51.78 212.06 49.62 C 210.19 52.53 209.86 55.93 210.66 59.24 Z" />
<path fill="#000000" opacity="1.00" d=" M 79.57 52.20 C 82.94 51.31 86.36 50.56 89.86 50.44 C 86.12 51.24 82.38 52.10 78.57 52.52 L 79.57 52.20 Z" />
<path fill="#000000" opacity="1.00" d=" M 65.46 52.33 L 65.69 52.31 L 65.97 52.41 C 65.84 52.39 65.58 52.35 65.46 52.33 Z" />
<path fill="#000000" opacity="1.00" d=" M 86.96 57.28 C 91.57 57.54 96.40 54.77 100.81 56.73 C 96.37 56.82 92.05 57.93 87.64 58.24 L 86.96 57.28 Z" />
<path fill="#000000" opacity="1.00" d=" M 210.66 59.24 C 212.45 60.30 214.21 61.42 216.02 62.45 C 214.01 69.07 210.81 75.37 209.63 82.21 C 208.84 80.96 208.19 79.63 207.61 78.27 C 206.41 78.18 205.21 78.09 204.01 78.01 C 204.46 77.01 204.92 76.01 205.37 75.00 C 203.54 75.00 201.72 74.99 199.90 74.98 C 200.30 73.98 200.70 72.98 201.11 71.99 C 200.24 72.03 198.52 72.11 197.66 72.15 L 197.06 71.10 C 198.81 71.07 200.56 71.05 202.32 71.03 C 202.11 71.74 201.68 73.17 201.47 73.88 C 203.43 73.99 205.39 74.27 207.22 75.04 C 206.87 75.47 206.17 76.34 205.81 76.77 C 207.12 77.33 208.42 77.90 209.71 78.48 C 211.15 73.24 213.13 68.17 214.99 63.07 C 213.37 62.01 211.66 60.97 210.66 59.24 Z" />
<path fill="#000000" opacity="1.00" d=" M 48.40 77.36 C 67.17 75.74 85.92 73.93 104.68 72.15 C 104.93 74.94 105.14 77.76 104.80 80.55 C 92.17 81.40 79.60 82.85 66.99 83.94 C 60.69 84.33 54.39 85.55 48.08 85.31 C 48.47 82.74 46.92 79.52 48.40 77.36 Z" />
<path fill="#000000" opacity="1.00" d=" M 129.85 73.16 C 143.20 74.77 156.65 75.46 170.02 76.89 C 175.66 77.06 181.22 78.18 186.88 78.13 C 186.46 80.80 186.10 83.48 185.85 86.17 C 166.84 85.07 147.89 83.00 128.93 81.41 C 129.01 78.64 129.08 75.84 129.85 73.16 Z" />
<path fill="#000000" opacity="1.00" d=" M 29.28 80.80 C 29.42 80.66 29.70 80.39 29.84 80.26 C 29.70 80.39 29.42 80.66 29.28 80.80 Z" />
<path fill="#000000" opacity="1.00" d=" M 209.63 82.21 C 211.26 81.52 212.62 83.01 213.21 84.37 C 211.75 84.27 210.23 83.63 209.63 82.21 Z" />
<path fill="#000000" opacity="1.00" d=" M 213.21 84.37 C 213.35 84.49 213.62 84.75 213.76 84.87 C 213.62 84.75 213.35 84.49 213.21 84.37 Z" />
<path fill="#000000" opacity="1.00" d=" M 213.76 84.87 C 215.39 84.95 216.16 85.77 216.09 87.35 L 214.99 86.86 C 214.74 86.55 214.23 85.93 213.97 85.62 L 213.76 84.87 Z" />
<path fill="#000000" opacity="1.00" d=" M 216.09 87.35 C 216.33 87.52 216.81 87.87 217.05 88.04 C 216.81 87.87 216.33 87.52 216.09 87.35 Z" />
<path fill="#000000" opacity="1.00" d=" M 217.05 88.04 C 217.21 88.20 217.53 88.52 217.69 88.68 C 217.53 88.52 217.21 88.20 217.05 88.04 Z" />
<path fill="#000000" opacity="1.00" d=" M 217.69 88.68 C 219.56 90.12 221.07 91.94 222.38 93.89 C 220.26 92.72 218.90 90.70 217.69 88.68 Z" />
<path fill="#000000" opacity="1.00" d=" M 17.76 92.35 C 18.09 91.84 18.75 90.81 19.08 90.30 L 19.33 91.15 C 18.94 91.45 18.15 92.05 17.76 92.35 Z" />
<path fill="#000000" opacity="1.00" d=" M 17.19 92.71 C 17.33 92.62 17.62 92.44 17.76 92.35 C 17.62 92.44 17.33 92.62 17.19 92.71 Z" />
<path fill="#000000" opacity="1.00" d=" M 222.38 93.89 C 223.78 94.61 225.01 95.72 225.38 97.32 L 225.21 97.68 C 223.29 97.76 221.97 95.66 222.38 93.89 Z" />
<path fill="#000000" opacity="1.00" d=" M 13.16 98.18 C 12.99 96.77 13.59 95.99 14.97 95.86 C 15.13 97.23 14.53 98.01 13.16 98.18 Z" />
<path fill="#000000" opacity="1.00" d=" M 45.81 97.18 C 63.88 101.49 81.89 106.04 99.99 110.24 C 101.14 110.63 102.80 110.65 103.20 112.09 C 100.15 111.73 97.19 110.84 94.22 110.08 C 88.95 116.35 80.21 120.58 72.00 118.17 C 64.62 116.72 58.48 110.93 56.12 103.86 C 55.59 102.73 55.47 101.32 54.48 100.47 C 51.78 99.69 48.95 99.40 46.26 98.58 C 46.14 98.23 45.92 97.53 45.81 97.18 M 56.35 100.90 C 58.23 108.94 64.74 116.04 73.14 117.16 C 80.40 118.68 88.08 115.43 92.79 109.86 C 88.24 108.64 83.64 107.63 79.08 106.48 C 78.16 108.32 76.26 110.00 74.07 109.15 C 72.03 108.72 71.65 106.45 71.70 104.71 C 66.59 103.41 61.44 102.28 56.35 100.90 Z" />
<path fill="#000000" opacity="1.00" d=" M 11.81 100.21 C 12.15 99.70 12.82 98.69 13.16 98.18 C 12.82 98.69 12.15 99.70 11.81 100.21 Z" />
<path fill="#000000" opacity="1.00" d=" M 225.21 97.68 L 225.61 97.90 C 227.42 100.07 229.20 102.37 230.08 105.10 L 229.70 104.86 C 227.96 102.64 226.34 100.29 225.21 97.68 Z" />
<path fill="#000000" opacity="1.00" d=" M 11.37 100.85 C 11.48 100.69 11.70 100.37 11.81 100.21 C 11.70 100.37 11.48 100.69 11.37 100.85 Z" />
<path fill="#000000" opacity="1.00" d=" M 9.38 103.14 C 9.59 101.98 10.26 101.22 11.37 100.85 C 11.26 101.39 11.05 102.46 10.95 103.00 C 10.56 103.04 9.77 103.11 9.38 103.14 Z" />
<path fill="#000000" opacity="1.00" d=" M 43.12 102.10 C 43.44 102.21 44.08 102.43 44.40 102.54 C 46.46 107.74 47.81 113.21 49.96 118.38 C 52.74 117.30 55.38 115.86 58.21 114.90 C 56.67 117.81 52.68 117.77 50.26 119.76 C 51.59 123.56 52.88 127.37 54.15 131.19 C 56.05 130.24 57.93 129.11 60.09 128.89 C 59.01 131.03 55.51 130.70 54.76 132.86 C 55.60 135.73 56.54 138.59 57.70 141.36 C 59.13 140.73 60.59 140.17 62.11 139.83 C 61.41 141.44 59.43 141.65 58.04 142.41 C 58.84 145.41 59.83 148.36 61.03 151.23 C 62.41 150.64 63.81 150.10 65.25 149.67 C 64.39 151.14 62.73 151.75 61.39 152.66 C 61.63 153.41 62.09 154.89 62.32 155.63 C 63.76 156.15 65.57 156.22 66.45 157.69 C 67.55 157.82 68.66 157.92 69.77 158.00 C 70.57 157.16 71.38 156.33 72.19 155.51 C 72.39 155.80 72.78 156.37 72.98 156.66 C 71.51 157.43 70.21 158.60 68.54 158.93 L 68.22 158.85 C 66.03 157.79 63.72 157.00 61.34 156.46 C 64.07 165.19 72.20 170.44 80.14 173.93 C 84.07 175.68 88.14 177.12 92.29 178.27 L 92.33 179.16 C 85.02 177.55 78.13 174.31 71.73 170.46 C 70.58 171.16 69.38 171.79 68.15 172.36 C 69.06 175.34 70.18 178.25 71.08 181.23 C 68.07 179.84 68.62 175.64 67.01 173.06 C 65.96 172.92 64.92 172.77 63.88 172.62 C 64.54 172.30 65.86 171.65 66.52 171.33 C 65.77 169.26 65.11 167.16 64.54 165.04 C 62.01 165.82 59.55 166.82 57.03 167.60 C 57.90 164.89 61.97 165.33 64.01 163.59 C 62.67 161.31 60.84 159.03 60.71 156.29 C 60.59 155.24 61.15 153.74 59.92 153.16 C 58.55 153.69 57.23 154.35 55.88 154.92 C 56.22 152.93 58.51 152.74 59.96 151.87 C 58.88 148.91 57.87 145.92 56.87 142.94 C 54.57 144.12 52.34 145.55 49.78 146.11 C 51.17 143.82 54.14 143.55 56.16 142.03 C 56.09 138.90 54.21 136.00 53.69 132.87 C 51.27 133.49 49.14 134.85 46.86 135.82 C 47.50 133.11 51.08 133.06 53.13 131.76 C 51.79 127.81 50.55 123.82 49.02 119.94 C 46.99 120.95 44.94 121.92 42.84 122.76 C 43.45 120.15 46.95 120.25 48.90 118.93 C 46.82 113.37 44.95 107.74 43.12 102.10 M 67.01 167.34 C 66.45 168.58 67.21 171.26 68.97 170.76 C 71.35 169.87 68.28 167.40 67.01 167.34 Z" />
<path fill="#000000" opacity="1.00" d=" M 230.08 105.10 C 232.02 105.67 232.83 108.07 232.89 109.91 C 230.83 109.57 230.40 107.13 229.89 105.48 L 230.08 105.10 Z" />
<path fill="#000000" opacity="1.00" d=" M 5.45 111.07 C 5.51 109.17 6.50 107.53 7.87 106.28 L 8.22 106.81 C 8.46 108.63 7.28 110.16 6.01 111.30 L 5.45 111.07 Z" />
<path fill="#000000" opacity="1.00" d=" M 131.86 106.75 C 132.67 105.31 134.45 106.41 135.66 106.52 C 153.63 110.88 171.58 115.31 189.57 119.55 C 189.70 119.89 189.95 120.57 190.07 120.91 C 186.83 120.49 183.57 118.63 180.37 119.15 C 175.99 124.02 169.75 127.77 162.98 127.24 C 152.68 127.49 143.75 119.03 141.77 109.21 C 138.45 108.45 135.12 107.75 131.86 106.75 M 142.98 109.60 C 144.86 116.60 149.89 123.05 157.05 125.12 C 164.99 127.80 174.37 124.89 179.48 118.28 C 174.04 117.32 168.77 115.56 163.32 114.61 C 162.94 116.08 161.85 117.08 160.77 118.03 C 157.91 118.45 155.16 115.67 156.16 112.79 C 151.79 111.63 147.39 110.57 142.98 109.60 Z" />
<path fill="#000000" opacity="1.00" d=" M 232.89 109.91 C 234.49 112.02 235.74 114.46 235.99 117.14 C 234.65 114.87 233.36 112.53 232.89 109.91 Z" />
<path fill="#000000" opacity="1.00" d=" M 3.22 116.76 C 3.31 116.55 3.48 116.11 3.57 115.89 L 3.44 116.33 L 3.22 116.76 Z" />
<path fill="#000000" opacity="1.00" d=" M 235.99 117.14 L 236.78 117.26 C 236.86 117.66 237.02 118.47 237.10 118.87 L 236.32 118.76 C 236.23 118.35 236.07 117.54 235.99 117.14 Z" />
<path fill="#000000" opacity="1.00" d=" M 0.00 125.21 L 0.61 124.97 C 0.76 125.78 1.06 127.41 1.21 128.23 L 1.24 129.35 L 0.64 130.04 L 0.00 129.95 L 0.00 125.21 Z" />
<path fill="#000000" opacity="1.00" d=" M 239.52 127.01 L 240.00 127.28 L 240.00 131.61 L 239.21 131.67 L 238.49 131.09 C 238.70 129.69 239.04 128.33 239.52 127.01 Z" />
<path fill="#000000" opacity="1.00" d=" M 108.33 129.36 C 116.23 128.49 125.04 128.36 131.82 133.17 C 134.26 134.68 136.15 137.14 136.58 140.03 C 136.45 142.96 134.91 145.74 132.47 147.37 C 125.35 152.43 116.05 152.98 107.69 151.50 C 102.60 150.16 96.56 147.98 94.57 142.60 C 93.51 140.32 94.59 137.82 95.85 135.88 C 98.63 131.78 103.80 130.46 108.33 129.36 M 100.00 133.10 C 98.10 133.87 95.77 136.37 97.70 138.27 C 99.32 140.61 102.44 140.44 104.95 140.30 C 103.84 142.23 106.27 143.59 107.93 143.29 C 111.40 143.83 114.93 142.72 117.20 140.00 C 117.88 137.87 116.58 136.18 115.06 134.89 C 113.21 134.72 111.19 134.95 109.61 133.77 C 109.22 134.13 108.44 134.85 108.05 135.21 C 106.42 132.35 102.76 132.77 100.00 133.10 Z" />
<path fill="#000000" opacity="1.00" d=" M 10.75 131.17 C 12.03 131.28 13.13 131.97 14.04 132.85 L 13.55 133.20 C 12.79 132.89 11.28 132.28 10.53 131.97 L 10.75 131.17 Z" />
<path fill="#000000" opacity="1.00" d=" M 227.22 133.98 C 227.37 133.84 227.67 133.55 227.82 133.41 L 227.65 133.88 L 227.22 133.98 Z" />
<path fill="#000000" opacity="1.00" d=" M 224.66 135.97 C 225.07 134.65 225.92 133.99 227.22 133.98 C 227.01 135.46 226.16 136.12 224.66 135.97 Z" />
<path fill="#000000" opacity="1.00" d=" M 14.03 138.87 C 14.29 138.70 14.79 138.36 15.05 138.19 C 14.79 138.36 14.29 138.70 14.03 138.87 Z" />
<path fill="#000000" opacity="1.00" d=" M 225.91 140.39 C 226.21 140.85 226.82 141.78 227.13 142.25 C 226.73 141.95 225.93 141.35 225.54 141.04 L 225.91 140.39 Z" />
<path fill="#000000" opacity="1.00" d=" M 227.13 142.25 C 227.38 142.33 227.88 142.49 228.13 142.57 C 227.88 142.49 227.38 142.33 227.13 142.25 Z" />
<path fill="#000000" opacity="1.00" d=" M 12.06 143.18 L 12.30 143.16 L 12.56 143.24 C 12.44 143.22 12.18 143.19 12.06 143.18 Z" />
<path fill="#000000" opacity="1.00" d=" M 24.37 145.91 C 25.74 145.32 26.74 145.68 27.39 146.99 C 26.13 147.43 25.12 147.07 24.37 145.91 Z" />
<path fill="#000000" opacity="1.00" d=" M 27.39 146.99 L 27.92 146.94 L 27.93 147.38 C 27.79 147.29 27.52 147.09 27.39 146.99 Z" />
<path fill="#000000" opacity="1.00" d=" M 32.37 148.81 L 32.97 148.86 L 32.99 149.53 C 32.83 149.35 32.52 148.99 32.37 148.81 Z" />
<path fill="#000000" opacity="1.00" d=" M 35.15 150.16 C 35.28 150.25 35.53 150.43 35.65 150.52 C 35.53 150.43 35.28 150.25 35.15 150.16 Z" />
<path fill="#000000" opacity="1.00" d=" M 206.33 150.27 C 206.74 150.26 207.58 150.23 207.99 150.22 C 207.53 150.44 206.61 150.90 206.15 151.12 L 206.33 150.27 Z" />
<path fill="#000000" opacity="1.00" d=" M 199.04 154.86 C 199.23 154.73 199.59 154.47 199.78 154.34 C 199.59 154.47 199.23 154.73 199.04 154.86 Z" />
<path fill="#000000" opacity="1.00" d=" M 171.45 158.04 C 175.31 156.94 179.17 155.78 183.09 154.87 C 182.74 156.89 182.32 159.03 180.98 160.67 C 180.99 160.18 181.00 159.22 181.01 158.74 C 181.30 158.03 181.90 156.63 182.19 155.93 C 178.89 157.04 175.54 157.96 172.16 158.82 C 171.90 158.84 171.36 158.87 171.09 158.89 C 170.71 158.64 169.96 158.13 169.58 157.88 C 169.31 158.45 168.77 159.60 168.50 160.17 L 167.89 160.23 C 167.46 160.19 166.60 160.11 166.17 160.07 C 166.67 158.45 168.97 157.95 169.34 156.06 C 169.86 156.56 170.92 157.54 171.45 158.04 Z" />
<path fill="#000000" opacity="1.00" d=" M 72.98 156.66 C 74.16 157.40 76.55 158.56 76.69 160.08 C 76.30 160.13 75.51 160.23 75.12 160.29 L 74.60 160.03 C 73.79 159.03 73.25 157.90 72.98 156.66 Z" />
<path fill="#000000" opacity="1.00" d=" M 186.07 158.86 C 187.46 159.25 187.68 160.77 188.11 161.92 C 188.96 164.72 190.09 167.42 191.08 170.18 C 189.61 169.96 189.44 168.24 188.89 167.16 C 187.89 164.42 186.93 161.65 186.07 158.86 Z" />
<path fill="#000000" opacity="1.00" d=" M 76.69 160.08 C 83.51 159.22 90.19 161.70 96.99 162.00 C 102.01 162.05 106.96 163.23 112.00 163.02 C 120.72 162.87 129.45 163.31 138.15 162.72 C 139.71 162.65 141.24 162.97 142.78 163.22 C 120.74 165.07 98.44 164.08 76.69 160.08 Z" />
<path fill="#000000" opacity="1.00" d=" M 158.77 160.57 C 160.88 159.08 163.79 159.53 166.17 160.07 C 163.84 160.86 161.34 160.99 158.90 161.07 L 158.77 160.57 Z" />
<path fill="#000000" opacity="1.00" d=" M 197.06 160.14 L 197.44 160.06 C 197.37 160.21 197.24 160.53 197.17 160.68 L 197.06 160.14 Z" />
<path fill="#000000" opacity="1.00" d=" M 142.12 162.59 C 147.66 162.13 153.38 160.15 158.90 161.07 C 153.58 162.15 148.19 162.84 142.78 163.22 L 142.12 162.59 Z" />
<path fill="#000000" opacity="1.00" d=" M 179.64 161.89 C 179.97 161.58 180.65 160.97 180.98 160.67 C 178.86 166.17 173.42 169.56 168.49 172.33 L 168.83 171.24 C 172.96 168.80 176.80 165.79 179.64 161.89 Z" />
<path fill="#000000" opacity="1.00" d=" M 39.92 165.18 L 40.77 165.32 C 40.83 165.75 40.96 166.60 41.02 167.03 C 40.75 166.56 40.20 165.64 39.92 165.18 Z" />
<path fill="#000000" opacity="1.00" d=" M 194.37 166.10 L 195.19 165.87 C 194.91 166.38 194.37 167.40 194.09 167.90 C 194.16 167.45 194.30 166.55 194.37 166.10 Z" />
<path fill="#000000" opacity="1.00" d=" M 189.76 175.24 C 190.59 172.46 192.02 169.93 194.09 167.90 C 193.48 169.43 192.80 170.94 192.02 172.39 C 193.05 174.72 194.15 177.01 195.06 179.39 C 193.14 178.08 192.56 175.73 191.65 173.73 C 191.18 174.11 190.23 174.86 189.76 175.24 Z" />
<path fill="#000000" opacity="1.00" d=" M 43.26 171.17 C 43.37 171.32 43.60 171.64 43.71 171.79 C 43.60 171.64 43.37 171.32 43.26 171.17 Z" />
<path fill="#000000" opacity="1.00" d=" M 157.61 176.19 C 161.14 175.05 164.56 173.59 167.81 171.82 L 168.36 172.67 C 164.87 174.35 161.40 176.12 157.68 177.22 L 157.61 176.19 Z" />
<path fill="#000000" opacity="1.00" d=" M 46.41 175.11 L 46.55 175.02 C 46.46 175.11 46.29 175.30 46.20 175.39 L 46.41 175.11 Z" />
<path fill="#000000" opacity="1.00" d=" M 189.11 175.96 C 189.27 175.78 189.60 175.42 189.76 175.24 C 189.60 175.42 189.27 175.78 189.11 175.96 Z" />
<path fill="#000000" opacity="1.00" d=" M 32.63 181.60 C 36.53 178.80 41.29 177.57 45.63 175.60 L 46.20 175.39 L 45.82 175.78 C 41.85 178.52 37.24 180.27 32.63 181.60 Z" />
<path fill="#000000" opacity="1.00" d=" M 187.61 178.29 C 187.99 177.70 188.74 176.54 189.11 175.96 C 188.74 176.54 187.99 177.70 187.61 178.29 Z" />
<path fill="#000000" opacity="1.00" d=" M 146.70 179.36 C 149.44 178.79 152.15 178.09 154.79 177.17 C 153.49 180.08 149.35 179.29 146.75 180.21 L 146.70 179.36 Z" />
<path fill="#000000" opacity="1.00" d=" M 48.22 178.45 C 48.42 178.62 48.82 178.95 49.02 179.12 C 48.82 178.95 48.42 178.62 48.22 178.45 Z" />
<path fill="#000000" opacity="1.00" d=" M 92.45 178.32 C 95.81 179.24 99.23 179.89 102.65 180.50 C 99.70 182.00 96.14 179.93 93.03 179.56 C 92.88 179.25 92.60 178.63 92.45 178.32 Z" />
<path fill="#000000" opacity="1.00" d=" M 187.05 178.94 C 187.19 178.78 187.47 178.45 187.61 178.29 C 187.47 178.45 187.19 178.78 187.05 178.94 Z" />
<path fill="#000000" opacity="1.00" d=" M 49.02 179.12 C 49.20 179.28 49.54 179.61 49.72 179.77 C 49.54 179.61 49.20 179.28 49.02 179.12 Z" />
<path fill="#000000" opacity="1.00" d=" M 113.54 181.64 C 124.52 182.58 135.62 181.57 146.40 179.43 C 146.32 179.75 146.16 180.39 146.08 180.70 C 134.47 182.52 122.71 183.69 110.95 182.65 C 111.80 182.28 112.67 181.95 113.54 181.64 Z" />
<path fill="#000000" opacity="1.00" d=" M 186.58 179.47 C 186.70 179.34 186.93 179.07 187.05 178.94 C 186.93 179.07 186.70 179.34 186.58 179.47 Z" />
<path fill="#000000" opacity="1.00" d=" M 102.99 180.56 C 105.49 181.00 108.02 181.06 110.54 181.16 C 109.46 182.59 107.43 181.83 105.92 182.02 C 104.71 182.05 103.13 182.14 102.99 180.56 Z" />
<path fill="#000000" opacity="1.00" d=" M 179.02 179.89 C 180.56 180.52 182.07 181.23 183.54 182.00 C 184.57 181.17 185.58 180.32 186.58 179.47 C 185.97 180.22 184.75 181.71 184.13 182.45 C 185.26 183.38 186.39 184.31 187.51 185.24 C 185.95 185.01 184.70 184.03 183.45 183.16 C 183.06 183.52 182.29 184.22 181.91 184.57 C 182.58 182.23 180.42 181.20 179.02 179.89 Z" />
<path fill="#000000" opacity="1.00" d=" M 52.24 182.32 C 52.36 182.43 52.58 182.65 52.70 182.77 C 52.58 182.65 52.36 182.43 52.24 182.32 Z" />
<path fill="#000000" opacity="1.00" d=" M 86.65 188.45 C 87.07 185.38 90.66 182.54 93.56 184.66 C 97.09 186.86 95.75 191.61 95.94 195.07 C 101.99 198.25 106.73 189.05 112.88 191.33 C 114.64 192.51 116.21 194.59 115.86 196.81 C 115.04 199.60 112.33 201.02 109.99 202.35 C 110.39 204.01 110.78 205.67 111.15 207.34 C 114.63 207.98 118.19 208.03 121.72 207.99 C 122.02 206.80 122.33 205.63 122.65 204.46 C 122.76 205.34 123.00 207.11 123.12 208.00 C 128.83 207.35 134.53 206.69 140.22 205.86 C 139.08 203.48 137.92 201.11 136.99 198.64 C 139.17 200.35 139.90 203.12 141.05 205.51 C 143.88 204.92 146.79 204.50 149.46 203.35 C 149.98 202.14 150.36 200.88 150.80 199.64 C 150.87 200.50 150.99 202.21 151.05 203.07 C 156.24 200.98 161.40 198.78 166.22 195.91 C 165.44 194.85 164.66 193.79 163.91 192.72 C 165.07 193.51 166.21 194.33 167.34 195.18 C 170.74 193.08 173.79 190.48 177.22 188.43 C 176.50 189.33 175.76 190.23 175.02 191.12 C 175.79 193.18 176.59 195.28 178.04 196.99 C 176.38 195.52 174.89 193.82 172.99 192.64 C 171.10 193.41 169.59 194.84 168.04 196.12 C 169.36 198.31 170.96 200.49 171.06 203.16 C 169.90 201.22 168.77 199.27 167.33 197.53 C 164.75 201.81 169.61 205.15 170.42 209.18 C 169.30 207.35 168.10 205.57 166.76 203.90 C 168.94 215.53 170.67 227.44 169.14 239.28 C 168.42 244.21 168.31 249.54 165.82 253.98 C 167.79 244.44 169.62 234.73 168.89 224.95 C 168.30 217.38 167.55 209.70 164.89 202.54 C 159.75 209.97 153.96 217.35 145.94 221.85 C 139.55 225.41 133.64 229.76 127.23 233.27 C 126.09 234.06 124.68 234.12 123.42 233.59 C 115.67 231.10 108.23 227.63 101.25 223.45 C 97.21 219.75 91.16 225.78 87.48 221.05 C 81.57 223.58 75.24 224.76 68.93 225.78 C 68.95 232.20 68.58 238.70 69.82 245.05 C 70.48 249.51 72.12 253.73 73.13 258.10 C 72.36 257.05 71.70 255.92 71.32 254.67 C 68.24 245.31 67.79 235.36 67.98 225.58 C 65.44 225.91 62.85 227.01 60.27 226.32 C 58.21 225.88 56.66 224.37 55.00 223.19 C 54.57 218.40 55.56 213.66 57.03 209.13 C 56.54 212.80 55.48 216.38 55.24 220.07 C 54.96 223.29 58.23 226.17 61.38 225.66 C 70.17 225.16 78.97 223.65 87.19 220.41 C 89.62 222.12 92.61 222.43 95.45 221.67 C 99.30 220.64 103.91 220.94 106.90 217.88 C 109.10 215.90 112.44 212.99 110.05 209.84 C 108.69 211.08 107.29 212.29 105.76 213.32 C 107.10 211.47 108.86 209.94 110.03 207.97 C 110.36 206.18 109.71 204.45 109.06 202.82 C 106.68 204.21 104.33 205.65 101.88 206.92 C 105.12 202.73 111.10 202.17 114.40 198.08 C 116.10 195.95 114.05 193.63 112.89 191.85 C 107.34 191.26 103.46 196.28 98.15 196.84 C 96.91 196.74 95.99 195.76 95.22 194.88 C 94.69 191.44 95.94 187.35 92.87 184.81 C 91.28 185.03 89.29 184.84 88.35 186.45 C 86.64 190.11 86.72 194.37 84.75 197.95 C 82.87 201.43 81.40 205.12 80.59 209.00 C 82.14 208.67 83.70 208.35 85.27 208.08 C 77.33 211.86 68.55 213.56 59.85 214.50 C 62.67 212.81 66.21 213.55 69.10 212.21 C 70.56 209.42 70.85 206.06 71.32 202.96 C 70.32 200.86 68.75 199.11 67.38 197.25 C 66.19 198.17 65.00 199.09 63.77 199.94 C 64.86 198.30 66.17 196.84 67.39 195.30 C 66.57 195.31 64.94 195.33 64.12 195.34 L 65.39 194.80 C 65.31 194.25 65.13 193.14 65.05 192.59 C 66.05 193.13 67.06 193.68 68.07 194.23 C 68.44 193.94 69.19 193.37 69.57 193.08 C 69.76 193.69 70.14 194.93 70.33 195.55 C 74.07 197.84 78.21 199.35 82.18 201.18 C 84.56 197.29 85.77 192.88 86.65 188.45 M 67.75 195.69 C 70.43 201.28 75.48 205.28 80.25 209.04 C 80.10 206.58 80.82 204.21 81.82 202.01 C 76.95 200.30 72.59 197.40 67.75 195.69 M 151.01 204.06 C 151.32 205.49 151.00 206.59 150.05 207.37 C 150.04 206.60 150.01 205.06 150.00 204.28 C 147.28 205.16 144.51 205.91 141.69 206.38 C 142.57 208.92 144.04 211.19 145.30 213.55 L 145.81 213.06 L 145.65 214.08 C 146.24 215.08 146.74 216.12 147.16 217.20 C 146.17 216.53 145.33 215.69 144.66 214.68 L 145.35 213.74 L 144.25 213.97 C 143.41 211.43 141.83 209.24 140.76 206.80 C 137.41 206.97 134.17 207.92 130.82 208.08 C 130.91 209.72 130.97 211.36 131.03 213.00 L 130.00 213.00 C 130.00 211.45 130.00 209.91 130.02 208.37 C 127.66 208.49 125.29 208.69 122.94 208.91 L 122.99 210.39 C 122.97 211.11 122.95 212.57 122.94 213.29 C 122.65 212.75 122.09 211.65 121.80 211.11 C 121.87 210.55 122.00 209.45 122.07 208.90 C 118.13 208.93 114.18 208.90 110.28 208.35 C 110.63 209.04 111.34 210.40 111.70 211.09 C 111.78 211.78 111.94 213.17 112.02 213.86 L 111.39 213.81 C 109.19 218.08 104.77 221.57 99.79 221.54 C 106.40 225.84 113.63 229.17 121.03 231.88 C 122.59 232.30 124.14 233.26 125.81 232.96 C 130.48 230.75 134.67 227.69 139.06 225.01 C 143.08 222.42 147.41 220.31 151.11 217.25 C 157.96 211.56 162.96 204.07 167.46 196.48 C 162.12 199.31 156.71 202.00 151.01 204.06 M 72.22 203.79 C 71.71 206.59 70.98 209.35 70.59 212.18 C 73.53 211.48 76.44 210.69 79.34 209.82 C 77.25 207.49 74.73 205.63 72.22 203.79 Z" />
<path fill="#000000" opacity="1.00" d=" M 180.80 185.04 C 181.07 184.92 181.63 184.69 181.91 184.57 C 181.63 184.69 181.07 184.92 180.80 185.04 Z" />
<path fill="#000000" opacity="1.00" d=" M 55.31 185.39 C 55.48 185.55 55.81 185.85 55.97 186.00 C 55.81 185.85 55.48 185.55 55.31 185.39 Z" />
<path fill="#000000" opacity="1.00" d=" M 179.70 187.14 C 179.97 186.62 180.52 185.57 180.80 185.04 L 181.06 186.24 C 180.72 186.46 180.04 186.91 179.70 187.14 Z" />
<path fill="#000000" opacity="1.00" d=" M 187.51 185.24 L 187.91 185.57 L 187.65 186.04 L 187.28 185.63 L 187.51 185.24 Z" />
<path fill="#000000" opacity="1.00" d=" M 55.97 186.00 C 56.17 186.26 56.57 186.78 56.76 187.04 C 56.57 186.78 56.17 186.26 55.97 186.00 Z" />
<path fill="#000000" opacity="1.00" d=" M 187.65 186.04 C 189.20 185.74 190.02 186.35 190.14 187.86 C 188.91 187.88 188.08 187.28 187.65 186.04 Z" />
<path fill="#000000" opacity="1.00" d=" M 179.18 187.68 C 179.31 187.55 179.57 187.28 179.70 187.14 C 179.57 187.28 179.31 187.55 179.18 187.68 Z" />
<path fill="#000000" opacity="1.00" d=" M 48.64 189.83 C 51.45 188.84 54.51 188.86 57.30 187.76 C 55.24 190.38 51.60 190.10 48.64 189.83 Z" />
<path fill="#000000" opacity="1.00" d=" M 177.22 188.43 C 177.71 188.25 178.69 187.87 179.18 187.68 C 178.96 188.00 178.53 188.65 178.31 188.97 L 177.22 188.43 Z" />
<path fill="#000000" opacity="1.00" d=" M 59.55 189.23 C 61.55 189.00 63.74 190.36 64.02 192.44 C 62.11 192.06 60.62 190.80 59.55 189.23 Z" />
<path fill="#000000" opacity="1.00" d=" M 64.02 192.44 C 64.28 192.48 64.79 192.55 65.05 192.59 C 64.79 192.55 64.28 192.48 64.02 192.44 Z" />
<path fill="#000000" opacity="1.00" d=" M 60.90 198.79 C 61.27 197.10 62.27 195.55 64.12 195.34 C 64.21 197.14 62.89 199.09 60.90 198.79 Z" />
<path fill="#000000" opacity="1.00" d=" M 178.04 196.99 C 179.55 197.34 180.23 198.79 180.33 200.23 C 178.93 199.85 177.52 198.58 178.04 196.99 Z" />
<path fill="#000000" opacity="1.00" d=" M 57.03 209.13 C 57.79 205.50 59.22 202.08 60.90 198.79 C 59.80 202.31 58.43 205.73 57.03 209.13 Z" />
<path fill="#000000" opacity="1.00" d=" M 180.33 200.23 C 180.44 200.37 180.65 200.65 180.76 200.79 C 180.65 200.65 180.44 200.37 180.33 200.23 Z" />
<path fill="#000000" opacity="1.00" d=" M 180.76 200.79 C 182.02 201.38 183.31 202.62 182.94 204.17 C 181.19 204.18 180.89 202.10 180.76 200.79 Z" />
<path fill="#000000" opacity="1.00" d=" M 182.94 204.17 C 184.63 204.56 184.95 206.44 185.10 207.92 C 183.36 207.73 182.40 205.73 182.94 204.17 Z" />
<path fill="#000000" opacity="1.00" d=" M 185.10 207.92 C 185.35 208.43 185.85 209.46 186.11 209.97 C 185.78 209.66 185.13 209.04 184.80 208.73 L 185.10 207.92 Z" />
<path fill="#000000" opacity="1.00" d=" M 170.42 209.18 C 170.74 209.68 171.39 210.66 171.71 211.16 C 171.39 210.66 170.74 209.68 170.42 209.18 Z" />
<path fill="#000000" opacity="1.00" d=" M 186.11 209.97 C 187.10 212.57 188.14 215.15 189.17 217.73 L 189.13 219.22 C 187.69 216.29 186.53 213.23 186.11 209.97 Z" />
<path fill="#000000" opacity="1.00" d=" M 171.71 211.16 C 172.01 211.63 172.60 212.57 172.89 213.04 L 172.11 212.81 C 172.01 212.40 171.81 211.57 171.71 211.16 Z" />
<path fill="#000000" opacity="1.00" d=" M 172.89 213.04 C 173.21 213.30 173.84 213.83 174.15 214.09 L 173.70 214.94 C 173.50 214.47 173.09 213.51 172.89 213.04 Z" />
<path fill="#000000" opacity="1.00" d=" M 174.26 215.79 L 175.11 215.61 C 176.18 216.11 176.71 216.97 176.71 218.17 L 176.07 218.44 C 175.13 217.78 174.53 216.90 174.26 215.79 Z" />
<path fill="#000000" opacity="1.00" d=" M 177.57 222.16 L 178.02 222.20 L 177.91 222.72 C 177.82 222.58 177.65 222.30 177.57 222.16 Z" />
<path fill="#000000" opacity="1.00" d=" M 191.90 225.39 C 193.21 225.79 193.56 226.69 192.95 228.11 C 191.73 227.50 191.38 226.59 191.90 225.39 Z" />
<path fill="#000000" opacity="1.00" d=" M 179.60 227.85 L 179.91 227.89 L 179.81 228.26 C 179.76 228.15 179.65 227.95 179.60 227.85 Z" />
<path fill="#000000" opacity="1.00" d=" M 197.24 238.89 C 198.61 239.19 200.43 239.90 200.20 241.64 C 198.63 241.81 196.87 240.62 197.24 238.89 Z" />
<path fill="#000000" opacity="1.00" d=" M 178.04 242.29 C 178.19 242.02 178.47 241.47 178.61 241.19 C 178.47 241.47 178.19 242.02 178.04 242.29 Z" />
<path fill="#000000" opacity="1.00" d=" M 176.90 243.06 C 177.19 242.87 177.76 242.48 178.04 242.29 C 177.76 242.48 177.19 242.87 176.90 243.06 Z" />
<path fill="#000000" opacity="1.00" d=" M 200.20 241.64 C 201.42 241.99 202.09 242.86 202.23 244.24 C 200.73 244.04 200.05 243.17 200.20 241.64 Z" />
<path fill="#000000" opacity="1.00" d=" M 175.74 245.19 C 176.03 244.66 176.61 243.59 176.90 243.06 L 177.16 244.30 C 176.80 244.52 176.10 244.97 175.74 245.19 Z" />
<path fill="#000000" opacity="1.00" d=" M 202.23 244.24 C 202.27 244.34 202.34 244.55 202.38 244.66 L 202.26 244.45 L 202.23 244.24 Z" />
<path fill="#000000" opacity="1.00" d=" M 175.26 245.78 C 175.38 245.63 175.62 245.34 175.74 245.19 C 175.62 245.34 175.38 245.63 175.26 245.78 Z" />
<path fill="#000000" opacity="1.00" d=" M 174.62 245.86 C 174.78 245.84 175.10 245.80 175.26 245.78 C 175.10 249.67 175.17 253.65 173.78 257.36 C 173.53 257.30 173.04 257.19 172.79 257.13 C 174.04 253.51 175.27 249.74 174.62 245.86 Z" />
<path fill="#000000" opacity="1.00" d=" M 204.52 251.30 L 204.86 251.55 L 204.93 251.92 C 204.83 251.76 204.62 251.45 204.52 251.30 Z" />
<path fill="#000000" opacity="1.00" d=" M 112.08 260.96 C 110.24 257.92 112.18 253.91 115.14 252.41 C 117.99 251.56 121.71 252.06 123.07 255.08 C 120.90 252.92 118.01 252.45 115.06 252.91 C 113.17 254.75 110.81 257.44 112.37 260.21 C 113.17 262.81 115.83 263.89 118.22 264.55 C 115.80 265.43 113.11 263.07 112.08 260.96 Z" />
<path fill="#000000" opacity="1.00" d=" M 204.93 251.92 C 205.72 253.08 205.76 254.51 205.45 255.85 L 204.75 255.96 C 204.06 254.57 204.12 253.22 204.93 251.92 Z" />
<path fill="#000000" opacity="1.00" d=" M 164.83 255.26 C 165.08 254.94 165.57 254.30 165.82 253.98 C 165.68 254.48 165.42 255.48 165.28 255.98 L 164.83 255.26 Z" />
<path fill="#000000" opacity="1.00" d=" M 116.63 256.28 C 117.36 257.75 118.30 259.31 120.11 257.94 L 120.79 257.32 C 121.00 257.26 121.40 257.14 121.61 257.08 C 120.98 258.61 121.62 260.13 121.68 261.67 C 120.58 261.61 120.23 260.10 119.66 259.34 C 118.40 259.92 117.44 261.00 116.25 261.71 C 116.83 259.89 118.40 257.94 116.63 256.28 Z" />
<path fill="#000000" opacity="1.00" d=" M 121.61 257.08 C 121.91 256.94 121.91 256.94 121.61 257.08 Z" />
<path fill="#000000" opacity="1.00" d=" M 172.55 257.63 C 172.61 257.51 172.73 257.25 172.79 257.13 C 172.73 257.25 172.61 257.51 172.55 257.63 Z" />
<path fill="#000000" opacity="1.00" d=" M 73.13 258.10 C 73.41 258.40 73.98 258.99 74.26 259.28 L 74.00 260.04 L 73.21 259.75 C 73.19 259.34 73.15 258.51 73.13 258.10 Z" />
<path fill="#000000" opacity="1.00" d=" M 172.26 262.82 C 171.24 261.21 171.60 259.18 172.55 257.63 C 173.13 259.26 173.61 261.40 172.26 262.82 Z" />
<path fill="#000000" opacity="1.00" d=" M 192.48 257.73 C 195.20 261.73 192.65 266.99 190.60 270.79 C 189.20 271.69 187.71 272.48 186.23 273.25 C 188.26 271.26 190.99 269.63 191.72 266.69 C 192.82 263.82 192.85 260.73 192.48 257.73 Z" />
<path fill="#000000" opacity="1.00" d=" M 197.94 269.28 C 199.52 265.62 199.55 261.49 200.83 257.85 C 200.91 261.68 200.88 266.44 197.94 269.28 Z" />
<path fill="#000000" opacity="1.00" d=" M 74.00 260.04 C 75.89 260.77 77.24 262.93 77.09 264.96 C 75.24 264.10 73.89 262.11 74.00 260.04 Z" />
<path fill="#000000" opacity="1.00" d=" M 179.91 263.09 C 180.61 262.50 182.03 261.33 182.74 260.75 C 182.79 263.43 183.32 266.21 182.48 268.84 L 181.18 269.03 C 181.91 267.21 182.14 265.26 182.20 263.32 L 180.31 263.25 L 179.91 263.09 Z" />
<path fill="#000000" opacity="1.00" d=" M 172.26 262.82 L 173.08 262.58 C 173.33 262.96 173.85 263.73 174.10 264.12 C 173.64 263.79 172.72 263.15 172.26 262.82 Z" />
<path fill="#000000" opacity="1.00" d=" M 160.00 264.84 C 160.13 264.78 160.40 264.65 160.53 264.58 C 160.40 264.65 160.13 264.78 160.00 264.84 Z" />
<path fill="#000000" opacity="1.00" d=" M 77.09 264.96 C 77.61 265.25 78.64 265.84 79.15 266.14 L 79.55 266.94 C 79.10 268.18 78.47 269.48 77.17 270.03 C 77.44 268.34 77.68 266.62 77.09 264.96 Z" />
<path fill="#000000" opacity="1.00" d=" M 160.11 266.81 C 158.62 266.28 158.59 265.62 160.00 264.84 C 160.03 265.34 160.08 266.32 160.11 266.81 Z" />
<path fill="#000000" opacity="1.00" d=" M 149.91 266.88 C 153.42 270.45 155.41 275.17 158.19 279.28 C 158.70 279.04 159.72 278.58 160.23 278.35 C 159.07 280.78 158.08 283.43 155.92 285.19 C 156.66 283.75 157.41 282.32 158.13 280.87 C 156.50 277.75 154.49 274.85 152.73 271.80 C 142.72 277.16 131.39 280.51 119.96 280.01 C 120.30 281.04 120.62 282.09 120.93 283.14 L 120.83 283.81 C 120.17 282.55 119.48 281.31 118.79 280.07 C 111.91 280.26 105.06 279.16 98.43 277.42 C 95.40 276.55 92.27 275.72 89.67 273.87 C 95.92 275.81 102.14 277.94 108.67 278.73 C 123.45 280.34 139.10 278.60 152.10 270.94 C 151.33 269.60 150.59 268.26 149.91 266.88 Z" />
<path fill="#000000" opacity="1.00" d=" M 160.11 266.81 C 160.63 267.08 161.68 267.61 162.20 267.87 C 162.22 268.48 162.25 269.69 162.27 270.29 C 160.74 269.97 159.72 268.33 160.11 266.81 Z" />
<path fill="#000000" opacity="1.00" d=" M 180.43 269.34 C 180.61 269.26 180.99 269.11 181.18 269.03 C 180.99 269.11 180.61 269.26 180.43 269.34 Z" />
<path fill="#000000" opacity="1.00" d=" M 182.48 268.84 C 183.19 269.76 183.81 270.74 184.42 271.74 C 185.03 272.23 185.63 272.73 186.23 273.25 L 186.26 273.65 C 185.20 273.58 184.13 273.52 183.08 273.47 C 182.79 274.12 182.21 275.42 181.92 276.06 C 182.08 274.60 182.27 273.14 182.47 271.69 C 182.48 271.60 182.50 271.41 182.50 271.32 C 182.50 270.70 182.49 269.46 182.48 268.84 Z" />
<path fill="#000000" opacity="1.00" d=" M 75.32 273.28 C 74.75 271.94 75.62 270.10 77.17 270.03 C 77.50 271.45 76.52 272.68 75.32 273.28 Z" />
<path fill="#000000" opacity="1.00" d=" M 162.27 270.29 C 163.60 270.82 164.06 271.77 163.67 273.13 C 162.38 272.58 161.91 271.63 162.27 270.29 Z" />
<path fill="#000000" opacity="1.00" d=" M 163.67 273.13 C 169.21 272.63 174.91 272.36 179.88 269.56 C 176.32 271.91 172.77 274.38 168.68 275.71 C 168.16 275.70 167.14 275.68 166.63 275.67 C 167.61 275.34 168.39 274.75 168.96 273.91 C 167.67 273.68 166.39 273.68 165.10 273.92 C 165.29 274.35 165.67 275.21 165.86 275.64 C 166.53 276.80 167.22 277.96 167.93 279.11 C 167.92 280.01 167.90 281.82 167.89 282.73 C 166.99 279.31 165.31 276.22 163.67 273.13 Z" />
<path fill="#000000" opacity="1.00" d=" M 196.21 271.11 C 196.43 270.72 196.87 269.94 197.09 269.55 L 197.95 269.60 L 197.87 270.34 C 197.45 270.54 196.63 270.92 196.21 271.11 Z" />
<path fill="#000000" opacity="1.00" d=" M 73.12 276.08 C 73.23 274.84 73.71 273.07 75.32 273.28 C 75.45 274.59 74.71 276.35 73.12 276.08 Z" />
<path fill="#000000" opacity="1.00" d=" M 83.79 275.09 C 84.16 273.71 84.84 272.55 85.84 271.60 C 87.43 271.53 88.83 272.59 89.67 273.87 C 88.38 273.57 87.08 273.38 85.77 273.29 C 85.27 273.74 84.28 274.64 83.79 275.09 Z" />
<path fill="#000000" opacity="1.00" d=" M 83.40 275.74 C 83.50 275.58 83.69 275.25 83.79 275.09 C 83.69 275.25 83.50 275.58 83.40 275.74 Z" />
<path fill="#000000" opacity="1.00" d=" M 72.27 278.17 C 72.48 277.65 72.91 276.61 73.12 276.08 L 73.46 276.88 C 73.16 277.20 72.57 277.84 72.27 278.17 Z" />
<path fill="#000000" opacity="1.00" d=" M 80.73 278.52 C 81.26 277.27 82.15 276.34 83.40 275.74 C 83.25 277.47 82.25 278.89 81.21 280.22 C 81.09 279.79 80.85 278.95 80.73 278.52 Z" />
<path fill="#000000" opacity="1.00" d=" M 181.04 279.07 C 180.61 277.77 180.90 276.77 181.92 276.06 C 181.89 276.77 181.83 278.17 181.81 278.88 L 181.04 279.07 Z" />
<path fill="#000000" opacity="1.00" d=" M 70.85 279.92 C 71.21 279.48 71.92 278.61 72.27 278.17 C 72.13 278.58 71.84 279.41 71.70 279.82 L 70.85 279.92 Z" />
<path fill="#000000" opacity="1.00" d=" M 73.08 284.80 C 71.02 284.04 70.11 281.96 70.85 279.92 C 72.50 280.91 73.39 282.90 73.08 284.80 Z" />
<path fill="#000000" opacity="1.00" d=" M 80.72 280.94 C 81.98 281.58 82.54 282.67 82.38 284.18 C 81.02 283.40 80.47 282.32 80.72 280.94 Z" />
<path fill="#000000" opacity="1.00" d=" M 159.25 294.83 C 161.90 290.86 164.13 286.61 166.97 282.76 L 167.09 283.88 C 165.39 286.96 162.64 289.58 161.89 293.11 C 165.54 292.76 169.16 293.35 172.62 294.51 C 168.20 295.11 163.56 292.60 159.25 294.83 Z" />
<path fill="#000000" opacity="1.00" d=" M 82.38 284.18 C 82.47 284.32 82.65 284.58 82.75 284.71 C 82.65 284.58 82.47 284.32 82.38 284.18 Z" />
<path fill="#000000" opacity="1.00" d=" M 73.08 284.80 C 74.32 285.16 75.08 286.03 75.39 287.39 L 75.09 287.91 C 73.74 287.55 72.75 286.21 73.08 284.80 Z" />
<path fill="#000000" opacity="1.00" d=" M 82.75 284.71 C 84.55 285.44 85.45 287.19 85.65 289.04 C 83.44 288.93 82.87 286.50 82.75 284.71 Z" />
<path fill="#000000" opacity="1.00" d=" M 155.71 285.49 C 155.19 288.98 152.51 291.66 150.79 294.65 C 148.02 295.61 144.97 296.85 143.68 299.72 C 141.72 303.20 143.58 307.16 145.30 310.31 C 142.91 308.67 142.02 305.86 141.76 303.12 C 139.79 302.18 137.48 301.65 136.04 299.89 C 137.96 300.65 139.88 301.42 141.80 302.19 C 142.30 300.78 142.82 299.37 143.38 297.98 C 143.62 297.78 144.09 297.38 144.33 297.18 C 146.13 295.52 148.39 294.57 150.59 293.58 C 150.81 293.22 151.27 292.51 151.50 292.16 C 151.76 291.73 152.28 290.87 152.53 290.44 C 153.54 288.76 154.61 287.11 155.71 285.49 Z" />
<path fill="#000000" opacity="1.00" d=" M 123.95 287.27 C 124.19 287.74 124.67 288.66 124.91 289.12 C 124.56 288.83 123.86 288.23 123.51 287.93 L 123.95 287.27 Z" />
<path fill="#000000" opacity="1.00" d=" M 75.09 287.91 L 75.70 287.97 C 75.79 288.45 75.96 289.39 76.05 289.87 C 75.81 289.38 75.33 288.40 75.09 287.91 Z" />
<path fill="#000000" opacity="1.00" d=" M 85.65 289.04 C 85.90 289.55 86.41 290.57 86.66 291.09 C 86.34 290.78 85.69 290.17 85.36 289.87 L 85.65 289.04 Z" />
<path fill="#000000" opacity="1.00" d=" M 124.91 289.12 C 126.77 289.22 128.37 291.06 128.00 292.94 C 126.20 292.59 125.26 290.76 124.91 289.12 Z" />
<path fill="#000000" opacity="1.00" d=" M 76.05 289.87 C 77.34 290.03 78.08 290.83 78.26 292.25 L 77.55 292.41 C 77.17 291.78 76.43 290.50 76.05 289.87 Z" />
<path fill="#000000" opacity="1.00" d=" M 86.66 291.09 C 86.96 291.42 87.56 292.08 87.86 292.41 L 87.45 293.23 C 87.25 292.70 86.86 291.62 86.66 291.09 Z" />
<path fill="#000000" opacity="1.00" d=" M 128.00 292.94 C 129.36 292.92 130.12 293.61 130.26 295.00 C 128.82 295.04 128.07 294.35 128.00 292.94 Z" />
<path fill="#000000" opacity="1.00" d=" M 172.78 294.49 C 173.33 294.14 174.44 293.42 175.00 293.06 C 175.01 293.79 175.02 295.26 175.03 295.99 C 173.75 296.18 173.00 295.68 172.78 294.49 Z" />
<path fill="#000000" opacity="1.00" d=" M 67.10 294.92 C 67.28 294.81 67.65 294.59 67.83 294.49 L 67.55 294.90 L 67.10 294.92 Z" />
<path fill="#000000" opacity="1.00" d=" M 64.01 295.93 C 64.85 294.90 65.88 294.56 67.10 294.92 C 66.45 296.29 65.42 296.63 64.01 295.93 Z" />
<path fill="#000000" opacity="1.00" d=" M 130.26 295.00 L 131.20 295.13 C 131.47 295.30 132.02 295.63 132.29 295.80 C 132.44 296.05 132.75 296.54 132.90 296.79 L 132.72 297.60 C 131.28 297.95 129.39 296.51 130.26 295.00 Z" />
<path fill="#000000" opacity="1.00" d=" M 62.07 297.10 C 62.55 296.80 63.52 296.22 64.01 295.93 L 63.81 296.75 C 63.37 296.84 62.50 297.01 62.07 297.10 Z" />
<path fill="#000000" opacity="1.00" d=" M 59.82 298.24 C 60.38 297.95 61.50 297.38 62.07 297.10 C 61.50 297.38 60.38 297.95 59.82 298.24 Z" />
<path fill="#000000" opacity="1.00" d=" M 59.15 298.74 C 59.32 298.62 59.65 298.36 59.82 298.24 C 59.65 298.36 59.32 298.62 59.15 298.74 Z" />
<path fill="#000000" opacity="1.00" d=" M 56.75 300.28 C 57.35 299.90 58.55 299.13 59.15 298.74 C 58.55 299.13 57.35 299.90 56.75 300.28 Z" />
<path fill="#000000" opacity="1.00" d=" M 134.18 298.97 L 134.98 298.57 C 135.25 298.90 135.78 299.56 136.04 299.89 C 135.58 299.66 134.65 299.20 134.18 298.97 Z" />
<path fill="#000000" opacity="1.00" d=" M 181.03 298.83 C 181.53 299.16 182.54 299.84 183.04 300.18 C 182.54 299.84 181.53 299.16 181.03 298.83 Z" />
<path fill="#000000" opacity="1.00" d=" M 56.07 300.89 C 56.24 300.74 56.58 300.44 56.75 300.28 C 56.58 300.44 56.24 300.74 56.07 300.89 Z" />
<path fill="#000000" opacity="1.00" d=" M 55.57 301.34 C 55.70 301.23 55.95 301.00 56.07 300.89 C 55.95 301.00 55.70 301.23 55.57 301.34 Z" />
<path fill="#000000" opacity="1.00" d=" M 183.47 300.53 C 188.40 303.47 191.91 311.26 186.72 315.64 C 186.94 314.31 188.27 312.86 187.49 311.52 C 185.88 308.18 182.77 306.04 179.96 303.81 C 183.66 304.68 185.72 308.05 188.31 310.51 C 188.58 306.47 185.41 303.68 183.47 300.53 Z" />
<path fill="#000000" opacity="1.00" d=" M 57.88 315.16 C 59.22 311.16 62.14 307.61 65.95 305.76 C 65.44 307.23 63.79 307.78 62.76 308.83 C 60.63 310.53 59.95 313.42 57.88 315.16 Z" />
<path fill="#000000" opacity="1.00" d=" M 173.79 305.81 C 178.64 307.69 181.25 312.51 183.02 317.11 C 183.67 316.99 184.96 316.75 185.61 316.63 C 182.96 319.25 179.10 319.37 175.95 321.00 L 166.07 321.00 C 161.37 319.35 156.17 318.38 152.26 315.10 C 158.77 317.27 165.10 320.92 172.25 320.04 C 171.24 314.67 167.84 310.41 163.92 306.82 C 169.15 309.18 171.79 314.75 172.98 320.08 C 176.14 319.51 179.28 318.82 182.35 317.87 C 181.05 312.89 177.76 308.93 173.79 305.81 Z" />
<path fill="#000000" opacity="1.00" d=" M 145.30 310.31 C 145.39 310.39 145.57 310.56 145.66 310.65 C 145.57 310.56 145.39 310.39 145.30 310.31 Z" />
<path fill="#000000" opacity="1.00" d=" M 145.66 310.65 C 148.11 311.65 150.43 312.99 152.17 315.02 C 149.64 314.17 147.50 312.54 145.66 310.65 Z" />
<path fill="#000000" opacity="1.00" d=" M 85.97 316.16 C 86.45 313.95 88.93 313.13 90.90 312.81 C 90.52 315.06 87.81 315.59 85.97 316.16 Z" />
</g>
<g id="#f6c87aff">
<path fill="#f6c87a" opacity="1.00" d=" M 118.52 3.44 C 129.09 0.75 140.52 -0.45 151.04 3.14 C 151.54 3.34 152.53 3.75 153.03 3.95 C 153.33 4.29 153.92 4.96 154.22 5.30 L 155.14 5.09 C 155.30 5.27 155.62 5.64 155.78 5.83 C 156.10 7.20 157.50 8.18 158.90 8.04 C 158.94 9.38 159.63 10.06 160.97 10.08 C 160.81 11.46 161.76 12.96 163.18 13.17 C 163.31 13.30 163.58 13.57 163.71 13.70 C 164.60 15.55 165.51 17.38 166.46 19.20 C 164.71 19.40 162.97 19.64 161.23 19.91 C 160.08 19.17 158.93 18.44 157.76 17.75 C 158.38 18.32 159.61 19.47 160.23 20.04 C 158.61 20.96 156.96 21.83 155.30 22.68 C 154.22 21.76 153.17 20.82 152.13 19.86 C 152.87 21.07 153.32 22.42 153.57 23.81 C 152.08 24.54 150.45 24.73 148.87 25.08 C 148.29 24.44 147.15 23.16 146.58 22.52 C 144.75 20.87 142.48 19.83 140.19 19.00 C 140.38 18.42 140.76 17.26 140.95 16.68 C 140.63 17.10 139.99 17.92 139.67 18.33 C 139.32 18.22 138.62 18.00 138.27 17.89 C 136.82 17.40 135.33 17.24 133.81 17.41 C 134.58 16.25 135.33 15.08 136.08 13.90 C 135.11 14.76 134.17 15.67 133.14 16.47 C 130.96 16.33 127.27 15.88 128.72 12.80 C 128.00 16.40 123.70 15.15 121.07 15.68 C 121.58 14.98 122.61 13.59 123.12 12.89 C 121.10 14.66 118.52 14.99 115.91 14.95 C 116.42 14.21 117.43 12.73 117.94 11.99 C 116.13 13.34 114.58 15.65 112.07 15.43 C 110.73 15.42 108.50 16.05 108.26 14.18 C 108.36 13.90 108.56 13.35 108.65 13.08 C 109.14 12.70 110.13 11.95 110.62 11.58 C 112.00 10.58 113.72 10.59 115.35 10.56 C 114.80 10.40 113.69 10.09 113.13 9.93 C 113.75 8.94 114.37 7.95 114.98 6.96 C 117.04 6.81 119.10 6.68 121.15 6.41 C 119.98 6.39 117.66 6.35 116.50 6.33 C 117.18 5.37 117.86 4.41 118.52 3.44 M 145.95 19.86 C 147.31 20.16 147.87 19.62 147.63 18.24 C 146.24 17.98 145.68 18.52 145.95 19.86 Z" />
<path fill="#f6c87a" opacity="1.00" d=" M 166.72 29.40 C 167.12 29.33 167.93 29.20 168.33 29.13 C 168.26 29.70 168.12 30.85 168.05 31.42 C 167.72 30.91 167.05 29.91 166.72 29.40 Z" />
<path fill="#f6c87a" opacity="1.00" d=" M 67.75 195.69 C 72.59 197.40 76.95 200.30 81.82 202.01 C 80.82 204.21 80.10 206.58 80.25 209.04 C 75.48 205.28 70.43 201.28 67.75 195.69 Z" />
<path fill="#f6c87a" opacity="1.00" d=" M 151.01 204.06 C 156.71 202.00 162.12 199.31 167.46 196.48 C 162.96 204.07 157.96 211.56 151.11 217.25 C 147.41 220.31 143.08 222.42 139.06 225.01 C 134.67 227.69 130.48 230.75 125.81 232.96 C 124.14 233.26 122.59 232.30 121.03 231.88 C 113.63 229.17 106.40 225.84 99.79 221.54 C 104.77 221.57 109.19 218.08 111.39 213.81 L 112.02 213.86 C 117.89 214.28 125.34 215.17 129.49 210.00 C 127.32 210.02 125.15 210.17 122.99 210.39 L 122.94 208.91 C 125.29 208.69 127.66 208.49 130.02 208.37 C 130.00 209.91 130.00 211.45 130.00 213.00 L 131.03 213.00 C 130.97 211.36 130.91 209.72 130.82 208.08 C 134.17 207.92 137.41 206.97 140.76 206.80 C 141.83 209.24 143.41 211.43 144.25 213.97 C 136.12 218.23 127.36 221.94 118.01 222.00 C 114.92 221.94 111.87 221.38 108.80 221.18 C 115.39 224.01 123.04 225.39 129.91 222.70 C 135.13 220.67 140.19 218.07 144.66 214.68 C 145.33 215.69 146.17 216.53 147.16 217.20 C 146.74 216.12 146.24 215.08 145.65 214.08 C 150.89 210.74 155.89 206.88 159.77 201.98 C 157.46 203.17 155.62 205.00 153.71 206.72 C 151.20 208.99 148.18 210.63 145.81 213.06 L 145.30 213.55 C 144.04 211.19 142.57 208.92 141.69 206.38 C 144.51 205.91 147.28 205.16 150.00 204.28 C 150.01 205.06 150.04 206.60 150.05 207.37 C 151.00 206.59 151.32 205.49 151.01 204.06 Z" />
<path fill="#f6c87a" opacity="1.00" d=" M 110.28 208.35 C 114.18 208.90 118.13 208.93 122.07 208.90 C 122.00 209.45 121.87 210.55 121.80 211.11 C 118.44 210.93 115.06 210.94 111.70 211.09 C 111.34 210.40 110.63 209.04 110.28 208.35 Z" />
</g>
<g id="#cb6732ff">
<path fill="#cb6732" opacity="1.00" d=" M 103.92 7.16 C 108.00 6.25 111.99 4.95 115.88 3.41 C 116.03 4.02 116.34 5.23 116.50 5.84 C 115.70 5.99 114.11 6.28 113.32 6.42 C 113.56 6.78 114.05 7.51 114.30 7.87 C 112.58 10.93 109.05 10.53 106.05 10.38 C 107.59 10.66 109.25 10.73 110.62 11.58 C 110.13 11.95 109.14 12.70 108.65 13.08 C 107.52 13.72 106.79 14.83 105.96 15.80 C 108.19 15.86 110.41 15.93 112.64 16.01 C 112.36 16.49 111.80 17.45 111.52 17.93 C 112.85 16.96 114.18 15.98 115.50 14.99 C 117.20 15.24 119.57 14.39 120.53 16.29 C 122.47 16.03 124.43 15.88 126.39 15.81 C 126.36 16.39 126.31 17.54 126.28 18.12 C 126.86 17.24 127.43 16.36 128.01 15.48 C 129.60 16.43 132.64 16.24 132.67 18.67 C 132.94 18.43 133.50 17.94 133.78 17.70 C 135.27 17.77 136.77 17.83 138.27 17.89 C 138.96 18.91 138.79 20.03 138.36 21.12 C 138.77 20.70 139.59 19.86 140.00 19.44 C 141.79 20.26 143.57 21.14 145.31 22.07 C 144.85 23.36 144.38 24.64 143.91 25.91 C 144.78 24.76 145.66 23.63 146.58 22.52 C 147.43 23.88 148.30 25.22 149.17 26.57 C 151.19 25.75 153.09 24.68 154.90 23.46 C 156.12 24.70 157.37 25.92 158.71 27.05 C 157.58 25.76 156.41 24.52 155.23 23.29 C 157.10 22.36 158.98 21.43 160.85 20.49 C 162.30 21.39 163.75 22.28 165.22 23.15 C 164.20 22.11 163.15 21.09 162.11 20.07 C 163.72 19.97 165.33 19.87 166.94 19.76 C 167.54 22.64 168.07 25.54 168.05 28.49 C 167.41 28.39 166.15 28.20 165.51 28.11 C 163.96 32.33 159.41 34.52 155.33 35.65 C 144.31 38.39 133.08 40.19 122.06 42.91 C 119.14 43.17 116.60 44.67 113.87 45.59 C 113.71 45.63 113.37 45.73 113.21 45.78 C 111.79 46.10 110.37 46.35 108.92 46.51 C 108.80 46.53 108.56 46.55 108.44 46.57 C 103.13 46.42 98.03 48.08 92.95 49.39 C 91.54 48.68 90.51 49.03 89.86 50.44 C 86.36 50.56 82.94 51.31 79.57 52.20 C 74.94 52.18 70.30 51.88 65.69 52.31 L 65.46 52.33 C 62.32 50.50 59.45 48.19 57.86 44.84 C 61.34 39.64 65.32 34.83 69.39 30.09 C 69.47 29.86 69.61 29.41 69.69 29.18 C 71.24 29.23 72.13 28.46 72.36 26.87 C 72.48 26.73 72.73 26.43 72.86 26.29 C 74.47 26.54 76.08 25.25 76.08 23.60 C 76.32 23.46 76.80 23.20 77.04 23.07 C 77.20 22.84 77.54 22.40 77.71 22.17 C 79.29 22.45 81.18 21.37 81.04 19.60 C 81.26 19.50 81.71 19.30 81.93 19.20 C 83.94 18.88 86.33 17.89 87.02 15.80 C 87.21 15.66 87.59 15.39 87.78 15.25 C 91.09 13.87 94.30 12.21 97.16 10.04 C 97.65 9.80 98.65 9.32 99.15 9.09 C 100.55 9.58 101.46 9.15 101.87 7.80 C 102.38 7.64 103.40 7.32 103.92 7.16 Z" />
<path fill="#cb6732" opacity="1.00" d=" M 153.71 206.72 C 155.62 205.00 157.46 203.17 159.77 201.98 C 155.89 206.88 150.89 210.74 145.65 214.08 L 145.81 213.06 C 148.18 210.63 151.20 208.99 153.71 206.72 Z" />
<path fill="#cb6732" opacity="1.00" d=" M 122.99 210.39 C 125.15 210.17 127.32 210.02 129.49 210.00 C 125.34 215.17 117.89 214.28 112.02 213.86 C 111.94 213.17 111.78 211.78 111.70 211.09 C 115.06 210.94 118.44 210.93 121.80 211.11 C 122.09 211.65 122.65 212.75 122.94 213.29 C 122.95 212.57 122.97 211.11 122.99 210.39 Z" />
<path fill="#cb6732" opacity="1.00" d=" M 118.01 222.00 C 127.36 221.94 136.12 218.23 144.25 213.97 L 145.35 213.74 L 144.66 214.68 C 140.19 218.07 135.13 220.67 129.91 222.70 C 123.04 225.39 115.39 224.01 108.80 221.18 C 111.87 221.38 114.92 221.94 118.01 222.00 Z" />
</g>
<g id="#24211fff">
<path fill="#24211f" opacity="1.00" d=" M 153.03 3.95 C 153.56 4.24 154.61 4.80 155.14 5.09 L 154.22 5.30 C 153.92 4.96 153.33 4.29 153.03 3.95 Z" />
<path fill="#24211f" opacity="1.00" d=" M 155.78 5.83 C 157.19 5.50 158.84 6.52 158.90 8.04 C 157.50 8.18 156.10 7.20 155.78 5.83 Z" />
<path fill="#24211f" opacity="1.00" d=" M 99.15 9.09 C 99.66 7.87 100.57 7.44 101.87 7.80 C 101.46 9.15 100.55 9.58 99.15 9.09 Z" />
<path fill="#24211f" opacity="1.00" d=" M 87.78 15.25 C 90.49 12.88 93.67 11.01 97.16 10.04 C 94.30 12.21 91.09 13.87 87.78 15.25 Z" />
<path fill="#24211f" opacity="1.00" d=" M 160.97 10.08 C 162.47 10.16 163.44 11.76 163.18 13.17 C 161.76 12.96 160.81 11.46 160.97 10.08 Z" />
<path fill="#24211f" opacity="1.00" d=" M 81.93 19.20 C 82.72 17.22 84.95 15.93 87.02 15.80 C 86.33 17.89 83.94 18.88 81.93 19.20 Z" />
<path fill="#24211f" opacity="1.00" d=" M 228.19 25.26 C 229.29 22.15 230.07 18.86 231.98 16.11 C 231.36 19.21 230.31 22.20 229.10 25.11 L 228.19 25.26 Z" />
<path fill="#24211f" opacity="1.00" d=" M 77.71 22.17 C 78.41 20.86 79.65 20.02 81.04 19.60 C 81.18 21.37 79.29 22.45 77.71 22.17 Z" />
<path fill="#24211f" opacity="1.00" d=" M 193.13 20.28 C 193.59 20.21 194.52 20.08 194.99 20.01 C 194.70 20.27 194.13 20.81 193.84 21.07 L 193.01 20.82 L 193.13 20.28 Z" />
<path fill="#24211f" opacity="1.00" d=" M 184.88 24.06 C 187.24 22.55 189.86 21.54 192.51 20.66 C 190.65 22.98 187.71 23.78 184.88 24.06 Z" />
<path fill="#24211f" opacity="1.00" d=" M 56.05 23.78 C 57.46 24.14 59.49 24.40 59.85 26.12 C 58.28 26.24 55.95 25.83 56.05 23.78 Z" />
<path fill="#24211f" opacity="1.00" d=" M 72.86 26.29 C 73.34 24.83 74.71 24.05 76.08 23.60 C 76.08 25.25 74.47 26.54 72.86 26.29 Z" />
<path fill="#24211f" opacity="1.00" d=" M 179.03 27.04 C 179.62 25.48 181.44 25.20 182.89 25.03 C 182.96 26.98 180.53 27.50 179.03 27.04 Z" />
<path fill="#24211f" opacity="1.00" d=" M 69.69 29.18 C 70.15 27.92 71.04 27.15 72.36 26.87 C 72.13 28.46 71.24 29.23 69.69 29.18 Z" />
<path fill="#24211f" opacity="1.00" d=" M 226.61 29.59 C 226.95 28.61 227.46 27.74 228.16 26.97 C 226.35 34.44 223.17 41.50 220.84 48.81 C 218.17 47.79 215.28 47.82 212.68 49.03 C 214.44 46.60 217.59 46.78 220.14 47.63 C 222.52 41.70 224.46 35.61 226.61 29.59 Z" />
<path fill="#24211f" opacity="1.00" d=" M 171.72 31.19 C 172.72 29.21 174.93 28.45 176.95 28.00 C 176.59 30.47 173.73 30.91 171.72 31.19 Z" />
<path fill="#24211f" opacity="1.00" d=" M 65.69 52.31 C 70.30 51.88 74.94 52.18 79.57 52.20 L 78.57 52.52 C 74.39 52.88 70.12 53.04 65.97 52.41 L 65.69 52.31 Z" />
<path fill="#24211f" opacity="1.00" d=" M 19.08 90.30 C 22.00 86.66 25.33 83.31 29.28 80.80 C 26.82 84.96 22.39 87.44 19.33 91.15 L 19.08 90.30 Z" />
<path fill="#24211f" opacity="1.00" d=" M 213.97 85.62 C 214.23 85.93 214.74 86.55 214.99 86.86 C 214.74 86.55 214.23 85.93 213.97 85.62 Z" />
<path fill="#24211f" opacity="1.00" d=" M 14.97 95.86 C 14.82 94.40 16.00 93.30 17.19 92.71 C 17.27 94.08 16.79 96.19 14.97 95.86 Z" />
<path fill="#24211f" opacity="1.00" d=" M 225.38 97.32 C 225.44 97.46 225.55 97.75 225.61 97.90 L 225.21 97.68 L 225.38 97.32 Z" />
<path fill="#24211f" opacity="1.00" d=" M 9.38 103.14 C 9.77 103.11 10.56 103.04 10.95 103.00 C 10.43 104.42 10.12 106.69 8.22 106.81 L 7.87 106.28 C 8.33 105.21 8.83 104.16 9.38 103.14 Z" />
<path fill="#24211f" opacity="1.00" d=" M 229.70 104.86 L 230.08 105.10 L 229.89 105.48 C 229.84 105.32 229.75 105.02 229.70 104.86 Z" />
<path fill="#24211f" opacity="1.00" d=" M 5.45 111.07 L 6.01 111.30 C 6.29 112.97 5.60 114.69 3.84 115.14 C 3.91 113.63 4.46 112.21 5.45 111.07 Z" />
<path fill="#24211f" opacity="1.00" d=" M 0.00 124.13 C 1.01 121.65 1.98 119.14 3.22 116.76 C 2.89 119.64 2.12 122.47 0.61 124.97 L 0.00 125.21 L 0.00 124.13 Z" />
<path fill="#24211f" opacity="1.00" d=" M 237.10 118.87 C 237.92 121.00 238.94 123.04 240.00 125.06 L 240.00 127.28 L 239.52 127.01 C 238.19 124.49 236.88 121.81 237.10 118.87 Z" />
<path fill="#24211f" opacity="1.00" d=" M 1.24 129.35 C 4.48 129.53 7.66 130.21 10.75 131.17 L 10.53 131.97 C 7.30 131.01 3.97 130.46 0.64 130.04 L 1.24 129.35 Z" />
<path fill="#24211f" opacity="1.00" d=" M 227.82 133.41 C 230.98 131.44 234.82 130.82 238.49 131.09 L 239.21 131.67 C 235.24 131.75 231.46 132.96 227.65 133.88 L 227.82 133.41 Z" />
<path fill="#24211f" opacity="1.00" d=" M 13.55 133.20 L 14.04 132.85 C 16.34 133.60 17.10 136.68 15.05 138.19 C 14.83 136.44 14.36 134.76 13.55 133.20 Z" />
<path fill="#24211f" opacity="1.00" d=" M 108.05 135.21 C 108.44 134.85 109.22 134.13 109.61 133.77 C 111.19 134.95 113.21 134.72 115.06 134.89 C 116.58 136.18 117.88 137.87 117.20 140.00 C 114.93 142.72 111.40 143.83 107.93 143.29 C 106.27 143.59 103.84 142.23 104.95 140.30 C 106.46 139.47 108.01 138.58 108.76 136.94 C 108.58 136.51 108.22 135.64 108.05 135.21 Z" />
<path fill="#24211f" opacity="1.00" d=" M 225.54 141.04 C 223.78 139.93 223.11 137.58 224.66 135.97 C 225.29 137.37 225.61 138.88 225.91 140.39 L 225.54 141.04 Z" />
<path fill="#24211f" opacity="1.00" d=" M 10.17 142.90 C 10.83 141.09 12.74 140.18 14.03 138.87 C 13.96 140.49 13.28 142.08 12.06 143.18 C 11.59 143.11 10.64 142.97 10.17 142.90 Z" />
<path fill="#24211f" opacity="1.00" d=" M 12.30 143.16 C 16.44 142.78 20.87 143.61 24.37 145.91 C 20.40 145.19 16.50 144.15 12.56 143.24 L 12.30 143.16 Z" />
<path fill="#24211f" opacity="1.00" d=" M 228.13 142.57 C 228.84 143.18 229.55 143.80 230.27 144.42 C 222.58 145.25 215.29 147.83 207.99 150.22 C 208.64 149.42 209.44 148.84 210.39 148.46 C 215.90 146.19 221.73 144.92 227.54 143.67 L 228.13 142.57 Z" />
<path fill="#24211f" opacity="1.00" d=" M 27.92 146.94 C 29.68 146.44 31.46 147.25 32.37 148.81 C 30.76 148.98 29.18 148.36 27.93 147.38 L 27.92 146.94 Z" />
<path fill="#24211f" opacity="1.00" d=" M 32.97 148.86 C 33.52 149.19 34.61 149.84 35.15 150.16 C 34.61 150.01 33.53 149.69 32.99 149.53 L 32.97 148.86 Z" />
<path fill="#24211f" opacity="1.00" d=" M 35.65 150.52 L 36.59 151.45 C 37.63 156.03 39.61 160.46 39.92 165.18 C 37.50 160.62 36.62 155.52 35.65 150.52 Z" />
<path fill="#24211f" opacity="1.00" d=" M 199.78 154.34 C 201.19 152.21 203.59 151.00 206.15 151.12 C 204.12 152.38 202.03 153.55 199.78 154.34 Z" />
<path fill="#24211f" opacity="1.00" d=" M 197.06 160.14 C 196.40 158.15 196.76 155.55 199.04 154.86 C 198.62 156.62 198.26 158.42 197.44 160.06 L 197.06 160.14 Z" />
<path fill="#24211f" opacity="1.00" d=" M 195.19 165.87 C 194.44 163.98 194.99 161.30 197.17 160.68 C 196.98 162.56 196.39 164.39 195.19 165.87 Z" />
<path fill="#24211f" opacity="1.00" d=" M 41.02 167.03 C 43.08 167.25 43.30 169.51 43.26 171.17 C 41.84 170.26 40.88 168.75 41.02 167.03 Z" />
<path fill="#24211f" opacity="1.00" d=" M 43.71 171.79 C 45.27 172.20 46.22 173.56 46.41 175.11 L 46.20 175.39 L 45.63 175.60 C 44.43 174.69 43.95 173.21 43.71 171.79 Z" />
<path fill="#24211f" opacity="1.00" d=" M 46.55 175.02 C 48.00 173.91 49.64 173.06 51.46 172.74 C 50.50 173.77 49.37 174.62 48.18 175.37 C 48.19 176.14 48.21 177.68 48.22 178.45 C 47.62 177.78 46.42 176.45 45.82 175.78 L 46.20 175.39 C 46.29 175.30 46.46 175.11 46.55 175.02 Z" />
<path fill="#24211f" opacity="1.00" d=" M 49.72 179.77 C 51.16 179.98 52.00 180.83 52.24 182.32 C 50.81 182.02 49.97 181.17 49.72 179.77 Z" />
<path fill="#24211f" opacity="1.00" d=" M 52.70 182.77 C 54.20 183.02 55.07 183.90 55.31 185.39 C 53.90 185.06 53.03 184.18 52.70 182.77 Z" />
<path fill="#24211f" opacity="1.00" d=" M 56.76 187.04 C 57.67 186.20 58.72 185.55 59.84 185.04 C 59.78 186.44 59.67 187.84 59.55 189.23 C 58.80 188.74 58.05 188.25 57.30 187.76 L 56.76 187.04 Z" />
<path fill="#24211f" opacity="1.00" d=" M 172.25 188.16 C 175.18 186.78 172.51 191.54 172.25 188.16 Z" />
<path fill="#24211f" opacity="1.00" d=" M 174.15 214.09 C 174.39 214.47 174.87 215.23 175.11 215.61 L 174.26 215.79 L 173.70 214.94 L 174.15 214.09 Z" />
<path fill="#24211f" opacity="1.00" d=" M 176.07 218.44 L 176.71 218.17 C 177.94 219.09 178.68 220.70 178.02 222.20 L 177.57 222.16 C 176.75 221.06 176.30 219.77 176.07 218.44 Z" />
<path fill="#24211f" opacity="1.00" d=" M 189.17 217.73 C 190.38 220.16 191.60 222.65 191.90 225.39 C 190.43 223.61 189.68 221.42 189.13 219.22 L 189.17 217.73 Z" />
<path fill="#24211f" opacity="1.00" d=" M 177.91 222.72 C 179.97 223.44 180.64 225.98 179.91 227.89 L 179.60 227.85 C 178.64 226.29 178.17 224.51 177.91 222.72 Z" />
<path fill="#24211f" opacity="1.00" d=" M 179.81 228.26 C 182.51 232.30 182.78 237.35 183.19 242.04 C 181.73 241.45 180.19 241.11 178.61 241.19 C 179.77 240.33 180.96 239.50 182.15 238.67 C 181.47 235.17 180.67 231.71 179.81 228.26 Z" />
<path fill="#24211f" opacity="1.00" d=" M 192.99 228.35 C 194.23 231.37 194.86 234.59 195.15 237.85 C 195.67 238.11 196.72 238.63 197.24 238.89 C 196.47 238.92 194.94 239.00 194.17 239.04 C 194.10 235.44 193.24 231.93 192.99 228.35 Z" />
<path fill="#24211f" opacity="1.00" d=" M 202.26 244.45 L 202.38 244.66 C 203.69 246.75 204.61 249.07 204.86 251.55 L 204.52 251.30 C 203.27 249.21 202.51 246.87 202.26 244.45 Z" />
<path fill="#24211f" opacity="1.00" d=" M 160.53 264.58 C 161.44 261.42 162.84 258.26 165.28 255.98 C 164.31 259.14 162.79 262.14 160.53 264.58 Z" />
<path fill="#24211f" opacity="1.00" d=" M 204.75 255.96 L 205.45 255.85 C 206.34 259.95 206.55 264.58 204.08 268.20 C 204.93 264.18 205.46 260.04 204.75 255.96 Z" />
<path fill="#24211f" opacity="1.00" d=" M 174.10 264.12 C 176.01 263.65 177.97 263.39 179.91 263.09 L 180.31 263.25 C 178.86 265.35 176.04 265.84 174.10 264.12 Z" />
<path fill="#24211f" opacity="1.00" d=" M 79.15 266.14 C 78.31 264.86 80.88 262.48 81.10 264.65 C 80.78 265.53 80.26 266.29 79.55 266.94 L 79.15 266.14 Z" />
<path fill="#24211f" opacity="1.00" d=" M 197.95 269.60 C 199.40 269.61 200.84 269.86 202.21 270.34 C 201.29 271.98 198.76 272.10 197.87 270.34 L 197.95 269.60 Z" />
<path fill="#24211f" opacity="1.00" d=" M 191.92 272.21 C 193.24 271.54 194.68 270.92 196.21 271.11 C 195.50 272.72 193.17 274.07 191.92 272.21 Z" />
<path fill="#24211f" opacity="1.00" d=" M 79.17 278.21 C 79.56 278.29 80.34 278.45 80.73 278.52 C 80.85 278.95 81.09 279.79 81.21 280.22 L 80.72 280.94 C 79.42 281.15 78.02 279.19 79.17 278.21 Z" />
<path fill="#24211f" opacity="1.00" d=" M 181.04 279.07 L 181.81 278.88 C 180.27 283.57 179.59 289.10 175.63 292.49 C 178.13 288.32 179.68 283.71 181.04 279.07 Z" />
<path fill="#24211f" opacity="1.00" d=" M 120.93 283.14 C 123.07 283.09 123.72 285.58 123.95 287.27 L 123.51 287.93 C 122.43 286.69 121.47 285.33 120.83 283.81 L 120.93 283.14 Z" />
<path fill="#24211f" opacity="1.00" d=" M 75.39 287.39 C 75.47 287.53 75.62 287.83 75.70 287.97 L 75.09 287.91 L 75.39 287.39 Z" />
<path fill="#24211f" opacity="1.00" d=" M 77.55 292.41 L 78.26 292.25 C 78.87 293.22 79.54 294.16 80.20 295.10 C 76.14 293.08 71.78 294.56 67.55 294.90 L 67.83 294.49 C 70.95 293.29 74.32 293.15 77.55 292.41 Z" />
<path fill="#24211f" opacity="1.00" d=" M 87.45 293.23 C 91.27 294.19 95.60 295.72 97.29 299.63 C 99.66 304.62 96.43 310.90 91.40 312.68 C 93.32 309.87 96.70 307.70 97.01 304.06 C 97.44 300.82 95.22 297.91 92.63 296.25 C 90.91 295.20 88.41 295.28 87.45 293.23 Z" />
<path fill="#24211f" opacity="1.00" d=" M 131.20 295.13 C 131.47 295.30 132.02 295.63 132.29 295.80 C 132.02 295.63 131.47 295.30 131.20 295.13 Z" />
<path fill="#24211f" opacity="1.00" d=" M 132.29 295.80 C 132.44 296.05 132.75 296.54 132.90 296.79 C 132.75 296.54 132.44 296.05 132.29 295.80 Z" />
<path fill="#24211f" opacity="1.00" d=" M 175.80 296.02 C 177.46 295.83 178.98 296.69 179.91 298.04 C 178.20 298.51 176.23 297.91 175.80 296.02 Z" />
<path fill="#24211f" opacity="1.00" d=" M 132.90 296.79 C 133.43 297.07 134.47 297.62 135.00 297.90 L 134.98 298.57 L 134.18 298.97 C 133.82 298.63 133.09 297.94 132.72 297.60 L 132.90 296.79 Z" />
<path fill="#24211f" opacity="1.00" d=" M 51.52 313.54 C 49.15 309.10 51.98 304.10 55.57 301.34 C 54.25 303.96 52.38 306.38 51.82 309.32 C 54.57 307.07 57.03 304.32 60.46 303.06 C 57.51 306.60 53.21 308.99 51.52 313.54 Z" />
<path fill="#24211f" opacity="1.00" d=" M 66.66 319.94 C 68.19 314.74 70.58 308.53 76.25 306.79 C 72.47 310.53 68.84 314.61 67.81 320.03 C 73.76 320.53 79.19 317.84 84.84 316.50 C 81.98 318.90 78.15 319.26 74.95 321.00 L 64.73 321.00 C 60.45 319.40 55.26 318.85 52.44 314.78 C 54.10 315.48 55.78 316.16 57.46 316.80 C 59.99 319.08 63.51 319.18 66.66 319.94 Z" />
</g>
<g id="#656566ff">
<path fill="#656566" opacity="1.00" d=" M 8.40 10.89 C 20.91 12.21 33.19 15.41 44.94 19.89 C 46.51 20.47 48.13 20.92 49.75 21.36 C 50.05 21.44 50.64 21.61 50.93 21.69 C 51.50 22.92 52.46 23.45 53.83 23.27 C 54.39 23.40 55.50 23.66 56.05 23.78 C 55.95 25.83 58.28 26.24 59.85 26.12 C 60.18 26.20 60.86 26.36 61.19 26.44 C 63.12 28.21 65.43 29.46 67.68 30.76 C 63.57 35.36 59.76 40.24 56.48 45.47 C 55.04 47.96 53.79 51.09 55.02 53.91 C 56.47 57.10 59.79 59.05 63.08 59.84 C 71.39 60.67 79.63 58.55 87.95 58.90 L 88.14 58.96 L 87.64 58.24 C 92.05 57.93 96.37 56.82 100.81 56.73 L 101.07 56.84 C 101.11 56.70 101.18 56.41 101.21 56.26 C 118.19 53.78 134.94 49.88 151.80 46.68 C 156.67 45.80 161.90 44.37 165.17 40.38 C 167.62 37.69 167.77 33.43 171.10 31.45 L 171.44 31.33 L 171.72 31.19 C 173.73 30.91 176.59 30.47 176.95 28.00 C 177.40 27.95 178.29 27.86 178.74 27.81 L 179.03 27.04 C 180.53 27.50 182.96 26.98 182.89 25.03 L 183.70 25.34 C 184.00 25.02 184.59 24.38 184.88 24.06 C 187.71 23.78 190.65 22.98 192.51 20.66 L 193.01 20.82 L 193.84 21.07 C 194.13 20.81 194.70 20.27 194.99 20.01 C 195.47 19.76 196.43 19.26 196.92 19.01 C 198.35 18.78 199.81 18.58 201.20 18.12 C 211.52 14.56 222.21 11.87 233.11 10.92 C 225.74 20.07 219.29 29.92 212.99 39.83 C 206.45 50.59 199.80 61.35 194.66 72.87 C 195.47 72.90 197.09 72.97 197.89 73.01 L 198.22 73.16 L 197.66 72.15 C 198.52 72.11 200.24 72.03 201.11 71.99 C 200.70 72.98 200.30 73.98 199.90 74.98 C 201.72 74.99 203.54 75.00 205.37 75.00 C 204.92 76.01 204.46 77.01 204.01 78.01 C 205.21 78.09 206.41 78.18 207.61 78.27 C 208.19 79.63 208.84 80.96 209.63 82.21 C 210.23 83.63 211.75 84.27 213.21 84.37 C 213.35 84.49 213.62 84.75 213.76 84.87 L 213.97 85.62 C 214.23 85.93 214.74 86.55 214.99 86.86 L 216.09 87.35 C 216.33 87.52 216.81 87.87 217.05 88.04 C 217.21 88.20 217.53 88.52 217.69 88.68 C 218.90 90.70 220.26 92.72 222.38 93.89 C 221.97 95.66 223.29 97.76 225.21 97.68 C 226.34 100.29 227.96 102.64 229.70 104.86 C 229.75 105.02 229.84 105.32 229.89 105.48 C 230.40 107.13 230.83 109.57 232.89 109.91 C 233.36 112.53 234.65 114.87 235.99 117.14 C 236.07 117.54 236.23 118.35 236.32 118.76 L 237.10 118.87 C 236.88 121.81 238.19 124.49 239.52 127.01 C 239.04 128.33 238.70 129.69 238.49 131.09 C 234.82 130.82 230.98 131.44 227.82 133.41 C 227.67 133.55 227.37 133.84 227.22 133.98 C 225.92 133.99 225.07 134.65 224.66 135.97 C 223.11 137.58 223.78 139.93 225.54 141.04 C 225.93 141.35 226.73 141.95 227.13 142.25 C 227.38 142.33 227.88 142.49 228.13 142.57 L 227.54 143.67 C 221.73 144.92 215.90 146.19 210.39 148.46 C 209.44 148.84 208.64 149.42 207.99 150.22 C 207.58 150.23 206.74 150.26 206.33 150.27 L 206.15 151.12 C 203.59 151.00 201.19 152.21 199.78 154.34 C 199.59 154.47 199.23 154.73 199.04 154.86 C 196.76 155.55 196.40 158.15 197.06 160.14 L 197.17 160.68 C 194.99 161.30 194.44 163.98 195.19 165.87 L 194.37 166.10 C 194.30 166.55 194.16 167.45 194.09 167.90 C 192.02 169.93 190.59 172.46 189.76 175.24 C 189.60 175.42 189.27 175.78 189.11 175.96 C 188.74 176.54 187.99 177.70 187.61 178.29 C 187.47 178.45 187.19 178.78 187.05 178.94 C 186.93 179.07 186.70 179.34 186.58 179.47 C 185.58 180.32 184.57 181.17 183.54 182.00 C 182.07 181.23 180.56 180.52 179.02 179.89 C 180.42 181.20 182.58 182.23 181.91 184.57 C 181.63 184.69 181.07 184.92 180.80 185.04 C 180.52 185.57 179.97 186.62 179.70 187.14 C 179.57 187.28 179.31 187.55 179.18 187.68 C 178.69 187.87 177.71 188.25 177.22 188.43 C 173.79 190.48 170.74 193.08 167.34 195.18 C 166.21 194.33 165.07 193.51 163.91 192.72 C 164.66 193.79 165.44 194.85 166.22 195.91 C 161.40 198.78 156.24 200.98 151.05 203.07 C 150.99 202.21 150.87 200.50 150.80 199.64 C 150.36 200.88 149.98 202.14 149.46 203.35 C 146.79 204.50 143.88 204.92 141.05 205.51 C 139.90 203.12 139.17 200.35 136.99 198.64 C 137.92 201.11 139.08 203.48 140.22 205.86 C 134.53 206.69 128.83 207.35 123.12 208.00 C 123.00 207.11 122.76 205.34 122.65 204.46 C 122.33 205.63 122.02 206.80 121.72 207.99 C 118.19 208.03 114.63 207.98 111.15 207.34 C 110.78 205.67 110.39 204.01 109.99 202.35 C 112.33 201.02 115.04 199.60 115.86 196.81 C 116.21 194.59 114.64 192.51 112.88 191.33 C 106.73 189.05 101.99 198.25 95.94 195.07 C 95.75 191.61 97.09 186.86 93.56 184.66 C 90.66 182.54 87.07 185.38 86.65 188.45 C 85.77 192.88 84.56 197.29 82.18 201.18 C 78.21 199.35 74.07 197.84 70.33 195.55 C 70.14 194.93 69.76 193.69 69.57 193.08 C 69.19 193.37 68.44 193.94 68.07 194.23 C 67.06 193.68 66.05 193.13 65.05 192.59 C 64.79 192.55 64.28 192.48 64.02 192.44 C 63.74 190.36 61.55 189.00 59.55 189.23 C 59.67 187.84 59.78 186.44 59.84 185.04 C 58.72 185.55 57.67 186.20 56.76 187.04 C 56.57 186.78 56.17 186.26 55.97 186.00 C 55.81 185.85 55.48 185.55 55.31 185.39 C 55.07 183.90 54.20 183.02 52.70 182.77 C 52.58 182.65 52.36 182.43 52.24 182.32 C 52.00 180.83 51.16 179.98 49.72 179.77 C 49.54 179.61 49.20 179.28 49.02 179.12 C 48.82 178.95 48.42 178.62 48.22 178.45 C 48.21 177.68 48.19 176.14 48.18 175.37 C 49.37 174.62 50.50 173.77 51.46 172.74 C 49.64 173.06 48.00 173.91 46.55 175.02 L 46.41 175.11 C 46.22 173.56 45.27 172.20 43.71 171.79 C 43.60 171.64 43.37 171.32 43.26 171.17 C 43.30 169.51 43.08 167.25 41.02 167.03 C 40.96 166.60 40.83 165.75 40.77 165.32 L 39.92 165.18 C 39.61 160.46 37.63 156.03 36.59 151.45 L 35.65 150.52 C 35.53 150.43 35.28 150.25 35.15 150.16 C 34.61 149.84 33.52 149.19 32.97 148.86 L 32.37 148.81 C 31.46 147.25 29.68 146.44 27.92 146.94 L 27.39 146.99 C 26.74 145.68 25.74 145.32 24.37 145.91 C 20.87 143.61 16.44 142.78 12.30 143.16 L 12.06 143.18 C 13.28 142.08 13.96 140.49 14.03 138.87 C 14.29 138.70 14.79 138.36 15.05 138.19 C 17.10 136.68 16.34 133.60 14.04 132.85 C 13.13 131.97 12.03 131.28 10.75 131.17 C 7.66 130.21 4.48 129.53 1.24 129.35 L 1.21 128.23 C 1.06 127.41 0.76 125.78 0.61 124.97 C 2.12 122.47 2.89 119.64 3.22 116.76 L 3.44 116.33 L 3.57 115.89 L 3.84 115.14 C 5.60 114.69 6.29 112.97 6.01 111.30 C 7.28 110.16 8.46 108.63 8.22 106.81 C 10.12 106.69 10.43 104.42 10.95 103.00 C 11.05 102.46 11.26 101.39 11.37 100.85 C 11.48 100.69 11.70 100.37 11.81 100.21 C 12.15 99.70 12.82 98.69 13.16 98.18 C 14.53 98.01 15.13 97.23 14.97 95.86 C 16.79 96.19 17.27 94.08 17.19 92.71 C 17.33 92.62 17.62 92.44 17.76 92.35 C 18.15 92.05 18.94 91.45 19.33 91.15 C 22.39 87.44 26.82 84.96 29.28 80.80 C 29.42 80.66 29.70 80.39 29.84 80.26 C 30.43 80.40 31.62 80.69 32.22 80.83 C 32.64 80.02 33.06 79.22 33.49 78.42 C 34.88 78.25 36.28 78.09 37.68 77.92 C 36.98 76.95 36.28 75.98 35.58 75.02 C 37.36 75.00 39.13 74.99 40.90 74.99 C 40.95 74.21 41.04 72.65 41.09 71.87 C 42.86 72.29 44.64 72.70 46.42 73.09 C 45.94 71.76 45.47 70.42 44.86 69.15 C 36.28 52.78 26.76 36.90 16.12 21.79 C 13.69 18.05 10.68 14.72 8.40 10.89 M 48.40 77.36 C 46.92 79.52 48.47 82.74 48.08 85.31 C 54.39 85.55 60.69 84.33 66.99 83.94 C 79.60 82.85 92.17 81.40 104.80 80.55 C 105.14 77.76 104.93 74.94 104.68 72.15 C 85.92 73.93 67.17 75.74 48.40 77.36 M 129.85 73.16 C 129.08 75.84 129.01 78.64 128.93 81.41 C 147.89 83.00 166.84 85.07 185.85 86.17 C 186.10 83.48 186.46 80.80 186.88 78.13 C 181.22 78.18 175.66 77.06 170.02 76.89 C 156.65 75.46 143.20 74.77 129.85 73.16 M 45.81 97.18 C 45.92 97.53 46.14 98.23 46.26 98.58 C 48.95 99.40 51.78 99.69 54.48 100.47 C 55.47 101.32 55.59 102.73 56.12 103.86 C 58.48 110.93 64.62 116.72 72.00 118.17 C 80.21 120.58 88.95 116.35 94.22 110.08 C 97.19 110.84 100.15 111.73 103.20 112.09 C 102.80 110.65 101.14 110.63 99.99 110.24 C 81.89 106.04 63.88 101.49 45.81 97.18 M 43.12 102.10 C 44.95 107.74 46.82 113.37 48.90 118.93 C 46.95 120.25 43.45 120.15 42.84 122.76 C 44.94 121.92 46.99 120.95 49.02 119.94 C 50.55 123.82 51.79 127.81 53.13 131.76 C 51.08 133.06 47.50 133.11 46.86 135.82 C 49.14 134.85 51.27 133.49 53.69 132.87 C 54.21 136.00 56.09 138.90 56.16 142.03 C 54.14 143.55 51.17 143.82 49.78 146.11 C 52.34 145.55 54.57 144.12 56.87 142.94 C 57.87 145.92 58.88 148.91 59.96 151.87 C 58.51 152.74 56.22 152.93 55.88 154.92 C 57.23 154.35 58.55 153.69 59.92 153.16 C 61.15 153.74 60.59 155.24 60.71 156.29 C 60.84 159.03 62.67 161.31 64.01 163.59 C 61.97 165.33 57.90 164.89 57.03 167.60 C 59.55 166.82 62.01 165.82 64.54 165.04 C 65.11 167.16 65.77 169.26 66.52 171.33 C 65.86 171.65 64.54 172.30 63.88 172.62 C 64.92 172.77 65.96 172.92 67.01 173.06 C 68.62 175.64 68.07 179.84 71.08 181.23 C 70.18 178.25 69.06 175.34 68.15 172.36 C 69.38 171.79 70.58 171.16 71.73 170.46 C 78.13 174.31 85.02 177.55 92.33 179.16 L 92.29 178.27 L 92.45 178.32 C 92.60 178.63 92.88 179.25 93.03 179.56 C 96.14 179.93 99.70 182.00 102.65 180.50 L 102.99 180.56 C 103.13 182.14 104.71 182.05 105.92 182.02 C 107.43 181.83 109.46 182.59 110.54 181.16 C 111.29 181.28 112.79 181.52 113.54 181.64 C 112.67 181.95 111.80 182.28 110.95 182.65 C 122.71 183.69 134.47 182.52 146.08 180.70 C 146.16 180.39 146.32 179.75 146.40 179.43 L 146.70 179.36 L 146.75 180.21 C 149.35 179.29 153.49 180.08 154.79 177.17 C 155.73 176.84 156.67 176.50 157.61 176.19 L 157.68 177.22 C 161.40 176.12 164.87 174.35 168.36 172.67 L 167.81 171.82 C 168.07 171.68 168.57 171.39 168.83 171.24 L 168.49 172.33 C 173.42 169.56 178.86 166.17 180.98 160.67 C 182.32 159.03 182.74 156.89 183.09 154.87 C 179.17 155.78 175.31 156.94 171.45 158.04 C 170.92 157.54 169.86 156.56 169.34 156.06 C 168.97 157.95 166.67 158.45 166.17 160.07 C 163.79 159.53 160.88 159.08 158.77 160.57 L 158.90 161.07 C 153.38 160.15 147.66 162.13 142.12 162.59 L 142.78 163.22 C 141.24 162.97 139.71 162.65 138.15 162.72 C 129.45 163.31 120.72 162.87 112.00 163.02 C 106.96 163.23 102.01 162.05 96.99 162.00 C 90.19 161.70 83.51 159.22 76.69 160.08 C 76.55 158.56 74.16 157.40 72.98 156.66 C 72.78 156.37 72.39 155.80 72.19 155.51 C 71.38 156.33 70.57 157.16 69.77 158.00 C 68.66 157.92 67.55 157.82 66.45 157.69 C 65.57 156.22 63.76 156.15 62.32 155.63 C 62.09 154.89 61.63 153.41 61.39 152.66 C 62.73 151.75 64.39 151.14 65.25 149.67 C 63.81 150.10 62.41 150.64 61.03 151.23 C 59.83 148.36 58.84 145.41 58.04 142.41 C 59.43 141.65 61.41 141.44 62.11 139.83 C 60.59 140.17 59.13 140.73 57.70 141.36 C 56.54 138.59 55.60 135.73 54.76 132.86 C 55.51 130.70 59.01 131.03 60.09 128.89 C 57.93 129.11 56.05 130.24 54.15 131.19 C 52.88 127.37 51.59 123.56 50.26 119.76 C 52.68 117.77 56.67 117.81 58.21 114.90 C 55.38 115.86 52.74 117.30 49.96 118.38 C 47.81 113.21 46.46 107.74 44.40 102.54 C 44.08 102.43 43.44 102.21 43.12 102.10 M 131.86 106.75 C 135.12 107.75 138.45 108.45 141.77 109.21 C 143.75 119.03 152.68 127.49 162.98 127.24 C 169.75 127.77 175.99 124.02 180.37 119.15 C 183.57 118.63 186.83 120.49 190.07 120.91 C 189.95 120.57 189.70 119.89 189.57 119.55 C 171.58 115.31 153.63 110.88 135.66 106.52 C 134.45 106.41 132.67 105.31 131.86 106.75 M 108.33 129.36 C 103.80 130.46 98.63 131.78 95.85 135.88 C 94.59 137.82 93.51 140.32 94.57 142.60 C 96.56 147.98 102.60 150.16 107.69 151.50 C 116.05 152.98 125.35 152.43 132.47 147.37 C 134.91 145.74 136.45 142.96 136.58 140.03 C 136.15 137.14 134.26 134.68 131.82 133.17 C 125.04 128.36 116.23 128.49 108.33 129.36 M 186.07 158.86 C 186.93 161.65 187.89 164.42 188.89 167.16 C 189.44 168.24 189.61 169.96 191.08 170.18 C 190.09 167.42 188.96 164.72 188.11 161.92 C 187.68 160.77 187.46 159.25 186.07 158.86 M 172.25 188.16 C 172.51 191.54 175.18 186.78 172.25 188.16 Z" />
<path fill="#656566" opacity="1.00" d=" M 68.22 158.85 L 68.54 158.93 C 69.47 160.54 67.23 163.71 65.94 161.52 C 66.74 160.66 67.50 159.77 68.22 158.85 Z" />
<path fill="#656566" opacity="1.00" d=" M 171.09 158.89 C 171.36 158.87 171.90 158.84 172.16 158.82 C 173.37 160.02 174.73 161.32 175.06 163.06 C 172.83 163.37 172.03 160.42 171.09 158.89 Z" />
<path fill="#656566" opacity="1.00" d=" M 175.85 161.74 C 177.05 160.08 179.33 159.77 181.01 158.74 C 181.00 159.22 180.99 160.18 180.98 160.67 C 180.65 160.97 179.97 161.58 179.64 161.89 L 180.18 160.30 C 178.82 161.10 177.38 161.58 175.85 161.74 Z" />
<path fill="#656566" opacity="1.00" d=" M 74.60 160.03 L 75.12 160.29 C 75.07 160.87 74.95 162.04 74.90 162.62 C 77.43 160.86 78.47 163.84 79.37 165.70 C 81.13 166.28 82.96 166.80 84.42 167.99 C 80.84 167.83 77.74 166.12 76.37 162.71 C 75.99 163.56 75.24 165.24 74.86 166.08 C 73.76 164.22 74.35 161.98 74.47 159.97 L 74.60 160.03 Z" />
<path fill="#656566" opacity="1.00" d=" M 167.89 160.23 L 168.50 160.17 C 168.61 160.72 168.84 161.82 168.95 162.38 C 168.47 163.52 168.01 164.66 167.56 165.82 C 167.29 165.22 166.74 164.02 166.47 163.43 C 165.32 164.08 164.99 165.33 164.62 166.51 C 160.20 167.52 155.80 168.57 151.49 170.01 C 154.78 166.97 159.57 167.14 163.62 165.83 C 164.14 163.52 166.02 162.56 168.24 162.40 C 168.15 161.86 167.97 160.78 167.89 160.23 Z" />
<path fill="#656566" opacity="1.00" d=" M 67.01 167.34 C 68.28 167.40 71.35 169.87 68.97 170.76 C 67.21 171.26 66.45 168.58 67.01 167.34 Z" />
<path fill="#656566" opacity="1.00" d=" M 88.35 186.45 C 89.29 184.84 91.28 185.03 92.87 184.81 C 95.94 187.35 94.69 191.44 95.22 194.88 C 95.99 195.76 96.91 196.74 98.15 196.84 C 103.46 196.28 107.34 191.26 112.89 191.85 C 114.05 193.63 116.10 195.95 114.40 198.08 C 111.10 202.17 105.12 202.73 101.88 206.92 C 104.33 205.65 106.68 204.21 109.06 202.82 C 109.71 204.45 110.36 206.18 110.03 207.97 C 108.86 209.94 107.10 211.47 105.76 213.32 C 107.29 212.29 108.69 211.08 110.05 209.84 C 112.44 212.99 109.10 215.90 106.90 217.88 C 103.91 220.94 99.30 220.64 95.45 221.67 C 92.61 222.43 89.62 222.12 87.19 220.41 C 78.97 223.65 70.17 225.16 61.38 225.66 C 58.23 226.17 54.96 223.29 55.24 220.07 C 55.48 216.38 56.54 212.80 57.03 209.13 C 58.43 205.73 59.80 202.31 60.90 198.79 C 62.89 199.09 64.21 197.14 64.12 195.34 C 64.94 195.33 66.57 195.31 67.39 195.30 C 66.17 196.84 64.86 198.30 63.77 199.94 C 65.00 199.09 66.19 198.17 67.38 197.25 C 68.75 199.11 70.32 200.86 71.32 202.96 C 70.85 206.06 70.56 209.42 69.10 212.21 C 66.21 213.55 62.67 212.81 59.85 214.50 C 68.55 213.56 77.33 211.86 85.27 208.08 C 83.70 208.35 82.14 208.67 80.59 209.00 C 81.40 205.12 82.87 201.43 84.75 197.95 C 86.72 194.37 86.64 190.11 88.35 186.45 Z" />
<path fill="#656566" opacity="1.00" d=" M 168.04 196.12 C 169.59 194.84 171.10 193.41 172.99 192.64 C 174.89 193.82 176.38 195.52 178.04 196.99 C 177.52 198.58 178.93 199.85 180.33 200.23 C 180.44 200.37 180.65 200.65 180.76 200.79 C 180.89 202.10 181.19 204.18 182.94 204.17 C 182.40 205.73 183.36 207.73 185.10 207.92 L 184.80 208.73 C 185.13 209.04 185.78 209.66 186.11 209.97 C 186.53 213.23 187.69 216.29 189.13 219.22 C 189.68 221.42 190.43 223.61 191.90 225.39 C 191.38 226.59 191.73 227.50 192.95 228.11 L 192.99 228.35 C 193.24 231.93 194.10 235.44 194.17 239.04 C 194.94 239.00 196.47 238.92 197.24 238.89 C 196.87 240.62 198.63 241.81 200.20 241.64 C 200.05 243.17 200.73 244.04 202.23 244.24 L 202.26 244.45 C 202.51 246.87 203.27 249.21 204.52 251.30 C 204.62 251.45 204.83 251.76 204.93 251.92 C 204.12 253.22 204.06 254.57 204.75 255.96 C 205.46 260.04 204.93 264.18 204.08 268.20 C 203.46 268.92 202.84 269.63 202.21 270.34 C 200.84 269.86 199.40 269.61 197.95 269.60 L 197.09 269.55 C 196.87 269.94 196.43 270.72 196.21 271.11 C 194.68 270.92 193.24 271.54 191.92 272.21 C 191.59 271.86 190.93 271.15 190.60 270.79 C 192.65 266.99 195.20 261.73 192.48 257.73 C 192.85 260.73 192.82 263.82 191.72 266.69 C 190.99 269.63 188.26 271.26 186.23 273.25 C 185.63 272.73 185.03 272.23 184.42 271.74 C 183.81 270.74 183.19 269.76 182.48 268.84 C 183.32 266.21 182.79 263.43 182.74 260.75 C 182.03 261.33 180.61 262.50 179.91 263.09 C 177.97 263.39 176.01 263.65 174.10 264.12 C 173.85 263.73 173.33 262.96 173.08 262.58 L 172.26 262.82 C 173.61 261.40 173.13 259.26 172.55 257.63 C 172.61 257.51 172.73 257.25 172.79 257.13 C 173.04 257.19 173.53 257.30 173.78 257.36 C 175.17 253.65 175.10 249.67 175.26 245.78 C 175.38 245.63 175.62 245.34 175.74 245.19 C 176.10 244.97 176.80 244.52 177.16 244.30 L 176.90 243.06 C 177.19 242.87 177.76 242.48 178.04 242.29 C 178.19 242.02 178.47 241.47 178.61 241.19 C 180.19 241.11 181.73 241.45 183.19 242.04 C 182.78 237.35 182.51 232.30 179.81 228.26 L 179.91 227.89 C 180.64 225.98 179.97 223.44 177.91 222.72 L 178.02 222.20 C 178.68 220.70 177.94 219.09 176.71 218.17 C 176.71 216.97 176.18 216.11 175.11 215.61 C 174.87 215.23 174.39 214.47 174.15 214.09 C 173.84 213.83 173.21 213.30 172.89 213.04 C 172.60 212.57 172.01 211.63 171.71 211.16 C 171.39 210.66 170.74 209.68 170.42 209.18 C 169.61 205.15 164.75 201.81 167.33 197.53 C 168.77 199.27 169.90 201.22 171.06 203.16 C 170.96 200.49 169.36 198.31 168.04 196.12 M 197.94 269.28 C 200.88 266.44 200.91 261.68 200.83 257.85 C 199.55 261.49 199.52 265.62 197.94 269.28 Z" />
<path fill="#656566" opacity="1.00" d=" M 72.22 203.79 C 74.73 205.63 77.25 207.49 79.34 209.82 C 76.44 210.69 73.53 211.48 70.59 212.18 C 70.98 209.35 71.71 206.59 72.22 203.79 Z" />
<path fill="#656566" opacity="1.00" d=" M 145.94 221.85 C 153.96 217.35 159.75 209.97 164.89 202.54 C 167.55 209.70 168.30 217.38 168.89 224.95 C 169.62 234.73 167.79 244.44 165.82 253.98 C 165.57 254.30 165.08 254.94 164.83 255.26 L 165.28 255.98 C 162.84 258.26 161.44 261.42 160.53 264.58 C 160.40 264.65 160.13 264.78 160.00 264.84 C 158.59 265.62 158.62 266.28 160.11 266.81 C 159.72 268.33 160.74 269.97 162.27 270.29 C 161.91 271.63 162.38 272.58 163.67 273.13 C 165.31 276.22 166.99 279.31 167.89 282.73 C 167.69 283.02 167.29 283.59 167.09 283.88 L 166.97 282.76 C 164.13 286.61 161.90 290.86 159.25 294.83 C 163.56 292.60 168.20 295.11 172.62 294.51 L 172.78 294.49 C 173.00 295.68 173.75 296.18 175.03 295.99 L 175.80 296.02 C 176.23 297.91 178.20 298.51 179.91 298.04 C 180.19 298.24 180.75 298.63 181.03 298.83 C 181.53 299.16 182.54 299.84 183.04 300.18 C 183.14 300.27 183.36 300.44 183.47 300.53 C 185.41 303.68 188.58 306.47 188.31 310.51 C 185.72 308.05 183.66 304.68 179.96 303.81 C 182.77 306.04 185.88 308.18 187.49 311.52 C 188.27 312.86 186.94 314.31 186.72 315.64 C 186.38 315.99 186.01 316.32 185.61 316.63 C 184.96 316.75 183.67 316.99 183.02 317.11 C 181.25 312.51 178.64 307.69 173.79 305.81 C 177.76 308.93 181.05 312.89 182.35 317.87 C 179.28 318.82 176.14 319.51 172.98 320.08 C 171.79 314.75 169.15 309.18 163.92 306.82 C 167.84 310.41 171.24 314.67 172.25 320.04 C 165.10 320.92 158.77 317.27 152.26 315.10 L 152.17 315.02 C 150.43 312.99 148.11 311.65 145.66 310.65 C 145.57 310.56 145.39 310.39 145.30 310.31 C 143.58 307.16 141.72 303.20 143.68 299.72 C 144.97 296.85 148.02 295.61 150.79 294.65 C 152.51 291.66 155.19 288.98 155.71 285.49 C 155.77 285.41 155.87 285.26 155.92 285.19 C 158.08 283.43 159.07 280.78 160.23 278.35 C 159.72 278.58 158.70 279.04 158.19 279.28 C 155.41 275.17 153.42 270.45 149.91 266.88 C 150.59 268.26 151.33 269.60 152.10 270.94 C 139.10 278.60 123.45 280.34 108.67 278.73 C 102.14 277.94 95.92 275.81 89.67 273.87 C 88.83 272.59 87.43 271.53 85.84 271.60 C 84.84 272.55 84.16 273.71 83.79 275.09 C 83.69 275.25 83.50 275.58 83.40 275.74 C 82.15 276.34 81.26 277.27 80.73 278.52 C 80.34 278.45 79.56 278.29 79.17 278.21 C 78.02 279.19 79.42 281.15 80.72 280.94 C 80.47 282.32 81.02 283.40 82.38 284.18 C 82.47 284.32 82.65 284.58 82.75 284.71 C 82.87 286.50 83.44 288.93 85.65 289.04 L 85.36 289.87 C 85.69 290.17 86.34 290.78 86.66 291.09 C 86.86 291.62 87.25 292.70 87.45 293.23 C 88.41 295.28 90.91 295.20 92.63 296.25 C 95.22 297.91 97.44 300.82 97.01 304.06 C 96.70 307.70 93.32 309.87 91.40 312.68 C 91.28 312.71 91.02 312.78 90.90 312.81 C 88.93 313.13 86.45 313.95 85.97 316.16 C 85.69 316.24 85.12 316.41 84.84 316.50 C 79.19 317.84 73.76 320.53 67.81 320.03 C 68.84 314.61 72.47 310.53 76.25 306.79 C 70.58 308.53 68.19 314.74 66.66 319.94 C 63.51 319.18 59.99 319.08 57.46 316.80 C 55.78 316.16 54.10 315.48 52.44 314.78 C 52.21 314.47 51.75 313.85 51.52 313.54 C 53.21 308.99 57.51 306.60 60.46 303.06 C 57.03 304.32 54.57 307.07 51.82 309.32 C 52.38 306.38 54.25 303.96 55.57 301.34 C 55.70 301.23 55.95 301.00 56.07 300.89 C 56.24 300.74 56.58 300.44 56.75 300.28 C 57.35 299.90 58.55 299.13 59.15 298.74 C 59.32 298.62 59.65 298.36 59.82 298.24 C 60.38 297.95 61.50 297.38 62.07 297.10 C 62.50 297.01 63.37 296.84 63.81 296.75 L 64.01 295.93 C 65.42 296.63 66.45 296.29 67.10 294.92 L 67.55 294.90 C 71.78 294.56 76.14 293.08 80.20 295.10 C 79.54 294.16 78.87 293.22 78.26 292.25 C 78.08 290.83 77.34 290.03 76.05 289.87 C 75.96 289.39 75.79 288.45 75.70 287.97 C 75.62 287.83 75.47 287.53 75.39 287.39 C 75.08 286.03 74.32 285.16 73.08 284.80 C 73.39 282.90 72.50 280.91 70.85 279.92 L 71.70 279.82 C 71.84 279.41 72.13 278.58 72.27 278.17 C 72.57 277.84 73.16 277.20 73.46 276.88 L 73.12 276.08 C 74.71 276.35 75.45 274.59 75.32 273.28 C 76.52 272.68 77.50 271.45 77.17 270.03 C 78.47 269.48 79.10 268.18 79.55 266.94 C 80.26 266.29 80.78 265.53 81.10 264.65 C 80.88 262.48 78.31 264.86 79.15 266.14 C 78.64 265.84 77.61 265.25 77.09 264.96 C 77.24 262.93 75.89 260.77 74.00 260.04 L 74.26 259.28 C 73.98 258.99 73.41 258.40 73.13 258.10 C 72.12 253.73 70.48 249.51 69.82 245.05 C 68.58 238.70 68.95 232.20 68.93 225.78 C 75.24 224.76 81.57 223.58 87.48 221.05 C 91.16 225.78 97.21 219.75 101.25 223.45 C 108.23 227.63 115.67 231.10 123.42 233.59 C 124.68 234.12 126.09 234.06 127.23 233.27 C 133.64 229.76 139.55 225.41 145.94 221.85 M 112.08 260.96 C 113.11 263.07 115.80 265.43 118.22 264.55 C 115.83 263.89 113.17 262.81 112.37 260.21 C 110.81 257.44 113.17 254.75 115.06 252.91 C 118.01 252.45 120.90 252.92 123.07 255.08 C 121.71 252.06 117.99 251.56 115.14 252.41 C 112.18 253.91 110.24 257.92 112.08 260.96 M 116.63 256.28 C 118.40 257.94 116.83 259.89 116.25 261.71 C 117.44 261.00 118.40 259.92 119.66 259.34 C 120.23 260.10 120.58 261.61 121.68 261.67 C 121.62 260.13 120.98 258.61 121.61 257.08 C 121.40 257.14 121.00 257.26 120.79 257.32 L 120.11 257.94 C 118.30 259.31 117.36 257.75 116.63 256.28 M 121.61 257.08 C 121.91 256.94 121.91 256.94 121.61 257.08 M 57.88 315.16 C 59.95 313.42 60.63 310.53 62.76 308.83 C 63.79 307.78 65.44 307.23 65.95 305.76 C 62.14 307.61 59.22 311.16 57.88 315.16 Z" />
<path fill="#656566" opacity="1.00" d=" M 119.96 280.01 C 131.39 280.51 142.72 277.16 152.73 271.80 C 154.49 274.85 156.50 277.75 158.13 280.87 C 153.54 280.44 149.20 278.80 144.74 277.72 C 144.86 283.07 149.02 286.93 152.53 290.44 C 152.28 290.87 151.76 291.73 151.50 292.16 C 145.93 292.64 140.85 290.44 135.68 288.81 C 137.01 292.90 140.65 295.38 144.33 297.18 C 144.09 297.38 143.62 297.78 143.38 297.98 C 140.58 298.03 137.79 297.95 135.00 297.90 C 134.47 297.62 133.43 297.07 132.90 296.79 C 132.75 296.54 132.44 296.05 132.29 295.80 C 132.02 295.63 131.47 295.30 131.20 295.13 L 130.26 295.00 C 130.12 293.61 129.36 292.92 128.00 292.94 C 128.37 291.06 126.77 289.22 124.91 289.12 C 124.67 288.66 124.19 287.74 123.95 287.27 C 123.72 285.58 123.07 283.09 120.93 283.14 C 120.62 282.09 120.30 281.04 119.96 280.01 Z" />
</g>
<g id="#989899ff">
<path fill="#989899" opacity="1.00" d=" M 195.92 71.80 C 206.33 51.54 218.12 31.90 232.04 13.85 L 232.01 16.05 L 231.98 16.11 C 230.07 18.86 229.29 22.15 228.19 25.26 C 228.18 25.69 228.17 26.54 228.16 26.97 C 227.46 27.74 226.95 28.61 226.61 29.59 C 224.46 35.61 222.52 41.70 220.14 47.63 C 217.59 46.78 214.44 46.60 212.68 49.03 C 212.52 49.18 212.22 49.47 212.06 49.62 C 209.04 51.78 208.58 56.27 210.66 59.24 C 211.66 60.97 213.37 62.01 214.99 63.07 C 213.13 68.17 211.15 73.24 209.71 78.48 C 208.42 77.90 207.12 77.33 205.81 76.77 C 206.17 76.34 206.87 75.47 207.22 75.04 C 205.39 74.27 203.43 73.99 201.47 73.88 C 201.68 73.17 202.11 71.74 202.32 71.03 C 200.56 71.05 198.81 71.07 197.06 71.10 L 197.66 72.15 L 198.22 73.16 L 197.89 73.01 C 197.40 72.71 196.41 72.10 195.92 71.80 Z" />
<path fill="#989899" opacity="1.00" d=" M 9.33 14.94 C 11.26 15.83 12.12 17.90 13.36 19.49 C 25.34 36.19 36.00 53.82 45.34 72.12 C 43.28 71.03 41.01 70.88 38.75 71.12 C 39.10 72.14 39.54 73.12 40.09 74.05 C 37.93 73.88 35.74 74.07 33.84 75.19 C 34.20 75.59 34.92 76.39 35.28 76.79 C 33.97 77.19 32.77 77.80 31.68 78.62 C 24.38 57.34 16.71 36.19 9.33 14.94 Z" />
<path fill="#989899" opacity="1.00" d=" M 181.18 269.03 L 182.48 268.84 C 182.49 269.46 182.50 270.70 182.50 271.32 L 182.47 271.69 C 182.27 273.14 182.08 274.60 181.92 276.06 C 180.90 276.77 180.61 277.77 181.04 279.07 C 179.68 283.71 178.13 288.32 175.63 292.49 C 175.47 292.63 175.16 292.92 175.00 293.06 C 174.44 293.42 173.33 294.14 172.78 294.49 L 172.62 294.51 C 169.16 293.35 165.54 292.76 161.89 293.11 C 162.64 289.58 165.39 286.96 167.09 283.88 C 167.29 283.59 167.69 283.02 167.89 282.73 C 167.90 281.82 167.92 280.01 167.93 279.11 C 167.22 277.96 166.53 276.80 165.86 275.64 L 166.63 275.67 C 167.14 275.68 168.16 275.70 168.68 275.71 C 172.77 274.38 176.32 271.91 179.88 269.56 L 180.43 269.34 C 180.61 269.26 180.99 269.11 181.18 269.03 Z" />
<path fill="#989899" opacity="1.00" d=" M 144.74 277.72 C 149.20 278.80 153.54 280.44 158.13 280.87 C 157.41 282.32 156.66 283.75 155.92 285.19 C 155.87 285.26 155.77 285.41 155.71 285.49 C 154.61 287.11 153.54 288.76 152.53 290.44 C 149.02 286.93 144.86 283.07 144.74 277.72 Z" />
<path fill="#989899" opacity="1.00" d=" M 135.68 288.81 C 140.85 290.44 145.93 292.64 151.50 292.16 C 151.27 292.51 150.81 293.22 150.59 293.58 C 148.39 294.57 146.13 295.52 144.33 297.18 C 140.65 295.38 137.01 292.90 135.68 288.81 Z" />
<path fill="#989899" opacity="1.00" d=" M 135.00 297.90 C 137.79 297.95 140.58 298.03 143.38 297.98 C 142.82 299.37 142.30 300.78 141.80 302.19 C 139.88 301.42 137.96 300.65 136.04 299.89 C 135.78 299.56 135.25 298.90 134.98 298.57 L 135.00 297.90 Z" />
</g>
<g id="#dc9c83ff">
<path fill="#dc9c83" opacity="1.00" d=" M 165.49 30.11 C 165.80 29.93 166.41 29.58 166.72 29.40 C 167.05 29.91 167.72 30.91 168.05 31.42 C 167.33 35.47 165.61 39.63 162.09 42.02 C 158.05 44.90 152.97 45.41 148.25 46.39 C 132.66 49.36 117.17 53.03 101.46 55.20 L 101.21 56.26 C 101.18 56.41 101.11 56.70 101.07 56.84 L 100.81 56.73 C 96.40 54.77 91.57 57.54 86.96 57.28 L 87.64 58.24 L 88.14 58.96 L 87.95 58.90 C 79.64 56.31 70.79 60.52 62.32 58.67 C 59.85 57.71 57.06 56.45 56.01 53.82 C 54.66 51.01 56.38 48.04 57.26 45.37 C 59.30 48.41 61.71 51.42 65.46 52.33 C 65.58 52.35 65.84 52.39 65.97 52.41 C 70.12 53.04 74.39 52.88 78.57 52.52 C 82.38 52.10 86.12 51.24 89.86 50.44 C 91.12 50.71 92.15 50.36 92.95 49.39 C 98.12 49.19 103.03 46.28 108.23 47.47 C 113.36 47.70 117.33 44.19 122.06 42.91 C 127.79 42.39 133.34 40.78 138.98 39.70 C 145.30 38.28 151.73 37.29 157.93 35.38 C 160.98 34.50 163.28 32.26 165.49 30.11 Z" />
<path fill="#dc9c83" opacity="1.00" d=" M 113.21 45.78 C 113.37 45.73 113.71 45.63 113.87 45.59 C 113.71 45.63 113.37 45.73 113.21 45.78 Z" />
<path fill="#dc9c83" opacity="1.00" d=" M 108.44 46.57 C 108.56 46.55 108.80 46.53 108.92 46.51 C 108.80 46.53 108.56 46.55 108.44 46.57 Z" />
</g>
<g id="#fefefdff">
<path fill="#fefefd" opacity="1.00" d=" M 56.35 100.90 C 61.44 102.28 66.59 103.41 71.70 104.71 C 71.65 106.45 72.03 108.72 74.07 109.15 C 76.26 110.00 78.16 108.32 79.08 106.48 C 83.64 107.63 88.24 108.64 92.79 109.86 C 88.08 115.43 80.40 118.68 73.14 117.16 C 64.74 116.04 58.23 108.94 56.35 100.90 Z" />
<path fill="#fefefd" opacity="1.00" d=" M 142.98 109.60 C 147.39 110.57 151.79 111.63 156.16 112.79 C 155.16 115.67 157.91 118.45 160.77 118.03 C 161.85 117.08 162.94 116.08 163.32 114.61 C 168.77 115.56 174.04 117.32 179.48 118.28 C 174.37 124.89 164.99 127.80 157.05 125.12 C 149.89 123.05 144.86 116.60 142.98 109.60 Z" />
<path fill="#fefefd" opacity="1.00" d=" M 100.00 133.10 C 102.76 132.77 106.42 132.35 108.05 135.21 C 108.22 135.64 108.58 136.51 108.76 136.94 C 108.01 138.58 106.46 139.47 104.95 140.30 C 102.44 140.44 99.32 140.61 97.70 138.27 C 95.77 136.37 98.10 133.87 100.00 133.10 Z" />
<path fill="#fefefd" opacity="1.00" d=" M 61.34 156.46 C 63.72 157.00 66.03 157.79 68.22 158.85 C 67.50 159.77 66.74 160.66 65.94 161.52 C 67.23 163.71 69.47 160.54 68.54 158.93 C 70.21 158.60 71.51 157.43 72.98 156.66 C 73.25 157.90 73.79 159.03 74.60 160.03 L 74.47 159.97 C 74.35 161.98 73.76 164.22 74.86 166.08 C 75.24 165.24 75.99 163.56 76.37 162.71 C 77.74 166.12 80.84 167.83 84.42 167.99 C 82.96 166.80 81.13 166.28 79.37 165.70 C 78.47 163.84 77.43 160.86 74.90 162.62 C 74.95 162.04 75.07 160.87 75.12 160.29 C 75.51 160.23 76.30 160.13 76.69 160.08 C 98.44 164.08 120.74 165.07 142.78 163.22 C 148.19 162.84 153.58 162.15 158.90 161.07 C 161.34 160.99 163.84 160.86 166.17 160.07 C 166.60 160.11 167.46 160.19 167.89 160.23 C 167.97 160.78 168.15 161.86 168.24 162.40 C 166.02 162.56 164.14 163.52 163.62 165.83 C 159.57 167.14 154.78 166.97 151.49 170.01 C 155.80 168.57 160.20 167.52 164.62 166.51 C 164.99 165.33 165.32 164.08 166.47 163.43 C 166.74 164.02 167.29 165.22 167.56 165.82 C 168.01 164.66 168.47 163.52 168.95 162.38 C 168.84 161.82 168.61 160.72 168.50 160.17 C 168.77 159.60 169.31 158.45 169.58 157.88 C 169.96 158.13 170.71 158.64 171.09 158.89 C 172.03 160.42 172.83 163.37 175.06 163.06 C 174.73 161.32 173.37 160.02 172.16 158.82 C 175.54 157.96 178.89 157.04 182.19 155.93 C 181.90 156.63 181.30 158.03 181.01 158.74 C 179.33 159.77 177.05 160.08 175.85 161.74 C 177.38 161.58 178.82 161.10 180.18 160.30 L 179.64 161.89 C 176.80 165.79 172.96 168.80 168.83 171.24 C 168.57 171.39 168.07 171.68 167.81 171.82 C 164.56 173.59 161.14 175.05 157.61 176.19 C 156.67 176.50 155.73 176.84 154.79 177.17 C 152.15 178.09 149.44 178.79 146.70 179.36 L 146.40 179.43 C 135.62 181.57 124.52 182.58 113.54 181.64 C 112.79 181.52 111.29 181.28 110.54 181.16 C 108.02 181.06 105.49 181.00 102.99 180.56 L 102.65 180.50 C 99.23 179.89 95.81 179.24 92.45 178.32 L 92.29 178.27 C 88.14 177.12 84.07 175.68 80.14 173.93 C 72.20 170.44 64.07 165.19 61.34 156.46 Z" />
<path fill="#fefefd" opacity="1.00" d=" M 165.10 273.92 C 166.39 273.68 167.67 273.68 168.96 273.91 C 168.39 274.75 167.61 275.34 166.63 275.67 L 165.86 275.64 C 165.67 275.21 165.29 274.35 165.10 273.92 Z" />
</g>
</svg>
