<svg height="633pt" viewBox="0 0 363 633" width="363pt" xmlns="http://www.w3.org/2000/svg"><path d="m59.76 138.75c11.01-4.3 23.9-2.67 33.79 3.67 5.75 3.93 10.26 9.42 13.97 15.27-3.28 2.6-6.43 5.36-9.39 8.33.02-4.68.63-9.37.22-14.04-.02-2.12-2.4-3.55-4.33-2.95-5.77 1.46-10.95 4.99-14.6 9.68-8.96-.83-18.35.17-26.39 4.46-10.18 4.94-16.74 14.51-24.68 22.19-8.86 8.42-14.64 20.31-14.54 32.66-.59 19.42 13.6 38.08 32.5 42.64 6.59 2.07 13.54 1.52 20.31.87-2.33 2.39-5.15 4.91-5.17 8.55-.56 9.66 8.99 18.75 18.61 17.77 4.01-.3 6.48-3.75 8.99-6.44-.16 3.82-.59 7.64-.57 11.48.61 13.14 7.43 25.81 18.18 33.44 13.48 9.94 32.8 10.97 47.28 2.56 9.23-5.08 15.31-13.96 22.74-21.15 8.19-7.76 13.96-18.4 14.53-29.8.53-4.27-.5-8.54-.22-12.79 3.52-4.21 7.33-8.57 8.24-14.2.78-2.03-.99-4.55-3.19-4.33-4.76 0-9.47.8-14.21.99 2.71-3.01 5.45-6.05 7.46-9.59.96.25 1.92.53 2.87.81 4.83 2.21 9.01 5.54 13.07 8.91 7.01 5.95 11.25 15.06 11.11 24.28.32 9.58-3.98 18.96-10.67 25.7-10.54 11.14-21.29 22.09-31.78 33.27-8.7 8.63-16.51 18.08-25.2 26.72-1.55 1.93-4.3 3.48-4.13 6.26.36 25.68 1.74 51.35 2.09 77.03.42 6.9-5.76 13.03-12.6 12.8-6.88-.41-13.15-3.68-19.26-6.57-12.87-6-23.77-15.5-32.99-26.16-2.46-2.69-4.02-6.18-6.78-8.56-6.31 1.03-12.52 2.66-18.92 3.1-19.1 2.02-38.66-1.4-56.1-9.38v-54.38c4.81 7.08 15.5 10.86 22.79 5.28-2.03-3.81-5.57-6.37-8.59-9.32-4.67-4.45-9.24-9-14.2-13.13v-12.94c5.71 4.98 14.63 6.45 21.09 2.03-.51-1.34-1-2.75-2.09-3.74-6.3-6.11-12.79-12.02-19-18.21v-104.69c10.03-10.6 20.29-21.01 30.14-31.77 5.16-4.96 10.21-10.07 14.74-15.63 4.08-4.69 8.96-8.83 14.88-10.98m-26.58 196.54c-3.12 2.41-2.6 7.13-2.36 10.65 1.25 11.09 15.49 18.1 24.83 11.73 1.37-2.03-1.1-3.72-2.32-5.03-6.31-5.68-12.14-11.91-18.64-17.35-.38 0-1.13 0-1.51 0z" fill="#58cc02"/><path d="m116.89 195.36c.5-5.99.46-12.01.88-18.01 4.08 9.04 8.1 18.14 13.26 26.64 4.22 5.49 9.43 10.01 14.76 14.38 5.75 3.44 11.98 6.02 18.16 8.61.54.31 1.63.94 2.17 1.25l1.27.14c-12.66 2.26-27.41 1.72-37.55-7.17-7.72-6.32-12.2-15.97-12.95-25.84z" fill="#58cc02"/><g fill="#8ee000"><path d="m79.42 158.71c3.65-4.69 8.83-8.22 14.6-9.68 1.93-.6 4.31.83 4.33 2.95.41 4.67-.2 9.36-.22 14.04 2.96-2.97 6.11-5.73 9.39-8.33 3.17-.68 6.84-3.51 9.84-.97 1.78 6.7 0 13.78.41 20.63-.42 6-.38 12.02-.88 18.01-2.45-5.68-3.52-12-7.23-17.08-6.77-10.4-18.17-17.22-30.24-19.57z"/><path d="m0 301.82c6.21 6.19 12.7 12.1 19 18.21 1.09.99 1.58 2.4 2.09 3.74-6.46 4.42-15.38 2.95-21.09-2.03z"/><path d="m0 334.68c4.96 4.13 9.53 8.68 14.2 13.13 3.02 2.95 6.56 5.51 8.59 9.32-7.29 5.58-17.98 1.8-22.79-5.28z"/><path d="m33.18 335.29h1.51c6.5 5.44 12.33 11.67 18.64 17.35 1.22 1.31 3.69 3 2.32 5.03-9.34 6.37-23.58-.64-24.83-11.73-.24-3.52-.76-8.24 2.36-10.65z"/></g><path d="m30.14 165.36c4.39-5.66 9.6-10.65 14.74-15.63-4.53 5.56-9.58 10.67-14.74 15.63z" fill="#3f781c" opacity=".56"/><path d="m53.03 163.17c8.04-4.29 17.43-5.29 26.39-4.46 12.07 2.35 23.47 9.17 30.24 19.57 3.71 5.08 4.78 11.4 7.23 17.08.75 9.87 5.23 19.52 12.95 25.84 10.14 8.89 24.89 9.43 37.55 7.17 6.94.09 13.8-1.2 20.73-1.37 2.31.04 4.3 2.55 3.44 4.8-.45 2.42-3.01 5.88.6 7.03-.95-.28-1.91-.56-2.87-.81-2.01 3.54-4.75 6.58-7.46 9.59 4.74-.19 9.45-.99 14.21-.99 2.2-.22 3.97 2.3 3.19 4.33-.91 5.63-4.72 9.99-8.24 14.2-.28 4.25.75 8.52.22 12.79-.57 11.4-6.34 22.04-14.53 29.8-7.43 7.19-13.51 16.07-22.74 21.15-14.48 8.41-33.8 7.38-47.28-2.56-10.75-7.63-17.57-20.3-18.18-33.44-.02-3.84.41-7.66.57-11.48 3.58-3.88 7.23-7.68 10.93-11.44 1.2.91 2.51 1.67 3.81 2.45.2.13.6.39.81.52 1.55-3.79 2.67-7.83 2.36-11.97-.32-8.33-6.04-16.39-14.08-18.92-4.18-1.55-8.74-1.03-13.02-.21 5.35-4.61 9.93-10.04 14.82-15.13 7.81-8.22 10.47-20.89 6.52-31.54-1.02-2.82-2.48-5.45-4.18-7.91-3.9-4.89-9.05-8.96-15.09-10.82-8.65-2.92-18.6-1.7-26.27 3.27-4.88 2.96-8.39 7.57-12.3 11.63-2.88 3.14-6.14 5.99-8.39 9.65-4.69 7.45-6.22 17.01-3.46 25.44 2.26 7.99 8.19 14.68 15.47 18.55 8.11 4.08 18.13 4.46 26.4.61l1.05-.3c1.02 1.66 2.07 3.32 3.12 4.96-3.68 3.73-7.27 7.54-10.93 11.28-6.77.65-13.72 1.2-20.31-.87-18.9-4.56-33.09-23.22-32.5-42.64-.1-12.35 5.68-24.24 14.54-32.66 7.94-7.68 14.5-17.25 24.68-22.19m71.03 89c-4.68 4.29-8.74 9.2-13.17 13.73-6.25 6.31-9.36 15.43-8.69 24.25.85 6.98 3.71 13.86 8.79 18.82 6.38 6.63 15.93 9.99 25.06 8.99 7.56-.69 14.74-4.41 19.85-9.99 3.59-3.79 7.16-7.59 10.74-11.38 7.58-7.96 10.44-20.22 6.8-30.64-2.06-7.23-7.4-13.04-13.56-17.1-5.84-3.19-12.6-4.74-19.23-3.9-6.11.63-11.9 3.31-16.59 7.22z" fill="#89e219"/><path d="m55.66 179.71c7.67-4.97 17.62-6.19 26.27-3.27 6.04 1.86 11.19 5.93 15.09 10.82-5-1.46-10.91-.78-14.78 2.94-3.35 3.34-6.43 6.94-9.8 10.26-3.34 2.92-5.55 7.09-5.51 11.6-.29 8.27 7.87 15.53 16.08 14.07 7.69-.69 11.58-8.16 16.72-12.89-5.23-4.97-4.21-13.89 1.47-18.07 3.95 10.65 1.29 23.32-6.52 31.54-4.89 5.09-9.47 10.52-14.82 15.13-2.38.82-4.91 1.63-6.48 3.75-8.27 3.85-18.29 3.47-26.4-.61-7.28-3.87-13.21-10.56-15.47-18.55-2.76-8.43-1.23-17.99 3.46-25.44 2.25-3.66 5.51-6.51 8.39-9.65 3.91-4.06 7.42-8.67 12.3-11.63z" fill="#fff"/><path d="m124.06 252.17c4.69-3.91 10.48-6.59 16.59-7.22-3.51 3.72-7.07 7.4-10.63 11.06-4.44 4.33-5.43 11.76-2.22 17.07 2.89 5.15 9.37 8.06 15.12 6.56 7.32-1.55 10.89-8.87 16.1-13.48-4.55-4.86-4-12.88.86-17.31 6.16 4.06 11.5 9.87 13.56 17.1 3.64 10.42.78 22.68-6.8 30.64-3.58 3.79-7.15 7.59-10.74 11.38-5.11 5.58-12.29 9.3-19.85 9.99-9.13 1-18.68-2.36-25.06-8.99-5.08-4.96-7.94-11.84-8.79-18.82-.67-8.82 2.44-17.94 8.69-24.25 4.43-4.53 8.49-9.44 13.17-13.73z" fill="#fff"/><path d="m82.24 190.2c3.87-3.72 9.78-4.4 14.78-2.94 1.7 2.46 3.16 5.09 4.18 7.91-5.68 4.18-6.7 13.1-1.47 18.07-5.14 4.73-9.03 12.2-16.72 12.89-8.21 1.46-16.37-5.8-16.08-14.07-.04-4.51 2.17-8.68 5.51-11.6 3.37-3.32 6.45-6.92 9.8-10.26z" fill="#4b4b4b"/><path d="m140.65 244.95c6.63-.84 13.39.71 19.23 3.9-4.86 4.43-5.41 12.45-.86 17.31-5.21 4.61-8.78 11.93-16.1 13.48-5.75 1.5-12.23-1.41-15.12-6.56-3.21-5.31-2.22-12.74 2.22-17.07 3.56-3.66 7.12-7.34 10.63-11.06z" fill="#4b4b4b"/><path d="m163.95 226.98c.54.31 1.63.94 2.17 1.25-.54-.31-1.63-.94-2.17-1.25z" fill="#496c30" opacity=".49"/><path d="m79.86 241.84c4.28-.82 8.84-1.34 13.02.21 8.04 2.53 13.76 10.59 14.08 18.92.31 4.14-.81 8.18-2.36 11.97-.21-.13-.61-.39-.81-.52-1.23-6.11-3.97-11.78-7.22-17.05-2.25-3.64-6.45-5.18-10.13-6.92-3.81-1.62-7.71-3.85-12.01-3.16l-1.05.3c1.57-2.12 4.1-2.93 6.48-3.75z" fill="#ffc200"/><path d="m74.43 245.29c4.3-.69 8.2 1.54 12.01 3.16 3.68 1.74 7.88 3.28 10.13 6.92 3.25 5.27 5.99 10.94 7.22 17.05-1.3-.78-2.61-1.54-3.81-2.45-1.34-2.9-2.97-5.65-4.85-8.23-1.84-3.37-4.46-6.19-7.97-7.85-2.96-1.77-6.24-2.92-9.61-3.64-1.05-1.64-2.1-3.3-3.12-4.96z" fill="#f5970f"/><path d="m77.55 250.25c3.37.72 6.65 1.87 9.61 3.64-1.9.37-4.23.01-5.69 1.55-3.32 3.23-6.54 6.59-9.57 10.1-1.41 6.71 5.5 13.31 12.13 11.55 3.26-3.11 6.41-6.34 9.42-9.69 1.48-1.49 1.28-3.75 1.68-5.66 1.88 2.58 3.51 5.33 4.85 8.23-3.7 3.76-7.35 7.56-10.93 11.44-2.51 2.69-4.98 6.14-8.99 6.44-9.62.98-19.17-8.11-18.61-17.77.02-3.64 2.84-6.16 5.17-8.55 3.66-3.74 7.25-7.55 10.93-11.28z" fill="#f49000"/><path d="m81.47 255.44c1.46-1.54 3.79-1.18 5.69-1.55 3.51 1.66 6.13 4.48 7.97 7.85-.4 1.91-.2 4.17-1.68 5.66-3.01 3.35-6.16 6.58-9.42 9.69-2.22-5.34-6.73-9.52-12.13-11.55 3.03-3.51 6.25-6.87 9.57-10.1z" fill="#a15903"/><path d="m71.9 265.54c5.4 2.03 9.91 6.21 12.13 11.55-6.63 1.76-13.54-4.84-12.13-11.55z" fill="#ffb0e4"/></svg>