<?xml version="1.0" encoding="UTF-8" ?>
<!DOCTYPE svg PUBLIC "-//W3C//DTD SVG 1.1//EN" "http://www.w3.org/Graphics/SVG/1.1/DTD/svg11.dtd">
<svg width="363pt" height="633pt" viewBox="0 0 363 633" version="1.1" xmlns="http://www.w3.org/2000/svg">
<g id="#58cc02ff">
<path fill="#58cc02" opacity="1.00" d=" M 59.76 138.75 C 70.77 134.45 83.66 136.08 93.55 142.42 C 99.30 146.35 103.81 151.84 107.52 157.69 C 104.24 160.29 101.09 163.05 98.13 166.02 C 98.15 161.34 98.76 156.65 98.35 151.98 C 98.33 149.86 95.95 148.43 94.02 149.03 C 88.25 150.49 83.07 154.02 79.42 158.71 C 70.46 157.88 61.07 158.88 53.03 163.17 C 42.85 168.11 36.29 177.68 28.35 185.36 C 19.49 193.78 13.71 205.67 13.81 218.02 C 13.22 237.44 27.41 256.10 46.31 260.66 C 52.90 262.73 59.85 262.18 66.62 261.53 C 64.29 263.92 61.47 266.44 61.45 270.08 C 60.89 279.74 70.44 288.83 80.06 287.85 C 84.07 287.55 86.54 284.10 89.05 281.41 C 88.89 285.23 88.46 289.05 88.48 292.89 C 89.09 306.03 95.91 318.70 106.66 326.33 C 120.14 336.27 139.46 337.30 153.94 328.89 C 163.17 323.81 169.25 314.93 176.68 307.74 C 184.87 299.98 190.64 289.34 191.21 277.94 C 191.74 273.67 190.71 269.40 190.99 265.15 C 194.51 260.94 198.32 256.58 199.23 250.95 C 200.01 248.92 198.24 246.40 196.04 246.62 C 191.28 246.62 186.57 247.42 181.83 247.61 C 184.54 244.60 187.28 241.56 189.29 238.02 C 190.25 238.27 191.21 238.55 192.16 238.83 C 196.99 241.04 201.17 244.37 205.23 247.74 C 212.24 253.69 216.48 262.80 216.34 272.02 C 216.66 281.60 212.36 290.98 205.67 297.72 C 195.13 308.86 184.38 319.81 173.89 330.99 C 165.19 339.62 157.38 349.07 148.69 357.71 C 147.14 359.64 144.39 361.19 144.56 363.97 C 144.92 389.65 146.30 415.32 146.65 441.00 C 147.07 447.90 140.89 454.03 134.05 453.80 C 127.17 453.39 120.90 450.12 114.79 447.23 C 101.92 441.23 91.02 431.73 81.80 421.07 C 79.34 418.38 77.78 414.89 75.02 412.51 C 68.71 413.54 62.50 415.17 56.10 415.61 C 37.00 417.63 17.44 414.21 0.00 406.23 L 0.00 351.85 C 4.81 358.93 15.50 362.71 22.79 357.13 C 20.76 353.32 17.22 350.76 14.20 347.81 C 9.53 343.36 4.96 338.81 0.00 334.68 L 0.00 321.74 C 5.71 326.72 14.63 328.19 21.09 323.77 C 20.58 322.43 20.09 321.02 19.00 320.03 C 12.70 313.92 6.21 308.01 0.00 301.82 L 0.00 197.13 C 10.03 186.53 20.29 176.12 30.14 165.36 C 35.30 160.40 40.35 155.29 44.88 149.73 C 48.96 145.04 53.84 140.90 59.76 138.75 M 33.18 335.29 C 30.06 337.70 30.58 342.42 30.82 345.94 C 32.07 357.03 46.31 364.04 55.65 357.67 C 57.02 355.64 54.55 353.95 53.33 352.64 C 47.02 346.96 41.19 340.73 34.69 335.29 C 34.31 335.29 33.56 335.29 33.18 335.29 Z" />
<path fill="#58cc02" opacity="1.00" d=" M 116.89 195.36 C 117.39 189.37 117.35 183.35 117.77 177.35 C 121.85 186.39 125.87 195.49 131.03 203.99 C 135.25 209.48 140.46 214.00 145.79 218.37 C 151.54 221.81 157.77 224.39 163.95 226.98 C 164.49 227.29 165.58 227.92 166.12 228.23 L 167.39 228.37 C 154.73 230.63 139.98 230.09 129.84 221.20 C 122.12 214.88 117.64 205.23 116.89 195.36 Z" />
</g>
<g id="#8ee000ff">
<path fill="#8ee000" opacity="1.00" d=" M 79.42 158.71 C 83.07 154.02 88.25 150.49 94.02 149.03 C 95.95 148.43 98.33 149.86 98.35 151.98 C 98.76 156.65 98.15 161.34 98.13 166.02 C 101.09 163.05 104.24 160.29 107.52 157.69 C 110.69 157.01 114.36 154.18 117.36 156.72 C 119.14 163.42 117.36 170.50 117.77 177.35 C 117.35 183.35 117.39 189.37 116.89 195.36 C 114.44 189.68 113.37 183.36 109.66 178.28 C 102.89 167.88 91.49 161.06 79.42 158.71 Z" />
<path fill="#8ee000" opacity="1.00" d=" M 0.00 301.82 C 6.21 308.01 12.70 313.92 19.00 320.03 C 20.09 321.02 20.58 322.43 21.09 323.77 C 14.63 328.19 5.71 326.72 0.00 321.74 L 0.00 301.82 Z" />
<path fill="#8ee000" opacity="1.00" d=" M 0.00 334.68 C 4.96 338.81 9.53 343.36 14.20 347.81 C 17.22 350.76 20.76 353.32 22.79 357.13 C 15.50 362.71 4.81 358.93 0.00 351.85 L 0.00 334.68 Z" />
<path fill="#8ee000" opacity="1.00" d=" M 33.18 335.29 C 33.56 335.29 34.31 335.29 34.69 335.29 C 41.19 340.73 47.02 346.96 53.33 352.64 C 54.55 353.95 57.02 355.64 55.65 357.67 C 46.31 364.04 32.07 357.03 30.82 345.94 C 30.58 342.42 30.06 337.70 33.18 335.29 Z" />
</g>
<g id="#3f781c90">
<path fill="#3f781c" opacity="0.56" d=" M 30.14 165.36 C 34.53 159.70 39.74 154.71 44.88 149.73 C 40.35 155.29 35.30 160.40 30.14 165.36 Z" />
</g>
<g id="#89e219ff">
<path fill="#89e219" opacity="1.00" d=" M 53.03 163.17 C 61.07 158.88 70.46 157.88 79.42 158.71 C 91.49 161.06 102.89 167.88 109.66 178.28 C 113.37 183.36 114.44 189.68 116.89 195.36 C 117.64 205.23 122.12 214.88 129.84 221.20 C 139.98 230.09 154.73 230.63 167.39 228.37 C 174.33 228.46 181.19 227.17 188.12 227.00 C 190.43 227.04 192.42 229.55 191.56 231.80 C 191.11 234.22 188.55 237.68 192.16 238.83 C 191.21 238.55 190.25 238.27 189.29 238.02 C 187.28 241.56 184.54 244.60 181.83 247.61 C 186.57 247.42 191.28 246.62 196.04 246.62 C 198.24 246.40 200.01 248.92 199.23 250.95 C 198.32 256.58 194.51 260.94 190.99 265.15 C 190.71 269.40 191.74 273.67 191.21 277.94 C 190.64 289.34 184.87 299.98 176.68 307.74 C 169.25 314.93 163.17 323.81 153.94 328.89 C 139.46 337.30 120.14 336.27 106.66 326.33 C 95.91 318.70 89.09 306.03 88.48 292.89 C 88.46 289.05 88.89 285.23 89.05 281.41 C 92.63 277.53 96.28 273.73 99.98 269.97 C 101.18 270.88 102.49 271.64 103.79 272.42 C 103.99 272.55 104.39 272.81 104.60 272.94 C 106.15 269.15 107.27 265.11 106.96 260.97 C 106.64 252.64 100.92 244.58 92.88 242.05 C 88.70 240.50 84.14 241.02 79.86 241.84 C 85.21 237.23 89.79 231.80 94.68 226.71 C 102.49 218.49 105.15 205.82 101.20 195.17 C 100.18 192.35 98.72 189.72 97.02 187.26 C 93.12 182.37 87.97 178.30 81.93 176.44 C 73.28 173.52 63.33 174.74 55.66 179.71 C 50.78 182.67 47.27 187.28 43.36 191.34 C 40.48 194.48 37.22 197.33 34.97 200.99 C 30.28 208.44 28.75 218.00 31.51 226.43 C 33.77 234.42 39.70 241.11 46.98 244.98 C 55.09 249.06 65.11 249.44 73.38 245.59 L 74.43 245.29 C 75.45 246.95 76.50 248.61 77.55 250.25 C 73.87 253.98 70.28 257.79 66.62 261.53 C 59.85 262.18 52.90 262.73 46.31 260.66 C 27.41 256.10 13.22 237.44 13.81 218.02 C 13.71 205.67 19.49 193.78 28.35 185.36 C 36.29 177.68 42.85 168.11 53.03 163.17 M 124.06 252.17 C 119.38 256.46 115.32 261.37 110.89 265.90 C 104.64 272.21 101.53 281.33 102.20 290.15 C 103.05 297.13 105.91 304.01 110.99 308.97 C 117.37 315.60 126.92 318.96 136.05 317.96 C 143.61 317.27 150.79 313.55 155.90 307.97 C 159.49 304.18 163.06 300.38 166.64 296.59 C 174.22 288.63 177.08 276.37 173.44 265.95 C 171.38 258.72 166.04 252.91 159.88 248.85 C 154.04 245.66 147.28 244.11 140.65 244.95 C 134.54 245.58 128.75 248.26 124.06 252.17 Z" />
</g>
<g id="#ffffffff">
<path fill="#ffffff" opacity="1.00" d=" M 55.66 179.71 C 63.33 174.74 73.28 173.52 81.93 176.44 C 87.97 178.30 93.12 182.37 97.02 187.26 C 92.02 185.80 86.11 186.48 82.24 190.20 C 78.89 193.54 75.81 197.14 72.44 200.46 C 69.10 203.38 66.89 207.55 66.93 212.06 C 66.64 220.33 74.80 227.59 83.01 226.13 C 90.70 225.44 94.59 217.97 99.73 213.24 C 94.50 208.27 95.52 199.35 101.20 195.17 C 105.15 205.82 102.49 218.49 94.68 226.71 C 89.79 231.80 85.21 237.23 79.86 241.84 C 77.48 242.66 74.95 243.47 73.38 245.59 C 65.11 249.44 55.09 249.06 46.98 244.98 C 39.70 241.11 33.77 234.42 31.51 226.43 C 28.75 218.00 30.28 208.44 34.97 200.99 C 37.22 197.33 40.48 194.48 43.36 191.34 C 47.27 187.28 50.78 182.67 55.66 179.71 Z" />
<path fill="#ffffff" opacity="1.00" d=" M 124.06 252.17 C 128.75 248.26 134.54 245.58 140.65 244.95 C 137.14 248.67 133.58 252.35 130.02 256.01 C 125.58 260.34 124.59 267.77 127.80 273.08 C 130.69 278.23 137.17 281.14 142.92 279.64 C 150.24 278.09 153.81 270.77 159.02 266.16 C 154.47 261.30 155.02 253.28 159.88 248.85 C 166.04 252.91 171.38 258.72 173.44 265.95 C 177.08 276.37 174.22 288.63 166.64 296.59 C 163.06 300.38 159.49 304.18 155.90 307.97 C 150.79 313.55 143.61 317.27 136.05 317.96 C 126.92 318.96 117.37 315.60 110.99 308.97 C 105.91 304.01 103.05 297.13 102.20 290.15 C 101.53 281.33 104.64 272.21 110.89 265.90 C 115.32 261.37 119.38 256.46 124.06 252.17 Z" />
</g>
<g id="#4b4b4bff">
<path fill="#4b4b4b" opacity="1.00" d=" M 82.24 190.20 C 86.11 186.48 92.02 185.80 97.02 187.26 C 98.72 189.72 100.18 192.35 101.20 195.17 C 95.52 199.35 94.50 208.27 99.73 213.24 C 94.59 217.97 90.70 225.44 83.01 226.13 C 74.80 227.59 66.64 220.33 66.93 212.06 C 66.89 207.55 69.10 203.38 72.44 200.46 C 75.81 197.14 78.89 193.54 82.24 190.20 Z" />
<path fill="#4b4b4b" opacity="1.00" d=" M 140.65 244.95 C 147.28 244.11 154.04 245.66 159.88 248.85 C 155.02 253.28 154.47 261.30 159.02 266.16 C 153.81 270.77 150.24 278.09 142.92 279.64 C 137.17 281.14 130.69 278.23 127.80 273.08 C 124.59 267.77 125.58 260.34 130.02 256.01 C 133.58 252.35 137.14 248.67 140.65 244.95 Z" />
</g>
<g id="#496c307c">
<path fill="#496c30" opacity="0.49" d=" M 163.95 226.98 C 164.49 227.29 165.58 227.92 166.12 228.23 C 165.58 227.92 164.49 227.29 163.95 226.98 Z" />
</g>
<g id="#ffc200ff">
<path fill="#ffc200" opacity="1.00" d=" M 79.86 241.84 C 84.14 241.02 88.70 240.50 92.88 242.05 C 100.92 244.58 106.64 252.64 106.96 260.97 C 107.27 265.11 106.15 269.15 104.60 272.94 C 104.39 272.81 103.99 272.55 103.79 272.42 C 102.56 266.31 99.82 260.64 96.57 255.37 C 94.32 251.73 90.12 250.19 86.44 248.45 C 82.63 246.83 78.73 244.60 74.43 245.29 L 73.38 245.59 C 74.95 243.47 77.48 242.66 79.86 241.84 Z" />
</g>
<g id="#f5970fff">
<path fill="#f5970f" opacity="1.00" d=" M 74.43 245.29 C 78.73 244.60 82.63 246.83 86.44 248.45 C 90.12 250.19 94.32 251.73 96.57 255.37 C 99.82 260.64 102.56 266.31 103.79 272.42 C 102.49 271.64 101.18 270.88 99.98 269.97 C 98.64 267.07 97.01 264.32 95.13 261.74 C 93.29 258.37 90.67 255.55 87.16 253.89 C 84.20 252.12 80.92 250.97 77.55 250.25 C 76.50 248.61 75.45 246.95 74.43 245.29 Z" />
</g>
<g id="#f49000ff">
<path fill="#f49000" opacity="1.00" d=" M 77.55 250.25 C 80.92 250.97 84.20 252.12 87.16 253.89 C 85.26 254.26 82.93 253.90 81.47 255.44 C 78.15 258.67 74.93 262.03 71.90 265.54 C 70.49 272.25 77.40 278.85 84.03 277.09 C 87.29 273.98 90.44 270.75 93.45 267.40 C 94.93 265.91 94.73 263.65 95.13 261.74 C 97.01 264.32 98.64 267.07 99.98 269.97 C 96.28 273.73 92.63 277.53 89.05 281.41 C 86.54 284.10 84.07 287.55 80.06 287.85 C 70.44 288.83 60.89 279.74 61.45 270.08 C 61.47 266.44 64.29 263.92 66.62 261.53 C 70.28 257.79 73.87 253.98 77.55 250.25 Z" />
</g>
<g id="#a15903ff">
<path fill="#a15903" opacity="1.00" d=" M 81.47 255.44 C 82.93 253.90 85.26 254.26 87.16 253.89 C 90.67 255.55 93.29 258.37 95.13 261.74 C 94.73 263.65 94.93 265.91 93.45 267.40 C 90.44 270.75 87.29 273.98 84.03 277.09 C 81.81 271.75 77.30 267.57 71.90 265.54 C 74.93 262.03 78.15 258.67 81.47 255.44 Z" />
</g>
<g id="#ffb0e4ff">
<path fill="#ffb0e4" opacity="1.00" d=" M 71.90 265.54 C 77.30 267.57 81.81 271.75 84.03 277.09 C 77.40 278.85 70.49 272.25 71.90 265.54 Z" />
</g>
</svg>
