<svg width="225" height="306" viewBox="0 0 225 306" fill="none" xmlns="http://www.w3.org/2000/svg">
<path d="M0 4C0 1.79086 1.79086 0 4 0H205C216.046 0 225 8.95431 225 20V286C225 297.046 216.046 306 205 306H4.00001C1.79087 306 0 304.209 0 302V4Z" fill="url(#paint0_linear_329_2579)"/>
<path d="M0 4C0 1.79086 1.79086 0 4 0H13.5V306H4C1.79086 306 0 304.209 0 302V4Z" fill="url(#paint1_linear_329_2579)"/>
<path d="M70.3762 251.854H76.9642V252.898H70.3762V251.854ZM70.3762 254.176H76.9642V255.202H70.3762V254.176ZM69.7642 249.514H76.9822V250.594H71.0242V258.19H69.7642V249.514ZM72.9502 244.6H76.9462V245.536H74.0122V247.678H72.9502V244.6ZM76.4962 249.514H77.7562V256.822C77.7562 257.158 77.7082 257.416 77.6122 257.596C77.5282 257.776 77.3662 257.914 77.1262 258.01C76.8742 258.094 76.5382 258.148 76.1182 258.172C75.7102 258.196 75.1822 258.208 74.5342 258.208C74.5102 258.052 74.4622 257.866 74.3902 257.65C74.3182 257.446 74.2402 257.266 74.1562 257.11C74.6122 257.122 75.0262 257.128 75.3982 257.128C75.7822 257.14 76.0402 257.14 76.1722 257.128C76.2922 257.128 76.3762 257.104 76.4242 257.056C76.4722 257.02 76.4962 256.942 76.4962 256.822V249.514ZM67.9642 247.156H79.5382V250.216H78.2422V248.254H69.2062V250.216H67.9642V247.156ZM69.8362 242.296H77.7022V247.75H76.4242V243.376H71.0602V247.75H69.8362V242.296ZM64.0762 242.764L64.8142 241.792C65.2102 241.948 65.6122 242.134 66.0202 242.35C66.4282 242.566 66.8122 242.794 67.1722 243.034C67.5442 243.274 67.8442 243.496 68.0722 243.7L67.2982 244.816C67.0702 244.588 66.7762 244.354 66.4162 244.114C66.0562 243.862 65.6722 243.616 65.2642 243.376C64.8562 243.136 64.4602 242.932 64.0762 242.764ZM63.1222 247.642L63.8602 246.634C64.2442 246.778 64.6462 246.958 65.0662 247.174C65.4862 247.378 65.8822 247.588 66.2542 247.804C66.6262 248.02 66.9322 248.23 67.1722 248.434L66.3982 249.568C66.1702 249.364 65.8702 249.148 65.4982 248.92C65.1262 248.68 64.7302 248.452 64.3102 248.236C63.9022 248.008 63.5062 247.81 63.1222 247.642ZM63.6442 257.074C63.9562 256.606 64.2982 256.048 64.6702 255.4C65.0422 254.752 65.4202 254.068 65.8042 253.348C66.1882 252.616 66.5422 251.908 66.8662 251.224L67.8922 252.07C67.5922 252.706 67.2682 253.372 66.9202 254.068C66.5722 254.752 66.2182 255.43 65.8582 256.102C65.4982 256.762 65.1502 257.374 64.8142 257.938L63.6442 257.074ZM89.5642 245.788H96.8002V247.084H89.5642V245.788ZM96.1342 245.788H97.4482C97.4482 245.788 97.4482 245.83 97.4482 245.914C97.4482 245.998 97.4482 246.094 97.4482 246.202C97.4482 246.31 97.4482 246.4 97.4482 246.472C97.3882 248.332 97.3222 249.904 97.2502 251.188C97.1902 252.46 97.1182 253.51 97.0342 254.338C96.9622 255.154 96.8722 255.79 96.7642 256.246C96.6562 256.702 96.5182 257.032 96.3502 257.236C96.1702 257.464 95.9782 257.626 95.7742 257.722C95.5822 257.818 95.3422 257.884 95.0542 257.92C94.7782 257.944 94.4122 257.956 93.9562 257.956C93.5002 257.956 93.0322 257.938 92.5522 257.902C92.5402 257.71 92.4982 257.488 92.4262 257.236C92.3542 256.984 92.2582 256.762 92.1382 256.57C92.6422 256.618 93.1102 256.648 93.5422 256.66C93.9742 256.672 94.2862 256.678 94.4782 256.678C94.6342 256.678 94.7662 256.66 94.8742 256.624C94.9942 256.588 95.0962 256.516 95.1802 256.408C95.3122 256.264 95.4202 255.982 95.5042 255.562C95.6002 255.13 95.6842 254.518 95.7562 253.726C95.8282 252.922 95.8942 251.896 95.9542 250.648C96.0142 249.4 96.0742 247.882 96.1342 246.094V245.788ZM92.1922 241.936H93.5242C93.5122 243.196 93.4882 244.45 93.4522 245.698C93.4282 246.946 93.3502 248.17 93.2182 249.37C93.0982 250.558 92.9062 251.692 92.6422 252.772C92.3782 253.852 92.0062 254.848 91.5262 255.76C91.0582 256.672 90.4642 257.476 89.7442 258.172C89.6602 258.064 89.5582 257.944 89.4382 257.812C89.3182 257.692 89.1922 257.572 89.0602 257.452C88.9282 257.344 88.8022 257.26 88.6822 257.2C89.3782 256.564 89.9422 255.82 90.3742 254.968C90.8182 254.116 91.1602 253.18 91.4002 252.16C91.6522 251.14 91.8322 250.066 91.9402 248.938C92.0482 247.81 92.1142 246.658 92.1382 245.482C92.1742 244.294 92.1922 243.112 92.1922 241.936ZM82.0402 243.106H89.0062V244.312H82.0402V243.106ZM81.4102 247.39H89.3302V248.632H81.4102V247.39ZM86.7022 250.486L87.8182 250.18C88.0462 250.72 88.2802 251.302 88.5202 251.926C88.7602 252.538 88.9822 253.132 89.1862 253.708C89.3902 254.284 89.5462 254.782 89.6542 255.202L88.4662 255.598C88.3702 255.166 88.2202 254.662 88.0162 254.086C87.8242 253.498 87.6142 252.892 87.3862 252.268C87.1582 251.632 86.9302 251.038 86.7022 250.486ZM82.0582 255.976L81.9502 254.824L82.6342 254.338L88.5202 253.096C88.5442 253.276 88.5742 253.48 88.6102 253.708C88.6462 253.936 88.6822 254.122 88.7182 254.266C87.6022 254.518 86.6722 254.728 85.9282 254.896C85.1842 255.064 84.5722 255.208 84.0922 255.328C83.6242 255.436 83.2522 255.532 82.9762 255.616C82.7122 255.7 82.5142 255.766 82.3822 255.814C82.2502 255.862 82.1422 255.916 82.0582 255.976ZM82.0402 255.958C82.0162 255.862 81.9802 255.742 81.9322 255.598C81.8842 255.442 81.8302 255.286 81.7702 255.13C81.7102 254.962 81.6562 254.824 81.6082 254.716C81.7522 254.668 81.8842 254.536 82.0042 254.32C82.1362 254.092 82.2802 253.804 82.4362 253.456C82.5082 253.288 82.6102 253.018 82.7422 252.646C82.8742 252.262 83.0242 251.812 83.1922 251.296C83.3602 250.78 83.5162 250.228 83.6602 249.64C83.8162 249.04 83.9482 248.446 84.0562 247.858L85.3882 248.29C85.1962 249.082 84.9682 249.898 84.7042 250.738C84.4522 251.566 84.1762 252.364 83.8762 253.132C83.5882 253.888 83.2942 254.572 82.9942 255.184V255.22C82.9942 255.22 82.9462 255.244 82.8502 255.292C82.7542 255.34 82.6402 255.406 82.5082 255.49C82.3882 255.562 82.2802 255.64 82.1842 255.724C82.0882 255.808 82.0402 255.886 82.0402 255.958ZM99.3202 245.95H107.132V247.012H99.3202V245.95ZM100.562 253.528H106.16V254.5H100.562V253.528ZM100.562 256.066H106.124V257.146H100.562V256.066ZM102.92 242.944H104.072V250.666H102.92V242.944ZM102.992 251.602H103.982V256.642H102.992V251.602ZM106.322 241.756L107.06 242.692C106.424 242.836 105.686 242.968 104.846 243.088C104.018 243.208 103.16 243.31 102.272 243.394C101.396 243.466 100.556 243.52 99.7522 243.556C99.7282 243.412 99.6862 243.256 99.6262 243.088C99.5662 242.908 99.5002 242.752 99.4282 242.62C100.22 242.56 101.042 242.488 101.894 242.404C102.758 242.32 103.574 242.224 104.342 242.116C105.122 242.008 105.782 241.888 106.322 241.756ZM103.946 246.814C104.102 246.91 104.342 247.072 104.666 247.3C105.002 247.516 105.356 247.756 105.728 248.02C106.1 248.284 106.442 248.53 106.754 248.758C107.066 248.986 107.282 249.154 107.402 249.262L106.718 250.324C106.562 250.156 106.334 249.94 106.034 249.676C105.746 249.4 105.428 249.118 105.08 248.83C104.732 248.53 104.402 248.254 104.09 248.002C103.79 247.75 103.538 247.558 103.334 247.426L103.946 246.814ZM100.238 243.97L101.156 243.736C101.3 244.036 101.444 244.372 101.588 244.744C101.732 245.104 101.84 245.404 101.912 245.644L100.958 245.95C100.886 245.698 100.778 245.386 100.634 245.014C100.502 244.63 100.37 244.282 100.238 243.97ZM105.674 243.484L106.718 243.826C106.514 244.282 106.304 244.744 106.088 245.212C105.872 245.668 105.668 246.064 105.476 246.4L104.594 246.094C104.726 245.854 104.858 245.584 104.99 245.284C105.122 244.972 105.248 244.66 105.368 244.348C105.5 244.024 105.602 243.736 105.674 243.484ZM102.776 246.526L103.586 246.976C103.286 247.504 102.92 248.044 102.488 248.596C102.056 249.148 101.594 249.664 101.102 250.144C100.61 250.624 100.13 251.02 99.6622 251.332C99.6022 251.164 99.5182 250.966 99.4102 250.738C99.3022 250.498 99.1942 250.306 99.0862 250.162C99.5182 249.898 99.9682 249.568 100.436 249.172C100.904 248.776 101.342 248.35 101.75 247.894C102.17 247.426 102.512 246.97 102.776 246.526ZM99.9502 250.99H106.898V257.956H105.8V252.052H101.012V258.172H99.9502V250.99ZM107.654 242.476H110.75V243.628H107.654V242.476ZM110.084 242.476H111.2V256.642C111.2 256.966 111.158 257.224 111.074 257.416C111.002 257.62 110.864 257.776 110.66 257.884C110.456 257.98 110.186 258.04 109.85 258.064C109.526 258.088 109.118 258.1 108.626 258.1C108.614 257.944 108.572 257.746 108.5 257.506C108.428 257.278 108.35 257.086 108.266 256.93C108.614 256.942 108.932 256.948 109.22 256.948C109.508 256.948 109.706 256.942 109.814 256.93C109.91 256.93 109.976 256.912 110.012 256.876C110.06 256.84 110.084 256.762 110.084 256.642V242.476ZM111.632 242.494H114.476V243.646H111.632V242.494ZM114.044 242.494H115.214V256.624C115.214 256.972 115.172 257.242 115.088 257.434C115.004 257.638 114.854 257.794 114.638 257.902C114.422 257.998 114.146 258.058 113.81 258.082C113.474 258.118 113.06 258.136 112.568 258.136C112.544 257.968 112.49 257.758 112.406 257.506C112.322 257.266 112.238 257.068 112.154 256.912C112.514 256.924 112.844 256.93 113.144 256.93C113.456 256.93 113.66 256.93 113.756 256.93C113.864 256.93 113.936 256.906 113.972 256.858C114.02 256.81 114.044 256.726 114.044 256.606V242.494ZM107.618 245.68L108.518 245.41C108.686 245.782 108.854 246.19 109.022 246.634C109.19 247.066 109.34 247.486 109.472 247.894C109.604 248.29 109.7 248.638 109.76 248.938L108.806 249.28C108.746 248.98 108.65 248.62 108.518 248.2C108.398 247.78 108.26 247.348 108.104 246.904C107.948 246.46 107.786 246.052 107.618 245.68ZM111.65 245.626L112.55 245.41C112.73 245.782 112.898 246.184 113.054 246.616C113.222 247.036 113.372 247.444 113.504 247.84C113.636 248.236 113.732 248.584 113.792 248.884L112.82 249.172C112.76 248.872 112.67 248.518 112.55 248.11C112.43 247.702 112.286 247.282 112.118 246.85C111.962 246.406 111.806 245.998 111.65 245.626ZM111.434 252.97C111.806 252.61 112.25 252.154 112.766 251.602C113.282 251.05 113.81 250.474 114.35 249.874L114.908 250.774C114.44 251.302 113.96 251.836 113.468 252.376C112.988 252.916 112.526 253.426 112.082 253.906L111.434 252.97ZM107.312 253.168C107.684 252.772 108.152 252.274 108.716 251.674C109.292 251.062 109.868 250.432 110.444 249.784L110.984 250.684C110.492 251.272 109.976 251.866 109.436 252.466C108.908 253.066 108.41 253.612 107.942 254.104L107.312 253.168ZM121.118 249.64H131.612V258.226H130.262V250.72H122.414V258.226H121.118V249.64ZM117.5 247.264H133.376V248.38H117.5V247.264ZM118.814 244.834H132.332V245.914H118.814V244.834ZM121.982 251.944H130.82V252.898H121.982V251.944ZM121.982 254.158H130.82V255.094H121.982V254.158ZM121.856 256.426H130.82V257.506H121.856V256.426ZM131.306 241.774L132.17 242.746C131.33 242.914 130.376 243.058 129.308 243.178C128.24 243.298 127.112 243.394 125.924 243.466C124.736 243.538 123.536 243.598 122.324 243.646C121.112 243.682 119.948 243.7 118.832 243.7C118.82 243.556 118.784 243.382 118.724 243.178C118.676 242.974 118.622 242.8 118.562 242.656C119.654 242.644 120.794 242.62 121.982 242.584C123.182 242.548 124.358 242.494 125.51 242.422C126.662 242.35 127.736 242.26 128.732 242.152C129.728 242.044 130.586 241.918 131.306 241.774ZM123.926 242.998L125.33 243.304C124.922 244.744 124.394 246.148 123.746 247.516C123.11 248.872 122.312 250.12 121.352 251.26C120.392 252.4 119.24 253.372 117.896 254.176C117.836 254.08 117.752 253.966 117.644 253.834C117.548 253.69 117.446 253.558 117.338 253.438C117.23 253.318 117.128 253.21 117.032 253.114C118.316 252.382 119.408 251.482 120.308 250.414C121.22 249.346 121.97 248.176 122.558 246.904C123.146 245.632 123.602 244.33 123.926 242.998ZM143.618 246.994H150.422V248.218H143.618V246.994ZM143.654 251.35H150.458V252.592H143.654V251.35ZM143.636 255.724H150.44V256.966H143.636V255.724ZM142.952 242.692H151.106V258.01H149.738V243.97H144.266V258.064H142.952V242.692ZM135.374 245.482H142.178V246.778H135.374V245.482ZM138.29 241.63H139.604V258.172H138.29V241.63ZM138.236 246.292L139.118 246.58C138.95 247.312 138.746 248.068 138.506 248.848C138.266 249.616 137.99 250.378 137.678 251.134C137.378 251.878 137.054 252.568 136.706 253.204C136.37 253.828 136.022 254.368 135.662 254.824C135.59 254.644 135.482 254.44 135.338 254.212C135.194 253.972 135.068 253.768 134.96 253.6C135.284 253.192 135.608 252.712 135.932 252.16C136.268 251.596 136.586 250.984 136.886 250.324C137.186 249.664 137.45 248.992 137.678 248.308C137.906 247.612 138.092 246.94 138.236 246.292ZM139.478 248.272C139.61 248.392 139.802 248.602 140.054 248.902C140.318 249.19 140.6 249.508 140.9 249.856C141.212 250.192 141.494 250.51 141.746 250.81C141.998 251.098 142.172 251.308 142.268 251.44L141.44 252.538C141.308 252.322 141.128 252.052 140.9 251.728C140.672 251.392 140.426 251.044 140.162 250.684C139.898 250.312 139.64 249.97 139.388 249.658C139.148 249.346 138.95 249.1 138.794 248.92L139.478 248.272ZM155.912 242.8H159.746V244.078H155.912V242.8ZM153.194 248.776H169.682V250.072H153.194V248.776ZM155.21 242.8H156.506V248.362C156.506 249.094 156.476 249.892 156.416 250.756C156.356 251.62 156.242 252.502 156.074 253.402C155.918 254.29 155.684 255.154 155.372 255.994C155.072 256.834 154.664 257.602 154.148 258.298C154.088 258.202 153.992 258.088 153.86 257.956C153.74 257.836 153.614 257.716 153.482 257.596C153.362 257.488 153.254 257.404 153.158 257.344C153.626 256.696 153.998 255.994 154.274 255.238C154.55 254.482 154.754 253.708 154.886 252.916C155.018 252.112 155.102 251.326 155.138 250.558C155.186 249.79 155.21 249.058 155.21 248.362V242.8ZM159.044 242.8H160.358V256.498C160.358 256.858 160.31 257.14 160.214 257.344C160.118 257.548 159.944 257.704 159.692 257.812C159.452 257.92 159.122 257.986 158.702 258.01C158.294 258.034 157.778 258.046 157.154 258.046C157.13 257.878 157.07 257.674 156.974 257.434C156.89 257.194 156.8 256.99 156.704 256.822C157.16 256.834 157.574 256.84 157.946 256.84C158.33 256.852 158.582 256.852 158.702 256.84C158.834 256.828 158.924 256.798 158.972 256.75C159.02 256.702 159.044 256.612 159.044 256.48V242.8ZM162.968 242.8H166.964V244.078H162.968V242.8ZM162.23 242.8H163.544V248.398C163.544 249.118 163.52 249.904 163.472 250.756C163.424 251.608 163.322 252.478 163.166 253.366C163.022 254.254 162.812 255.118 162.536 255.958C162.26 256.786 161.888 257.542 161.42 258.226C161.36 258.142 161.264 258.034 161.132 257.902C161.012 257.782 160.886 257.662 160.754 257.542C160.622 257.434 160.508 257.356 160.412 257.308C160.832 256.648 161.162 255.946 161.402 255.202C161.642 254.458 161.822 253.69 161.942 252.898C162.062 252.106 162.14 251.326 162.176 250.558C162.212 249.79 162.23 249.07 162.23 248.398V242.8ZM166.424 242.8H167.756V256.552C167.756 256.936 167.702 257.236 167.594 257.452C167.498 257.668 167.324 257.83 167.072 257.938C166.832 258.046 166.496 258.112 166.064 258.136C165.632 258.16 165.092 258.172 164.444 258.172C164.432 258.064 164.396 257.932 164.336 257.776C164.288 257.62 164.234 257.464 164.174 257.308C164.126 257.152 164.066 257.02 163.994 256.912C164.462 256.924 164.888 256.93 165.272 256.93C165.668 256.93 165.926 256.924 166.046 256.912C166.19 256.9 166.286 256.87 166.334 256.822C166.394 256.774 166.424 256.678 166.424 256.534V242.8Z" fill="#B2A88D"/>
<g clip-path="url(#clip0_329_2579)">
<path d="M51.3003 48.6H180.712C180.734 95.5012 180.712 142.402 180.723 189.304C180.71 203.903 180.738 218.501 180.708 233.1H51.3003V48.6ZM121.202 60.3183C121.373 61.3069 122.047 62.1178 122.431 63.0305C121.539 62.9806 120.649 63.1107 119.759 63.1563C113.366 63.6224 106.948 63.7351 100.542 63.501C92.9537 63.3297 85.4866 61.502 77.8812 61.6538C76.2159 61.6842 74.5592 61.8814 72.8981 61.9898C71.5827 62.0787 70.2154 62.2695 69.0641 62.9568C68.3211 63.4012 67.8848 64.2294 67.8027 65.0793C67.5673 67.1108 67.9885 69.1335 68.2585 71.139C68.5177 72.6479 68.5673 74.1807 68.6365 75.707C68.8006 78.1569 68.9108 80.6068 69.0555 83.0567C66.8393 84.2122 64.6318 85.383 62.4178 86.5386C63.5043 87.202 64.3078 88.2123 65.1567 89.1424C65.7658 89.7754 66.1201 90.595 66.6773 91.2692C67.4895 92.2687 68.5133 93.0882 69.6409 93.7061C69.6085 94.131 69.5912 94.5603 69.6149 94.9874C70.0772 105.032 70.3904 115.083 70.6021 125.136C70.7727 133.592 70.9822 142.053 70.7209 150.509C70.6172 153.477 70.3969 156.438 70.2305 159.404C69.5415 168.92 69.3061 178.472 69.6646 188.007C69.818 190.93 69.8309 193.872 70.196 196.777C69.2931 199.526 68.5565 202.37 68.3816 205.267C68.2045 206.229 67.8221 207.138 67.6169 208.092C67.6839 208.597 68.4377 208.848 68.563 208.215C70.0577 206.717 71.6216 205.219 73.5483 204.298C74.4101 203.849 75.3973 203.771 76.2807 203.387C80.7713 203.431 85.2641 203.402 89.7504 203.632C94.4981 203.814 99.2523 203.838 104 203.65C107.443 203.541 110.89 203.502 114.333 203.348C114.435 204.035 114.549 204.725 114.586 205.421C116.364 205.505 118.472 205.126 119.468 203.472L119.437 203.613C119.487 203.519 119.587 203.333 119.638 203.238C124.459 203.164 129.281 202.995 134.104 202.962C134.046 202.65 133.968 202.342 133.81 202.069C133.642 200.903 133.644 199.719 133.799 198.552C136.171 198.765 138.636 198.975 140.932 198.167C142.012 197.841 142.938 197.191 143.861 196.562C143.219 198.312 142.238 199.933 141.202 201.473C140.251 202.869 139.076 204.22 137.463 204.833C138.035 205.211 138.776 205.035 139.424 205.091C142.74 204.97 145.9 203.777 148.928 202.505L148.883 202.702C151.129 202.492 153.388 202.585 155.639 202.492C158.438 202.453 161.236 202.353 164.035 202.303C164.996 199.823 165.443 197.167 165.595 194.52C165.852 189.117 165.342 183.719 165.253 178.318C166.949 179.183 168.893 180.079 170.83 179.582C171.044 179.485 171.258 179.389 171.476 179.296C171.375 179.099 171.273 178.901 171.174 178.708C170.8 178.554 170.48 178.305 170.152 178.082C169.26 176.937 168.301 175.736 168.087 174.251C167.64 170.301 166.441 166.448 164.646 162.91C164.752 160.653 164.547 158.396 164.525 156.141C163.968 133.023 163.741 109.895 164.018 86.7727C164.044 85.9358 164.052 85.099 163.97 84.2664C165.599 81.6952 166.936 78.803 166.882 75.6897C166.983 72.2815 165.163 69.294 164.18 66.1351C164.601 64.9926 164.316 63.7069 164.439 62.5058C156.745 62.2066 149.09 61.0793 141.379 61.1963C137.467 61.2484 133.598 61.8749 129.71 62.2478C129.276 62.2869 128.846 62.3541 128.421 62.4538C127.816 61.114 127.276 59.7438 126.632 58.4256C126.261 57.6343 125.261 57.7752 124.552 57.8576C123.144 58.0353 121.524 58.8028 121.202 60.3183Z" fill="#EFE7D2"/>
<path d="M152.466 104.403C154.261 104.082 155.885 103.217 157.568 102.56C157.302 103.84 156.631 105.004 155.689 105.901C153.836 107.72 151.237 108.464 148.729 108.789C146.865 109.151 145.036 108.356 143.491 107.378C142.29 106.589 141.117 105.706 140.24 104.553C142.614 104.189 145.023 104.199 147.418 104.236C149.101 104.251 150.783 104.663 152.466 104.403Z" fill="#EFE7D2"/>
<path d="M127.149 108.895C127.827 108.447 128.388 107.833 129.112 107.449C128.021 109.982 125.952 111.976 123.619 113.375C122.569 114.018 121.429 114.493 120.353 115.089C119.299 116.208 118.062 117.212 116.547 117.604C113.986 118.296 111.242 117.687 108.912 116.518C107.143 115.501 105.067 115.343 103.11 114.938C102.533 114.838 101.954 114.751 101.378 114.66C101.522 114.556 101.669 114.452 101.818 114.35C99.9953 114.485 98.1679 114.467 96.3406 114.53C97.3277 113.485 98.6799 112.867 100.038 112.468C103.361 111.517 106.892 111.77 110.247 112.408C111.925 112.702 113.534 113.351 115.243 113.461C116.703 113.554 118.176 113.29 119.528 112.739C122.17 111.683 124.792 110.513 127.149 108.895Z" fill="#EFE7D2"/>
<path d="M78.8123 119.677C82.7629 120.065 85.9813 122.799 88.5884 125.6C87.7719 126.281 86.8626 126.842 85.9619 127.406C85.4478 127.762 84.8149 127.799 84.2123 127.848C83.7392 127.712 83.277 127.549 82.8212 127.369C82.3071 126.793 81.8384 126.136 81.7283 125.349C81.4712 123.803 81.0155 122.242 80.0327 120.993C79.6439 120.538 79.2011 120.132 78.8123 119.677Z" fill="#EFE7D2"/>
<path d="M90.5063 128.961C91.6015 126.437 94.0552 124.384 96.8632 124.254C98.0167 124.135 99.1269 124.516 100.257 124.668C100.483 125.032 100.661 125.422 100.857 125.804C101.049 126.188 101.224 126.58 101.38 126.981C101.181 127.094 100.982 127.209 100.786 127.324C98.7878 128.486 96.4744 129.073 94.1697 129.071C92.945 129.076 91.7289 128.824 90.5063 128.961Z" fill="#EFE7D2"/>
<path d="M78.9504 150.832C79.7518 151.515 80.3501 152.386 81.091 153.128C85.0697 157.264 90.3444 160.297 96.0857 160.989C94.2368 162.097 91.9688 161.967 89.893 162.073C87.5192 161.752 85.2771 160.868 83.048 160.035C81.3783 159.406 79.89 158.051 79.4624 156.269C79.1405 155.085 79.6244 153.867 79.3824 152.677C79.2636 152.055 79.1038 151.443 78.9504 150.832Z" fill="#EFE7D2"/>
<path d="M134.538 177.247C136.011 176.879 137.521 176.369 138.56 175.194C139.346 177.594 138.802 180.38 137.067 182.231C136.205 181.659 135.328 181.056 134.309 180.809C132.695 180.371 130.849 180.703 129.572 181.809C129.095 182.849 129.149 184.059 128.823 185.156C127.38 185.468 125.894 185.358 124.444 185.156C123.608 184.9 123.047 184.111 122.245 183.857C122.593 183.175 122.619 182.377 122.988 181.702C123.947 179.847 125.904 178.539 127.987 178.387C130.188 178.132 132.391 177.811 134.538 177.247Z" fill="#EFE7D2"/>
<path d="M141.256 179.433C141.843 178.654 142.474 177.865 143.375 177.438C143.733 179.89 143.595 182.758 145.45 184.662C144.716 185.204 143.854 185.54 143.118 186.08C142.521 186.487 142.063 187.053 141.599 187.6C141.318 185.921 140.469 184.304 138.992 183.398C138.996 183.276 139.003 183.036 139.005 182.917C139.61 181.95 140.132 180.939 140.618 179.912C140.925 179.922 141.078 179.628 141.256 179.433Z" fill="#EFE7D2"/>
<path d="M129.983 182.576C130.499 182.999 130.747 183.654 131.225 184.12C132.525 185.616 134.596 186.52 136.575 186.054C137.482 188.096 138.769 190.537 141.197 190.921C140.67 191.194 140.068 191.227 139.502 191.372C137.268 191.912 135.03 192.588 133.045 193.774C132.469 194.117 132.086 194.7 131.518 195.049C130.955 195.259 130.862 194.457 130.957 194.075C131.207 192.597 132.156 191.272 132.043 189.722C132.069 188.41 131.125 187.346 130.032 186.756C129.931 185.364 129.965 183.968 129.983 182.576Z" fill="#EFE7D2"/>
<path d="M121.202 60.3183C121.524 58.8028 123.144 58.0353 124.552 57.8575C125.261 57.7752 126.261 57.6342 126.632 58.4256C127.276 59.7437 127.816 61.1139 128.421 62.4538C129.255 64.3985 130.151 66.3172 130.961 68.2728C132.991 66.8354 135.05 65.4348 137.108 64.0343C138.355 63.1996 139.824 62.4126 141.374 62.7248C141.698 62.8028 142.189 63.1215 141.973 63.5118C141.731 64.0516 141.219 64.3942 140.696 64.6262C138.219 65.7557 135.882 67.1975 133.78 68.9319C133.041 69.5649 132.246 70.2609 132.002 71.2452C131.775 72.1601 132.194 73.0707 132.696 73.8143C130.732 75.8739 128.961 78.1114 127.388 80.4854C127.004 76.0474 126.159 71.6181 124.464 67.4836C123.857 65.9682 123.157 64.4917 122.431 63.0305C122.047 62.1177 121.373 61.3069 121.202 60.3183Z" fill="#567C71"/>
<path d="M162.521 64.869C162.681 64.5047 163.044 64.5979 163.355 64.6565C163.804 66.7118 164.05 68.8516 163.633 70.9373C163.169 73.8663 161.81 76.5525 160.257 79.0414C157.827 82.9504 154.866 86.5298 152.822 90.6751C152.127 92.0388 151.628 93.4957 151.259 94.9787C150.973 94.8811 150.686 94.7922 150.399 94.7077C151.516 90.1895 154.177 86.2978 156.84 82.5667C159.223 79.1303 161.653 75.5487 162.583 71.4013C163.018 69.5714 163.13 67.6267 162.659 65.7925C162.599 65.489 162.512 65.1833 162.521 64.869Z" fill="#567C71"/>
<path d="M104.171 68.1384C104.376 68.0018 104.585 67.8674 104.795 67.733C105.544 69.1986 105.691 70.8658 105.875 72.4745C106.169 76.1168 105.264 79.707 104.361 83.2041C104.166 84.0973 103.916 85.0903 104.38 85.9488C104.95 87.0025 105.992 87.757 106.359 88.9342C107.134 90.8247 106.961 92.9017 107.37 94.8725C107.793 96.9386 108.934 98.8096 110.437 100.262C110.862 100.739 111.556 100.678 112.124 100.837C111.465 100.945 110.819 101.108 110.176 101.279C108.899 100.024 107.737 98.5907 107.074 96.9061C106.082 94.3803 106.51 91.525 105.415 89.0318C104.938 87.848 103.756 87.0979 103.387 85.8643C103.143 84.6762 103.315 83.4382 103.663 82.2913C104.441 79.7331 104.907 77.0794 105.039 74.4084C105.136 72.2815 104.696 70.185 104.171 68.1384Z" fill="#567C71"/>
<path d="M100.179 114.48C100.578 114.532 100.976 114.606 101.378 114.66C101.954 114.751 102.533 114.838 103.11 114.938C102.09 118.495 101.149 122.103 100.857 125.804C100.661 125.422 100.483 125.032 100.257 124.668C99.6064 123.976 99.4315 123.005 99.4228 122.086C99.3775 119.527 99.9844 117.021 100.179 114.48Z" fill="#567C71"/>
<path d="M124.233 117.463C124.498 116.856 124.663 116.178 125.17 115.718C125.412 115.944 125.771 116.215 125.542 116.588C124.25 120.163 121.926 123.263 119.347 126.005C117.349 128.195 115.016 130.129 113.506 132.722C113.042 133.583 112.471 134.448 112.422 135.456C111.94 135.757 111.476 136.087 111.031 136.44C111.368 134.784 112.18 133.26 113.031 131.816C114.917 128.859 117.709 126.669 119.926 123.987C121.654 122.029 123.194 119.872 124.233 117.463Z" fill="#567C71"/>
<path d="M94.1697 129.071C96.4745 129.073 98.7878 128.486 100.786 127.324C100.676 129.032 100.62 130.743 100.654 132.455C99.1896 134.955 98.2284 137.741 97.7813 140.605C96.3945 140.618 94.9819 140.783 93.7161 141.388C93.6297 137.277 93.7226 133.162 94.1697 129.071Z" fill="#567C71"/>
<path d="M121.794 146.671C123.751 146.071 125.753 145.615 127.788 145.364C131.233 145.043 134.864 145.657 137.772 147.621C140.269 149.236 142.223 151.855 142.645 154.851C142.722 155.656 143.2 156.521 144.059 156.664C146.764 156.887 149.267 158.16 151.464 159.693C154.931 162.153 157.723 165.397 160.56 168.534C162.7 170.797 164.692 173.199 166.813 175.48C167.819 176.467 168.839 177.514 170.152 178.082C170.48 178.305 170.8 178.554 171.174 178.708C171.273 178.901 171.375 179.099 171.476 179.296C171.258 179.389 171.044 179.485 170.83 179.582C168.651 178.535 166.858 176.872 165.273 175.073C162.292 171.779 159.322 168.475 156.322 165.199C153.429 162.149 150.157 159.216 146.077 157.932C144.882 157.52 143.407 157.746 142.459 156.77C141.586 155.784 141.752 154.353 141.286 153.186C140.111 150.166 137.394 147.907 134.354 146.936C131.853 146.075 129.142 146.012 126.557 146.476C124.697 146.797 122.807 147.14 121.092 147.955C121.334 147.53 121.572 147.105 121.794 146.671Z" fill="#567C71"/>
<path d="M109.962 178.763C110.718 179.205 111.515 179.578 112.312 179.942C113.266 181.956 114.392 183.886 115.288 185.93C115.532 185.182 115.411 184.187 116.113 183.675C116.714 183.688 117.329 183.773 117.861 184.072C117.619 186.229 117.457 188.395 117.262 190.555C117.893 192.35 118.468 194.166 118.869 196.031C119.571 194.83 120.459 193.759 121.336 192.686C121.703 193.536 122.066 194.385 122.429 195.237C121.364 196.341 120.399 197.536 119.319 198.626C119.47 200.23 119.699 201.865 119.468 203.472C118.472 205.126 116.364 205.505 114.586 205.421C114.549 204.725 114.435 204.035 114.333 203.348C113.603 198.607 112.23 193.982 110.484 189.523C110.085 188.514 109.73 187.485 109.216 186.526C110.707 184.261 111.085 181.264 109.962 178.763Z" fill="#567C71"/>
<path d="M83.6787 181.898C83.9919 181.353 84.2727 180.783 84.6917 180.313C84.8926 180.345 85.2944 180.415 85.4953 180.447C81.6634 187.76 75.6046 193.583 71.5676 200.766C70.2781 203.112 69.0879 205.57 68.563 208.215C68.4377 208.848 67.6839 208.597 67.6169 208.092C67.8221 207.138 68.2045 206.229 68.3816 205.267C69.0339 204.044 69.4897 202.728 70.1614 201.516C73.8766 194.446 79.592 188.727 83.6787 181.898Z" fill="#567C71"/>
<path d="M129.71 62.2479C133.598 61.875 137.467 61.2484 141.379 61.1964C149.09 61.0793 156.745 62.2067 164.439 62.5059C164.316 63.7069 164.601 64.9926 164.18 66.1351C164.005 65.669 163.843 65.1964 163.668 64.7303C163.59 64.7107 163.432 64.6739 163.355 64.6565C163.044 64.598 162.681 64.5048 162.521 64.869C162.512 65.1834 162.599 65.4891 162.659 65.7926C161.614 66.8679 160.97 68.3444 159.633 69.1097C157.237 70.855 155.244 73.075 153.211 75.2171C151.747 76.6913 150.87 78.6144 150.004 80.4746C148.055 84.9299 146.537 89.5673 145.291 94.2655C144.967 94.2915 144.534 94.337 144.496 93.8926C144.286 91.9652 145.846 90.3955 145.833 88.492C145.833 87.6031 145.243 86.7294 144.392 86.4605C143.694 86.3803 143.022 86.673 142.387 86.9266C140.05 87.9695 138.029 89.576 135.948 91.0394C137.342 87.6161 138.607 84.1277 139.517 80.5418C140.003 78.4539 140.437 76.3314 140.415 74.1786C140.359 73.0425 140.238 71.7981 139.465 70.9027C138.921 70.2956 137.996 70.4084 137.288 70.5905C135.462 71.1585 134.05 72.5265 132.696 73.8143C132.194 73.0707 131.775 72.1601 132.002 71.2452C132.246 70.2609 133.041 69.565 133.78 68.9319C135.882 67.1975 138.219 65.7557 140.696 64.6262C141.219 64.3942 141.731 64.0517 141.973 63.5118C142.189 63.1216 141.698 62.8029 141.374 62.7248C139.824 62.4126 138.355 63.1996 137.108 64.0343C135.05 65.4349 132.991 66.8354 130.961 68.2728C130.151 66.3173 129.255 64.3986 128.421 62.4538C128.846 62.3541 129.276 62.2869 129.71 62.2479Z" fill="#F0B1C6"/>
<path d="M72.8981 61.9899C74.5591 61.8815 76.2158 61.6842 77.8812 61.6538C85.4865 61.5021 92.9536 63.3297 100.542 63.501C106.948 63.7352 113.366 63.6224 119.759 63.1563C120.649 63.1108 121.539 62.9807 122.431 63.0305C123.157 64.4918 123.857 65.9682 124.464 67.4837C126.159 71.6181 127.004 76.0474 127.388 80.4854C127.337 80.5136 127.231 80.5678 127.177 80.596C126.576 77.5282 124.412 74.6079 121.323 73.7407C121.729 75.7331 120.902 77.7515 119.718 79.3212C118.973 80.3163 118.003 81.1076 116.997 81.8188C114.301 83.8199 112.871 87.202 112.772 90.5104C111.378 86.8183 111.646 82.7055 112.655 78.9505C112.828 78.222 113.184 77.5456 113.29 76.8041C113.329 74.855 112.387 73.0165 111.095 71.6138C109.646 70.0355 107.817 68.8387 105.866 67.9802C105.523 67.8544 105.171 67.6355 104.795 67.733C104.585 67.8674 104.376 68.0019 104.171 68.1384C100.477 70.5059 97.049 73.5694 95.1244 77.5933C93.4677 81.0274 93.2971 85.1597 94.7421 88.6958C94.9495 89.1771 95.1309 89.7061 95.5413 90.0595C96.5371 90.9267 97.589 91.7939 98.2435 92.9668C98.5027 93.3462 98.4098 93.8232 98.4012 94.2546C95.1957 91.653 92.0745 88.9451 88.908 86.2958C88.1563 85.6844 87.4845 84.9819 86.8236 84.2773C84.0113 81.2898 79.7344 79.8263 75.6845 80.286C73.2566 80.5852 71.1873 81.9705 69.0554 83.0567C68.9107 80.6068 68.8005 78.1569 68.6364 75.7071C68.5673 74.1808 68.5176 72.648 68.2584 71.139C67.9884 69.1336 67.5672 67.1108 67.8026 65.0793C67.8847 64.2295 68.321 63.4013 69.0641 62.9568C70.2153 62.2696 71.5826 62.0788 72.8981 61.9899Z" fill="#F0B1C6"/>
<path d="M158.471 90.7012C160.698 88.9343 162.499 86.6903 163.97 84.2665C164.052 85.099 164.044 85.9359 164.018 86.7727C163.741 109.895 163.968 133.024 164.525 156.141C164.547 158.396 164.752 160.653 164.646 162.91C162.903 159.693 160.838 156.56 158.006 154.201C156.436 152.809 155.624 150.821 154.814 148.937C152.829 144.358 148.943 140.618 144.206 139.022C146.638 137.758 149.038 136.304 150.971 134.335C147.243 133.986 143.584 132.926 140.23 131.261C136.629 129.557 132.637 128.516 128.635 128.8C126.872 128.928 125.099 129.446 123.686 130.543C123.44 127.478 124.062 124.41 125.051 121.52C126.95 123.02 129 124.349 131.179 125.396C131.819 123.877 131.588 122.188 131.341 120.609C131.54 120.722 131.728 120.852 131.89 121.015C134.117 123.246 136.921 124.948 140.005 125.643C143.185 126.376 146.576 125.975 149.557 124.674C148.405 123.103 147.893 121.182 147.332 119.345C148.937 119.718 150.516 118.949 151.747 117.969C152.254 117.65 152.192 116.974 152.27 116.451C152.397 113.502 150.76 110.795 148.729 108.789C151.237 108.464 153.836 107.72 155.689 105.901C156.631 105.004 157.302 103.84 157.568 102.56C159.246 101.975 160.897 101.247 162.298 100.134C162.089 99.5642 161.769 99.02 161.244 98.6904C159.719 97.6736 157.838 97.537 156.071 97.3311C155.263 96.9799 154.57 96.4053 153.764 96.0476C155.337 94.2698 156.847 92.4313 158.471 90.7012Z" fill="#F0B1C6"/>
<path d="M69.6407 93.7061C71.0857 94.5777 72.8418 94.5256 74.3214 95.3083C76.9631 96.5571 79.4881 98.0509 81.9484 99.627C82.132 101.953 82.6849 104.247 83.5317 106.417C80.7971 106.296 77.8746 105.468 76.0645 103.276C75.3064 104.813 75.3885 106.619 75.9544 108.204C76.9437 110.99 78.8488 113.312 80.836 115.447C79.5486 115.068 78.2353 114.79 76.9113 114.584C76.6218 116.499 77.7342 118.27 78.7991 119.762C76.2525 118.808 73.4574 118.495 70.7769 119.005C73.4812 123.283 78.0841 125.938 82.821 127.369C83.2768 127.549 83.739 127.712 84.2121 127.848C82.7562 128.798 81.5099 130.129 80.7949 131.729C79.8856 133.73 79.7193 136.013 80.1275 138.16C77.7796 140.831 76.084 144.013 74.7469 147.296C78.2073 146.749 81.2075 144.612 83.5079 142.045C86.8235 138.303 88.9403 133.672 90.5063 128.961C91.7289 128.824 92.9449 129.076 94.1697 129.071C93.7225 133.162 93.6297 137.277 93.7161 141.388C91.6144 142.292 90.0851 144.124 89.0461 146.118C86.871 145.997 84.9378 147.272 83.4193 148.707C83.1061 148.969 82.8318 149.342 82.402 149.403C81.0801 149.642 79.743 149.791 78.4038 149.891C78.5831 150.203 78.7667 150.517 78.9503 150.832C79.1037 151.443 79.2635 152.055 79.3823 152.677C79.6242 153.867 79.1404 155.085 79.4622 156.269C79.8899 158.051 81.3781 159.406 83.0478 160.035C85.2769 160.868 87.519 161.752 89.8929 162.073C87.3765 163.749 85.3245 166.125 84.1624 168.935C82.8189 172.089 82.5813 175.606 82.9463 178.986C77.0776 183.493 72.6409 189.789 70.1958 196.777C69.8308 193.872 69.8178 190.93 69.6645 188.007C69.3059 178.472 69.5413 168.92 70.2304 159.404C70.3967 156.438 70.617 153.477 70.7207 150.509C70.9821 142.053 70.7725 133.592 70.6019 125.136C70.3902 115.083 70.077 105.032 69.6148 94.9874C69.591 94.5603 69.6083 94.1311 69.6407 93.7061Z" fill="#F0B1C6"/>
<path d="M103.11 114.938C105.067 115.343 107.143 115.501 108.912 116.518C111.242 117.687 113.985 118.296 116.547 117.604C118.061 117.212 119.299 116.208 120.353 115.09C120.491 116.041 120.906 116.911 121.329 117.761C118.215 119.872 114.608 121.03 111.225 122.617C106.842 124.759 103.086 128.206 100.654 132.455C100.619 130.743 100.676 129.032 100.786 127.324C100.982 127.209 101.181 127.094 101.38 126.981C101.224 126.58 101.049 126.188 100.857 125.804C101.149 122.103 102.09 118.495 103.11 114.938Z" fill="#F0B1C6"/>
<path d="M119.394 150.6C121.535 150.275 123.809 150.079 125.87 150.892C127.295 151.441 128.49 152.672 128.836 154.184C129.257 157.594 130.419 160.978 132.536 163.708C135.434 166.88 139.469 168.993 143.722 169.551C147.075 169.934 150.526 169.882 153.734 171.062C155.686 171.699 157.624 172.475 159.296 173.694C160.216 174.357 160.84 175.339 161.737 176.033C162.836 176.898 164.022 177.653 165.253 178.318C165.342 183.719 165.851 189.117 165.594 194.52C165.443 197.167 164.996 199.823 164.035 202.303C161.236 202.353 158.438 202.453 155.639 202.492C153.388 202.585 151.129 202.492 148.882 202.702L148.928 202.505C149.775 202.13 150.634 201.778 151.462 201.36C152.135 199.738 151.5 197.924 150.515 196.582C149.613 195.261 148.405 194.206 147.172 193.21C147.586 191.793 147.368 190.31 147.146 188.881C147.42 188.85 147.697 188.822 147.973 188.796C148.161 186.062 148.101 183.192 146.923 180.666C146.198 179.131 144.971 177.713 143.329 177.167C141.94 177.336 141.275 178.841 140.618 179.912C140.132 180.939 139.61 181.95 139.005 182.917C138.711 182.7 138.419 182.485 138.128 182.268C138.882 180.777 139.359 179.17 139.828 177.57C140.113 176.837 139.681 176.096 139.387 175.441C138.612 173.858 136.815 173.009 135.106 173.041C132.553 172.941 130.196 174.103 127.997 175.27C125.22 176.79 122.53 178.797 121.018 181.655C120.723 182.29 120.206 183.11 120.768 183.753C121.15 184.211 121.762 183.903 122.245 183.857C123.047 184.111 123.608 184.9 124.444 185.156C122.829 185.596 121.15 186.327 120.198 187.784C119.951 188.228 119.63 188.764 119.859 189.282C120.312 190.433 120.856 191.545 121.336 192.686C120.459 193.759 119.571 194.83 118.869 196.031C118.468 194.167 117.893 192.35 117.262 190.555C117.457 188.395 117.619 186.229 117.861 184.072C117.329 183.773 116.714 183.688 116.113 183.675C115.411 184.187 115.532 185.182 115.288 185.93C114.392 183.886 113.266 181.956 112.312 179.942C114.599 180.82 117.264 181.555 119.599 180.415C119.269 177.713 118.763 174.793 116.891 172.696C117.802 172.41 118.709 172.048 119.457 171.439C120.23 170.825 120.729 169.954 121.412 169.254C122.189 168.419 123.086 167.667 124.153 167.235C126.358 166.316 128.753 166.034 131.039 165.379C130.862 164.323 130.281 163.354 129.499 162.639C128.55 161.858 127.352 161.364 126.615 160.341C125.326 158.637 125.483 156.271 124.153 154.595C122.742 152.668 120.031 151.744 117.789 152.672C118.334 151.989 118.893 151.317 119.394 150.6Z" fill="#F0B1C6"/>
<path d="M88.6962 180.681C89.8842 180.692 91.0571 180.406 92.1047 179.847C90.826 181.843 89.9015 184.092 89.638 186.466C89.2211 189.607 90.0851 192.805 91.677 195.509C92.811 194.225 94.2258 193.154 95.8717 192.642C97.0619 192.224 98.44 192.497 99.5156 191.732C100.302 191.316 100.721 190.485 100.874 189.64C101.881 191.192 102.814 192.82 103.38 194.596C103.926 192.697 104.795 190.78 106.423 189.57C107.536 188.742 108.475 187.699 109.216 186.526C109.73 187.485 110.085 188.514 110.484 189.523C112.229 193.982 113.603 198.607 114.333 203.348C110.89 203.502 107.443 203.541 104 203.65C99.2521 203.838 94.498 203.814 89.7503 203.632C85.264 203.402 80.7712 203.431 76.2805 203.387C80.134 201.844 83.8319 199.101 85.3352 195.086C86.8235 190.392 88.4327 185.64 88.6962 180.681Z" fill="#F0B1C6"/>
<path d="M119.319 198.626C120.399 197.536 121.364 196.341 122.429 195.238C122.924 196.361 123.386 197.499 123.922 198.602C124.948 200.699 127.025 202.225 129.315 202.618C130.829 202.902 132.371 202.537 133.81 202.069C133.968 202.342 134.045 202.65 134.104 202.962C129.281 202.995 124.459 203.164 119.638 203.238C119.586 203.333 119.487 203.519 119.437 203.613L119.468 203.472C119.699 201.865 119.47 200.231 119.319 198.626Z" fill="#F0B1C6"/>
<path d="M163.355 64.6566C163.432 64.6739 163.59 64.7108 163.668 64.7303C163.843 65.1964 164.005 65.669 164.18 66.1352C165.162 69.294 166.983 72.2815 166.882 75.6897C166.936 78.803 165.599 81.6952 163.97 84.2665C162.499 86.6903 160.698 88.9343 158.471 90.7012C156.846 92.4313 155.337 94.2698 153.764 96.0476C152.95 95.64 152.116 95.2758 151.259 94.9787C151.628 93.4958 152.127 92.0389 152.822 90.6752C154.866 86.5299 157.827 82.9505 160.257 79.0415C161.81 76.5526 163.169 73.8664 163.633 70.9374C164.05 68.8517 163.804 66.7119 163.355 64.6566Z" fill="#889E56"/>
<path d="M159.633 69.1097C160.97 68.3444 161.614 66.8679 162.659 65.7926C163.13 67.6268 163.018 69.5715 162.583 71.4013C161.653 75.5488 159.223 79.1304 156.84 82.5667C154.177 86.2979 151.516 90.1895 150.399 94.7077C148.742 94.2633 147.001 94.0161 145.291 94.2655C146.537 89.5673 148.055 84.9299 150.004 80.4746C150.87 78.6144 151.747 76.6913 153.211 75.2171C155.244 73.075 157.237 70.855 159.633 69.1097Z" fill="#889E56"/>
<path d="M104.795 67.733C105.171 67.6355 105.523 67.8544 105.866 67.9802C107.817 68.8387 109.646 70.0355 111.096 71.6138C112.387 73.0165 113.329 74.855 113.29 76.8041C113.184 77.5456 112.828 78.222 112.655 78.9504C111.646 82.7055 111.379 86.8183 112.772 90.5104C112.856 91.7744 112.951 93.0557 113.402 94.2503C114.409 97.0102 116.375 99.2888 118.472 101.281C116.426 100.618 114.241 100.583 112.124 100.837C111.556 100.679 110.862 100.739 110.437 100.262C108.933 98.8097 107.793 96.9387 107.37 94.8725C106.961 92.9018 107.134 90.8248 106.359 88.9343C105.991 87.757 104.95 87.0025 104.38 85.9489C103.916 85.0903 104.166 84.0974 104.361 83.2041C105.264 79.7071 106.169 76.1168 105.875 72.4745C105.691 70.8658 105.544 69.1986 104.795 67.733Z" fill="#889E56"/>
<path d="M95.1244 77.5932C97.049 73.5694 100.477 70.5059 104.171 68.1384C104.695 70.1851 105.136 72.2815 105.039 74.4084C104.907 77.0794 104.441 79.7331 103.663 82.2914C103.315 83.4383 103.142 84.6762 103.386 85.8643C103.756 87.0979 104.937 87.8481 105.415 89.0318C106.51 91.5251 106.082 94.3804 107.074 96.9061C107.737 98.5907 108.899 100.024 110.175 101.279C107.929 101.873 105.892 103.024 103.911 104.208C102.162 105.283 100.44 106.443 99.0016 107.926C97.1829 103.696 94.0164 100.189 90.4848 97.3137C88.1865 95.601 85.9812 93.7365 83.5188 92.2622C82.091 94.4172 81.7368 97.0948 81.9484 99.627C79.4882 98.0509 76.9632 96.5571 74.3215 95.3083C72.8419 94.5256 71.0858 94.5777 69.6408 93.7061C68.5132 93.0882 67.4894 92.2687 66.6772 91.2692C66.12 90.595 65.7657 89.7755 65.1566 89.1424C64.3077 88.2123 63.5042 87.202 62.4177 86.5386C64.6317 85.383 66.8392 84.2123 69.0554 83.0567C71.1873 81.9705 73.2566 80.5851 75.6844 80.2859C79.7344 79.8263 84.0112 81.2897 86.8236 84.2773C87.4845 84.9819 88.1563 85.6844 88.908 86.2958C92.0745 88.9451 95.1957 91.653 98.4012 94.2546C98.4098 93.8232 98.5027 93.3462 98.2435 92.9668C97.589 91.7939 96.5371 90.9267 95.5413 90.0595C95.1309 89.7061 94.9495 89.1771 94.7421 88.6958C93.2971 85.1597 93.4677 81.0274 95.1244 77.5932Z" fill="#889E56"/>
<path d="M121.33 117.76C123.04 116.64 124.77 115.549 126.49 114.441C126.997 116.882 126.194 119.378 125.051 121.52C124.062 124.41 123.44 127.478 123.686 130.543C125.099 129.446 126.872 128.928 128.635 128.8C132.637 128.516 136.629 129.557 140.23 131.261C143.584 132.926 147.243 133.986 150.971 134.335C149.038 136.304 146.638 137.758 144.206 139.022C148.943 140.618 152.829 144.358 154.814 148.937C155.624 150.821 156.436 152.809 158.006 154.201C160.838 156.56 162.903 159.693 164.646 162.91C166.441 166.448 167.64 170.301 168.087 174.251C168.301 175.736 169.26 176.937 170.152 178.082C168.839 177.514 167.819 176.467 166.813 175.48C164.692 173.199 162.7 170.797 160.559 168.534C157.723 165.397 154.931 162.153 151.464 159.693C149.267 158.16 146.764 156.887 144.059 156.664C143.2 156.521 142.722 155.656 142.644 154.851C142.223 151.855 140.268 149.236 137.771 147.621C134.864 145.657 131.233 145.043 127.788 145.364C125.753 145.615 123.751 146.071 121.794 146.671C122.954 144.228 123.861 141.555 123.639 138.81C123.524 137.173 122.902 135.586 121.889 134.3C118.731 133.57 115.275 133.841 112.422 135.456C112.471 134.448 113.042 133.583 113.506 132.722C115.016 130.129 117.349 128.195 119.347 126.006C121.926 123.263 124.25 120.163 125.542 116.588C125.771 116.215 125.412 115.944 125.17 115.718C124.662 116.178 124.498 116.856 124.233 117.463C123.194 119.872 121.654 122.029 119.926 123.987C117.709 126.669 114.917 128.859 113.031 131.816C112.18 133.26 111.368 134.784 111.031 136.44C108.851 138.274 107.598 140.932 106.849 143.632C104.149 141.886 101.006 140.742 97.7812 140.605C98.2284 137.741 99.1896 134.955 100.654 132.455C103.086 128.206 106.842 124.759 111.225 122.617C114.608 121.03 118.215 119.872 121.33 117.76Z" fill="#889E56"/>
<path d="M126.557 146.476C129.142 146.012 131.853 146.075 134.354 146.936C137.394 147.907 140.111 150.166 141.286 153.186C141.752 154.353 141.586 155.784 142.459 156.77C143.407 157.746 144.882 157.52 146.077 157.932C150.157 159.216 153.429 162.149 156.322 165.199C159.322 168.475 162.292 171.779 165.273 175.073C166.858 176.872 168.651 178.535 170.83 179.582C168.893 180.079 166.949 179.183 165.253 178.318C164.022 177.653 162.836 176.898 161.737 176.033C160.84 175.339 160.216 174.357 159.296 173.694C157.624 172.475 155.687 171.699 153.734 171.062C150.526 169.882 147.075 169.934 143.722 169.551C139.469 168.993 135.434 166.88 132.536 163.708C130.419 160.978 129.257 157.594 128.836 154.184C128.49 152.672 127.296 151.441 125.87 150.892C123.809 150.079 121.535 150.275 119.394 150.6C119.997 149.743 120.574 148.868 121.092 147.955C122.807 147.14 124.697 146.797 126.557 146.476Z" fill="#889E56"/>
<path d="M70.196 196.777C72.6411 189.789 77.0778 183.493 82.9465 178.986C82.9875 179.309 83.0286 179.632 83.0739 179.959C83.6074 180.1 84.1474 180.22 84.6918 180.313C84.2727 180.783 83.9919 181.353 83.6787 181.898C79.592 188.727 73.8766 194.446 70.1614 201.516C69.4897 202.728 69.0339 204.044 68.3816 205.267C68.5566 202.37 69.2931 199.526 70.196 196.777Z" fill="#889E56"/>
<path d="M85.4952 180.447C86.5536 180.616 87.625 180.668 88.6963 180.681C88.4328 185.64 86.8236 190.392 85.3354 195.086C83.832 199.101 80.1341 201.844 76.2807 203.387C75.3972 203.771 74.4101 203.849 73.5483 204.298C71.6215 205.219 70.0577 206.717 68.563 208.215C69.0879 205.57 70.278 203.112 71.5675 200.766C75.6046 193.583 81.6634 187.76 85.4952 180.447Z" fill="#889E56"/>
<path d="M137.294 97.6324C138.322 97.5283 139.474 97.3311 140.413 97.8926C141.176 98.311 141.616 99.3582 141.096 100.134C140.081 101.754 138.068 102.526 137.305 104.345C136.728 105.611 136.357 107.23 134.953 107.84C132.594 108.9 129.756 106.595 129.929 104.104C130.032 102.5 130.918 101.034 132.087 99.9717C133.503 98.6319 135.402 97.9424 137.294 97.6324ZM135.514 100.392C135.095 100.668 135.536 101.496 135.951 101.062C136.564 100.496 137.277 100.045 138.102 99.8655C138.1 99.6248 138.098 99.3864 138.096 99.15C137.113 99.1544 136.201 99.7267 135.514 100.392ZM133.268 100.293C132.471 100.952 131.782 101.763 131.298 102.682C131.086 103.024 131.382 103.532 131.795 103.373C132.27 102.506 132.892 101.752 133.603 101.069C133.998 100.841 133.683 100.095 133.268 100.293ZM137.37 101.379C136.584 102.014 135.951 102.825 135.391 103.662C135.415 104.045 135.78 104.111 136.093 104.091C136.599 103.263 137.227 102.469 138.096 102.005C138.152 101.602 137.787 101.129 137.37 101.379ZM133.94 102.443C133.514 103.185 132.836 103.831 132.719 104.711C132.918 104.772 133.205 105.058 133.376 104.778C133.858 104.152 134.221 103.438 134.644 102.773C134.644 102.619 134.644 102.311 134.644 102.157C134.385 102.198 134.056 102.144 133.94 102.443Z" fill="#E2B560"/>
<path d="M104.08 154.929C104.851 154.606 105.687 155.133 106.115 155.773C106.832 156.837 106.97 158.153 107.227 159.383C107.443 160.735 107.784 162.24 107.11 163.519C106.4 164.657 105.013 165.087 103.786 165.405C103.041 165.631 102.209 165.199 101.929 164.48C100.978 162.112 101.319 159.4 102.354 157.119C102.736 156.276 103.158 155.291 104.08 154.929ZM103.786 156.751C103.227 157.531 102.821 158.559 103.006 159.53C103.149 159.883 103.503 159.747 103.739 159.58C103.762 159.02 103.782 158.439 104.047 157.934C104.171 157.587 104.464 157.254 104.365 156.865C104.225 156.707 103.946 156.49 103.786 156.751ZM103.244 161.854C103.436 162.624 103.52 163.428 103.799 164.174C104.013 164.586 104.54 164.059 104.438 163.732C104.233 162.871 104.181 161.956 103.76 161.165C103.525 161.316 103.123 161.505 103.244 161.854Z" fill="#E2B560"/>
<path d="M135.514 100.392C136.201 99.7267 137.113 99.1544 138.095 99.15C138.098 99.3863 138.1 99.6248 138.102 99.8655C137.277 100.045 136.564 100.496 135.951 101.062C135.536 101.496 135.095 100.668 135.514 100.392Z" fill="#F4D485"/>
<path d="M133.268 100.293C133.683 100.095 133.998 100.841 133.603 101.069C132.892 101.752 132.27 102.506 131.795 103.373C131.382 103.532 131.086 103.024 131.298 102.682C131.782 101.763 132.471 100.952 133.268 100.293Z" fill="#F4D485"/>
<path d="M137.37 101.379C137.787 101.129 138.152 101.602 138.095 102.005C137.227 102.469 136.599 103.263 136.093 104.091C135.78 104.11 135.415 104.045 135.391 103.662C135.951 102.825 136.583 102.014 137.37 101.379Z" fill="#F4D485"/>
<path d="M133.94 102.443C134.056 102.144 134.385 102.198 134.644 102.157C134.644 102.311 134.644 102.619 134.644 102.773C134.22 103.438 133.858 104.152 133.376 104.778C133.205 105.058 132.918 104.772 132.719 104.711C132.836 103.831 133.514 103.185 133.94 102.443Z" fill="#F4D485"/>
<path d="M103.786 156.75C103.946 156.49 104.225 156.707 104.365 156.865C104.464 157.253 104.171 157.587 104.047 157.934C103.782 158.439 103.762 159.02 103.739 159.58C103.503 159.747 103.149 159.883 103.006 159.53C102.821 158.559 103.227 157.531 103.786 156.75Z" fill="#F4D485"/>
<path d="M103.244 161.854C103.123 161.505 103.525 161.316 103.76 161.165C104.181 161.956 104.233 162.871 104.438 163.732C104.54 164.059 104.013 164.586 103.799 164.174C103.52 163.428 103.436 162.624 103.244 161.854Z" fill="#F4D485"/>
</g>
<defs>
<linearGradient id="paint0_linear_329_2579" x1="112.5" y1="0" x2="112.5" y2="306" gradientUnits="userSpaceOnUse">
<stop stop-color="#EFE7D2"/>
<stop offset="1" stop-color="#F2E8CF"/>
</linearGradient>
<linearGradient id="paint1_linear_329_2579" x1="13.5" y1="153" x2="0" y2="153" gradientUnits="userSpaceOnUse">
<stop stop-color="#F3EBD6"/>
<stop offset="0.668269" stop-color="#FDF7EA"/>
<stop offset="1" stop-color="#BCAE8B"/>
</linearGradient>
<clipPath id="clip0_329_2579">
<rect width="129.6" height="184.5" fill="white" transform="translate(51.3003 48.6)"/>
</clipPath>
</defs>
</svg>
