<svg width="225" height="306" viewBox="0 0 225 306" fill="none" xmlns="http://www.w3.org/2000/svg">
<path d="M225 4C225 1.79086 223.209 0 221 0H20C8.9543 0 0 8.95431 0 20V286C0 297.046 8.95431 306 20 306H221C223.209 306 225 304.209 225 302V4Z" fill="url(#paint0_linear_332_2704)"/>
<path d="M224.5 4C224.5 1.79086 222.709 0 220.5 0H211V306H220.5C222.709 306 224.5 304.209 224.5 302V4Z" fill="url(#paint1_linear_332_2704)"/>
<g clip-path="url(#clip0_332_2704)">
<path d="M107 170H202.861C202.877 204.572 202.861 239.144 202.869 273.716C202.859 284.478 202.88 295.238 202.858 306H107V170ZM158.779 178.638C158.906 179.367 159.405 179.964 159.69 180.637C159.029 180.6 158.37 180.696 157.71 180.73C152.974 181.073 148.221 181.156 143.475 180.984C137.854 180.858 132.323 179.51 126.69 179.622C125.456 179.645 124.229 179.79 122.998 179.87C122.024 179.936 121.011 180.076 120.158 180.583C119.608 180.91 119.285 181.521 119.224 182.147C119.05 183.645 119.362 185.136 119.562 186.614C119.754 187.726 119.79 188.856 119.842 189.981C119.963 191.787 120.045 193.593 120.152 195.399C118.51 196.251 116.875 197.114 115.235 197.966C116.04 198.455 116.635 199.199 117.264 199.885C117.715 200.351 117.978 200.956 118.39 201.453C118.992 202.189 119.75 202.793 120.586 203.249C120.562 203.562 120.549 203.879 120.566 204.193C120.909 211.597 121.141 219.006 121.298 226.417C121.424 232.649 121.579 238.887 121.386 245.12C121.309 247.307 121.146 249.49 121.022 251.677C120.512 258.691 120.338 265.732 120.603 272.761C120.717 274.915 120.726 277.084 120.997 279.225C120.328 281.252 119.782 283.348 119.653 285.483C119.522 286.193 119.238 286.863 119.086 287.566C119.136 287.938 119.694 288.123 119.787 287.657C120.894 286.552 122.053 285.448 123.48 284.769C124.118 284.438 124.85 284.381 125.504 284.098C128.83 284.13 132.158 284.109 135.482 284.278C138.998 284.413 142.52 284.43 146.037 284.291C148.587 284.211 151.141 284.182 153.691 284.069C153.766 284.576 153.851 285.084 153.878 285.597C155.195 285.659 156.757 285.379 157.494 284.16L157.472 284.264C157.509 284.195 157.582 284.058 157.621 283.988C161.192 283.933 164.763 283.809 168.336 283.785C168.293 283.554 168.235 283.327 168.118 283.126C167.994 282.266 167.995 281.394 168.11 280.534C169.867 280.691 171.693 280.846 173.394 280.25C174.194 280.01 174.88 279.53 175.563 279.067C175.088 280.357 174.362 281.552 173.594 282.687C172.89 283.716 172.019 284.711 170.824 285.164C171.248 285.442 171.797 285.312 172.277 285.354C174.733 285.264 177.074 284.385 179.317 283.447L179.283 283.593C180.947 283.438 182.621 283.506 184.288 283.438C186.362 283.409 188.434 283.335 190.507 283.299C191.219 281.47 191.55 279.513 191.662 277.561C191.853 273.579 191.475 269.6 191.41 265.619C192.666 266.256 194.106 266.916 195.541 266.55C195.699 266.479 195.858 266.408 196.019 266.339C195.944 266.194 195.869 266.049 195.795 265.906C195.518 265.793 195.282 265.609 195.038 265.445C194.378 264.601 193.667 263.715 193.509 262.621C193.178 259.709 192.29 256.869 190.96 254.261C191.038 252.597 190.886 250.934 190.87 249.272C190.458 232.231 190.29 215.182 190.494 198.138C190.514 197.521 190.52 196.904 190.459 196.291C191.666 194.395 192.656 192.263 192.616 189.969C192.691 187.456 191.342 185.254 190.614 182.926C190.926 182.083 190.715 181.136 190.806 180.25C185.107 180.03 179.437 179.199 173.725 179.285C170.827 179.323 167.962 179.785 165.082 180.06C164.76 180.089 164.442 180.138 164.126 180.212C163.678 179.224 163.278 178.214 162.802 177.243C162.526 176.659 161.786 176.763 161.261 176.824C160.218 176.955 159.018 177.521 158.779 178.638Z" fill="#EFE7D2"/>
<path d="M181.938 211.134C183.267 210.898 184.47 210.26 185.717 209.776C185.52 210.719 185.022 211.577 184.325 212.238C182.952 213.579 181.027 214.127 179.17 214.367C177.789 214.634 176.434 214.047 175.29 213.327C174.4 212.745 173.531 212.095 172.882 211.244C174.64 210.976 176.424 210.984 178.198 211.011C179.445 211.022 180.691 211.326 181.938 211.134Z" fill="#EFE7D2"/>
<path d="M163.184 214.445C163.686 214.115 164.102 213.662 164.638 213.379C163.83 215.246 162.298 216.716 160.57 217.747C159.792 218.222 158.947 218.572 158.15 219.011C157.37 219.836 156.453 220.576 155.331 220.865C153.434 221.375 151.402 220.926 149.675 220.064C148.365 219.315 146.827 219.198 145.378 218.899C144.95 218.826 144.522 218.762 144.094 218.695C144.202 218.618 144.31 218.541 144.421 218.466C143.07 218.565 141.717 218.553 140.363 218.599C141.094 217.829 142.096 217.373 143.102 217.079C145.563 216.377 148.179 216.564 150.664 217.034C151.907 217.252 153.099 217.729 154.365 217.811C155.446 217.88 156.538 217.685 157.539 217.279C159.496 216.501 161.438 215.638 163.184 214.445Z" fill="#EFE7D2"/>
<path d="M127.379 222.393C130.306 222.679 132.69 224.694 134.621 226.759C134.016 227.261 133.342 227.675 132.675 228.09C132.294 228.352 131.826 228.379 131.379 228.416C131.029 228.315 130.686 228.196 130.349 228.063C129.968 227.638 129.621 227.154 129.539 226.573C129.349 225.434 129.011 224.283 128.283 223.363C127.995 223.027 127.667 222.728 127.379 222.393Z" fill="#EFE7D2"/>
<path d="M136.042 229.236C136.853 227.376 138.67 225.862 140.75 225.766C141.605 225.679 142.427 225.96 143.264 226.072C143.432 226.34 143.563 226.628 143.709 226.909C143.851 227.192 143.981 227.481 144.096 227.777C143.949 227.86 143.802 227.945 143.656 228.029C142.176 228.886 140.462 229.319 138.755 229.317C137.848 229.321 136.947 229.135 136.042 229.236Z" fill="#EFE7D2"/>
<path d="M127.482 245.358C128.075 245.861 128.518 246.504 129.067 247.05C132.014 250.099 135.922 252.335 140.174 252.845C138.805 253.662 137.125 253.566 135.587 253.644C133.829 253.407 132.168 252.755 130.517 252.142C129.28 251.678 128.178 250.679 127.861 249.366C127.622 248.493 127.981 247.595 127.802 246.718C127.714 246.259 127.595 245.808 127.482 245.358Z" fill="#EFE7D2"/>
<path d="M168.658 264.829C169.749 264.558 170.867 264.182 171.637 263.316C172.219 265.085 171.816 267.139 170.531 268.503C169.893 268.081 169.243 267.637 168.488 267.455C167.293 267.132 165.925 267.377 164.979 268.192C164.626 268.959 164.666 269.851 164.424 270.659C163.355 270.889 162.254 270.808 161.181 270.659C160.562 270.471 160.146 269.889 159.552 269.702C159.81 269.199 159.829 268.61 160.102 268.113C160.813 266.745 162.262 265.782 163.805 265.67C165.435 265.481 167.067 265.245 168.658 264.829Z" fill="#EFE7D2"/>
<path d="M173.634 266.44C174.069 265.866 174.536 265.285 175.203 264.97C175.469 266.777 175.366 268.892 176.741 270.295C176.197 270.694 175.558 270.942 175.013 271.34C174.571 271.64 174.232 272.058 173.888 272.46C173.68 271.223 173.051 270.031 171.957 269.363C171.96 269.274 171.965 269.096 171.966 269.008C172.414 268.296 172.802 267.551 173.162 266.793C173.389 266.801 173.502 266.584 173.634 266.44Z" fill="#EFE7D2"/>
<path d="M165.283 268.757C165.666 269.069 165.85 269.552 166.203 269.895C167.166 270.998 168.701 271.664 170.166 271.321C170.838 272.826 171.792 274.626 173.59 274.909C173.2 275.11 172.754 275.134 172.334 275.241C170.68 275.639 169.022 276.138 167.552 277.012C167.125 277.264 166.842 277.694 166.421 277.951C166.003 278.106 165.934 277.515 166.005 277.234C166.19 276.144 166.893 275.167 166.81 274.025C166.829 273.058 166.13 272.273 165.32 271.839C165.245 270.813 165.27 269.783 165.283 268.757Z" fill="#EFE7D2"/>
<path d="M158.779 178.638C159.018 177.521 160.218 176.955 161.261 176.824C161.786 176.763 162.527 176.659 162.802 177.243C163.279 178.214 163.679 179.224 164.127 180.212C164.744 181.646 165.408 183.06 166.008 184.501C167.512 183.442 169.037 182.409 170.562 181.377C171.485 180.762 172.573 180.182 173.722 180.412C173.962 180.469 174.325 180.704 174.165 180.992C173.986 181.39 173.607 181.642 173.219 181.813C171.384 182.646 169.653 183.709 168.096 184.987C167.549 185.454 166.96 185.967 166.779 186.692C166.611 187.367 166.922 188.038 167.293 188.586C165.838 190.104 164.527 191.754 163.362 193.504C163.077 190.232 162.451 186.967 161.195 183.92C160.746 182.803 160.227 181.714 159.69 180.637C159.405 179.964 158.906 179.367 158.779 178.638Z" fill="#567C71"/>
<path d="M189.386 181.992C189.504 181.724 189.773 181.793 190.003 181.836C190.336 183.351 190.518 184.928 190.21 186.465C189.866 188.624 188.859 190.605 187.709 192.439C185.909 195.321 183.715 197.959 182.202 201.015C181.686 202.02 181.317 203.094 181.043 204.187C180.832 204.115 180.619 204.05 180.406 203.987C181.234 200.657 183.205 197.788 185.178 195.038C186.942 192.505 188.742 189.865 189.432 186.807C189.754 185.459 189.837 184.025 189.488 182.673C189.443 182.449 189.379 182.224 189.386 181.992Z" fill="#567C71"/>
<path d="M146.163 184.402C146.315 184.302 146.47 184.203 146.626 184.103C147.181 185.184 147.29 186.413 147.426 187.599C147.643 190.283 146.973 192.93 146.304 195.508C146.16 196.166 145.974 196.898 146.318 197.531C146.741 198.308 147.512 198.864 147.784 199.731C148.358 201.125 148.23 202.656 148.533 204.109C148.846 205.632 149.691 207.011 150.805 208.082C151.12 208.433 151.634 208.388 152.054 208.505C151.566 208.585 151.088 208.705 150.611 208.831C149.666 207.906 148.805 206.849 148.314 205.608C147.579 203.746 147.896 201.641 147.085 199.803C146.731 198.931 145.856 198.378 145.582 197.469C145.402 196.593 145.53 195.68 145.787 194.835C146.363 192.949 146.709 190.993 146.806 189.024C146.878 187.456 146.552 185.911 146.163 184.402Z" fill="#567C71"/>
<path d="M143.206 218.562C143.502 218.6 143.797 218.655 144.094 218.695C144.522 218.762 144.95 218.826 145.378 218.899C144.622 221.522 143.925 224.181 143.709 226.909C143.563 226.628 143.432 226.34 143.264 226.072C142.782 225.562 142.653 224.846 142.646 224.168C142.613 222.282 143.062 220.435 143.206 218.562Z" fill="#567C71"/>
<path d="M161.024 220.761C161.221 220.314 161.342 219.813 161.718 219.475C161.898 219.641 162.163 219.841 161.994 220.115C161.037 222.751 159.315 225.036 157.405 227.058C155.925 228.672 154.197 230.097 153.078 232.009C152.734 232.643 152.312 233.281 152.275 234.024C151.918 234.246 151.574 234.489 151.245 234.749C151.494 233.528 152.096 232.405 152.726 231.341C154.123 229.161 156.192 227.547 157.834 225.57C159.114 224.127 160.254 222.537 161.024 220.761Z" fill="#567C71"/>
<path d="M138.755 229.317C140.462 229.319 142.176 228.886 143.656 228.029C143.574 229.289 143.533 230.55 143.558 231.812C142.474 233.655 141.762 235.708 141.43 237.819C140.403 237.829 139.357 237.95 138.419 238.396C138.355 235.366 138.424 232.333 138.755 229.317Z" fill="#567C71"/>
<path d="M159.218 242.291C160.667 241.848 162.15 241.513 163.658 241.327C166.21 241.091 168.899 241.543 171.053 242.991C172.902 244.182 174.35 246.112 174.662 248.321C174.72 248.914 175.074 249.551 175.71 249.657C177.714 249.821 179.568 250.759 181.195 251.889C183.763 253.703 185.832 256.094 187.933 258.406C189.518 260.075 190.994 261.846 192.565 263.527C193.31 264.254 194.066 265.026 195.038 265.445C195.282 265.609 195.518 265.793 195.795 265.906C195.869 266.049 195.944 266.194 196.019 266.339C195.858 266.408 195.699 266.479 195.541 266.55C193.926 265.779 192.598 264.553 191.424 263.226C189.216 260.799 187.016 258.363 184.794 255.949C182.651 253.7 180.227 251.538 177.205 250.592C176.32 250.288 175.227 250.454 174.525 249.735C173.878 249.008 174.002 247.953 173.656 247.093C172.786 244.867 170.773 243.202 168.522 242.486C166.669 241.852 164.661 241.805 162.746 242.147C161.368 242.384 159.968 242.636 158.698 243.237C158.877 242.924 159.053 242.611 159.218 242.291Z" fill="#567C71"/>
<path d="M150.453 265.946C151.013 266.272 151.603 266.547 152.194 266.816C152.901 268.3 153.734 269.723 154.398 271.23C154.579 270.678 154.49 269.945 155.01 269.568C155.454 269.577 155.91 269.64 156.304 269.86C156.125 271.45 156.005 273.047 155.861 274.638C156.328 275.962 156.754 277.301 157.051 278.675C157.571 277.79 158.229 277.001 158.878 276.209C159.15 276.836 159.419 277.462 159.688 278.09C158.899 278.904 158.184 279.784 157.384 280.588C157.496 281.771 157.666 282.976 157.494 284.16C156.757 285.379 155.195 285.659 153.878 285.597C153.851 285.084 153.766 284.576 153.691 284.069C153.15 280.574 152.133 277.165 150.84 273.878C150.544 273.135 150.282 272.376 149.901 271.669C151.005 269.999 151.285 267.791 150.453 265.946Z" fill="#567C71"/>
<path d="M130.984 268.257C131.216 267.856 131.424 267.436 131.734 267.089C131.883 267.113 132.181 267.164 132.33 267.188C129.491 272.579 125.003 276.871 122.013 282.166C121.058 283.895 120.176 285.707 119.787 287.657C119.694 288.123 119.136 287.938 119.086 287.566C119.238 286.863 119.522 286.193 119.653 285.483C120.136 284.582 120.474 283.612 120.971 282.719C123.723 277.507 127.957 273.291 130.984 268.257Z" fill="#567C71"/>
<path d="M165.081 180.06C167.961 179.785 170.827 179.323 173.725 179.285C179.437 179.199 185.107 180.03 190.806 180.25C190.715 181.136 190.926 182.083 190.614 182.926C190.485 182.582 190.365 182.234 190.235 181.89C190.177 181.876 190.061 181.848 190.003 181.836C189.773 181.793 189.504 181.724 189.385 181.992C189.379 182.224 189.443 182.449 189.488 182.673C188.713 183.466 188.237 184.554 187.246 185.118C185.472 186.405 183.995 188.041 182.489 189.62C181.405 190.707 180.755 192.124 180.113 193.496C178.67 196.78 177.545 200.198 176.622 203.661C176.382 203.68 176.062 203.714 176.033 203.386C175.878 201.966 177.033 200.809 177.024 199.405C177.024 198.75 176.587 198.106 175.957 197.908C175.44 197.849 174.942 198.065 174.472 198.252C172.741 199.02 171.243 200.204 169.702 201.283C170.734 198.76 171.672 196.188 172.345 193.545C172.705 192.006 173.027 190.442 173.011 188.855C172.969 188.017 172.88 187.1 172.307 186.44C171.904 185.992 171.219 186.075 170.694 186.21C169.342 186.628 168.296 187.637 167.293 188.586C166.921 188.038 166.611 187.367 166.779 186.692C166.96 185.967 167.549 185.454 168.096 184.987C169.653 183.709 171.384 182.646 173.219 181.813C173.606 181.642 173.985 181.39 174.165 180.992C174.325 180.704 173.961 180.469 173.721 180.412C172.573 180.182 171.485 180.762 170.561 181.377C169.037 182.409 167.512 183.442 166.008 184.501C165.408 183.06 164.744 181.645 164.126 180.212C164.441 180.138 164.76 180.089 165.081 180.06Z" fill="#F0B1C6"/>
<path d="M122.998 179.87C124.229 179.79 125.456 179.645 126.69 179.622C132.323 179.51 137.854 180.858 143.475 180.984C148.221 181.156 152.974 181.073 157.71 180.73C158.37 180.696 159.029 180.6 159.69 180.637C160.227 181.714 160.746 182.803 161.195 183.92C162.451 186.967 163.077 190.232 163.362 193.504C163.323 193.524 163.245 193.564 163.205 193.585C162.76 191.324 161.157 189.171 158.869 188.532C159.17 190 158.557 191.488 157.68 192.645C157.128 193.379 156.41 193.962 155.664 194.486C153.667 195.961 152.608 198.455 152.534 200.893C151.502 198.172 151.701 195.14 152.448 192.372C152.576 191.835 152.84 191.337 152.918 190.79C152.947 189.353 152.25 187.998 151.293 186.964C150.219 185.801 148.864 184.918 147.419 184.286C147.165 184.193 146.904 184.031 146.626 184.103C146.47 184.202 146.315 184.302 146.163 184.402C143.427 186.147 140.888 188.406 139.462 191.372C138.235 193.903 138.109 196.949 139.179 199.556C139.333 199.91 139.467 200.3 139.771 200.561C140.509 201.2 141.288 201.839 141.773 202.704C141.965 202.984 141.896 203.335 141.89 203.653C139.515 201.735 137.203 199.739 134.858 197.787C134.301 197.336 133.803 196.818 133.314 196.299C131.23 194.096 128.062 193.018 125.062 193.357C123.264 193.577 121.731 194.598 120.152 195.399C120.045 193.593 119.963 191.787 119.842 189.981C119.79 188.856 119.754 187.726 119.562 186.614C119.362 185.136 119.05 183.645 119.224 182.147C119.285 181.521 119.608 180.91 120.158 180.583C121.011 180.076 122.024 179.936 122.998 179.87Z" fill="#F0B1C6"/>
<path d="M186.385 201.034C188.035 199.731 189.369 198.077 190.459 196.291C190.52 196.904 190.513 197.521 190.494 198.138C190.289 215.182 190.457 232.231 190.87 249.272C190.886 250.934 191.038 252.597 190.96 254.261C189.669 251.889 188.139 249.58 186.041 247.841C184.878 246.815 184.277 245.35 183.677 243.961C182.206 240.586 179.328 237.829 175.819 236.653C177.621 235.721 179.398 234.649 180.83 233.198C178.069 232.94 175.358 232.159 172.873 230.931C170.206 229.675 167.249 228.908 164.285 229.118C162.979 229.212 161.665 229.594 160.619 230.403C160.437 228.143 160.897 225.881 161.63 223.751C163.037 224.857 164.555 225.837 166.169 226.609C166.643 225.488 166.472 224.243 166.289 223.08C166.437 223.163 166.576 223.259 166.696 223.379C168.345 225.023 170.422 226.278 172.707 226.791C175.062 227.331 177.574 227.035 179.782 226.076C178.929 224.918 178.55 223.502 178.134 222.148C179.323 222.423 180.493 221.856 181.405 221.133C181.781 220.898 181.734 220.4 181.792 220.015C181.886 217.841 180.673 215.845 179.169 214.367C181.027 214.127 182.952 213.579 184.325 212.238C185.022 211.577 185.52 210.718 185.717 209.776C186.96 209.344 188.182 208.807 189.221 207.987C189.065 207.567 188.829 207.166 188.44 206.923C187.31 206.173 185.917 206.073 184.608 205.921C184.009 205.662 183.496 205.239 182.899 204.975C184.064 203.664 185.182 202.309 186.385 201.034Z" fill="#F0B1C6"/>
<path d="M120.586 203.249C121.656 203.891 122.957 203.853 124.053 204.43C126.01 205.35 127.88 206.452 129.702 207.613C129.838 209.328 130.248 211.019 130.875 212.619C128.85 212.529 126.685 211.919 125.344 210.303C124.782 211.436 124.843 212.767 125.262 213.936C125.995 215.989 127.406 217.701 128.878 219.275C127.925 218.995 126.952 218.791 125.971 218.639C125.757 220.05 126.581 221.356 127.37 222.455C125.483 221.752 123.413 221.522 121.427 221.897C123.43 225.05 126.84 227.008 130.349 228.063C130.686 228.196 131.029 228.315 131.379 228.416C130.301 229.116 129.378 230.097 128.848 231.277C128.174 232.752 128.051 234.435 128.354 236.017C126.614 237.986 125.358 240.332 124.368 242.751C126.931 242.348 129.154 240.773 130.858 238.881C133.314 236.122 134.882 232.709 136.042 229.236C136.947 229.135 137.848 229.321 138.755 229.317C138.424 232.333 138.355 235.366 138.419 238.396C136.862 239.063 135.73 240.413 134.96 241.883C133.349 241.794 131.917 242.734 130.792 243.792C130.56 243.985 130.357 244.26 130.038 244.305C129.059 244.48 128.069 244.591 127.077 244.664C127.21 244.894 127.346 245.126 127.482 245.358C127.595 245.808 127.714 246.259 127.802 246.718C127.981 247.595 127.622 248.493 127.861 249.366C128.178 250.679 129.28 251.678 130.517 252.142C132.168 252.755 133.829 253.407 135.587 253.644C133.723 254.879 132.203 256.631 131.342 258.702C130.347 261.027 130.171 263.619 130.442 266.111C126.094 269.433 122.808 274.074 120.997 279.225C120.726 277.084 120.717 274.915 120.603 272.761C120.338 265.732 120.512 258.691 121.022 251.677C121.146 249.49 121.309 247.307 121.386 245.12C121.579 238.887 121.424 232.649 121.298 226.417C121.141 219.006 120.909 211.597 120.566 204.193C120.549 203.879 120.562 203.562 120.586 203.249Z" fill="#F0B1C6"/>
<path d="M145.377 218.899C146.827 219.198 148.365 219.315 149.675 220.064C151.401 220.926 153.433 221.375 155.331 220.865C156.453 220.576 157.369 219.836 158.15 219.011C158.253 219.713 158.56 220.354 158.873 220.98C156.566 222.537 153.894 223.39 151.389 224.56C148.142 226.139 145.36 228.68 143.558 231.812C143.533 230.55 143.574 229.289 143.656 228.029C143.801 227.945 143.949 227.86 144.096 227.777C143.981 227.481 143.851 227.192 143.709 226.909C143.925 224.181 144.622 221.522 145.377 218.899Z" fill="#F0B1C6"/>
<path d="M157.44 245.187C159.026 244.947 160.71 244.803 162.237 245.402C163.293 245.807 164.178 246.715 164.434 247.828C164.746 250.342 165.606 252.837 167.174 254.849C169.322 257.187 172.31 258.745 175.461 259.156C177.944 259.439 180.501 259.4 182.877 260.27C184.323 260.74 185.758 261.312 186.997 262.21C187.678 262.699 188.141 263.423 188.805 263.934C189.619 264.572 190.498 265.128 191.41 265.619C191.475 269.6 191.853 273.579 191.662 277.561C191.55 279.513 191.219 281.47 190.507 283.299C188.434 283.335 186.362 283.409 184.288 283.438C182.621 283.506 180.947 283.438 179.283 283.593L179.317 283.447C179.944 283.171 180.581 282.912 181.194 282.604C181.693 281.408 181.222 280.071 180.493 279.081C179.824 278.108 178.93 277.33 178.016 276.596C178.323 275.551 178.162 274.458 177.997 273.405C178.2 273.382 178.405 273.362 178.61 273.342C178.749 271.327 178.704 269.211 177.832 267.349C177.294 266.218 176.386 265.173 175.17 264.77C174.141 264.895 173.648 266.004 173.162 266.793C172.802 267.551 172.414 268.296 171.966 269.008C171.749 268.849 171.533 268.69 171.317 268.53C171.875 267.431 172.229 266.247 172.576 265.067C172.787 264.527 172.467 263.981 172.25 263.498C171.675 262.331 170.344 261.705 169.078 261.729C167.187 261.655 165.442 262.512 163.813 263.372C161.755 264.492 159.763 265.972 158.643 268.078C158.424 268.546 158.042 269.151 158.458 269.625C158.741 269.962 159.194 269.735 159.552 269.702C160.146 269.889 160.562 270.471 161.181 270.659C159.984 270.984 158.741 271.522 158.035 272.596C157.853 272.924 157.614 273.318 157.784 273.7C158.12 274.549 158.523 275.369 158.878 276.209C158.229 277.001 157.571 277.79 157.051 278.675C156.754 277.301 156.328 275.962 155.861 274.638C156.005 273.047 156.125 271.45 156.304 269.86C155.91 269.64 155.454 269.577 155.01 269.568C154.49 269.945 154.579 270.678 154.398 271.23C153.734 269.723 152.901 268.3 152.194 266.816C153.888 267.463 155.862 268.005 157.592 267.164C157.347 265.173 156.973 263.02 155.586 261.475C156.261 261.264 156.933 260.997 157.486 260.548C158.059 260.096 158.429 259.453 158.934 258.937C159.51 258.322 160.174 257.767 160.965 257.449C162.598 256.772 164.373 256.564 166.066 256.081C165.934 255.303 165.504 254.588 164.925 254.061C164.222 253.486 163.334 253.121 162.789 252.367C161.834 251.111 161.95 249.367 160.965 248.132C159.92 246.711 157.912 246.031 156.251 246.715C156.654 246.211 157.069 245.716 157.44 245.187Z" fill="#F0B1C6"/>
<path d="M134.701 267.361C135.581 267.369 136.45 267.158 137.226 266.745C136.278 268.217 135.594 269.874 135.398 271.624C135.09 273.94 135.73 276.297 136.909 278.29C137.749 277.344 138.797 276.555 140.016 276.177C140.898 275.869 141.918 276.07 142.715 275.506C143.298 275.199 143.608 274.587 143.722 273.964C144.467 275.108 145.158 276.309 145.578 277.617C145.982 276.217 146.626 274.805 147.832 273.913C148.656 273.302 149.352 272.534 149.901 271.669C150.282 272.376 150.544 273.135 150.84 273.878C152.133 277.165 153.15 280.574 153.691 284.069C151.141 284.182 148.587 284.211 146.037 284.291C142.52 284.43 138.998 284.413 135.482 284.278C132.158 284.109 128.83 284.13 125.504 284.098C128.358 282.96 131.098 280.938 132.211 277.979C133.314 274.519 134.506 271.016 134.701 267.361Z" fill="#F0B1C6"/>
<path d="M157.384 280.588C158.184 279.784 158.899 278.904 159.688 278.09C160.054 278.918 160.397 279.757 160.794 280.571C161.554 282.116 163.093 283.241 164.789 283.53C165.91 283.74 167.053 283.471 168.118 283.126C168.235 283.327 168.293 283.554 168.336 283.785C164.763 283.808 161.192 283.933 157.621 283.987C157.582 284.058 157.509 284.195 157.472 284.264L157.494 284.16C157.666 282.976 157.496 281.771 157.384 280.588Z" fill="#F0B1C6"/>
<path d="M190.003 181.836C190.061 181.848 190.178 181.876 190.235 181.89C190.365 182.234 190.485 182.582 190.614 182.926C191.342 185.254 192.691 187.456 192.616 189.968C192.656 192.263 191.666 194.395 190.459 196.291C189.37 198.077 188.035 199.731 186.386 201.034C185.182 202.309 184.064 203.664 182.899 204.975C182.296 204.674 181.678 204.406 181.043 204.187C181.317 203.094 181.686 202.02 182.202 201.015C183.715 197.959 185.909 195.321 187.709 192.439C188.859 190.605 189.866 188.624 190.21 186.465C190.518 184.928 190.336 183.351 190.003 181.836Z" fill="#889E56"/>
<path d="M187.246 185.118C188.237 184.554 188.714 183.466 189.488 182.673C189.837 184.025 189.754 185.459 189.432 186.807C188.742 189.865 186.942 192.505 185.178 195.038C183.205 197.788 181.234 200.657 180.406 203.987C179.179 203.66 177.89 203.477 176.622 203.661C177.546 200.198 178.67 196.78 180.114 193.496C180.755 192.124 181.405 190.707 182.49 189.62C183.995 188.041 185.472 186.405 187.246 185.118Z" fill="#889E56"/>
<path d="M146.625 184.103C146.904 184.031 147.165 184.193 147.419 184.286C148.864 184.918 150.219 185.801 151.293 186.964C152.249 187.998 152.947 189.353 152.918 190.79C152.84 191.336 152.576 191.835 152.448 192.372C151.701 195.14 151.502 198.172 152.534 200.893C152.597 201.825 152.667 202.769 153.002 203.65C153.747 205.684 155.203 207.364 156.757 208.833C155.242 208.344 153.622 208.318 152.054 208.505C151.633 208.388 151.12 208.433 150.805 208.082C149.691 207.011 148.846 205.632 148.533 204.109C148.23 202.656 148.358 201.125 147.784 199.731C147.512 198.864 146.741 198.307 146.318 197.531C145.974 196.898 146.16 196.166 146.304 195.508C146.973 192.93 147.643 190.283 147.425 187.598C147.289 186.413 147.181 185.184 146.625 184.103Z" fill="#889E56"/>
<path d="M139.462 191.372C140.888 188.406 143.427 186.147 146.163 184.402C146.552 185.911 146.878 187.456 146.806 189.024C146.709 190.993 146.363 192.949 145.787 194.835C145.53 195.68 145.402 196.593 145.582 197.468C145.856 198.378 146.731 198.931 147.085 199.803C147.896 201.641 147.579 203.746 148.314 205.608C148.805 206.849 149.666 207.906 150.611 208.831C148.947 209.269 147.438 210.118 145.971 210.99C144.675 211.783 143.4 212.638 142.334 213.731C140.987 210.613 138.642 208.027 136.026 205.908C134.323 204.646 132.69 203.271 130.866 202.185C129.808 203.773 129.546 205.747 129.702 207.613C127.88 206.452 126.01 205.35 124.053 204.43C122.957 203.853 121.656 203.891 120.586 203.249C119.75 202.793 118.992 202.189 118.39 201.453C117.978 200.956 117.715 200.351 117.264 199.885C116.635 199.199 116.04 198.455 115.235 197.965C116.875 197.114 118.51 196.251 120.152 195.399C121.731 194.598 123.264 193.577 125.062 193.357C128.062 193.018 131.23 194.096 133.314 196.299C133.803 196.818 134.301 197.336 134.858 197.787C137.203 199.739 139.515 201.735 141.89 203.653C141.896 203.335 141.965 202.984 141.773 202.704C141.288 201.839 140.509 201.2 139.771 200.561C139.467 200.3 139.333 199.91 139.179 199.556C138.109 196.949 138.235 193.903 139.462 191.372Z" fill="#889E56"/>
<path d="M158.874 220.98C160.141 220.154 161.422 219.35 162.696 218.533C163.072 220.333 162.477 222.172 161.63 223.751C160.898 225.881 160.437 228.143 160.619 230.403C161.666 229.594 162.979 229.212 164.285 229.118C167.25 228.908 170.206 229.675 172.874 230.932C175.358 232.159 178.069 232.94 180.83 233.198C179.398 234.649 177.621 235.721 175.819 236.653C179.328 237.829 182.206 240.586 183.677 243.961C184.277 245.35 184.878 246.815 186.042 247.841C188.139 249.58 189.669 251.889 190.96 254.261C192.29 256.869 193.178 259.709 193.509 262.621C193.667 263.715 194.378 264.601 195.038 265.445C194.066 265.026 193.31 264.254 192.565 263.527C190.994 261.846 189.518 260.075 187.933 258.406C185.832 256.094 183.763 253.703 181.195 251.889C179.568 250.759 177.714 249.821 175.71 249.657C175.074 249.551 174.72 248.914 174.662 248.321C174.35 246.112 172.902 244.182 171.053 242.991C168.899 241.543 166.21 241.091 163.658 241.327C162.15 241.513 160.667 241.848 159.218 242.291C160.077 240.49 160.749 238.519 160.584 236.496C160.499 235.29 160.038 234.12 159.288 233.172C156.949 232.634 154.389 232.833 152.275 234.024C152.312 233.281 152.734 232.643 153.078 232.009C154.197 230.097 155.925 228.672 157.405 227.058C159.315 225.036 161.037 222.751 161.994 220.115C162.163 219.841 161.898 219.641 161.718 219.475C161.342 219.813 161.221 220.314 161.024 220.761C160.254 222.537 159.114 224.127 157.834 225.57C156.192 227.547 154.123 229.161 152.726 231.341C152.096 232.405 151.494 233.528 151.245 234.749C149.63 236.101 148.702 238.061 148.147 240.05C146.147 238.764 143.819 237.92 141.43 237.819C141.762 235.708 142.474 233.655 143.558 231.812C145.36 228.68 148.142 226.139 151.389 224.56C153.894 223.39 156.566 222.537 158.874 220.98Z" fill="#889E56"/>
<path d="M162.746 242.147C164.661 241.805 166.669 241.851 168.522 242.486C170.773 243.202 172.786 244.867 173.656 247.093C174.002 247.953 173.878 249.008 174.525 249.735C175.227 250.454 176.32 250.288 177.205 250.592C180.227 251.538 182.651 253.7 184.794 255.948C187.016 258.363 189.216 260.799 191.424 263.226C192.598 264.553 193.926 265.779 195.541 266.55C194.106 266.916 192.666 266.256 191.41 265.619C190.498 265.128 189.619 264.572 188.805 263.934C188.141 263.423 187.678 262.699 186.997 262.21C185.758 261.312 184.323 260.74 182.877 260.27C180.501 259.4 177.944 259.439 175.461 259.156C172.31 258.745 169.322 257.187 167.174 254.849C165.606 252.837 164.746 250.342 164.434 247.828C164.178 246.715 163.293 245.807 162.237 245.402C160.71 244.803 159.026 244.947 157.44 245.187C157.886 244.555 158.314 243.91 158.698 243.237C159.968 242.636 161.368 242.384 162.746 242.147Z" fill="#889E56"/>
<path d="M120.997 279.225C122.808 274.074 126.094 269.433 130.441 266.111C130.472 266.349 130.502 266.587 130.536 266.828C130.931 266.932 131.331 267.02 131.734 267.089C131.424 267.436 131.216 267.856 130.984 268.257C127.957 273.291 123.723 277.507 120.971 282.719C120.473 283.612 120.136 284.582 119.653 285.483C119.782 283.348 120.328 281.251 120.997 279.225Z" fill="#889E56"/>
<path d="M132.33 267.188C133.114 267.313 133.907 267.351 134.701 267.361C134.506 271.016 133.314 274.519 132.211 277.979C131.098 280.938 128.358 282.96 125.504 284.098C124.85 284.381 124.118 284.438 123.48 284.769C122.053 285.448 120.894 286.552 119.787 287.657C120.176 285.707 121.058 283.895 122.013 282.166C125.003 276.871 129.491 272.579 132.33 267.188Z" fill="#889E56"/>
<path d="M170.699 206.143C171.461 206.066 172.314 205.921 173.01 206.335C173.574 206.643 173.901 207.415 173.515 207.987C172.763 209.181 171.272 209.75 170.707 211.091C170.28 212.024 170.005 213.218 168.965 213.667C167.218 214.449 165.115 212.75 165.243 210.913C165.32 209.731 165.976 208.651 166.842 207.867C167.891 206.88 169.298 206.372 170.699 206.143ZM169.381 208.177C169.07 208.38 169.397 208.991 169.704 208.671C170.158 208.254 170.686 207.922 171.298 207.789C171.296 207.612 171.294 207.436 171.293 207.262C170.565 207.265 169.89 207.687 169.381 208.177ZM167.717 208.104C167.126 208.59 166.616 209.187 166.258 209.865C166.101 210.118 166.32 210.492 166.626 210.375C166.978 209.736 167.438 209.18 167.965 208.676C168.258 208.508 168.024 207.959 167.717 208.104ZM170.755 208.905C170.173 209.373 169.704 209.971 169.29 210.587C169.307 210.87 169.578 210.918 169.81 210.904C170.184 210.293 170.65 209.708 171.293 209.366C171.334 209.069 171.064 208.721 170.755 208.905ZM168.214 209.689C167.899 210.236 167.397 210.712 167.31 211.361C167.458 211.406 167.67 211.617 167.797 211.41C168.154 210.949 168.422 210.423 168.736 209.932C168.736 209.819 168.736 209.592 168.736 209.478C168.544 209.509 168.301 209.469 168.214 209.689Z" fill="#E2B560"/>
<path d="M146.096 248.378C146.667 248.14 147.286 248.528 147.603 249C148.134 249.785 148.237 250.755 148.427 251.661C148.587 252.658 148.84 253.767 148.341 254.71C147.814 255.549 146.787 255.865 145.878 256.1C145.326 256.267 144.71 255.948 144.502 255.418C143.798 253.673 144.051 251.674 144.818 249.992C145.101 249.371 145.413 248.645 146.096 248.378ZM145.878 249.721C145.464 250.296 145.163 251.053 145.301 251.769C145.406 252.03 145.669 251.929 145.843 251.806C145.861 251.394 145.875 250.966 146.072 250.593C146.163 250.337 146.381 250.091 146.307 249.805C146.203 249.689 145.997 249.529 145.878 249.721ZM145.477 253.483C145.619 254.05 145.682 254.643 145.888 255.193C146.046 255.496 146.437 255.108 146.362 254.867C146.21 254.232 146.171 253.558 145.859 252.974C145.685 253.086 145.387 253.225 145.477 253.483Z" fill="#E2B560"/>
<path d="M169.381 208.178C169.89 207.687 170.565 207.265 171.293 207.262C171.294 207.436 171.296 207.612 171.298 207.789C170.686 207.922 170.158 208.254 169.704 208.671C169.397 208.991 169.07 208.38 169.381 208.178Z" fill="#F4D485"/>
<path d="M167.717 208.104C168.024 207.959 168.258 208.508 167.965 208.676C167.438 209.18 166.978 209.736 166.626 210.375C166.32 210.492 166.101 210.118 166.258 209.865C166.616 209.187 167.126 208.59 167.717 208.104Z" fill="#F4D485"/>
<path d="M170.755 208.905C171.064 208.721 171.335 209.069 171.293 209.367C170.65 209.709 170.184 210.293 169.81 210.904C169.578 210.918 169.307 210.87 169.29 210.587C169.704 209.971 170.173 209.373 170.755 208.905Z" fill="#F4D485"/>
<path d="M168.215 209.689C168.301 209.469 168.544 209.509 168.736 209.478C168.736 209.592 168.736 209.819 168.736 209.932C168.423 210.423 168.154 210.949 167.797 211.41C167.671 211.617 167.458 211.406 167.311 211.361C167.397 210.712 167.899 210.236 168.215 209.689Z" fill="#F4D485"/>
<path d="M145.878 249.721C145.997 249.529 146.203 249.689 146.307 249.805C146.381 250.091 146.163 250.337 146.072 250.593C145.875 250.966 145.861 251.394 145.843 251.806C145.669 251.929 145.406 252.03 145.301 251.769C145.163 251.053 145.464 250.296 145.878 249.721Z" fill="#F4D485"/>
<path d="M145.477 253.483C145.387 253.225 145.685 253.086 145.859 252.974C146.171 253.558 146.21 254.232 146.362 254.867C146.437 255.108 146.046 255.496 145.888 255.193C145.682 254.643 145.619 254.05 145.477 253.483Z" fill="#F4D485"/>
</g>
<defs>
<linearGradient id="paint0_linear_332_2704" x1="112.5" y1="0" x2="112.5" y2="306" gradientUnits="userSpaceOnUse">
<stop stop-color="#EFE7D2"/>
<stop offset="1" stop-color="#F2E8CF"/>
</linearGradient>
<linearGradient id="paint1_linear_332_2704" x1="211" y1="153" x2="224.5" y2="153" gradientUnits="userSpaceOnUse">
<stop stop-color="#F3EBD6"/>
<stop offset="0.668269" stop-color="#FDF7EA"/>
<stop offset="1" stop-color="#BCAE8B"/>
</linearGradient>
<clipPath id="clip0_332_2704">
<rect width="96" height="136" fill="white" transform="translate(107 170)"/>
</clipPath>
</defs>
</svg>
