<svg fill="none" height="24" viewBox="0 0 24 24" width="24" xmlns="http://www.w3.org/2000/svg"><g stroke="#999" stroke-linejoin="round" stroke-width="1.25"><path d="m9 3h-5c-.55229 0-1 .44771-1 1v5c0 .5523.44771 1 1 1h5c.5523 0 1-.4477 1-1v-5c0-.55229-.4477-1-1-1z"/><path d="m9 14h-5c-.55229 0-1 .4477-1 1v5c0 .5523.44771 1 1 1h5c.5523 0 1-.4477 1-1v-5c0-.5523-.4477-1-1-1z"/><path d="m20 3h-5c-.5523 0-1 .44771-1 1v5c0 .5523.4477 1 1 1h5c.5523 0 1-.4477 1-1v-5c0-.55229-.4477-1-1-1z"/><path d="m20 14h-5c-.5523 0-1 .4477-1 1v5c0 .5523.4477 1 1 1h5c.5523 0 1-.4477 1-1v-5c0-.5523-.4477-1-1-1z"/></g></svg>