<svg fill="none" height="306" viewBox="0 0 225 306" width="225" xmlns="http://www.w3.org/2000/svg" xmlns:xlink="http://www.w3.org/1999/xlink"><linearGradient id="a" gradientUnits="userSpaceOnUse" x1="112.5" x2="112.5" y1="0" y2="306"><stop offset="0" stop-color="#efe7d2"/><stop offset="1" stop-color="#f2e8cf"/></linearGradient><linearGradient id="b" gradientUnits="userSpaceOnUse" x1="211" x2="224.5" y1="153" y2="153"><stop offset="0" stop-color="#f3ebd6"/><stop offset=".668269" stop-color="#fdf7ea"/><stop offset="1" stop-color="#bcae8b"/></linearGradient><clipPath id="c"><path d="m107 170h96v136h-96z"/></clipPath><path d="m225 4c0-2.20914-1.791-4-4-4h-201c-11.0457 0-20 8.95431-20 20v266c0 11.046 8.95431 20 20 20h201c2.209 0 4-1.791 4-4z" fill="url(#a)"/><path d="m224.5 4c0-2.20914-1.791-4-4-4h-9.5v306h9.5c2.209 0 4-1.791 4-4z" fill="url(#b)"/><g clip-path="url(#c)"><g fill="#efe7d2"><path d="m107 170h95.861c.016 34.572 0 69.144.008 103.716-.01 10.762.011 21.522-.011 32.284h-95.858zm51.779 8.638c.127.729.626 1.326.911 1.999-.661-.037-1.32.059-1.98.093-4.736.343-9.489.426-14.235.254-5.621-.126-11.152-1.474-16.785-1.362-1.234.023-2.461.168-3.692.248-.974.066-1.987.206-2.84.713-.55.327-.873.938-.934 1.564-.174 1.498.138 2.989.338 4.467.192 1.112.228 2.242.28 3.367.121 1.806.203 3.612.31 5.418-1.642.852-3.277 1.715-4.917 2.567.805.489 1.4 1.233 2.029 1.919.451.466.714 1.071 1.126 1.568.602.736 1.36 1.34 2.196 1.796-.024.313-.037.63-.02.944.343 7.404.575 14.813.732 22.224.126 6.232.281 12.47.088 18.703-.077 2.187-.24 4.37-.364 6.557-.51 7.014-.684 14.055-.419 21.084.114 2.154.123 4.323.394 6.464-.669 2.027-1.215 4.123-1.344 6.258-.131.71-.415 1.38-.567 2.083.05.372.608.557.701.091 1.107-1.105 2.266-2.209 3.693-2.888.638-.331 1.37-.388 2.024-.671 3.326.032 6.654.011 9.978.18 3.516.135 7.038.152 10.555.013 2.55-.08 5.104-.109 7.654-.222.075.507.16 1.015.187 1.528 1.317.062 2.879-.218 3.616-1.437l-.022.104c.037-.069.11-.206.149-.276 3.571-.055 7.142-.179 10.715-.203-.043-.231-.101-.458-.218-.659-.124-.86-.123-1.732-.008-2.592 1.757.157 3.583.312 5.284-.284.8-.24 1.486-.72 2.169-1.183-.475 1.29-1.201 2.485-1.969 3.62-.704 1.029-1.575 2.024-2.77 2.477.424.278.973.148 1.453.19 2.456-.09 4.797-.969 7.04-1.907l-.034.146c1.664-.155 3.338-.087 5.005-.155 2.074-.029 4.146-.103 6.219-.139.712-1.829 1.043-3.786 1.155-5.738.191-3.982-.187-7.961-.252-11.942 1.256.637 2.696 1.297 4.131.931.158-.071.317-.142.478-.211-.075-.145-.15-.29-.224-.433-.277-.113-.513-.297-.757-.461-.66-.844-1.371-1.73-1.529-2.824-.331-2.912-1.219-5.752-2.549-8.36.078-1.664-.074-3.327-.09-4.989-.412-17.041-.58-34.09-.376-51.134.02-.617.026-1.234-.035-1.847 1.207-1.896 2.197-4.028 2.157-6.322.075-2.513-1.274-4.715-2.002-7.043.312-.843.101-1.79.192-2.676-5.699-.22-11.369-1.051-17.081-.965-2.898.038-5.763.5-8.643.775-.322.029-.64.078-.956.152-.448-.988-.848-1.998-1.324-2.969-.276-.584-1.016-.48-1.541-.419-1.043.131-2.243.697-2.482 1.814z"/><path d="m181.938 211.134c1.329-.236 2.532-.874 3.779-1.358-.197.943-.695 1.801-1.392 2.462-1.373 1.341-3.298 1.889-5.155 2.129-1.381.267-2.736-.32-3.88-1.04-.89-.582-1.759-1.232-2.408-2.083 1.758-.268 3.542-.26 5.316-.233 1.247.011 2.493.315 3.74.123z"/><path d="m163.184 214.445c.502-.33.918-.783 1.454-1.066-.808 1.867-2.34 3.337-4.068 4.368-.778.475-1.623.825-2.42 1.264-.78.825-1.697 1.565-2.819 1.854-1.897.51-3.929.061-5.656-.801-1.31-.749-2.848-.866-4.297-1.165-.428-.073-.856-.137-1.284-.204.108-.077.216-.154.327-.229-1.351.099-2.704.087-4.058.133.731-.77 1.733-1.226 2.739-1.52 2.461-.702 5.077-.515 7.562-.045 1.243.218 2.435.695 3.701.777 1.081.069 2.173-.126 3.174-.532 1.957-.778 3.899-1.641 5.645-2.834z"/><path d="m127.379 222.393c2.927.286 5.311 2.301 7.242 4.366-.605.502-1.279.916-1.946 1.331-.381.262-.849.289-1.296.326-.35-.101-.693-.22-1.03-.353-.381-.425-.728-.909-.81-1.49-.19-1.139-.528-2.29-1.256-3.21-.288-.336-.616-.635-.904-.97z"/><path d="m136.042 229.236c.811-1.86 2.628-3.374 4.708-3.47.855-.087 1.677.194 2.514.306.168.268.299.556.445.837.142.283.272.572.387.868-.147.083-.294.168-.44.252-1.48.857-3.194 1.29-4.901 1.288-.907.004-1.808-.182-2.713-.081z"/><path d="m127.482 245.358c.593.503 1.036 1.146 1.585 1.692 2.947 3.049 6.855 5.285 11.107 5.795-1.369.817-3.049.721-4.587.799-1.758-.237-3.419-.889-5.07-1.502-1.237-.464-2.339-1.463-2.656-2.776-.239-.873.12-1.771-.059-2.648-.088-.459-.207-.91-.32-1.36z"/><path d="m168.658 264.829c1.091-.271 2.209-.647 2.979-1.513.582 1.769.179 3.823-1.106 5.187-.638-.422-1.288-.866-2.043-1.048-1.195-.323-2.563-.078-3.509.737-.353.767-.313 1.659-.555 2.467-1.069.23-2.17.149-3.243 0-.619-.188-1.035-.77-1.629-.957.258-.503.277-1.092.55-1.589.711-1.368 2.16-2.331 3.703-2.443 1.63-.189 3.262-.425 4.853-.841z"/><path d="m173.634 266.44c.435-.574.902-1.155 1.569-1.47.266 1.807.163 3.922 1.538 5.325-.544.399-1.183.647-1.728 1.045-.442.3-.781.718-1.125 1.12-.208-1.237-.837-2.429-1.931-3.097.003-.089.008-.267.009-.355.448-.712.836-1.457 1.196-2.215.227.008.34-.209.472-.353z"/><path d="m165.283 268.757c.383.312.567.795.92 1.138.963 1.103 2.498 1.769 3.963 1.426.672 1.505 1.626 3.305 3.424 3.588-.39.201-.836.225-1.256.332-1.654.398-3.312.897-4.782 1.771-.427.252-.71.682-1.131.939-.418.155-.487-.436-.416-.717.185-1.09.888-2.067.805-3.209.019-.967-.68-1.752-1.49-2.186-.075-1.026-.05-2.056-.037-3.082z"/></g><path d="m158.779 178.638c.239-1.117 1.439-1.683 2.482-1.814.525-.061 1.266-.165 1.541.419.477.971.877 1.981 1.325 2.969.617 1.434 1.281 2.848 1.881 4.289 1.504-1.059 3.029-2.092 4.554-3.124.923-.615 2.011-1.195 3.16-.965.24.057.603.292.443.58-.179.398-.558.65-.946.821-1.835.833-3.566 1.896-5.123 3.174-.547.467-1.136.98-1.317 1.705-.168.675.143 1.346.514 1.894-1.455 1.518-2.766 3.168-3.931 4.918-.285-3.272-.911-6.537-2.167-9.584-.449-1.117-.968-2.206-1.505-3.283-.285-.673-.784-1.27-.911-1.999z" fill="#567c71"/><path d="m189.386 181.992c.118-.268.387-.199.617-.156.333 1.515.515 3.092.207 4.629-.344 2.159-1.351 4.14-2.501 5.974-1.8 2.882-3.994 5.52-5.507 8.576-.516 1.005-.885 2.079-1.159 3.172-.211-.072-.424-.137-.637-.2.828-3.33 2.799-6.199 4.772-8.949 1.764-2.533 3.564-5.173 4.254-8.231.322-1.348.405-2.782.056-4.134-.045-.224-.109-.449-.102-.681z" fill="#567c71"/><path d="m146.163 184.402c.152-.1.307-.199.463-.299.555 1.081.664 2.31.8 3.496.217 2.684-.453 5.331-1.122 7.909-.144.658-.33 1.39.014 2.023.423.777 1.194 1.333 1.466 2.2.574 1.394.446 2.925.749 4.378.313 1.523 1.158 2.902 2.272 3.973.315.351.829.306 1.249.423-.488.08-.966.2-1.443.326-.945-.925-1.806-1.982-2.297-3.223-.735-1.862-.418-3.967-1.229-5.805-.354-.872-1.229-1.425-1.503-2.334-.18-.876-.052-1.789.205-2.634.576-1.886.922-3.842 1.019-5.811.072-1.568-.254-3.113-.643-4.622z" fill="#567c71"/><path d="m143.206 218.562c.296.038.591.093.888.133.428.067.856.131 1.284.204-.756 2.623-1.453 5.282-1.669 8.01-.146-.281-.277-.569-.445-.837-.482-.51-.611-1.226-.618-1.904-.033-1.886.416-3.733.56-5.606z" fill="#567c71"/><path d="m161.024 220.761c.197-.447.318-.948.694-1.286.18.166.445.366.276.64-.957 2.636-2.679 4.921-4.589 6.943-1.48 1.614-3.208 3.039-4.327 4.951-.344.634-.766 1.272-.803 2.015-.357.222-.701.465-1.03.725.249-1.221.851-2.344 1.481-3.408 1.397-2.18 3.466-3.794 5.108-5.771 1.28-1.443 2.42-3.033 3.19-4.809z" fill="#567c71"/><path d="m138.755 229.317c1.707.002 3.421-.431 4.901-1.288-.082 1.26-.123 2.521-.098 3.783-1.084 1.843-1.796 3.896-2.128 6.007-1.027.01-2.073.131-3.011.577-.064-3.03.005-6.063.336-9.079z" fill="#567c71"/><path d="m159.218 242.291c1.449-.443 2.932-.778 4.44-.964 2.552-.236 5.241.216 7.395 1.664 1.849 1.191 3.297 3.121 3.609 5.33.058.593.412 1.23 1.048 1.336 2.004.164 3.858 1.102 5.485 2.232 2.568 1.814 4.637 4.205 6.738 6.517 1.585 1.669 3.061 3.44 4.632 5.121.745.727 1.501 1.499 2.473 1.918.244.164.48.348.757.461.074.143.149.288.224.433-.161.069-.32.14-.478.211-1.615-.771-2.943-1.997-4.117-3.324-2.208-2.427-4.408-4.863-6.63-7.277-2.143-2.249-4.567-4.411-7.589-5.357-.885-.304-1.978-.138-2.68-.857-.647-.727-.523-1.782-.869-2.642-.87-2.226-2.883-3.891-5.134-4.607-1.853-.634-3.861-.681-5.776-.339-1.378.237-2.778.489-4.048 1.09.179-.313.355-.626.52-.946z" fill="#567c71"/><path d="m150.453 265.946c.56.326 1.15.601 1.741.87.707 1.484 1.54 2.907 2.204 4.414.181-.552.092-1.285.612-1.662.444.009.9.072 1.294.292-.179 1.59-.299 3.187-.443 4.778.467 1.324.893 2.663 1.19 4.037.52-.885 1.178-1.674 1.827-2.466.272.627.541 1.253.81 1.881-.789.814-1.504 1.694-2.304 2.498.112 1.183.282 2.388.11 3.572-.737 1.219-2.299 1.499-3.616 1.437-.027-.513-.112-1.021-.187-1.528-.541-3.495-1.558-6.904-2.851-10.191-.296-.743-.558-1.502-.939-2.209 1.104-1.67 1.384-3.878.552-5.723z" fill="#567c71"/><path d="m130.984 268.257c.232-.401.44-.821.75-1.168.149.024.447.075.596.099-2.839 5.391-7.327 9.683-10.317 14.978-.955 1.729-1.837 3.541-2.226 5.491-.093.466-.651.281-.701-.091.152-.703.436-1.373.567-2.083.483-.901.821-1.871 1.318-2.764 2.752-5.212 6.986-9.428 10.013-14.462z" fill="#567c71"/><path d="m165.081 180.06c2.88-.275 5.746-.737 8.644-.775 5.712-.086 11.382.745 17.081.965-.091.886.12 1.833-.192 2.676-.129-.344-.249-.692-.379-1.036-.058-.014-.174-.042-.232-.054-.23-.043-.499-.112-.618.156-.006.232.058.457.103.681-.775.793-1.251 1.881-2.242 2.445-1.774 1.287-3.251 2.923-4.757 4.502-1.084 1.087-1.734 2.504-2.376 3.876-1.443 3.284-2.568 6.702-3.491 10.165-.24.019-.56.053-.589-.275-.155-1.42 1-2.577.991-3.981 0-.655-.437-1.299-1.067-1.497-.517-.059-1.015.157-1.485.344-1.731.768-3.229 1.952-4.77 3.031 1.032-2.523 1.97-5.095 2.643-7.738.36-1.539.682-3.103.666-4.69-.042-.838-.131-1.755-.704-2.415-.403-.448-1.088-.365-1.613-.23-1.352.418-2.398 1.427-3.401 2.376-.372-.548-.682-1.219-.514-1.894.181-.725.77-1.238 1.317-1.705 1.557-1.278 3.288-2.341 5.123-3.174.387-.171.766-.423.946-.821.16-.288-.204-.523-.444-.58-1.148-.23-2.236.35-3.16.965-1.524 1.032-3.049 2.065-4.553 3.124-.6-1.441-1.264-2.856-1.882-4.289.315-.074.634-.123.955-.152z" fill="#f0b1c6"/><path d="m122.998 179.87c1.231-.08 2.458-.225 3.692-.248 5.633-.112 11.164 1.236 16.785 1.362 4.746.172 9.499.089 14.235-.254.66-.034 1.319-.13 1.98-.093.537 1.077 1.056 2.166 1.505 3.283 1.256 3.047 1.882 6.312 2.167 9.584-.039.02-.117.06-.157.081-.445-2.261-2.048-4.414-4.336-5.053.301 1.468-.312 2.956-1.189 4.113-.552.734-1.27 1.317-2.016 1.841-1.997 1.475-3.056 3.969-3.13 6.407-1.032-2.721-.833-5.753-.086-8.521.128-.537.392-1.035.47-1.582.029-1.437-.668-2.792-1.625-3.826-1.074-1.163-2.429-2.046-3.874-2.678-.254-.093-.515-.255-.793-.183-.156.099-.311.199-.463.299-2.736 1.745-5.275 4.004-6.701 6.97-1.227 2.531-1.353 5.577-.283 8.184.154.354.288.744.592 1.005.738.639 1.517 1.278 2.002 2.143.192.28.123.631.117.949-2.375-1.918-4.687-3.914-7.032-5.866-.557-.451-1.055-.969-1.544-1.488-2.084-2.203-5.252-3.281-8.252-2.942-1.798.22-3.331 1.241-4.91 2.042-.107-1.806-.189-3.612-.31-5.418-.052-1.125-.088-2.255-.28-3.367-.2-1.478-.512-2.969-.338-4.467.061-.626.384-1.237.934-1.564.853-.507 1.866-.647 2.84-.713z" fill="#f0b1c6"/><path d="m186.385 201.034c1.65-1.303 2.984-2.957 4.074-4.743.061.613.054 1.23.035 1.847-.205 17.044-.037 34.093.376 51.134.016 1.662.168 3.325.09 4.989-1.291-2.372-2.821-4.681-4.919-6.42-1.163-1.026-1.764-2.491-2.364-3.88-1.471-3.375-4.349-6.132-7.858-7.308 1.802-.932 3.579-2.004 5.011-3.455-2.761-.258-5.472-1.039-7.957-2.267-2.667-1.256-5.624-2.023-8.588-1.813-1.306.094-2.62.476-3.666 1.285-.182-2.26.278-4.522 1.011-6.652 1.407 1.106 2.925 2.086 4.539 2.858.474-1.121.303-2.366.12-3.529.148.083.287.179.407.299 1.649 1.644 3.726 2.899 6.011 3.412 2.355.54 4.867.244 7.075-.715-.853-1.158-1.232-2.574-1.648-3.928 1.189.275 2.359-.292 3.271-1.015.376-.235.329-.733.387-1.118.094-2.174-1.119-4.17-2.623-5.648 1.858-.24 3.783-.788 5.156-2.129.697-.661 1.195-1.52 1.392-2.462 1.243-.432 2.465-.969 3.504-1.789-.156-.42-.392-.821-.781-1.064-1.13-.75-2.523-.85-3.832-1.002-.599-.259-1.112-.682-1.709-.946 1.165-1.311 2.283-2.666 3.486-3.941z" fill="#f0b1c6"/><path d="m120.586 203.249c1.07.642 2.371.604 3.467 1.181 1.957.92 3.827 2.022 5.649 3.183.136 1.715.546 3.406 1.173 5.006-2.025-.09-4.19-.7-5.531-2.316-.562 1.133-.501 2.464-.082 3.633.733 2.053 2.144 3.765 3.616 5.339-.953-.28-1.926-.484-2.907-.636-.214 1.411.61 2.717 1.399 3.816-1.887-.703-3.957-.933-5.943-.558 2.003 3.153 5.413 5.111 8.922 6.166.337.133.68.252 1.03.353-1.078.7-2.001 1.681-2.531 2.861-.674 1.475-.797 3.158-.494 4.74-1.74 1.969-2.996 4.315-3.986 6.734 2.563-.403 4.786-1.978 6.49-3.87 2.456-2.759 4.024-6.172 5.184-9.645.905-.101 1.806.085 2.713.081-.331 3.016-.4 6.049-.336 9.079-1.557.667-2.689 2.017-3.459 3.487-1.611-.089-3.043.851-4.168 1.909-.232.193-.435.468-.754.513-.979.175-1.969.286-2.961.359.133.23.269.462.405.694.113.45.232.901.32 1.36.179.877-.18 1.775.059 2.648.317 1.313 1.419 2.312 2.656 2.776 1.651.613 3.312 1.265 5.07 1.502-1.864 1.235-3.384 2.987-4.245 5.058-.995 2.325-1.171 4.917-.9 7.409-4.348 3.322-7.634 7.963-9.445 13.114-.271-2.141-.28-4.31-.394-6.464-.265-7.029-.091-14.07.419-21.084.124-2.187.287-4.37.364-6.557.193-6.233.038-12.471-.088-18.703-.157-7.411-.389-14.82-.732-22.224-.017-.314-.004-.631.02-.944z" fill="#f0b1c6"/><path d="m145.377 218.899c1.45.299 2.988.416 4.298 1.165 1.726.862 3.758 1.311 5.656.801 1.122-.289 2.038-1.029 2.819-1.854.103.702.41 1.343.723 1.969-2.307 1.557-4.979 2.41-7.484 3.58-3.247 1.579-6.029 4.12-7.831 7.252-.025-1.262.016-2.523.098-3.783.145-.084.293-.169.44-.252-.115-.296-.245-.585-.387-.868.216-2.728.913-5.387 1.668-8.01z" fill="#f0b1c6"/><path d="m157.44 245.187c1.586-.24 3.27-.384 4.797.215 1.056.405 1.941 1.313 2.197 2.426.312 2.514 1.172 5.009 2.74 7.021 2.148 2.338 5.136 3.896 8.287 4.307 2.483.283 5.04.244 7.416 1.114 1.446.47 2.881 1.042 4.12 1.94.681.489 1.144 1.213 1.808 1.724.814.638 1.693 1.194 2.605 1.685.065 3.981.443 7.96.252 11.942-.112 1.952-.443 3.909-1.155 5.738-2.073.036-4.145.11-6.219.139-1.667.068-3.341 0-5.005.155l.034-.146c.627-.276 1.264-.535 1.877-.843.499-1.196.028-2.533-.701-3.523-.669-.973-1.563-1.751-2.477-2.485.307-1.045.146-2.138-.019-3.191.203-.023.408-.043.613-.063.139-2.015.094-4.131-.778-5.993-.538-1.131-1.446-2.176-2.662-2.579-1.029.125-1.522 1.234-2.008 2.023-.36.758-.748 1.503-1.196 2.215-.217-.159-.433-.318-.649-.478.558-1.099.912-2.283 1.259-3.463.211-.54-.109-1.086-.326-1.569-.575-1.167-1.906-1.793-3.172-1.769-1.891-.074-3.636.783-5.265 1.643-2.058 1.12-4.05 2.6-5.17 4.706-.219.468-.601 1.073-.185 1.547.283.337.736.11 1.094.077.594.187 1.01.769 1.629.957-1.197.325-2.44.863-3.146 1.937-.182.328-.421.722-.251 1.104.336.849.739 1.669 1.094 2.509-.649.792-1.307 1.581-1.827 2.466-.297-1.374-.723-2.713-1.19-4.037.144-1.591.264-3.188.443-4.778-.394-.22-.85-.283-1.294-.292-.52.377-.431 1.11-.612 1.662-.664-1.507-1.497-2.93-2.204-4.414 1.694.647 3.668 1.189 5.398.348-.245-1.991-.619-4.144-2.006-5.689.675-.211 1.347-.478 1.9-.927.573-.452.943-1.095 1.448-1.611.576-.615 1.24-1.17 2.031-1.488 1.633-.677 3.408-.885 5.101-1.368-.132-.778-.562-1.493-1.141-2.02-.703-.575-1.591-.94-2.136-1.694-.955-1.256-.839-3-1.824-4.235-1.045-1.421-3.053-2.101-4.714-1.417.403-.504.818-.999 1.189-1.528z" fill="#f0b1c6"/><path d="m134.701 267.361c.88.008 1.749-.203 2.525-.616-.948 1.472-1.632 3.129-1.828 4.879-.308 2.316.332 4.673 1.511 6.666.84-.946 1.888-1.735 3.107-2.113.882-.308 1.902-.107 2.699-.671.583-.307.893-.919 1.007-1.542.745 1.144 1.436 2.345 1.856 3.653.404-1.4 1.048-2.812 2.254-3.704.824-.611 1.52-1.379 2.069-2.244.381.707.643 1.466.939 2.209 1.293 3.287 2.31 6.696 2.851 10.191-2.55.113-5.104.142-7.654.222-3.517.139-7.039.122-10.555-.013-3.324-.169-6.652-.148-9.978-.18 2.854-1.138 5.594-3.16 6.707-6.119 1.103-3.46 2.295-6.963 2.49-10.618z" fill="#f0b1c6"/><path d="m157.384 280.588c.8-.804 1.515-1.684 2.304-2.498.366.828.709 1.667 1.106 2.481.76 1.545 2.299 2.67 3.995 2.959 1.121.21 2.264-.059 3.329-.404.117.201.175.428.218.659-3.573.023-7.144.148-10.715.202-.039.071-.112.208-.149.277l.022-.104c.172-1.184.002-2.389-.11-3.572z" fill="#f0b1c6"/><path d="m190.003 181.836c.058.012.175.04.232.054.13.344.25.692.379 1.036.728 2.328 2.077 4.53 2.002 7.042.04 2.295-.95 4.427-2.157 6.323-1.089 1.786-2.424 3.44-4.073 4.743-1.204 1.275-2.322 2.63-3.487 3.941-.603-.301-1.221-.569-1.856-.788.274-1.093.643-2.167 1.159-3.172 1.513-3.056 3.707-5.694 5.507-8.576 1.15-1.834 2.157-3.815 2.501-5.974.308-1.537.126-3.114-.207-4.629z" fill="#889e56"/><path d="m187.246 185.118c.991-.564 1.468-1.652 2.242-2.445.349 1.352.266 2.786-.056 4.134-.69 3.058-2.49 5.698-4.254 8.231-1.973 2.75-3.944 5.619-4.772 8.949-1.227-.327-2.516-.51-3.784-.326.924-3.463 2.048-6.881 3.492-10.165.641-1.372 1.291-2.789 2.376-3.876 1.505-1.579 2.982-3.215 4.756-4.502z" fill="#889e56"/><path d="m146.625 184.103c.279-.072.54.09.794.183 1.445.632 2.8 1.515 3.874 2.678.956 1.034 1.654 2.389 1.625 3.826-.078.546-.342 1.045-.47 1.582-.747 2.768-.946 5.8.086 8.521.063.932.133 1.876.468 2.757.745 2.034 2.201 3.714 3.755 5.183-1.515-.489-3.135-.515-4.703-.328-.421-.117-.934-.072-1.249-.423-1.114-1.071-1.959-2.45-2.272-3.973-.303-1.453-.175-2.984-.749-4.378-.272-.867-1.043-1.424-1.466-2.2-.344-.633-.158-1.365-.014-2.023.669-2.578 1.339-5.225 1.121-7.91-.136-1.185-.244-2.414-.8-3.495z" fill="#889e56"/><path d="m139.462 191.372c1.426-2.966 3.965-5.225 6.701-6.97.389 1.509.715 3.054.643 4.622-.097 1.969-.443 3.925-1.019 5.811-.257.845-.385 1.758-.205 2.633.274.91 1.149 1.463 1.503 2.335.811 1.838.494 3.943 1.229 5.805.491 1.241 1.352 2.298 2.297 3.223-1.664.438-3.173 1.287-4.64 2.159-1.296.793-2.571 1.648-3.637 2.741-1.347-3.118-3.692-5.704-6.308-7.823-1.703-1.262-3.336-2.637-5.16-3.723-1.058 1.588-1.32 3.562-1.164 5.428-1.822-1.161-3.692-2.263-5.649-3.183-1.096-.577-2.397-.539-3.467-1.181-.836-.456-1.594-1.06-2.196-1.796-.412-.497-.675-1.102-1.126-1.568-.629-.686-1.224-1.43-2.029-1.92 1.64-.851 3.275-1.714 4.917-2.566 1.579-.801 3.112-1.822 4.91-2.042 3-.339 6.168.739 8.252 2.942.489.519.987 1.037 1.544 1.488 2.345 1.952 4.657 3.948 7.032 5.866.006-.318.075-.669-.117-.949-.485-.865-1.264-1.504-2.002-2.143-.304-.261-.438-.651-.592-1.005-1.07-2.607-.944-5.653.283-8.184z" fill="#889e56"/><path d="m158.874 220.98c1.267-.826 2.548-1.63 3.822-2.447.376 1.8-.219 3.639-1.066 5.218-.732 2.13-1.193 4.392-1.011 6.652 1.047-.809 2.36-1.191 3.666-1.285 2.965-.21 5.921.557 8.589 1.814 2.484 1.227 5.195 2.008 7.956 2.266-1.432 1.451-3.209 2.523-5.011 3.455 3.509 1.176 6.387 3.933 7.858 7.308.6 1.389 1.201 2.854 2.365 3.88 2.097 1.739 3.627 4.048 4.918 6.42 1.33 2.608 2.218 5.448 2.549 8.36.158 1.094.869 1.98 1.529 2.824-.972-.419-1.728-1.191-2.473-1.918-1.571-1.681-3.047-3.452-4.632-5.121-2.101-2.312-4.17-4.703-6.738-6.517-1.627-1.13-3.481-2.068-5.485-2.232-.636-.106-.99-.743-1.048-1.336-.312-2.209-1.76-4.139-3.609-5.33-2.154-1.448-4.843-1.9-7.395-1.664-1.508.186-2.991.521-4.44.964.859-1.801 1.531-3.772 1.366-5.795-.085-1.206-.546-2.376-1.296-3.324-2.339-.538-4.899-.339-7.013.852.037-.743.459-1.381.803-2.015 1.119-1.912 2.847-3.337 4.327-4.951 1.91-2.022 3.632-4.307 4.589-6.943.169-.274-.096-.474-.276-.64-.376.338-.497.839-.694 1.286-.77 1.776-1.91 3.366-3.19 4.809-1.642 1.977-3.711 3.591-5.108 5.771-.63 1.064-1.232 2.187-1.481 3.408-1.615 1.352-2.543 3.312-3.098 5.301-2-1.286-4.328-2.13-6.717-2.231.332-2.111 1.044-4.164 2.128-6.007 1.802-3.132 4.584-5.673 7.831-7.252 2.505-1.17 5.177-2.023 7.485-3.58z" fill="#889e56"/><path d="m162.746 242.147c1.915-.342 3.923-.296 5.776.339 2.251.716 4.264 2.381 5.134 4.607.346.86.222 1.915.869 2.642.702.719 1.795.553 2.68.857 3.022.946 5.446 3.108 7.589 5.356 2.222 2.415 4.422 4.851 6.63 7.278 1.174 1.327 2.502 2.553 4.117 3.324-1.435.366-2.875-.294-4.131-.931-.912-.491-1.791-1.047-2.605-1.685-.664-.511-1.127-1.235-1.808-1.724-1.239-.898-2.674-1.47-4.12-1.94-2.376-.87-4.933-.831-7.416-1.114-3.151-.411-6.139-1.969-8.287-4.307-1.568-2.012-2.428-4.507-2.74-7.021-.256-1.113-1.141-2.021-2.197-2.426-1.527-.599-3.211-.455-4.797-.215.446-.632.874-1.277 1.258-1.95 1.27-.601 2.67-.853 4.048-1.09z" fill="#889e56"/><path d="m120.997 279.225c1.811-5.151 5.097-9.792 9.444-13.114.031.238.061.476.095.717.395.104.795.192 1.198.261-.31.347-.518.767-.75 1.168-3.027 5.034-7.261 9.25-10.013 14.462-.498.893-.835 1.863-1.318 2.764.129-2.135.675-4.232 1.344-6.258z" fill="#889e56"/><path d="m132.33 267.188c.784.125 1.577.163 2.371.173-.195 3.655-1.387 7.158-2.49 10.618-1.113 2.959-3.853 4.981-6.707 6.119-.654.283-1.386.34-2.024.671-1.427.679-2.586 1.783-3.693 2.888.389-1.95 1.271-3.762 2.226-5.491 2.99-5.295 7.478-9.587 10.317-14.978z" fill="#889e56"/><path d="m170.699 206.143c.762-.077 1.615-.222 2.311.192.564.308.891 1.08.505 1.652-.752 1.194-2.243 1.763-2.808 3.104-.427.933-.702 2.127-1.742 2.576-1.747.782-3.85-.917-3.722-2.754.077-1.182.733-2.262 1.599-3.046 1.049-.987 2.456-1.495 3.857-1.724zm-1.318 2.034c-.311.203.016.814.323.494.454-.417.982-.749 1.594-.882-.002-.177-.004-.353-.005-.527-.728.003-1.403.425-1.912.915zm-1.664-.073c-.591.486-1.101 1.083-1.459 1.761-.157.253.062.627.368.51.352-.639.812-1.195 1.339-1.699.293-.168.059-.717-.248-.572zm3.038.801c-.582.468-1.051 1.066-1.465 1.682.017.283.288.331.52.317.374-.611.84-1.196 1.483-1.538.041-.297-.229-.645-.538-.461zm-2.541.784c-.315.547-.817 1.023-.904 1.672.148.045.36.256.487.049.357-.461.625-.987.939-1.478 0-.113 0-.34 0-.454-.192.031-.435-.009-.522.211z" fill="#e2b560"/><path d="m146.096 248.378c.571-.238 1.19.15 1.507.622.531.785.634 1.755.824 2.661.16.997.413 2.106-.086 3.049-.527.839-1.554 1.155-2.463 1.39-.552.167-1.168-.152-1.376-.682-.704-1.745-.451-3.744.316-5.426.283-.621.595-1.347 1.278-1.614zm-.218 1.343c-.414.575-.715 1.332-.577 2.048.105.261.368.16.542.037.018-.412.032-.84.229-1.213.091-.256.309-.502.235-.788-.104-.116-.31-.276-.429-.084zm-.401 3.762c.142.567.205 1.16.411 1.71.158.303.549-.085.474-.326-.152-.635-.191-1.309-.503-1.893-.174.112-.472.251-.382.509z" fill="#e2b560"/><path d="m169.381 208.178c.509-.491 1.184-.913 1.912-.916.001.174.003.35.005.527-.612.133-1.14.465-1.594.882-.307.32-.634-.291-.323-.493z" fill="#f4d485"/><path d="m167.717 208.104c.307-.145.541.404.248.572-.527.504-.987 1.06-1.339 1.699-.306.117-.525-.257-.368-.51.358-.678.868-1.275 1.459-1.761z" fill="#f4d485"/><path d="m170.755 208.905c.309-.184.58.164.538.462-.643.342-1.109.926-1.483 1.537-.232.014-.503-.034-.52-.317.414-.616.883-1.214 1.465-1.682z" fill="#f4d485"/><path d="m168.215 209.689c.086-.22.329-.18.521-.211v.454c-.313.491-.582 1.017-.939 1.478-.126.207-.339-.004-.486-.049.086-.649.588-1.125.904-1.672z" fill="#f4d485"/><path d="m145.878 249.721c.119-.192.325-.032.429.084.074.286-.144.532-.235.788-.197.373-.211.801-.229 1.213-.174.123-.437.224-.542-.037-.138-.716.163-1.473.577-2.048z" fill="#f4d485"/><path d="m145.477 253.483c-.09-.258.208-.397.382-.509.312.584.351 1.258.503 1.893.075.241-.316.629-.474.326-.206-.55-.269-1.143-.411-1.71z" fill="#f4d485"/></g></svg>