<svg fill="none" height="306" viewBox="0 0 225 306" width="225" xmlns="http://www.w3.org/2000/svg" xmlns:xlink="http://www.w3.org/1999/xlink"><linearGradient id="a" gradientUnits="userSpaceOnUse" x1="112.5" x2="112.5" y1="0" y2="306"><stop offset="0" stop-color="#efe7d2"/><stop offset="1" stop-color="#f2e8cf"/></linearGradient><linearGradient id="b" gradientUnits="userSpaceOnUse" x1="13.5" x2="0" y1="153" y2="153"><stop offset="0" stop-color="#f3ebd6"/><stop offset=".668269" stop-color="#fdf7ea"/><stop offset="1" stop-color="#bcae8b"/></linearGradient><clipPath id="c"><path d="m51.3003 48.6h129.6v184.5h-129.6z"/></clipPath><path d="m0 4c0-2.20914 1.79086-4 4-4h201c11.046 0 20 8.95431 20 20v266c0 11.046-8.954 20-20 20h-200.99999c-2.20914 0-4.00001-1.791-4.00001-4z" fill="url(#a)"/><path d="m0 4c0-2.20914 1.79086-4 4-4h9.5v306h-9.5c-2.20914 0-4-1.791-4-4z" fill="url(#b)"/><path d="m70.3762 251.854h6.588v1.044h-6.588zm0 2.322h6.588v1.026h-6.588zm-.612-4.662h7.218v1.08h-5.958v7.596h-1.26zm3.186-4.914h3.996v.936h-2.934v2.142h-1.062zm3.546 4.914h1.26v7.308c0 .336-.048.594-.144.774-.084.18-.246.318-.486.414-.252.084-.588.138-1.008.162-.408.024-.936.036-1.584.036-.024-.156-.072-.342-.144-.558-.072-.204-.15-.384-.234-.54.456.012.87.018 1.242.018.384.012.642.012.774 0 .12 0 .204-.024.252-.072.048-.036.072-.114.072-.234zm-8.532-2.358h11.574v3.06h-1.296v-1.962h-9.036v1.962h-1.242zm1.872-4.86h7.866v5.454h-1.278v-4.374h-5.364v4.374h-1.224zm-5.76.468.738-.972c.396.156.798.342 1.206.558s.792.444 1.152.684c.372.24.672.462.9.666l-.774 1.116c-.228-.228-.522-.462-.882-.702-.36-.252-.744-.498-1.152-.738s-.804-.444-1.188-.612zm-.954 4.878.738-1.008c.384.144.786.324 1.206.54.42.204.816.414 1.188.63s.678.426.918.63l-.774 1.134c-.228-.204-.528-.42-.9-.648-.372-.24-.768-.468-1.188-.684-.408-.228-.804-.426-1.188-.594zm.522 9.432c.312-.468.654-1.026 1.026-1.674s.75-1.332 1.134-2.052c.384-.732.738-1.44 1.062-2.124l1.026.846c-.3.636-.624 1.302-.972 1.998-.348.684-.702 1.362-1.062 2.034-.36.66-.708 1.272-1.044 1.836zm25.92-11.286h7.236v1.296h-7.236zm6.57 0h1.314v.126.288.27c-.06 1.86-.126 3.432-.198 4.716-.06 1.272-.132 2.322-.216 3.15-.072.816-.162 1.452-.27 1.908s-.246.786-.414.99c-.18.228-.372.39-.576.486-.192.096-.432.162-.72.198-.276.024-.642.036-1.098.036s-.924-.018-1.404-.054c-.012-.192-.054-.414-.126-.666s-.168-.474-.288-.666c.504.048.972.078 1.404.09s.744.018.936.018c.156 0 .288-.018.396-.054.12-.036.222-.108.306-.216.132-.144.24-.426.324-.846.096-.432.18-1.044.252-1.836.072-.804.138-1.83.198-3.078s.12-2.766.18-4.554zm-3.942-3.852h1.332c-.012 1.26-.036 2.514-.072 3.762-.024 1.248-.102 2.472-.234 3.672-.12 1.188-.312 2.322-.576 3.402s-.636 2.076-1.116 2.988c-.468.912-1.062 1.716-1.782 2.412-.084-.108-.186-.228-.306-.36-.12-.12-.246-.24-.378-.36-.132-.108-.258-.192-.378-.252.696-.636 1.26-1.38 1.692-2.232.444-.852.786-1.788 1.026-2.808.252-1.02.432-2.094.54-3.222s.174-2.28.198-3.456c.036-1.188.054-2.37.054-3.546zm-10.152 1.17h6.966v1.206h-6.966zm-.63 4.284h7.92v1.242h-7.92zm5.292 3.096 1.116-.306c.228.54.462 1.122.702 1.746.24.612.462 1.206.666 1.782s.36 1.074.468 1.494l-1.188.396c-.096-.432-.246-.936-.45-1.512-.192-.588-.402-1.194-.63-1.818-.228-.636-.456-1.23-.684-1.782zm-4.644 5.49-.108-1.152.684-.486 5.886-1.242c.024.18.054.384.09.612s.072.414.108.558c-1.116.252-2.046.462-2.79.63s-1.356.312-1.836.432c-.468.108-.84.204-1.116.288-.264.084-.462.15-.594.198s-.24.102-.324.162zm-.018-.018c-.024-.096-.06-.216-.108-.36-.048-.156-.102-.312-.162-.468-.06-.168-.114-.306-.162-.414.144-.048.276-.18.396-.396.132-.228.276-.516.432-.864.072-.168.174-.438.306-.81.132-.384.282-.834.45-1.35s.324-1.068.468-1.656c.156-.6.288-1.194.396-1.782l1.332.432c-.192.792-.42 1.608-.684 2.448-.252.828-.528 1.626-.828 2.394-.288.756-.582 1.44-.882 2.052v.036s-.048.024-.144.072-.21.114-.342.198c-.12.072-.228.15-.324.234s-.144.162-.144.234zm17.28-10.008h7.8118v1.062h-7.8118zm1.2418 7.578h5.598v.972h-5.598zm0 2.538h5.562v1.08h-5.562zm2.358-13.122h1.152v7.722h-1.152zm.072 8.658h.99v5.04h-.99zm3.33-9.846.738.936c-.636.144-1.374.276-2.214.396-.828.12-1.686.222-2.574.306-.876.072-1.716.126-2.5198.162-.024-.144-.066-.3-.126-.468-.06-.18-.126-.336-.198-.468.7918-.06 1.6138-.132 2.4658-.216.864-.084 1.68-.18 2.448-.288.78-.108 1.44-.228 1.98-.36zm-2.376 5.058c.156.096.396.258.72.486.336.216.69.456 1.062.72s.714.51 1.026.738.528.396.648.504l-.684 1.062c-.156-.168-.384-.384-.684-.648-.288-.276-.606-.558-.954-.846-.348-.3-.678-.576-.99-.828-.3-.252-.552-.444-.756-.576zm-3.708-2.844.918-.234c.144.3.288.636.432 1.008.144.36.252.66.324.9l-.954.306c-.072-.252-.18-.564-.324-.936-.132-.384-.264-.732-.396-1.044zm5.436-.486 1.044.342c-.204.456-.414.918-.63 1.386-.216.456-.42.852-.612 1.188l-.882-.306c.132-.24.264-.51.396-.81.132-.312.258-.624.378-.936.132-.324.234-.612.306-.864zm-2.898 3.042.81.45c-.3.528-.666 1.068-1.098 1.62s-.894 1.068-1.386 1.548-.972.876-1.4398 1.188c-.06-.168-.144-.366-.252-.594-.108-.24-.216-.432-.324-.576.432-.264.882-.594 1.3498-.99.468-.396.906-.822 1.314-1.278.42-.468.762-.924 1.026-1.368zm-2.8258 4.464h6.9478v6.966h-1.098v-5.904h-4.788v6.12h-1.0618zm7.7038-8.514h3.096v1.152h-3.096zm2.43 0h1.116v14.166c0 .324-.042.582-.126.774-.072.204-.21.36-.414.468-.204.096-.474.156-.81.18-.324.024-.732.036-1.224.036-.012-.156-.054-.354-.126-.594-.072-.228-.15-.42-.234-.576.348.012.666.018.954.018s.486-.006.594-.018c.096 0 .162-.018.198-.054.048-.036.072-.114.072-.234zm1.548.018h2.844v1.152h-2.844zm2.412 0h1.17v14.13c0 .348-.042.618-.126.81-.084.204-.234.36-.45.468-.216.096-.492.156-.828.18-.336.036-.75.054-1.242.054-.024-.168-.078-.378-.162-.63-.084-.24-.168-.438-.252-.594.36.012.69.018.99.018h.612c.108 0 .18-.024.216-.072.048-.048.072-.132.072-.252zm-6.426 3.186.9-.27c.168.372.336.78.504 1.224.168.432.318.852.45 1.26.132.396.228.744.288 1.044l-.954.342c-.06-.3-.156-.66-.288-1.08-.12-.42-.258-.852-.414-1.296s-.318-.852-.486-1.224zm4.032-.054.9-.216c.18.372.348.774.504 1.206.168.42.318.828.45 1.224s.228.744.288 1.044l-.972.288c-.06-.3-.15-.654-.27-1.062s-.264-.828-.432-1.26c-.156-.444-.312-.852-.468-1.224zm-.216 7.344c.372-.36.816-.816 1.332-1.368s1.044-1.128 1.584-1.728l.558.9c-.468.528-.948 1.062-1.44 1.602-.48.54-.942 1.05-1.386 1.53zm-4.122.198c.372-.396.84-.894 1.404-1.494.576-.612 1.152-1.242 1.728-1.89l.54.9c-.492.588-1.008 1.182-1.548 1.782-.528.6-1.026 1.146-1.494 1.638zm13.806-3.528h10.494v8.586h-1.35v-7.506h-7.848v7.506h-1.296zm-3.618-2.376h15.876v1.116h-15.876zm1.314-2.43h13.518v1.08h-13.518zm3.168 7.11h8.838v.954h-8.838zm0 2.214h8.838v.936h-8.838zm-.126 2.268h8.964v1.08h-8.964zm9.45-14.652.864.972c-.84.168-1.794.312-2.862.432s-2.196.216-3.384.288-2.388.132-3.6.18c-1.212.036-2.376.054-3.492.054-.012-.144-.048-.318-.108-.522-.048-.204-.102-.378-.162-.522 1.092-.012 2.232-.036 3.42-.072 1.2-.036 2.376-.09 3.528-.162s2.226-.162 3.222-.27 1.854-.234 2.574-.378zm-7.38 1.224 1.404.306c-.408 1.44-.936 2.844-1.584 4.212-.636 1.356-1.434 2.604-2.394 3.744s-2.112 2.112-3.456 2.916c-.06-.096-.144-.21-.252-.342-.096-.144-.198-.276-.306-.396s-.21-.228-.306-.324c1.284-.732 2.376-1.632 3.276-2.7.912-1.068 1.662-2.238 2.25-3.51s1.044-2.574 1.368-3.906zm19.692 3.996h6.804v1.224h-6.804zm.036 4.356h6.804v1.242h-6.804zm-.018 4.374h6.804v1.242h-6.804zm-.684-13.032h8.154v15.318h-1.368v-14.04h-5.472v14.094h-1.314zm-7.578 2.79h6.804v1.296h-6.804zm2.916-3.852h1.314v16.542h-1.314zm-.054 4.662.882.288c-.168.732-.372 1.488-.612 2.268-.24.768-.516 1.53-.828 2.286-.3.744-.624 1.434-.972 2.07-.336.624-.684 1.164-1.044 1.62-.072-.18-.18-.384-.324-.612-.144-.24-.27-.444-.378-.612.324-.408.648-.888.972-1.44.336-.564.654-1.176.954-1.836s.564-1.332.792-2.016c.228-.696.414-1.368.558-2.016zm1.242 1.98c.132.12.324.33.576.63.264.288.546.606.846.954.312.336.594.654.846.954.252.288.426.498.522.63l-.828 1.098c-.132-.216-.312-.486-.54-.81-.228-.336-.474-.684-.738-1.044-.264-.372-.522-.714-.774-1.026-.24-.312-.438-.558-.594-.738zm16.434-5.472h3.834v1.278h-3.834zm-2.718 5.976h16.488v1.296h-16.488zm2.016-5.976h1.296v5.562c0 .732-.03 1.53-.09 2.394s-.174 1.746-.342 2.646c-.156.888-.39 1.752-.702 2.592-.3.84-.708 1.608-1.224 2.304-.06-.096-.156-.21-.288-.342-.12-.12-.246-.24-.378-.36-.12-.108-.228-.192-.324-.252.468-.648.84-1.35 1.116-2.106s.48-1.53.612-2.322c.132-.804.216-1.59.252-2.358.048-.768.072-1.5.072-2.196zm3.834 0h1.314v13.698c0 .36-.048.642-.144.846s-.27.36-.522.468c-.24.108-.57.174-.99.198-.408.024-.924.036-1.548.036-.024-.168-.084-.372-.18-.612-.084-.24-.174-.444-.27-.612.456.012.87.018 1.242.018.384.012.636.012.756 0 .132-.012.222-.042.27-.09s.072-.138.072-.27zm3.924 0h3.996v1.278h-3.996zm-.738 0h1.314v5.598c0 .72-.024 1.506-.072 2.358s-.15 1.722-.306 2.61c-.144.888-.354 1.752-.63 2.592-.276.828-.648 1.584-1.116 2.268-.06-.084-.156-.192-.288-.324-.12-.12-.246-.24-.378-.36-.132-.108-.246-.186-.342-.234.42-.66.75-1.362.99-2.106s.42-1.512.54-2.304.198-1.572.234-2.34.054-1.488.054-2.16zm4.194 0h1.332v13.752c0 .384-.054.684-.162.9-.096.216-.27.378-.522.486-.24.108-.576.174-1.008.198s-.972.036-1.62.036c-.012-.108-.048-.24-.108-.396-.048-.156-.102-.312-.162-.468-.048-.156-.108-.288-.18-.396.468.012.894.018 1.278.018.396 0 .654-.006.774-.018.144-.012.24-.042.288-.09.06-.048.09-.144.09-.288z" fill="#b2a88d"/><g clip-path="url(#c)"><g fill="#efe7d2"><path d="m51.3003 48.6h129.4117c.022 46.9012 0 93.802.011 140.704-.013 14.599.015 29.197-.015 43.796h-129.4077zm69.9017 11.7183c.171.9886.845 1.7995 1.229 2.7122-.892-.0499-1.782.0802-2.672.1258-6.393.4661-12.811.5788-19.217.3447-7.5883-.1713-15.0554-1.999-22.6608-1.8472-1.6653.0304-3.322.2276-4.9831.336-1.3154.0889-2.6827.2797-3.834.967-.743.4444-1.1793 1.2726-1.2614 2.1225-.2354 2.0315.1858 4.0542.4558 6.0597.2592 1.5089.3088 3.0417.378 4.568.1641 2.4499.2743 4.8998.419 7.3497-2.2162 1.1555-4.4237 2.3263-6.6377 3.4819 1.0865.6634 1.89 1.6737 2.7389 2.6038.6091.633.9634 1.4526 1.5206 2.1268.8122.9995 1.836 1.819 2.9636 2.4369-.0324.4249-.0497.8542-.026 1.2813.4623 10.0446.7755 20.0956.9872 30.1486.1706 8.456.3801 16.917.1188 25.373-.1037 2.968-.324 5.929-.4904 8.895-.689 9.516-.9244 19.068-.5659 28.603.1534 2.923.1663 5.865.5314 8.77-.9029 2.749-1.6395 5.593-1.8144 8.49-.1771.962-.5595 1.871-.7647 2.825.067.505.8208.756.9461.123 1.4947-1.498 3.0586-2.996 4.9853-3.917.8618-.449 1.849-.527 2.7324-.911 4.4906.044 8.9834.015 13.4697.245 4.7477.182 9.5019.206 14.2496.018 3.443-.109 6.89-.148 10.333-.302.102.687.216 1.377.253 2.073 1.778.084 3.886-.295 4.882-1.949l-.031.141c.05-.094.15-.28.201-.375 4.821-.074 9.643-.243 14.466-.276-.058-.312-.136-.62-.294-.893-.168-1.166-.166-2.35-.011-3.517 2.372.213 4.837.423 7.133-.385 1.08-.326 2.006-.976 2.929-1.605-.642 1.75-1.623 3.371-2.659 4.911-.951 1.396-2.126 2.747-3.739 3.36.572.378 1.313.202 1.961.258 3.316-.121 6.476-1.314 9.504-2.586l-.045.197c2.246-.21 4.505-.117 6.756-.21 2.799-.039 5.597-.139 8.396-.189.961-2.48 1.408-5.136 1.56-7.783.257-5.403-.253-10.801-.342-16.202 1.696.865 3.64 1.761 5.577 1.264.214-.097.428-.193.646-.286-.101-.197-.203-.395-.302-.588-.374-.154-.694-.403-1.022-.626-.892-1.145-1.851-2.346-2.065-3.831-.447-3.95-1.646-7.803-3.441-11.341.106-2.257-.099-4.514-.121-6.769-.557-23.118-.784-46.246-.507-69.3683.026-.8369.034-1.6737-.048-2.5063 1.629-2.5712 2.966-5.4634 2.912-8.5767.101-3.4082-1.719-6.3957-2.702-9.5546.421-1.1425.136-2.4282.259-3.6293-7.694-.2992-15.349-1.4265-23.06-1.3095-3.912.0521-7.781.6786-11.669 1.0515-.434.0391-.864.1063-1.289.206-.605-1.3398-1.145-2.71-1.789-4.0282-.371-.7913-1.371-.6504-2.08-.568-1.408.1777-3.028.9452-3.35 2.4607z"/><path d="m152.466 104.403c1.795-.321 3.419-1.186 5.102-1.843-.266 1.28-.937 2.444-1.879 3.341-1.853 1.819-4.452 2.563-6.96 2.888-1.864.362-3.693-.433-5.238-1.411-1.201-.789-2.374-1.672-3.251-2.825 2.374-.364 4.783-.354 7.178-.317 1.683.015 3.365.427 5.048.167z"/><path d="m127.149 108.895c.678-.448 1.239-1.062 1.963-1.446-1.091 2.533-3.16 4.527-5.493 5.926-1.05.643-2.19 1.118-3.266 1.714-1.054 1.119-2.291 2.123-3.806 2.515-2.561.692-5.305.083-7.635-1.086-1.769-1.017-3.845-1.175-5.802-1.58-.577-.1-1.156-.187-1.732-.278.144-.104.291-.208.44-.31-1.8227.135-3.6501.117-5.4774.18.9871-1.045 2.3393-1.663 3.6974-2.062 3.323-.951 6.854-.698 10.209-.06 1.678.294 3.287.943 4.996 1.053 1.46.093 2.933-.171 4.285-.722 2.642-1.056 5.264-2.226 7.621-3.844z"/><path d="m78.8123 119.677c3.9506.388 7.169 3.122 9.7761 5.923-.8165.681-1.7258 1.242-2.6265 1.806-.5141.356-1.147.393-1.7496.442-.4731-.136-.9353-.299-1.3911-.479-.5141-.576-.9828-1.233-1.0929-2.02-.2571-1.546-.7128-3.107-1.6956-4.356-.3888-.455-.8316-.861-1.2204-1.316z"/><path d="m90.5063 128.961c1.0952-2.524 3.5489-4.577 6.3569-4.707 1.1535-.119 2.2637.262 3.3938.414.226.364.404.754.6 1.136.192.384.367.776.523 1.177-.199.113-.398.228-.594.343-1.9982 1.162-4.3116 1.749-6.6163 1.747-1.2247.005-2.4408-.247-3.6634-.11z"/><path d="m78.9504 150.832c.8014.683 1.3997 1.554 2.1406 2.296 3.9787 4.136 9.2534 7.169 14.9947 7.861-1.8489 1.108-4.1169.978-6.1927 1.084-2.3738-.321-4.6159-1.205-6.845-2.038-1.6697-.629-3.158-1.984-3.5856-3.766-.3219-1.184.162-2.402-.08-3.592-.1188-.622-.2786-1.234-.432-1.845z"/><path d="m134.538 177.247c1.473-.368 2.983-.878 4.022-2.053.786 2.4.242 5.186-1.493 7.037-.862-.572-1.739-1.175-2.758-1.422-1.614-.438-3.46-.106-4.737 1-.477 1.04-.423 2.25-.749 3.347-1.443.312-2.929.202-4.379 0-.836-.256-1.397-1.045-2.199-1.299.348-.682.374-1.48.743-2.155.959-1.855 2.916-3.163 4.999-3.315 2.201-.255 4.404-.576 6.551-1.14z"/><path d="m141.256 179.433c.587-.779 1.218-1.568 2.119-1.995.358 2.452.22 5.32 2.075 7.224-.734.542-1.596.878-2.332 1.418-.597.407-1.055.973-1.519 1.52-.281-1.679-1.13-3.296-2.607-4.202.004-.122.011-.362.013-.481.605-.967 1.127-1.978 1.613-3.005.307.01.46-.284.638-.479z"/><path d="m129.983 182.576c.516.423.764 1.078 1.242 1.544 1.3 1.496 3.371 2.4 5.35 1.934.907 2.042 2.194 4.483 4.622 4.867-.527.273-1.129.306-1.695.451-2.234.54-4.472 1.216-6.457 2.402-.576.343-.959.926-1.527 1.275-.563.21-.656-.592-.561-.974.25-1.478 1.199-2.803 1.086-4.353.026-1.312-.918-2.376-2.011-2.966-.101-1.392-.067-2.788-.049-4.18z"/></g><path d="m121.202 60.3183c.322-1.5155 1.942-2.283 3.35-2.4608.709-.0823 1.709-.2233 2.08.5681.644 1.3181 1.184 2.6883 1.789 4.0282.834 1.9447 1.73 3.8634 2.54 5.819 2.03-1.4374 4.089-2.838 6.147-4.2385 1.247-.8347 2.716-1.6217 4.266-1.3095.324.078.815.3967.599.787-.242.5398-.754.8824-1.277 1.1144-2.477 1.1295-4.814 2.5713-6.916 4.3057-.739.633-1.534 1.329-1.778 2.3133-.227.9149.192 1.8255.694 2.5691-1.964 2.0596-3.735 4.2971-5.308 6.6711-.384-4.438-1.229-8.8673-2.924-13.0018-.607-1.5154-1.307-2.9919-2.033-4.4531-.384-.9128-1.058-1.7236-1.229-2.7122z" fill="#567c71"/><path d="m162.521 64.869c.16-.3643.523-.2711.834-.2125.449 2.0553.695 4.1951.278 6.2808-.464 2.929-1.823 5.6152-3.376 8.1041-2.43 3.909-5.391 7.4884-7.435 11.6337-.695 1.3637-1.194 2.8206-1.563 4.3036-.286-.0976-.573-.1865-.86-.271 1.117-4.5182 3.778-8.4099 6.441-12.141 2.383-3.4364 4.813-7.018 5.743-11.1654.435-1.8299.547-3.7746.076-5.6088-.06-.3035-.147-.6092-.138-.9235z" fill="#567c71"/><path d="m104.171 68.1384c.205-.1366.414-.271.624-.4054.749 1.4656.896 3.1328 1.08 4.7415.294 3.6423-.611 7.2325-1.514 10.7296-.195.8932-.445 1.8862.019 2.7447.57 1.0537 1.612 1.8082 1.979 2.9854.775 1.8905.602 3.9675 1.011 5.9383.423 2.0661 1.564 3.9371 3.067 5.3895.425.477 1.119.416 1.687.575-.659.108-1.305.271-1.948.442-1.277-1.255-2.439-2.6883-3.102-4.3729-.992-2.5258-.564-5.3811-1.659-7.8743-.477-1.1838-1.659-1.9339-2.028-3.1675-.244-1.1881-.072-2.4261.276-3.573.778-2.5582 1.244-5.2119 1.376-7.8829.097-2.1269-.343-4.2234-.868-6.27z" fill="#567c71"/><path d="m100.179 114.48c.399.052.797.126 1.199.18.576.091 1.155.178 1.732.278-1.02 3.557-1.961 7.165-2.253 10.866-.196-.382-.374-.772-.6-1.136-.6506-.692-.8255-1.663-.8342-2.582-.0453-2.559.5616-5.065.7562-7.606z" fill="#567c71"/><path d="m124.233 117.463c.265-.607.43-1.285.937-1.745.242.226.601.497.372.87-1.292 3.575-3.616 6.675-6.195 9.417-1.998 2.19-4.331 4.124-5.841 6.717-.464.861-1.035 1.726-1.084 2.734-.482.301-.946.631-1.391.984.337-1.656 1.149-3.18 2-4.624 1.886-2.957 4.678-5.147 6.895-7.829 1.728-1.958 3.268-4.115 4.307-6.524z" fill="#567c71"/><path d="m94.1697 129.071c2.3048.002 4.6181-.585 6.6163-1.747-.11 1.708-.166 3.419-.132 5.131-1.4644 2.5-2.4256 5.286-2.8727 8.15-1.3868.013-2.7994.178-4.0652.783-.0864-4.111.0065-8.226.4536-12.317z" fill="#567c71"/><path d="m121.794 146.671c1.957-.6 3.959-1.056 5.994-1.307 3.445-.321 7.076.293 9.984 2.257 2.497 1.615 4.451 4.234 4.873 7.23.077.805.555 1.67 1.414 1.813 2.705.223 5.208 1.496 7.405 3.029 3.467 2.46 6.259 5.704 9.096 8.841 2.14 2.263 4.132 4.665 6.253 6.946 1.006.987 2.026 2.034 3.339 2.602.328.223.648.472 1.022.626.099.193.201.391.302.588-.218.093-.432.189-.646.286-2.179-1.047-3.972-2.71-5.557-4.509-2.981-3.294-5.951-6.598-8.951-9.874-2.893-3.05-6.165-5.983-10.245-7.267-1.195-.412-2.67-.186-3.618-1.162-.873-.986-.707-2.417-1.173-3.584-1.175-3.02-3.892-5.279-6.932-6.25-2.501-.861-5.212-.924-7.797-.46-1.86.321-3.75.664-5.465 1.479.242-.425.48-.85.702-1.284z" fill="#567c71"/><path d="m109.962 178.763c.756.442 1.553.815 2.35 1.179.954 2.014 2.08 3.944 2.976 5.988.244-.748.123-1.743.825-2.255.601.013 1.216.098 1.748.397-.242 2.157-.404 4.323-.599 6.483.631 1.795 1.206 3.611 1.607 5.476.702-1.201 1.59-2.272 2.467-3.345.367.85.73 1.699 1.093 2.551-1.065 1.104-2.03 2.299-3.11 3.389.151 1.604.38 3.239.149 4.846-.996 1.654-3.104 2.033-4.882 1.949-.037-.696-.151-1.386-.253-2.073-.73-4.741-2.103-9.366-3.849-13.825-.399-1.009-.754-2.038-1.268-2.997 1.491-2.265 1.869-5.262.746-7.763z" fill="#567c71"/><path d="m83.6787 181.898c.3132-.545.594-1.115 1.013-1.585.2009.032.6027.102.8036.134-3.8319 7.313-9.8907 13.136-13.9277 20.319-1.2895 2.346-2.4797 4.804-3.0046 7.449-.1253.633-.8791.382-.9461-.123.2052-.954.5876-1.863.7647-2.825.6523-1.223 1.1081-2.539 1.7798-3.751 3.7152-7.07 9.4306-12.789 13.5173-19.618z" fill="#567c71"/><path d="m129.71 62.2479c3.888-.3729 7.757-.9995 11.669-1.0515 7.711-.1171 15.366 1.0103 23.06 1.3095-.123 1.201.162 2.4867-.259 3.6292-.175-.4661-.337-.9387-.512-1.4048-.078-.0196-.236-.0564-.313-.0738-.311-.0585-.674-.1517-.834.2125-.009.3144.078.6201.138.9236-1.045 1.0753-1.689 2.5518-3.026 3.3171-2.396 1.7453-4.389 3.9653-6.422 6.1074-1.464 1.4742-2.341 3.3973-3.207 5.2575-1.949 4.4553-3.467 9.0927-4.713 13.7909-.324.026-.757.0715-.795-.3729-.21-1.9274 1.35-3.4971 1.337-5.4006 0-.8889-.59-1.7626-1.441-2.0315-.698-.0802-1.37.2125-2.005.4661-2.337 1.0429-4.358 2.6494-6.439 4.1128 1.394-3.4233 2.659-6.9117 3.569-10.4976.486-2.0879.92-4.2104.898-6.3632-.056-1.1361-.177-2.3805-.95-3.2759-.544-.6071-1.469-.4943-2.177-.3122-1.826.568-3.238 1.936-4.592 3.2238-.502-.7436-.921-1.6542-.694-2.5691.244-.9843 1.039-1.6802 1.778-2.3133 2.102-1.7344 4.439-3.1762 6.916-4.3057.523-.232 1.035-.5745 1.277-1.1144.216-.3902-.275-.7089-.599-.787-1.55-.3122-3.019.4748-4.266 1.3095-2.058 1.4006-4.117 2.8011-6.147 4.2385-.81-1.9555-1.706-3.8742-2.54-5.819.425-.0997.855-.1669 1.289-.2059z" fill="#f0b1c6"/><path d="m72.8981 61.9899c1.661-.1084 3.3177-.3057 4.9831-.3361 7.6053-.1517 15.0724 1.6759 22.6608 1.8472 6.406.2342 12.824.1214 19.217-.3447.89-.0455 1.78-.1756 2.672-.1258.726 1.4613 1.426 2.9377 2.033 4.4532 1.695 4.1344 2.54 8.5637 2.924 13.0017-.051.0282-.157.0824-.211.1106-.601-3.0678-2.765-5.9881-5.854-6.8553.406 1.9924-.421 4.0108-1.605 5.5805-.745.9951-1.715 1.7864-2.721 2.4976-2.696 2.0011-4.126 5.3832-4.225 8.6916-1.394-3.6921-1.126-7.8049-.117-11.5599.173-.7285.529-1.4049.635-2.1464.039-1.9491-.903-3.7876-2.195-5.1903-1.449-1.5783-3.278-2.7751-5.229-3.6336-.343-.1258-.695-.3447-1.071-.2472-.21.1344-.419.2689-.624.4054-3.694 2.3675-7.122 5.431-9.0466 9.4549-1.6567 3.4341-1.8273 7.5664-.3823 11.1025.2074.4813.3888 1.0103.7992 1.3637.9958.8672 2.0477 1.7344 2.7022 2.9073.2592.3794.1663.8564.1577 1.2878-3.2055-2.6016-6.3267-5.3095-9.4932-7.9588-.7517-.6114-1.4235-1.3139-2.0844-2.0185-2.8123-2.9875-7.0892-4.451-11.1391-3.9913-2.4279.2992-4.4972 1.6845-6.6291 2.7707-.1447-2.4499-.2549-4.8998-.419-7.3496-.0691-1.5263-.1188-3.0591-.378-4.5681-.27-2.0054-.6912-4.0282-.4558-6.0597.0821-.8498.5184-1.678 1.2615-2.1225 1.1512-.6872 2.5185-.878 3.834-.9669z" fill="#f0b1c6"/><path d="m158.471 90.7012c2.227-1.7669 4.028-4.0109 5.499-6.4347.082.8325.074 1.6694.048 2.5062-.277 23.1223-.05 46.2513.507 69.3683.022 2.255.227 4.512.121 6.769-1.743-3.217-3.808-6.35-6.64-8.709-1.57-1.392-2.382-3.38-3.192-5.264-1.985-4.579-5.871-8.319-10.608-9.915 2.432-1.264 4.832-2.718 6.765-4.687-3.728-.349-7.387-1.409-10.741-3.074-3.601-1.704-7.593-2.745-11.595-2.461-1.763.128-3.536.646-4.949 1.743-.246-3.065.376-6.133 1.365-9.023 1.899 1.5 3.949 2.829 6.128 3.876.64-1.519.409-3.208.162-4.787.199.113.387.243.549.406 2.227 2.231 5.031 3.933 8.115 4.628 3.18.733 6.571.332 9.552-.969-1.152-1.571-1.664-3.492-2.225-5.329 1.605.373 3.184-.396 4.415-1.376.507-.319.445-.995.523-1.518.127-2.949-1.51-5.656-3.541-7.662 2.508-.325 5.107-1.069 6.96-2.888.942-.897 1.613-2.061 1.879-3.341 1.678-.585 3.329-1.313 4.73-2.426-.209-.5698-.529-1.114-1.054-1.4436-1.525-1.0168-3.406-1.1534-5.173-1.3593-.808-.3512-1.501-.9258-2.307-1.2835 1.573-1.7778 3.083-3.6163 4.707-5.3464z" fill="#f0b1c6"/><path d="m69.6407 93.7061c1.445.8716 3.2011.8195 4.6807 1.6022 2.6417 1.2488 5.1667 2.7426 7.627 4.3187.1836 2.326.7365 4.62 1.5833 6.79-2.7346-.121-5.6571-.949-7.4672-3.141-.7581 1.537-.676 3.343-.1101 4.928.9893 2.786 2.8944 5.108 4.8816 7.243-1.2874-.379-2.6007-.657-3.9247-.863-.2895 1.915.8229 3.686 1.8878 5.178-2.5466-.954-5.3417-1.267-8.0222-.757 2.7043 4.278 7.3072 6.933 12.0441 8.364.4558.18.918.343 1.3911.479-1.4559.95-2.7022 2.281-3.4172 3.881-.9093 2.001-1.0756 4.284-.6674 6.431-2.3479 2.671-4.0435 5.853-5.3806 9.136 3.4604-.547 6.4606-2.684 8.761-5.251 3.3156-3.742 5.4324-8.373 6.9984-13.084 1.2226-.137 2.4386.115 3.6634.11-.4472 4.091-.54 8.206-.4536 12.317-2.1017.904-3.631 2.736-4.67 4.73-2.1751-.121-4.1083 1.154-5.6268 2.589-.3132.262-.5875.635-1.0173.696-1.3219.239-2.659.388-3.9982.488.1793.312.3629.626.5465.941.1534.611.3132 1.223.432 1.845.2419 1.19-.2419 2.408.0799 3.592.4277 1.782 1.9159 3.137 3.5856 3.766 2.2291.833 4.4712 1.717 6.8451 2.038-2.5164 1.676-4.5684 4.052-5.7305 6.862-1.3435 3.154-1.5811 6.671-1.2161 10.051-5.8687 4.507-10.3054 10.803-12.7505 17.791-.365-2.905-.378-5.847-.5313-8.77-.3586-9.535-.1232-19.087.5659-28.603.1663-2.966.3866-5.927.4903-8.895.2614-8.456.0518-16.917-.1188-25.373-.2117-10.053-.5249-20.104-.9871-30.1486-.0238-.4271-.0065-.8563.0259-1.2813z" fill="#f0b1c6"/><path d="m103.11 114.938c1.957.405 4.033.563 5.802 1.58 2.33 1.169 5.073 1.778 7.635 1.086 1.514-.392 2.752-1.396 3.806-2.514.138.951.553 1.821.976 2.671-3.114 2.111-6.721 3.269-10.104 4.856-4.383 2.142-8.139 5.589-10.571 9.838-.035-1.712.022-3.423.132-5.131.196-.115.395-.23.594-.343-.156-.401-.331-.793-.523-1.177.292-3.701 1.233-7.309 2.253-10.866z" fill="#f0b1c6"/><path d="m119.394 150.6c2.141-.325 4.415-.521 6.476.292 1.425.549 2.62 1.78 2.966 3.292.421 3.41 1.583 6.794 3.7 9.524 2.898 3.172 6.933 5.285 11.186 5.843 3.353.383 6.804.331 10.012 1.511 1.952.637 3.89 1.413 5.562 2.632.92.663 1.544 1.645 2.441 2.339 1.099.865 2.285 1.62 3.516 2.285.089 5.401.598 10.799.341 16.202-.151 2.647-.598 5.303-1.559 7.783-2.799.05-5.597.15-8.396.189-2.251.093-4.51 0-6.757.21l.046-.197c.847-.375 1.706-.727 2.534-1.145.673-1.622.038-3.436-.947-4.778-.902-1.321-2.11-2.376-3.343-3.372.414-1.417.196-2.9-.026-4.329.274-.031.551-.059.827-.085.188-2.734.128-5.604-1.05-8.13-.725-1.535-1.952-2.953-3.594-3.499-1.389.169-2.054 1.674-2.711 2.745-.486 1.027-1.008 2.038-1.613 3.005-.294-.217-.586-.432-.877-.649.754-1.491 1.231-3.098 1.7-4.698.285-.733-.147-1.474-.441-2.129-.775-1.583-2.572-2.432-4.281-2.4-2.553-.1-4.91 1.062-7.109 2.229-2.777 1.52-5.467 3.527-6.979 6.385-.295.635-.812 1.455-.25 2.098.382.458.994.15 1.477.104.802.254 1.363 1.043 2.199 1.299-1.615.44-3.294 1.171-4.246 2.628-.247.444-.568.98-.339 1.498.453 1.151.997 2.263 1.477 3.404-.877 1.073-1.765 2.144-2.467 3.345-.401-1.864-.976-3.681-1.607-5.476.195-2.16.357-4.326.599-6.483-.532-.299-1.147-.384-1.748-.397-.702.512-.581 1.507-.825 2.255-.896-2.044-2.022-3.974-2.976-5.988 2.287.878 4.952 1.613 7.287.473-.33-2.702-.836-5.622-2.708-7.719.911-.286 1.818-.648 2.566-1.257.773-.614 1.272-1.485 1.955-2.185.777-.835 1.674-1.587 2.741-2.019 2.205-.919 4.6-1.201 6.886-1.856-.177-1.056-.758-2.025-1.54-2.74-.949-.781-2.147-1.275-2.884-2.298-1.289-1.704-1.132-4.07-2.462-5.746-1.411-1.927-4.122-2.851-6.364-1.923.545-.683 1.104-1.355 1.605-2.072z" fill="#f0b1c6"/><path d="m88.6962 180.681c1.188.011 2.3609-.275 3.4085-.834-1.2787 1.996-2.2032 4.245-2.4667 6.619-.4169 3.141.4471 6.339 2.039 9.043 1.134-1.284 2.5488-2.355 4.1947-2.867 1.1902-.418 2.5683-.145 3.6439-.91.7864-.416 1.2054-1.247 1.3584-2.092 1.007 1.552 1.94 3.18 2.506 4.956.546-1.899 1.415-3.816 3.043-5.026 1.113-.828 2.052-1.871 2.793-3.044.514.959.869 1.988 1.268 2.997 1.745 4.459 3.119 9.084 3.849 13.825-3.443.154-6.89.193-10.333.302-4.7479.188-9.502.164-14.2497-.018-4.4863-.23-8.9791-.201-13.4698-.245 3.8535-1.543 7.5514-4.286 9.0547-8.301 1.4883-4.694 3.0975-9.446 3.361-14.405z" fill="#f0b1c6"/><path d="m119.319 198.626c1.08-1.09 2.045-2.285 3.11-3.388.495 1.123.957 2.261 1.493 3.364 1.026 2.097 3.103 3.623 5.393 4.016 1.514.284 3.056-.081 4.495-.549.158.273.235.581.294.893-4.823.033-9.645.202-14.466.276-.052.095-.151.281-.201.375l.031-.141c.231-1.607.002-3.241-.149-4.846z" fill="#f0b1c6"/><path d="m163.355 64.6566c.077.0173.235.0542.313.0737.175.4661.337.9387.512 1.4049.982 3.1588 2.803 6.1463 2.702 9.5545.054 3.1133-1.283 6.0055-2.912 8.5768-1.471 2.4238-3.272 4.6678-5.499 6.4347-1.625 1.7301-3.134 3.5686-4.707 5.3464-.814-.4076-1.648-.7718-2.505-1.0689.369-1.4829.868-2.9398 1.563-4.3035 2.044-4.1453 5.005-7.7247 7.435-11.6337 1.553-2.4889 2.912-5.1751 3.376-8.1041.417-2.0857.171-4.2255-.278-6.2808z" fill="#889e56"/><path d="m159.633 69.1097c1.337-.7653 1.981-2.2418 3.026-3.3171.471 1.8342.359 3.7789-.076 5.6087-.93 4.1475-3.36 7.7291-5.743 11.1654-2.663 3.7312-5.324 7.6228-6.441 12.141-1.657-.4444-3.398-.6916-5.108-.4422 1.246-4.6982 2.764-9.3356 4.713-13.7909.866-1.8602 1.743-3.7833 3.207-5.2575 2.033-2.1421 4.026-4.3621 6.422-6.1074z" fill="#889e56"/><path d="m104.795 67.733c.376-.0975.728.1214 1.071.2472 1.951.8585 3.78 2.0553 5.23 3.6336 1.291 1.4027 2.233 3.2412 2.194 5.1903-.106.7415-.462 1.4179-.635 2.1463-1.009 3.7551-1.276 7.8679.117 11.56.084 1.264.179 2.5453.63 3.7399 1.007 2.7599 2.973 5.0385 5.07 7.0307-2.046-.663-4.231-.698-6.348-.444-.568-.158-1.262-.098-1.687-.575-1.504-1.4523-2.644-3.3233-3.067-5.3895-.409-1.9707-.236-4.0477-1.011-5.9382-.368-1.1773-1.409-1.9318-1.979-2.9854-.464-.8586-.214-1.8515-.019-2.7448.903-3.497 1.808-7.0873 1.514-10.7296-.184-1.6087-.331-3.2759-1.08-4.7415z" fill="#889e56"/><path d="m95.1244 77.5932c1.9246-4.0238 5.3526-7.0873 9.0466-9.4548.524 2.0467.965 4.1431.868 6.27-.132 2.671-.598 5.3247-1.376 7.883-.348 1.1469-.521 2.3848-.277 3.5729.37 1.2336 1.551 1.9838 2.029 3.1675 1.095 2.4933.667 5.3486 1.659 7.8743.663 1.6846 1.825 3.1179 3.101 4.3729-2.246.594-4.283 1.745-6.264 2.929-1.749 1.075-3.471 2.235-4.9094 3.718-1.8187-4.23-4.9852-7.737-8.5168-10.6123-2.2983-1.7127-4.5036-3.5772-6.966-5.0515-1.4278 2.155-1.782 4.8326-1.5704 7.3648-2.4602-1.5761-4.9852-3.0699-7.6269-4.3187-1.4796-.7827-3.2357-.7306-4.6807-1.6022-1.1276-.6179-2.1514-1.4374-2.9636-2.4369-.5572-.6742-.9115-1.4937-1.5206-2.1268-.8489-.9301-1.6524-1.9404-2.7389-2.6038 2.214-1.1556 4.4215-2.3263 6.6377-3.4819 2.1319-1.0862 4.2012-2.4716 6.629-2.7708 4.05-.4596 8.3268 1.0038 11.1392 3.9914.6609.7046 1.3327 1.4071 2.0844 2.0185 3.1665 2.6493 6.2877 5.3572 9.4932 7.9588.0086-.4314.1015-.9084-.1577-1.2878-.6545-1.1729-1.7064-2.0401-2.7022-2.9073-.4104-.3534-.5918-.8824-.7992-1.3637-1.445-3.5361-1.2744-7.6684.3823-11.1026z" fill="#889e56"/><path d="m121.33 117.76c1.71-1.12 3.44-2.211 5.16-3.319.507 2.441-.296 4.937-1.439 7.079-.989 2.89-1.611 5.958-1.365 9.023 1.413-1.097 3.186-1.615 4.949-1.743 4.002-.284 7.994.757 11.595 2.461 3.354 1.665 7.013 2.725 10.741 3.074-1.933 1.969-4.333 3.423-6.765 4.687 4.737 1.596 8.623 5.336 10.608 9.915.81 1.884 1.622 3.872 3.192 5.264 2.832 2.359 4.897 5.492 6.64 8.709 1.795 3.538 2.994 7.391 3.441 11.341.214 1.485 1.173 2.686 2.065 3.831-1.313-.568-2.333-1.615-3.339-2.602-2.121-2.281-4.113-4.683-6.254-6.946-2.836-3.137-5.628-6.381-9.095-8.841-2.197-1.533-4.7-2.806-7.405-3.029-.859-.143-1.337-1.008-1.415-1.813-.421-2.996-2.376-5.615-4.873-7.23-2.907-1.964-6.538-2.578-9.983-2.257-2.035.251-4.037.707-5.994 1.307 1.16-2.443 2.067-5.116 1.845-7.861-.115-1.637-.737-3.224-1.75-4.51-3.158-.73-6.614-.459-9.467 1.156.049-1.008.62-1.873 1.084-2.734 1.51-2.593 3.843-4.527 5.841-6.716 2.579-2.743 4.903-5.843 6.195-9.418.229-.373-.13-.644-.372-.87-.508.46-.672 1.138-.937 1.745-1.039 2.409-2.579 4.566-4.307 6.524-2.217 2.682-5.009 4.872-6.895 7.829-.851 1.444-1.663 2.968-2 4.624-2.18 1.834-3.433 4.492-4.182 7.192-2.7-1.746-5.843-2.89-9.0678-3.027.4472-2.864 1.4084-5.65 2.8728-8.15 2.432-4.249 6.188-7.696 10.571-9.838 3.383-1.587 6.99-2.745 10.105-4.857z" fill="#889e56"/><path d="m126.557 146.476c2.585-.464 5.296-.401 7.797.46 3.04.971 5.757 3.23 6.932 6.25.466 1.167.3 2.598 1.173 3.584.948.976 2.423.75 3.618 1.162 4.08 1.284 7.352 4.217 10.245 7.267 3 3.276 5.97 6.58 8.951 9.874 1.585 1.799 3.378 3.462 5.557 4.509-1.937.497-3.881-.399-5.577-1.264-1.231-.665-2.417-1.42-3.516-2.285-.897-.694-1.521-1.676-2.441-2.339-1.672-1.219-3.609-1.995-5.562-2.632-3.208-1.18-6.659-1.128-10.012-1.511-4.253-.558-8.288-2.671-11.186-5.843-2.117-2.73-3.279-6.114-3.7-9.524-.346-1.512-1.54-2.743-2.966-3.292-2.061-.813-4.335-.617-6.476-.292.603-.857 1.18-1.732 1.698-2.645 1.715-.815 3.605-1.158 5.465-1.479z" fill="#889e56"/><path d="m70.196 196.777c2.4451-6.988 6.8818-13.284 12.7505-17.791.041.323.0821.646.1274.973.5335.141 1.0735.261 1.6179.354-.4191.47-.6999 1.04-1.0131 1.585-4.0867 6.829-9.8021 12.548-13.5173 19.618-.6717 1.212-1.1275 2.528-1.7798 3.751.175-2.897.9115-5.741 1.8144-8.49z" fill="#889e56"/><path d="m85.4952 180.447c1.0584.169 2.1298.221 3.2011.234-.2635 4.959-1.8727 9.711-3.3609 14.405-1.5034 4.015-5.2013 6.758-9.0547 8.301-.8835.384-1.8706.462-2.7324.911-1.9268.921-3.4906 2.419-4.9853 3.917.5249-2.645 1.715-5.103 3.0045-7.449 4.0371-7.183 10.0959-13.006 13.9277-20.319z" fill="#889e56"/><path d="m137.294 97.6324c1.028-.1041 2.18-.3013 3.119.2602.763.4184 1.203 1.4656.683 2.2414-1.015 1.62-3.028 2.392-3.791 4.211-.577 1.266-.948 2.885-2.352 3.495-2.359 1.06-5.197-1.245-5.024-3.736.103-1.604.989-3.07 2.158-4.1323 1.416-1.3398 3.315-2.0293 5.207-2.3393zm-1.78 2.7596c-.419.276.022 1.104.437.67.613-.566 1.326-1.017 2.151-1.1965-.002-.2407-.004-.4791-.006-.7155-.983.0044-1.895.5767-2.582 1.242zm-2.246-.099c-.797.659-1.486 1.47-1.97 2.389-.212.342.084.85.497.691.475-.867 1.097-1.621 1.808-2.304.395-.228.08-.974-.335-.776zm4.102 1.086c-.786.635-1.419 1.446-1.979 2.283.024.383.389.449.702.429.506-.828 1.134-1.622 2.003-2.086.056-.403-.309-.876-.726-.626zm-3.43 1.064c-.426.742-1.104 1.388-1.221 2.268.199.061.486.347.657.067.482-.626.845-1.34 1.268-2.005 0-.154 0-.462 0-.616-.259.041-.588-.013-.704.286z" fill="#e2b560"/><path d="m104.08 154.929c.771-.323 1.607.204 2.035.844.717 1.064.855 2.38 1.112 3.61.216 1.352.557 2.857-.117 4.136-.71 1.138-2.097 1.568-3.324 1.886-.745.226-1.577-.206-1.857-.925-.951-2.368-.61-5.08.425-7.361.382-.843.804-1.828 1.726-2.19zm-.294 1.822c-.559.78-.965 1.808-.78 2.779.143.353.497.217.733.05.023-.56.043-1.141.308-1.646.124-.347.417-.68.318-1.069-.14-.158-.419-.375-.579-.114zm-.542 5.103c.192.77.276 1.574.555 2.32.214.412.741-.115.639-.442-.205-.861-.257-1.776-.678-2.567-.235.151-.637.34-.516.689z" fill="#e2b560"/><path d="m135.514 100.392c.687-.6653 1.599-1.2376 2.581-1.242.003.2363.005.4748.007.7155-.825.1795-1.538.6305-2.151 1.1965-.415.434-.856-.394-.437-.67z" fill="#f4d485"/><path d="m133.268 100.293c.415-.198.73.548.335.776-.711.683-1.333 1.437-1.808 2.304-.413.159-.709-.349-.497-.691.484-.919 1.173-1.73 1.97-2.389z" fill="#f4d485"/><path d="m137.37 101.379c.417-.25.782.223.725.626-.868.464-1.496 1.258-2.002 2.086-.313.019-.678-.046-.702-.429.56-.837 1.192-1.648 1.979-2.283z" fill="#f4d485"/><path d="m133.94 102.443c.116-.299.445-.245.704-.286v.616c-.424.665-.786 1.379-1.268 2.005-.171.28-.458-.006-.657-.067.117-.88.795-1.526 1.221-2.268z" fill="#f4d485"/><path d="m103.786 156.75c.16-.26.439-.043.579.115.099.388-.194.722-.318 1.069-.265.505-.285 1.086-.308 1.646-.236.167-.59.303-.733-.05-.185-.971.221-1.999.78-2.78z" fill="#f4d485"/><path d="m103.244 161.854c-.121-.349.281-.538.516-.689.421.791.473 1.706.678 2.567.102.327-.425.854-.639.442-.279-.746-.363-1.55-.555-2.32z" fill="#f4d485"/></g></svg>